<svg xmlns="http://www.w3.org/2000/svg" viewBox="0 0 555.78 747.19"><defs><style>.cls-1{fill:none;}.cls-2{fill:#eb422e;}.cls-3{fill:#f59745;}.cls-4{fill:#4a9343;}.cls-5{fill:#f4b88c;}.cls-6{fill:#261c1f;}.cls-7{fill:#fd8000;}.cls-8{fill:#cf3339;}.cls-9{fill:#fff;}</style></defs><g id="Layer_2" data-name="Layer 2"><g id="original"><path class="cls-1" d="M521.17,52.16a1.71,1.71,0,0,0,.32-.71,4.83,4.83,0,0,0,0-1.75,1.71,1.71,0,0,0-.32-.71,1.46,1.46,0,0,0-.63-.47,2.65,2.65,0,0,0-1-.17h-1.07V52.8h1.07a2.85,2.85,0,0,0,1-.17A1.46,1.46,0,0,0,521.17,52.16Z"/><path class="cls-1" d="M238.76,663a2.33,2.33,0,0,0-1.61.58,2.5,2.5,0,0,0-.79,1.6h4.82a2,2,0,0,0-.71-1.58A2.55,2.55,0,0,0,238.76,663Z"/><path class="cls-1" d="M229.84,664.81a4.3,4.3,0,0,0-1.1-3.13,4.12,4.12,0,0,0-3.12-1.13H223.8V669h1.82a3.83,3.83,0,0,0,4.22-4.2Z"/><path class="cls-1" d="M271.28,663a2.33,2.33,0,0,0-1.61.58,2.56,2.56,0,0,0-.8,1.6h4.83a2,2,0,0,0-.72-1.58A2.51,2.51,0,0,0,271.28,663Z"/><path class="cls-1" d="M290,663a2.3,2.3,0,0,0-1.6.58,2.51,2.51,0,0,0-.8,1.6h4.83a2.06,2.06,0,0,0-.72-1.58A2.53,2.53,0,0,0,290,663Z"/><path class="cls-1" d="M303.94,664.5a2.59,2.59,0,0,0-1-1,2.73,2.73,0,0,0-1.34-.35,2.51,2.51,0,0,0-1.32.35,2.65,2.65,0,0,0-1,1,3.22,3.22,0,0,0-.38,1.59,3.33,3.33,0,0,0,.38,1.61,2.65,2.65,0,0,0,1,1.05,2.48,2.48,0,0,0,1.31.37,2.64,2.64,0,0,0,1.34-.36,2.52,2.52,0,0,0,1-1,3.21,3.21,0,0,0,.37-1.6A3.25,3.25,0,0,0,303.94,664.5Z"/><path class="cls-1" d="M529.88,50.38a.66.66,0,0,0,.26-.08.44.44,0,0,0,.19-.17.62.62,0,0,0,.07-.31.42.42,0,0,0-.08-.26.65.65,0,0,0-.18-.15,1,1,0,0,0-.26-.06l-.27,0h-.71v1.06h1Z"/><path class="cls-1" d="M514.26,427.2h-1.42v10.07h1.42c3.72,0,4.65-1.84,4.65-5S518,427.2,514.26,427.2Z"/><path class="cls-1" d="M527.7,52.48a2.37,2.37,0,0,0,1.84.79,2.45,2.45,0,0,0,1-.19,2.32,2.32,0,0,0,.79-.56,2.57,2.57,0,0,0,.54-.85,3.25,3.25,0,0,0,0-2.19,2.57,2.57,0,0,0-.54-.85,2.32,2.32,0,0,0-.79-.56,2.45,2.45,0,0,0-1-.19,2.53,2.53,0,0,0-1,.19,2.46,2.46,0,0,0-.8.56,2.72,2.72,0,0,0-.53.85,3,3,0,0,0-.19,1.09,3.21,3.21,0,0,0,.17,1A2.82,2.82,0,0,0,527.7,52.48Zm.6-3.65h1.37a1.68,1.68,0,0,1,1,.24.94.94,0,0,1,.33.8.88.88,0,0,1-.27.71,1.16,1.16,0,0,1-.67.27l1,1.59h-.67l-.94-1.54h-.55v1.54h-.6Z"/><path class="cls-1" d="M330.26,29.4a1.86,1.86,0,0,0-1.3-.94,2.36,2.36,0,0,0-1.64.35,2.28,2.28,0,0,0-1,1.23,2.3,2.3,0,0,0,.11,1.68Z"/><path class="cls-1" d="M353.29,18.93a1.86,1.86,0,0,0-1.11-1.16,2.3,2.3,0,0,0-1.67,0,2.33,2.33,0,0,0-1.25,1,2.38,2.38,0,0,0-.2,1.67Z"/><path class="cls-1" d="M172.75,179.91c21.48-1.29,46.74-15,51.26-37.88,2.93-14.84-3.26-32.08-16.56-46.12-11.48-12.13-26.75-21-41.07-28.65-29.64,26.3-52.4,55.55-69,88.71C120.24,167.2,150.9,181.22,172.75,179.91Zm-1-19.31c-9.66,2.83-19.19-.7-21.3-7.88s4-15.31,13.66-18.14,19.18.7,21.29,7.88S181.42,157.77,171.77,160.6ZM166.7,84.19c11,5,29,13.91,39.07,37.26,4.76,11.09-.5,23.29-10.84,31.93a23.25,23.25,0,0,0,1.8-17.12c-4-13.8-20.78-21-37.36-16.17s-26.76,20-22.71,33.79a22.25,22.25,0,0,0,4.93,8.72c-11.2-2.51-21.35-6.92-27.54-12.73C135.1,120.89,151.13,99.76,166.7,84.19Z"/><path class="cls-1" d="M336.09,731.5c5.08,0,7.62-10.73,7.82-14.06s-1.06-4.51-2.53-4.51h-1.52l-5.45,18.57Z"/><path class="cls-1" d="M309.81,40.49a1.83,1.83,0,0,0-1.31-.63,2.11,2.11,0,0,0-1.44.72l-1.41,1.36,2.57,2.66,1.41-1.36a2.16,2.16,0,0,0,.77-1.41A1.85,1.85,0,0,0,309.81,40.49Z"/><polygon class="cls-1" points="269.07 438.63 268.88 438.63 261.11 464.83 276.84 464.83 269.07 438.63"/><path class="cls-1" d="M398.31,12.68a2.5,2.5,0,0,0,3.63-.27,2.94,2.94,0,0,0,.58-2.18,3,3,0,0,0-.91-2.06,2.53,2.53,0,0,0-3.63.28,2.88,2.88,0,0,0-.58,2.16A3,3,0,0,0,398.31,12.68Z"/><path class="cls-1" d="M387.77,9.15a2.33,2.33,0,0,0-1.64-.31,2.28,2.28,0,0,0-1.43.74,2.32,2.32,0,0,0-.54,1.59l4.45-.66A1.84,1.84,0,0,0,387.77,9.15Z"/><path class="cls-1" d="M419.47,12.66a2.46,2.46,0,0,0,1.83-.77,3,3,0,0,0,.78-2.13,2.85,2.85,0,0,0-.73-2.12,2.46,2.46,0,0,0-1.83-.79,2.49,2.49,0,0,0-1.83.76,3,3,0,0,0-.76,2.12,2.93,2.93,0,0,0,.72,2.13A2.44,2.44,0,0,0,419.47,12.66Z"/><polygon class="cls-1" points="536.98 452.54 536.92 452.54 534.74 459.9 539.16 459.9 536.98 452.54"/><polygon class="cls-1" points="498.83 548.6 485.61 593.18 512.39 593.18 499.17 548.6 498.83 548.6"/><path class="cls-1" d="M316.72,667.7a2.62,2.62,0,0,0,1,1,2.57,2.57,0,0,0,1.32.36,2.52,2.52,0,0,0,1.33-.37,2.68,2.68,0,0,0,1-1,3.34,3.34,0,0,0,.37-1.62,3.22,3.22,0,0,0-.37-1.59,2.62,2.62,0,0,0-2.32-1.36,2.58,2.58,0,0,0-2.31,1.39,3.26,3.26,0,0,0-.37,1.6A3.22,3.22,0,0,0,316.72,667.7Z"/><path class="cls-1" d="M317,709.29a22.67,22.67,0,0,0,2-7.34,3.47,3.47,0,0,0-.8-2.76,2.07,2.07,0,0,0-1.49-.58l-4,0-4.79,16.29,3.06,0C314.41,714.49,315.65,712.27,317,709.29Z"/><path class="cls-1" d="M70.21,541.48H50.54v25.26H72.07c6.44,0,13.22-4.07,13.22-12.38C85.29,546.23,79.7,541.48,70.21,541.48Z"/><path class="cls-1" d="M483.47,297.46c-.19,1.37-.43,2.59-.68,3.62a45.65,45.65,0,0,1-14.06,23h43.88c-7.08-6.37-14.13-12.85-21.06-19.21Z"/><path class="cls-2" d="M65.75,177.92c-15.86,42.79-24.21,92.82-26.28,157.42a10.17,10.17,0,0,0,9.84,10.49h.33A10.18,10.18,0,0,0,59.81,336c2-62.34,9.94-110.32,25-151q2-5.31,4.12-10.5c24.78,12.17,58.26,27.35,85,25.74a84.89,84.89,0,0,0,43.88-15.5C231.93,174.62,241,161.22,244,146c4.21-21.29-3.92-45.23-21.74-64-15.45-16.32-36-27.19-52.5-35.92a10.17,10.17,0,0,0-11.36,1.25C114.89,84.35,84.59,127.09,65.75,177.92ZM166.38,67.26C180.7,74.93,196,83.78,207.45,95.91c13.3,14,19.49,31.28,16.56,46.12-4.52,22.87-29.78,36.59-51.26,37.88C150.9,181.22,120.24,167.2,97.4,156,114,122.81,136.74,93.56,166.38,67.26Z"/><path class="cls-3" d="M108.51,205.44A10.17,10.17,0,0,0,96.25,213C85.63,257.43,80.43,281.2,78,335.21a10.18,10.18,0,0,0,9.72,10.62h.46a10.17,10.17,0,0,0,10.15-9.72c2.33-52.27,7.11-74.08,17.69-118.43A10.16,10.16,0,0,0,108.51,205.44Z"/><path class="cls-4" d="M263.52,142.29c15,8.76,24.75,15.55,35.09,22.74,6.61,4.59,13.37,9.29,21.57,14.52A1184.17,1184.17,0,0,0,118.53,326.71a10.17,10.17,0,0,0,6.83,17.72h253a10.18,10.18,0,1,0,0-20.35H152.22A1166.31,1166.31,0,0,1,345.16,188.71a10.17,10.17,0,0,0,.15-17.65c-15-8.77-24.75-15.56-35.09-22.74s-20.76-14.43-36.43-23.6a10.18,10.18,0,1,0-10.27,17.57Z"/><path class="cls-3" d="M282.63,305.34c11.64.12,23.42.17,35.25.17,20.34,0,40.81-.14,60.85-.28,19.16-.13,37.27-.26,54.56-.26a10.18,10.18,0,1,0,0-20.35c-17.36,0-35.5.13-54.7.26-14.76.1-29.74.21-44.72.25,17.36-6.68,35.43-13.31,52.35-19.53,16.52-6.06,32.12-11.79,44.1-16.5a10.17,10.17,0,0,0,2.41-17.58c-8.78-6.64-16.9-13.07-24.76-19.3-10.53-8.34-21.42-17-33.59-25.82a10.18,10.18,0,1,0-12,16.45c11.84,8.62,22.08,16.73,32.93,25.33,3.5,2.76,7,5.57,10.68,8.42-8.28,3.1-17.39,6.45-26.8,9.9-33.7,12.37-71.89,26.39-100.66,39.39a10.18,10.18,0,0,0,4.08,19.45Z"/><path class="cls-2" d="M463.52,253q-3.48-2.94-7.73-5.87l-.08,0,0,0-.18-.13-.3-.18c-.16-.1-.32-.2-.49-.29a3.17,3.17,0,0,0-.41-.21c-.17-.09-.33-.17-.5-.24l-.43-.17c-.17-.06-.34-.13-.52-.18l-.44-.13-.52-.13-.45-.08-.52-.07-.45,0-.53,0c-.15,0-.29,0-.44,0s-.36,0-.54,0l-.43,0a5,5,0,0,0-.54.08l-.41.08-.55.14-.39.12-.53.19-.39.16-.51.23-.38.21c-.16.09-.32.18-.47.28L444,247l-.43.31-.38.32-.38.33-.37.38-.33.36c-.12.14-.23.29-.34.43s-.16.19-.23.29a.61.61,0,0,1-.07.1.76.76,0,0,1-.08.11c-.08.12-.14.24-.21.36a4.28,4.28,0,0,0-.26.42c-.09.15-.17.32-.25.48s-.14.28-.2.43-.14.34-.2.51-.11.28-.15.43-.1.35-.15.53-.08.28-.11.43-.06.37-.09.55-.05.28-.07.42,0,.37,0,.56,0,.28,0,.42,0,.37,0,.56,0,.28,0,.41,0,.37.07.56a2.7,2.7,0,0,0,.06.41c0,.18.07.36.11.54s.06.28.1.42.11.34.16.51l.15.42c.06.16.14.33.21.49l.18.41c.08.16.17.31.26.47l.23.39c.09.15.2.3.3.45l.26.36c.12.15.24.29.37.43l.29.33c.13.14.27.27.41.41l.33.3c.14.12.3.24.46.36s.17.15.26.21c1.92,1.38,4,2.93,6.08,4.59,10.56,8.91,15.3,18.91,13.08,28.1-3.35,13.83-21.81,24.77-47,27.85l-.34.06c-.2,0-.4.06-.6.11l-.41.1-.56.16-.44.16-.48.19-.48.23-.4.2-.48.29-.35.23c-.16.11-.3.22-.45.34l-.33.26c-.14.11-.27.24-.41.37l-.31.29-.35.39c-.1.12-.21.23-.3.35l-.3.4c-.09.13-.19.26-.28.4s-.17.27-.25.41-.17.28-.25.43L408,330c-.07.15-.14.3-.2.45s-.12.32-.18.49l-.15.43c0,.19-.1.38-.14.56s-.07.27-.1.4-.07.43-.09.64,0,.24-.05.36,0,.45,0,.67a2.83,2.83,0,0,0,0,.29.22.22,0,0,0,0,.08c0,.19,0,.39,0,.59s0,.31,0,.47a.38.38,0,0,0,0,.1c0,.15.05.31.07.46s.05.28.08.42a5.66,5.66,0,0,0,.15.59,3.58,3.58,0,0,0,.09.35,9.83,9.83,0,0,0,.76,1.79l0,0c.15.27.31.53.47.78l.12.16c.14.2.29.4.45.59a2,2,0,0,0,.19.22c.14.17.28.33.43.48s.17.16.25.24l.44.4.3.24.44.33.35.23.44.27.38.21.46.22.4.18.51.18.39.13a5.26,5.26,0,0,0,.6.15l.33.08c.25,0,.51.09.77.12l.19,0c.33,0,.66.05,1,.05H539.7a10.17,10.17,0,0,0,6.56-17.95c-13.57-11.46-27.49-24.24-40.95-36.6C490.17,276,475.72,262.71,463.52,253Zm5.21,71.08a45.65,45.65,0,0,0,14.06-23c.25-1,.49-2.25.68-3.62l8.08,7.41c6.93,6.36,14,12.84,21.06,19.21Z"/><path class="cls-5" d="M141.59,162.6a22.25,22.25,0,0,1-4.93-8.72c-4-13.79,6.12-28.92,22.71-33.79s33.31,2.37,37.36,16.17a23.25,23.25,0,0,1-1.8,17.12c10.34-8.64,15.6-20.84,10.84-31.93-10-23.35-28-32.24-39.07-37.26-15.57,15.57-31.6,36.7-52.65,65.68C120.24,155.68,130.39,160.09,141.59,162.6Z"/><path class="cls-2" d="M164.13,134.58c-9.65,2.83-15.77,10.95-13.66,18.14s11.64,10.71,21.3,7.88,15.76-10.95,13.65-18.14S173.78,131.75,164.13,134.58Z"/><path class="cls-2" d="M229.13,282.49c-13,3.8-21.85,12.4-19.86,19.2s14.12,9.22,27.08,5.42,21.85-12.4,19.86-19.2S242.09,278.69,229.13,282.49Z"/><path class="cls-5" d="M194.22,212.4c-28.11,7.22-59.57,2.93-59.57,2.93L117.57,300.9S199.23,232.19,290,171.16C279.2,164.92,257.19,151,257.19,151S251.83,197.59,194.22,212.4Z"/><path class="cls-3" d="M10,347.12h.29a10.25,10.25,0,0,0,10.23-10c4.81-178,70.71-255.55,119.87-298.41a10.24,10.24,0,0,0-13.46-15.44c-37.19,32.42-65.12,69.4-85.4,113C15.72,191.81,2.15,257.31,0,336.61A10.24,10.24,0,0,0,10,347.12Z"/><path class="cls-5" d="M337.86,206.56s-67.91,48.34-86,66.15l115.39-47.47Z"/><path class="cls-3" d="M10.24,388.15H539.7a10.24,10.24,0,1,0,0-20.48H10.24a10.24,10.24,0,1,0,0,20.48Z"/><path class="cls-6" d="M123.26,554.19c0-33.05-23.39-42.2-53.22-42.2H34.78c-15.08,0-22.2,7-22.2,23.22v80.68c0,13.05,6.78,20.34,19,20.34s19-7.29,19-20.34V596.23H70C99.87,596.23,123.26,587.07,123.26,554.19ZM72.07,566.74H50.54V541.48H70.21c9.49,0,15.08,4.75,15.08,12.88C85.29,562.67,78.51,566.74,72.07,566.74Z"/><path class="cls-6" d="M182.91,615.21V530.8c0-13-7.45-21-19.49-21s-19.49,8-19.49,21v84.41c0,13,7.46,21,19.49,21S182.91,628.26,182.91,615.21Z"/><path class="cls-6" d="M203.08,527.24c0,9.16,5.93,15.26,18.64,15.26h38l-48.82,54.24C202.4,606.06,200,610.47,200,616.91,200,626.4,206,634,219.18,634h78c11.69,0,17.8-5.25,17.8-15.25s-6.11-15.25-17.8-15.25H253.08l52.2-58c5.94-6.61,7.8-10.85,7.8-16.44,0-9.49-5.42-17.12-17.8-17.12H221.72C209,512,203.08,518.09,203.08,527.24Z"/><path class="cls-6" d="M419.52,603.52H375.45l52.2-58c5.93-6.61,7.8-10.85,7.8-16.44,0-9.49-5.43-17.12-17.8-17.12H344.09c-12.71,0-18.64,6.1-18.64,15.25s5.93,15.26,18.64,15.26h38l-48.82,54.24c-8.47,9.32-10.85,13.73-10.85,20.17,0,9.49,5.94,17.11,19.16,17.11h78c11.69,0,17.79-5.25,17.79-15.25S431.21,603.52,419.52,603.52Z"/><path class="cls-6" d="M549.68,597.75l-25.93-72.2c-3.73-10.17-8.82-15.76-18.65-15.76H492.9c-9.83,0-14.92,5.59-18.65,15.76l-25.93,72.2c-2.88,8.14-6.1,17.12-6.1,22.72,0,9.15,9,15.76,17.8,15.76,6.1,0,13.73-2.71,15.76-9.66l2.71-9h41l2.71,9c2,6.95,9.66,9.66,15.76,9.66,8.82,0,17.8-6.61,17.8-15.76C555.78,614.87,552.56,605.89,549.68,597.75Zm-64.07-4.57,13.22-44.58h.34l13.22,44.58Z"/><path class="cls-6" d="M63.8,466.12c0-12.45-8.26-18-20.31-21.31l-11.86-3.19c-4.88-1.29-7.67-2.69-7.67-5.87S27.55,431,31.43,431c11.36,0,11.46,8.76,19.13,8.76,5.67,0,10-3.49,10-9.06,0-12.05-17.13-15.24-30.38-15.24-19.92,0-27.89,11.25-27.89,23.2,0,10.06,6.28,16.84,17.73,20.12l15.24,4.38c4.18,1.2,6.27,2.39,6.27,5.28,0,4.39-4.18,6-8.86,6-11.26,0-12.25-10.46-20.42-10.46-5.58,0-9.66,3.79-9.66,9.36,0,6.48,7.37,17.23,31.47,17.23C49.16,490.52,63.8,483.15,63.8,466.12Z"/><path class="cls-6" d="M126.65,433.85c6.87,0,10-3.38,10-8.36s-3.09-8.37-10-8.37H90.2c-8.87,0-13,4.09-13,13.65v44.42c0,9.56,4.18,13.64,13,13.64h37.54c6.88,0,10-3.39,10-8.37s-3.08-8.36-10-8.36H100.06V460.64h21.31c6.87,0,10-3.38,10-8.36s-3.09-8.37-10-8.37H100.06V433.85Z"/><path class="cls-6" d="M216.09,415.83h-6.48c-7.27,0-10.25,2.49-12.15,9.56L188,460.94h-.2l-9.46-35.55c-1.89-7.07-4.88-9.56-12.15-9.56h-6.47c-7.87,0-11.95,5.08-11.95,12.45v51.59c0,6.87,4.08,10.25,10.25,10.25s10.26-3.38,10.26-10.25V445h.2l10.36,38.74c1.29,4.88,3.58,6.37,9.06,6.37s7.77-1.49,9.06-6.37L207.32,445h.2v34.86c0,6.87,4.09,10.25,10.26,10.25S228,486.74,228,479.87V428.28C228,420.91,224,415.83,216.09,415.83Z"/><path class="cls-6" d="M255.33,484.45l1.59-5.28H281l1.59,5.28c1.19,4.08,5.68,5.67,9.26,5.67,5.18,0,10.46-3.88,10.46-9.26,0-3.28-1.89-8.56-3.59-13.34l-15.23-42.43c-2.19-6-5.18-9.26-11-9.26h-7.17c-5.78,0-8.76,3.28-11,9.26L239.2,467.52c-1.7,4.78-3.59,10.06-3.59,13.34,0,5.38,5.28,9.26,10.46,9.26C249.65,490.12,254.14,488.53,255.33,484.45Zm13.55-45.82h.2l7.76,26.2H261.11Z"/><path class="cls-6" d="M322.36,490.12c7.07,0,11.45-4.68,11.45-12.35V428.18c0-7.67-4.38-12.35-11.45-12.35s-11.45,4.68-11.45,12.35v49.59C310.91,485.44,315.29,490.12,322.36,490.12Z"/><path class="cls-6" d="M371.36,478.57V450.29h.2l19,31.27c4.38,7.27,7.67,9,13.75,9,7.27,0,12.94-3.08,12.94-10.95V426.88c0-6.67-4.18-11.45-11.15-11.45S395,420.21,395,426.88v30h-.19L374.65,422.4c-2.89-4.88-7-7-12.45-7-8.67,0-13.15,4.48-13.15,12.25v50.89c0,7.67,4,11.95,11.16,11.95S371.36,486.24,371.36,478.57Z"/><path class="cls-6" d="M483.41,488.83c6.87,0,10-3.39,10-8.37s-3.09-8.36-10-8.36H455.72V460.64H477c6.88,0,10-3.38,10-8.36s-3.08-8.37-10-8.37H455.72V433.85h26.59c6.87,0,10-3.38,10-8.36s-3.09-8.37-10-8.37H445.86c-8.86,0-13.05,4.09-13.05,13.65v44.42c0,9.56,4.19,13.64,13.05,13.64Z"/><path class="cls-3" d="M507.12,479.26a4.89,4.89,0,1,0,0,9.78h40.21a4.89,4.89,0,1,0,0-9.78Z"/><path class="cls-6" d="M515.69,422.17h-5.46c-2.48,0-3.66,1.15-3.66,3.83v12.48c0,2.68,1.18,3.83,3.66,3.83h5.46c6.68,0,9.65-4.48,9.65-10.07S522.37,422.17,515.69,422.17Zm-1.43,15.1h-1.42V427.2h1.42c3.72,0,4.65,1.85,4.65,5S518,437.27,514.26,437.27Z"/><path class="cls-6" d="M544.14,426.87c1.93,0,2.79-.95,2.79-2.35s-.86-2.35-2.79-2.35H533.9c-2.49,0-3.66,1.15-3.66,3.83v12.48c0,2.68,1.17,3.83,3.66,3.83h10.54c1.93,0,2.8-.95,2.8-2.35s-.87-2.35-2.8-2.35h-7.77v-3.22h6c1.93,0,2.8-.95,2.8-2.35s-.87-2.35-2.8-2.35h-6v-2.82Z"/><path class="cls-6" d="M511.77,446.14c-2,0-3.21,1.31-3.21,3.47v13.2c0,2.68,1.17,3.83,3.66,3.83h9.51a2.61,2.61,0,1,0,0-5.2H515V449.61C515,447.45,513.76,446.14,511.77,446.14Z"/><path class="cls-6" d="M527.58,464.4a2.84,2.84,0,0,0,2.93,2.6,2.59,2.59,0,0,0,2.61-1.59l.44-1.48h6.77l.45,1.48a2.58,2.58,0,0,0,2.6,1.59,2.85,2.85,0,0,0,2.94-2.6,14.21,14.21,0,0,0-1-3.75L541,448.74c-.61-1.68-1.45-2.6-3.08-2.6h-2c-1.62,0-2.46.92-3.08,2.6l-4.28,11.91A14.53,14.53,0,0,0,527.58,464.4Zm9.34-11.86H537l2.18,7.36h-4.42Z"/><path class="cls-7" d="M203.92,705.85c.63-.15,7.33-.83,7.33-.83,3.67-.47,2-4,2-4-.9-2-8.19-12.24-8.19-12.24-3.61-4.23-4-6.72-4-6.72-.45-4.9-2.49-18.5-2.49-18.5a3.09,3.09,0,0,0-2.61-2.81c-3.17-.43-8.16-.68-8.16-.68a2.27,2.27,0,0,0-2.12,1.53c-.47,1.18-.28,5-.28,5,0,1.3-1.14.54-1.14.54a125.36,125.36,0,0,0-12.7-9.15,5.19,5.19,0,0,0-5.75,0,125.85,125.85,0,0,0-41.63,43.16,2.62,2.62,0,0,0,1.59,3.83c1.52.37,7.77,1,7.77,1a1.85,1.85,0,0,1,1.49,2,272.19,272.19,0,0,0,2.27,36.92c.47,2.51,2.49,2.37,2.49,2.37l12.22-.33c.8,0,.62-.89.62-.89-.49-3.73-1-15.29-1-15.29,0-.62-.73-1-.73-1C146,727,146,720.39,146,720.39c-.14-6.39.83-28.18.83-28.18s0-.09,0-.13a1.41,1.41,0,0,1,1.58-1.21h.15a1.46,1.46,0,0,1,1.26,1.65c-.14,1.41-.74,19.63-.74,19.63.12,2.89,2.29,2.63,2.29,2.63,2.6.13,2.3-3.13,2.3-3.13-.19-6.72.84-19.45.84-19.45a.49.49,0,0,1,0-.12,1.44,1.44,0,0,1,1.65-1.19,1.41,1.41,0,0,1,1.31,1.43c-.59,6.57-.76,19.88-.76,19.88.11,2.94,2.49,2.58,2.49,2.58,2.45-.06,2.1-3.61,2.1-3.61-.2-5.44.83-19.12.83-19.12s0-.09,0-.13a1.37,1.37,0,0,1,1.65-1c1.47.21,1.34,1.34,1.34,1.34-.15,3.32-.73,24.06-.73,24.06a39.16,39.16,0,0,1-.09,6.19,9.54,9.54,0,0,1-4.42,7,1,1,0,0,0-.56,1c0,1.92.91,15.42,1.08,15.89s.91.39.91.39c1.79-.12,17.69,0,17.69,0,1.13,0,1.27-.33,1.27-.33a3.75,3.75,0,0,0,.26-1.28c.24-1.92,1.07-12.73,1.07-12.73.06-.88-.62-.88-.62-.88l-3.61-.49c-2.84-.23-3.4-1.26-3.4-1.26-.9-1.51-.7-7.4-.7-7.4a58.5,58.5,0,0,1,10.89-33.27c1.61-2.2,3.27-1.53,3.27-1.53,1.84.5,1.94,2.9,1.94,2.9,2.38,18.65-1.13,55.52-1.13,55.52-.11,1,.59.92.59.92,1.6,0,8.48.18,8.48.18,2.5.11,3-4.39,3-4.39,1.73-11.37,2.08-35,2.08-35a.13.13,0,0,0,0-.06A1.67,1.67,0,0,1,203.92,705.85Z"/><path class="cls-7" d="M240.73,735.63a1.27,1.27,0,0,0,1,.51h10.82l2.7-9.19,3.29-4.74,2.53,12.91a1.27,1.27,0,0,0,1.24,1h22.73l13.61-46.28a1.25,1.25,0,0,0-1.21-1.61H286.7L273.51,733l-5-21.72,15.33-20.94a1.13,1.13,0,0,0,.23-.45l.27-.92a.53.53,0,0,0-.52-.68H272.89l-11.73,17.17,5-15.56a1.29,1.29,0,0,0-.2-1.11,1.25,1.25,0,0,0-1-.5H254.14L244.79,720c.2-5.46-4-9.76-6.5-12.48-2-2.22-3.2-3.79-3-5.55a5,5,0,0,1,4.74-4.35c2.69-.22,3.85.61,5.56,1.41a1.42,1.42,0,0,0,.63.15,1.54,1.54,0,0,0,.52-.09,1.29,1.29,0,0,0,.76-.82l2.52-8.5L248.3,689l-.26-.12-.08,0h0a16.25,16.25,0,0,0-6.55-1.28c-9.48,0-18.1,6.78-19.52,15.13-1,5.83,2.75,10,5.48,13l.23.26c2,2.12,3.35,3.76,3,5.67-.46,2.67-3,4.2-5.56,4.4-2.75.22-4.47-.54-6.63-1.49a1.79,1.79,0,0,0-1.24-.23,1.31,1.31,0,0,0-.88.86l-2.41,8.22-.3,1a25.2,25.2,0,0,0,10.17,2.39c8.07,0,15.06-3.1,19.2-10.59l-2.44,8.34A1.26,1.26,0,0,0,240.73,735.63Z"/><path class="cls-7" d="M291.16,736.14h10.41l3.25-11,4.71,0c11.34.15,17.08-7.82,19.65-16.47a29.21,29.21,0,0,0,1.53-7.78c0-3.79-1-6.64-3.13-9a11.09,11.09,0,0,0-8.28-3.61H301.4l-.77,2.53a.86.86,0,0,0,.1.7l.51.8a3.19,3.19,0,0,1,.36,2.64L290,734.51a1.23,1.23,0,0,0,.19,1.11A1.26,1.26,0,0,0,291.16,736.14Zm21.46-37.56,4,0a2.07,2.07,0,0,1,1.49.58A3.47,3.47,0,0,1,319,702a22.67,22.67,0,0,1-2,7.34c-1.33,3-2.57,5.2-6.09,5.6l-3.06,0Z"/><path class="cls-7" d="M327.69,735.34a.6.6,0,0,0,.57.76l6.61,0c10.55,0,14.22-13.23,14.56-18.78.36-6.09-3-9.06-6.74-9.06h-7Zm13.69-22.41c1.47,0,2.72,1.29,2.53,4.51s-2.74,14.06-7.82,14.06h-1.68l5.45-18.57Z"/><path class="cls-7" d="M351.05,688.88h-2.57L344.05,704a.36.36,0,0,0,.34.46H347l2-6.73H352L350.18,704a.35.35,0,0,0,.34.45h2.57l4.43-15.14a.36.36,0,0,0-.34-.46h-2.57l-1.83,6.29h-3.09l1.7-5.83A.36.36,0,0,0,351.05,688.88Z"/><path class="cls-7" d="M366.7,688.87h-6.57l-.07.25L355.7,704a.36.36,0,0,0,.35.46h6.56l.63-2.14a.34.34,0,0,0-.34-.46h-3.54l1.2-4h3.22l.64-2.14a.37.37,0,0,0-.35-.46h-2.76l1.12-3.77h4l.62-2.14A.36.36,0,0,0,366.7,688.87Z"/><path class="cls-7" d="M337.25,704.47h2.56l3.81-13h2.44l.61-2.14a.36.36,0,0,0-.35-.45h-7.45l-.61,2.14a.36.36,0,0,0,.35.45h2L336.9,704A.37.37,0,0,0,337.25,704.47Z"/><path class="cls-7" d="M360.68,708.29h-4.63l-7.94,27.08a.6.6,0,0,0,.57.76h4.63l7.94-27.07A.6.6,0,0,0,360.68,708.29Z"/><path class="cls-7" d="M387,708.29h-4.64l-7.95,27.08a.6.6,0,0,0,.57.76h4.63l3.51-12h5.51l-3.28,11.26a.59.59,0,0,0,.57.76h4.63l7.95-27.07a.6.6,0,0,0-.57-.77h-4.63L390,719.52h-5.51l3.06-10.46A.6.6,0,0,0,387,708.29Z"/><path class="cls-7" d="M414.09,712.93l1.12-3.87a.6.6,0,0,0-.57-.77H402.86l-7.95,27.08a.59.59,0,0,0,.57.76h11.77l1.13-3.87a.6.6,0,0,0-.58-.76h-6.35l2.16-7.22h5.6l1.16-3.87a.59.59,0,0,0-.57-.76H405l2-6.72Z"/><path class="cls-7" d="M362.25,716.51c-.54,3.34,1.59,5.72,3.11,7.52,1.2,1.38,2.17,2.59,1.93,4.13a4.13,4.13,0,0,1-4,3.51,6.69,6.69,0,0,1-3.67-.65.83.83,0,0,0-1.22.52l-1.2,4.11a15.06,15.06,0,0,0,5.34,1,11,11,0,0,0,10.88-9c.54-3.38-1.57-5.89-3.09-7.68-1.16-1.38-2.13-2.59-1.9-4a3.93,3.93,0,0,1,3.64-3.34,6.87,6.87,0,0,1,3,.54.88.88,0,0,0,1.2-.5c0-.08,1.1-3.75,1.1-3.75a11.64,11.64,0,0,0-4.55-1C368,707.83,363.05,711.5,362.25,716.51Z"/><path class="cls-7" d="M415.82,716.51c-.53,3.34,1.59,5.72,3.11,7.52,1.21,1.38,2.18,2.59,1.93,4.13a4.12,4.12,0,0,1-4,3.51,6.69,6.69,0,0,1-3.67-.65.82.82,0,0,0-1.21.52l-1.2,4.11a15,15,0,0,0,5.33,1,11,11,0,0,0,10.88-9c.54-3.38-1.56-5.89-3.09-7.68-1.16-1.38-2.13-2.59-1.89-4a3.93,3.93,0,0,1,3.63-3.34,6.8,6.8,0,0,1,3.05.54.87.87,0,0,0,1.19-.5c0-.08,1.11-3.76,1.11-3.76a11.82,11.82,0,0,0-4.56-1C421.56,707.83,416.62,711.5,415.82,716.51Z"/><path class="cls-7" d="M229.26,670.4a5.61,5.61,0,0,0,2.37-2.23,6.55,6.55,0,0,0,.84-3.36,6.66,6.66,0,0,0-.84-3.39,5.66,5.66,0,0,0-2.37-2.25,7.71,7.71,0,0,0-3.55-.79h-4.48v12.81h4.48A7.58,7.58,0,0,0,229.26,670.4ZM223.8,669v-8.46h1.82a4.12,4.12,0,0,1,3.12,1.13,4.3,4.3,0,0,1,1.1,3.13,3.83,3.83,0,0,1-4.22,4.2Z"/><path class="cls-7" d="M243.84,665.89a5.42,5.42,0,0,0-.63-2.64,4.4,4.4,0,0,0-1.78-1.77,5.8,5.8,0,0,0-5.26,0,4.5,4.5,0,0,0-1.8,1.84,5.84,5.84,0,0,0-.64,2.77,5.7,5.7,0,0,0,.65,2.75,4.54,4.54,0,0,0,1.82,1.84,5.24,5.24,0,0,0,2.63.66,5,5,0,0,0,3.07-1,4.67,4.67,0,0,0,1.69-2.41h-2.77a2.11,2.11,0,0,1-2,1.23,2.36,2.36,0,0,1-1.67-.63,2.52,2.52,0,0,1-.77-1.72h7.43A6.07,6.07,0,0,0,243.84,665.89Zm-7.48-.74a2.5,2.5,0,0,1,.79-1.6,2.33,2.33,0,0,1,1.61-.58,2.55,2.55,0,0,1,1.71.6,2,2,0,0,1,.71,1.58Z"/><rect class="cls-7" x="245.71" y="657.61" width="2.57" height="13.58"/><rect class="cls-7" x="250.82" y="661.02" width="2.57" height="10.17"/><path class="cls-7" d="M253.25,657.23a1.7,1.7,0,0,0-2.26,0,1.44,1.44,0,0,0-.45,1.08,1.4,1.4,0,0,0,.45,1.07,1.7,1.7,0,0,0,2.26,0,1.4,1.4,0,0,0,.45-1.07A1.44,1.44,0,0,0,253.25,657.23Z"/><polygon class="cls-7" points="265.46 661.02 262.73 661.02 260.16 668.82 257.59 661.02 254.84 661.02 258.58 671.19 261.7 671.19 265.46 661.02"/><path class="cls-7" d="M276.36,665.89a5.42,5.42,0,0,0-.63-2.64,4.52,4.52,0,0,0-1.78-1.77,5.43,5.43,0,0,0-2.6-.62,5.37,5.37,0,0,0-2.66.64,4.5,4.5,0,0,0-1.8,1.84,6.23,6.23,0,0,0,0,5.52,4.48,4.48,0,0,0,1.82,1.84,5.21,5.21,0,0,0,2.63.66,4.92,4.92,0,0,0,3.06-1A4.56,4.56,0,0,0,276.1,668h-2.77a2.09,2.09,0,0,1-2,1.23,2.38,2.38,0,0,1-1.67-.63,2.51,2.51,0,0,1-.76-1.72h7.43A6.07,6.07,0,0,0,276.36,665.89Zm-7.49-.74a2.56,2.56,0,0,1,.8-1.6,2.33,2.33,0,0,1,1.61-.58,2.51,2.51,0,0,1,1.7.6,2,2,0,0,1,.72,1.58Z"/><path class="cls-7" d="M278.23,661v10.17h2.57v-5.06a2.14,2.14,0,0,1,2.44-2.55h.68v-2.7a3.61,3.61,0,0,0-1.83.46,3.54,3.54,0,0,0-1.29,1.26V661Z"/><path class="cls-7" d="M295.1,665.89a5.43,5.43,0,0,0-.64-2.64,4.4,4.4,0,0,0-1.78-1.77,5.78,5.78,0,0,0-5.25,0,4.38,4.38,0,0,0-1.8,1.84,5.73,5.73,0,0,0-.65,2.77,5.59,5.59,0,0,0,.66,2.75,4.52,4.52,0,0,0,1.81,1.84,5.28,5.28,0,0,0,2.64.66,4.92,4.92,0,0,0,3.06-1,4.61,4.61,0,0,0,1.69-2.41h-2.77a2.1,2.1,0,0,1-2,1.23,2.36,2.36,0,0,1-1.67-.63,2.52,2.52,0,0,1-.77-1.72H295A6,6,0,0,0,295.1,665.89Zm-7.49-.74a2.51,2.51,0,0,1,.8-1.6A2.3,2.3,0,0,1,290,663a2.53,2.53,0,0,1,1.71.6,2.06,2.06,0,0,1,.72,1.58Z"/><path class="cls-7" d="M306.9,671.19V657.61h-2.61v4.83a3.74,3.74,0,0,0-1.43-1.15,4.29,4.29,0,0,0-1.89-.43,4.42,4.42,0,0,0-4.05,2.48,5.84,5.84,0,0,0-.61,2.73,6,6,0,0,0,.61,2.76,4.63,4.63,0,0,0,1.68,1.87,4.37,4.37,0,0,0,2.35.66,4.28,4.28,0,0,0,2-.46,3.5,3.5,0,0,0,1.34-1.21v1.5Zm-3-3.48a2.52,2.52,0,0,1-1,1,2.64,2.64,0,0,1-1.34.36,2.48,2.48,0,0,1-1.31-.37,2.65,2.65,0,0,1-1-1.05,3.33,3.33,0,0,1-.38-1.61,3.22,3.22,0,0,1,.38-1.59,2.65,2.65,0,0,1,1-1,2.51,2.51,0,0,1,1.32-.35,2.73,2.73,0,0,1,1.34.35,2.59,2.59,0,0,1,1,1,3.25,3.25,0,0,1,.37,1.61A3.21,3.21,0,0,1,303.94,667.71Z"/><path class="cls-7" d="M313.78,657.61v13.58h2.57v-1.45a3.8,3.8,0,0,0,1.36,1.17,4.23,4.23,0,0,0,2,.45,4.35,4.35,0,0,0,2.36-.66,4.61,4.61,0,0,0,1.67-1.87,6,6,0,0,0,.62-2.76,5.86,5.86,0,0,0-.62-2.74,4.49,4.49,0,0,0-1.67-1.83,4.42,4.42,0,0,0-2.36-.64,4.17,4.17,0,0,0-2,.46,3.59,3.59,0,0,0-1.36,1.19v-4.9Zm2.94,6.9a2.58,2.58,0,0,1,2.31-1.39,2.62,2.62,0,0,1,2.32,1.36,3.22,3.22,0,0,1,.37,1.59,3.34,3.34,0,0,1-.37,1.62,2.68,2.68,0,0,1-1,1,2.52,2.52,0,0,1-1.33.37,2.57,2.57,0,0,1-1.32-.36,2.62,2.62,0,0,1-1-1,3.22,3.22,0,0,1-.37-1.59A3.26,3.26,0,0,1,316.72,664.51Z"/><polygon class="cls-7" points="330.55 668.13 327.93 661.02 325.05 661.02 329.12 670.93 326.92 676 329.65 676 335.94 661.02 333.21 661.02 330.55 668.13"/><polygon class="cls-8" points="510.58 48.88 510.6 48.88 512.33 53.69 513.23 53.69 514.96 48.88 514.98 48.88 514.98 53.69 516.02 53.69 516.02 47.46 514.5 47.46 512.82 52.34 512.8 52.34 511.08 47.46 509.55 47.46 509.55 53.69 510.58 53.69 510.58 48.88"/><path class="cls-8" d="M521.15,53.45a2.41,2.41,0,0,0,.86-.67,2.87,2.87,0,0,0,.49-1,4.69,4.69,0,0,0,0-2.43,2.87,2.87,0,0,0-.49-1,2.3,2.3,0,0,0-.86-.67,3,3,0,0,0-1.24-.24h-2.58v6.23h2.58A3,3,0,0,0,521.15,53.45Zm-2.73-.65V48.35h1.07a2.65,2.65,0,0,1,1,.17,1.46,1.46,0,0,1,.63.47,1.71,1.71,0,0,1,.32.71,4.83,4.83,0,0,1,0,1.75,1.71,1.71,0,0,1-.32.71,1.46,1.46,0,0,1-.63.47,2.85,2.85,0,0,1-1,.17Z"/><polygon class="cls-8" points="526.23 47.31 525.28 47.31 522.77 53.84 523.73 53.84 526.23 47.31"/><path class="cls-8" d="M528.9,50.9h.55l.94,1.54h.67l-1-1.59a1.16,1.16,0,0,0,.67-.27.88.88,0,0,0,.27-.71.94.94,0,0,0-.33-.8,1.68,1.68,0,0,0-1-.24H528.3v3.61h.6Zm0-1.57h.71l.27,0a1,1,0,0,1,.26.06.65.65,0,0,1,.18.15.42.42,0,0,1,.08.26.62.62,0,0,1-.07.31.44.44,0,0,1-.19.17.66.66,0,0,1-.26.08h-1Z"/><path class="cls-8" d="M527.23,52.91a3,3,0,0,0,1,.68,3.19,3.19,0,0,0,1.29.25,3.16,3.16,0,0,0,1.22-.24,2.89,2.89,0,0,0,1-.66,3,3,0,0,0,.7-1,3.56,3.56,0,0,0,0-2.67,3,3,0,0,0-.7-1,3.07,3.07,0,0,0-1-.67,3.35,3.35,0,0,0-1.22-.23,3.4,3.4,0,0,0-1.23.23,3.07,3.07,0,0,0-1,.67,3,3,0,0,0-.7,1,3.22,3.22,0,0,0-.26,1.33,3.46,3.46,0,0,0,.24,1.3A3.29,3.29,0,0,0,527.23,52.91Zm0-3.43a2.72,2.72,0,0,1,.53-.85,2.46,2.46,0,0,1,.8-.56,2.53,2.53,0,0,1,1-.19,2.45,2.45,0,0,1,1,.19,2.32,2.32,0,0,1,.79.56,2.57,2.57,0,0,1,.54.85,3.25,3.25,0,0,1,0,2.19,2.57,2.57,0,0,1-.54.85,2.32,2.32,0,0,1-.79.56,2.45,2.45,0,0,1-1,.19,2.37,2.37,0,0,1-1.84-.79,2.82,2.82,0,0,1-.5-.86,3.21,3.21,0,0,1-.17-1A3,3,0,0,1,527.22,49.48Z"/><path class="cls-8" d="M313.89,50.47l-3.68-3.81,1.6-1.55a6.42,6.42,0,0,0,1.73-2.57,4.35,4.35,0,0,0,.11-2.49,4.76,4.76,0,0,0-1.21-2.1,5,5,0,0,0-2.14-1.35,4.17,4.17,0,0,0-2.49.07,6.56,6.56,0,0,0-2.57,1.63L301,42.35,311.3,53Zm-5.67-5.87-2.57-2.66,1.41-1.36a2.11,2.11,0,0,1,1.44-.72,1.83,1.83,0,0,1,1.31.63,1.85,1.85,0,0,1,.59,1.34,2.16,2.16,0,0,1-.77,1.41Z"/><path class="cls-8" d="M323.49,42.21l-3.28-4.35a2.61,2.61,0,0,1-.68-2,3,3,0,0,1,1.27-1.67l.79-.6-2.29-3A4.05,4.05,0,0,0,318,32.23a4.76,4.76,0,0,0-.35,2.16l-1.17-1.56L313.56,35l7.05,9.38Z"/><path class="cls-8" d="M326.19,36.89a5.22,5.22,0,0,0,2.89.73,6.39,6.39,0,0,0,3-.95,6.26,6.26,0,0,0,2-1.79,5.29,5.29,0,0,0,.74-4.56l-3.28,2a1.88,1.88,0,0,1-1,1.93,2.15,2.15,0,0,1-1.61.29,2.39,2.39,0,0,1-1.46-1.07l7-4.19a10.14,10.14,0,0,0-.49-.93,6.23,6.23,0,0,0-2.23-2.27,5.12,5.12,0,0,0-2.83-.68,6.23,6.23,0,0,0-3,.94,6.31,6.31,0,0,0-2.27,2.23,5.16,5.16,0,0,0-.72,2.88,6.59,6.59,0,0,0,1,3.12A6.47,6.47,0,0,0,326.19,36.89Zm.1-6.85a2.28,2.28,0,0,1,1-1.23,2.36,2.36,0,0,1,1.64-.35,1.86,1.86,0,0,1,1.3.94l-3.86,2.32A2.3,2.3,0,0,1,326.29,30Z"/><path class="cls-8" d="M336,27a3.65,3.65,0,0,0,1.75.31,14.58,14.58,0,0,0,2.17-.34,12.23,12.23,0,0,1,1.76-.24.8.8,0,0,1,.8.45.83.83,0,0,1,0,.78,1.83,1.83,0,0,1-.83.68,2.06,2.06,0,0,1-1.29.19,1.37,1.37,0,0,1-.93-.65l-3.22,1.51a3.88,3.88,0,0,0,1.58,1.53,4.67,4.67,0,0,0,2.33.49,6.66,6.66,0,0,0,2.7-.69,6.34,6.34,0,0,0,2.07-1.49,3.88,3.88,0,0,0,1-1.86,3.1,3.1,0,0,0-.26-1.91,3,3,0,0,0-1.41-1.49,3.62,3.62,0,0,0-1.75-.33,18.55,18.55,0,0,0-2.21.3,8.61,8.61,0,0,1-1.72.26.8.8,0,0,1-.81-.46.78.78,0,0,1,0-.74,1.63,1.63,0,0,1,.77-.63,1.84,1.84,0,0,1,1.23-.18,1.44,1.44,0,0,1,.9.64l3-1.42a4.29,4.29,0,0,0-2.56-2,5.18,5.18,0,0,0-3.61.5,6.3,6.3,0,0,0-2.13,1.54,3.81,3.81,0,0,0-.92,1.88,3.23,3.23,0,0,0,.28,1.91A2.81,2.81,0,0,0,336,27Z"/><path class="cls-8" d="M347.9,25.54a5.24,5.24,0,0,0,2.7,1.24A6.67,6.67,0,0,0,356,25a5.24,5.24,0,0,0,1.58-4.35L354,22a1.89,1.89,0,0,1-1.36,1.71,2.19,2.19,0,0,1-1.63,0,2.45,2.45,0,0,1-1.25-1.33l7.64-2.82c-.09-.36-.19-.69-.3-1a6.21,6.21,0,0,0-1.78-2.64,5.07,5.07,0,0,0-2.65-1.2,6.81,6.81,0,0,0-5.73,2.14,5.33,5.33,0,0,0-1.24,2.7,6.61,6.61,0,0,0,.41,3.26A6.44,6.44,0,0,0,347.9,25.54Zm1.36-6.72a2.33,2.33,0,0,1,1.25-1,2.3,2.3,0,0,1,1.67,0,1.86,1.86,0,0,1,1.11,1.16l-4.23,1.56A2.38,2.38,0,0,1,349.26,18.82Z"/><path class="cls-8" d="M364.14,22.8l-1.69-6.15a2.54,2.54,0,0,1,.1-1.92,2.39,2.39,0,0,1,3.16-.88,2.61,2.61,0,0,1,1.08,1.61l1.69,6.14,3.45-1L370.11,14a5.23,5.23,0,0,0-2.17-3.21,4.24,4.24,0,0,0-3.53-.41,4.62,4.62,0,0,0-1.88,1A3.79,3.79,0,0,0,361.44,13l-.42-1.5-3.47,1,3.13,11.31Z"/><path class="cls-8" d="M371.56,11.82l1.4-.29,1,4.57a3.93,3.93,0,0,0,1.7,2.83,4.43,4.43,0,0,0,3.18.32l1.79-.37-.62-3-1.25.26a1.21,1.21,0,0,1-.87,0,1,1,0,0,1-.4-.69l-1-4.62,2.31-.47-.61-2.93-2.31.48-.58-2.8-3.52.73.58,2.8-1.4.29Z"/><path class="cls-8" d="M382,15.88a5.37,5.37,0,0,0,2.39,1.77,6.45,6.45,0,0,0,3.15.28A6.18,6.18,0,0,0,390,17a5.33,5.33,0,0,0,1.69-1.72,5.23,5.23,0,0,0,.75-2.22l-3.79.56a1.9,1.9,0,0,1-1.69,1.4,2.15,2.15,0,0,1-1.59-.35,2.39,2.39,0,0,1-.94-1.55L392.48,12a8.56,8.56,0,0,0-.09-1.05A6.26,6.26,0,0,0,391.2,8a5.18,5.18,0,0,0-2.35-1.71,6.78,6.78,0,0,0-6.06.92A5.18,5.18,0,0,0,381,9.55a6.69,6.69,0,0,0-.27,3.28A6.57,6.57,0,0,0,382,15.88Zm2.72-6.3a2.28,2.28,0,0,1,1.43-.74,2.33,2.33,0,0,1,1.64.31,1.84,1.84,0,0,1,.84,1.36l-4.45.66A2.32,2.32,0,0,1,384.7,9.58Z"/><path class="cls-8" d="M394.69,14a5.16,5.16,0,0,0,2,2,4.8,4.8,0,0,0,2.68.53,4.54,4.54,0,0,0,2.13-.67,3.64,3.64,0,0,0,1.33-1.46l.13,1.68,3.59-.29L405.34.28l-3.59.28L402.18,6a3.85,3.85,0,0,0-1.6-1.18,4.66,4.66,0,0,0-2.15-.31,4.84,4.84,0,0,0-2.56.94,5.12,5.12,0,0,0-1.69,2.24,7.13,7.13,0,0,0-.43,3.22A7.11,7.11,0,0,0,394.69,14ZM398,8.45a2.53,2.53,0,0,1,3.63-.28,3,3,0,0,1,.91,2.06,2.94,2.94,0,0,1-.58,2.18,2.5,2.5,0,0,1-3.63.27,3,3,0,0,1-.91-2.07A2.88,2.88,0,0,1,398,8.45Z"/><path class="cls-8" d="M416.91,14a3.78,3.78,0,0,0,1.44,1.33,4.59,4.59,0,0,0,2.16.51,4.81,4.81,0,0,0,2.64-.72A5.17,5.17,0,0,0,425,13a7.09,7.09,0,0,0,.71-3.18,7.15,7.15,0,0,0-.65-3.18,5.17,5.17,0,0,0-1.84-2.12,4.89,4.89,0,0,0-2.63-.76,4.53,4.53,0,0,0-2.17.48A3.73,3.73,0,0,0,417,5.52L417,0l-3.6,0-.14,15.57,3.59,0Zm.78-6.35a2.49,2.49,0,0,1,1.83-.76,2.46,2.46,0,0,1,1.83.79,2.85,2.85,0,0,1,.73,2.12,3,3,0,0,1-.78,2.13,2.51,2.51,0,0,1-3.65,0,2.93,2.93,0,0,1-.72-2.13A3,3,0,0,1,417.69,7.61Z"/><polygon class="cls-8" points="427.7 21.4 431.56 21.69 440.19 4.97 436.31 4.68 433.08 11.8 430.92 4.28 426.91 3.98 430.83 15.64 427.7 21.4"/><path class="cls-8" d="M525.27,88.62c0-33.44-48.38-60.55-108.06-60.55S309.14,55.18,309.14,88.62s48.39,60.55,108.07,60.55S525.27,122.06,525.27,88.62Zm-92.66-16.8c17.73,3.56,27.45,1.36,35.66,1l3.05-6.39a10.65,10.65,0,0,1,7.66,0l-2.84,6.29c12.4.29,19.48,2.6,23.53,5.37,6.89.34,12.81,2.06,14.29,3.5a8.25,8.25,0,0,1-4.29,4.1c-.68-1.11-3.33-3.25-6.82-4.6a9.3,9.3,0,0,1,1.83,7.42c-1,8.21-10.19,16.5-20.7,16.5-6.25,0-10.24-2.94-11.09-7.33a12.88,12.88,0,0,1-.08-3.15A17,17,0,0,1,477,85.33c4-4.66,10.47-6.65,16.92-7.15-4.47-2.71-12.93-1.76-19.71-1.08l-6.78,15.06c-.81,1.69-2.53,5.35-2.75,7-.11.91,0,1.92,1.47,1.92a5,5,0,0,0,2.76-1.12,19.37,19.37,0,0,0,1.73-1.48,7.93,7.93,0,0,0,.76,1.76l0,.09c-2.52,2.33-5.8,4.62-9.7,4.62-3.39,0-5.84-2-5.51-4.74a13.35,13.35,0,0,1,1.4-4.6c.64-1.64,1.41-3.27,2-4.54L466,77.55c-8.9,0-24-.88-33.88-5Zm-2.9,9.62a8.44,8.44,0,0,0-1.95.52,6,6,0,0,0-.64-1.52A16,16,0,0,1,435,77.79c2.85,0,4.93,1.52,4.63,3.91-.24,2-1.82,5.06-2.9,7.07,0,0-5,9.24-5.16,10.58-.13,1.1.71,1.6,2,1.6,6.16,0,12.89-13.14,14.95-17.1l2.19-3.95s2.68.26,3.8.33l4.07.27L454,89.34c-1.13,2.44-3.31,7.32-3.6,9.71-.09.72-.07,1.9,1.12,1.9a4.66,4.66,0,0,0,2.2-.94c0,.09,0,.16,0,.25a3.61,3.61,0,0,0,.22,1.83v0a12.77,12.77,0,0,1-7.55,2.78c-3.09,0-4.63-2.12-4.35-4.45a15.49,15.49,0,0,1,1.1-4l-.14-.12c-3.41,4.66-8.2,8.57-14.21,8.59-3.46,0-5.94-1.82-5.58-4.8.26-2.15,1.92-5.26,3-7.33,0,0,4.52-9.06,4.63-10A1,1,0,0,0,429.71,81.44ZM355.39,93.5c-1.76,7.41-9.17,11.77-17.91,11.77-4.82,0-9.6-1.44-12.27-4.45-5.14-6,.76-9,3.64-9-1.5,5.71.78,10.77,8,10.77,4.07,0,7.63-2.35,8.46-5.8.9-3.83-1.23-6.09-3.74-8.63l-2.37-2.47c-3.1-3.16-5.46-6-4.33-10.75,1.61-6.79,8.78-11,16.86-11a15,15,0,0,1,10.28,3.51c5.36,5.4-1.28,8.86-2.76,8.53a1.46,1.46,0,0,1-.5-.15c1.41-4.38-.1-9.24-6.18-9.24-3.41,0-7.61,1.83-8.36,4.93-.84,3.52,1.7,5.94,4,8.25l2.16,2.12C353.82,85.2,356.62,88.34,355.39,93.5Zm21.51,7.34a17.42,17.42,0,0,1,.5-2.22l-.14-.11c-2.68,3.41-6.95,6.4-12.07,6.4-6.32,0-8.82-4.07-8.24-8.84,1-7.88,9.84-18.26,20.67-18.26,3.53,0,5.92,1.4,7,4l1.91-3.33a11.08,11.08,0,0,1,7.82,0l-7.75,16.46a22.48,22.48,0,0,0-1.75,4.51c-.09.73.1,2.14,1.16,2.14a3.18,3.18,0,0,0,1.33-.35v0l-1.1,2.44a11.77,11.77,0,0,1-5,1.22C378.36,104.91,376.61,103.07,376.9,100.84Zm21.23.11H398l-8.47,18.76a10,10,0,0,1-5.77-5L401.55,75A9.4,9.4,0,0,1,407,79.62l-.9,2.11.14.12a14.43,14.43,0,0,1,10-4c5.42,0,8,2.76,8.29,6.51a10.34,10.34,0,0,1,0,2.26c-.94,7.77-8.55,18.32-19.46,18.32C401.57,104.92,399.18,103.46,398.13,101Z"/><path class="cls-8" d="M378.87,81.17c-6.63,0-12.51,11.78-13,16.11-.23,1.77.56,4,3.12,4,6.84,0,12.93-12.21,13.48-16.59C382.66,82.7,381.49,81.17,378.87,81.17Z"/><path class="cls-8" d="M481,95.16c-2.81,9.85,5.09,9.68,10.06,2.77,3.48-4.72,6.48-11.76,5.71-15.63a6.47,6.47,0,0,0-1-2.31C485.07,81,481.46,93.6,481,95.16Z"/><path class="cls-8" d="M412.38,81.17c-6.7,0-11.79,12.71-12.26,16.43-.23,1.9.57,4,3.27,4,6.78,0,12.11-12.21,12.65-16.6C416.29,83,415.14,81.17,412.38,81.17Z"/><path class="cls-9" d="M350.39,81.86l-2.16-2.12c-2.27-2.31-4.81-4.73-4-8.25.75-3.1,4.95-4.93,8.36-4.93,6.08,0,7.59,4.86,6.18,9.24a1.46,1.46,0,0,0,.5.15c1.48.33,8.12-3.13,2.76-8.53a15,15,0,0,0-10.28-3.51c-8.08,0-15.25,4.24-16.86,11-1.13,4.73,1.23,7.59,4.33,10.75l2.37,2.47c2.51,2.54,4.64,4.8,3.74,8.63-.83,3.45-4.39,5.8-8.46,5.8-7.27,0-9.55-5.06-8-10.77-2.88,0-8.78,3-3.64,9,2.67,3,7.45,4.45,12.27,4.45,8.74,0,16.15-4.36,17.91-11.77C356.62,88.34,353.82,85.2,350.39,81.86Z"/><path class="cls-9" d="M424.48,86.6a10.34,10.34,0,0,0,0-2.26c-.32-3.75-2.87-6.51-8.29-6.51a14.43,14.43,0,0,0-10,4l-.14-.12.9-2.11A9.4,9.4,0,0,0,401.55,75l-17.81,39.75a10,10,0,0,0,5.77,5L398,101h.15c1.05,2.51,3.44,4,6.89,4C415.93,104.92,423.54,94.37,424.48,86.6ZM416,85c-.54,4.39-5.87,16.6-12.65,16.6-2.7,0-3.5-2.07-3.27-4,.47-3.72,5.56-16.43,12.26-16.43C415.14,81.17,416.29,83,416,85Z"/><path class="cls-9" d="M387.31,101.25v0a3.18,3.18,0,0,1-1.33.35c-1.06,0-1.25-1.41-1.16-2.14a22.48,22.48,0,0,1,1.75-4.51l7.75-16.46a11.08,11.08,0,0,0-7.82,0l-1.91,3.33c-1-2.58-3.43-4-7-4-10.83,0-19.71,10.38-20.67,18.26-.58,4.77,1.92,8.84,8.24,8.84,5.12,0,9.39-3,12.07-6.4l.14.11a17.42,17.42,0,0,0-.5,2.22c-.29,2.23,1.46,4.07,4.31,4.07a11.77,11.77,0,0,0,5-1.22Zm-4.88-16.59c-.55,4.38-6.64,16.59-13.48,16.59-2.56,0-3.35-2.2-3.12-4,.53-4.33,6.41-16.11,13-16.11C381.49,81.17,382.66,82.7,382.43,84.66Z"/><path class="cls-9" d="M426.2,92.77c-1.09,2.07-2.75,5.18-3,7.33-.36,3,2.12,4.82,5.58,4.8,6,0,10.8-3.93,14.21-8.59l.14.12a15.49,15.49,0,0,0-1.1,4c-.28,2.33,1.26,4.45,4.35,4.45a12.77,12.77,0,0,0,7.55-2.78v0a3.61,3.61,0,0,1-.22-1.83c0-.09,0-.16,0-.25a4.66,4.66,0,0,1-2.2.94c-1.19,0-1.21-1.18-1.12-1.9.29-2.39,2.47-7.27,3.6-9.71l4.56-8.84-4.07-.27c-1.12-.07-3.8-.33-3.8-.33l-2.19,3.95c-2.06,4-8.79,17.1-14.95,17.1-1.29,0-2.13-.5-2-1.6.17-1.34,5.16-10.58,5.16-10.58,1.08-2,2.66-5.06,2.9-7.07.3-2.39-1.78-3.91-4.63-3.91a16,16,0,0,0-7.86,2.65,6,6,0,0,1,.64,1.52,8.44,8.44,0,0,1,1.95-.52,1,1,0,0,1,1.12,1.29C430.72,83.71,426.2,92.77,426.2,92.77Z"/><path class="cls-9" d="M459.56,91.12c-.57,1.27-1.34,2.9-2,4.54a13.35,13.35,0,0,0-1.4,4.6c-.33,2.73,2.12,4.74,5.51,4.74,3.9,0,7.18-2.29,9.7-4.62l0-.09a7.93,7.93,0,0,1-.76-1.76,19.37,19.37,0,0,1-1.73,1.48,5,5,0,0,1-2.76,1.12c-1.43,0-1.58-1-1.47-1.92.22-1.7,1.94-5.36,2.75-7l6.78-15.06c6.78-.68,15.24-1.63,19.71,1.08-6.45.5-12.9,2.49-16.92,7.15a17,17,0,0,0-4.15,9.22,12.88,12.88,0,0,0,.08,3.15c.85,4.39,4.84,7.33,11.09,7.33,10.51,0,19.7-8.29,20.7-16.5a9.3,9.3,0,0,0-1.83-7.42c3.49,1.35,6.14,3.49,6.82,4.6a8.25,8.25,0,0,0,4.29-4.1c-1.48-1.44-7.4-3.16-14.29-3.5-4.05-2.77-11.13-5.08-23.53-5.37L479,66.45a10.65,10.65,0,0,0-7.66,0l-3.05,6.39c-8.21.37-17.93,2.57-35.66-1l-.47.77c9.88,4.08,25,5,33.88,5ZM496.8,82.3c.77,3.87-2.23,10.91-5.71,15.63-5,6.91-12.87,7.08-10.06-2.77.43-1.56,4-14.19,14.8-15.17A6.47,6.47,0,0,1,496.8,82.3Z"/></g></g></svg>