<svg xmlns="http://www.w3.org/2000/svg" viewBox="0 0 463.83 716.79"><defs><style>.cls-1{fill:none;}.cls-2{fill:#ff8000;}.cls-3{fill:#fd8000;}.cls-4{fill:#cf3339;}.cls-5{fill:#fff;}.cls-6{fill:#eb422e;}.cls-7{fill:#f59745;}.cls-8{fill:#4a9343;}.cls-9{fill:#f4b88c;}</style></defs><g id="Layer_2" data-name="Layer 2"><g id="dark_expanded" data-name="dark expanded"><path class="cls-1" d="M56.8,408.39c0,2.1,2,3.45,4.25,3.45,3.92,0,6.62-2.44,6.62-5.07v-4c-2,2.1-6.48,1.69-9,2.71A2.91,2.91,0,0,0,56.8,408.39Z"/><path class="cls-1" d="M460.84,50.38a.66.66,0,0,0,.26-.08.44.44,0,0,0,.19-.17.62.62,0,0,0,.07-.31.42.42,0,0,0-.08-.26.58.58,0,0,0-.19-.15.92.92,0,0,0-.25-.06l-.27,0h-.72v1.06h1Z"/><path class="cls-1" d="M145.84,391.65H133v16.52h14.09c4.21,0,8.65-2.66,8.65-8.09S152.05,391.65,145.84,391.65Z"/><path class="cls-1" d="M395.45,297.34H432.4c-6-5.36-11.91-10.81-17.74-16.17l-6.8-6.24c-.16,1.15-.37,2.18-.58,3.05A38.4,38.4,0,0,1,395.45,297.34Z"/><path class="cls-1" d="M452.13,52.16a1.69,1.69,0,0,0,.31-.71,4.3,4.3,0,0,0,0-1.75,1.69,1.69,0,0,0-.31-.71,1.49,1.49,0,0,0-.64-.47,2.6,2.6,0,0,0-1-.17h-1.07V52.8h1.07a2.79,2.79,0,0,0,1-.17A1.49,1.49,0,0,0,452.13,52.16Z"/><path class="cls-1" d="M458.66,52.48a2.42,2.42,0,0,0,.79.58,2.52,2.52,0,0,0,1.05.21,2.45,2.45,0,0,0,1-.19,2.32,2.32,0,0,0,.79-.56,2.57,2.57,0,0,0,.54-.85,3.25,3.25,0,0,0,0-2.19,2.57,2.57,0,0,0-.54-.85,2.32,2.32,0,0,0-.79-.56,2.65,2.65,0,0,0-2,0,2.36,2.36,0,0,0-.8.56,2.55,2.55,0,0,0-.53.85,3.11,3.11,0,0,0,0,2.14A2.63,2.63,0,0,0,458.66,52.48Zm.6-3.65h1.37a1.68,1.68,0,0,1,1,.24.94.94,0,0,1,.33.8.88.88,0,0,1-.27.71,1.18,1.18,0,0,1-.67.27l1,1.59h-.67l-.94-1.54h-.56v1.54h-.59Z"/><path class="cls-1" d="M146.25,176c18.08-1.09,39.35-12.64,43.15-31.9,2.47-12.49-2.74-27-13.94-38.83C165.79,95,152.94,87.57,140.88,81.11c-24.95,22.14-44.12,46.77-58.08,74.69C102,165.26,127.84,177.07,146.25,176Zm-.83-16.26c-8.13,2.38-16.16-.59-17.93-6.64s3.37-12.88,11.5-15.27,16.15.59,17.92,6.64S153.54,157.31,145.42,159.7Zm-4.27-64.33c9.3,4.22,24.45,11.71,32.89,31.37,4,9.33-.41,19.6-9.12,26.88a19.62,19.62,0,0,0,1.52-14.42c-3.41-11.62-17.5-17.71-31.46-13.61S112.45,142.43,115.86,154a18.68,18.68,0,0,0,4.14,7.33c-9.42-2.11-18-5.82-23.18-10.7C114.55,126.26,128,108.47,141.15,95.37Z"/><path class="cls-1" d="M261.21,29.4a1.85,1.85,0,0,0-1.29-.94,2.35,2.35,0,0,0-1.64.35,2.3,2.3,0,0,0-1,1.23,2.41,2.41,0,0,0,.11,1.68Z"/><path class="cls-1" d="M230,627.7a3,3,0,0,0-3,2.27h5.22A2,2,0,0,0,230,627.7Z"/><path class="cls-1" d="M175.72,623.42l-1.46,10.32H176c3.8,0,5.74-2.48,5.74-5.9,0-2.87-1.36-4.42-4.25-4.42Z"/><path class="cls-1" d="M264.33,628a3.34,3.34,0,0,0-3.34,3.47,2.39,2.39,0,0,0,2.53,2.59,3.27,3.27,0,0,0,3.28-3A2.41,2.41,0,0,0,264.33,628Z"/><path class="cls-1" d="M251.35,627.7a3,3,0,0,0-3,2.27h5.22A2,2,0,0,0,251.35,627.7Z"/><path class="cls-1" d="M280.43,631.17A2.41,2.41,0,0,0,283,634a3.28,3.28,0,0,0,3.31-3.45,2.39,2.39,0,0,0-2.52-2.61,3.28,3.28,0,0,0-3.24,2.82Z"/><path class="cls-1" d="M192.72,627.7a3,3,0,0,0-3,2.27H195A2,2,0,0,0,192.72,627.7Z"/><path class="cls-1" d="M329.27,12.68a2.42,2.42,0,0,0,1.88.65,2.47,2.47,0,0,0,1.75-.92,3,3,0,0,0,.58-2.18,3,3,0,0,0-.92-2.06,2.39,2.39,0,0,0-1.87-.63,2.43,2.43,0,0,0-1.76.91,2.92,2.92,0,0,0-.57,2.16A3,3,0,0,0,329.27,12.68Z"/><path class="cls-1" d="M350.42,12.66a2.47,2.47,0,0,0,1.84-.77A3,3,0,0,0,353,9.76a2.89,2.89,0,0,0-.73-2.12,2.55,2.55,0,0,0-3.66,0,3,3,0,0,0-.77,2.12,3,3,0,0,0,.73,2.13A2.42,2.42,0,0,0,350.42,12.66Z"/><path class="cls-1" d="M240.77,40.49a1.83,1.83,0,0,0-1.32-.63,2.15,2.15,0,0,0-1.44.72l-1.4,1.36,2.57,2.66,1.4-1.36a2.12,2.12,0,0,0,.77-1.41A1.8,1.8,0,0,0,240.77,40.49Z"/><path class="cls-1" d="M284.24,18.93a1.82,1.82,0,0,0-1.1-1.16,2.51,2.51,0,0,0-2.92,1.05,2.38,2.38,0,0,0-.2,1.67Z"/><path class="cls-1" d="M318.72,9.15a2.32,2.32,0,0,0-3.61,2l4.45-.66A1.84,1.84,0,0,0,318.72,9.15Z"/><polygon class="cls-1" points="426.32 396.31 417.67 425.48 435.19 425.48 426.54 396.31 426.32 396.31"/><path class="cls-1" d="M305,677.87h-1.73L297.08,699H299c5.77,0,8.65-12.18,8.88-16S306.66,677.87,305,677.87Z"/><path class="cls-1" d="M276.91,661.6l-4.58,0-5.45,18.51,3.48,0c4-.46,5.41-3,6.93-6.37a25.68,25.68,0,0,0,2.23-8.34,3.92,3.92,0,0,0-.92-3.12A2.28,2.28,0,0,0,276.91,661.6Z"/><path class="cls-2" d="M150.1,650.4c-4.1-4.8-4.55-7.64-4.55-7.64-.52-5.56-2.83-21-2.83-21a3.52,3.52,0,0,0-3-3.19c-3.6-.48-9.27-.77-9.27-.77a2.57,2.57,0,0,0-2.41,1.74c-.53,1.33-.32,5.67-.32,5.67,0,1.47-1.28.61-1.28.61A141.58,141.58,0,0,0,112,615.41a5.92,5.92,0,0,0-6.53,0c-31.9,19.78-47.28,49-47.28,49a2.9,2.9,0,0,0-.31.75A2.94,2.94,0,0,0,60,668.79c1.72.43,8.83,1.09,8.83,1.09a2.1,2.1,0,0,1,1.69,2.27c-.42,17.38,2.12,39.29,2.58,41.94.53,2.85,2.83,2.69,2.83,2.69l13.88-.37c.91,0,.7-1,.7-1C90,711.16,89.35,698,89.35,698c0-.71-.83-1.18-.83-1.18-5.52-3-5.42-10.51-5.42-10.51-.16-7.26,1-32,1-32a.81.81,0,0,1,0-.16,1.6,1.6,0,0,1,1.79-1.37H86a1.68,1.68,0,0,1,1.44,1.88c-.17,1.6-.85,22.29-.85,22.29.14,3.29,2.61,3,2.61,3,3,.14,2.61-3.57,2.61-3.57-.22-7.63,1-22.08,1-22.08s0-.1,0-.14a1.65,1.65,0,0,1,1.88-1.36,1.6,1.6,0,0,1,1.48,1.63c-.66,7.46-.86,22.58-.86,22.58.12,3.34,2.83,2.94,2.83,2.94,2.78-.08,2.39-4.1,2.39-4.1-.23-6.19.94-21.73.94-21.73l0-.14a1.55,1.55,0,0,1,1.86-1.16c1.67.25,1.53,1.52,1.53,1.52-.17,3.78-.83,27.34-.83,27.34a42.85,42.85,0,0,1-.11,7,10.82,10.82,0,0,1-5,8,1.14,1.14,0,0,0-.64,1.07c0,2.19,1,17.52,1.22,18.05s1,.44,1,.44c2-.13,20.1,0,20.1,0,1.28.05,1.43-.37,1.43-.37a4.23,4.23,0,0,0,.31-1.45c.26-2.18,1.21-14.46,1.21-14.46.06-1-.7-1-.7-1l-4.1-.54c-3.24-.27-3.87-1.44-3.87-1.44-1-1.71-.79-8.41-.79-8.41a66.41,66.41,0,0,1,12.36-37.79c1.83-2.5,3.72-1.74,3.72-1.74,2.1.57,2.2,3.3,2.2,3.3,2.7,21.18-1.28,63.06-1.28,63.06-.12,1.11.67,1,.67,1,1.82-.06,9.63.2,9.63.2,2.84.13,3.36-5,3.36-5,2-12.9,2.36-39.75,2.36-39.75v-.06a1.89,1.89,0,0,1,1.71-2.06c.72-.18,8.33-.94,8.33-.94,4.17-.54,2.22-4.59,2.22-4.59C158.38,662,150.1,650.4,150.1,650.4Z"/><path class="cls-2" d="M256.24,650.4a1.43,1.43,0,0,0-1.15-.57H242.88l-15,50.78L222.21,676l17.42-23.78a1.56,1.56,0,0,0,.25-.52l.31-1a.61.61,0,0,0-.59-.77H227.19l-13.32,19.51,5.69-17.68a1.45,1.45,0,0,0-.23-1.26,1.42,1.42,0,0,0-1.14-.57H205.9l-10.63,36.11c.23-6.21-4.57-11.09-7.37-14.18-2.27-2.52-3.64-4.31-3.39-6.3a5.68,5.68,0,0,1,5.38-5c3.06-.24,4.37.69,6.32,1.61a1.81,1.81,0,0,0,.72.17,1.7,1.7,0,0,0,.58-.11,1.48,1.48,0,0,0,.87-.93l2.86-9.66-2-.92-.29-.13-.09,0h0a18.21,18.21,0,0,0-7.44-1.46c-10.77,0-20.56,7.7-22.18,17.18-1.13,6.63,3.12,11.31,6.22,14.73l.28.29c2.24,2.41,3.79,4.28,3.43,6.44-.52,3-3.47,4.77-6.31,5-3.13.26-5.09-.62-7.53-1.69a2.1,2.1,0,0,0-1.42-.26,1.49,1.49,0,0,0-1,1L160.2,701l-.35,1.2A28.73,28.73,0,0,0,171.41,705c9.17,0,17.1-3.53,21.81-12l-2.78,9.48a1.46,1.46,0,0,0,.23,1.26,1.42,1.42,0,0,0,1.14.57H204.1l3.07-10.43,3.73-5.39,2.89,14.67a1.42,1.42,0,0,0,1.4,1.15H241l15.46-52.57A1.46,1.46,0,0,0,256.24,650.4Z"/><path class="cls-2" d="M292.87,664.2c0-4.3-1.09-7.54-3.55-10.26a12.61,12.61,0,0,0-9.4-4.1H259.58l-.87,2.88a1,1,0,0,0,.11.8l.58.91a3.58,3.58,0,0,1,.4,3l-13.2,45a1.43,1.43,0,0,0,1.35,1.85h11.82l3.7-12.5,5.34,0c12.88.17,19.41-8.88,22.33-18.71A33.32,33.32,0,0,0,292.87,664.2Zm-15.58,9.53c-1.52,3.39-2.93,5.91-6.93,6.37l-3.48,0,5.45-18.51,4.58,0a2.28,2.28,0,0,1,1.69.67,3.92,3.92,0,0,1,.92,3.12A25.68,25.68,0,0,1,277.29,673.73Z"/><path class="cls-2" d="M306.49,672.6h-8l-9.08,30.73a.68.68,0,0,0,.66.86l7.5,0c12,0,16.16-15,16.54-21.34C314.55,676,310.69,672.6,306.49,672.6ZM307.87,683c-.23,3.79-3.11,16-8.88,16h-1.91l6.19-21.09H305C306.66,677.87,308.09,679.33,307.87,683Z"/><path class="cls-2" d="M315.38,668.27h2.91l5-17.2a.41.41,0,0,0-.39-.52H320l-2.08,7.15h-3.51l1.93-6.63a.4.4,0,0,0-.39-.52h-2.91l-5,17.2a.4.4,0,0,0,.39.52h2.91l2.23-7.65h3.51L315,667.75A.4.4,0,0,0,315.38,668.27Z"/><path class="cls-2" d="M333.45,653.49l.7-2.44a.4.4,0,0,0-.39-.51H326.3l-.09.29-4.95,16.91a.41.41,0,0,0,.39.52h7.46l.72-2.43a.39.39,0,0,0-.39-.52h-4l1.37-4.6h3.65l.72-2.42a.41.41,0,0,0-.39-.53h-3.13l1.26-4.27Z"/><path class="cls-2" d="M300.3,668.26h2.91l4.34-14.77h2.77l.68-2.44a.4.4,0,0,0-.39-.51h-8.47l-.68,2.43a.4.4,0,0,0,.39.52h2.23l-4.17,14.25A.4.4,0,0,0,300.3,668.26Z"/><path class="cls-2" d="M326.92,672.6h-5.26l-9,30.76a.68.68,0,0,0,.65.87h5.26l9-30.76A.68.68,0,0,0,326.92,672.6Z"/><path class="cls-2" d="M369.24,672.6H364l-3.73,12.76H354l3.48-11.89a.68.68,0,0,0-.65-.87h-5.26l-9,30.76a.68.68,0,0,0,.65.87h5.26l4-13.66h6.26L355,703.36a.68.68,0,0,0,.65.87h5.26l9-30.76A.68.68,0,0,0,369.24,672.6Z"/><path class="cls-2" d="M382.72,685.5H377.2l2.27-7.63h8.12l1.27-4.4a.68.68,0,0,0-.65-.87H374.83l-9,30.76a.68.68,0,0,0,.65.87h13.37l1.28-4.4a.68.68,0,0,0-.65-.87h-7.22l2.45-8.2h6.37l1.31-4.39A.67.67,0,0,0,382.72,685.5Z"/><path class="cls-2" d="M335.77,681.18a4.46,4.46,0,0,1,4.13-3.79,7.85,7.85,0,0,1,3.46.62,1,1,0,0,0,1.36-.57c0-.09,1.25-4.27,1.25-4.27a13.39,13.39,0,0,0-5.18-1.09c-5.57,0-11.18,4.17-12.09,9.85-.61,3.8,1.81,6.51,3.54,8.55,1.36,1.56,2.46,2.94,2.18,4.69a4.68,4.68,0,0,1-4.5,4,7.57,7.57,0,0,1-4.16-.74.94.94,0,0,0-1.38.59L323,703.67a17.07,17.07,0,0,0,6.07,1.12,12.53,12.53,0,0,0,12.35-10.28c.62-3.84-1.77-6.69-3.5-8.73C336.61,684.22,335.51,682.84,335.77,681.18Z"/><path class="cls-2" d="M389.55,681.93c-.6,3.8,1.81,6.51,3.54,8.55,1.37,1.56,2.47,2.94,2.19,4.69a4.68,4.68,0,0,1-4.5,4,7.62,7.62,0,0,1-4.17-.74.94.94,0,0,0-1.38.59l-1.36,4.66a17,17,0,0,0,6.06,1.12,12.54,12.54,0,0,0,12.36-10.28c.61-3.84-1.78-6.69-3.51-8.73-1.32-1.56-2.42-2.94-2.15-4.6a4.46,4.46,0,0,1,4.12-3.79,7.82,7.82,0,0,1,3.46.62,1,1,0,0,0,1.36-.57c0-.09,1.26-4.27,1.26-4.27a13.45,13.45,0,0,0-5.18-1.09C396.07,672.08,390.46,676.25,389.55,681.93Z"/><path class="cls-3" d="M173.15,620.48a.38.38,0,0,0-.39.35l-2.18,15.5a.29.29,0,0,0,.3.35h4.77c5.57,0,9.44-3.84,9.44-9.16,0-4.08-2.34-7-7.18-7Zm8.58,7.36c0,3.42-1.94,5.9-5.74,5.9h-1.73l1.46-10.32h1.76C180.37,623.42,181.73,625,181.73,627.84Z"/><path class="cls-3" d="M197.76,630.5c.42-2.89-1.24-5.44-4.67-5.44a6.68,6.68,0,0,0-6.64,6.69c0,3.1,2.18,5.2,5.44,5.2a6.05,6.05,0,0,0,4.07-1.43c.25-.19.28-.32.09-.6l-.6-1c-.16-.25-.3-.3-.53-.18a5.45,5.45,0,0,1-2.52.65c-1.74,0-2.73-.77-2.89-2.18h6.87C197.21,632.21,197.6,631.61,197.76,630.5Zm-8-.53a3,3,0,0,1,3-2.27A2,2,0,0,1,195,630Z"/><path class="cls-3" d="M201.72,620.14a.38.38,0,0,0-.39.34l-2.22,15.85a.27.27,0,0,0,.3.35h2.52a.39.39,0,0,0,.39-.35l2.22-15.85a.28.28,0,0,0-.3-.34Z"/><path class="cls-3" d="M210.56,621.55a1.73,1.73,0,0,0-1.74-1.76,1.77,1.77,0,1,0,0,3.54A1.73,1.73,0,0,0,210.56,621.55Z"/><path class="cls-3" d="M207,625.34a.42.42,0,0,0-.41.35l-1.48,10.64c-.05.21.11.35.32.35H208a.39.39,0,0,0,.39-.35l1.48-10.64a.27.27,0,0,0-.3-.35Z"/><path class="cls-3" d="M223.56,625.34H221a.48.48,0,0,0-.44.28L216.83,633l-1.6-7.38a.37.37,0,0,0-.39-.28H212.3c-.26,0-.4.14-.33.39l2.73,10.67a.39.39,0,0,0,.39.28h2.57a.48.48,0,0,0,.44-.28l5.69-10.67C223.93,625.48,223.81,625.34,223.56,625.34Z"/><path class="cls-3" d="M235,630.5c.42-2.89-1.25-5.44-4.67-5.44a6.68,6.68,0,0,0-6.64,6.69c0,3.1,2.17,5.2,5.43,5.2a6.1,6.1,0,0,0,4.08-1.43c.25-.19.27-.32.09-.6l-.6-1c-.16-.25-.3-.3-.53-.18a5.48,5.48,0,0,1-2.53.65c-1.73,0-2.73-.77-2.89-2.18h6.87C234.44,632.21,234.83,631.61,235,630.5Zm-8-.53a3,3,0,0,1,3-2.27,2,2,0,0,1,2.26,2.27Z"/><path class="cls-3" d="M236.63,636.68h2.52a.39.39,0,0,0,.4-.35l.78-5.69c.24-1.69,1.09-2.68,2.67-2.68a2.93,2.93,0,0,1,.87.11c.35.09.51,0,.56-.28l.28-2a.45.45,0,0,0-.16-.46,1.67,1.67,0,0,0-1.05-.28,3,3,0,0,0-2.7,2.13l.11-1.5a.28.28,0,0,0-.3-.35h-2.4a.39.39,0,0,0-.4.35l-1.48,10.64A.29.29,0,0,0,236.63,636.68Z"/><path class="cls-3" d="M256.39,630.5c.42-2.89-1.25-5.44-4.67-5.44a6.68,6.68,0,0,0-6.64,6.69c0,3.1,2.17,5.2,5.44,5.2a6.09,6.09,0,0,0,4.07-1.43c.25-.19.27-.32.09-.6l-.6-1c-.16-.25-.3-.3-.53-.18a5.48,5.48,0,0,1-2.53.65c-1.73,0-2.73-.77-2.89-2.18H255C255.84,632.21,256.23,631.61,256.39,630.5Zm-8-.53a3,3,0,0,1,3-2.27,2,2,0,0,1,2.26,2.27Z"/><path class="cls-3" d="M266.57,636.68h2.24a.43.43,0,0,0,.42-.35l2.22-15.85a.28.28,0,0,0-.3-.34h-2.52a.38.38,0,0,0-.39.34l-.79,6.37a3.62,3.62,0,0,0-3.42-1.79c-3.68,0-6.18,3.24-6.18,6.87,0,3,1.66,5,4.6,5a4.84,4.84,0,0,0,3.91-1.82l-.09,1.2A.27.27,0,0,0,266.57,636.68ZM263.52,634a2.39,2.39,0,0,1-2.53-2.59,3.34,3.34,0,0,1,3.34-3.47,2.41,2.41,0,0,1,2.47,3A3.27,3.27,0,0,1,263.52,634Z"/><path class="cls-3" d="M281.63,620.14h-2.52a.38.38,0,0,0-.39.34l-2.22,15.85a.27.27,0,0,0,.3.35h2.52a.39.39,0,0,0,.39-.35l.16-1.13a3.7,3.7,0,0,0,3.4,1.75c3.64,0,6.13-3.12,6.13-6.8,0-3-1.71-5.09-4.6-5.09a4.84,4.84,0,0,0-3.75,1.65l.88-6.23A.28.28,0,0,0,281.63,620.14Zm2.11,7.84a2.39,2.39,0,0,1,2.52,2.61A3.28,3.28,0,0,1,283,634a2.41,2.41,0,0,1-2.52-2.87l.07-.37A3.28,3.28,0,0,1,283.74,628Z"/><path class="cls-3" d="M291.67,641.07h2.43a.49.49,0,0,0,.46-.28l8.12-15.06c.14-.25,0-.39-.23-.39h-2.54a.46.46,0,0,0-.44.28L295.68,633l-1.6-7.38a.38.38,0,0,0-.39-.28h-2.55c-.25,0-.39.14-.32.39l2.8,10.95-2.18,4C291.3,640.93,291.42,641.07,291.67,641.07Z"/><polygon class="cls-4" points="441.54 48.88 441.56 48.88 443.29 53.69 444.19 53.69 445.92 48.88 445.94 48.88 445.94 53.69 446.97 53.69 446.97 47.46 445.45 47.46 443.78 52.34 443.76 52.34 442.04 47.46 440.5 47.46 440.5 53.69 441.54 53.69 441.54 48.88"/><path class="cls-4" d="M452.11,53.45a2.37,2.37,0,0,0,.85-.67,2.72,2.72,0,0,0,.5-1,4.69,4.69,0,0,0,0-2.43,2.72,2.72,0,0,0-.5-1,2.27,2.27,0,0,0-.85-.67,3,3,0,0,0-1.24-.24h-2.59v6.23h2.59A3,3,0,0,0,452.11,53.45Zm-2.73-.65V48.35h1.07a2.6,2.6,0,0,1,1,.17,1.49,1.49,0,0,1,.64.47,1.69,1.69,0,0,1,.31.71,4.3,4.3,0,0,1,0,1.75,1.69,1.69,0,0,1-.31.71,1.49,1.49,0,0,1-.64.47,2.79,2.79,0,0,1-1,.17Z"/><polygon class="cls-4" points="457.19 47.31 456.24 47.31 453.73 53.84 454.68 53.84 457.19 47.31"/><path class="cls-4" d="M458.19,52.91a3,3,0,0,0,1,.68,3.27,3.27,0,0,0,1.3.25,3.2,3.2,0,0,0,1.22-.24,3,3,0,0,0,1-.66,3.13,3.13,0,0,0,.7-1,3.56,3.56,0,0,0,0-2.67,3.13,3.13,0,0,0-.7-1,3.17,3.17,0,0,0-1-.67,3.38,3.38,0,0,0-2.45,0,3.21,3.21,0,0,0-1,.67,3.29,3.29,0,0,0-.7,1,3.39,3.39,0,0,0-.25,1.33,3.46,3.46,0,0,0,.24,1.3A3.29,3.29,0,0,0,458.19,52.91Zm0-3.43a2.55,2.55,0,0,1,.53-.85,2.36,2.36,0,0,1,.8-.56,2.65,2.65,0,0,1,2,0,2.32,2.32,0,0,1,.79.56,2.57,2.57,0,0,1,.54.85,3.25,3.25,0,0,1,0,2.19,2.57,2.57,0,0,1-.54.85,2.32,2.32,0,0,1-.79.56,2.45,2.45,0,0,1-1,.19,2.52,2.52,0,0,1-1.05-.21,2.42,2.42,0,0,1-.79-.58,2.63,2.63,0,0,1-.5-.86,3.11,3.11,0,0,1,0-2.14Z"/><path class="cls-4" d="M459.85,50.9h.56l.94,1.54H462l-1-1.59a1.18,1.18,0,0,0,.67-.27.88.88,0,0,0,.27-.71.94.94,0,0,0-.33-.8,1.68,1.68,0,0,0-1-.24h-1.37v3.61h.59Zm0-1.57h.72l.27,0a.92.92,0,0,1,.25.06.58.58,0,0,1,.19.15.42.42,0,0,1,.08.26.62.62,0,0,1-.07.31.44.44,0,0,1-.19.17.66.66,0,0,1-.26.08h-1Z"/><path class="cls-4" d="M244.84,50.47l-3.68-3.81,1.61-1.55a6.39,6.39,0,0,0,1.72-2.57,4.27,4.27,0,0,0,.11-2.49,4.74,4.74,0,0,0-1.2-2.1,5,5,0,0,0-2.15-1.35,4.13,4.13,0,0,0-2.48.07,6.59,6.59,0,0,0-2.58,1.63L232,42.35,242.25,53Zm-5.66-5.87-2.57-2.66,1.4-1.36a2.15,2.15,0,0,1,1.44-.72,1.83,1.83,0,0,1,1.32.63,1.8,1.8,0,0,1,.58,1.34,2.12,2.12,0,0,1-.77,1.41Z"/><path class="cls-4" d="M254.44,42.21l-3.27-4.35a2.57,2.57,0,0,1-.68-2,3,3,0,0,1,1.27-1.68l.79-.59-2.29-3a4,4,0,0,0-1.35,1.7,4.79,4.79,0,0,0-.34,2.17l-1.18-1.56L244.52,35l7,9.38Z"/><path class="cls-4" d="M257.15,36.89a5.2,5.2,0,0,0,2.89.73,6.43,6.43,0,0,0,3-.95A6.26,6.26,0,0,0,265,34.88a5.29,5.29,0,0,0,.74-4.56l-3.28,2a1.88,1.88,0,0,1-1,1.93,2.16,2.16,0,0,1-1.61.29,2.39,2.39,0,0,1-1.46-1.07l7-4.19a10.11,10.11,0,0,0-.48-.93,6.18,6.18,0,0,0-2.24-2.27,5.09,5.09,0,0,0-2.82-.68,6.3,6.3,0,0,0-3,.94,6.47,6.47,0,0,0-2.27,2.23,5.15,5.15,0,0,0-.71,2.88,6.48,6.48,0,0,0,1,3.12A6.39,6.39,0,0,0,257.15,36.89Zm.09-6.85a2.3,2.3,0,0,1,1-1.23,2.35,2.35,0,0,1,1.64-.35,1.85,1.85,0,0,1,1.29.94l-3.86,2.32A2.41,2.41,0,0,1,257.24,30Z"/><path class="cls-4" d="M267,27a3.67,3.67,0,0,0,1.75.31,14.39,14.39,0,0,0,2.17-.34,12.51,12.51,0,0,1,1.77-.24.81.81,0,0,1,.8.45.83.83,0,0,1-.05.78,1.72,1.72,0,0,1-.83.68,2,2,0,0,1-1.28.19,1.37,1.37,0,0,1-.93-.65l-3.22,1.51a3.82,3.82,0,0,0,1.58,1.53,4.65,4.65,0,0,0,2.33.49,6.58,6.58,0,0,0,2.69-.69,6.28,6.28,0,0,0,2.08-1.49,3.88,3.88,0,0,0,1-1.86,3.1,3.1,0,0,0-.26-1.91,3,3,0,0,0-1.41-1.49,3.66,3.66,0,0,0-1.76-.33,18.42,18.42,0,0,0-2.2.3,8.69,8.69,0,0,1-1.73.26.82.82,0,0,1-.81-.46.78.78,0,0,1,0-.74,1.63,1.63,0,0,1,.77-.63,1.84,1.84,0,0,1,1.23-.18,1.4,1.4,0,0,1,.89.64l3-1.42a4.29,4.29,0,0,0-2.56-2,5.22,5.22,0,0,0-3.62.5,6.15,6.15,0,0,0-2.12,1.54,3.72,3.72,0,0,0-.92,1.88,3.23,3.23,0,0,0,.28,1.91A2.79,2.79,0,0,0,267,27Z"/><path class="cls-4" d="M278.86,25.54a5.24,5.24,0,0,0,2.7,1.24A6.71,6.71,0,0,0,286.94,25a5.33,5.33,0,0,0,1.58-4.35L284.93,22a1.9,1.9,0,0,1-1.37,1.71,2.19,2.19,0,0,1-1.63,0,2.47,2.47,0,0,1-1.24-1.33l7.64-2.82a9.21,9.21,0,0,0-.31-1,6.28,6.28,0,0,0-1.77-2.64,5.1,5.1,0,0,0-2.65-1.2,6.81,6.81,0,0,0-5.73,2.14,5.17,5.17,0,0,0-1.24,2.7A6.61,6.61,0,0,0,277,22.8,6.44,6.44,0,0,0,278.86,25.54Zm1.36-6.72a2.51,2.51,0,0,1,2.92-1.05,1.82,1.82,0,0,1,1.1,1.16L280,20.49A2.38,2.38,0,0,1,280.22,18.82Z"/><path class="cls-4" d="M295.1,22.8l-1.7-6.15a2.58,2.58,0,0,1,.11-1.92,2.1,2.1,0,0,1,1.4-1.07,2.16,2.16,0,0,1,1.76.19,2.56,2.56,0,0,1,1.07,1.61l1.7,6.14,3.45-1L301.06,14a5.18,5.18,0,0,0-2.16-3.21,4.25,4.25,0,0,0-3.53-.41,4.73,4.73,0,0,0-1.89,1A4,4,0,0,0,292.39,13l-.41-1.5-3.47,1,3.12,11.31Z"/><path class="cls-4" d="M302.51,11.82l1.4-.29.95,4.57a3.94,3.94,0,0,0,1.71,2.83,4.43,4.43,0,0,0,3.18.32l1.79-.37-.62-3-1.25.26a1.24,1.24,0,0,1-.88,0,1,1,0,0,1-.4-.69l-.95-4.62,2.3-.47-.6-2.93-2.31.48-.58-2.8-3.52.73.58,2.8-1.4.29Z"/><path class="cls-4" d="M312.94,15.88a5.31,5.31,0,0,0,2.39,1.77,6.45,6.45,0,0,0,3.15.28A6.18,6.18,0,0,0,321,17a5.43,5.43,0,0,0,1.69-1.72,5.36,5.36,0,0,0,.74-2.22l-3.78.56a1.9,1.9,0,0,1-1.69,1.4,2.13,2.13,0,0,1-1.59-.35,2.39,2.39,0,0,1-.94-1.55L323.44,12c0-.37-.05-.72-.09-1.05A6.27,6.27,0,0,0,322.15,8a5.08,5.08,0,0,0-2.35-1.71A6.24,6.24,0,0,0,316.7,6a6.33,6.33,0,0,0-2.95,1.19A5.18,5.18,0,0,0,312,9.55a6.57,6.57,0,0,0-.27,3.28A6.57,6.57,0,0,0,312.94,15.88Zm2.71-6.3a2.51,2.51,0,0,1,3.07-.43,1.84,1.84,0,0,1,.84,1.36l-4.45.66A2.32,2.32,0,0,1,315.65,9.58Z"/><path class="cls-4" d="M325.64,14a5.18,5.18,0,0,0,2,2,4.8,4.8,0,0,0,2.68.53,4.54,4.54,0,0,0,2.13-.67,3.71,3.71,0,0,0,1.33-1.46l.13,1.68,3.58-.29L336.29.28l-3.58.28L333.14,6a3.92,3.92,0,0,0-1.6-1.18,4.66,4.66,0,0,0-2.15-.31,4.81,4.81,0,0,0-2.56.94,5,5,0,0,0-1.69,2.24,7,7,0,0,0-.43,3.22A7.1,7.1,0,0,0,325.64,14Zm3.29-5.58a2.43,2.43,0,0,1,1.76-.91,2.39,2.39,0,0,1,1.87.63,3,3,0,0,1,.92,2.06,3,3,0,0,1-.58,2.18,2.47,2.47,0,0,1-1.75.92,2.42,2.42,0,0,1-1.88-.65,3,3,0,0,1-.91-2.07A2.92,2.92,0,0,1,328.93,8.45Z"/><path class="cls-4" d="M347.87,14a3.83,3.83,0,0,0,1.43,1.33,4.67,4.67,0,0,0,2.17.51,4.8,4.8,0,0,0,2.63-.72A5.1,5.1,0,0,0,356,13a7,7,0,0,0,.72-3.18A7,7,0,0,0,356,6.61a5.09,5.09,0,0,0-1.84-2.12,4.84,4.84,0,0,0-2.62-.76,4.5,4.5,0,0,0-2.17.48A3.73,3.73,0,0,0,348,5.52L348,0l-3.6,0-.15,15.57,3.6,0Zm.78-6.35a2.55,2.55,0,0,1,3.66,0A2.89,2.89,0,0,1,353,9.76a3,3,0,0,1-.78,2.13,2.47,2.47,0,0,1-1.84.77,2.42,2.42,0,0,1-1.81-.8,3,3,0,0,1-.73-2.13A3,3,0,0,1,348.65,7.61Z"/><polygon class="cls-4" points="358.66 21.4 362.52 21.69 371.15 4.97 367.26 4.68 364.04 11.8 361.87 4.28 357.87 3.98 361.79 15.64 358.66 21.4"/><path class="cls-4" d="M309.83,81.17c-6.63,0-12.51,11.78-13,16.11-.23,1.77.56,4,3.12,4,6.84,0,12.93-12.21,13.48-16.59C313.62,82.7,312.45,81.17,309.83,81.17Z"/><path class="cls-4" d="M456.22,88.62c0-33.44-48.38-60.55-108.06-60.55S240.1,55.18,240.1,88.62s48.38,60.55,108.06,60.55S456.22,122.06,456.22,88.62Zm-92.66-16.8c17.74,3.56,27.46,1.36,35.67,1l3-6.39a10.65,10.65,0,0,1,7.66,0l-2.84,6.29c12.4.29,19.49,2.6,23.53,5.37,6.9.34,12.82,2.06,14.29,3.5a8.2,8.2,0,0,1-4.28,4.1c-.68-1.11-3.33-3.25-6.82-4.6a9.3,9.3,0,0,1,1.83,7.42c-1,8.21-10.2,16.5-20.7,16.5-6.25,0-10.24-2.94-11.09-7.33a12.88,12.88,0,0,1-.08-3.15,16.93,16.93,0,0,1,4.15-9.22c4-4.66,10.47-6.65,16.91-7.15-4.46-2.71-12.92-1.76-19.7-1.08l-6.78,15.06c-.81,1.69-2.53,5.35-2.75,7-.11.91,0,1.92,1.46,1.92a5,5,0,0,0,2.77-1.12,19.33,19.33,0,0,0,1.72-1.48,8,8,0,0,0,.77,1.76l0,.09c-2.51,2.33-5.8,4.62-9.7,4.62-3.38,0-5.83-2-5.51-4.74a13.67,13.67,0,0,1,1.41-4.6c.64-1.64,1.41-3.27,2-4.54L397,77.55c-8.89,0-24-.88-33.88-5Zm-2.89,9.62a8.19,8.19,0,0,0-1.95.52,6.36,6.36,0,0,0-.64-1.52,16,16,0,0,1,7.86-2.65c2.85,0,4.93,1.52,4.63,3.91-.25,2-1.83,5.06-2.9,7.07,0,0-5,9.24-5.16,10.58-.13,1.1.71,1.6,2,1.6,6.15,0,12.89-13.14,14.95-17.1l2.19-3.95s2.68.26,3.79.33l4.08.27L385,89.34c-1.12,2.44-3.3,7.32-3.6,9.71-.09.72-.07,1.9,1.12,1.9a4.65,4.65,0,0,0,2.21-.94c0,.09,0,.16,0,.25a3.61,3.61,0,0,0,.22,1.83v0a12.78,12.78,0,0,1-7.56,2.78c-3.08,0-4.62-2.12-4.34-4.45a15.48,15.48,0,0,1,1.09-4l-.13-.12c-3.41,4.66-8.2,8.57-14.21,8.59-3.46,0-5.94-1.82-5.58-4.8.26-2.15,1.92-5.26,3-7.33,0,0,4.52-9.06,4.63-10A1,1,0,0,0,360.67,81.44ZM286.35,93.5c-1.76,7.41-9.18,11.77-17.92,11.77-4.81,0-9.59-1.44-12.26-4.45-5.14-6,.76-9,3.64-9-1.5,5.71.78,10.77,8,10.77,4.08,0,7.64-2.35,8.47-5.8.9-3.83-1.23-6.09-3.74-8.63l-2.37-2.47c-3.1-3.16-5.47-6-4.33-10.75,1.61-6.79,8.77-11,16.86-11A15,15,0,0,1,293,67.42c5.37,5.4-1.27,8.86-2.75,8.53a1.46,1.46,0,0,1-.5-.15c1.41-4.38-.1-9.24-6.18-9.24-3.41,0-7.62,1.83-8.36,4.93-.84,3.52,1.69,5.94,4,8.25l2.15,2.12C284.77,85.2,287.57,88.34,286.35,93.5Zm21.51,7.34a17.42,17.42,0,0,1,.5-2.22l-.14-.11c-2.68,3.41-7,6.4-12.07,6.4-6.32,0-8.82-4.07-8.24-8.84,1-7.88,9.84-18.26,20.66-18.26,3.54,0,5.93,1.4,7,4l1.9-3.33a11.11,11.11,0,0,1,7.83,0l-7.75,16.46a22.48,22.48,0,0,0-1.75,4.51c-.1.73.1,2.14,1.16,2.14a3.18,3.18,0,0,0,1.33-.35v0l-1.1,2.44a11.78,11.78,0,0,1-5,1.22C309.32,104.91,307.57,103.07,307.86,100.84Zm21.23.11h-.15l-8.47,18.76a10,10,0,0,1-5.78-5L332.5,75A9.39,9.39,0,0,1,338,79.62l-.9,2.11.14.12a14.39,14.39,0,0,1,10-4c5.42,0,8,2.76,8.29,6.51a10.34,10.34,0,0,1-.05,2.26c-.95,7.77-8.56,18.32-19.47,18.32C332.52,104.92,330.13,103.46,329.09,101Z"/><path class="cls-4" d="M412,95.16c-2.81,9.85,5.09,9.68,10.06,2.77,3.48-4.72,6.48-11.76,5.7-15.63a6.45,6.45,0,0,0-1-2.31C416,81,412.42,93.6,412,95.16Z"/><path class="cls-4" d="M343.33,81.17c-6.69,0-11.79,12.71-12.25,16.43-.23,1.9.57,4,3.27,4,6.78,0,12.11-12.21,12.65-16.6C347.24,83,346.1,81.17,343.33,81.17Z"/><path class="cls-5" d="M281.34,81.86l-2.15-2.12c-2.28-2.31-4.81-4.73-4-8.25.74-3.1,4.95-4.93,8.36-4.93,6.08,0,7.59,4.86,6.18,9.24a1.46,1.46,0,0,0,.5.15c1.48.33,8.12-3.13,2.75-8.53a15,15,0,0,0-10.27-3.51c-8.09,0-15.25,4.24-16.86,11-1.14,4.73,1.23,7.59,4.33,10.75l2.37,2.47c2.51,2.54,4.64,4.8,3.74,8.63-.83,3.45-4.39,5.8-8.47,5.8-7.26,0-9.54-5.06-8-10.77-2.88,0-8.78,3-3.64,9,2.67,3,7.45,4.45,12.26,4.45,8.74,0,16.16-4.36,17.92-11.77C287.57,88.34,284.77,85.2,281.34,81.86Z"/><path class="cls-5" d="M355.44,86.6a10.34,10.34,0,0,0,.05-2.26c-.32-3.75-2.87-6.51-8.29-6.51a14.39,14.39,0,0,0-10,4l-.14-.12.9-2.11A9.39,9.39,0,0,0,332.5,75l-17.81,39.75a10,10,0,0,0,5.78,5L328.94,101h.15c1,2.51,3.43,4,6.88,4C346.88,104.92,354.49,94.37,355.44,86.6ZM347,85c-.54,4.39-5.87,16.6-12.65,16.6-2.7,0-3.5-2.07-3.27-4,.46-3.72,5.56-16.43,12.25-16.43C346.1,81.17,347.24,83,347,85Z"/><path class="cls-5" d="M318.27,101.25v0a3.18,3.18,0,0,1-1.33.35c-1.06,0-1.26-1.41-1.16-2.14a22.48,22.48,0,0,1,1.75-4.51l7.75-16.46a11.11,11.11,0,0,0-7.83,0l-1.9,3.33c-1-2.58-3.43-4-7-4-10.82,0-19.7,10.38-20.66,18.26-.58,4.77,1.92,8.84,8.24,8.84,5.12,0,9.39-3,12.07-6.4l.14.11a17.42,17.42,0,0,0-.5,2.22c-.29,2.23,1.46,4.07,4.3,4.07a11.78,11.78,0,0,0,5-1.22Zm-4.88-16.59c-.55,4.38-6.64,16.59-13.48,16.59-2.56,0-3.35-2.2-3.12-4,.53-4.33,6.41-16.11,13-16.11C312.45,81.17,313.62,82.7,313.39,84.66Z"/><path class="cls-5" d="M357.15,92.77c-1.08,2.07-2.74,5.18-3,7.33-.36,3,2.12,4.82,5.58,4.8,6,0,10.8-3.93,14.21-8.59l.13.12a15.48,15.48,0,0,0-1.09,4c-.28,2.33,1.26,4.45,4.34,4.45a12.78,12.78,0,0,0,7.56-2.78v0a3.61,3.61,0,0,1-.22-1.83c0-.09,0-.16,0-.25a4.65,4.65,0,0,1-2.21.94c-1.19,0-1.21-1.18-1.12-1.9.3-2.39,2.48-7.27,3.6-9.71l4.57-8.84-4.08-.27c-1.11-.07-3.79-.33-3.79-.33l-2.19,3.95c-2.06,4-8.8,17.1-14.95,17.1-1.29,0-2.13-.5-2-1.6.17-1.34,5.16-10.58,5.16-10.58,1.07-2,2.65-5.06,2.9-7.07.3-2.39-1.78-3.91-4.63-3.91a16,16,0,0,0-7.86,2.65,6.36,6.36,0,0,1,.64,1.52,8.19,8.19,0,0,1,1.95-.52,1,1,0,0,1,1.11,1.29C361.67,83.71,357.15,92.77,357.15,92.77Z"/><path class="cls-5" d="M390.52,91.12c-.57,1.27-1.34,2.9-2,4.54a13.67,13.67,0,0,0-1.41,4.6c-.32,2.73,2.13,4.74,5.51,4.74,3.9,0,7.19-2.29,9.7-4.62l0-.09a8,8,0,0,1-.77-1.76,19.33,19.33,0,0,1-1.72,1.48,5,5,0,0,1-2.77,1.12c-1.42,0-1.57-1-1.46-1.92.22-1.7,1.94-5.36,2.75-7l6.78-15.06c6.78-.68,15.24-1.63,19.7,1.08-6.44.5-12.89,2.49-16.91,7.15a16.93,16.93,0,0,0-4.15,9.22,12.88,12.88,0,0,0,.08,3.15c.85,4.39,4.84,7.33,11.09,7.33,10.5,0,19.69-8.29,20.7-16.5a9.3,9.3,0,0,0-1.83-7.42c3.49,1.35,6.14,3.49,6.82,4.6a8.2,8.2,0,0,0,4.28-4.1c-1.47-1.44-7.39-3.16-14.29-3.5-4-2.77-11.13-5.08-23.53-5.37l2.84-6.29a10.65,10.65,0,0,0-7.66,0l-3,6.39c-8.21.37-17.93,2.57-35.67-1l-.47.77c9.89,4.08,25,5,33.88,5Zm37.23-8.82c.78,3.87-2.22,10.91-5.7,15.63-5,6.91-12.87,7.08-10.06-2.77.43-1.56,4-14.19,14.8-15.17A6.45,6.45,0,0,1,427.75,82.3Z"/><path class="cls-6" d="M56.16,174.28C42.8,210.31,35.77,252.43,34,306.82a8.57,8.57,0,0,0,8.28,8.84h.28a8.56,8.56,0,0,0,8.56-8.29c1.68-52.49,8.38-92.89,21.07-127.14q1.66-4.47,3.47-8.84c20.86,10.25,49.06,23,71.59,21.67a71.41,71.41,0,0,0,36.94-13c11.85-8.51,19.46-19.8,22-32.64,3.54-17.92-3.3-38.08-18.3-53.93-13-13.74-30.31-22.89-44.21-30.24a8.56,8.56,0,0,0-9.56,1.05C97.53,95.5,72,131.49,56.16,174.28Zm84.72-93.17c12.06,6.46,24.91,13.91,34.58,24.12,11.2,11.83,16.41,26.34,13.94,38.83-3.8,19.26-25.07,30.81-43.15,31.9-18.41,1.11-44.22-10.7-63.45-20.16C96.76,127.88,115.93,103.25,140.88,81.11Z"/><path class="cls-7" d="M92.15,197.45a8.56,8.56,0,0,0-10.32,6.34c-8.93,37.44-13.32,57.45-15.34,102.93a8.56,8.56,0,0,0,8.18,8.93h.38a8.58,8.58,0,0,0,8.56-8.18c2-44,6-62.37,14.89-99.71A8.56,8.56,0,0,0,92.15,197.45Z"/><path class="cls-8" d="M222.67,144.28c12.61,7.38,20.84,13.09,29.54,19.14,5.57,3.87,11.26,7.83,18.16,12.24A997.53,997.53,0,0,0,100.59,299.55a8.57,8.57,0,0,0,5.75,14.92h213a8.57,8.57,0,1,0,0-17.13H129a982.49,982.49,0,0,1,162.45-114,8.57,8.57,0,0,0,.12-14.86c-12.61-7.38-20.84-13.09-29.54-19.14s-17.48-12.15-30.67-19.87a8.57,8.57,0,0,0-8.65,14.79Z"/><path class="cls-7" d="M238.76,281.56c9.79.11,19.72.15,29.67.15,17.13,0,34.37-.12,51.24-.24,16.14-.11,31.38-.21,45.94-.21a8.57,8.57,0,0,0,0-17.14c-14.62,0-29.89.11-46.06.22-12.42.08-25,.17-37.65.21,14.62-5.63,29.83-11.21,44.08-16.44,13.91-5.11,27-9.93,37.13-13.9a8.56,8.56,0,0,0,2-14.8c-7.39-5.59-14.24-11-20.86-16.25-8.86-7-18-14.28-28.27-21.74a8.57,8.57,0,0,0-10.09,13.85c10,7.26,18.59,14.09,27.72,21.32,2.95,2.33,5.94,4.7,9,7.1-7,2.61-14.64,5.42-22.56,8.33-28.37,10.42-60.53,22.22-84.76,33.17a8.57,8.57,0,0,0,3.44,16.37Z"/><path class="cls-6" d="M343.53,306.42a3.55,3.55,0,0,0,0,.46V307l.06.33c0,.14,0,.28.07.42s.07.26.1.39.07.27.11.41.13.35.2.53a2,2,0,0,0,.08.22,7,7,0,0,0,.35.73s.06.09.08.14l.33.55.15.19a4.59,4.59,0,0,0,.33.44l.19.23.33.36.25.24.33.3.28.23.34.25.32.21.34.21.35.19.37.18.35.15.41.15.35.12.47.12.31.07a6,6,0,0,0,.61.09l.2,0a7.63,7.63,0,0,0,.84,0H455.2a8.56,8.56,0,0,0,5.53-15.11c-11.43-9.64-23.15-20.4-34.48-30.81-12.75-11.71-24.92-22.88-35.19-31.05a76.78,76.78,0,0,0-6.51-4.94.18.18,0,0,0-.07-.05l0,0-.15-.11-.25-.15a3.58,3.58,0,0,0-.42-.25,2.06,2.06,0,0,0-.33-.17,3.55,3.55,0,0,0-.44-.21l-.34-.14-.45-.16-.36-.1-.45-.11c-.12,0-.24,0-.37-.06l-.45-.07-.37,0-.45,0h-.38a3.39,3.39,0,0,0-.45,0l-.37,0L378,231l-.36.08-.44.11-.35.11c-.15,0-.29.09-.43.15l-.35.14-.4.19-.34.19-.39.22-.33.22-.35.26a3.82,3.82,0,0,0-.32.27c-.11.09-.22.18-.32.28l-.3.31c-.1.1-.2.2-.29.31s-.19.23-.28.35-.14.16-.2.25l-.06.09-.07.09-.17.28c-.07.13-.15.25-.23.38l-.19.38c-.06.13-.13.26-.18.39s-.11.26-.16.39-.1.27-.14.4-.08.28-.11.41a3.34,3.34,0,0,0-.1.4c0,.14-.06.28-.08.43s0,.25-.06.39l0,.43c0,.13,0,.26,0,.39s0,.29,0,.44,0,.25,0,.38,0,.29.05.44,0,.25.05.38l.09.42c0,.13.06.25.1.38a3.24,3.24,0,0,0,.13.41l.12.37c.06.13.11.27.17.4l.17.36a3.59,3.59,0,0,0,.21.38c.06.11.12.23.19.34s.17.25.26.37a3.46,3.46,0,0,0,.22.31l.3.36a3.33,3.33,0,0,0,.25.28c.11.12.23.23.35.34l.27.26.38.3.23.18c1.62,1.16,3.34,2.47,5.12,3.87,8.89,7.5,12.88,15.91,11,23.65-2.82,11.65-18.36,20.86-39.6,23.45l-.27.05-.53.09-.32.09-.49.13-.36.13-.42.17c-.13.05-.25.12-.38.18l-.36.19-.38.22-.32.21-.36.27c-.1.08-.2.15-.3.24l-.32.28c-.09.1-.19.18-.28.28l-.28.3-.27.32-.23.3-.26.37c-.07.1-.13.21-.19.31l-.23.4c-.06.11-.1.22-.16.33l-.19.42c-.05.12-.09.24-.13.37s-.1.27-.14.41-.08.28-.11.43l-.09.38c0,.16-.05.32-.07.48s0,.24,0,.36,0,.34,0,.51,0,.19,0,.29V306Zm71.13-25.25c5.83,5.36,11.77,10.81,17.74,16.17H395.45A38.4,38.4,0,0,0,407.28,278c.21-.87.42-1.9.58-3.05Z"/><path class="cls-9" d="M120,161.37a18.68,18.68,0,0,1-4.14-7.33c-3.41-11.61,5.15-24.35,19.12-28.45s28.05,2,31.46,13.61a19.62,19.62,0,0,1-1.52,14.42c8.71-7.28,13.14-17.55,9.12-26.88-8.44-19.66-23.59-27.15-32.89-31.37-13.11,13.1-26.6,30.89-44.33,55.3C102,155.55,110.58,159.26,120,161.37Z"/><ellipse class="cls-6" cx="142.2" cy="148.75" rx="15.33" ry="11.42" transform="translate(-36.13 46.06) rotate(-16.36)"/><ellipse class="cls-6" cx="196.75" cy="272.69" rx="20.59" ry="10.8" transform="matrix(0.96, -0.28, 0.28, 0.96, -68.83, 66.44)"/><path class="cls-9" d="M164.32,203.31c-23.66,6.08-50.16,2.47-50.16,2.47l-14.38,72S168.54,220,245,168.59c-9.1-5.25-27.63-17-27.63-17S212.83,190.84,164.32,203.31Z"/><path class="cls-7" d="M9.19,316.74h.23A8.63,8.63,0,0,0,18,308.36C22.09,158.5,77.58,93.19,119,57.1a8.62,8.62,0,0,0-11.33-13C38,104.85,4,188.67.8,307.89A8.62,8.62,0,0,0,9.19,316.74Z"/><path class="cls-9" d="M285.26,198.4s-57.18,40.69-72.43,55.69l97.15-40Z"/><path class="cls-7" d="M9.42,351.28H455.2a8.62,8.62,0,1,0,0-17.24H9.42a8.62,8.62,0,0,0,0,17.24Z"/><path class="cls-5" d="M180.55,400c0-21.63-15.31-27.62-34.82-27.62H122.66c-9.87,0-14.53,4.55-14.53,15.2v52.79c0,8.53,4.44,13.3,12.42,13.3S133,448.87,133,440.34V427.47h12.76C165.24,427.47,180.55,421.48,180.55,400Zm-33.49,8.2H133V391.65h12.87c6.21,0,9.87,3.1,9.87,8.43S151.27,408.17,147.06,408.17Z"/><path class="cls-5" d="M219.59,439.89V384.66c0-8.54-4.88-13.75-12.75-13.75s-12.76,5.21-12.76,13.75v55.23c0,8.54,4.88,13.75,12.76,13.75S219.59,448.43,219.59,439.89Z"/><path class="cls-5" d="M306,442.22c0-6.54-4-10-11.64-10H265.51l34.15-37.93c3.88-4.32,5.1-7.1,5.1-10.76,0-6.21-3.54-11.2-11.64-11.2H245c-8.32,0-12.2,4-12.2,10s3.88,10,12.2,10h24.84L237.89,427.8c-5.54,6.1-7.1,9-7.1,13.2,0,6.21,3.89,11.2,12.54,11.2h51C302,452.2,306,448.76,306,442.22Z"/><path class="cls-5" d="M386.06,442.22c0-6.54-4-10-11.65-10H345.58l34.16-37.93c3.88-4.32,5.1-7.1,5.1-10.76,0-6.21-3.55-11.2-11.65-11.2H325.06c-8.31,0-12.2,4-12.2,10s3.89,10,12.2,10H349.9L318,427.8c-5.55,6.1-7.1,9-7.1,13.2,0,6.21,3.88,11.2,12.53,11.2h51C382.07,452.2,386.06,448.76,386.06,442.22Z"/><path class="cls-5" d="M442.62,381.23c-2.44-6.66-5.77-10.32-12.2-10.32h-8c-6.43,0-9.76,3.66-12.2,10.32l-17,47.24c-1.88,5.32-4,11.2-4,14.86,0,6,5.88,10.31,11.64,10.31,4,0,9-1.77,10.32-6.32l1.77-5.88h26.84l1.77,5.88c1.33,4.55,6.32,6.32,10.32,6.32,5.76,0,11.64-4.32,11.64-10.31,0-3.66-2.11-9.54-4-14.86Zm-24.95,44.24,8.65-29.16h.22l8.65,29.16Z"/><path class="cls-5" d="M68.09,518.58h.3L77.71,568c1.92,10.35,6.66,15.68,16.57,15.68h5.17c9.92,0,15.39-5.62,17.76-15.24l14.94-60.65c2.07-8.43,3.7-15.09,3.7-19.68,0-8.58-6.36-14.79-15.39-14.79-7.84,0-14.5,3.25-16.12,13.61l-9.32,58h-.3L85.4,489.73c-1.92-11.69-5.47-16.42-17.16-16.42S53,478,51.08,489.73l-9.32,55.18h-.3l-9.31-58c-1.63-10.36-8.29-13.61-16.13-13.61C7,473.31.63,479.52.63,488.1c0,4.59,1.63,11.25,3.7,19.68l14.94,60.65c2.37,9.62,7.85,15.24,17.76,15.24H42.2c9.92,0,14.65-5.33,16.57-15.68Z"/><path class="cls-5" d="M241.47,569.32c0-7.4-4.58-12.43-14.79-12.43H185.56v-17h31.65c10.21,0,14.8-5,14.8-12.43S227.42,515,217.21,515H185.56V500.09h39.49c10.21,0,14.8-5,14.8-12.43s-4.59-12.43-14.8-12.43H170.91c-13.17,0-19.38,6.07-19.38,20.27v66c0,14.2,6.21,20.27,19.38,20.27h55.77C236.89,581.75,241.47,576.72,241.47,569.32Z"/><path class="cls-5" d="M348.28,569.32c0-7.4-4.58-12.43-14.79-12.43H292.37v-17H324c10.21,0,14.8-5,14.8-12.43S334.23,515,324,515H292.37V500.09h39.49c10.21,0,14.8-5,14.8-12.43s-4.59-12.43-14.8-12.43H277.72c-13.17,0-19.38,6.07-19.38,20.27v66c0,14.2,6.21,20.27,19.38,20.27h55.77C343.7,581.75,348.28,576.72,348.28,569.32Z"/><path class="cls-5" d="M434.09,517.54l16-17.6c4.44-4.59,6.51-7.4,6.51-12.28,0-6.36-5.91-14.35-15.09-14.35-5.62,0-8.87,2.81-15.53,10.06l-26.77,29.29v-21c0-11.39-6.51-18.34-17-18.34s-17,6.95-17,18.34v73.68c0,11.39,6.51,18.34,17,18.34s17-6.95,17-18.34V550.68l9.61-10.5L432,576.12c3.84,6.07,8.72,7.55,14.05,7.55,8.88,0,17.31-6.81,17.31-15.68,0-3.7-1.48-7-3.4-10.06Z"/><path class="cls-5" d="M9,418.66h23c4,0,6.69-2.3,6.69-6.28s-2.7-6.29-6.69-6.29H15.65V377.51c0-5.2-3-8.38-7.77-8.38S.11,372.31.11,377.51V409.4C.11,415.89,2.94,418.66,9,418.66Z"/><path class="cls-5" d="M60.38,397.44c-13.85.88-17.91,5.27-17.91,11.15,0,7.77,5.48,11,13.18,11,4.8,0,9.73-1.56,12.43-5.61.47,3.18,2.23,5.61,7,5.61,3.31,0,6.48-1.49,6.48-4.93,0-1.69-.4-3.85-.4-6.29V392.85c0-8.72-11.35-10.4-18.72-10.4-9.66,0-17,3.37-17,8.58,0,2.77,1.62,4.32,4.39,4.32,4.73,0,6.15-4.8,12.17-4.8,3.71,0,5.6,1.22,5.6,3.45S65.58,397.11,60.38,397.44Zm7.29,9.33c0,2.63-2.7,5.07-6.62,5.07-2.23,0-4.25-1.35-4.25-3.45a2.91,2.91,0,0,1,1.89-2.9c2.5-1,7-.61,9-2.71Z"/><path class="cls-7" d="M8.62,453.72H75.85a8.62,8.62,0,1,0,0-17.24H8.62a8.62,8.62,0,0,0,0,17.24Z"/></g></g></svg>