<svg xmlns="http://www.w3.org/2000/svg" viewBox="0 0 568.4 219.8"><defs><style>.cls-1{fill:none}.cls-2{fill:#eb422e}.cls-3{fill:#f59745}.cls-4{fill:#4a9343}.cls-5{fill:#f4b88c}.cls-6{fill:#cf3339}.cls-7{fill:#fff}.cls-8{fill:#ff8000}.cls-9{fill:#fd8000}</style></defs><g id="Layer_2" data-name="Layer 2"><g id="navbar_size" data-name="navbar size"><path d="M143.54,4.11A1,1,0,0,0,142.8,4a1,1,0,0,0-.65.33,1.08,1.08,0,0,0-.24.72l2-.3A.83.83,0,0,0,143.54,4.11Z" class="cls-1"/><path d="M149.49,3.47a1,1,0,0,0-.73-.19,1,1,0,0,0-.66.29,1,1,0,0,0-.29.7l2-.16A.81.81,0,0,0,149.49,3.47Z" class="cls-1"/><path d="M117.57,13.25a.82.82,0,0,0-.58-.42,1,1,0,0,0-.74.15,1,1,0,0,0-.42,1.32Z" class="cls-1"/><path d="M128,8.52a.83.83,0,0,0-.5-.52,1,1,0,0,0-.75,0,1.06,1.06,0,0,0-.57.46,1.08,1.08,0,0,0-.09.76Z" class="cls-1"/><path d="M163.4,5.91a1.13,1.13,0,0,0,.84-.29,1.35,1.35,0,0,0,.41-.94,1.32,1.32,0,0,0-.27-1,1.16,1.16,0,0,0-1.64-.12,1.3,1.3,0,0,0-.4.93,1.38,1.38,0,0,0,.26,1A1.1,1.1,0,0,0,163.4,5.91Z" class="cls-1"/><path d="M157.26,5.69a1.14,1.14,0,0,0,.83-.35,1.38,1.38,0,0,0,.35-1,1.33,1.33,0,0,0-.33-1,1.11,1.11,0,0,0-.83-.35,1.07,1.07,0,0,0-.82.34,1.34,1.34,0,0,0-.35,1,1.37,1.37,0,0,0,.33,1A1.15,1.15,0,0,0,157.26,5.69Z" class="cls-1"/><path d="M108.34,18.26a.82.82,0,0,0-.59-.29,1,1,0,0,0-.65.33l-.64.61,1.16,1.2.64-.61a1,1,0,0,0,.35-.64A.83.83,0,0,0,108.34,18.26Z" class="cls-1"/><path d="M203.77,23.53a.92.92,0,0,0,.14-.32,2,2,0,0,0,0-.8.92.92,0,0,0-.14-.32.7.7,0,0,0-.29-.21,1.24,1.24,0,0,0-.47-.08h-.49v2H203a1.24,1.24,0,0,0,.47-.08A.7.7,0,0,0,203.77,23.53Z" class="cls-1"/><path d="M65.67,79.65c8.16-.49,17.77-5.7,19.48-14.4,1.12-5.64-1.24-12.19-6.29-17.53-4.37-4.61-10.17-8-15.62-10.89A111.35,111.35,0,0,0,37,70.55C45.71,74.82,57.36,80.15,65.67,79.65Zm-.38-7.34c-3.67,1.08-7.29-.26-8.09-3s1.52-5.82,5.19-6.9,7.29.27,8.09,3S69,71.23,65.29,72.31Zm-1.92-29c4.19,1.9,11,5.28,14.85,14.16C80,61.64,78,66.28,74.1,69.57a8.84,8.84,0,0,0,.68-6.51c-1.54-5.25-7.9-8-14.2-6.15S50.41,64.51,52,69.76a8.63,8.63,0,0,0,1.87,3.31c-4.26-1-8.11-2.63-10.47-4.84C51.36,57.21,57.45,49.18,63.37,43.27Z" class="cls-1"/><path d="M206.72,23.67a.92.92,0,0,0,.35.26,1.06,1.06,0,0,0,.48.1,1.12,1.12,0,0,0,.44-.09,1.23,1.23,0,0,0,.36-.25,1.28,1.28,0,0,0,.24-.39,1.48,1.48,0,0,0,.08-.49,1.53,1.53,0,0,0-.08-.49,1.28,1.28,0,0,0-.24-.39,1.23,1.23,0,0,0-.36-.25,1.12,1.12,0,0,0-.44-.09,1.13,1.13,0,0,0-.45.09,1,1,0,0,0-.36.25,1,1,0,0,0-.24.39,1.3,1.3,0,0,0-.09.49,1.4,1.4,0,0,0,.08.47A1.09,1.09,0,0,0,206.72,23.67ZM207,22h.61a.78.78,0,0,1,.45.11.42.42,0,0,1,.15.36.38.38,0,0,1-.12.32.59.59,0,0,1-.31.13l.46.71h-.3l-.42-.69h-.26v.69H207Z" class="cls-1"/><path d="M178.18,134.45h16.68c-2.7-2.42-5.38-4.88-8-7.3l-3.07-2.81c-.07.52-.17,1-.26,1.37A17.32,17.32,0,0,1,178.18,134.45Z" class="cls-1"/><path d="M207.7,22.72a.27.27,0,0,0,.12,0l.08-.08a.26.26,0,0,0,0-.14.21.21,0,0,0,0-.12.15.15,0,0,0-.09-.06.2.2,0,0,0-.11,0h-.45v.48h.45Z" class="cls-1"/><path d="M25,78.89c-6,16.27-9.2,35.29-10,59.84a3.87,3.87,0,0,0,3.74,4h.13A3.87,3.87,0,0,0,22.73,139c.76-23.7,3.79-41.94,9.52-57.4q.75-2,1.56-4C43.23,82.22,56,88,66.13,87.37a32.22,32.22,0,0,0,16.68-5.89,23.78,23.78,0,0,0,9.93-14.73c1.6-8.09-1.49-17.19-8.26-24.35-5.88-6.2-13.69-10.33-20-13.65a3.87,3.87,0,0,0-4.32.47C43.67,43.33,32.16,59.57,25,78.89ZM63.24,36.83c5.45,2.92,11.25,6.28,15.62,10.89,5,5.34,7.41,11.89,6.29,17.53C83.44,74,73.83,79.16,65.67,79.65c-8.31.5-20-4.83-28.65-9.1A111.35,111.35,0,0,1,63.24,36.83Z" class="cls-2"/><path d="M41.25,89.35a3.87,3.87,0,0,0-4.66,2.87c-4,16.9-6,25.94-6.93,46.47a3.86,3.86,0,0,0,3.69,4h.18a3.88,3.88,0,0,0,3.86-3.7c.88-19.87,2.7-28.16,6.72-45A3.87,3.87,0,0,0,41.25,89.35Z" class="cls-3"/><path d="M100.17,65.35c5.7,3.33,9.41,5.91,13.34,8.64,2.51,1.75,5.08,3.54,8.2,5.53a449.89,449.89,0,0,0-76.65,55.93,3.87,3.87,0,0,0,2.59,6.74h96.16a3.87,3.87,0,0,0,0-7.74H57.86A444.35,444.35,0,0,1,131.2,83a3.85,3.85,0,0,0,.06-6.7c-5.7-3.34-9.41-5.92-13.34-8.65s-7.89-5.48-13.84-9a3.87,3.87,0,1,0-3.91,6.68Z" class="cls-4"/><path d="M107.44,127.33c4.42,0,8.9.06,13.39.06,7.73,0,15.52,0,23.13-.1,7.29-.05,14.17-.1,20.75-.1a3.87,3.87,0,0,0,0-7.73c-6.61,0-13.5,0-20.8.09-5.61,0-11.3.08-17,.1,6.6-2.54,13.47-5.06,19.9-7.42,6.28-2.31,12.21-4.49,16.76-6.28a3.86,3.86,0,0,0,.92-6.68c-3.33-2.52-6.42-5-9.41-7.34-4-3.17-8.14-6.44-12.77-9.81a3.87,3.87,0,0,0-4.55,6.25c4.5,3.28,8.39,6.36,12.52,9.63q2,1.57,4.06,3.2c-3.15,1.18-6.62,2.45-10.19,3.76-12.81,4.71-27.33,10-38.27,15a3.87,3.87,0,0,0,1.56,7.39Z" class="cls-3"/><path d="M154.74,138.57a1.09,1.09,0,0,0,0,.18v0l0,.17,0,.17a1.6,1.6,0,0,0,.05.21,1,1,0,0,1,0,.14,3.42,3.42,0,0,0,.13.34h0c.05.11.1.22.16.33l0,0a2.61,2.61,0,0,0,.17.28.35.35,0,0,0,.05.08l.16.21.08.09a1.29,1.29,0,0,0,.16.17l.1.1.16.15.12.1.16.11a.71.71,0,0,0,.14.1l.16.09.15.09.17.08.16.07.18.06.16.06.21.05a.7.7,0,0,0,.14,0l.28,0h.09l.38,0h46.56a3.87,3.87,0,0,0,2.5-6.83c-5.16-4.35-10.45-9.21-15.57-13.91-5.75-5.28-11.25-10.32-15.89-14a31.58,31.58,0,0,0-2.93-2.23l0,0h0l-.07,0-.11-.06-.19-.12-.15-.07a1.24,1.24,0,0,0-.2-.1l-.15-.06-.2-.07-.17,0-.2,0-.17,0-.2,0h-.74l-.18,0-.19,0-.18,0-.18,0-.17.06-.18.06-.17.07-.17.08-.17.09-.16.09-.16.12a.71.71,0,0,0-.14.1l-.16.13-.13.12a1.06,1.06,0,0,0-.15.15l-.12.13c-.05,0-.09.11-.14.17l-.08.1,0,0,0,0s-.05.1-.08.14-.07.1-.1.16l-.09.18-.08.17a1.07,1.07,0,0,0-.07.19l-.06.16-.06.21s0,.1,0,.16l0,.21,0,.16a1.48,1.48,0,0,0,0,.21.81.81,0,0,0,0,.16v.21s0,.11,0,.16a1.49,1.49,0,0,0,0,.21l0,.16a1.18,1.18,0,0,0,0,.2.75.75,0,0,0,0,.16l.06.2a.88.88,0,0,1,.05.15l.09.19.06.15.1.19.09.14.12.18.09.13.14.16.11.13.16.15.13.12.16.13.11.09c.73.52,1.51,1.11,2.31,1.75,4,3.38,5.81,7.18,5,10.67-1.27,5.26-8.29,9.42-17.88,10.59l-.12,0-.24,0-.15,0-.22.06-.16.06-.19.08-.17.08-.16.08-.17.11-.15.09-.16.12-.13.11-.15.13-.13.12-.12.14a1.49,1.49,0,0,0-.12.14l-.11.14-.11.16a1.19,1.19,0,0,0-.09.15l-.1.17-.08.16a1.42,1.42,0,0,0-.08.18L155,137a1.15,1.15,0,0,0-.06.17l-.06.21,0,.16a1.57,1.57,0,0,0,0,.23c0,.05,0,.1,0,.15a2,2,0,0,0,0,.25s0,.07,0,.11v0C154.73,138.42,154.73,138.5,154.74,138.57Zm32.11-11.42c2.63,2.42,5.31,4.88,8,7.3H178.18a17.32,17.32,0,0,0,5.34-8.74c.09-.39.19-.85.26-1.37Z" class="cls-2"/><path d="M53.82,73.07A8.63,8.63,0,0,1,52,69.76c-1.54-5.25,2.32-11,8.63-12.85s12.66.9,14.2,6.15a8.84,8.84,0,0,1-.68,6.51C78,66.28,80,61.64,78.22,57.43,74.4,48.55,67.56,45.17,63.37,43.27c-5.92,5.91-12,13.94-20,25C45.71,70.44,49.56,72.11,53.82,73.07Z" class="cls-5"/><path d="M62.39,62.42c-3.67,1.08-6,4.16-5.19,6.9s4.42,4.07,8.09,3,6-4.16,5.19-6.89S66.06,61.34,62.39,62.42Z" class="cls-2"/><ellipse cx="88.47" cy="123.32" class="cls-2" rx="9.3" ry="4.88" transform="translate(-31.15 29.9) rotate(-16.36)"/><path d="M73.83,92c-10.69,2.74-22.65,1.12-22.65,1.12l-6.49,32.52s31-26.12,65.55-49.31c-4.11-2.38-12.48-7.66-12.48-7.66S95.73,86.37,73.83,92Z" class="cls-5"/><path d="M3.79,143.21h.1a3.88,3.88,0,0,0,3.89-3.78C9.61,71.77,34.66,42.29,53.35,26a3.89,3.89,0,0,0-5.12-5.87C16.78,47.55,1.46,85.39,0,139.22A3.89,3.89,0,0,0,3.79,143.21Z" class="cls-3"/><path d="M128.43,89.78s-25.82,18.38-32.7,25.14l43.86-18Z" class="cls-5"/><path d="M3.89,158.81H205.15a3.9,3.9,0,1,0,0-7.79H3.89a3.9,3.9,0,0,0,0,7.79Z" class="cls-3"/><polygon points="198.99 22.05 199 22.05 199.78 24.22 200.18 24.22 200.96 22.05 200.97 22.05 200.97 24.22 201.44 24.22 201.44 21.4 200.75 21.4 200 23.61 199.99 23.61 199.21 21.4 198.52 21.4 198.52 24.22 198.99 24.22 198.99 22.05" class="cls-6"/><path d="M203.76,24.11a1.26,1.26,0,0,0,.38-.3,1.37,1.37,0,0,0,.23-.45,2.2,2.2,0,0,0,0-1.1,1.37,1.37,0,0,0-.23-.45,1.26,1.26,0,0,0-.38-.3,1.4,1.4,0,0,0-.56-.11H202v2.82h1.17A1.4,1.4,0,0,0,203.76,24.11Zm-1.24-.29v-2H203a1.24,1.24,0,0,1,.47.08.7.7,0,0,1,.29.21.92.92,0,0,1,.14.32,2,2,0,0,1,0,.8.92.92,0,0,1-.14.32.7.7,0,0,1-.29.21,1.24,1.24,0,0,1-.47.08Z" class="cls-6"/><polygon points="206.05 21.34 205.62 21.34 204.49 24.28 204.92 24.28 206.05 21.34" class="cls-6"/><path d="M206.5,23.86a1.33,1.33,0,0,0,.46.31,1.41,1.41,0,0,0,.59.11,1.49,1.49,0,0,0,.55-.1,1.52,1.52,0,0,0,.46-.3,1.54,1.54,0,0,0,.31-.47,1.56,1.56,0,0,0,0-1.2,1.54,1.54,0,0,0-.31-.47,1.52,1.52,0,0,0-.46-.3,1.49,1.49,0,0,0-.55-.1,1.5,1.5,0,0,0-.56.1,1.31,1.31,0,0,0-.46.3,1.4,1.4,0,0,0-.32.47,1.46,1.46,0,0,0-.12.6,1.63,1.63,0,0,0,.11.59A1.66,1.66,0,0,0,206.5,23.86Zm0-1.54a1,1,0,0,1,.24-.39,1,1,0,0,1,.36-.25,1.13,1.13,0,0,1,.45-.09,1.12,1.12,0,0,1,.44.09,1.23,1.23,0,0,1,.36.25,1.28,1.28,0,0,1,.24.39,1.53,1.53,0,0,1,.08.49,1.48,1.48,0,0,1-.08.49,1.28,1.28,0,0,1-.24.39,1.23,1.23,0,0,1-.36.25,1.12,1.12,0,0,1-.44.09,1.06,1.06,0,0,1-.48-.1.92.92,0,0,1-.35-.26,1.09,1.09,0,0,1-.23-.39,1.4,1.4,0,0,1-.08-.47A1.3,1.3,0,0,1,206.5,22.32Z" class="cls-6"/><path d="M207.25,23h.26l.42.69h.3l-.46-.71a.59.59,0,0,0,.31-.13.38.38,0,0,0,.12-.32.42.42,0,0,0-.15-.36.78.78,0,0,0-.45-.11H207v1.63h.26Zm0-.71h.45a.2.2,0,0,1,.11,0,.15.15,0,0,1,.09.06.21.21,0,0,1,0,.12.26.26,0,0,1,0,.14l-.08.08a.27.27,0,0,1-.12,0h-.45Z" class="cls-6"/><path d="M110.18,22.76,108.52,21l.72-.7a2.65,2.65,0,0,0,.78-1.16,1.88,1.88,0,0,0,0-1.12,2.07,2.07,0,0,0-.54-.95,2.24,2.24,0,0,0-1-.61,2,2,0,0,0-1.12,0,3,3,0,0,0-1.16.74l-1.9,1.82,4.63,4.8Zm-2.56-2.65-1.16-1.2.64-.61a1,1,0,0,1,.65-.33.82.82,0,0,1,.59.29.83.83,0,0,1,.27.6,1,1,0,0,1-.35.64Z" class="cls-6"/><path d="M114.52,19l-1.48-2a1.17,1.17,0,0,1-.31-.92,1.38,1.38,0,0,1,.57-.75l.36-.27-1-1.38a1.85,1.85,0,0,0-.61.78,2.11,2.11,0,0,0-.16,1l-.53-.7-1.3,1L113.22,20Z" class="cls-6"/><polygon points="115.87 10.2 115.22 9.11 113.83 11.23 114.4 12.2 115.87 10.2" class="cls-6"/><path d="M114.57,12.86a2.35,2.35,0,0,0-.32,1.3,3,3,0,0,0,.45,1.41,2.94,2.94,0,0,0,1,1.06A2.32,2.32,0,0,0,117,17a3.05,3.05,0,0,0,2.24-1.23,2.4,2.4,0,0,0,.34-2.07l-1.49.89a.85.85,0,0,1-.46.88,1,1,0,0,1-.72.13,1.12,1.12,0,0,1-.66-.48l3.15-1.9a4.13,4.13,0,0,0-.22-.42,2.82,2.82,0,0,0-1-1,2.3,2.3,0,0,0-1.28-.31,3.08,3.08,0,0,0-2.36,1.43Zm1.21.68a1.06,1.06,0,0,1,.47-.56,1,1,0,0,1,.74-.15.82.82,0,0,1,.58.42l-1.74,1.05A1.07,1.07,0,0,1,115.78,13.54Z" class="cls-6"/><path d="M120.18,12.14a1.54,1.54,0,0,0,.79.14,6.19,6.19,0,0,0,1-.15,5.84,5.84,0,0,1,.8-.11.35.35,0,0,1,.35.21.36.36,0,0,1,0,.35.87.87,0,0,1-.38.31.92.92,0,0,1-.58.08.64.64,0,0,1-.42-.29l-1.45.68a1.69,1.69,0,0,0,.71.69,2.13,2.13,0,0,0,1,.22,3,3,0,0,0,1.22-.31,2.94,2.94,0,0,0,.94-.67,1.78,1.78,0,0,0,.43-.84,1.45,1.45,0,0,0-.12-.87,1.31,1.31,0,0,0-.64-.67,1.57,1.57,0,0,0-.79-.15,8.28,8.28,0,0,0-1,.14,4.52,4.52,0,0,1-.78.12.38.38,0,0,1-.37-.21.37.37,0,0,1,0-.34.8.8,0,0,1,.35-.28.82.82,0,0,1,.56-.08.64.64,0,0,1,.4.29l1.36-.64a2,2,0,0,0-1.16-.91,2.32,2.32,0,0,0-1.63.23,2.76,2.76,0,0,0-1,.69,1.79,1.79,0,0,0-.42.85,1.49,1.49,0,0,0,.13.86A1.26,1.26,0,0,0,120.18,12.14Z" class="cls-6"/><path d="M125.54,11.51a2.4,2.4,0,0,0,1.22.56,2.79,2.79,0,0,0,1.41-.17,2.76,2.76,0,0,0,1-.63,2.55,2.55,0,0,0,.59-.91,2.36,2.36,0,0,0,.12-1l-1.62.6a.86.86,0,0,1-.62.77.92.92,0,0,1-.73,0,1,1,0,0,1-.56-.59l3.44-1.28c0-.16-.08-.31-.13-.45a2.88,2.88,0,0,0-.8-1.2,2.33,2.33,0,0,0-1.2-.53,2.77,2.77,0,0,0-1.4.17,2.8,2.8,0,0,0-1.19.79,2.4,2.4,0,0,0-.56,1.22,3,3,0,0,0,.19,1.47A2.9,2.9,0,0,0,125.54,11.51Zm.61-3a1.06,1.06,0,0,1,.57-.46,1,1,0,0,1,.75,0,.83.83,0,0,1,.5.52l-1.91.71A1.08,1.08,0,0,1,126.15,8.47Z" class="cls-6"/><path d="M132.87,10.27l-.76-2.78a1.13,1.13,0,0,1,0-.86,1,1,0,0,1,.64-.49,1,1,0,0,1,.79.09,1.18,1.18,0,0,1,.49.72l.76,2.78,1.56-.43-.83-3a2.36,2.36,0,0,0-1-1.45,2,2,0,0,0-1.6-.18,2,2,0,0,0-.85.45,1.72,1.72,0,0,0-.49.71l-.19-.68-1.56.43,1.41,5.11Z" class="cls-6"/><path d="M136.22,5.31l.63-.13.43,2.06a1.81,1.81,0,0,0,.77,1.29,2.06,2.06,0,0,0,1.44.14l.8-.17L140,7.15l-.56.12a.51.51,0,0,1-.4,0,.48.48,0,0,1-.18-.31l-.43-2.08,1-.22-.27-1.32-1,.22-.26-1.26-1.59.33.26,1.26-.64.13Z" class="cls-6"/><polygon points="143.52 1.25 143.33 0 141.23 1.43 141.39 2.53 143.52 1.25" class="cls-6"/><path d="M140.93,7.14a2.29,2.29,0,0,0,1.07.8,2.83,2.83,0,0,0,1.43.13,2.79,2.79,0,0,0,1.12-.41,2.33,2.33,0,0,0,.76-.77,2.43,2.43,0,0,0,.34-1l-1.71.25a.86.86,0,0,1-.77.63,1,1,0,0,1-.71-.15,1.07,1.07,0,0,1-.43-.7l3.64-.54a3.54,3.54,0,0,0,0-.48,2.73,2.73,0,0,0-.53-1.33A2.34,2.34,0,0,0,144,2.8a2.71,2.71,0,0,0-1.4-.12,2.77,2.77,0,0,0-1.33.53,2.31,2.31,0,0,0-.79,1.08,2.89,2.89,0,0,0-.12,1.48A2.86,2.86,0,0,0,140.93,7.14Zm1.22-2.84A1,1,0,0,1,142.8,4a1,1,0,0,1,.74.14.83.83,0,0,1,.38.61l-2,.3A1.08,1.08,0,0,1,142.15,4.3Z" class="cls-6"/><path d="M146.69,6.33a2.39,2.39,0,0,0,1,.87,3,3,0,0,0,2.56-.12,2.45,2.45,0,0,0,.81-.72,2.34,2.34,0,0,0,.4-1l-1.72.14a.84.84,0,0,1-.8.58.94.94,0,0,1-.71-.2,1.1,1.1,0,0,1-.38-.73l3.66-.3a2.44,2.44,0,0,0,0-.47A2.75,2.75,0,0,0,151.07,3a2.29,2.29,0,0,0-1-.84A2.85,2.85,0,0,0,148.67,2a2.89,2.89,0,0,0-1.36.45,2.26,2.26,0,0,0-.86,1,2.93,2.93,0,0,0-.22,1.47A3,3,0,0,0,146.69,6.33Zm1.41-2.76a1,1,0,0,1,.66-.29,1,1,0,0,1,.73.19.81.81,0,0,1,.34.64l-2,.16A1,1,0,0,1,148.1,3.57Z" class="cls-6"/><path d="M156.1,6.28a1.8,1.8,0,0,0,.66.59,2.14,2.14,0,0,0,1,.24,2.22,2.22,0,0,0,1.19-.33,2.31,2.31,0,0,0,.85-1,3.12,3.12,0,0,0,.32-1.44A3.1,3.1,0,0,0,159.8,3,2.32,2.32,0,0,0,159,2a2.17,2.17,0,0,0-1.18-.34,1.94,1.94,0,0,0-1,.22,1.64,1.64,0,0,0-.66.59V1.72l-1.63,0-.07,7.83h1.62Zm.36-2.87a1.07,1.07,0,0,1,.82-.34,1.11,1.11,0,0,1,.83.35,1.33,1.33,0,0,1,.33,1,1.38,1.38,0,0,1-.35,1,1.14,1.14,0,0,1-1.65,0,1.37,1.37,0,0,1-.33-1A1.34,1.34,0,0,1,156.46,3.41Z" class="cls-6"/><path d="M161.67,6.87a2.21,2.21,0,0,0,2.14.26,1.76,1.76,0,0,0,.7-.55l0,.75,1.62.11.37-5.28L164.83,2l-.05.75a1.62,1.62,0,0,0-.61-.64,2.09,2.09,0,0,0-1-.3A2.17,2.17,0,0,0,162,2.1a2.2,2.2,0,0,0-.9.89,3.07,3.07,0,0,0-.41,1.41,3.24,3.24,0,0,0,.2,1.45A2.37,2.37,0,0,0,161.67,6.87Zm1.07-3.29a1.16,1.16,0,0,1,1.64.12,1.32,1.32,0,0,1,.27,1,1.35,1.35,0,0,1-.41.94,1.13,1.13,0,0,1-.84.29,1.1,1.1,0,0,1-.8-.41,1.38,1.38,0,0,1-.26-1A1.3,1.3,0,0,1,162.74,3.58Z" class="cls-6"/><path d="M169.08,5.35a1.11,1.11,0,0,1,.42-.87,1.29,1.29,0,0,1,.93-.14l.45,0,.21-1.7a1.77,1.77,0,0,0-1,.13,2.05,2.05,0,0,0-.79.59l.11-.88-1.61-.2-.68,5.25,1.61.21Z" class="cls-6"/><path d="M154.65,36.62c-3,0-5.33,5.74-5.54,7.42a1.44,1.44,0,0,0,1.48,1.79c3.06,0,5.47-5.51,5.71-7.49A1.47,1.47,0,0,0,154.65,36.62Z" class="cls-6"/><path d="M185.64,42.94c-1.26,4.45,2.3,4.37,4.55,1.25,1.57-2.13,2.92-5.31,2.57-7.06a2.93,2.93,0,0,0-.43-1C187.47,36.53,185.84,42.24,185.64,42.94Z" class="cls-6"/><path d="M205.62,40c0-15.1-21.85-27.34-48.79-27.34S108,24.89,108,40s21.84,27.33,48.79,27.33S205.62,55.08,205.62,40ZM163.78,32.4c8,1.61,12.4.62,16.1.45L181.26,30a4.8,4.8,0,0,1,3.46,0l-1.29,2.84c5.6.13,8.8,1.17,10.63,2.42,3.11.15,5.78.93,6.45,1.58a3.65,3.65,0,0,1-1.94,1.85,7,7,0,0,0-3.07-2.07,4.21,4.21,0,0,1,.82,3.35c-.45,3.7-4.6,7.44-9.34,7.44-2.83,0-4.63-1.32-5-3.31a5.91,5.91,0,0,1,0-1.42,7.79,7.79,0,0,1,1.87-4.16c1.82-2.1,4.73-3,7.64-3.23-2-1.22-5.83-.79-8.89-.49l-3.06,6.8a15,15,0,0,0-1.24,3.19c-.05.41,0,.86.66.86a2.27,2.27,0,0,0,1.25-.5,8.74,8.74,0,0,0,.77-.67,3.59,3.59,0,0,0,.35.8v0a6.66,6.66,0,0,1-4.38,2.08c-1.53,0-2.64-.91-2.49-2.14a6.39,6.39,0,0,1,.64-2.08c.29-.74.63-1.47.89-2L178.87,35c-4,0-10.84-.4-15.3-2.24Zm-1.31,4.35a3.59,3.59,0,0,0-.87.23,3.48,3.48,0,0,0-.29-.69,7.25,7.25,0,0,1,3.54-1.19c1.29,0,2.23.68,2.1,1.76a11.82,11.82,0,0,1-1.31,3.19,45.86,45.86,0,0,0-2.33,4.78c-.06.5.31.72.9.72,2.78,0,5.82-5.93,6.75-7.72l1-1.78s1.21.12,1.71.15l1.84.12-2.06,4a21.56,21.56,0,0,0-1.63,4.39c0,.32,0,.85.51.85a2.17,2.17,0,0,0,1-.42.41.41,0,0,1,0,.11,1.9,1.9,0,0,0,.1.83h0A5.72,5.72,0,0,1,170,47.34a1.78,1.78,0,0,1-2-2,6.8,6.8,0,0,1,.5-1.82l-.06,0c-1.55,2.1-3.71,3.87-6.42,3.88-1.56,0-2.68-.82-2.52-2.17a12.13,12.13,0,0,1,1.36-3.31s2-4.09,2.09-4.53A.47.47,0,0,0,162.47,36.75Zm-33.55,5.44c-.79,3.34-4.14,5.32-8.09,5.32a7.46,7.46,0,0,1-5.53-2c-2.33-2.69.34-4.08,1.64-4.06-.68,2.58.35,4.86,3.63,4.86a3.77,3.77,0,0,0,3.82-2.62c.41-1.72-.55-2.74-1.69-3.89l-1.07-1.12c-1.39-1.42-2.46-2.71-1.95-4.85.73-3.07,4-5,7.61-5a6.81,6.81,0,0,1,4.64,1.58,2.13,2.13,0,0,1-1.24,3.86.67.67,0,0,1-.23-.07c.64-2-.05-4.17-2.79-4.17-1.54,0-3.44.82-3.77,2.22-.38,1.59.76,2.69,1.79,3.73l1,1C128.21,38.44,129.47,39.86,128.92,42.19Zm9.71,3.31a7.85,7.85,0,0,1,.23-1l-.07,0a7.09,7.09,0,0,1-5.45,2.89c-2.85,0-4-1.84-3.72-4,.44-3.56,4.45-8.24,9.34-8.24a3.06,3.06,0,0,1,3.14,1.79l.86-1.5a5,5,0,0,1,3.53,0L143,42.83a10.18,10.18,0,0,0-.79,2c0,.33.05,1,.52,1a1.46,1.46,0,0,0,.61-.16h0l-.5,1.1a5.26,5.26,0,0,1-2.25.55C139.29,47.34,138.5,46.51,138.63,45.5Zm9.59,0h-.07L144.33,54a4.49,4.49,0,0,1-2.61-2.24l8-18a4.29,4.29,0,0,1,2.48,2.09l-.41,1,.06,0a6.5,6.5,0,0,1,4.5-1.82c2.45,0,3.6,1.25,3.75,3a5.19,5.19,0,0,1,0,1c-.42,3.5-3.86,8.27-8.79,8.27A3.08,3.08,0,0,1,148.22,45.55Z" class="cls-6"/><path d="M139.52,36.62c-3,0-5.65,5.32-5.88,7.28a1.44,1.44,0,0,0,1.4,1.79c3.09,0,5.84-5.51,6.09-7.49C141.23,37.32,140.7,36.62,139.52,36.62Z" class="cls-6"/><path d="M126.66,36.93l-1-1c-1-1-2.17-2.14-1.79-3.73.33-1.4,2.23-2.22,3.77-2.22,2.74,0,3.43,2.19,2.79,4.17a.67.67,0,0,0,.23.07,2.13,2.13,0,0,0,1.24-3.86,6.81,6.81,0,0,0-4.64-1.58c-3.65,0-6.88,1.91-7.61,5-.51,2.14.56,3.43,1.95,4.85l1.07,1.12c1.14,1.15,2.1,2.17,1.69,3.89a3.77,3.77,0,0,1-3.82,2.62c-3.28,0-4.31-2.28-3.63-4.86-1.3,0-4,1.37-1.64,4.06a7.46,7.46,0,0,0,5.53,2c4,0,7.3-2,8.09-5.32C129.47,39.86,128.21,38.44,126.66,36.93Z" class="cls-7"/><path d="M160.11,39.08a5.19,5.19,0,0,0,0-1c-.15-1.7-1.3-3-3.75-3a6.5,6.5,0,0,0-4.5,1.82l-.06,0,.41-1a4.29,4.29,0,0,0-2.48-2.09l-8,18A4.49,4.49,0,0,0,144.33,54l3.82-8.47h.07a3.08,3.08,0,0,0,3.1,1.8C156.25,47.35,159.69,42.58,160.11,39.08Zm-3.81-.74c-.24,2-2.65,7.49-5.71,7.49A1.44,1.44,0,0,1,149.11,44c.21-1.68,2.51-7.42,5.54-7.42A1.47,1.47,0,0,1,156.3,38.34Z" class="cls-7"/><path d="M143.33,45.69h0a1.46,1.46,0,0,1-.61.16c-.47,0-.56-.64-.52-1a10.18,10.18,0,0,1,.79-2l3.5-7.43a5,5,0,0,0-3.53,0l-.86,1.5A3.06,3.06,0,0,0,139,35.11c-4.89,0-8.9,4.68-9.34,8.24-.26,2.15.87,4,3.72,4a7.09,7.09,0,0,0,5.45-2.89l.07,0a7.85,7.85,0,0,0-.23,1c-.13,1,.66,1.84,2,1.84a5.26,5.26,0,0,0,2.25-.55Zm-2.2-7.49c-.25,2-3,7.49-6.09,7.49a1.44,1.44,0,0,1-1.4-1.79c.23-2,2.89-7.28,5.88-7.28C140.7,36.62,141.23,37.32,141.13,38.2Z" class="cls-7"/><path d="M160.89,41.86a12.13,12.13,0,0,0-1.36,3.31c-.16,1.35,1,2.18,2.52,2.17,2.71,0,4.87-1.78,6.42-3.88l.06,0a6.8,6.8,0,0,0-.5,1.82,1.78,1.78,0,0,0,2,2,5.72,5.72,0,0,0,3.41-1.26h0a1.9,1.9,0,0,1-.1-.83.41.41,0,0,0,0-.11,2.17,2.17,0,0,1-1,.42c-.54,0-.55-.53-.51-.85a21.56,21.56,0,0,1,1.63-4.39l2.06-4-1.84-.12c-.5,0-1.71-.15-1.71-.15l-1,1.78c-.93,1.79-4,7.72-6.75,7.72-.59,0-1-.22-.9-.72a45.86,45.86,0,0,1,2.33-4.78A11.82,11.82,0,0,0,167,36.86c.13-1.08-.81-1.76-2.1-1.76a7.25,7.25,0,0,0-3.54,1.19,3.48,3.48,0,0,1,.29.69,3.59,3.59,0,0,1,.87-.23.47.47,0,0,1,.51.58C162.93,37.77,160.89,41.86,160.89,41.86Z" class="cls-7"/><path d="M176,41.12c-.26.57-.6,1.3-.89,2a6.39,6.39,0,0,0-.64,2.08c-.15,1.23,1,2.14,2.49,2.14a6.66,6.66,0,0,0,4.38-2.08v0a3.59,3.59,0,0,1-.35-.8,8.74,8.74,0,0,1-.77.67,2.27,2.27,0,0,1-1.25.5c-.65,0-.71-.45-.66-.86a15,15,0,0,1,1.24-3.19l3.06-6.8c3.06-.3,6.88-.73,8.89.49-2.91.23-5.82,1.13-7.64,3.23a7.79,7.79,0,0,0-1.87,4.16,5.91,5.91,0,0,0,0,1.42c.38,2,2.18,3.31,5,3.31,4.74,0,8.89-3.74,9.34-7.44a4.21,4.21,0,0,0-.82-3.35,7,7,0,0,1,3.07,2.07,3.65,3.65,0,0,0,1.94-1.85c-.67-.65-3.34-1.43-6.45-1.58-1.83-1.25-5-2.29-10.63-2.42L184.72,30a4.8,4.8,0,0,0-3.46,0l-1.38,2.88c-3.7.17-8.09,1.16-16.1-.45l-.21.35C168,34.59,174.85,35,178.87,35Zm16.81-4c.35,1.75-1,4.93-2.57,7.06-2.25,3.12-5.81,3.2-4.55-1.25.2-.7,1.83-6.41,6.69-6.85A2.93,2.93,0,0,1,192.76,37.13Z" class="cls-7"/><path d="M112.38,194.88h-2.07l-2.46,8.35h1.57c1.81-.2,2.44-1.34,3.13-2.87a11.63,11.63,0,0,0,1-3.76,1.81,1.81,0,0,0-.41-1.42A1.12,1.12,0,0,0,112.38,194.88Z" class="cls-1"/><path d="M141.43,205.44c-1.42,0-2.54,4.06-2.66,5.67-.06.89.09,1.48.67,1.48h0l-.18-2.06h1.17a.27.27,0,0,1,.26.25l.06.65a12.73,12.73,0,0,0,1.35-4.47C142.18,206.06,142,205.44,141.43,205.44Z" class="cls-1"/><path d="M145.91,191.28h-.54l-.91,3.07h.61c1,0,1.55-1,1.62-2C146.74,191.6,146.41,191.28,145.91,191.28Z" class="cls-1"/><path d="M85.56,179.58a1.33,1.33,0,0,0-1.34,1h2.36A.91.91,0,0,0,85.56,179.58Z" class="cls-1"/><path d="M128,191.28l-2,6.83h.62c1.87,0,2.8-4,2.87-5.17s-.39-1.66-.93-1.66Z" class="cls-1"/><path d="M91.33,179.58a1.33,1.33,0,0,0-1.34,1h2.36A.91.91,0,0,0,91.33,179.58Z" class="cls-1"/><path d="M99.14,182.44a1.48,1.48,0,0,0,1.49-1.56,1.08,1.08,0,0,0-1.14-1.18A1.51,1.51,0,0,0,98,181.07,1.1,1.1,0,0,0,99.14,182.44Z" class="cls-1"/><path d="M105.66,179.7a1.52,1.52,0,0,0-1.51,1.57,1.08,1.08,0,0,0,1.14,1.17,1.47,1.47,0,0,0,1.48-1.37A1.09,1.09,0,0,0,105.66,179.7Z" class="cls-1"/><path d="M174.22,205.45c-1.41,0-2.54,4.05-2.66,5.66-.06.89.1,1.48.68,1.48,1.39,0,2.55-4,2.66-5.63C175,206.06,174.8,205.45,174.22,205.45Z" class="cls-1"/><path d="M168.49,198.28c1.4,0,2.55-4,2.67-5.63.06-.91-.11-1.52-.69-1.52-1.41,0-2.54,4.05-2.65,5.66C167.75,197.68,167.91,198.28,168.49,198.28Z" class="cls-1"/><polygon points="157.6 210.54 158.21 205.66 155.96 210.54 157.6 210.54" class="cls-1"/><path d="M55.13,189.83a8.22,8.22,0,0,1-2.05-3.45c-.24-2.51-1.28-9.49-1.28-9.49a1.59,1.59,0,0,0-1.34-1.44c-1.63-.22-4.19-.34-4.19-.34a1.15,1.15,0,0,0-1.09.78,10.81,10.81,0,0,0-.14,2.56c0,.67-.58.27-.58.27A64.06,64.06,0,0,0,37.94,174,2.68,2.68,0,0,0,35,174a64.52,64.52,0,0,0-21.34,22.14,1,1,0,0,0-.14.34,1.32,1.32,0,0,0,1,1.62c.78.19,4,.49,4,.49a1,1,0,0,1,.76,1,140.63,140.63,0,0,0,1.16,18.93,1.29,1.29,0,0,0,1.28,1.22l6.27-.17c.41,0,.31-.46.31-.46-.25-1.91-.53-7.84-.53-7.84a.76.76,0,0,0-.37-.53c-2.5-1.37-2.45-4.74-2.45-4.74-.07-3.28.43-14.46.43-14.46v-.07a.73.73,0,0,1,.81-.62h.08a.76.76,0,0,1,.65.85c-.08.72-.39,10.06-.39,10.06.07,1.49,1.18,1.35,1.18,1.35,1.34.07,1.18-1.6,1.18-1.6-.1-3.45.43-10,.43-10a.13.13,0,0,1,0-.06.74.74,0,0,1,.84-.61.72.72,0,0,1,.67.73c-.3,3.37-.39,10.2-.39,10.2.06,1.51,1.28,1.32,1.28,1.32,1.26,0,1.08-1.85,1.08-1.85-.1-2.79.43-9.81.43-9.81a.13.13,0,0,1,0-.06.69.69,0,0,1,.84-.52c.75.11.69.69.69.69-.08,1.7-.38,12.34-.38,12.34a20.31,20.31,0,0,1,0,3.17,4.88,4.88,0,0,1-2.27,3.6.5.5,0,0,0-.28.49c0,1,.46,7.91.55,8.15s.47.2.47.2c.91-.06,9.07,0,9.07,0,.58,0,.65-.17.65-.17a1.85,1.85,0,0,0,.13-.66c.12-1,.55-6.53.55-6.53,0-.45-.32-.45-.32-.45L41,211.52c-1.46-.12-1.74-.65-1.74-.65-.46-.77-.36-3.79-.36-3.79A30,30,0,0,1,44.47,190c.83-1.13,1.68-.79,1.68-.79,1,.26,1,1.49,1,1.49,1.22,9.56-.57,28.47-.57,28.47-.06.5.3.48.3.48.82,0,4.35.09,4.35.09,1.28.05,1.51-2.26,1.51-2.26.89-5.82,1.07-17.95,1.07-17.95v0a.85.85,0,0,1,.77-.93c.33-.08,3.77-.43,3.77-.43,1.88-.24,1-2.07,1-2.07C58.87,195.07,55.13,189.83,55.13,189.83Z" class="cls-8"/><path d="M103.05,189.83a.66.66,0,0,0-.52-.26H97L90.26,212.5l-2.57-11.14,7.86-10.74a.7.7,0,0,0,.11-.23l.14-.47a.27.27,0,0,0-.26-.35H89.93l-6,8.81,2.57-8a.64.64,0,0,0-.62-.83H80.32l-4.8,16.3c.11-2.8-2.06-5-3.33-6.4-1-1.14-1.64-1.95-1.53-2.85a2.57,2.57,0,0,1,2.43-2.23,4.64,4.64,0,0,1,2.86.73.88.88,0,0,0,.32.07.58.58,0,0,0,.26-.05.65.65,0,0,0,.4-.41l1.29-4.36-.9-.42-.13-.06,0,0a8.27,8.27,0,0,0-3.36-.66c-4.86,0-9.28,3.48-10,7.76-.51,3,1.41,5.11,2.81,6.65l.12.13c1,1.09,1.72,1.93,1.55,2.91a3,3,0,0,1-2.85,2.26,6.33,6.33,0,0,1-3.4-.77,1,1,0,0,0-.64-.12.7.7,0,0,0-.45.45l-1.23,4.21-.16.54a13,13,0,0,0,5.22,1.22c4.14,0,7.72-1.59,9.85-5.43l-1.26,4.28a.66.66,0,0,0,.62.83h5.55l1.38-4.71L82.58,207l1.3,6.62a.65.65,0,0,0,.63.52H96.17l7-23.73A.64.64,0,0,0,103.05,189.83Z" class="cls-8"/><path d="M119.59,196.06a6.55,6.55,0,0,0-1.61-4.63,5.64,5.64,0,0,0-4.24-1.85h-9.18l-.4,1.3a.47.47,0,0,0,0,.35l.26.41a1.62,1.62,0,0,1,.19,1.35l-6,20.3a.64.64,0,0,0,.09.57.63.63,0,0,0,.51.27h5.34l1.67-5.64h2.41c5.82.07,8.77-4,10.08-8.45A15,15,0,0,0,119.59,196.06Zm-7,4.3c-.69,1.53-1.32,2.67-3.13,2.87h-1.57l2.46-8.35h2.07a1.12,1.12,0,0,1,.77.3,1.81,1.81,0,0,1,.41,1.42A11.63,11.63,0,0,1,112.55,200.36Z" class="cls-8"/><path d="M135.7,189.87a.23.23,0,0,0-.22-.29h-1.63l-2.1,7.19a4.07,4.07,0,0,0-.13.68,2.28,2.28,0,0,0,2.45,2.54c1.52,0,2.84-1,3.49-3.14l2.05-7a.2.2,0,0,0-.2-.26h-1.66l-2.15,7.36c-.28,1-.69,1.35-1.26,1.35a.76.76,0,0,1-.8-.9c0-.14.06-.34.08-.45Z" class="cls-8"/><path d="M126.42,189.58l-2.94,9.94a.22.22,0,0,0,.21.28h2.43c3.88,0,5.23-4.86,5.35-6.9.14-2.25-1.11-3.33-2.47-3.33Zm3,3.36c-.07,1.22-1,5.17-2.87,5.17H126l2-6.83h.55C129.05,191.28,129.51,191.75,129.44,192.94Z" class="cls-8"/><path d="M159.34,189.31a4,4,0,0,0-3.91,3.19,3.39,3.39,0,0,0,1.14,2.76c.44.51.8,1,.71,1.52a1.51,1.51,0,0,1-1.46,1.29,2.4,2.4,0,0,1-1.34-.24.31.31,0,0,0-.45.19l-.44,1.51a5.41,5.41,0,0,0,2,.37,4.07,4.07,0,0,0,4-3.33,3.53,3.53,0,0,0-1.14-2.83c-.42-.5-.78-1-.69-1.49a1.43,1.43,0,0,1,1.33-1.22,2.41,2.41,0,0,1,1.12.2.32.32,0,0,0,.44-.19l.41-1.38A4.4,4.4,0,0,0,159.34,189.31Z" class="cls-8"/><path d="M152.55,198.11h-2.34l.79-2.66h2.07l.42-1.42a.22.22,0,0,0-.21-.28H151.5l.73-2.47h2.63l.41-1.43a.22.22,0,0,0-.21-.28h-4.33l-2.93,10a.22.22,0,0,0,.21.28h4.33l.42-1.42A.22.22,0,0,0,152.55,198.11Z" class="cls-8"/><path d="M166.63,191.28l.4-1.4a.24.24,0,0,0-.23-.3h-4.89l-.39,1.4a.23.23,0,0,0,.22.3H163l-2.41,8.23a.24.24,0,0,0,.23.3h1.68l2.5-8.53Z" class="cls-8"/><path d="M168.26,200c3.1,0,4.7-5,4.87-7.3.13-1.81-.57-3.28-2.41-3.28-3.1,0-4.71,5-4.88,7.33C165.71,198.55,166.42,200,168.26,200Zm-.44-3.2c.11-1.61,1.24-5.66,2.65-5.66.58,0,.75.61.69,1.52-.12,1.59-1.27,5.63-2.67,5.63C167.91,198.28,167.75,197.68,167.82,196.79Z" class="cls-8"/><path d="M148.73,192.17a2.25,2.25,0,0,0-2.25-2.59h-2.55L141,199.52a.23.23,0,0,0,.22.29h1.63l1.1-3.76h.69v3.53a.22.22,0,0,0,.22.23h1.79l-.18-4.11A4.23,4.23,0,0,0,148.73,192.17Zm-2,.18c-.07,1-.67,2-1.62,2h-.61l.91-3.07h.54C146.41,191.28,146.74,191.6,146.69,192.35Z" class="cls-8"/><path d="M159.54,203.9h-2l-5,9.9a.22.22,0,0,0,.2.33h1.56l.86-1.89h2.12l-.21,1.63a.23.23,0,0,0,.23.26h1.58l.83-10A.23.23,0,0,0,159.54,203.9Zm-1.94,6.64H156l2.25-4.88Z" class="cls-8"/><path d="M158.29,203.1h1.05l-.41-1.79a.3.3,0,0,0-.28-.22h-1.5l.89,1.85A.26.26,0,0,0,158.29,203.1Z" class="cls-8"/><path d="M185.29,206.82a3.43,3.43,0,0,0,1.15,2.76c.44.51.8.95.71,1.52a1.51,1.51,0,0,1-1.46,1.29,2.42,2.42,0,0,1-1.35-.24.31.31,0,0,0-.45.19l-.44,1.51a5.43,5.43,0,0,0,2,.37,4.07,4.07,0,0,0,4-3.33,3.56,3.56,0,0,0-1.14-2.83c-.43-.5-.78-.95-.7-1.49a1.45,1.45,0,0,1,1.34-1.22,2.43,2.43,0,0,1,1.12.2.33.33,0,0,0,.44-.19l.4-1.38a4.32,4.32,0,0,0-1.67-.35A4,4,0,0,0,185.29,206.82Z" class="cls-8"/><path d="M170.63,203.9H169L165.69,211l.71-6.89a.22.22,0,0,0-.22-.25h-1.69l-.84,10a.22.22,0,0,0,.22.24h2l5-9.9A.22.22,0,0,0,170.63,203.9Z" class="cls-8"/><path d="M174.47,203.73c-3.1,0-4.71,5-4.88,7.33-.13,1.81.57,3.25,2.42,3.25,3.09,0,4.7-4.95,4.87-7.3C177,205.2,176.31,203.73,174.47,203.73Zm.43,3.23c-.11,1.6-1.27,5.63-2.66,5.63-.58,0-.74-.59-.68-1.48.12-1.61,1.25-5.66,2.66-5.66C174.8,205.45,175,206.06,174.9,207Z" class="cls-8"/><path d="M184.7,203.9H183l-2.15,7.36c-.28,1-.69,1.35-1.26,1.35a.77.77,0,0,1-.8-.91c0-.13.06-.33.08-.44l2.08-7.07a.23.23,0,0,0-.22-.29h-1.63l-2.1,7.19a4.07,4.07,0,0,0-.13.68,2.28,2.28,0,0,0,2.46,2.54c1.51,0,2.83-.95,3.48-3.14l2.05-7A.2.2,0,0,0,184.7,203.9Z" class="cls-8"/><path d="M136.94,205.36l.41-1.38a4.34,4.34,0,0,0-1.68-.35,4,4,0,0,0-3.91,3.19,3.41,3.41,0,0,0,1.15,2.76c.44.51.79.95.7,1.52a1.5,1.5,0,0,1-1.45,1.29,2.42,2.42,0,0,1-1.35-.24.31.31,0,0,0-.45.19l-.44,1.51a5.41,5.41,0,0,0,2,.37,4.07,4.07,0,0,0,4-3.33,3.52,3.52,0,0,0-1.13-2.83c-.43-.5-.79-.95-.7-1.49a1.43,1.43,0,0,1,1.34-1.22,2.46,2.46,0,0,1,1.12.2A.31.31,0,0,0,136.94,205.36Z" class="cls-8"/><path d="M151.87,203.9h-1.66l-2.15,7.36c-.29,1-.7,1.35-1.26,1.35a.76.76,0,0,1-.8-.91c0-.13.06-.33.08-.44l2.08-7.07a.23.23,0,0,0-.22-.29h-1.63l-2.1,7.19a3.26,3.26,0,0,0-.13.68,2.28,2.28,0,0,0,2.45,2.54c1.52,0,2.83-.95,3.49-3.14l2-7A.2.2,0,0,0,151.87,203.9Z" class="cls-8"/><path d="M153.26,206.55a.29.29,0,0,0,0,.42l.37.41a3.82,3.82,0,0,0,1.79-2.61,1,1,0,0,0-1-1.15,1.38,1.38,0,0,0-1.33,1.22.77.77,0,0,0,.79.9H154A2.58,2.58,0,0,1,153.26,206.55Z" class="cls-8"/><path d="M131.21,203.9h-1.66l-2.15,7.36c-.29,1-.69,1.35-1.26,1.35a.77.77,0,0,1-.8-.91c0-.13.06-.33.08-.44l2.08-7.07a.23.23,0,0,0-.22-.29h-1.63l-2.1,7.19a4.07,4.07,0,0,0-.13.68,2.28,2.28,0,0,0,2.45,2.54c1.52,0,2.84-.95,3.49-3.14l2-7A.2.2,0,0,0,131.21,203.9Z" class="cls-8"/><path d="M123.81,203.9h-1.62L120,211.47c-.23.79-.65,1.13-1.3,1.13a1.16,1.16,0,0,1-.73-.27.22.22,0,0,0-.34,0l-.74,1.27a2.5,2.5,0,0,0,1.85.66c1.65,0,2.6-.83,3.17-2.74l2.17-7.38A.23.23,0,0,0,123.81,203.9Z" class="cls-8"/><path d="M144.09,207c.13-1.81-.58-3.28-2.42-3.28-3.1,0-4.7,5-4.87,7.33-.14,1.81.57,3.25,2.41,3.25a2.56,2.56,0,0,0,.39,0v.14a.27.27,0,0,0,.27.25h1.18l-.09-.95C142.92,212.34,144,208.86,144.09,207Zm-3.33,4.42-.06-.65a.27.27,0,0,0-.26-.25h-1.17l.18,2.06h0c-.58,0-.73-.59-.67-1.48.12-1.61,1.24-5.67,2.66-5.67.58,0,.75.62.68,1.52A12.73,12.73,0,0,1,140.76,211.43Z" class="cls-8"/><polygon points="193.4 204.91 192.98 204.02 192.69 204.02 192.69 205.44 192.95 205.44 192.95 204.52 193.32 205.28 193.51 205.28 193.87 204.52 193.87 205.44 194.14 205.44 194.14 204.02 193.82 204.02 193.4 204.91" class="cls-8"/><path d="M195,204.23a.33.33,0,0,1,.35.24l.23-.11A.55.55,0,0,0,195,204a.53.53,0,0,0-.6.6v.29a.54.54,0,0,0,.6.61.53.53,0,0,0,.58-.42l-.23-.08a.36.36,0,0,1-.35.26.31.31,0,0,1-.34-.34v-.32A.31.31,0,0,1,195,204.23Z" class="cls-8"/><path d="M65.3,183.63h3.57a.18.18,0,0,0,.18-.16l.13-1a.13.13,0,0,0-.13-.16H66.82l.82-5.82a.13.13,0,0,0-.14-.16H66.32a.18.18,0,0,0-.18.16l-1,7A.13.13,0,0,0,65.3,183.63Z" class="cls-9"/><path d="M72.55,176.8a.8.8,0,0,0-1.59,0,.8.8,0,1,0,1.59,0Z" class="cls-9"/><path d="M70.25,183.63h1.13a.17.17,0,0,0,.17-.16l.67-4.8a.13.13,0,0,0-.13-.16H71a.19.19,0,0,0-.19.16l-.67,4.8C70.08,183.57,70.15,183.63,70.25,183.63Z" class="cls-9"/><path d="M77.26,178.51a.22.22,0,0,0-.2.13L75.38,182l-.72-3.33a.18.18,0,0,0-.18-.13H73.33c-.12,0-.18.07-.15.18l1.24,4.82a.16.16,0,0,0,.17.12h1.16a.21.21,0,0,0,.2-.12l2.57-4.82c.06-.11,0-.18-.1-.18Z" class="cls-9"/><path d="M80.71,178.51H79.63a.18.18,0,0,0-.18.16l-.67,4.8a.13.13,0,0,0,.14.16h1.14a.17.17,0,0,0,.17-.16l.36-2.56c.1-.77.49-1.22,1.2-1.22a1.12,1.12,0,0,1,.4.06c.15,0,.23,0,.25-.13l.12-.9a.21.21,0,0,0-.07-.21.76.76,0,0,0-.47-.12,1.37,1.37,0,0,0-1.22,1l0-.68A.13.13,0,0,0,80.71,178.51Z" class="cls-9"/><path d="M86.29,177.81a.21.21,0,0,0,.2-.12l.81-1.19c.07-.1,0-.18-.07-.18h-1a.21.21,0,0,0-.2.13l-.81,1.19a.1.1,0,0,0,.09.17Z" class="cls-9"/><path d="M87.84,180.84a2,2,0,0,0-2.11-2.45,3,3,0,0,0-3,3,2.27,2.27,0,0,0,2.45,2.35,2.74,2.74,0,0,0,1.84-.65c.12-.08.13-.15,0-.27l-.27-.45c-.07-.12-.13-.14-.24-.09a2.43,2.43,0,0,1-1.14.3c-.78,0-1.23-.35-1.3-1h3.1C87.59,181.62,87.76,181.34,87.84,180.84Zm-3.62-.24a1.33,1.33,0,0,1,1.34-1,.91.91,0,0,1,1,1Z" class="cls-9"/><path d="M93.6,180.84a2,2,0,0,0-2.11-2.45,3,3,0,0,0-3,3A2.27,2.27,0,0,0,91,183.76a2.74,2.74,0,0,0,1.84-.65c.11-.08.12-.15,0-.27l-.27-.45c-.07-.12-.14-.14-.24-.09a2.43,2.43,0,0,1-1.14.3c-.78,0-1.23-.35-1.31-1H93C93.35,181.62,93.53,181.34,93.6,180.84ZM90,180.6a1.33,1.33,0,0,1,1.34-1,.91.91,0,0,1,1,1Z" class="cls-9"/><path d="M98.13,178.51h-1a.18.18,0,0,0-.18.16l-1,6.79a.14.14,0,0,0,.14.16h1.14a.18.18,0,0,0,.18-.16l.34-2.47a1.68,1.68,0,0,0,1.53.77,2.87,2.87,0,0,0,2.76-3.07,2,2,0,0,0-2.08-2.3,2.16,2.16,0,0,0-1.76.83l.05-.55A.13.13,0,0,0,98.13,178.51Zm1.36,1.19a1.08,1.08,0,0,1,1.14,1.18,1.48,1.48,0,0,1-1.49,1.56A1.1,1.1,0,0,1,98,181.07,1.51,1.51,0,0,1,99.49,179.7Z" class="cls-9"/><path d="M106.67,183.63h1a.18.18,0,0,0,.19-.16l.67-4.8a.13.13,0,0,0-.14-.16h-1a.19.19,0,0,0-.18.16l-.1.57a1.65,1.65,0,0,0-1.58-.85,2.92,2.92,0,0,0-2.79,3.1,2,2,0,0,0,2.08,2.27,2.21,2.21,0,0,0,1.77-.83l0,.54A.13.13,0,0,0,106.67,183.63Zm-1.38-1.19a1.08,1.08,0,0,1-1.14-1.17,1.52,1.52,0,0,1,1.51-1.57,1.09,1.09,0,0,1,1.11,1.37A1.47,1.47,0,0,1,105.29,182.44Z" class="cls-9"/><path d="M111.05,178.51H110a.18.18,0,0,0-.18.16l-.66,4.8a.12.12,0,0,0,.13.16h1.14a.18.18,0,0,0,.18-.16l.35-2.56c.11-.77.49-1.22,1.2-1.22a1.09,1.09,0,0,1,.4.06c.16,0,.23,0,.25-.13l.13-.9a.2.2,0,0,0-.08-.21.76.76,0,0,0-.47-.12,1.38,1.38,0,0,0-1.22,1l.05-.68A.13.13,0,0,0,111.05,178.51Z" class="cls-9"/><path d="M272.77,136.53c0-5.11-3.51-8.09-9.48-8.09H250.94v15.87h13.53C268.51,144.31,272.77,141.75,272.77,136.53Z" class="cls-1"/><path d="M546.88,52.64H546v6.5h.92c2.41,0,3-1.19,3-3.25S549.29,52.64,546.88,52.64Z" class="cls-1"/><polygon points="391.69 62.27 391.56 62.27 386.77 78.43 396.48 78.43 391.69 62.27" class="cls-1"/><polygon points="560.85 69.49 560.81 69.49 559.4 74.24 562.26 74.24 560.85 69.49" class="cls-1"/><polygon points="532.62 132.91 524.31 160.92 541.14 160.92 532.83 132.91 532.62 132.91" class="cls-1"/><path d="M250.94,162.84h12.25c18.74,0,33.44-5.75,33.44-26.41s-14.7-26.52-33.44-26.52H241c-9.48,0-13.95,4.37-13.95,14.59v50.69c0,8.2,4.26,12.78,11.92,12.78s11.93-4.58,11.93-12.78Zm0-34.4h12.35c6,0,9.48,3,9.48,8.09s-4.26,7.78-8.3,7.78H250.94Z" class="cls-7"/><path d="M321.87,188c7.56,0,12.24-5,12.24-13.2v-53c0-8.2-4.68-13.2-12.24-13.2s-12.25,5-12.25,13.2v53C309.62,183,314.31,188,321.87,188Z" class="cls-7"/><path d="M417.07,177c0-6.28-3.83-9.58-11.18-9.58H378.2L411,131c3.73-4.16,4.9-6.82,4.9-10.33,0-6-3.41-10.76-11.18-10.76H358.5c-8,0-11.71,3.84-11.71,9.59s3.72,9.58,11.71,9.58h23.85l-30.66,34.08c-5.33,5.86-6.82,8.62-6.82,12.67,0,6,3.73,10.76,12,10.76h49C413.24,186.59,417.07,183.28,417.07,177Z" class="cls-7"/><path d="M494,177c0-6.28-3.83-9.58-11.18-9.58H455.09L487.89,131c3.73-4.16,4.9-6.82,4.9-10.33,0-6-3.41-10.76-11.18-10.76H435.39c-8,0-11.72,3.84-11.72,9.59s3.73,9.58,11.72,9.58h23.85l-30.67,34.08c-5.32,5.86-6.81,8.62-6.81,12.67,0,6,3.73,10.76,12,10.76h49C490.13,186.59,494,183.28,494,177Z" class="cls-7"/><path d="M564.56,163.8l-16.29-45.37c-2.34-6.39-5.54-9.9-11.71-9.9h-7.67c-6.18,0-9.37,3.51-11.71,9.9l-16.3,45.37c-1.81,5.11-3.83,10.75-3.83,14.27,0,5.75,5.64,9.9,11.18,9.9,3.83,0,8.63-1.7,9.9-6.07l1.71-5.64h25.77l1.7,5.64c1.28,4.37,6.07,6.07,9.91,6.07,5.53,0,11.18-4.15,11.18-9.9C568.4,174.55,566.37,168.91,564.56,163.8Zm-40.25-2.88,8.31-28h.21l8.31,28Z" class="cls-7"/><path d="M238,74.69l9.41,2.7c2.58.74,3.87,1.47,3.87,3.26,0,2.7-2.58,3.68-5.47,3.68-6.95,0-7.56-6.45-12.6-6.45a5.64,5.64,0,0,0-6,5.78c0,4,4.55,10.63,19.42,10.63C256,94.29,265,89.74,265,79.23c0-7.68-5.1-11.12-12.53-13.15l-7.32-2c-3-.79-4.73-1.65-4.73-3.62s2.21-3,4.61-3c7,0,7.07,5.41,11.8,5.41,3.5,0,6.15-2.15,6.15-5.6,0-7.43-10.57-9.4-18.75-9.4C232,48,227,54.9,227,62.27,227,68.48,230.91,72.66,238,74.69Z" class="cls-7"/><path d="M303.8,59.32c4.24,0,6.14-2.09,6.14-5.16S308,49,303.8,49H281.3c-5.47,0-8.05,2.52-8.05,8.42V84.83c0,5.9,2.58,8.42,8.05,8.42h23.17c4.24,0,6.15-2.09,6.15-5.17s-1.91-5.16-6.15-5.16H287.39V75.85h13.15c4.24,0,6.15-2.09,6.15-5.16s-1.91-5.16-6.15-5.16H287.39V59.32Z" class="cls-7"/><path d="M347.19,90.11l6.39-23.91h.12V87.71C353.7,92,356.22,94,360,94s6.33-2.09,6.33-6.33V55.88c0-4.55-2.52-7.68-7.37-7.68h-4c-4.48,0-6.33,1.53-7.49,5.9L341.66,76h-.13L335.7,54.1c-1.17-4.37-3-5.9-7.5-5.9h-4c-4.85,0-7.37,3.13-7.37,7.68V87.71c0,4.24,2.52,6.33,6.33,6.33s6.33-2.09,6.33-6.33V66.2h.12L336,90.11c.8,3,2.22,3.93,5.6,3.93S346.39,93.12,347.19,90.11Z" class="cls-7"/><path d="M383.21,90.54l1-3.26h14.87l1,3.26c.73,2.52,3.5,3.5,5.71,3.5,3.2,0,6.45-2.39,6.45-5.71,0-2-1.16-5.29-2.21-8.24l-9.4-26.18c-1.35-3.68-3.2-5.71-6.76-5.71h-4.43c-3.56,0-5.4,2-6.76,5.71l-9.4,26.18c-1,3-2.21,6.21-2.21,8.24,0,3.32,3.26,5.71,6.45,5.71C379.7,94,382.47,93.06,383.21,90.54Zm8.36-28.27h.12l4.79,16.16h-9.71Z" class="cls-7"/><path d="M431.64,86.42V55.82c0-4.73-2.71-7.62-7.07-7.62s-7.07,2.89-7.07,7.62v30.6c0,4.74,2.71,7.62,7.07,7.62S431.64,91.16,431.64,86.42Z" class="cls-7"/><path d="M454.81,86.92V69.46h.12l11.74,19.3c2.7,4.49,4.73,5.53,8.48,5.53,4.49,0,8-1.91,8-6.76V55c0-4.12-2.58-7.07-6.88-7.07s-6.89,2.95-6.89,7.07v18.5h-.12L456.84,52.25a8.23,8.23,0,0,0-7.68-4.3c-5.35,0-8.12,2.77-8.12,7.56V86.92c0,4.73,2.46,7.37,6.89,7.37S454.81,91.65,454.81,86.92Z" class="cls-7"/><path d="M500.78,93.25H524c4.24,0,6.15-2.09,6.15-5.17s-1.91-5.16-6.15-5.16H506.87V75.85H520c4.24,0,6.15-2.09,6.15-5.16s-1.91-5.16-6.15-5.16H506.87V59.32h16.41c4.24,0,6.14-2.09,6.14-5.16S527.52,49,523.28,49h-22.5c-5.47,0-8,2.52-8,8.42V84.83C492.73,90.73,495.31,93.25,500.78,93.25Z" class="cls-7"/><path d="M547.8,49.39h-3.52c-1.61,0-2.37.74-2.37,2.47v8.06c0,1.73.76,2.48,2.37,2.48h3.52c4.32,0,6.24-2.9,6.24-6.51S552.12,49.39,547.8,49.39Zm-.92,9.75H546v-6.5h.92c2.41,0,3,1.19,3,3.25S549.29,59.14,546.88,59.14Z" class="cls-7"/><path d="M565.48,52.42c1.24,0,1.8-.61,1.8-1.52s-.56-1.51-1.8-1.51h-6.62c-1.6,0-2.36.74-2.36,2.47v8.06c0,1.73.76,2.48,2.36,2.48h6.82c1.24,0,1.8-.62,1.8-1.52s-.56-1.52-1.8-1.52h-5V57.28h3.87c1.25,0,1.81-.61,1.81-1.52s-.56-1.51-1.81-1.51h-3.87V52.42Z" class="cls-7"/><path d="M545.28,65.35a2,2,0,0,0-2.08,2.24v8.53c0,1.74.76,2.48,2.37,2.48h6.14a1.68,1.68,0,1,0,0-3.36h-4.36V67.59A2,2,0,0,0,545.28,65.35Z" class="cls-7"/><path d="M554.78,77.15a1.83,1.83,0,0,0,1.9,1.68,1.67,1.67,0,0,0,1.68-1l.29-1H563l.29,1a1.67,1.67,0,0,0,1.68,1,1.82,1.82,0,0,0,1.89-1.68,9.07,9.07,0,0,0-.65-2.42L563.47,67c-.4-1.08-.94-1.68-2-1.68h-1.3c-1,0-1.59.6-2,1.68l-2.76,7.7A9.07,9.07,0,0,0,554.78,77.15Zm6-7.66h0l1.41,4.75H559.4Z" class="cls-7"/><path d="M545.17,92.89h18.74a4.43,4.43,0,1,0,0-8.86H545.17a4.43,4.43,0,1,0,0,8.86Z" class="cls-3"/></g></g></svg>