<svg xmlns="http://www.w3.org/2000/svg" viewBox="0 0 520.74 760.27"><defs><style>.cls-1{fill:none}.cls-2{fill:#261c1f}.cls-3{fill:#f59745}.cls-4{fill:#eb422e}.cls-5{fill:#4a9343}.cls-6{fill:#f4b88c}.cls-7{fill:#fd8000}.cls-8{fill:#cf3339}.cls-9{fill:#fff}</style></defs><g id="Layer_2" data-name="Layer 2"><g id="with_sponsors" data-name="with sponsors"><path d="M222.61,676a2.37,2.37,0,0,0-1.61.58,2.53,2.53,0,0,0-.79,1.61H225a2.05,2.05,0,0,0-.71-1.59A2.55,2.55,0,0,0,222.61,676Z" class="cls-1"/><path d="M213.69,677.88a4.31,4.31,0,0,0-1.1-3.13,4.16,4.16,0,0,0-3.12-1.13h-1.82v8.46h1.82a3.83,3.83,0,0,0,4.22-4.2Z" class="cls-1"/><path d="M162.34,178.57c20.18-1.21,43.92-14.1,48.17-35.6,2.75-13.94-3.07-30.14-15.56-43.34-10.8-11.4-25.14-19.71-38.6-26.92-27.85,24.71-49.25,52.2-64.82,83.36C113,166.63,141.81,179.8,162.34,178.57Zm-.93-18.15c-9.07,2.66-18-.65-20-7.4s3.77-14.39,12.83-17.05,18,.66,20,7.41S170.48,157.76,161.41,160.42Zm-4.76-71.8c10.38,4.71,27.29,13.07,36.71,35,4.48,10.43-.46,21.89-10.18,30a21.88,21.88,0,0,0,1.69-16.09c-3.8-13-19.52-19.77-35.11-15.2s-25.14,18.8-21.34,31.76a21,21,0,0,0,4.63,8.18c-10.52-2.35-20.06-6.49-25.87-11.95C127,123.1,142,103.25,156.65,88.62Z" class="cls-1"/><path d="M300.57,680.78a2.62,2.62,0,0,0,3.64,1,2.78,2.78,0,0,0,1-1,3.27,3.27,0,0,0,.37-1.61,3.17,3.17,0,0,0-.37-1.59,2.56,2.56,0,0,0-1-1,2.7,2.7,0,0,0-1.33-.35,2.57,2.57,0,0,0-1.32.36,2.62,2.62,0,0,0-1,1,3.22,3.22,0,0,0-.37,1.59A3.26,3.26,0,0,0,300.57,680.78Z" class="cls-1"/><path d="M255.13,676a2.37,2.37,0,0,0-1.61.58,2.59,2.59,0,0,0-.8,1.61h4.83a2,2,0,0,0-.72-1.59A2.51,2.51,0,0,0,255.13,676Z" class="cls-1"/><path d="M319.94,744.57c5.08,0,7.62-10.72,7.82-14.06S326.7,726,325.23,726h-1.52l-5.45,18.57Z" class="cls-1"/><path d="M300.83,722.36a22.35,22.35,0,0,0,2-7.34,3.47,3.47,0,0,0-.8-2.75,2,2,0,0,0-1.49-.59l-4,0L291.68,728l3.06,0C298.26,727.57,299.5,725.34,300.83,722.36Z" class="cls-1"/><path d="M273.86,676a2.35,2.35,0,0,0-1.6.58,2.54,2.54,0,0,0-.8,1.61h4.83a2.09,2.09,0,0,0-.72-1.59A2.53,2.53,0,0,0,273.86,676Z" class="cls-1"/><path d="M304.82,29.4a1.85,1.85,0,0,0-1.29-.94,2.35,2.35,0,0,0-1.64.35,2.28,2.28,0,0,0-1,1.23,2.3,2.3,0,0,0,.11,1.68Z" class="cls-1"/><path d="M454.32,289a33.41,33.41,0,0,1-.64,3.39,42.86,42.86,0,0,1-13.2,21.62h41.23c-6.66-6-13.28-12.07-19.8-18.05Q458.09,292.47,454.32,289Z" class="cls-1"/><path d="M502.27,52.48a2.42,2.42,0,0,0,.79.58,2.52,2.52,0,0,0,1.05.21,2.45,2.45,0,0,0,1-.19,2.32,2.32,0,0,0,.79-.56,2.57,2.57,0,0,0,.54-.85,3.17,3.17,0,0,0,.19-1.1,3.24,3.24,0,0,0-.19-1.09,2.57,2.57,0,0,0-.54-.85,2.32,2.32,0,0,0-.79-.56,2.45,2.45,0,0,0-1-.19,2.53,2.53,0,0,0-1,.19,2.36,2.36,0,0,0-.8.56,2.55,2.55,0,0,0-.53.85,3,3,0,0,0-.19,1.09,3,3,0,0,0,.17,1A2.63,2.63,0,0,0,502.27,52.48Zm.6-3.65h1.37a1.68,1.68,0,0,1,1,.24.94.94,0,0,1,.33.8.88.88,0,0,1-.27.71,1.12,1.12,0,0,1-.67.27l1,1.59H505L504,50.9h-.56v1.54h-.59Z" class="cls-1"/><path d="M504.45,50.38a.53.53,0,0,0,.26-.08.44.44,0,0,0,.19-.17.62.62,0,0,0,.07-.31.42.42,0,0,0-.08-.26.58.58,0,0,0-.19-.15.92.92,0,0,0-.25-.06l-.27,0h-.72v1.06h1Z" class="cls-1"/><path d="M394,12.66a2.47,2.47,0,0,0,1.84-.77,3,3,0,0,0,.78-2.13,2.85,2.85,0,0,0-.73-2.12,2.55,2.55,0,0,0-3.66,0,2.92,2.92,0,0,0-.76,2.12,2.93,2.93,0,0,0,.72,2.13A2.42,2.42,0,0,0,394,12.66Z" class="cls-1"/><path d="M372.88,12.68a2.44,2.44,0,0,0,1.88.65,2.47,2.47,0,0,0,1.75-.92,3,3,0,0,0,.58-2.18,2.93,2.93,0,0,0-.92-2.06,2.52,2.52,0,0,0-3.62.28,2.88,2.88,0,0,0-.58,2.16A3,3,0,0,0,372.88,12.68Z" class="cls-1"/><path d="M362.34,9.15a2.53,2.53,0,0,0-3.08.43,2.42,2.42,0,0,0-.54,1.59l4.46-.66A1.87,1.87,0,0,0,362.34,9.15Z" class="cls-1"/><path d="M327.85,18.93a1.82,1.82,0,0,0-1.1-1.16,2.3,2.3,0,0,0-1.67,0,2.33,2.33,0,0,0-1.25,1,2.38,2.38,0,0,0-.2,1.67Z" class="cls-1"/><path d="M495.74,52.16a1.71,1.71,0,0,0,.32-.71,4.83,4.83,0,0,0,0-1.75,1.71,1.71,0,0,0-.32-.71,1.49,1.49,0,0,0-.64-.47,2.75,2.75,0,0,0-1-.17H493V52.8h1.07a2.75,2.75,0,0,0,1-.17A1.49,1.49,0,0,0,495.74,52.16Z" class="cls-1"/><path d="M284.38,40.49a1.83,1.83,0,0,0-1.31-.63,2.11,2.11,0,0,0-1.44.72l-1.41,1.36,2.57,2.66,1.41-1.36a2.1,2.1,0,0,0,.76-1.41A1.8,1.8,0,0,0,284.38,40.49Z" class="cls-1"/><polygon points="479.97 432.54 470.51 464.45 489.68 464.45 480.21 432.54 479.97 432.54" class="cls-1"/><path d="M76.32,445.9c0,2.3,2.22,3.78,4.67,3.78,4.29,0,7.26-2.67,7.26-5.56v-4.37c-2.15,2.3-7.12,1.85-9.86,3A3.19,3.19,0,0,0,76.32,445.9Z" class="cls-1"/><path d="M173.15,427.45H159.08v18.07h15.41c4.61,0,9.46-2.91,9.46-8.85S180,427.45,173.15,427.45Z" class="cls-1"/><path d="M286.8,676.55a2.64,2.64,0,0,0-1.34-.36,2.58,2.58,0,0,0-2.3,1.37,3.17,3.17,0,0,0-.38,1.59,3.29,3.29,0,0,0,.38,1.6,2.74,2.74,0,0,0,1,1.06,2.56,2.56,0,0,0,1.31.36,2.64,2.64,0,0,0,1.34-.36,2.5,2.5,0,0,0,1-1,3.25,3.25,0,0,0,.37-1.61,3.21,3.21,0,0,0-.37-1.6A2.52,2.52,0,0,0,286.8,676.55Z" class="cls-1"/><path d="M173,406.34H147.79c-10.79,0-15.89,5-15.89,16.62v57.75c0,9.34,4.85,14.56,13.59,14.56s13.59-5.22,13.59-14.56V466.63H173c21.35,0,38.1-6.55,38.1-30.08S194.38,406.34,173,406.34Zm1.46,39.18H159.08V427.45h14.07c6.8,0,10.8,3.39,10.8,9.22S179.1,445.52,174.49,445.52Z" class="cls-2"/><path d="M253.83,480.22V419.8c0-9.34-5.34-15-14-15s-13.95,5.7-13.95,15v60.42c0,9.34,5.33,15,13.95,15S253.83,489.56,253.83,480.22Z" class="cls-2"/><path d="M266.08,481.44c0,6.79,4.25,12.25,13.71,12.25H335.6c8.37,0,12.74-3.76,12.74-10.92S344,471.85,335.6,471.85H304.06l37.36-41.49c4.25-4.73,5.59-7.77,5.59-11.77,0-6.79-3.89-12.25-12.74-12.25H281.61c-9.1,0-13.34,4.36-13.34,10.92s4.24,10.91,13.34,10.91h27.18L273.85,467C267.78,473.67,266.08,476.83,266.08,481.44Z" class="cls-2"/><path d="M435.93,482.77c0-7.16-4.36-10.92-12.74-10.92H391.65L429,430.36c4.24-4.73,5.58-7.77,5.58-11.77,0-6.79-3.88-12.25-12.74-12.25H369.21c-9.1,0-13.35,4.36-13.35,10.92s4.25,10.91,13.35,10.91h27.17L361.44,467c-6.07,6.67-7.76,9.83-7.76,14.44,0,6.79,4.24,12.25,13.71,12.25h55.8C431.57,493.69,435.93,489.93,435.93,482.77Z" class="cls-2"/><path d="M516.37,467.73,497.81,416c-2.67-7.28-6.31-11.28-13.35-11.28h-8.73c-7,0-10.68,4-13.35,11.28l-18.56,51.69c-2.06,5.82-4.37,12.25-4.37,16.25,0,6.56,6.43,11.29,12.74,11.29,4.37,0,9.83-1.94,11.28-6.92l1.94-6.43h29.36l1.94,6.43c1.46,5,6.92,6.92,11.29,6.92,6.31,0,12.74-4.73,12.74-11.29C520.74,480,518.43,473.55,516.37,467.73Zm-45.86-3.28L480,432.54h.24l9.47,31.91Z" class="cls-2"/><path d="M91,564.83l9.87,52.31c2,11,7,16.6,17.54,16.6h5.48c10.49,0,16.29-6,18.79-16.13l15.82-64.21c2.19-8.92,3.91-16,3.91-20.82,0-9.09-6.73-15.66-16.28-15.66-8.3,0-15.35,3.44-17.07,14.4l-9.87,61.39h-.31L109,534.3c-2-12.37-5.79-17.38-18.16-17.38s-16.13,5-18.17,17.38l-9.86,58.41h-.32l-9.86-61.39c-1.72-11-8.77-14.4-17.07-14.4-9.55,0-16.29,6.57-16.29,15.66,0,4.85,1.73,11.9,3.92,20.82l15.82,64.21c2.5,10.18,8.29,16.13,18.79,16.13h5.48c10.49,0,15.5-5.64,17.54-16.6l9.86-52.31Z" class="cls-2"/><path d="M179,540.41v69.84c0,15,6.58,21.45,20.52,21.45h59c10.81,0,15.66-5.32,15.66-13.15s-4.85-13.16-15.66-13.16H215.05v-18h33.51c10.8,0,15.66-5.32,15.66-13.15s-4.86-13.15-15.66-13.15H215.05V545.26h41.81c10.8,0,15.66-5.32,15.66-13.15S267.66,519,256.86,519H199.55C185.61,519,179,525.37,179,540.41Z" class="cls-2"/><path d="M371.63,605.39H328.1v-18h33.51c10.81,0,15.66-5.32,15.66-13.15s-4.85-13.15-15.66-13.15H328.1V545.26h41.81c10.81,0,15.66-5.32,15.66-13.15S380.72,519,369.91,519H312.6c-13.94,0-20.51,6.42-20.51,21.46v69.84c0,15,6.57,21.45,20.51,21.45h59c10.81,0,15.66-5.32,15.66-13.15S382.44,605.39,371.63,605.39Z" class="cls-2"/><path d="M478.11,563.74,495,545.1c4.7-4.85,6.89-7.83,6.89-13,0-6.74-6.26-15.19-16-15.19-5.95,0-9.39,3-16.44,10.65l-28.35,31V536.33c0-12.05-6.89-19.41-18-19.41s-18,7.36-18,19.41v78c0,12.06,6.89,19.42,18,19.42s18-7.36,18-19.42v-15.5l10.18-11.12,24.59,38c4.07,6.42,9.24,8,14.88,8,9.39,0,18.32-7.21,18.32-16.6,0-3.92-1.57-7.36-3.6-10.65Z" class="cls-2"/><path d="M22.67,402.85c-5.26,0-8.52,3.48-8.52,9.19v35c0,7.12,3.11,10.15,9.71,10.15H49.05c4.37,0,7.34-2.51,7.34-6.89s-3-6.89-7.34-6.89H31.19V412C31.19,406.33,27.93,402.85,22.67,402.85Z" class="cls-2"/><path d="M80.24,433.9c-15.19,1-19.63,5.78-19.63,12.22,0,8.53,6,12,14.45,12,5.26,0,10.67-1.71,13.63-6.15.52,3.48,2.45,6.15,7.71,6.15,3.63,0,7.11-1.63,7.11-5.41,0-1.85-.44-4.22-.44-6.89v-17c0-9.56-12.45-11.41-20.53-11.41-10.6,0-18.6,3.7-18.6,9.41,0,3,1.78,4.74,4.82,4.74,5.19,0,6.74-5.26,13.34-5.26,4.07,0,6.15,1.33,6.15,3.78S86,433.53,80.24,433.9Zm8,10.22c0,2.89-3,5.56-7.26,5.56-2.45,0-4.67-1.48-4.67-3.78a3.19,3.19,0,0,1,2.07-3.18c2.74-1.12,7.71-.67,9.86-3Z" class="cls-2"/><path d="M106.07,486.16A8.12,8.12,0,0,0,98,478.05H16.21a8.11,8.11,0,0,0,0,16.22H98A8.12,8.12,0,0,0,106.07,486.16Z" class="cls-3"/><path d="M61.79,176.7C46.88,216.91,39,263.92,37.09,324.63a9.56,9.56,0,0,0,9.25,9.86h.31a9.55,9.55,0,0,0,9.55-9.25c1.88-58.58,9.35-103.67,23.52-141.9q1.84-5,3.87-9.86c23.28,11.43,54.76,25.7,79.9,24.18a79.74,79.74,0,0,0,41.23-14.56c13.23-9.5,21.72-22.1,24.55-36.43,3.94-20-3.69-42.5-20.44-60.18C194.31,71.14,175,60.93,159.5,52.73a9.56,9.56,0,0,0-10.68,1.18C108,88.77,79.49,128.94,61.79,176.7Zm94.56-104c13.46,7.21,27.8,15.52,38.6,26.92,12.49,13.2,18.31,29.4,15.56,43.34-4.25,21.5-28,34.39-48.17,35.6-20.53,1.23-49.35-11.94-70.81-22.5C107.1,124.91,128.5,97.42,156.35,72.71Z" class="cls-4"/><path d="M102,202.56a9.57,9.57,0,0,0-11.52,7.08c-10,41.78-14.86,64.12-17.12,114.87a9.57,9.57,0,0,0,9.13,10h.43a9.55,9.55,0,0,0,9.54-9.13c2.19-49.12,6.68-69.61,16.63-111.28A9.56,9.56,0,0,0,102,202.56Z" class="cls-3"/><path d="M247.63,143.21c14.08,8.24,23.26,14.62,33,21.37,6.22,4.32,12.57,8.74,20.28,13.65A1112.31,1112.31,0,0,0,111.39,316.52a9.56,9.56,0,0,0,6.41,16.65H355.5a9.56,9.56,0,1,0,0-19.12H143A1098.09,1098.09,0,0,1,324.35,186.83a9.56,9.56,0,0,0,.14-16.58c-14.08-8.24-23.26-14.62-33-21.37S272,135.32,257.29,126.71a9.56,9.56,0,1,0-9.66,16.5Z" class="cls-5"/><path d="M265.59,296.44c10.93.11,22,.16,33.12.16,19.12,0,38.35-.14,57.18-.27,18-.12,35-.24,51.28-.24a9.56,9.56,0,1,0,0-19.12c-16.32,0-33.36.12-51.41.24-13.86.1-27.94.19-42,.24,16.32-6.28,33.3-12.52,49.21-18.36,15.52-5.69,30.17-11.07,41.43-15.5a9.56,9.56,0,0,0,2.26-16.52c-8.25-6.24-15.89-12.29-23.28-18.14-9.89-7.84-20.12-15.94-31.55-24.26a9.56,9.56,0,1,0-11.26,15.45c11.12,8.1,20.75,15.73,30.94,23.8,3.29,2.6,6.62,5.24,10.05,7.93-7.78,2.9-16.34,6.05-25.18,9.29-31.67,11.63-67.56,24.8-94.6,37a9.57,9.57,0,0,0,3.83,18.28Z" class="cls-3"/><path d="M435.58,247.26a87.7,87.7,0,0,0-7.29-5.53l-.05,0h0l-.18-.13-.3-.18-.43-.26-.42-.22-.44-.2-.45-.18-.43-.15-.48-.14-.42-.1c-.17,0-.34-.06-.51-.09l-.4-.06-.52,0-.4,0h-.53l-.38,0c-.18,0-.35,0-.53.06l-.39.06-.5.1-.39.1c-.17,0-.32.1-.48.15l-.4.14-.45.19-.39.18a4.77,4.77,0,0,0-.44.24l-.37.21-.41.28-.36.26-.38.32c-.11.1-.23.19-.34.3s-.23.24-.35.36l-.31.33c-.11.13-.21.26-.31.4a3.11,3.11,0,0,0-.23.28l-.06.1-.08.1c-.07.1-.12.21-.18.31s-.18.28-.26.42-.15.28-.22.42l-.21.44-.17.44-.16.45-.12.46c0,.14-.08.29-.11.44s-.06.32-.09.48-.05.28-.06.43,0,.33,0,.49,0,.28,0,.43,0,.33,0,.49,0,.28,0,.43a3.93,3.93,0,0,0,.06.48,3.18,3.18,0,0,0,.06.43,3.94,3.94,0,0,0,.1.47c0,.14.06.28.1.42s.09.31.14.46l.15.41c.06.15.12.3.19.45s.11.27.18.4.15.28.23.42l.22.38.28.42c.09.11.17.23.26.35s.21.26.33.39l.28.33.37.36.33.3.41.32c.09.07.17.15.27.22,1.8,1.29,3.72,2.75,5.72,4.32,9.91,8.37,14.36,17.76,12.27,26.39-3.14,13-20.49,23.28-44.2,26.18l-.35.06a4.71,4.71,0,0,0-.52.09l-.42.11-.49.13-.44.16-.43.17-.46.22-.37.19-.45.28-.33.21c-.15.1-.28.21-.42.31l-.32.25-.37.34-.31.29-.31.35-.3.35-.26.34-.28.41c-.08.11-.14.23-.21.34s-.18.3-.26.45l-.18.37c-.07.15-.15.31-.21.47l-.15.4c-.05.16-.11.31-.16.47l-.12.47c0,.14-.07.28-.1.43s-.06.36-.08.54,0,.26,0,.39,0,.38,0,.57,0,.22,0,.33,0,.05,0,.08,0,.33,0,.49,0,.34,0,.51v.08c0,.12.05.25.07.37a3.55,3.55,0,0,0,.08.47c0,.15.07.29.11.44s.07.3.12.44.14.42.22.62l.09.23q.18.42.39.81l.09.15c.12.21.24.42.38.62s.1.14.15.22.24.33.37.49.15.17.22.25.24.28.37.41l.27.25c.12.12.24.24.37.35l.32.25c.12.1.25.19.38.28l.35.24.39.24.38.2.42.2c.13.06.25.12.39.17l.46.17.37.13.56.14.31.07c.25,0,.49.09.74.12l.17,0c.31,0,.62.05.94.05H507.17a9.56,9.56,0,0,0,6.16-16.87c-12.75-10.76-25.83-22.77-38.48-34.39C460.62,268.85,447.05,256.38,435.58,247.26Zm4.9,66.79a42.86,42.86,0,0,0,13.2-21.62,33.41,33.41,0,0,0,.64-3.39q3.76,3.43,7.59,7c6.52,6,13.14,12.06,19.8,18.05Z" class="cls-4"/><path d="M133.05,162.29a21,21,0,0,1-4.63-8.18c-3.8-13,5.75-27.18,21.34-31.76s31.31,2.23,35.11,15.2a21.88,21.88,0,0,1-1.69,16.09c9.72-8.12,14.66-19.58,10.18-30-9.42-21.94-26.33-30.3-36.71-35C142,103.25,127,123.1,107.18,150.34,113,155.8,122.53,159.94,133.05,162.29Z" class="cls-6"/><path d="M154.23,136c-9.06,2.66-14.81,10.3-12.83,17.05s10.94,10.06,20,7.4,14.81-10.29,12.83-17S163.3,133.31,154.23,136Z" class="cls-4"/><path d="M215.32,275c-12.18,3.57-20.54,11.65-18.66,18s13.26,8.67,25.44,5.1,20.54-11.65,18.66-18S227.49,271.39,215.32,275Z" class="cls-4"/><path d="M182.51,209.1c-26.41,6.78-56,2.76-56,2.76l-16,80.41s76.74-64.58,162-121.92c-10.15-5.87-30.84-18.92-30.84-18.92S236.65,195.18,182.51,209.1Z" class="cls-6"/><path d="M9.36,335.7h.27a9.62,9.62,0,0,0,9.61-9.36C23.76,159.09,85.69,86.2,131.89,45.92a9.63,9.63,0,0,0-12.65-14.51C41.49,99.21,3.6,192.76,0,325.82A9.63,9.63,0,0,0,9.36,335.7Z" class="cls-3"/><path d="M317.49,203.61S253.67,249,236.65,265.77l108.43-44.61Z" class="cls-6"/><path d="M507.17,374.25a9.62,9.62,0,0,0,0-19.24H9.62a9.62,9.62,0,0,0,0,19.24Z" class="cls-3"/><path d="M168.06,680.17a125.36,125.36,0,0,0-12.7-9.15,5.19,5.19,0,0,0-5.75,0A125.83,125.83,0,0,0,108,714.19a2.55,2.55,0,0,0-.27.66,2.59,2.59,0,0,0,1.86,3.16c1.52.38,7.77,1,7.77,1a1.85,1.85,0,0,1,1.49,2,271.92,271.92,0,0,0,2.27,36.92c.47,2.51,2.49,2.37,2.49,2.37l12.22-.33c.8,0,.62-.89.62-.89-.49-3.72-1-15.29-1-15.29,0-.62-.73-1-.73-1-4.86-2.66-4.77-9.24-4.77-9.24-.14-6.4.83-28.18.83-28.18s0-.09,0-.14a1.41,1.41,0,0,1,1.58-1.21h.15a1.47,1.47,0,0,1,1.26,1.65c-.14,1.42-.74,19.63-.74,19.63.12,2.9,2.29,2.64,2.29,2.64,2.6.12,2.31-3.14,2.31-3.14-.2-6.72.83-19.44.83-19.44a.49.49,0,0,1,0-.12,1.45,1.45,0,0,1,1.65-1.2,1.42,1.42,0,0,1,1.31,1.43c-.59,6.58-.76,19.88-.76,19.88.11,3,2.49,2.59,2.49,2.59,2.45-.07,2.1-3.61,2.1-3.61-.2-5.45.83-19.13.83-19.13a.5.5,0,0,0,0-.12,1.37,1.37,0,0,1,1.65-1c1.47.22,1.34,1.34,1.34,1.34-.15,3.33-.73,24.07-.73,24.07a39.28,39.28,0,0,1-.09,6.19,9.56,9.56,0,0,1-4.42,7,1,1,0,0,0-.56.95c0,1.92.91,15.41,1.08,15.88s.91.39.91.39c1.79-.12,17.69,0,17.69,0,1.13,0,1.27-.32,1.27-.32a3.75,3.75,0,0,0,.26-1.28c.24-1.92,1.07-12.74,1.07-12.74.06-.88-.62-.88-.62-.88l-3.61-.48c-2.84-.23-3.4-1.27-3.4-1.27-.9-1.5-.7-7.4-.7-7.4a58.5,58.5,0,0,1,10.89-33.27c1.61-2.2,3.27-1.53,3.27-1.53,1.84.5,1.94,2.91,1.94,2.91,2.37,18.64-1.13,55.51-1.13,55.51-.11,1,.59.92.59.92,1.6,0,8.48.18,8.48.18,2.5.12,2.95-4.39,2.95-4.39,1.73-11.36,2.08-35,2.08-35a.09.09,0,0,0,0,0,1.66,1.66,0,0,1,1.51-1.81c.63-.16,7.33-.83,7.33-.83,3.67-.48,2-4,2-4-.9-2-8.19-12.24-8.19-12.24-3.61-4.23-4-6.72-4-6.72-.45-4.9-2.49-18.5-2.49-18.5a3.09,3.09,0,0,0-2.61-2.81c-3.17-.42-8.16-.67-8.16-.67a2.25,2.25,0,0,0-2.12,1.53c-.47,1.17-.28,5-.28,5C169.16,680.94,168.06,680.17,168.06,680.17Z" class="cls-7"/><path d="M208.92,739c-2.75.23-4.47-.54-6.63-1.49a1.91,1.91,0,0,0-1.24-.23,1.32,1.32,0,0,0-.88.87l-2.41,8.21-.3,1.05a25.2,25.2,0,0,0,10.17,2.39c8.07,0,15.06-3.1,19.2-10.58l-2.45,8.34a1.29,1.29,0,0,0,.2,1.11,1.28,1.28,0,0,0,1,.5h10.82l2.7-9.18,3.29-4.74,2.53,12.91a1.26,1.26,0,0,0,1.24,1H268.9l13.61-46.27a1.27,1.27,0,0,0-1.21-1.62H270.55L257.36,746l-5-21.72,15.33-20.93a1.25,1.25,0,0,0,.23-.46l.27-.92a.53.53,0,0,0-.52-.68H256.74L245,718.5l5-15.56a1.29,1.29,0,0,0-.2-1.11,1.26,1.26,0,0,0-1-.51H238l-9.36,31.79c.21-5.46-4-9.76-6.49-12.48-2-2.22-3.2-3.8-3-5.55a5,5,0,0,1,4.74-4.36c2.69-.21,3.85.61,5.56,1.42a1.57,1.57,0,0,0,.63.15,1.34,1.34,0,0,0,.52-.1,1.3,1.3,0,0,0,.76-.81l2.52-8.51-1.74-.81-.26-.12-.08,0h0a16,16,0,0,0-6.55-1.29c-9.48,0-18.1,6.79-19.52,15.13-1,5.84,2.75,10,5.48,13l.24.27c2,2.11,3.34,3.76,3,5.66C214,737.32,211.43,738.84,208.92,739Z" class="cls-7"/><path d="M284.48,703.87a.84.84,0,0,0,.1.69l.51.81a3.17,3.17,0,0,1,.36,2.63l-11.63,39.58a1.23,1.23,0,0,0,.19,1.11,1.26,1.26,0,0,0,1,.52h10.41l3.25-11,4.71,0c11.34.15,17.08-7.82,19.65-16.48a29.21,29.21,0,0,0,1.53-7.78c0-3.78-1-6.64-3.13-9a11.13,11.13,0,0,0-8.28-3.61h-17.9Zm12,7.79,4,0a2,2,0,0,1,1.49.59,3.47,3.47,0,0,1,.8,2.75,22.35,22.35,0,0,1-2,7.34c-1.33,3-2.57,5.21-6.09,5.61l-3.06,0Z" class="cls-7"/><path d="M311.54,748.42a.6.6,0,0,0,.57.76l6.61,0c10.55,0,14.22-13.24,14.56-18.78.36-6.1-3-9.06-6.74-9.06h-7ZM325.23,726c1.47,0,2.72,1.29,2.53,4.51s-2.74,14.06-7.82,14.06h-1.68L323.71,726Z" class="cls-7"/><path d="M334.9,702h-2.57L327.9,717.1a.36.36,0,0,0,.34.46h2.57l2-6.74h3.09L334,717.1a.35.35,0,0,0,.34.46h2.57l4.43-15.15A.36.36,0,0,0,341,702h-2.57l-1.83,6.3h-3.09l1.7-5.84A.36.36,0,0,0,334.9,702Z" class="cls-7"/><path d="M350.56,701.94H344l-.07.26-4.36,14.89a.36.36,0,0,0,.35.45h6.56s.62-2.11.63-2.13a.34.34,0,0,0-.34-.46h-3.54l1.2-4.05h3.22l.64-2.14a.37.37,0,0,0-.35-.46h-2.76l1.12-3.76h4l.62-2.14A.36.36,0,0,0,350.56,701.94Z" class="cls-7"/><path d="M321.1,717.54h2.56l3.82-13h2.43l.61-2.14a.37.37,0,0,0-.35-.46h-7.45l-.61,2.14a.37.37,0,0,0,.35.46h2l-3.67,12.55A.36.36,0,0,0,321.1,717.54Z" class="cls-7"/><path d="M344.53,721.37H339.9L332,748.45a.6.6,0,0,0,.57.76h4.63l7.94-27.08A.6.6,0,0,0,344.53,721.37Z" class="cls-7"/><path d="M370.86,721.37h-4.64l-8,27.08a.6.6,0,0,0,.57.76h4.63l3.51-12h5.51l-3.28,11.26a.6.6,0,0,0,.57.76h4.63l7.95-27.08a.59.59,0,0,0-.57-.76h-4.63l-3.28,11.23h-5.52l3.07-10.47A.6.6,0,0,0,370.86,721.37Z" class="cls-7"/><path d="M397.94,726l1.12-3.87a.6.6,0,0,0-.57-.76H386.71l-7.95,27.07a.6.6,0,0,0,.57.77H391.1l1.13-3.88a.6.6,0,0,0-.58-.76H385.3l2.16-7.22h5.6l1.16-3.87a.59.59,0,0,0-.57-.76H388.8l2-6.72Z" class="cls-7"/><path d="M346.1,729.59c-.54,3.33,1.59,5.72,3.11,7.51,1.21,1.38,2.17,2.59,1.93,4.14a4.14,4.14,0,0,1-4,3.51,6.67,6.67,0,0,1-3.66-.65.82.82,0,0,0-1.22.52l-1.2,4.1a14.93,14.93,0,0,0,5.34,1,11,11,0,0,0,10.88-9.05c.54-3.38-1.57-5.89-3.09-7.69-1.16-1.38-2.13-2.59-1.9-4.05a3.94,3.94,0,0,1,3.64-3.34,6.87,6.87,0,0,1,3,.55.89.89,0,0,0,1.2-.5c0-.08,1.1-3.76,1.1-3.76a11.74,11.74,0,0,0-4.55-1C351.84,720.91,346.9,724.58,346.1,729.59Z" class="cls-7"/><path d="M399.67,729.58c-.53,3.34,1.59,5.73,3.11,7.52,1.21,1.38,2.18,2.59,1.93,4.14a4.12,4.12,0,0,1-4,3.51,6.69,6.69,0,0,1-3.67-.65.82.82,0,0,0-1.21.52l-1.2,4.1a14.84,14.84,0,0,0,5.33,1,11,11,0,0,0,10.88-9.05c.54-3.38-1.56-5.89-3.09-7.69-1.16-1.38-2.12-2.59-1.89-4.05a3.93,3.93,0,0,1,3.63-3.34,6.94,6.94,0,0,1,3.05.55.88.88,0,0,0,1.19-.5c0-.08,1.11-3.76,1.11-3.76a11.82,11.82,0,0,0-4.56-1C405.41,720.91,400.47,724.58,399.67,729.58Z" class="cls-7"/><path d="M213.11,683.48a5.73,5.73,0,0,0,2.37-2.23,6.58,6.58,0,0,0,.84-3.37,6.69,6.69,0,0,0-.84-3.39,5.63,5.63,0,0,0-2.37-2.24,7.58,7.58,0,0,0-3.55-.79h-4.48v12.81h4.48A7.71,7.71,0,0,0,213.11,683.48Zm-5.46-1.4v-8.46h1.82a4.16,4.16,0,0,1,3.12,1.13,4.31,4.31,0,0,1,1.1,3.13,3.83,3.83,0,0,1-4.22,4.2Z" class="cls-7"/><path d="M227.69,679a5.36,5.36,0,0,0-.63-2.63,4.28,4.28,0,0,0-1.78-1.77,5.29,5.29,0,0,0-2.6-.63,5.37,5.37,0,0,0-2.66.65,4.47,4.47,0,0,0-1.8,1.83,5.87,5.87,0,0,0-.64,2.77,5.74,5.74,0,0,0,.65,2.76,4.67,4.67,0,0,0,1.82,1.84,5.34,5.34,0,0,0,2.63.65,4.88,4.88,0,0,0,3.07-.95,4.67,4.67,0,0,0,1.69-2.41h-2.77a2.11,2.11,0,0,1-2,1.23,2.4,2.4,0,0,1-1.67-.62,2.54,2.54,0,0,1-.77-1.73h7.43A5.9,5.9,0,0,0,227.69,679Zm-7.48-.73a2.53,2.53,0,0,1,.79-1.61,2.37,2.37,0,0,1,1.61-.58,2.55,2.55,0,0,1,1.71.6,2.05,2.05,0,0,1,.71,1.59Z" class="cls-7"/><rect width="2.57" height="13.58" x="229.56" y="670.69" class="cls-7"/><path d="M237.1,670.31a1.7,1.7,0,0,0-2.26,0,1.42,1.42,0,0,0-.45,1.07,1.44,1.44,0,0,0,.45,1.08,1.7,1.7,0,0,0,2.26,0,1.44,1.44,0,0,0,.45-1.08A1.42,1.42,0,0,0,237.1,670.31Z" class="cls-7"/><rect width="2.57" height="10.17" x="234.67" y="674.1" class="cls-7"/><polygon points="249.31 674.1 246.57 674.1 244.01 681.9 241.44 674.1 238.69 674.1 242.43 684.26 245.55 684.26 249.31 674.1" class="cls-7"/><path d="M260.21,679a5.36,5.36,0,0,0-.63-2.63,4.4,4.4,0,0,0-1.78-1.77,5.72,5.72,0,0,0-5.26,0,4.47,4.47,0,0,0-1.8,1.83,6.25,6.25,0,0,0,0,5.53,4.6,4.6,0,0,0,1.82,1.84,5.31,5.31,0,0,0,2.63.65,4.86,4.86,0,0,0,3.06-.95,4.56,4.56,0,0,0,1.69-2.41h-2.77a2.09,2.09,0,0,1-2,1.23,2.41,2.41,0,0,1-1.67-.62,2.53,2.53,0,0,1-.76-1.73h7.43A5.9,5.9,0,0,0,260.21,679Zm-7.49-.73a2.59,2.59,0,0,1,.8-1.61,2.37,2.37,0,0,1,1.61-.58,2.51,2.51,0,0,1,1.7.6,2,2,0,0,1,.72,1.59Z" class="cls-7"/><path d="M262.08,674.1v10.17h2.57V679.2a2.62,2.62,0,0,1,.62-2,2.58,2.58,0,0,1,1.82-.57h.68V674a3.61,3.61,0,0,0-1.83.46,3.65,3.65,0,0,0-1.29,1.27V674.1Z" class="cls-7"/><path d="M279,679a5.36,5.36,0,0,0-.64-2.63,4.28,4.28,0,0,0-1.78-1.77,5.28,5.28,0,0,0-2.59-.63,5.35,5.35,0,0,0-2.66.65,4.35,4.35,0,0,0-1.8,1.83,5.75,5.75,0,0,0-.65,2.77,5.63,5.63,0,0,0,.66,2.76,4.64,4.64,0,0,0,1.81,1.84,5.38,5.38,0,0,0,2.64.65,4.86,4.86,0,0,0,3.06-.95,4.61,4.61,0,0,0,1.69-2.41h-2.77a2.1,2.1,0,0,1-2,1.23,2.4,2.4,0,0,1-1.67-.62,2.54,2.54,0,0,1-.77-1.73h7.43A5.83,5.83,0,0,0,279,679Zm-7.49-.73a2.54,2.54,0,0,1,.8-1.61,2.35,2.35,0,0,1,1.6-.58,2.53,2.53,0,0,1,1.71.6,2.09,2.09,0,0,1,.72,1.59Z" class="cls-7"/><path d="M288.14,675.51a3.74,3.74,0,0,0-1.43-1.15,4.43,4.43,0,0,0-1.89-.43,4.47,4.47,0,0,0-4.05,2.48,6.5,6.5,0,0,0,0,5.5,4.6,4.6,0,0,0,1.68,1.86,4.37,4.37,0,0,0,2.35.66,4.16,4.16,0,0,0,2-.46,3.43,3.43,0,0,0,1.34-1.21v1.51h2.61V670.69h-2.61Zm-.35,5.28a2.5,2.5,0,0,1-1,1,2.64,2.64,0,0,1-1.34.36,2.56,2.56,0,0,1-1.31-.36,2.74,2.74,0,0,1-1-1.06,3.29,3.29,0,0,1-.38-1.6,3.17,3.17,0,0,1,.38-1.59,2.58,2.58,0,0,1,2.3-1.37,2.64,2.64,0,0,1,1.34.36,2.52,2.52,0,0,1,1,1,3.21,3.21,0,0,1,.37,1.6A3.25,3.25,0,0,1,287.79,680.79Z" class="cls-7"/><path d="M297.63,670.69v13.58h2.57v-1.46a3.8,3.8,0,0,0,1.36,1.17,4.23,4.23,0,0,0,2,.45,4.35,4.35,0,0,0,2.36-.66,4.58,4.58,0,0,0,1.67-1.86,6,6,0,0,0,.62-2.76,5.9,5.9,0,0,0-.62-2.75,4.45,4.45,0,0,0-4-2.47,4.29,4.29,0,0,0-2,.46,3.7,3.7,0,0,0-1.36,1.2v-4.9Zm2.94,6.9a2.62,2.62,0,0,1,1-1,2.57,2.57,0,0,1,1.32-.36,2.7,2.7,0,0,1,1.33.35,2.56,2.56,0,0,1,1,1,3.17,3.17,0,0,1,.37,1.59,3.27,3.27,0,0,1-.37,1.61,2.78,2.78,0,0,1-1,1,2.6,2.6,0,0,1-1.33.36,2.63,2.63,0,0,1-2.31-1.39,3.26,3.26,0,0,1-.37-1.6A3.22,3.22,0,0,1,300.57,677.59Z" class="cls-7"/><polygon points="314.4 681.2 311.78 674.1 308.89 674.1 312.97 684.01 310.77 689.07 313.5 689.07 319.8 674.1 317.06 674.1 314.4 681.2" class="cls-7"/><polygon points="485.15 48.88 485.17 48.88 486.9 53.69 487.8 53.69 489.53 48.88 489.55 48.88 489.55 53.69 490.58 53.69 490.58 47.46 489.07 47.46 487.39 52.34 487.37 52.34 485.65 47.46 484.11 47.46 484.11 53.69 485.15 53.69 485.15 48.88" class="cls-8"/><path d="M495.72,53.45a2.5,2.5,0,0,0,.86-.67,2.87,2.87,0,0,0,.49-1,4.69,4.69,0,0,0,0-2.43,2.87,2.87,0,0,0-.49-1,2.38,2.38,0,0,0-.86-.67,3,3,0,0,0-1.24-.24h-2.59v6.23h2.59A3,3,0,0,0,495.72,53.45ZM493,52.8V48.35h1.07a2.75,2.75,0,0,1,1,.17,1.49,1.49,0,0,1,.64.47,1.71,1.71,0,0,1,.32.71,4.83,4.83,0,0,1,0,1.75,1.71,1.71,0,0,1-.32.71,1.49,1.49,0,0,1-.64.47,2.75,2.75,0,0,1-1,.17Z" class="cls-8"/><polygon points="500.8 47.31 499.85 47.31 497.34 53.84 498.3 53.84 500.8 47.31" class="cls-8"/><path d="M501.8,52.91a3,3,0,0,0,1,.68,3.27,3.27,0,0,0,1.3.25,3.16,3.16,0,0,0,1.22-.24,2.89,2.89,0,0,0,1-.66,3.13,3.13,0,0,0,.7-1,3.56,3.56,0,0,0,0-2.67,3.13,3.13,0,0,0-.7-1,3.07,3.07,0,0,0-1-.67,3.35,3.35,0,0,0-1.22-.23,3.4,3.4,0,0,0-1.23.23,3.21,3.21,0,0,0-1,.67,3.29,3.29,0,0,0-.7,1,3.39,3.39,0,0,0-.25,1.33,3.46,3.46,0,0,0,.24,1.3A3.18,3.18,0,0,0,501.8,52.91Zm0-3.43a2.55,2.55,0,0,1,.53-.85,2.36,2.36,0,0,1,.8-.56,2.53,2.53,0,0,1,1-.19,2.45,2.45,0,0,1,1,.19,2.32,2.32,0,0,1,.79.56,2.57,2.57,0,0,1,.54.85,3.24,3.24,0,0,1,.19,1.09,3.17,3.17,0,0,1-.19,1.1,2.57,2.57,0,0,1-.54.85,2.32,2.32,0,0,1-.79.56,2.45,2.45,0,0,1-1,.19,2.52,2.52,0,0,1-1.05-.21,2.42,2.42,0,0,1-.79-.58,2.63,2.63,0,0,1-.5-.86,3,3,0,0,1-.17-1A3,3,0,0,1,501.79,49.48Z" class="cls-8"/><path d="M503.46,50.9H504l.94,1.54h.67l-1-1.59a1.12,1.12,0,0,0,.67-.27.88.88,0,0,0,.27-.71.94.94,0,0,0-.33-.8,1.68,1.68,0,0,0-1-.24h-1.37v3.61h.59Zm0-1.57h.72l.27,0a.92.92,0,0,1,.25.06.58.58,0,0,1,.19.15.42.42,0,0,1,.08.26.62.62,0,0,1-.07.31.44.44,0,0,1-.19.17.53.53,0,0,1-.26.08h-1Z" class="cls-8"/><path d="M288.46,50.47l-3.69-3.81,1.61-1.55a6.42,6.42,0,0,0,1.73-2.57,4.35,4.35,0,0,0,.11-2.49A4.76,4.76,0,0,0,287,38a5,5,0,0,0-2.15-1.35,4.13,4.13,0,0,0-2.48.07,6.49,6.49,0,0,0-2.57,1.63l-4.2,4.05L285.87,53Zm-5.67-5.87-2.57-2.66,1.41-1.36a2.11,2.11,0,0,1,1.44-.72,1.83,1.83,0,0,1,1.31.63,1.8,1.8,0,0,1,.58,1.34,2.1,2.1,0,0,1-.76,1.41Z" class="cls-8"/><path d="M298.06,42.21l-3.28-4.35a2.57,2.57,0,0,1-.68-2,3,3,0,0,1,1.27-1.67l.79-.6-2.29-3a4.08,4.08,0,0,0-1.35,1.71,4.75,4.75,0,0,0-.34,2.16L291,32.83,288.13,35l7.05,9.38Z" class="cls-8"/><path d="M300.76,36.89a5.2,5.2,0,0,0,2.89.73,6.43,6.43,0,0,0,3-.95,6.26,6.26,0,0,0,1.95-1.79,5.29,5.29,0,0,0,.74-4.56l-3.28,2a1.88,1.88,0,0,1-1,1.93,2.16,2.16,0,0,1-1.61.29A2.39,2.39,0,0,1,302,33.44l7-4.19c-.16-.33-.32-.64-.49-.93a6.23,6.23,0,0,0-2.23-2.27,5.14,5.14,0,0,0-2.83-.68,6.3,6.3,0,0,0-3,.94,6.47,6.47,0,0,0-2.27,2.23,5.23,5.23,0,0,0-.71,2.88,7.2,7.2,0,0,0,3.3,5.47Zm.1-6.85a2.28,2.28,0,0,1,1-1.23,2.35,2.35,0,0,1,1.64-.35,1.85,1.85,0,0,1,1.29.94L301,31.72A2.3,2.3,0,0,1,300.86,30Z" class="cls-8"/><path d="M310.59,27a3.71,3.71,0,0,0,1.76.31,14.28,14.28,0,0,0,2.16-.34,12.51,12.51,0,0,1,1.77-.24.81.81,0,0,1,.8.45.83.83,0,0,1,0,.78,1.83,1.83,0,0,1-.83.68,2.06,2.06,0,0,1-1.29.19,1.37,1.37,0,0,1-.93-.65l-3.22,1.51a3.82,3.82,0,0,0,1.58,1.53,4.65,4.65,0,0,0,2.33.49,6.66,6.66,0,0,0,2.7-.69,6.34,6.34,0,0,0,2.07-1.49,3.88,3.88,0,0,0,1-1.86,3.1,3.1,0,0,0-.26-1.91,3,3,0,0,0-1.41-1.49,3.64,3.64,0,0,0-1.75-.33,18.28,18.28,0,0,0-2.21.3,8.59,8.59,0,0,1-1.73.26.79.79,0,0,1-.8-.46.75.75,0,0,1,0-.74,1.63,1.63,0,0,1,.77-.63,1.84,1.84,0,0,1,1.23-.18,1.44,1.44,0,0,1,.9.64l3-1.42a4.29,4.29,0,0,0-2.56-2,5.22,5.22,0,0,0-3.62.5,6.25,6.25,0,0,0-2.12,1.54,3.81,3.81,0,0,0-.92,1.88,3.23,3.23,0,0,0,.28,1.91A2.83,2.83,0,0,0,310.59,27Z" class="cls-8"/><path d="M322.47,25.54a5.24,5.24,0,0,0,2.7,1.24A6.67,6.67,0,0,0,330.55,25a5.33,5.33,0,0,0,1.58-4.35L328.54,22a1.89,1.89,0,0,1-1.37,1.71,2.19,2.19,0,0,1-1.63,0,2.47,2.47,0,0,1-1.24-1.33l7.64-2.82a9.21,9.21,0,0,0-.31-1,6.28,6.28,0,0,0-1.77-2.64,5.07,5.07,0,0,0-2.65-1.2,6.81,6.81,0,0,0-5.73,2.14,5.17,5.17,0,0,0-1.24,2.7,6.61,6.61,0,0,0,.41,3.26A6.44,6.44,0,0,0,322.47,25.54Zm1.36-6.72a2.33,2.33,0,0,1,1.25-1,2.3,2.3,0,0,1,1.67,0,1.82,1.82,0,0,1,1.1,1.16l-4.22,1.56A2.38,2.38,0,0,1,323.83,18.82Z" class="cls-8"/><path d="M338.71,22.8,337,16.65a2.54,2.54,0,0,1,.1-1.92,2.1,2.1,0,0,1,1.41-1.07,2.14,2.14,0,0,1,1.75.19,2.61,2.61,0,0,1,1.08,1.61l1.69,6.14,3.45-1L344.67,14a5.18,5.18,0,0,0-2.16-3.21,4.25,4.25,0,0,0-3.53-.41,4.62,4.62,0,0,0-1.88,1A3.91,3.91,0,0,0,336,13l-.41-1.5-3.47,1,3.12,11.31Z" class="cls-8"/><path d="M346.13,11.82l1.4-.29.94,4.57a4,4,0,0,0,1.71,2.83,4.43,4.43,0,0,0,3.18.32l1.79-.37-.62-3-1.25.26a1.21,1.21,0,0,1-.87,0,1,1,0,0,1-.4-.69l-1-4.62,2.3-.47-.6-2.93-2.31.48-.58-2.8-3.52.73.58,2.8-1.4.29Z" class="cls-8"/><path d="M356.55,15.88a5.31,5.31,0,0,0,2.39,1.77,6.45,6.45,0,0,0,3.15.28,6.18,6.18,0,0,0,2.48-.9,5.43,5.43,0,0,0,1.69-1.72,5.36,5.36,0,0,0,.74-2.22l-3.78.56a1.9,1.9,0,0,1-1.69,1.4,2.14,2.14,0,0,1-1.59-.35,2.39,2.39,0,0,1-.94-1.55L367.05,12a8.56,8.56,0,0,0-.09-1.05A6.27,6.27,0,0,0,365.76,8a5.08,5.08,0,0,0-2.35-1.71,6.24,6.24,0,0,0-3.1-.27,6.33,6.33,0,0,0-2.95,1.19,5.18,5.18,0,0,0-1.76,2.38,6.57,6.57,0,0,0-.27,3.28A6.57,6.57,0,0,0,356.55,15.88Zm2.71-6.3a2.53,2.53,0,0,1,3.08-.43,1.87,1.87,0,0,1,.84,1.36l-4.46.66A2.42,2.42,0,0,1,359.26,9.58Z" class="cls-8"/><path d="M369.25,14a5.25,5.25,0,0,0,2,2,4.8,4.8,0,0,0,2.68.53,4.54,4.54,0,0,0,2.13-.67,3.71,3.71,0,0,0,1.33-1.46l.13,1.68,3.59-.29L379.9.28l-3.58.28L376.75,6a3.92,3.92,0,0,0-1.6-1.18A4.66,4.66,0,0,0,373,4.5a4.81,4.81,0,0,0-2.56.94,5.12,5.12,0,0,0-1.69,2.24,7,7,0,0,0-.43,3.22A7.24,7.24,0,0,0,369.25,14Zm3.3-5.58a2.52,2.52,0,0,1,3.62-.28,2.93,2.93,0,0,1,.92,2.06,3,3,0,0,1-.58,2.18,2.47,2.47,0,0,1-1.75.92,2.44,2.44,0,0,1-1.88-.65,3,3,0,0,1-.91-2.07A2.88,2.88,0,0,1,372.55,8.45Z" class="cls-8"/><path d="M391.48,14a3.78,3.78,0,0,0,1.44,1.33,4.59,4.59,0,0,0,2.16.51,4.78,4.78,0,0,0,2.63-.72A5.1,5.1,0,0,0,399.59,13a7,7,0,0,0,.72-3.18,7.15,7.15,0,0,0-.65-3.18,5.19,5.19,0,0,0-1.85-2.12,4.84,4.84,0,0,0-2.62-.76,4.5,4.5,0,0,0-2.17.48,3.73,3.73,0,0,0-1.46,1.31L391.61,0,388,0l-.15,15.57,3.6,0Zm.78-6.35a2.55,2.55,0,0,1,3.66,0,2.85,2.85,0,0,1,.73,2.12,3,3,0,0,1-.78,2.13,2.47,2.47,0,0,1-1.84.77,2.42,2.42,0,0,1-1.81-.8,2.93,2.93,0,0,1-.72-2.13A2.92,2.92,0,0,1,392.26,7.61Z" class="cls-8"/><polygon points="402.27 21.4 406.13 21.69 414.76 4.97 410.88 4.68 407.65 11.8 405.49 4.28 401.48 3.98 405.4 15.64 402.27 21.4" class="cls-8"/><path d="M499.83,88.62c0-33.44-48.38-60.55-108.06-60.55S283.71,55.18,283.71,88.62s48.38,60.55,108.06,60.55S499.83,122.06,499.83,88.62Zm-92.66-16.8c17.74,3.56,27.46,1.36,35.67,1l3-6.39a10.65,10.65,0,0,1,7.66,0l-2.83,6.29c12.39.29,19.48,2.6,23.53,5.37,6.89.34,12.81,2.06,14.28,3.5a8.2,8.2,0,0,1-4.28,4.1c-.68-1.11-3.33-3.25-6.82-4.6a9.3,9.3,0,0,1,1.83,7.42c-1,8.21-10.2,16.5-20.7,16.5-6.25,0-10.24-2.94-11.09-7.33a12.88,12.88,0,0,1-.08-3.15,17,17,0,0,1,4.15-9.22c4-4.66,10.47-6.65,16.92-7.15-4.47-2.71-12.93-1.76-19.71-1.08L442,92.16c-.81,1.69-2.53,5.35-2.75,7-.11.91,0,1.92,1.46,1.92a5,5,0,0,0,2.77-1.12,19.33,19.33,0,0,0,1.72-1.48,7.76,7.76,0,0,0,.77,1.76l0,.09c-2.51,2.33-5.79,4.62-9.7,4.62-3.38,0-5.83-2-5.5-4.74a13.35,13.35,0,0,1,1.4-4.6c.64-1.64,1.41-3.27,2-4.54l6.46-13.57c-8.9,0-24-.88-33.89-5Zm-2.89,9.62a8.44,8.44,0,0,0-1.95.52,6.36,6.36,0,0,0-.64-1.52,16,16,0,0,1,7.86-2.64c2.85,0,4.93,1.51,4.63,3.9-.24,2-1.83,5.06-2.9,7.07,0,0-5,9.24-5.16,10.58-.13,1.1.71,1.6,2,1.6,6.15,0,12.89-13.14,14.95-17.1l2.19-3.95s2.68.27,3.79.33l4.08.27-4.56,8.84c-1.13,2.44-3.31,7.32-3.61,9.71-.09.72-.07,1.9,1.13,1.9a4.66,4.66,0,0,0,2.2-.94c0,.09,0,.16,0,.25a3.61,3.61,0,0,0,.22,1.83v0a12.78,12.78,0,0,1-7.56,2.78c-3.08,0-4.62-2.12-4.34-4.45a14.93,14.93,0,0,1,1.1-4l-.14-.13c-3.41,4.66-8.2,8.57-14.21,8.59-3.46,0-5.94-1.82-5.58-4.8.26-2.15,1.92-5.26,3-7.33,0,0,4.51-9.06,4.63-10A1,1,0,0,0,404.28,81.44ZM330,93.5c-1.76,7.41-9.18,11.78-17.92,11.78-4.81,0-9.59-1.45-12.26-4.46-5.14-6,.76-9,3.64-9-1.5,5.71.78,10.77,8,10.77,4.08,0,7.64-2.35,8.47-5.8.9-3.83-1.23-6.09-3.74-8.63l-2.37-2.47c-3.1-3.16-5.46-6-4.33-10.75,1.61-6.79,8.78-11,16.86-11a15,15,0,0,1,10.27,3.51c5.37,5.4-1.27,8.86-2.75,8.53a1.46,1.46,0,0,1-.5-.15c1.41-4.38-.1-9.24-6.18-9.24-3.41,0-7.62,1.83-8.36,4.93-.84,3.52,1.69,5.94,4,8.25L325,81.86C328.39,85.2,331.19,88.34,330,93.5Zm21.51,7.34a17.42,17.42,0,0,1,.5-2.22l-.14-.11c-2.68,3.41-6.95,6.4-12.07,6.4-6.32,0-8.82-4.07-8.24-8.84,1-7.88,9.84-18.26,20.67-18.26,3.53,0,5.92,1.4,7,4l1.9-3.33a11.11,11.11,0,0,1,7.83,0l-7.75,16.46a22.48,22.48,0,0,0-1.75,4.51c-.1.73.1,2.14,1.16,2.14a3.18,3.18,0,0,0,1.33-.35v0l-1.1,2.44a11.78,11.78,0,0,1-5,1.22C352.93,104.91,351.18,103.07,351.47,100.84Zm21.23.11h-.15l-8.47,18.76a10,10,0,0,1-5.77-5L376.12,75a9.4,9.4,0,0,1,5.48,4.63l-.9,2.11.14.12a14.39,14.39,0,0,1,10-4c5.42,0,8,2.76,8.29,6.51a10.51,10.51,0,0,1-.05,2.27c-.95,7.76-8.56,18.31-19.47,18.31C376.13,104.92,373.75,103.46,372.7,101Z" class="cls-8"/><path d="M386.94,81.17c-6.69,0-11.79,12.71-12.25,16.43-.23,1.9.57,4,3.27,4,6.78,0,12.11-12.21,12.65-16.6C390.85,83,389.71,81.17,386.94,81.17Z" class="cls-8"/><path d="M353.44,81.17c-6.63,0-12.51,11.78-13,16.11-.23,1.77.56,4,3.12,4,6.84,0,12.93-12.21,13.48-16.59C357.23,82.7,356.06,81.17,353.44,81.17Z" class="cls-8"/><path d="M455.6,95.16c-2.81,9.85,5.09,9.69,10.06,2.77,3.48-4.72,6.48-11.76,5.71-15.63a6.65,6.65,0,0,0-1-2.31C459.63,81,456,93.61,455.6,95.16Z" class="cls-8"/><path d="M325,81.86l-2.15-2.12c-2.28-2.31-4.81-4.73-4-8.25.74-3.1,4.95-4.93,8.36-4.93,6.08,0,7.59,4.86,6.18,9.24a1.46,1.46,0,0,0,.5.15c1.48.33,8.12-3.13,2.75-8.53a15,15,0,0,0-10.27-3.51c-8.08,0-15.25,4.24-16.86,11-1.13,4.73,1.23,7.59,4.33,10.75l2.37,2.47c2.51,2.54,4.64,4.8,3.74,8.63-.83,3.45-4.39,5.8-8.47,5.8-7.26,0-9.54-5.06-8-10.77-2.88,0-8.78,3-3.64,9,2.67,3,7.45,4.46,12.26,4.46,8.74,0,16.16-4.37,17.92-11.78C331.19,88.34,328.39,85.2,325,81.86Z" class="cls-9"/><path d="M399.05,86.61a10.51,10.51,0,0,0,.05-2.27c-.32-3.75-2.87-6.51-8.29-6.51a14.39,14.39,0,0,0-10,4l-.14-.12.9-2.11A9.4,9.4,0,0,0,376.12,75l-17.81,39.75a10,10,0,0,0,5.77,5L372.55,101h.15c1.05,2.51,3.43,4,6.88,4C390.49,104.92,398.1,94.37,399.05,86.61ZM390.61,85c-.54,4.39-5.87,16.6-12.65,16.6-2.7,0-3.5-2.07-3.27-4,.46-3.72,5.56-16.43,12.25-16.43C389.71,81.17,390.85,83,390.61,85Z" class="cls-9"/><path d="M361.88,101.25v0a3.18,3.18,0,0,1-1.33.35c-1.06,0-1.26-1.41-1.16-2.14a22.48,22.48,0,0,1,1.75-4.51l7.75-16.46a11.11,11.11,0,0,0-7.83,0l-1.9,3.33c-1-2.58-3.43-4-7-4-10.83,0-19.71,10.38-20.67,18.26-.58,4.77,1.92,8.84,8.24,8.84,5.12,0,9.39-3,12.07-6.4l.14.11a17.42,17.42,0,0,0-.5,2.22c-.29,2.23,1.46,4.07,4.3,4.07a11.78,11.78,0,0,0,5-1.22ZM357,84.66c-.55,4.38-6.64,16.59-13.48,16.59-2.56,0-3.35-2.2-3.12-4,.53-4.33,6.41-16.11,13-16.11C356.06,81.17,357.23,82.7,357,84.66Z" class="cls-9"/><path d="M400.77,92.77c-1.09,2.07-2.75,5.18-3,7.33-.36,3,2.12,4.82,5.58,4.8,6,0,10.8-3.93,14.21-8.59l.14.13a14.93,14.93,0,0,0-1.1,4c-.28,2.33,1.26,4.45,4.34,4.45a12.78,12.78,0,0,0,7.56-2.78v0a3.61,3.61,0,0,1-.22-1.83c0-.09,0-.16,0-.25a4.66,4.66,0,0,1-2.2.94c-1.2,0-1.22-1.18-1.13-1.9.3-2.39,2.48-7.27,3.61-9.71l4.56-8.84-4.08-.27c-1.11-.06-3.79-.33-3.79-.33l-2.19,3.95c-2.06,4-8.8,17.1-14.95,17.1-1.29,0-2.13-.5-2-1.6.17-1.34,5.16-10.58,5.16-10.58,1.07-2,2.66-5.06,2.9-7.07.3-2.39-1.78-3.9-4.63-3.9a16,16,0,0,0-7.86,2.64,6.36,6.36,0,0,1,.64,1.52,8.44,8.44,0,0,1,1.95-.52,1,1,0,0,1,1.12,1.29C405.28,83.71,400.77,92.77,400.77,92.77Z" class="cls-9"/><path d="M434.13,91.12c-.57,1.27-1.34,2.9-2,4.54a13.35,13.35,0,0,0-1.4,4.6c-.33,2.73,2.12,4.74,5.5,4.74,3.91,0,7.19-2.29,9.7-4.62l0-.09a7.76,7.76,0,0,1-.77-1.76,19.33,19.33,0,0,1-1.72,1.48,5,5,0,0,1-2.77,1.12c-1.42,0-1.57-1-1.46-1.92.22-1.7,1.94-5.36,2.75-7l6.78-15.06c6.78-.68,15.24-1.63,19.71,1.08-6.45.5-12.9,2.49-16.92,7.15a17,17,0,0,0-4.15,9.22,12.88,12.88,0,0,0,.08,3.15c.85,4.39,4.84,7.33,11.09,7.33,10.5,0,19.69-8.29,20.7-16.5a9.3,9.3,0,0,0-1.83-7.42c3.49,1.35,6.14,3.49,6.82,4.6a8.2,8.2,0,0,0,4.28-4.1c-1.47-1.44-7.39-3.16-14.28-3.5-4.05-2.77-11.14-5.08-23.53-5.37l2.83-6.29a10.65,10.65,0,0,0-7.66,0l-3,6.39c-8.21.37-17.93,2.57-35.67-1l-.47.77c9.89,4.08,25,5,33.89,5Zm37.24-8.82c.77,3.87-2.23,10.91-5.71,15.63-5,6.92-12.87,7.08-10.06-2.77.43-1.55,4-14.19,14.8-15.17A6.65,6.65,0,0,1,471.37,82.3Z" class="cls-9"/></g></g></svg>