<svg xmlns="http://www.w3.org/2000/svg" viewBox="0 0 569.25 221.01"><defs><style>.cls-1{fill:none;}.cls-2{fill:#cf3339;}.cls-3{fill:#fff;}.cls-4{fill:#eb422e;}.cls-5{fill:#f59745;}.cls-6{fill:#4a9343;}.cls-7{fill:#f4b88c;}.cls-8{fill:#ff8000;}.cls-9{fill:#fd8000;}</style></defs><g id="Layer_2" data-name="Layer 2"><g id="navbar_size" data-name="navbar size"><path class="cls-1" d="M207.7,22.74a.27.27,0,0,0,.12,0,.2.2,0,0,0,.08-.08.26.26,0,0,0,0-.14.18.18,0,0,0-.12-.18.2.2,0,0,0-.11,0h-.45v.48h.45Z"/><path class="cls-1" d="M178.18,134.24h16.68c-2.7-2.42-5.38-4.88-8-7.3l-3.07-2.81c-.07.52-.17,1-.26,1.37A17.32,17.32,0,0,1,178.18,134.24Z"/><path class="cls-1" d="M203.77,23.55a.84.84,0,0,0,.14-.32,2,2,0,0,0,0-.79.78.78,0,0,0-.14-.32.82.82,0,0,0-.29-.22,1.26,1.26,0,0,0-.47-.07h-.49v2H203a1.24,1.24,0,0,0,.47-.08A.7.7,0,0,0,203.77,23.55Z"/><path class="cls-1" d="M206.72,23.69a.92.92,0,0,0,.35.26,1.06,1.06,0,0,0,.48.1A1.12,1.12,0,0,0,208,24a1.12,1.12,0,0,0,.6-.63,1.59,1.59,0,0,0,.08-.5,1.53,1.53,0,0,0-.08-.49,1.28,1.28,0,0,0-.24-.39,1.45,1.45,0,0,0-.36-.25,1.11,1.11,0,0,0-.44-.08,1.12,1.12,0,0,0-.45.08,1.16,1.16,0,0,0-.36.25,1,1,0,0,0-.24.39,1.3,1.3,0,0,0-.09.49,1.51,1.51,0,0,0,.08.48A1.14,1.14,0,0,0,206.72,23.69ZM207,22h.61a.71.71,0,0,1,.45.12.4.4,0,0,1,.15.35.42.42,0,0,1-.12.33.51.51,0,0,1-.31.12l.46.72h-.3l-.42-.7h-.26v.7H207Z"/><path class="cls-1" d="M65.67,79.44C73.83,79,83.44,73.74,85.15,65c1.11-5.64-1.24-12.19-6.29-17.53-4.37-4.61-10.17-8-15.62-10.89A111.35,111.35,0,0,0,37,70.34C45.71,74.61,57.36,79.94,65.67,79.44Zm-.38-7.34c-3.67,1.08-7.29-.26-8.09-3s1.52-5.81,5.19-6.89,7.29.26,8.09,3S69,71,65.29,72.1Zm-1.92-29c4.19,1.9,11,5.28,14.85,14.16C80,61.43,78,66.07,74.1,69.36a8.84,8.84,0,0,0,.68-6.51c-1.54-5.25-7.9-8-14.2-6.15S50.41,64.3,52,69.55a8.51,8.51,0,0,0,1.87,3.3c-4.26-.95-8.11-2.62-10.47-4.83C51.36,57,57.45,49,63.37,43.06Z"/><path class="cls-1" d="M117.57,13.27a.84.84,0,0,0-.58-.42,1.16,1.16,0,0,0-1.21.71,1.06,1.06,0,0,0,0,.76Z"/><path class="cls-1" d="M148.3,5.73a1.1,1.1,0,0,0,.85.29,1.13,1.13,0,0,0,.79-.42,1.36,1.36,0,0,0,.26-1,1.31,1.31,0,0,0-.42-.93,1.09,1.09,0,0,0-.84-.29,1.14,1.14,0,0,0-.79.41,1.27,1.27,0,0,0-.26,1A1.35,1.35,0,0,0,148.3,5.73Z"/><path class="cls-1" d="M157.85,5.71a1.09,1.09,0,0,0,.83-.34,1.33,1.33,0,0,0,.35-1,1.33,1.33,0,0,0-.33-1,1.16,1.16,0,0,0-.83-.36,1.12,1.12,0,0,0-.82.35,1.33,1.33,0,0,0-.35.95,1.37,1.37,0,0,0,.33,1A1.1,1.1,0,0,0,157.85,5.71Z"/><path class="cls-1" d="M108.34,18.28a.8.8,0,0,0-.59-.28.93.93,0,0,0-.65.32l-.64.61,1.16,1.21.64-.62a1,1,0,0,0,.35-.64A.83.83,0,0,0,108.34,18.28Z"/><path class="cls-1" d="M128,8.55a.83.83,0,0,0-.5-.53,1,1,0,0,0-.75,0,1,1,0,0,0-.57.46,1,1,0,0,0-.09.75Z"/><path class="cls-1" d="M143.54,4.13A1.08,1.08,0,0,0,142.8,4a1,1,0,0,0-.65.34,1,1,0,0,0-.24.71l2-.29A.85.85,0,0,0,143.54,4.13Z"/><polygon class="cls-2" points="198.99 22.07 199 22.07 199.78 24.24 200.18 24.24 200.96 22.07 200.97 22.07 200.97 24.24 201.44 24.24 201.44 21.43 200.75 21.43 200 23.63 199.99 23.63 199.21 21.43 198.52 21.43 198.52 24.24 198.99 24.24 198.99 22.07"/><path class="cls-2" d="M203.76,24.13a1,1,0,0,0,.38-.3,1.37,1.37,0,0,0,.23-.45,2.16,2.16,0,0,0,0-1.09,1.28,1.28,0,0,0-.23-.45,1,1,0,0,0-.38-.3,1.25,1.25,0,0,0-.56-.11H202v2.81h1.17A1.4,1.4,0,0,0,203.76,24.13Zm-1.24-.29v-2H203a1.26,1.26,0,0,1,.47.07.82.82,0,0,1,.29.22.78.78,0,0,1,.14.32,2,2,0,0,1,0,.79.84.84,0,0,1-.14.32.7.7,0,0,1-.29.21,1.24,1.24,0,0,1-.47.08Z"/><polygon class="cls-2" points="206.05 21.36 205.62 21.36 204.49 24.31 204.92 24.31 206.05 21.36"/><path class="cls-2" d="M206.5,23.89a1.49,1.49,0,0,0,.46.31,1.59,1.59,0,0,0,.59.11,1.5,1.5,0,0,0,.55-.11,1.52,1.52,0,0,0,.46-.3,1.49,1.49,0,0,0,.31-.46,1.51,1.51,0,0,0,.12-.61,1.46,1.46,0,0,0-.12-.6,1.54,1.54,0,0,0-.31-.47,1.7,1.7,0,0,0-.46-.29,1.32,1.32,0,0,0-.55-.11,1.33,1.33,0,0,0-.56.11,1.44,1.44,0,0,0-.46.29,1.4,1.4,0,0,0-.32.47,1.46,1.46,0,0,0-.12.6,1.63,1.63,0,0,0,.11.59A1.89,1.89,0,0,0,206.5,23.89Zm0-1.55a1,1,0,0,1,.24-.39,1.16,1.16,0,0,1,.36-.25,1.12,1.12,0,0,1,.45-.08,1.11,1.11,0,0,1,.44.08,1.45,1.45,0,0,1,.36.25,1.28,1.28,0,0,1,.24.39,1.53,1.53,0,0,1,.08.49,1.59,1.59,0,0,1-.08.5,1.12,1.12,0,0,1-.6.63,1.12,1.12,0,0,1-.44.09,1.06,1.06,0,0,1-.48-.1.92.92,0,0,1-.35-.26,1.14,1.14,0,0,1-.23-.38,1.51,1.51,0,0,1-.08-.48A1.3,1.3,0,0,1,206.5,22.34Z"/><path class="cls-2" d="M207.25,23h.26l.42.7h.3l-.46-.72a.51.51,0,0,0,.31-.12.42.42,0,0,0,.12-.33.4.4,0,0,0-.15-.35.71.71,0,0,0-.45-.12H207v1.64h.26Zm0-.71h.45a.2.2,0,0,1,.11,0,.18.18,0,0,1,.12.18.26.26,0,0,1,0,.14.2.2,0,0,1-.08.08.27.27,0,0,1-.12,0h-.45Z"/><path class="cls-2" d="M110.18,22.79l-1.66-1.72.72-.7a2.77,2.77,0,0,0,.78-1.16,1.91,1.91,0,0,0,0-1.13,2.26,2.26,0,0,0-1.51-1.55,1.87,1.87,0,0,0-1.12,0,3.06,3.06,0,0,0-1.16.74l-1.9,1.83,4.63,4.8Zm-2.56-2.65-1.16-1.21.64-.61a.93.93,0,0,1,.65-.32.8.8,0,0,1,.59.28.83.83,0,0,1,.27.6,1,1,0,0,1-.35.64Z"/><path class="cls-2" d="M114.52,19.06l-1.48-2a1.15,1.15,0,0,1-.31-.91,1.36,1.36,0,0,1,.57-.76l.36-.27-1-1.37a1.82,1.82,0,0,0-.61.77,2.13,2.13,0,0,0-.16,1l-.53-.71-1.3,1L113.22,20Z"/><path class="cls-2" d="M115.74,16.66A2.39,2.39,0,0,0,117,17a3.05,3.05,0,0,0,2.24-1.23,2.39,2.39,0,0,0,.34-2.06l-1.49.89a.85.85,0,0,1-.46.87.93.93,0,0,1-.72.13,1.08,1.08,0,0,1-.66-.48l3.15-1.89a4.32,4.32,0,0,0-.22-.43,2.9,2.9,0,0,0-1-1,2.38,2.38,0,0,0-1.28-.31,3.08,3.08,0,0,0-2.36,1.43,2.37,2.37,0,0,0-.32,1.3,3.06,3.06,0,0,0,.45,1.42A3,3,0,0,0,115.74,16.66Zm0-3.1a1.16,1.16,0,0,1,1.21-.71.84.84,0,0,1,.58.42l-1.74,1.05A1.06,1.06,0,0,1,115.78,13.56Z"/><path class="cls-2" d="M120.18,12.17a1.66,1.66,0,0,0,.79.14,7.89,7.89,0,0,0,1-.15,3.78,3.78,0,0,1,.8-.11.34.34,0,0,1,.35.2.36.36,0,0,1,0,.35.87.87,0,0,1-.38.31.92.92,0,0,1-.58.08.59.59,0,0,1-.42-.29l-1.45.68a1.69,1.69,0,0,0,.71.69,2,2,0,0,0,1,.22,3,3,0,0,0,1.22-.31,2.94,2.94,0,0,0,.94-.67,1.78,1.78,0,0,0,.43-.84,1.42,1.42,0,0,0-.12-.86,1.27,1.27,0,0,0-.64-.67,1.7,1.7,0,0,0-.79-.16c-.26,0-.59.07-1,.14a3.7,3.7,0,0,1-.78.12.38.38,0,0,1-.37-.21.35.35,0,0,1,0-.33.75.75,0,0,1,.35-.29.88.88,0,0,1,.56-.08.68.68,0,0,1,.4.29l1.36-.64a1.91,1.91,0,0,0-1.16-.9,2.31,2.31,0,0,0-1.63.22,2.76,2.76,0,0,0-1,.69,1.82,1.82,0,0,0-.42.86,1.51,1.51,0,0,0,.13.86A1.3,1.3,0,0,0,120.18,12.17Z"/><path class="cls-2" d="M125.54,11.53a2.32,2.32,0,0,0,1.22.56,2.79,2.79,0,0,0,1.41-.17,2.88,2.88,0,0,0,1-.62,2.59,2.59,0,0,0,.59-.92,2.34,2.34,0,0,0,.12-1.05l-1.62.6a.85.85,0,0,1-.62.77.93.93,0,0,1-.73,0,1.07,1.07,0,0,1-.56-.6l3.44-1.27c0-.16-.08-.32-.13-.46a2.78,2.78,0,0,0-.8-1.19,2.27,2.27,0,0,0-1.2-.54,2.77,2.77,0,0,0-1.4.17,2.82,2.82,0,0,0-1.19.8,2.34,2.34,0,0,0-.56,1.21,2.94,2.94,0,0,0,.19,1.47A2.9,2.9,0,0,0,125.54,11.53Zm.61-3a1,1,0,0,1,.57-.46,1,1,0,0,1,.75,0,.83.83,0,0,1,.5.53l-1.91.7A1,1,0,0,1,126.15,8.5Z"/><path class="cls-2" d="M132.87,10.29l-.76-2.77a1.16,1.16,0,0,1,0-.87,1.1,1.1,0,0,1,1.43-.4,1.24,1.24,0,0,1,.49.73l.76,2.77,1.56-.43-.83-3a2.33,2.33,0,0,0-1-1.45A2,2,0,0,0,133,4.7a2,2,0,0,0-.85.45,1.72,1.72,0,0,0-.49.71l-.19-.68-1.56.44,1.41,5.1Z"/><path class="cls-2" d="M136.22,5.33l.63-.13.43,2.07a1.79,1.79,0,0,0,.77,1.28,2.06,2.06,0,0,0,1.44.14l.8-.17L140,7.18l-.56.11a.57.57,0,0,1-.4,0,.51.51,0,0,1-.18-.31l-.43-2.09,1-.21-.27-1.32-1,.21-.27-1.26-1.58.33.26,1.26-.64.13Z"/><path class="cls-2" d="M140.93,7.17A2.35,2.35,0,0,0,142,8a2.81,2.81,0,0,0,1.42.12,2.93,2.93,0,0,0,1.13-.4,2.46,2.46,0,0,0,.76-.78,2.38,2.38,0,0,0,.34-1l-1.71.25a.86.86,0,0,1-.77.64,1,1,0,0,1-.71-.16,1.07,1.07,0,0,1-.43-.7l3.64-.54a3.71,3.71,0,0,0,0-.48,2.65,2.65,0,0,0-.54-1.33A2.27,2.27,0,0,0,144,2.82a2.94,2.94,0,0,0-1.4-.12,3,3,0,0,0-1.33.53,2.31,2.31,0,0,0-.79,1.08,2.9,2.9,0,0,0-.12,1.48A2.89,2.89,0,0,0,140.93,7.17Zm1.22-2.84A1,1,0,0,1,142.8,4a1.08,1.08,0,0,1,.74.14.85.85,0,0,1,.38.62l-2,.29A1,1,0,0,1,142.15,4.33Z"/><path class="cls-2" d="M146.66,6.33a2.28,2.28,0,0,0,.91.89,2.12,2.12,0,0,0,1.21.24,2.09,2.09,0,0,0,1-.3,1.73,1.73,0,0,0,.6-.66l.06.76L152,7.13l-.56-7-1.62.12.2,2.46a1.81,1.81,0,0,0-.73-.54,2.09,2.09,0,0,0-1-.14,2.21,2.21,0,0,0-1.15.43,2.26,2.26,0,0,0-.77,1,3.24,3.24,0,0,0-.19,1.45A3.08,3.08,0,0,0,146.66,6.33Zm1.49-2.52a1.14,1.14,0,0,1,.79-.41,1.09,1.09,0,0,1,.84.29,1.31,1.31,0,0,1,.42.93,1.36,1.36,0,0,1-.26,1,1.13,1.13,0,0,1-.79.42,1.1,1.1,0,0,1-.85-.29,1.35,1.35,0,0,1-.41-.94A1.27,1.27,0,0,1,148.15,3.81Z"/><path class="cls-2" d="M156.69,6.3a1.79,1.79,0,0,0,.65.6,2.06,2.06,0,0,0,1,.23,2.13,2.13,0,0,0,1.19-.32,2.31,2.31,0,0,0,.85-.95,3.15,3.15,0,0,0,.32-1.44A3.17,3.17,0,0,0,160.39,3a2.34,2.34,0,0,0-.83-1,2.24,2.24,0,0,0-1.19-.35,2.08,2.08,0,0,0-1,.22,1.66,1.66,0,0,0-.66.59l0-2.47-1.62,0-.07,7h1.63Zm.36-2.86a1.12,1.12,0,0,1,.82-.35,1.16,1.16,0,0,1,.83.36,1.33,1.33,0,0,1,.33,1,1.33,1.33,0,0,1-.35,1,1.16,1.16,0,0,1-1.65,0,1.37,1.37,0,0,1-.33-1A1.33,1.33,0,0,1,157.05,3.44Z"/><polygon class="cls-2" points="161.57 9.66 163.31 9.79 167.2 2.24 165.45 2.11 163.99 5.33 163.02 1.93 161.21 1.8 162.98 7.06 161.57 9.66"/><path class="cls-2" d="M139.52,36.65c-3,0-5.65,5.32-5.88,7.27a1.44,1.44,0,0,0,1.4,1.79c3.09,0,5.84-5.51,6.09-7.49C141.23,37.34,140.7,36.65,139.52,36.65Z"/><path class="cls-2" d="M205.62,40c0-15.1-21.85-27.34-48.79-27.34S108,24.91,108,40s21.84,27.34,48.79,27.34S205.62,55.11,205.62,40Zm-41.84-7.59c8,1.61,12.4.62,16.1.45L181.26,30a4.8,4.8,0,0,1,3.46,0l-1.29,2.84c5.6.13,8.8,1.17,10.63,2.42,3.11.16,5.78.94,6.45,1.59a3.73,3.73,0,0,1-1.94,1.85,7.13,7.13,0,0,0-3.07-2.08,4.21,4.21,0,0,1,.82,3.35c-.45,3.7-4.6,7.45-9.35,7.45-2.82,0-4.62-1.33-5-3.31a6,6,0,0,1,0-1.42,7.75,7.75,0,0,1,1.87-4.16c1.82-2.11,4.73-3,7.64-3.23-2-1.23-5.83-.8-8.89-.49l-3.06,6.8a14.73,14.73,0,0,0-1.24,3.18c-.05.41,0,.87.66.87a2.29,2.29,0,0,0,1.25-.51,7.34,7.34,0,0,0,.77-.67,3.59,3.59,0,0,0,.35.8v0a6.66,6.66,0,0,1-4.38,2.08c-1.53,0-2.64-.9-2.49-2.14a6.29,6.29,0,0,1,.64-2.07c.29-.74.63-1.48.89-2L178.87,35c-4,0-10.84-.39-15.3-2.24Zm-1.31,4.35a3.59,3.59,0,0,0-.87.23,3.16,3.16,0,0,0-.29-.68,7.17,7.17,0,0,1,3.54-1.2c1.29,0,2.23.69,2.1,1.77a12.09,12.09,0,0,1-1.31,3.19,46.6,46.6,0,0,0-2.33,4.77c-.06.5.31.73.9.73,2.78,0,5.82-5.93,6.75-7.72l1-1.79s1.21.12,1.71.15l1.84.13-2.06,4a21.48,21.48,0,0,0-1.63,4.38c0,.33,0,.86.51.86a2.09,2.09,0,0,0,1-.43.37.37,0,0,1,0,.11,1.88,1.88,0,0,0,.1.83v0A5.77,5.77,0,0,1,170,47.36a1.78,1.78,0,0,1-2-2,6.73,6.73,0,0,1,.5-1.81l-.06-.06c-1.55,2.11-3.71,3.87-6.42,3.88-1.56,0-2.68-.82-2.52-2.17a12.13,12.13,0,0,1,1.36-3.31s2-4.09,2.09-4.53A.47.47,0,0,0,162.47,36.77Zm-33.55,5.44c-.79,3.35-4.14,5.32-8.09,5.32a7.45,7.45,0,0,1-5.53-2c-2.33-2.69.34-4.09,1.64-4.07-.68,2.58.35,4.87,3.63,4.87a3.78,3.78,0,0,0,3.82-2.62c.41-1.73-.55-2.75-1.69-3.9l-1.07-1.11c-1.39-1.43-2.46-2.72-1.95-4.86.73-3.06,4-5,7.61-5a6.76,6.76,0,0,1,4.64,1.59,2.12,2.12,0,0,1-1.24,3.85.67.67,0,0,1-.23-.07c.64-2-.05-4.17-2.79-4.17-1.54,0-3.44.82-3.77,2.22-.38,1.6.76,2.69,1.79,3.73l1,1C128.21,38.46,129.47,39.88,128.92,42.21Zm9.71,3.32a7.41,7.41,0,0,1,.23-1l-.07-.06a7.1,7.1,0,0,1-5.45,2.9c-2.85,0-4-1.84-3.72-4,.44-3.55,4.45-8.24,9.34-8.24a3.06,3.06,0,0,1,3.14,1.79l.86-1.5a5,5,0,0,1,3.53,0L143,42.86a10.34,10.34,0,0,0-.79,2c0,.34.05,1,.52,1a1.46,1.46,0,0,0,.61-.16h0l-.5,1.1a5.27,5.27,0,0,1-2.25.56C139.29,47.37,138.5,46.54,138.63,45.53Zm9.59,0h-.07l-3.82,8.47a4.5,4.5,0,0,1-2.61-2.25l8-17.94A4.22,4.22,0,0,1,152.24,36l-.41.95.06.05a6.5,6.5,0,0,1,4.5-1.81c2.45,0,3.6,1.24,3.75,2.94a5.19,5.19,0,0,1,0,1c-.42,3.5-3.86,8.27-8.79,8.27A3.08,3.08,0,0,1,148.22,45.58Z"/><path class="cls-2" d="M185.64,43c-1.26,4.45,2.3,4.37,4.55,1.25,1.57-2.13,2.92-5.3,2.57-7.05a3,3,0,0,0-.43-1C187.47,36.55,185.84,42.26,185.64,43Z"/><path class="cls-2" d="M154.65,36.65c-3,0-5.33,5.74-5.54,7.41a1.45,1.45,0,0,0,1.48,1.8c3.06,0,5.47-5.52,5.71-7.5A1.46,1.46,0,0,0,154.65,36.65Z"/><path class="cls-3" d="M126.66,37l-1-1c-1-1-2.17-2.13-1.79-3.73.33-1.4,2.23-2.22,3.77-2.22,2.74,0,3.43,2.19,2.79,4.17a.67.67,0,0,0,.23.07,2.12,2.12,0,0,0,1.24-3.85,6.76,6.76,0,0,0-4.64-1.59c-3.65,0-6.88,1.92-7.61,5-.51,2.14.56,3.43,1.95,4.86l1.07,1.11c1.14,1.15,2.1,2.17,1.69,3.9a3.78,3.78,0,0,1-3.82,2.62c-3.28,0-4.31-2.29-3.63-4.87-1.3,0-4,1.38-1.64,4.07a7.45,7.45,0,0,0,5.53,2c4,0,7.3-2,8.09-5.32C129.47,39.88,128.21,38.46,126.66,37Z"/><path class="cls-3" d="M160.11,39.1a5.19,5.19,0,0,0,0-1c-.15-1.7-1.3-2.94-3.75-2.94a6.5,6.5,0,0,0-4.5,1.81l-.06-.05.41-.95a4.22,4.22,0,0,0-2.48-2.09l-8,17.94a4.5,4.5,0,0,0,2.61,2.25l3.82-8.47h.07a3.08,3.08,0,0,0,3.1,1.79C156.25,47.37,159.69,42.6,160.11,39.1Zm-3.81-.74c-.24,2-2.65,7.5-5.71,7.5a1.45,1.45,0,0,1-1.48-1.8c.21-1.67,2.51-7.41,5.54-7.41A1.46,1.46,0,0,1,156.3,38.36Z"/><path class="cls-3" d="M143.33,45.71h0a1.46,1.46,0,0,1-.61.16c-.47,0-.56-.63-.52-1a10.34,10.34,0,0,1,.79-2l3.5-7.43a5,5,0,0,0-3.53,0l-.86,1.5A3.06,3.06,0,0,0,139,35.13c-4.89,0-8.9,4.69-9.34,8.24-.26,2.16.87,4,3.72,4a7.1,7.1,0,0,0,5.45-2.9l.07.06a7.41,7.41,0,0,0-.23,1c-.13,1,.66,1.84,2,1.84a5.27,5.27,0,0,0,2.25-.56Zm-2.2-7.49c-.25,2-3,7.49-6.09,7.49a1.44,1.44,0,0,1-1.4-1.79c.23-2,2.89-7.27,5.88-7.27C140.7,36.65,141.23,37.34,141.13,38.22Z"/><path class="cls-3" d="M160.89,41.88a12.13,12.13,0,0,0-1.36,3.31c-.16,1.35,1,2.18,2.52,2.17,2.71,0,4.87-1.77,6.42-3.88l.06.06a6.73,6.73,0,0,0-.5,1.81,1.78,1.78,0,0,0,2,2,5.77,5.77,0,0,0,3.41-1.25v0a1.88,1.88,0,0,1-.1-.83.37.37,0,0,0,0-.11,2.09,2.09,0,0,1-1,.43c-.54,0-.55-.53-.51-.86a21.48,21.48,0,0,1,1.63-4.38l2.06-4-1.84-.13c-.5,0-1.71-.15-1.71-.15l-1,1.79c-.93,1.79-4,7.72-6.75,7.72-.59,0-1-.23-.9-.73a46.6,46.6,0,0,1,2.33-4.77A12.09,12.09,0,0,0,167,36.89c.13-1.08-.81-1.77-2.1-1.77a7.17,7.17,0,0,0-3.54,1.2,3.16,3.16,0,0,1,.29.68,3.59,3.59,0,0,1,.87-.23.47.47,0,0,1,.51.58C162.93,37.79,160.89,41.88,160.89,41.88Z"/><path class="cls-3" d="M176,41.14c-.26.57-.6,1.31-.89,2a6.29,6.29,0,0,0-.64,2.07c-.15,1.24,1,2.14,2.49,2.14a6.66,6.66,0,0,0,4.38-2.08v0a3.59,3.59,0,0,1-.35-.8,7.34,7.34,0,0,1-.77.67,2.29,2.29,0,0,1-1.25.51c-.65,0-.71-.46-.66-.87a14.73,14.73,0,0,1,1.24-3.18l3.06-6.8c3.06-.31,6.88-.74,8.89.49-2.91.22-5.82,1.12-7.64,3.23a7.75,7.75,0,0,0-1.87,4.16,6,6,0,0,0,0,1.42c.38,2,2.18,3.31,5,3.31,4.75,0,8.9-3.75,9.35-7.45a4.21,4.21,0,0,0-.82-3.35,7.13,7.13,0,0,1,3.07,2.08,3.73,3.73,0,0,0,1.94-1.85c-.67-.65-3.34-1.43-6.45-1.59-1.83-1.25-5-2.29-10.63-2.42L184.72,30a4.8,4.8,0,0,0-3.46,0l-1.38,2.88c-3.7.17-8.09,1.16-16.1-.45l-.21.35C168,34.62,174.85,35,178.87,35Zm16.81-4c.35,1.75-1,4.92-2.57,7.05-2.25,3.12-5.81,3.2-4.55-1.25.2-.7,1.83-6.41,6.69-6.85A3,3,0,0,1,192.76,37.16Z"/><path class="cls-4" d="M25,78.68C19,95,15.79,114,15,138.52a3.87,3.87,0,0,0,3.74,4h.13a3.86,3.86,0,0,0,3.86-3.74c.76-23.7,3.79-41.94,9.52-57.4.5-1.35,1-2.67,1.56-4C43.23,82,56,87.77,66.13,87.16a32.22,32.22,0,0,0,16.68-5.89,23.78,23.78,0,0,0,9.93-14.73c1.6-8.09-1.49-17.19-8.26-24.35-5.88-6.2-13.69-10.33-20-13.65A3.87,3.87,0,0,0,60.2,29C43.67,43.12,32.16,59.36,25,78.68ZM63.24,36.62c5.45,2.92,11.25,6.28,15.62,10.89,5,5.34,7.4,11.89,6.29,17.53C83.44,73.74,73.83,79,65.67,79.44c-8.31.5-20-4.83-28.65-9.1A111.35,111.35,0,0,1,63.24,36.62Z"/><path class="cls-5" d="M41.25,89.14A3.87,3.87,0,0,0,36.59,92c-4,16.9-6,25.94-6.93,46.47a3.86,3.86,0,0,0,3.69,4h.18a3.88,3.88,0,0,0,3.86-3.69c.88-19.87,2.7-28.16,6.72-45A3.87,3.87,0,0,0,41.25,89.14Z"/><path class="cls-6" d="M100.17,65.14c5.7,3.33,9.41,5.91,13.34,8.64,2.51,1.75,5.08,3.54,8.2,5.52a450.49,450.49,0,0,0-76.65,55.94A3.87,3.87,0,0,0,47.65,142h96.16a3.87,3.87,0,0,0,0-7.74H57.86a444,444,0,0,1,73.35-51.46,3.87,3.87,0,0,0,0-6.71c-5.7-3.33-9.41-5.91-13.34-8.64s-7.89-5.48-13.84-9a3.87,3.87,0,1,0-3.91,6.68Z"/><path class="cls-5" d="M107.44,127.12c4.42,0,8.9.06,13.39.06,7.73,0,15.52-.05,23.13-.1,7.29,0,14.17-.1,20.75-.1a3.87,3.87,0,0,0,0-7.74c-6.61,0-13.5.05-20.8.1-5.61,0-11.3.08-17,.1,6.6-2.54,13.47-5.06,19.9-7.43,6.28-2.3,12.21-4.48,16.76-6.27a3.86,3.86,0,0,0,.92-6.68c-3.34-2.53-6.43-5-9.42-7.34-4-3.17-8.13-6.44-12.76-9.81a3.87,3.87,0,0,0-4.55,6.25c4.5,3.28,8.39,6.36,12.51,9.62,1.33,1.06,2.68,2.13,4.07,3.21-3.15,1.18-6.61,2.45-10.19,3.76-12.81,4.7-27.33,10-38.27,15a3.87,3.87,0,0,0,1.56,7.39Z"/><path class="cls-4" d="M154.73,138.34c0,.07,0,.14,0,.21v0l0,.15,0,.19c0,.06,0,.12,0,.17s0,.13.05.19l.09.24a.42.42,0,0,0,0,.1c.05.11.1.22.16.33l0,.06a2,2,0,0,0,.14.25l.07.09.15.2.09.1s.09.11.15.16l.11.11a1,1,0,0,0,.15.13l.12.11.16.11.14.1.16.09.15.09.17.08.16.07.18.06.16.06.21.05.14,0,.28,0h.09l.38,0h46.56a3.87,3.87,0,0,0,2.5-6.83c-5.16-4.35-10.45-9.21-15.57-13.91-5.75-5.28-11.25-10.32-15.89-14a35,35,0,0,0-2.93-2.24l0,0h0l-.07,0-.11-.06-.19-.12-.15-.07-.2-.1-.15-.06-.2-.07-.16-.05-.21,0-.17,0-.2,0h-.74l-.17,0-.2,0-.16,0-.2,0-.16,0-.19.07-.16.07-.18.08-.16.08-.17.11-.15.1-.16.11-.14.12-.15.13-.13.14-.13.14a1,1,0,0,0-.13.16l-.09.11,0,0,0,0-.07.13a1.63,1.63,0,0,0-.11.17,1.3,1.3,0,0,0-.08.17l-.09.18-.07.18-.06.18a1490559529685.27,1490559529685.27,0,0,1-.1.36l0,.19,0,.18a1.34,1.34,0,0,0,0,.2,1,1,0,0,0,0,.17v.2a.91.91,0,0,0,0,.17,1.36,1.36,0,0,0,0,.2l0,.17a1.06,1.06,0,0,0,0,.19.85.85,0,0,0,0,.17l.06.19a1.77,1.77,0,0,0,.06.17l.07.18.08.16.09.17.09.15.11.17a1.71,1.71,0,0,0,.11.14,1,1,0,0,0,.13.16l.11.13.16.15.12.12.18.14.1.08c.73.52,1.5,1.11,2.31,1.74,4,3.39,5.82,7.19,5,10.68-1.27,5.26-8.29,9.42-17.88,10.59l-.12,0-.24,0-.14,0-.23.06-.16.06-.19.08-.17.08-.16.08-.17.11-.15.09-.16.12-.13.11-.15.13-.13.12-.12.14-.13.14-.1.14-.12.16a.64.64,0,0,1-.08.14,1.14,1.14,0,0,0-.1.19s0,.09-.08.14-.05.13-.08.19l-.06.17a4.08,4.08,0,0,0-.11.38.85.85,0,0,0,0,.17,1.7,1.7,0,0,0,0,.22s0,.1,0,.16a1.69,1.69,0,0,0,0,.23s0,.09,0,.13v0A1.41,1.41,0,0,1,154.73,138.34Zm32.12-11.4c2.63,2.42,5.31,4.88,8,7.3H178.18a17.32,17.32,0,0,0,5.34-8.74c.09-.39.19-.85.26-1.37Z"/><path class="cls-7" d="M53.82,72.85A8.51,8.51,0,0,1,52,69.55c-1.54-5.25,2.32-11,8.63-12.85s12.66.9,14.2,6.15a8.84,8.84,0,0,1-.68,6.51C78,66.07,80,61.43,78.22,57.22,74.4,48.34,67.56,45,63.37,43.06c-5.92,5.91-12,13.94-20,25C45.71,70.23,49.56,71.9,53.82,72.85Z"/><ellipse class="cls-4" cx="63.84" cy="67.16" rx="6.92" ry="5.15" transform="translate(-16.33 20.7) rotate(-16.36)"/><ellipse class="cls-4" cx="88.47" cy="123.11" rx="9.3" ry="4.88" transform="translate(-31.09 29.9) rotate(-16.36)"/><path class="cls-7" d="M73.83,91.79c-10.69,2.74-22.65,1.12-22.65,1.12l-6.49,32.52s31-26.12,65.55-49.31c-4.11-2.38-12.48-7.66-12.48-7.66S95.73,86.16,73.83,91.79Z"/><path class="cls-5" d="M3.79,143h.1a3.88,3.88,0,0,0,3.89-3.78C9.61,71.56,34.66,42.07,53.35,25.78a3.89,3.89,0,0,0-5.12-5.87C16.78,47.34,1.46,85.18,0,139A3.89,3.89,0,0,0,3.79,143Z"/><path class="cls-7" d="M128.43,89.57S102.61,108,95.73,114.71l43.86-18Z"/><path class="cls-5" d="M3.89,158.6H205.15a3.9,3.9,0,1,0,0-7.79H3.89a3.9,3.9,0,0,0,0,7.79Z"/><path class="cls-1" d="M103.45,180.24a1.33,1.33,0,0,0-1.33,1h2.36A.92.92,0,0,0,103.45,180.24Z"/><path class="cls-1" d="M79,178.31,78.31,183h.78a2.42,2.42,0,0,0,2.59-2.66c0-1.3-.61-2-1.92-2Z"/><path class="cls-1" d="M119,180.37a1.51,1.51,0,0,0-1.5,1.57,1.08,1.08,0,0,0,1.14,1.17,1.48,1.48,0,0,0,1.48-1.37A1.09,1.09,0,0,0,119,180.37Z"/><path class="cls-1" d="M113.11,180.24a1.34,1.34,0,0,0-1.33,1h2.36A.92.92,0,0,0,113.11,180.24Z"/><path class="cls-1" d="M126.24,181.81a1.1,1.1,0,0,0,1.14,1.3,1.49,1.49,0,0,0,1.5-1.56,1.08,1.08,0,0,0-1.14-1.18,1.48,1.48,0,0,0-1.46,1.27Z"/><path class="cls-1" d="M86.65,180.24a1.34,1.34,0,0,0-1.34,1h2.36A.92.92,0,0,0,86.65,180.24Z"/><path class="cls-1" d="M137.34,202.89h-.78l-2.8,9.53h.86c2.61,0,3.91-5.5,4-7.22S138.09,202.89,137.34,202.89Z"/><path class="cls-1" d="M124.66,195.55h-2.07l-2.46,8.35h1.57c1.8-.21,2.44-1.35,3.12-2.87a11.44,11.44,0,0,0,1-3.77,1.8,1.8,0,0,0-.41-1.41A1,1,0,0,0,124.66,195.55Z"/><path class="cls-8" d="M67.41,190.49A8.2,8.2,0,0,1,65.35,187c-.24-2.51-1.28-9.48-1.28-9.48a1.58,1.58,0,0,0-1.34-1.44c-1.62-.22-4.18-.35-4.18-.35a1.15,1.15,0,0,0-1.09.79,10.42,10.42,0,0,0-.15,2.56c0,.66-.58.27-.58.27a63.5,63.5,0,0,0-6.51-4.69,2.64,2.64,0,0,0-2.95,0,64.42,64.42,0,0,0-21.35,22.13,1.43,1.43,0,0,0-.14.34,1.34,1.34,0,0,0,1,1.63c.77.19,4,.49,4,.49a.94.94,0,0,1,.76,1,140.09,140.09,0,0,0,1.17,18.94c.24,1.29,1.28,1.21,1.28,1.21l6.26-.17c.41,0,.32-.45.32-.45C40.26,217.93,40,212,40,212c0-.32-.37-.54-.37-.54-2.49-1.37-2.44-4.74-2.44-4.74-.08-3.28.42-14.45.42-14.45a.17.17,0,0,1,0-.07.72.72,0,0,1,.81-.62h.07a.75.75,0,0,1,.65.85c-.07.73-.38,10.07-.38,10.07.06,1.48,1.18,1.35,1.18,1.35,1.33.06,1.18-1.61,1.18-1.61-.1-3.44.42-10,.42-10s0,0,0-.06a.77.77,0,0,1,1.52.12c-.3,3.37-.39,10.19-.39,10.19.05,1.51,1.28,1.33,1.28,1.33C45.19,203.82,45,202,45,202c-.1-2.8.43-9.81.43-9.81s0,0,0-.07a.71.71,0,0,1,.84-.52c.76.12.69.69.69.69-.07,1.71-.37,12.34-.37,12.34a19,19,0,0,1,0,3.18,4.91,4.91,0,0,1-2.26,3.6.5.5,0,0,0-.29.48c0,1,.46,7.91.55,8.15s.47.2.47.2c.92-.06,9.07,0,9.07,0,.58,0,.65-.17.65-.17a2,2,0,0,0,.14-.65c.12-1,.54-6.53.54-6.53,0-.45-.31-.45-.31-.45l-1.85-.25c-1.46-.12-1.75-.65-1.75-.65-.46-.77-.36-3.8-.36-3.8a29.93,29.93,0,0,1,5.59-17.06c.82-1.13,1.67-.78,1.67-.78.95.25,1,1.49,1,1.49,1.22,9.56-.58,28.47-.58,28.47-.06.5.3.47.3.47.82,0,4.35.09,4.35.09,1.28.06,1.51-2.25,1.51-2.25.89-5.83,1.07-17.95,1.07-17.95v0a.85.85,0,0,1,.77-.93c.32-.08,3.76-.42,3.76-.42,1.88-.25,1-2.07,1-2.07C71.14,195.74,67.41,190.49,67.41,190.49Z"/><path class="cls-8" d="M115.32,190.49a.63.63,0,0,0-.51-.25h-5.52l-6.76,22.92L100,202l7.86-10.74a.68.68,0,0,0,.12-.24l.14-.47a.27.27,0,0,0-.27-.34h-5.6l-6,8.8,2.56-8a.65.65,0,0,0-.1-.57.64.64,0,0,0-.52-.25H92.59l-4.79,16.3c.1-2.8-2.07-5-3.33-6.4-1-1.14-1.64-1.95-1.53-2.85a2.55,2.55,0,0,1,2.43-2.23,4.68,4.68,0,0,1,2.85.72.72.72,0,0,0,.32.08.86.86,0,0,0,.27-.05.68.68,0,0,0,.39-.42L90.49,191l-.89-.41-.13-.07,0,0h0a8.26,8.26,0,0,0-3.35-.66c-4.86,0-9.29,3.48-10,7.75-.52,3,1.4,5.11,2.8,6.65l.13.14c1,1.08,1.71,1.93,1.54,2.9a3,3,0,0,1-2.84,2.26,6.29,6.29,0,0,1-3.4-.76.9.9,0,0,0-.64-.12.66.66,0,0,0-.45.44L72,213.36l-.15.53A12.9,12.9,0,0,0,77,215.12c4.14,0,7.73-1.59,9.85-5.43L85.62,214a.65.65,0,0,0,.1.57.64.64,0,0,0,.52.25h5.54l1.39-4.7,1.69-2.44,1.3,6.63a.63.63,0,0,0,.63.51h11.66l7-23.73A.65.65,0,0,0,115.32,190.49Z"/><path class="cls-8" d="M131.86,196.72a6.56,6.56,0,0,0-1.6-4.63,5.7,5.7,0,0,0-4.25-1.85h-9.18l-.39,1.3a.42.42,0,0,0,0,.36l.26.41a1.65,1.65,0,0,1,.18,1.35L111,214a.65.65,0,0,0,.1.57.62.62,0,0,0,.51.26h5.34l1.67-5.64H121c5.81.08,8.76-4,10.08-8.45A14.78,14.78,0,0,0,131.86,196.72Zm-7,4.31c-.68,1.52-1.32,2.66-3.12,2.87h-1.57l2.46-8.35h2.07a1,1,0,0,1,.76.3,1.8,1.8,0,0,1,.41,1.41A11.44,11.44,0,0,1,124.82,201Z"/><path class="cls-8" d="M138,200.52h-3.6l-4.1,13.87a.31.31,0,0,0,.3.39H134c5.41,0,7.3-6.78,7.47-9.63C141.65,202,139.91,200.52,138,200.52Zm.62,4.68c-.1,1.72-1.4,7.22-4,7.22h-.86l2.8-9.53h.78C138.09,202.89,138.73,203.56,138.63,205.2Z"/><path class="cls-8" d="M142,198.56h1.32l2.27-7.77a.18.18,0,0,0-.17-.23h-1.32l-.94,3.23H141.6l.87-3a.19.19,0,0,0-.18-.23H141l-2.28,7.77a.19.19,0,0,0,.18.23h1.31l1-3.45h1.58l-.93,3.22A.18.18,0,0,0,142,198.56Z"/><path class="cls-8" d="M150.18,191.89l.32-1.1a.19.19,0,0,0-.18-.24H147l0,.13-2.23,7.64a.19.19,0,0,0,.18.24h3.36s.32-1.09.33-1.1a.18.18,0,0,0-.18-.24h-1.82l.62-2.07h1.65l.33-1.1a.18.18,0,0,0-.18-.23h-1.41l.57-1.93Z"/><path class="cls-8" d="M135.22,198.56h1.31l2-6.67h1.25l.31-1.1a.19.19,0,0,0-.18-.24h-3.82l-.31,1.1a.18.18,0,0,0,.17.24h1L135,198.32A.18.18,0,0,0,135.22,198.56Z"/><path class="cls-8" d="M147.23,200.52h-2.37l-4.08,13.88a.31.31,0,0,0,.3.39h2.37l4.08-13.88A.31.31,0,0,0,147.23,200.52Z"/><path class="cls-8" d="M166.34,200.52H164l-1.69,5.75h-2.82l1.57-5.36a.31.31,0,0,0-.3-.39h-2.37l-4.08,13.88a.3.3,0,0,0,.29.39H157l1.8-6.16h2.82l-1.68,5.77a.3.3,0,0,0,.29.39h2.38l4.07-13.88A.3.3,0,0,0,166.34,200.52Z"/><path class="cls-8" d="M172.42,206.34h-2.49l1-3.45h3.66l.58-2a.31.31,0,0,0-.3-.39h-6l-4.07,13.88a.3.3,0,0,0,.29.39h6l.57-2a.3.3,0,0,0-.29-.39h-3.26l1.11-3.71h2.87l.6-2A.31.31,0,0,0,172.42,206.34Z"/><path class="cls-8" d="M151.23,204.39a2,2,0,0,1,1.86-1.71,3.45,3.45,0,0,1,1.56.28.46.46,0,0,0,.62-.26l.57-1.93a6.08,6.08,0,0,0-2.34-.49,5.6,5.6,0,0,0-5.46,4.45c-.28,1.71.81,2.94,1.59,3.86.62.7,1.12,1.32,1,2.11a2.12,2.12,0,0,1-2,1.81,3.47,3.47,0,0,1-1.88-.34.42.42,0,0,0-.62.27l-.62,2.1a7.6,7.6,0,0,0,2.74.51,5.67,5.67,0,0,0,5.58-4.64c.27-1.74-.81-3-1.59-3.94C151.61,205.76,151.11,205.14,151.23,204.39Z"/><path class="cls-8" d="M175.51,204.73c-.27,1.71.82,2.94,1.6,3.86.62.7,1.11,1.32,1,2.11a2.13,2.13,0,0,1-2,1.81,3.48,3.48,0,0,1-1.88-.34.42.42,0,0,0-.62.27l-.62,2.1a7.67,7.67,0,0,0,2.74.51,5.67,5.67,0,0,0,5.58-4.64c.28-1.74-.8-3-1.58-3.94-.6-.71-1.09-1.33-1-2.08a2,2,0,0,1,1.86-1.71,3.5,3.5,0,0,1,1.56.28.45.45,0,0,0,.61-.26l.57-1.93a6.08,6.08,0,0,0-2.34-.49A5.6,5.6,0,0,0,175.51,204.73Z"/><path class="cls-9" d="M77.81,177a.17.17,0,0,0-.18.15l-1,7a.13.13,0,0,0,.14.16h2.15a4,4,0,0,0,4.26-4.14A2.94,2.94,0,0,0,80,177Zm3.87,3.32A2.42,2.42,0,0,1,79.09,183h-.78l.66-4.66h.79C81.07,178.31,81.68,179,81.68,180.31Z"/><path class="cls-9" d="M88.92,181.51a2,2,0,0,0-2.11-2.46,3,3,0,0,0-3,3,2.27,2.27,0,0,0,2.45,2.35,2.74,2.74,0,0,0,1.84-.65c.11-.08.12-.14,0-.27l-.27-.45c-.07-.11-.14-.13-.24-.08a2.43,2.43,0,0,1-1.14.29c-.78,0-1.23-.34-1.31-1H88.3C88.67,182.28,88.85,182,88.92,181.51Zm-3.61-.24a1.34,1.34,0,0,1,1.34-1,.92.92,0,0,1,1,1Z"/><path class="cls-9" d="M90.71,176.83a.18.18,0,0,0-.18.16l-1,7.15a.13.13,0,0,0,.13.16H90.8a.18.18,0,0,0,.18-.16L92,177c0-.1,0-.16-.13-.16Z"/><path class="cls-9" d="M93.11,179.18a.19.19,0,0,0-.19.16l-.66,4.8c0,.09,0,.16.14.16h1.13a.19.19,0,0,0,.18-.16l.67-4.8a.13.13,0,0,0-.14-.16Z"/><path class="cls-9" d="M100.57,179.18H99.41a.22.22,0,0,0-.2.12l-1.68,3.34-.72-3.34a.17.17,0,0,0-.18-.12H95.48c-.11,0-.17.06-.14.18l1.23,4.81a.17.17,0,0,0,.18.13h1.16a.22.22,0,0,0,.19-.13l2.57-4.81C100.74,179.24,100.68,179.18,100.57,179.18Z"/><path class="cls-9" d="M105.73,181.51a2,2,0,0,0-2.11-2.46,3,3,0,0,0-3,3,2.28,2.28,0,0,0,2.46,2.35,2.71,2.71,0,0,0,1.83-.65c.12-.08.13-.14,0-.27l-.28-.45c-.07-.11-.13-.13-.24-.08a2.37,2.37,0,0,1-1.13.29c-.79,0-1.24-.34-1.31-1h3.1C105.48,182.28,105.66,182,105.73,181.51Zm-3.61-.24a1.33,1.33,0,0,1,1.33-1,.92.92,0,0,1,1,1Z"/><path class="cls-9" d="M106.47,184.3h1.14a.18.18,0,0,0,.18-.16l.35-2.57c.11-.76.49-1.21,1.2-1.21a1.4,1.4,0,0,1,.4,0c.16,0,.23,0,.25-.12l.13-.9a.19.19,0,0,0-.08-.21.75.75,0,0,0-.47-.13,1.38,1.38,0,0,0-1.22,1l.05-.67c0-.1,0-.16-.13-.16h-1.09a.18.18,0,0,0-.18.16l-.66,4.8A.13.13,0,0,0,106.47,184.3Z"/><path class="cls-9" d="M115.39,181.51a2,2,0,0,0-2.11-2.46,3,3,0,0,0-3,3,2.28,2.28,0,0,0,2.46,2.35,2.74,2.74,0,0,0,1.84-.65c.11-.08.12-.14,0-.27l-.27-.45c-.08-.11-.14-.13-.24-.08a2.43,2.43,0,0,1-1.14.29c-.79,0-1.23-.34-1.31-1h3.1C115.14,182.28,115.32,182,115.39,181.51Zm-3.61-.24a1.34,1.34,0,0,1,1.33-1,.92.92,0,0,1,1,1Z"/><path class="cls-9" d="M120,184.3h1a.2.2,0,0,0,.19-.16l1-7.15a.13.13,0,0,0-.14-.16h-1.13a.17.17,0,0,0-.18.16l-.36,2.87a1.63,1.63,0,0,0-1.54-.81,2.93,2.93,0,0,0-2.79,3.11,2,2,0,0,0,2.08,2.26,2.19,2.19,0,0,0,1.76-.82l0,.54A.13.13,0,0,0,120,184.3Zm-1.38-1.19a1.08,1.08,0,0,1-1.14-1.17,1.51,1.51,0,0,1,1.5-1.57,1.09,1.09,0,0,1,1.12,1.37A1.48,1.48,0,0,1,118.61,183.11Z"/><path class="cls-9" d="M126.79,176.83h-1.14a.17.17,0,0,0-.18.16l-1,7.15a.13.13,0,0,0,.13.16h1.14a.18.18,0,0,0,.18-.16l.07-.51a1.68,1.68,0,0,0,1.54.79,2.88,2.88,0,0,0,2.77-3.07,2,2,0,0,0-2.08-2.3,2.2,2.2,0,0,0-1.69.74l.39-2.8C126.93,176.89,126.88,176.83,126.79,176.83Zm.95,3.54a1.08,1.08,0,0,1,1.14,1.18,1.49,1.49,0,0,1-1.5,1.56,1.1,1.1,0,0,1-1.14-1.3l0-.17A1.48,1.48,0,0,1,127.74,180.37Z"/><path class="cls-9" d="M131.32,186.28h1.1a.25.25,0,0,0,.21-.12l3.66-6.8c.06-.12,0-.18-.1-.18H135a.21.21,0,0,0-.2.12l-1.71,3.34-.72-3.34a.17.17,0,0,0-.18-.12h-1.15c-.12,0-.18.06-.15.18l1.27,4.94-1,1.8C131.15,186.22,131.21,186.28,131.32,186.28Z"/><path class="cls-1" d="M269,62.34c0,1.55,1.5,2.54,3.14,2.54,2.9,0,4.89-1.79,4.89-3.74V58.2c-1.44,1.55-4.79,1.25-6.63,2A2.16,2.16,0,0,0,269,62.34Z"/><path class="cls-1" d="M334.69,50h-9.5v12.2h10.4c3.11,0,6.39-2,6.39-6S339.28,50,334.69,50Z"/><polygon class="cls-1" points="541.75 53.42 535.36 74.95 548.29 74.95 541.91 53.42 541.75 53.42"/><path class="cls-9" d="M382.47,219.69a1.27,1.27,0,0,0-1.28-1.29,1.31,1.31,0,1,0,0,2.61A1.28,1.28,0,0,0,382.47,219.69Z"/><path class="cls-3" d="M360.32,56.12c0-16-11.3-20.38-25.71-20.38h-17c-7.29,0-10.72,3.35-10.72,11.21v39c0,6.3,3.27,9.82,9.17,9.82s9.16-3.52,9.16-9.82v-9.5h9.42C349,76.42,360.32,72,360.32,56.12Zm-24.73,6.06h-10.4V50h9.5c4.59,0,7.29,2.29,7.29,6.22S338.7,62.18,335.59,62.18Z"/><path class="cls-3" d="M389.14,85.59V44.82c0-6.3-3.6-10.15-9.42-10.15s-9.41,3.85-9.41,10.15V85.59c0,6.31,3.6,10.15,9.41,10.15S389.14,91.9,389.14,85.59Z"/><path class="cls-3" d="M452.91,87.31c0-4.83-2.94-7.37-8.59-7.37H423l25.22-28c2.86-3.2,3.76-5.24,3.76-8,0-4.58-2.62-8.26-8.59-8.26H407.89c-6.14,0-9,2.94-9,7.36s2.87,7.37,9,7.37h18.33l-23.57,26.2c-4.1,4.5-5.24,6.63-5.24,9.74,0,4.59,2.86,8.27,9.25,8.27h37.66C450,94.68,452.91,92.14,452.91,87.31Z"/><path class="cls-3" d="M512,87.31c0-4.83-2.94-7.37-8.59-7.37H482.14l25.22-28c2.86-3.2,3.76-5.24,3.76-8,0-4.58-2.62-8.26-8.59-8.26H467c-6.14,0-9,2.94-9,7.36s2.87,7.37,9,7.37h18.34l-23.58,26.2c-4.1,4.5-5.24,6.63-5.24,9.74,0,4.59,2.86,8.27,9.25,8.27h37.66C509.08,94.68,512,92.14,512,87.31Z"/><path class="cls-3" d="M553.78,42.29c-1.8-4.92-4.26-7.62-9-7.62h-5.89c-4.75,0-7.2,2.7-9,7.62L517.35,77.16c-1.39,3.93-3,8.27-3,11,0,4.42,4.34,7.61,8.6,7.61,3,0,6.63-1.3,7.61-4.66l1.31-4.34h19.81L553,91.08c1,3.36,4.67,4.66,7.62,4.66,4.25,0,8.59-3.19,8.59-7.61,0-2.7-1.55-7-2.94-11ZM535.36,75l6.39-21.53h.16L548.3,75Z"/><path class="cls-3" d="M277.3,143.68h.22l6.88,36.48c1.42,7.64,4.91,11.57,12.23,11.57h3.82c7.32,0,11.36-4.15,13.11-11.25l11-44.77c1.53-6.23,2.73-11.14,2.73-14.53,0-6.33-4.7-10.92-11.36-10.92-5.79,0-10.7,2.41-11.9,10l-6.88,42.81H297l-6.88-40.74c-1.42-8.62-4-12.12-12.67-12.12s-11.25,3.5-12.67,12.12l-6.88,40.74h-.22l-6.88-42.81c-1.2-7.64-6.11-10-11.9-10-6.66,0-11.36,4.59-11.36,10.92,0,3.39,1.2,8.3,2.73,14.53l11,44.77c1.75,7.1,5.79,11.25,13.11,11.25h3.82c7.32,0,10.81-3.93,12.23-11.57Z"/><path class="cls-3" d="M405.29,181.14c0-5.46-3.38-9.18-10.92-9.18H364V159.41h23.37c7.54,0,10.92-3.72,10.92-9.18s-3.38-9.17-10.92-9.17H364V130h29.16c7.54,0,10.92-3.71,10.92-9.17s-3.38-9.18-10.92-9.18h-40c-9.72,0-14.31,4.48-14.31,15v48.71c0,10.48,4.59,15,14.31,15h41.17C401.91,190.31,405.29,186.6,405.29,181.14Z"/><path class="cls-3" d="M484.14,181.14c0-5.46-3.39-9.18-10.92-9.18H442.86V159.41h23.37c7.54,0,10.92-3.72,10.92-9.18s-3.38-9.17-10.92-9.17H442.86V130H472c7.53,0,10.92-3.71,10.92-9.17s-3.39-9.18-10.92-9.18h-40c-9.72,0-14.31,4.48-14.31,15v48.71c0,10.48,4.59,15,14.31,15h41.17C480.75,190.31,484.14,186.6,484.14,181.14Z"/><path class="cls-3" d="M547.48,142.92l11.79-13c3.28-3.39,4.81-5.46,4.81-9.06a11.23,11.23,0,0,0-11.14-10.6c-4.15,0-6.55,2.08-11.47,7.43l-19.76,21.62V123.8c0-8.4-4.81-13.54-12.56-13.54s-12.56,5.14-12.56,13.54v54.39c0,8.41,4.81,13.54,12.56,13.54s12.56-5.13,12.56-13.54V167.38l7.1-7.76L546,186.16c2.84,4.48,6.44,5.57,10.38,5.57,6.55,0,12.77-5,12.77-11.57a14,14,0,0,0-2.51-7.43Z"/><path class="cls-3" d="M233.65,69.92H250.6c3,0,4.94-1.7,4.94-4.64s-2-4.64-4.94-4.64h-12V39.54c0-3.84-2.19-6.18-5.73-6.18s-5.74,2.34-5.74,6.18V63.09C227.11,67.88,229.21,69.92,233.65,69.92Z"/><path class="cls-3" d="M271.6,54.26c-10.22.65-13.21,3.89-13.21,8.23,0,5.73,4,8.08,9.72,8.08,3.54,0,7.19-1.15,9.18-4.14.35,2.34,1.65,4.14,5.19,4.14,2.44,0,4.79-1.1,4.79-3.64,0-1.25-.3-2.85-.3-4.64V50.87c0-6.44-8.38-7.68-13.82-7.68-7.13,0-12.52,2.49-12.52,6.33a2.93,2.93,0,0,0,3.24,3.19c3.49,0,4.54-3.54,9-3.54,2.74,0,4.14.9,4.14,2.54S275.45,54,271.6,54.26ZM277,61.14c0,2-2,3.74-4.89,3.74-1.64,0-3.14-1-3.14-2.54a2.16,2.16,0,0,1,1.4-2.15c1.84-.74,5.19-.44,6.63-2Z"/><path class="cls-5" d="M233.4,95.8H283a6.37,6.37,0,0,0,0-12.73H233.4a6.37,6.37,0,1,0,0,12.73Z"/></g></g></svg>