<svg xmlns="http://www.w3.org/2000/svg" viewBox="0 0 463.04 693.25"><defs><style>.cls-1{fill:none;}.cls-2{fill:#ff8000;}.cls-3{fill:#fd8000;}.cls-4{fill:#eb422e;}.cls-5{fill:#f59745;}.cls-6{fill:#4a9343;}.cls-7{fill:#f4b88c;}.cls-8{fill:#261c1f;}.cls-9{fill:#cf3339;}.cls-10{fill:#fff;}</style></defs><g id="Layer_2" data-name="Layer 2"><g id="light_expanded" data-name="light expanded"><path class="cls-1" d="M460,50.33a.77.77,0,0,0,.27-.08.48.48,0,0,0,.18-.17.53.53,0,0,0,.07-.31.47.47,0,0,0-.07-.26.7.7,0,0,0-.19-.15,1,1,0,0,0-.26-.06l-.27,0h-.71v1.06h1Z"/><path class="cls-1" d="M313.2,661.45c-3.12,0-5.61,9-5.87,12.55-.15,2,.2,3.29,1.49,3.29h0l-.39-4.56H311a.6.6,0,0,1,.6.54l.13,1.43a28.41,28.41,0,0,0,3-9.88C314.87,662.81,314.49,661.45,313.2,661.45Z"/><path class="cls-1" d="M317.93,9.1a2.33,2.33,0,0,0-1.64-.31,2.24,2.24,0,0,0-1.43.74,2.32,2.32,0,0,0-.54,1.59l4.45-.66A1.84,1.84,0,0,0,317.93,9.1Z"/><path class="cls-1" d="M202.24,604.16a3,3,0,0,0-3,2.27h5.22A2,2,0,0,0,202.24,604.16Z"/><polygon class="cls-1" points="349.04 672.74 350.37 661.93 345.4 672.74 349.04 672.74"/><path class="cls-1" d="M451.33,52.11a1.71,1.71,0,0,0,.32-.71,4.83,4.83,0,0,0,0-1.75,1.71,1.71,0,0,0-.32-.71,1.46,1.46,0,0,0-.63-.47,2.62,2.62,0,0,0-1.05-.17h-1.07v4.45h1.07a2.81,2.81,0,0,0,1.05-.17A1.46,1.46,0,0,0,451.33,52.11Z"/><path class="cls-1" d="M283.45,18.88a1.9,1.9,0,0,0-1.11-1.17,2.35,2.35,0,0,0-1.67,0,2.27,2.27,0,0,0-1.24,1,2.33,2.33,0,0,0-.21,1.67Z"/><path class="cls-1" d="M189.47,604.16a3,3,0,0,0-3,2.27h5.23A2,2,0,0,0,189.47,604.16Z"/><polygon class="cls-1" points="223.66 390.06 223.5 390.06 217 411.96 230.16 411.96 223.66 390.06"/><path class="cls-1" d="M248.87,638.06l-4.58,0-5.45,18.51,3.48,0c4-.46,5.41-3,6.93-6.36a25.82,25.82,0,0,0,2.23-8.34,3.93,3.93,0,0,0-.92-3.13A2.28,2.28,0,0,0,248.87,638.06Z"/><path class="cls-1" d="M361.92,13.09a2.43,2.43,0,0,0,1.87-.65,2.93,2.93,0,0,0,.89-2.06,2.93,2.93,0,0,0-.59-2.18,2.53,2.53,0,0,0-3.63-.26,2.88,2.88,0,0,0-.89,2.05,2.92,2.92,0,0,0,.59,2.18A2.42,2.42,0,0,0,361.92,13.09Z"/><path class="cls-1" d="M348.32,12.6a2.49,2.49,0,0,0,1.84-.77,2.91,2.91,0,0,0,.77-2.13,2.89,2.89,0,0,0-.72-2.12,2.49,2.49,0,0,0-1.84-.79,2.45,2.45,0,0,0-1.82.76,3,3,0,0,0-.77,2.12,2.89,2.89,0,0,0,.73,2.13A2.4,2.4,0,0,0,348.32,12.6Z"/><path class="cls-1" d="M457.87,52.43a2.32,2.32,0,0,0,.79.58,2.65,2.65,0,0,0,2,0,2.63,2.63,0,0,0,.8-.56,2.72,2.72,0,0,0,.53-.85,3.25,3.25,0,0,0,0-2.19,2.61,2.61,0,0,0-.53-.85,2.37,2.37,0,0,0-1.78-.75,2.53,2.53,0,0,0-1,.19,2.46,2.46,0,0,0-.8.56,2.61,2.61,0,0,0-.53.85,3,3,0,0,0-.19,1.09,3.21,3.21,0,0,0,.17,1A2.65,2.65,0,0,0,457.87,52.43Zm.59-3.65h1.37a1.68,1.68,0,0,1,1,.24.93.93,0,0,1,.33.8.88.88,0,0,1-.27.71,1.23,1.23,0,0,1-.67.27l1,1.59h-.67l-.93-1.54h-.56v1.54h-.6Z"/><path class="cls-1" d="M331.12,7.68a2.28,2.28,0,0,0-1.62-.41,2.23,2.23,0,0,0-1.47.65,2.33,2.33,0,0,0-.65,1.55l4.49-.37A1.85,1.85,0,0,0,331.12,7.68Z"/><path class="cls-1" d="M394.66,297.81H431.6c-6-5.37-11.9-10.82-17.74-16.17l-6.8-6.24c-.16,1.15-.36,2.18-.57,3A38.42,38.42,0,0,1,394.66,297.81Z"/><path class="cls-1" d="M234,604.44a3.33,3.33,0,0,0-3.33,3.47,2.38,2.38,0,0,0,2.52,2.59,3.27,3.27,0,0,0,3.28-3A2.41,2.41,0,0,0,234,604.44Z"/><path class="cls-1" d="M433.9,377h-1.25v8.82h1.25c3.25,0,4.06-1.62,4.06-4.41S437.15,377,433.9,377Z"/><path class="cls-1" d="M283.37,630.08l-4.44,15.12h1.36c4.14,0,6.21-8.73,6.37-11.45s-.86-3.67-2.06-3.67Z"/><path class="cls-1" d="M323.13,630.08h-1.19l-2,6.8h1.36c2.1,0,3.42-2.25,3.58-4.42C325,630.79,324.25,630.08,323.13,630.08Z"/><polygon class="cls-1" points="452.81 399.84 452.77 399.84 450.86 406.28 454.72 406.28 452.81 399.84"/><polygon class="cls-1" points="414.57 485.76 403.32 523.7 426.11 523.7 414.86 485.76 414.57 485.76"/><path class="cls-1" d="M385.84,661.46c-3.13,0-5.62,9-5.88,12.54-.14,2,.2,3.29,1.49,3.29,3.09,0,5.65-8.94,5.91-12.47C387.51,662.81,387.13,661.46,385.84,661.46Z"/><path class="cls-1" d="M62.58,490.66c0-6.92-4.76-11-12.84-11H33v21.49H51.32C56.81,501.19,62.58,497.73,62.58,490.66Z"/><path class="cls-1" d="M373.15,645.57c3.09,0,5.65-8.93,5.91-12.47.14-2-.23-3.36-1.53-3.36-3.12,0-5.61,9-5.87,12.54C371.51,644.25,371.86,645.57,373.15,645.57Z"/><path class="cls-1" d="M260.42,29.35a1.86,1.86,0,0,0-1.3-.94,2.36,2.36,0,0,0-1.63.34,2.22,2.22,0,0,0-.93,2.92Z"/><path class="cls-1" d="M145.45,176.43c18.08-1.09,39.36-12.64,43.16-31.9,2.46-12.49-2.75-27-13.94-38.83C165,95.48,152.14,88,140.08,81.58,115.13,103.72,96,128.35,82,156.27,101.24,165.73,127.05,177.54,145.45,176.43Zm-.83-16.26c-8.13,2.38-16.15-.59-17.93-6.64s3.37-12.89,11.5-15.27,16.15.58,17.93,6.63S152.75,157.78,144.62,160.17Zm-4.27-64.34c9.3,4.22,24.45,11.72,32.9,31.37,4,9.34-.42,19.61-9.12,26.89a19.62,19.62,0,0,0,1.51-14.42c-3.41-11.62-17.49-17.71-31.46-13.61s-22.52,16.83-19.11,28.45a18.7,18.7,0,0,0,4.14,7.33c-9.43-2.11-18-5.82-23.18-10.7C113.75,126.73,127.25,108.94,140.35,95.83Z"/><path class="cls-1" d="M219.54,610.5a3.28,3.28,0,0,0,3.31-3.45,2.39,2.39,0,0,0-2.52-2.61,3.33,3.33,0,0,0-3.29,3A2.43,2.43,0,0,0,219.54,610.5Z"/><path class="cls-1" d="M240,40.44a1.83,1.83,0,0,0-1.31-.63,2.11,2.11,0,0,0-1.44.72l-1.41,1.35,2.57,2.67,1.41-1.36a2.19,2.19,0,0,0,.77-1.41A1.81,1.81,0,0,0,240,40.44Z"/><path class="cls-2" d="M122.07,626.86c-4.1-4.8-4.56-7.63-4.56-7.63-.52-5.57-2.83-21-2.83-21a3.52,3.52,0,0,0-3-3.19c-3.6-.48-9.27-.76-9.27-.76A2.56,2.56,0,0,0,100,596c-.52,1.34-.32,5.67-.32,5.67,0,1.48-1.28.61-1.28.61A142,142,0,0,0,84,591.87a5.92,5.92,0,0,0-6.53,0c-31.9,19.78-47.28,49-47.28,49a2.9,2.9,0,0,0-.31.75A2.94,2.94,0,0,0,32,645.25c1.72.43,8.83,1.09,8.83,1.09a2.1,2.1,0,0,1,1.69,2.28c-.42,17.37,2.13,39.28,2.58,41.93.53,2.86,2.83,2.7,2.83,2.7l13.88-.38c.91,0,.7-1,.7-1-.56-4.24-1.18-17.37-1.18-17.37,0-.71-.83-1.18-.83-1.18-5.52-3-5.42-10.5-5.42-10.5-.16-7.27.95-32,.95-32s0-.11,0-.16a1.6,1.6,0,0,1,1.79-1.37H58a1.67,1.67,0,0,1,1.44,1.88c-.17,1.6-.85,22.29-.85,22.29.14,3.29,2.61,3,2.61,3,2.95.14,2.61-3.56,2.61-3.56-.21-7.64.95-22.09.95-22.09a.68.68,0,0,1,0-.14,1.62,1.62,0,0,1,1.87-1.35,1.59,1.59,0,0,1,1.48,1.62c-.66,7.46-.86,22.58-.86,22.58.13,3.34,2.84,2.94,2.84,2.94,2.77-.08,2.38-4.1,2.38-4.1-.23-6.19.94-21.73.94-21.73l0-.14a1.55,1.55,0,0,1,1.86-1.16c1.67.25,1.53,1.53,1.53,1.53-.17,3.77-.83,27.34-.83,27.34a44.47,44.47,0,0,1-.1,7,10.86,10.86,0,0,1-5,8,1.12,1.12,0,0,0-.63,1.08c0,2.18,1,17.51,1.22,18s1,.44,1,.44c2-.13,20.1,0,20.1,0,1.28,0,1.44-.36,1.44-.36a4.58,4.58,0,0,0,.3-1.46c.26-2.18,1.21-14.46,1.21-14.46.06-1-.7-1-.7-1l-4.1-.55c-3.23-.27-3.87-1.44-3.87-1.44-1-1.71-.79-8.41-.79-8.41a66.37,66.37,0,0,1,12.37-37.79c1.82-2.5,3.71-1.73,3.71-1.73,2.1.56,2.2,3.29,2.2,3.29,2.7,21.18-1.27,63.06-1.27,63.06-.13,1.11.67,1.05.67,1.05,1.81-.05,9.62.2,9.62.2,2.85.13,3.36-5,3.36-5,2-12.9,2.36-39.75,2.36-39.75v-.06a1.9,1.9,0,0,1,1.71-2.06c.72-.18,8.33-.94,8.33-.94,4.17-.54,2.22-4.58,2.22-4.58C130.34,638.48,122.07,626.86,122.07,626.86Z"/><path class="cls-2" d="M228.2,626.87a1.45,1.45,0,0,0-1.15-.58l-12.21,0-15,50.77-5.69-24.67,17.42-23.78a1.56,1.56,0,0,0,.25-.52l.31-1a.61.61,0,0,0-.59-.78H199.15L185.83,645.8l5.69-17.67a1.45,1.45,0,0,0-.23-1.26,1.43,1.43,0,0,0-1.14-.58H177.86L167.23,662.4c.23-6.21-4.57-11.09-7.37-14.18-2.27-2.52-3.64-4.31-3.39-6.3a5.69,5.69,0,0,1,5.38-4.95c3.06-.24,4.37.69,6.32,1.61a1.81,1.81,0,0,0,.72.17,1.66,1.66,0,0,0,.58-.11,1.49,1.49,0,0,0,.87-.92l2.86-9.66-2-.93-.29-.13-.09,0a18.34,18.34,0,0,0-7.44-1.46c-10.77,0-20.56,7.71-22.17,17.18-1.14,6.63,3.11,11.31,6.22,14.73l.27.3c2.24,2.4,3.79,4.27,3.43,6.43-.52,3-3.47,4.77-6.31,5-3.13.26-5.08-.62-7.53-1.69a2.1,2.1,0,0,0-1.42-.26,1.51,1.51,0,0,0-1,1l-2.73,9.33-.34,1.2a28.66,28.66,0,0,0,11.55,2.71c9.17,0,17.11-3.53,21.81-12l-2.78,9.48a1.43,1.43,0,0,0,.23,1.25,1.4,1.4,0,0,0,1.14.58h12.29l3.07-10.43,3.74-5.39,2.88,14.67a1.42,1.42,0,0,0,1.4,1.15H213l15.46-52.56A1.45,1.45,0,0,0,228.2,626.87Z"/><path class="cls-2" d="M264.83,640.67c0-4.31-1.09-7.55-3.56-10.27a12.58,12.58,0,0,0-9.39-4.09H231.54l-.87,2.87a1,1,0,0,0,.11.8l.58.91a3.58,3.58,0,0,1,.4,3l-13.2,45a1.43,1.43,0,0,0,1.35,1.85h11.83l3.69-12.5,5.34,0c12.88.17,19.41-8.88,22.33-18.71A33.34,33.34,0,0,0,264.83,640.67Zm-15.58,9.53c-1.52,3.38-2.93,5.9-6.93,6.36l-3.48,0L244.29,638l4.58,0a2.28,2.28,0,0,1,1.69.67,3.93,3.93,0,0,1,.92,3.13A25.82,25.82,0,0,1,249.25,650.2Z"/><path class="cls-2" d="M300.52,627a.49.49,0,0,0-.48-.64h-3.61l-4.66,15.93a7.2,7.2,0,0,0-.28,1.5c-.26,3.5,2.17,5.64,5.43,5.64s6.27-2.1,7.72-7l4.54-15.54a.45.45,0,0,0-.43-.57h-3.69l-4.75,16.31c-.64,2.17-1.55,3-2.81,3a1.68,1.68,0,0,1-1.75-2,8.28,8.28,0,0,1,.17-1Z"/><path class="cls-2" d="M280,626.3l-6.51,22a.49.49,0,0,0,.47.62l5.38,0c8.59,0,11.58-10.78,11.85-15.3.3-5-2.46-7.38-5.48-7.38Zm6.7,7.45c-.16,2.72-2.23,11.45-6.37,11.45h-1.36l4.44-15.12h1.23C285.8,630.08,286.82,631.13,286.66,633.75Z"/><path class="cls-2" d="M352.89,625.71c-4,0-8,3-8.67,7.07-.44,2.72,1.29,4.66,2.53,6.12,1,1.12,1.77,2.11,1.57,3.37a3.34,3.34,0,0,1-3.23,2.85,5.32,5.32,0,0,1-3-.52.67.67,0,0,0-1,.42l-1,3.34a12.11,12.11,0,0,0,4.35.81,9,9,0,0,0,8.86-7.37c.44-2.76-1.28-4.8-2.52-6.26-.94-1.13-1.73-2.11-1.54-3.3a3.19,3.19,0,0,1,3-2.72,5.62,5.62,0,0,1,2.48.44.71.71,0,0,0,1-.41l.9-3.06A9.61,9.61,0,0,0,352.89,625.71Z"/><path class="cls-2" d="M337.84,645.2h-5.18l1.76-5.88H339l.94-3.15a.48.48,0,0,0-.47-.62h-3.95l1.63-5.47H343l.91-3.16a.48.48,0,0,0-.47-.62h-9.59l-6.48,22.06a.48.48,0,0,0,.47.62h9.59l.91-3.16A.48.48,0,0,0,337.84,645.2Z"/><path class="cls-2" d="M369,630.08l.88-3.11a.51.51,0,0,0-.5-.66H358.58l-.88,3.11a.52.52,0,0,0,.51.66h2.85l-5.34,18.23a.52.52,0,0,0,.51.66H360l5.54-18.89Z"/><path class="cls-2" d="M372.64,649.38c6.86,0,10.41-11,10.79-16.17.3-4-1.27-7.28-5.34-7.28-6.87,0-10.43,11.05-10.81,16.25C367,646.19,368.56,649.38,372.64,649.38Zm-1-7.1c.26-3.57,2.75-12.54,5.87-12.54,1.3,0,1.67,1.36,1.53,3.36-.26,3.54-2.82,12.47-5.91,12.47C371.86,645.57,371.51,644.25,371.66,642.28Z"/><path class="cls-2" d="M329.38,632.05c.24-3.23-1.83-5.74-5-5.74h-5.64l-6.46,22a.5.5,0,0,0,.48.64h3.61l2.45-8.32h1.53v7.82a.5.5,0,0,0,.5.5h3.95l-.39-9.1C326.66,639.05,329.1,635.82,329.38,632.05Zm-4.52.41c-.16,2.17-1.48,4.42-3.58,4.42h-1.36l2-6.8h1.19C324.25,630.08,325,630.79,324.86,632.46Z"/><path class="cls-2" d="M353.33,658H349L338,680a.51.51,0,0,0,.46.74h3.45l1.91-4.18h4.69l-.47,3.61a.5.5,0,0,0,.5.57H352l1.85-22.11A.52.52,0,0,0,353.33,658ZM349,672.74H345.4l5-10.81Z"/><path class="cls-2" d="M350.57,656.27h2.32l-.92-4a.62.62,0,0,0-.61-.48H348l2,4.09A.62.62,0,0,0,350.57,656.27Z"/><path class="cls-2" d="M410.37,664.49c-.44,2.72,1.3,4.67,2.53,6.13,1,1.12,1.77,2.11,1.57,3.36a3.35,3.35,0,0,1-3.23,2.86,5.33,5.33,0,0,1-3-.53.68.68,0,0,0-1,.43l-1,3.34a12.24,12.24,0,0,0,4.35.8,9,9,0,0,0,8.86-7.37c.44-2.75-1.28-4.8-2.52-6.26-.94-1.12-1.73-2.1-1.54-3.29a3.19,3.19,0,0,1,3-2.72,5.6,5.6,0,0,1,2.48.44.72.72,0,0,0,1-.41l.9-3.06a9.61,9.61,0,0,0-3.71-.78C415,657.43,411,660.42,410.37,664.49Z"/><path class="cls-2" d="M377.89,658h-3.7L367,673.85l1.58-15.27A.51.51,0,0,0,368,658H364.3l-1.88,22.14a.49.49,0,0,0,.49.53h4.39l11-21.93A.51.51,0,0,0,377.89,658Z"/><path class="cls-2" d="M386.39,657.65c-6.87,0-10.43,11-10.81,16.24-.29,4,1.28,7.21,5.36,7.21,6.86,0,10.42-11,10.8-16.18C392,660.91,390.47,657.65,386.39,657.65Zm1,7.17c-.26,3.53-2.82,12.47-5.91,12.47-1.29,0-1.63-1.32-1.49-3.29.26-3.57,2.75-12.54,5.88-12.54C387.13,661.46,387.51,662.81,387.36,664.82Z"/><path class="cls-2" d="M409.06,658h-3.68l-4.76,16.32c-.63,2.17-1.54,3-2.8,3a1.69,1.69,0,0,1-1.76-2,9.67,9.67,0,0,1,.18-1l4.6-15.67a.51.51,0,0,0-.48-.65h-3.61L392.08,674a8.79,8.79,0,0,0-.28,1.5c-.25,3.5,2.18,5.64,5.44,5.64s6.27-2.11,7.71-7l4.54-15.53A.45.45,0,0,0,409.06,658Z"/><path class="cls-2" d="M303.28,661.27l.9-3.06a9.61,9.61,0,0,0-3.71-.78c-4,0-8,3-8.68,7.06-.43,2.72,1.3,4.67,2.54,6.13,1,1.12,1.77,2.1,1.57,3.36a3.35,3.35,0,0,1-3.23,2.86,5.33,5.33,0,0,1-3-.53.67.67,0,0,0-1,.43l-1,3.34a12.24,12.24,0,0,0,4.35.8,9,9,0,0,0,8.86-7.37c.44-2.75-1.28-4.79-2.52-6.26-.94-1.12-1.73-2.1-1.54-3.29a3.18,3.18,0,0,1,3-2.72,5.49,5.49,0,0,1,2.48.44A.72.72,0,0,0,303.28,661.27Z"/><path class="cls-2" d="M336.34,658h-3.68l-4.76,16.32c-.63,2.17-1.54,3-2.8,3a1.69,1.69,0,0,1-1.76-2,7.51,7.51,0,0,1,.18-1l4.6-15.67a.51.51,0,0,0-.49-.65H324L319.36,674a8.79,8.79,0,0,0-.28,1.5c-.25,3.5,2.17,5.64,5.44,5.64s6.27-2.11,7.71-7l4.54-15.53A.45.45,0,0,0,336.34,658Z"/><path class="cls-2" d="M339.42,663.9a.64.64,0,0,0-.09.93l.81.9c2.16-1.41,3.82-3.68,4-5.76a2.16,2.16,0,0,0-2.19-2.55A3.06,3.06,0,0,0,339,660.1a1.72,1.72,0,0,0,1.76,2h.34A5.75,5.75,0,0,1,339.42,663.9Z"/><path class="cls-2" d="M290.58,658H286.9l-4.76,16.32c-.63,2.17-1.54,3-2.8,3a1.69,1.69,0,0,1-1.76-2,9.67,9.67,0,0,1,.18-1l4.6-15.67a.51.51,0,0,0-.48-.65h-3.61L273.6,674a7.89,7.89,0,0,0-.27,1.5c-.26,3.5,2.17,5.64,5.43,5.64s6.27-2.11,7.71-7L291,658.6A.46.46,0,0,0,290.58,658Z"/><path class="cls-2" d="M274.18,658h-3.59l-5,16.79c-.51,1.73-1.44,2.48-2.87,2.48a2.58,2.58,0,0,1-1.63-.59.48.48,0,0,0-.74.12l-1.64,2.82a5.57,5.57,0,0,0,4.1,1.46c3.64,0,5.74-1.84,7-6.09l4.81-16.33A.51.51,0,0,0,274.18,658Z"/><path class="cls-2" d="M319.1,664.92c.29-4-1.27-7.27-5.35-7.27-6.86,0-10.42,11-10.8,16.24-.29,4,1.28,7.21,5.35,7.21a6.11,6.11,0,0,0,.86-.07l0,.3a.61.61,0,0,0,.6.55h2.61l-.19-2.09C316.52,676.73,318.8,669,319.1,664.92Zm-7.36,9.78-.13-1.43a.6.6,0,0,0-.6-.54h-2.57l.39,4.56h0c-1.29,0-1.64-1.32-1.49-3.29.26-3.57,2.75-12.55,5.87-12.55,1.29,0,1.67,1.36,1.52,3.37A28.41,28.41,0,0,1,311.74,674.7Z"/><polygon class="cls-2" points="428.33 660.28 427.39 658.3 426.75 658.3 426.75 661.44 427.34 661.44 427.34 659.4 428.15 661.1 428.56 661.1 429.38 659.4 429.38 661.44 429.96 661.44 429.96 658.3 429.26 658.3 428.33 660.28"/><path class="cls-2" d="M431.88,658.76a.72.72,0,0,1,.76.53l.52-.23a1.24,1.24,0,0,0-1.28-.88,1.2,1.2,0,0,0-1.34,1.34v.64a1.2,1.2,0,0,0,1.34,1.34,1.16,1.16,0,0,0,1.28-.93l-.52-.17a.8.8,0,0,1-.76.58.68.68,0,0,1-.76-.76v-.7A.68.68,0,0,1,431.88,658.76Z"/><path class="cls-3" d="M144.58,613.14h7.92a.39.39,0,0,0,.39-.35l.3-2.24a.29.29,0,0,0-.3-.35H148l1.8-12.91a.27.27,0,0,0-.3-.34h-2.61a.37.37,0,0,0-.39.34l-2.18,15.5A.29.29,0,0,0,144.58,613.14Z"/><path class="cls-3" d="M160.64,598a1.73,1.73,0,0,0-1.74-1.76,1.77,1.77,0,1,0,0,3.54A1.73,1.73,0,0,0,160.64,598Z"/><path class="cls-3" d="M155.55,613.14h2.5a.39.39,0,0,0,.39-.35l1.48-10.64a.27.27,0,0,0-.3-.35h-2.5a.42.42,0,0,0-.41.35l-1.48,10.64C155.18,613,155.34,613.14,155.55,613.14Z"/><path class="cls-3" d="M171.07,601.8a.5.5,0,0,0-.44.28l-3.72,7.38-1.6-7.38a.38.38,0,0,0-.39-.28h-2.54c-.26,0-.4.14-.33.4l2.73,10.66a.39.39,0,0,0,.39.28h2.57a.48.48,0,0,0,.44-.28l5.69-10.66c.14-.26,0-.4-.23-.4Z"/><path class="cls-3" d="M178.73,601.8h-2.4a.39.39,0,0,0-.4.35l-1.48,10.64a.29.29,0,0,0,.3.35h2.52a.39.39,0,0,0,.4-.35l.78-5.69c.23-1.69,1.09-2.68,2.66-2.68a3,3,0,0,1,.88.11c.35.09.51,0,.56-.28l.28-2a.45.45,0,0,0-.17-.47,1.62,1.62,0,0,0-1-.27,3,3,0,0,0-2.7,2.12l.11-1.5A.29.29,0,0,0,178.73,601.8Z"/><path class="cls-3" d="M191.08,600.25a.48.48,0,0,0,.44-.27l1.81-2.64c.14-.21,0-.39-.16-.39h-2.29a.47.47,0,0,0-.44.27l-1.78,2.64c-.14.21,0,.39.18.39Z"/><path class="cls-3" d="M194.51,607a4.46,4.46,0,0,0-4.67-5.43,6.67,6.67,0,0,0-6.64,6.68c0,3.1,2.17,5.21,5.43,5.21A6.06,6.06,0,0,0,192.7,612c.26-.18.28-.32.1-.6l-.61-1c-.16-.25-.3-.3-.53-.18a5.3,5.3,0,0,1-2.52.65c-1.73,0-2.73-.77-2.89-2.18h6.87C194,608.67,194.35,608.07,194.51,607Zm-8-.53a3,3,0,0,1,3-2.27,2,2,0,0,1,2.26,2.27Z"/><path class="cls-3" d="M207.28,607a4.46,4.46,0,0,0-4.67-5.43,6.67,6.67,0,0,0-6.64,6.68c0,3.1,2.17,5.21,5.43,5.21a6.11,6.11,0,0,0,4.08-1.44c.25-.18.27-.32.09-.6l-.6-1c-.17-.25-.3-.3-.54-.18a5.3,5.3,0,0,1-2.52.65c-1.73,0-2.73-.77-2.89-2.18h6.87C206.72,608.67,207.12,608.07,207.28,607Zm-8-.53a3,3,0,0,1,3-2.27,2,2,0,0,1,2.26,2.27Z"/><path class="cls-3" d="M217.3,601.8H215a.39.39,0,0,0-.4.35l-2.1,15a.28.28,0,0,0,.3.34h2.52a.38.38,0,0,0,.39-.34l.77-5.46a3.73,3.73,0,0,0,3.38,1.69c3.63,0,6.13-3.13,6.13-6.81,0-3.05-1.74-5.08-4.61-5.08a4.79,4.79,0,0,0-3.91,1.85l.12-1.23A.29.29,0,0,0,217.3,601.8Zm3,2.64a2.39,2.39,0,0,1,2.52,2.61,3.28,3.28,0,0,1-3.31,3.45,2.43,2.43,0,0,1-2.5-3A3.33,3.33,0,0,1,220.33,604.44Z"/><path class="cls-3" d="M236.22,613.14h2.25a.42.42,0,0,0,.41-.35l1.48-10.64a.27.27,0,0,0-.3-.35H237.8a.41.41,0,0,0-.4.35l-.23,1.27a3.63,3.63,0,0,0-3.49-1.89c-3.68,0-6.18,3.23-6.18,6.87,0,3,1.67,5,4.6,5a4.85,4.85,0,0,0,3.91-1.83l-.09,1.2A.28.28,0,0,0,236.22,613.14Zm-3.05-2.64a2.38,2.38,0,0,1-2.52-2.59,3.33,3.33,0,0,1,3.33-3.47,2.41,2.41,0,0,1,2.47,3A3.27,3.27,0,0,1,233.17,610.5Z"/><path class="cls-3" d="M245.92,601.8h-2.41a.38.38,0,0,0-.39.35l-1.48,10.64a.28.28,0,0,0,.3.35h2.52a.38.38,0,0,0,.39-.35l.79-5.69c.23-1.69,1.09-2.68,2.66-2.68a3,3,0,0,1,.88.11c.35.09.51,0,.55-.28l.28-2a.46.46,0,0,0-.16-.47,1.65,1.65,0,0,0-1-.27,3,3,0,0,0-2.71,2.12l.12-1.5A.29.29,0,0,0,245.92,601.8Z"/><path class="cls-4" d="M55.36,174.75C42,210.78,35,252.9,33.23,307.29a8.58,8.58,0,0,0,8.29,8.84h.28a8.57,8.57,0,0,0,8.56-8.29C52,255.35,58.73,215,71.43,180.7q1.65-4.47,3.46-8.84c20.86,10.25,49.08,23,71.59,21.67a71.49,71.49,0,0,0,37-13.05c11.85-8.51,19.45-19.79,22-32.64,3.53-17.92-3.31-38.08-18.31-53.92-13-13.74-30.31-22.89-44.2-30.25a8.57,8.57,0,0,0-9.57,1.06C96.73,96,71.22,132,55.36,174.75Zm84.72-93.17C152.14,88,165,95.48,174.67,105.7c11.19,11.82,16.4,26.34,13.94,38.83-3.8,19.26-25.08,30.81-43.16,31.9-18.4,1.11-44.21-10.7-63.44-20.16C96,128.35,115.13,103.72,140.08,81.58Z"/><path class="cls-5" d="M91.36,197.92A8.56,8.56,0,0,0,81,204.26C72.1,241.7,67.72,261.71,65.69,307.18a8.57,8.57,0,0,0,8.18,8.94h.39a8.57,8.57,0,0,0,8.55-8.19c2-44,6-62.36,14.89-99.7A8.56,8.56,0,0,0,91.36,197.92Z"/><path class="cls-6" d="M221.87,144.75c12.62,7.38,20.84,13.09,29.54,19.14,5.57,3.87,11.26,7.83,18.17,12.23A996.26,996.26,0,0,0,99.8,300a8.57,8.57,0,0,0,5.74,14.92h213a8.57,8.57,0,1,0,0-17.13H128.16a983.33,983.33,0,0,1,162.45-114,8.56,8.56,0,0,0,.13-14.86c-12.62-7.38-20.84-13.1-29.55-19.15S243.72,137.68,230.52,130a8.57,8.57,0,0,0-8.65,14.79Z"/><path class="cls-5" d="M238,282c9.79.1,19.71.14,29.67.14,17.12,0,34.36-.12,51.23-.23,16.14-.11,31.38-.22,45.94-.22a8.57,8.57,0,1,0,0-17.13c-14.62,0-29.89.1-46.06.22-12.42.08-25,.17-37.65.21,14.62-5.63,29.84-11.22,44.09-16.45,13.9-5.1,27-9.92,37.12-13.89a8.56,8.56,0,0,0,2-14.8c-7.39-5.59-14.23-11-20.85-16.25-8.86-7-18-14.28-28.28-21.74a8.56,8.56,0,1,0-10.08,13.84c10,7.27,18.59,14.1,27.72,21.33l9,7.1c-7,2.6-14.63,5.42-22.55,8.33-28.38,10.41-60.53,22.22-84.76,33.17A8.56,8.56,0,0,0,238,282Z"/><path class="cls-4" d="M342.73,306.93l0,.4a.19.19,0,0,0,0,.08c0,.14,0,.26.06.39l.06.36c0,.17.08.33.13.49s.05.2.08.3a8.36,8.36,0,0,0,.64,1.5l0,.06c.12.22.25.43.38.63l.12.16q.17.24.36.48c.05.07.11.13.17.2s.23.26.35.38l.23.22.35.32.27.22.35.26.31.21.35.21.34.18.38.19.34.15.42.15.33.11.5.13.28.07.66.1.15,0a7.94,7.94,0,0,0,.85,0H454.41a8.56,8.56,0,0,0,5.52-15.11c-11.43-9.65-23.14-20.41-34.48-30.81-12.75-11.71-24.91-22.88-35.19-31a75,75,0,0,0-6.5-4.94l-.07-.06,0,0-.14-.1-.25-.15-.42-.26-.35-.17-.42-.2c-.12-.06-.25-.1-.37-.15l-.42-.15-.4-.11-.4-.1-.42-.07-.4-.06-.43,0h-.83l-.38,0-.43,0-.39.06-.42.09c-.13,0-.26.05-.38.09l-.41.13-.37.13-.4.16-.36.17-.38.21-.34.2-.37.25-.32.23-.35.29-.29.26c-.11.1-.22.22-.33.33s-.18.19-.26.29l-.3.37c-.06.08-.13.15-.19.24a.56.56,0,0,0-.05.08s-.05.06-.07.1a2.82,2.82,0,0,0-.18.29l-.22.36c-.07.13-.14.26-.2.4l-.18.37c-.06.14-.11.28-.16.42s-.09.24-.13.37-.09.3-.13.44l-.09.36c0,.16-.05.31-.08.47s0,.23-.05.35,0,.32,0,.48,0,.23,0,.34a3.85,3.85,0,0,0,0,.48c0,.12,0,.23,0,.35a3.78,3.78,0,0,0,.06.47c0,.12,0,.23,0,.34s.07.31.1.47l.09.33c0,.16.09.3.14.45s.07.23.11.34.12.29.19.43a3.13,3.13,0,0,0,.15.32c.07.14.14.28.22.42l.18.31.27.39.21.3.31.36.24.28.35.33.28.27.37.29c.08.06.15.13.24.19,1.62,1.16,3.33,2.47,5.12,3.87,8.88,7.5,12.87,15.91,11,23.65-2.81,11.65-18.36,20.85-39.6,23.45-.11,0-.21,0-.32.06a3.69,3.69,0,0,0-.46.08c-.13,0-.26.06-.38.09l-.44.13-.4.14-.38.15-.42.2-.32.17c-.14.08-.28.16-.41.25l-.29.18-.39.29-.27.22-.34.31a3.07,3.07,0,0,0-.26.25,2.89,2.89,0,0,0-.29.32l-.27.3-.23.32-.25.35c-.07.11-.14.22-.2.33s-.15.25-.22.39l-.17.34-.18.4c0,.13-.1.26-.14.39s-.1.26-.14.39-.07.3-.11.45-.06.24-.08.36a4.34,4.34,0,0,0-.08.52,3.11,3.11,0,0,0,0,.32,5.07,5.07,0,0,0,0,.55,2.29,2.29,0,0,0,0,.25s0,.05,0,.07S342.72,306.77,342.73,306.93Zm71.13-25.29c5.84,5.35,11.77,10.8,17.74,16.17H394.66a38.42,38.42,0,0,0,11.83-19.37c.21-.86.41-1.89.57-3Z"/><path class="cls-7" d="M119.21,161.84a18.7,18.7,0,0,1-4.14-7.33c-3.41-11.62,5.14-24.35,19.11-28.45s28,2,31.46,13.61a19.62,19.62,0,0,1-1.51,14.42c8.7-7.28,13.13-17.55,9.12-26.89-8.45-19.65-23.6-27.15-32.9-31.37-13.1,13.11-26.6,30.9-44.32,55.31C101.24,156,109.78,159.73,119.21,161.84Z"/><path class="cls-4" d="M138.19,138.26c-8.13,2.38-13.27,9.22-11.5,15.27s9.8,9,17.93,6.64,13.27-9.23,11.5-15.28S146.32,135.87,138.19,138.26Z"/><ellipse class="cls-4" cx="195.96" cy="273.16" rx="20.59" ry="10.8" transform="translate(-68.99 66.24) rotate(-16.36)"/><path class="cls-7" d="M163.53,203.77c-23.67,6.09-50.16,2.48-50.16,2.48L99,278.29s68.75-57.85,145.18-109.23c-9.09-5.26-27.63-16.95-27.63-16.95S212,191.31,163.53,203.77Z"/><path class="cls-5" d="M8.39,317.21h.24a8.62,8.62,0,0,0,8.61-8.38C21.29,159,76.78,93.66,118.17,57.57a8.63,8.63,0,0,0-11.34-13C37.17,105.32,3.22,189.14,0,308.36A8.62,8.62,0,0,0,8.39,317.21Z"/><path class="cls-7" d="M284.46,198.86s-57.18,40.7-72.43,55.69l97.15-40Z"/><path class="cls-5" d="M8.62,351.75H454.41a8.62,8.62,0,0,0,0-17.24H8.62a8.62,8.62,0,0,0,0,17.24Z"/><path class="cls-8" d="M33,526.29H49.59c25.39,0,45.3-7.78,45.3-35.77S75,454.6,49.59,454.6h-30c-12.84,0-18.9,5.91-18.9,19.76V543c0,11.11,5.77,17.31,16.16,17.31S33,554.14,33,543Zm0-46.59H49.74c8.08,0,12.84,4,12.84,11s-5.77,10.53-11.26,10.53H33Z"/><path class="cls-8" d="M129.08,560.34c10.24,0,16.59-6.78,16.59-17.89V470.61c0-11.11-6.35-17.89-16.59-17.89s-16.59,6.78-16.59,17.89v71.84C112.49,553.56,118.84,560.34,129.08,560.34Z"/><path class="cls-8" d="M258.05,545.48c0-8.51-5.2-13-15.15-13H205.39l44.44-49.34c5-5.62,6.63-9.23,6.63-14,0-8.08-4.62-14.57-15.15-14.57h-62.6c-10.82,0-15.87,5.19-15.87,13s5,13,15.87,13H211l-41.55,46.16c-7.21,7.93-9.23,11.68-9.23,17.16,0,8.08,5,14.57,16.3,14.57H242.9C252.85,558.46,258.05,554,258.05,545.48Z"/><path class="cls-8" d="M362.2,545.48c0-8.51-5.19-13-15.14-13H309.55L354,483.16c5-5.62,6.64-9.23,6.64-14,0-8.08-4.62-14.57-15.15-14.57H282.86c-10.82,0-15.87,5.19-15.87,13s5.05,13,15.87,13h32.32l-41.55,46.16c-7.21,7.93-9.23,11.68-9.23,17.16,0,8.08,5.05,14.57,16.3,14.57h66.36C357,558.46,362.2,554,362.2,545.48Z"/><path class="cls-8" d="M457.85,527.59l-22.07-61.45c-3.18-8.65-7.51-13.42-15.87-13.42H409.52c-8.37,0-12.69,4.77-15.87,13.42l-22.07,61.45c-2.45,6.93-5.19,14.57-5.19,19.33,0,7.79,7.64,13.42,15.15,13.42,5.19,0,11.68-2.31,13.41-8.22l2.31-7.65h34.91l2.31,7.65c1.73,5.91,8.22,8.22,13.41,8.22,7.51,0,15.15-5.63,15.15-13.42C463,542.16,460.3,534.52,457.85,527.59Zm-54.53-3.89,11.25-37.94h.29l11.25,37.94Z"/><path class="cls-8" d="M15.44,406.88l12.73,3.66c3.5,1,5.25,2,5.25,4.42,0,3.66-3.5,5-7.41,5-9.41,0-10.24-8.74-17.07-8.74-4.66,0-8.07,3.16-8.07,7.82,0,5.42,6.16,14.41,26.31,14.41,12.65,0,24.89-6.16,24.89-20.4,0-10.41-6.91-15.07-17-17.82l-9.9-2.66c-4.08-1.08-6.41-2.25-6.41-4.91s3-4,6.24-4c9.49,0,9.57,7.33,16,7.33,4.75,0,8.33-2.92,8.33-7.58,0-10.07-14.32-12.73-25.39-12.73-16.65,0-23.31,9.4-23.31,19.39C.62,398.47,5.86,404.13,15.44,406.88Z"/><path class="cls-8" d="M104.6,386.07c5.75,0,8.33-2.83,8.33-7s-2.58-7-8.33-7H74.13c-7.41,0-10.9,3.41-10.9,11.41v37.13c0,8,3.49,11.4,10.9,11.4h31.39c5.74,0,8.32-2.83,8.32-7s-2.58-7-8.32-7H82.38v-9.58h17.81c5.75,0,8.33-2.83,8.33-7s-2.58-7-8.33-7H82.38v-8.4Z"/><path class="cls-8" d="M163.38,427.78,172,395.39h.17v29.14c0,5.74,3.41,8.57,8.57,8.57s8.58-2.83,8.58-8.57V381.4c0-6.16-3.42-10.4-10-10.4H174c-6.08,0-8.58,2.08-10.16,8l-7.91,29.72h-.17L147.82,379c-1.59-5.91-4.08-8-10.16-8h-5.41c-6.58,0-10,4.24-10,10.4v43.13c0,5.74,3.41,8.57,8.57,8.57s8.58-2.83,8.58-8.57V395.39h.16l8.66,32.39c1.08,4.08,3,5.32,7.58,5.32S162.3,431.86,163.38,427.78Z"/><path class="cls-8" d="M212.18,428.36l1.33-4.41h20.14l1.34,4.41c1,3.41,4.74,4.74,7.74,4.74,4.33,0,8.74-3.24,8.74-7.74,0-2.75-1.58-7.16-3-11.15l-12.73-35.47c-1.84-5-4.33-7.74-9.16-7.74h-6c-4.83,0-7.32,2.75-9.15,7.74l-12.74,35.47c-1.42,4-3,8.4-3,11.15,0,4.5,4.41,7.74,8.74,7.74C207.43,433.1,211.18,431.77,212.18,428.36Zm11.32-38.3h.16l6.5,21.9H217Z"/><path class="cls-8" d="M277.78,422.78V381.32c0-6.41-3.66-10.32-9.57-10.32s-9.58,3.91-9.58,10.32v41.46c0,6.41,3.67,10.32,9.58,10.32S277.78,429.19,277.78,422.78Z"/><path class="cls-8" d="M309.17,423.45V399.8h.17l15.9,26.14c3.66,6.08,6.41,7.5,11.49,7.5,6.07,0,10.82-2.58,10.82-9.16v-44c0-5.58-3.5-9.57-9.33-9.57s-9.32,4-9.32,9.57V405.3h-.17l-16.81-28.81a11.14,11.14,0,0,0-10.41-5.82c-7.24,0-11,3.74-11,10.24v42.54c0,6.41,3.33,10,9.32,10S309.17,429.86,309.17,423.45Z"/><path class="cls-8" d="M371.45,432h31.38c5.75,0,8.33-2.83,8.33-7s-2.58-7-8.33-7H379.69v-9.58h17.82c5.74,0,8.32-2.83,8.32-7s-2.58-7-8.32-7H379.69v-8.4h22.23c5.74,0,8.32-2.83,8.32-7s-2.58-7-8.32-7H371.45c-7.41,0-10.91,3.41-10.91,11.41v37.13C360.54,428.61,364,432,371.45,432Z"/><path class="cls-8" d="M435.14,372.61h-4.77c-2.18,0-3.21,1-3.21,3.35v10.92c0,2.35,1,3.35,3.21,3.35h4.77c5.85,0,8.45-3.91,8.45-8.81S441,372.61,435.14,372.61Zm-1.24,13.22h-1.25V377h1.25c3.25,0,4.06,1.62,4.06,4.41S437.15,385.83,433.9,385.83Z"/><path class="cls-8" d="M459.08,376.72c1.69,0,2.45-.83,2.45-2.05s-.76-2.06-2.45-2.06h-8.95c-2.18,0-3.21,1-3.21,3.35v10.92c0,2.35,1,3.35,3.21,3.35h9.22c1.69,0,2.45-.83,2.45-2.06s-.76-2.05-2.45-2.05h-6.8V383.3h5.24c1.69,0,2.44-.83,2.44-2.05s-.75-2.06-2.44-2.06h-5.24v-2.47Z"/><path class="cls-8" d="M431.72,394.24a2.71,2.71,0,0,0-2.81,3v11.55c0,2.35,1,3.36,3.2,3.36h8.32a2.28,2.28,0,1,0,0-4.56h-5.9V397.27A2.71,2.71,0,0,0,431.72,394.24Z"/><path class="cls-8" d="M444.59,410.22a2.49,2.49,0,0,0,2.57,2.28,2.28,2.28,0,0,0,2.28-1.4l.39-1.3h5.92l.39,1.3a2.28,2.28,0,0,0,2.28,1.4,2.49,2.49,0,0,0,2.57-2.28,12.63,12.63,0,0,0-.88-3.28l-3.75-10.43c-.53-1.47-1.27-2.27-2.69-2.27h-1.76c-1.42,0-2.15.8-2.69,2.27l-3.75,10.43A12.63,12.63,0,0,0,444.59,410.22Zm8.18-10.38h0l1.91,6.44h-3.86Z"/><path class="cls-5" d="M431.58,431.54H457a6,6,0,0,0,0-12H431.58a6,6,0,0,0,0,12Z"/><polygon class="cls-9" points="440.75 48.83 440.76 48.83 442.49 53.64 443.39 53.64 445.12 48.83 445.14 48.83 445.14 53.64 446.18 53.64 446.18 47.41 444.66 47.41 442.98 52.29 442.96 52.29 441.24 47.41 439.71 47.41 439.71 53.64 440.75 53.64 440.75 48.83"/><path class="cls-9" d="M451.31,53.4a2.41,2.41,0,0,0,.86-.67,2.87,2.87,0,0,0,.49-1,4.39,4.39,0,0,0,.16-1.22,4.32,4.32,0,0,0-.16-1.21,2.87,2.87,0,0,0-.49-1,2.3,2.3,0,0,0-.86-.67,3,3,0,0,0-1.24-.24h-2.58v6.23h2.58A3,3,0,0,0,451.31,53.4Zm-2.73-.65V48.3h1.07a2.62,2.62,0,0,1,1.05.17,1.46,1.46,0,0,1,.63.47,1.71,1.71,0,0,1,.32.71,4.83,4.83,0,0,1,0,1.75,1.71,1.71,0,0,1-.32.71,1.46,1.46,0,0,1-.63.47,2.81,2.81,0,0,1-1.05.17Z"/><polygon class="cls-9" points="456.39 47.26 455.44 47.26 452.94 53.79 453.89 53.79 456.39 47.26"/><path class="cls-9" d="M459.06,50.85h.56l.93,1.54h.67l-1-1.59a1.23,1.23,0,0,0,.67-.27.88.88,0,0,0,.27-.71.93.93,0,0,0-.33-.8,1.68,1.68,0,0,0-1-.24h-1.37v3.61h.6Zm0-1.57h.71l.27,0a1,1,0,0,1,.26.06.7.7,0,0,1,.19.15.47.47,0,0,1,.07.26.53.53,0,0,1-.07.31.48.48,0,0,1-.18.17.77.77,0,0,1-.27.08h-1Z"/><path class="cls-9" d="M457.39,52.85a3,3,0,0,0,1,.69,3.19,3.19,0,0,0,1.29.25,3.16,3.16,0,0,0,1.22-.24,2.89,2.89,0,0,0,1-.66,3.08,3.08,0,0,0,.7-1,3.41,3.41,0,0,0,.26-1.34,3.36,3.36,0,0,0-.26-1.33,3,3,0,0,0-.7-1,3.07,3.07,0,0,0-1-.67,3.35,3.35,0,0,0-1.22-.23,3.4,3.4,0,0,0-1.23.23,3.07,3.07,0,0,0-1,.67,3,3,0,0,0-.7,1,3.36,3.36,0,0,0-.26,1.33,3.46,3.46,0,0,0,.24,1.3A3.14,3.14,0,0,0,457.39,52.85Zm0-3.42a2.61,2.61,0,0,1,.53-.85,2.46,2.46,0,0,1,.8-.56,2.53,2.53,0,0,1,1-.19,2.37,2.37,0,0,1,1.78.75,2.61,2.61,0,0,1,.53.85,3.25,3.25,0,0,1,0,2.19,2.72,2.72,0,0,1-.53.85,2.63,2.63,0,0,1-.8.56,2.65,2.65,0,0,1-2,0,2.32,2.32,0,0,1-.79-.58,2.65,2.65,0,0,1-.51-.86,3.21,3.21,0,0,1-.17-1A3,3,0,0,1,457.38,49.43Z"/><path class="cls-9" d="M244.05,50.42l-3.68-3.81,1.6-1.55a6.49,6.49,0,0,0,1.73-2.57,4.35,4.35,0,0,0,.11-2.49,4.71,4.71,0,0,0-1.21-2.1,4.89,4.89,0,0,0-2.14-1.35,4.24,4.24,0,0,0-2.49.06,6.59,6.59,0,0,0-2.57,1.64l-4.19,4,10.25,10.63Zm-5.67-5.87-2.57-2.67,1.41-1.35a2.11,2.11,0,0,1,1.44-.72,2.1,2.1,0,0,1,1.9,2,2.19,2.19,0,0,1-.77,1.41Z"/><path class="cls-9" d="M253.65,42.16l-3.27-4.36a2.56,2.56,0,0,1-.69-2A3,3,0,0,1,251,34.1l.79-.59-2.29-3a4.18,4.18,0,0,0-1.34,1.71,4.8,4.8,0,0,0-.35,2.17l-1.17-1.56-2.88,2.16,7.05,9.38Z"/><path class="cls-9" d="M253.77,28.49a5.16,5.16,0,0,0-.72,2.88,6.62,6.62,0,0,0,1,3.12,6.41,6.41,0,0,0,2.3,2.35,5.24,5.24,0,0,0,2.88.72,6.18,6.18,0,0,0,3-1,6.11,6.11,0,0,0,1.95-1.78,5.3,5.3,0,0,0,.74-4.57l-3.28,2a1.89,1.89,0,0,1-1,1.94,2.15,2.15,0,0,1-1.61.29,2.43,2.43,0,0,1-1.46-1.07l7-4.19a9,9,0,0,0-.49-.93A6.15,6.15,0,0,0,261.83,26a5.1,5.1,0,0,0-2.83-.68,6.77,6.77,0,0,0-5.23,3.17Zm2.68,1.5a2.31,2.31,0,0,1,1-1.24,2.36,2.36,0,0,1,1.63-.34,1.86,1.86,0,0,1,1.3.94l-3.86,2.32A2.31,2.31,0,0,1,256.45,30Z"/><polygon class="cls-9" points="256.65 22.58 255.21 20.18 252.12 24.89 253.4 27.01 256.65 22.58"/><path class="cls-9" d="M266.19,26.9a3.65,3.65,0,0,0,1.75.31,16,16,0,0,0,2.17-.34,12.15,12.15,0,0,1,1.77-.24.8.8,0,0,1,.79.45.83.83,0,0,1,0,.78,1.83,1.83,0,0,1-.83.68,2.06,2.06,0,0,1-1.29.19,1.4,1.4,0,0,1-.93-.65l-3.22,1.51a3.8,3.8,0,0,0,1.58,1.52,4.67,4.67,0,0,0,2.33.5,6.66,6.66,0,0,0,2.7-.69A6.49,6.49,0,0,0,275,29.43a3.79,3.79,0,0,0,1-1.86,3.1,3.1,0,0,0-.26-1.91,3,3,0,0,0-1.41-1.49,3.75,3.75,0,0,0-1.75-.34,18.87,18.87,0,0,0-2.21.31,8.61,8.61,0,0,1-1.72.26.8.8,0,0,1-.81-.46.78.78,0,0,1,0-.74,1.63,1.63,0,0,1,.77-.63,1.92,1.92,0,0,1,1.23-.19,1.5,1.5,0,0,1,.9.65l3-1.42a4.26,4.26,0,0,0-2.56-2,5.13,5.13,0,0,0-3.61.5,6.28,6.28,0,0,0-2.13,1.53,3.8,3.8,0,0,0-.92,1.89,3.23,3.23,0,0,0,.28,1.91A2.81,2.81,0,0,0,266.19,26.9Z"/><path class="cls-9" d="M278.06,25.49a5.24,5.24,0,0,0,2.7,1.24,6.4,6.4,0,0,0,3.14-.37A6.26,6.26,0,0,0,286.14,25a5.24,5.24,0,0,0,1.58-4.35l-3.59,1.32a1.89,1.89,0,0,1-1.36,1.72,2.14,2.14,0,0,1-1.63,0,2.41,2.41,0,0,1-1.24-1.32l7.63-2.82c-.09-.36-.19-.69-.3-1a6.09,6.09,0,0,0-1.78-2.64,5.07,5.07,0,0,0-2.65-1.2,6.84,6.84,0,0,0-5.73,2.14,5.16,5.16,0,0,0-1.23,2.7,6.5,6.5,0,0,0,.4,3.26A6.6,6.6,0,0,0,278.06,25.49Zm1.37-6.72a2.27,2.27,0,0,1,1.24-1,2.35,2.35,0,0,1,1.67,0,1.9,1.9,0,0,1,1.11,1.17l-4.23,1.56A2.33,2.33,0,0,1,279.43,18.77Z"/><path class="cls-9" d="M294.3,22.75l-1.69-6.15a2.56,2.56,0,0,1,.1-1.93,2.16,2.16,0,0,1,1.41-1.06,2.14,2.14,0,0,1,1.75.19A2.59,2.59,0,0,1,297,15.4l1.69,6.15,3.45-.95L300.27,14a5.23,5.23,0,0,0-2.17-3.21,4.22,4.22,0,0,0-3.52-.42,4.74,4.74,0,0,0-1.89,1,3.73,3.73,0,0,0-1.09,1.58l-.42-1.5-3.46,1,3.12,11.31Z"/><path class="cls-9" d="M301.72,11.76l1.4-.29.95,4.58a3.93,3.93,0,0,0,1.7,2.83,4.49,4.49,0,0,0,3.18.32l1.79-.37-.61-3-1.26.26a1.26,1.26,0,0,1-.87-.05,1,1,0,0,1-.4-.69l-1-4.62,2.31-.48-.61-2.92L306,7.82,305.45,5l-3.52.73.58,2.8-1.4.29Z"/><polygon class="cls-9" points="317.88 2.77 317.47 0 312.81 3.16 313.18 5.61 317.88 2.77"/><path class="cls-9" d="M312.14,15.83a5.37,5.37,0,0,0,2.39,1.77,6.34,6.34,0,0,0,3.15.27,6.18,6.18,0,0,0,2.48-.9,5.24,5.24,0,0,0,1.69-1.72A5.15,5.15,0,0,0,322.6,13l-3.79.56a1.9,1.9,0,0,1-1.68,1.4,2.17,2.17,0,0,1-1.6-.35,2.46,2.46,0,0,1-.94-1.55l8.05-1.19a8.56,8.56,0,0,0-.09-1.05,6.16,6.16,0,0,0-1.19-2.95A5.28,5.28,0,0,0,319,6.19a6.27,6.27,0,0,0-3.1-.26,6.38,6.38,0,0,0-3,1.18,5.21,5.21,0,0,0-1.77,2.39,6.66,6.66,0,0,0-.26,3.27A6.46,6.46,0,0,0,312.14,15.83Zm2.72-6.3a2.24,2.24,0,0,1,1.43-.74,2.33,2.33,0,0,1,1.64.31,1.84,1.84,0,0,1,.84,1.36l-4.45.66A2.32,2.32,0,0,1,314.86,9.53Z"/><path class="cls-9" d="M324.91,14a5.21,5.21,0,0,0,2.27,1.92,6.18,6.18,0,0,0,3.12.48,6.12,6.12,0,0,0,2.54-.73,5.27,5.27,0,0,0,2.68-3.77l-3.81.31a1.89,1.89,0,0,1-1.78,1.29,2.13,2.13,0,0,1-1.56-.45,2.4,2.4,0,0,1-.84-1.61l8.11-.67c0-.37,0-.72,0-1a6.19,6.19,0,0,0-1-3,5.22,5.22,0,0,0-2.24-1.87,6.32,6.32,0,0,0-3.07-.46,6.4,6.4,0,0,0-3,1,5.12,5.12,0,0,0-1.92,2.27,6.59,6.59,0,0,0-.48,3.25A6.49,6.49,0,0,0,324.91,14ZM328,7.92a2.23,2.23,0,0,1,1.47-.65,2.28,2.28,0,0,1,1.62.41,1.85,1.85,0,0,1,.75,1.42l-4.49.37A2.33,2.33,0,0,1,328,7.92Z"/><path class="cls-9" d="M345.76,13.9a4,4,0,0,0,1.45,1.32,4.53,4.53,0,0,0,2.15.52A4.81,4.81,0,0,0,352,15a5.1,5.1,0,0,0,1.88-2.11,7.09,7.09,0,0,0,.71-3.18,6.88,6.88,0,0,0-.65-3.18,5.17,5.17,0,0,0-1.84-2.12,4.86,4.86,0,0,0-2.62-.76,4.43,4.43,0,0,0-2.17.48,3.9,3.9,0,0,0-1.47,1.31l0-1.66-3.6,0L342.1,21.1l3.59,0Zm.79-6.35a2.45,2.45,0,0,1,1.82-.76,2.49,2.49,0,0,1,1.84.79,2.89,2.89,0,0,1,.72,2.12,2.91,2.91,0,0,1-.77,2.13,2.49,2.49,0,0,1-1.84.77,2.4,2.4,0,0,1-1.81-.8,2.89,2.89,0,0,1-.73-2.13A3,3,0,0,1,346.55,7.55Z"/><path class="cls-9" d="M358.08,15.21a4.82,4.82,0,0,0,2.55.93,4.53,4.53,0,0,0,2.21-.35,3.93,3.93,0,0,0,1.55-1.22l-.12,1.66,3.59.25.83-11.71-3.59-.25L365,6.18a3.73,3.73,0,0,0-1.34-1.43,4.65,4.65,0,0,0-2.14-.65,4.77,4.77,0,0,0-2.67.55,5.07,5.07,0,0,0-2,2,6.88,6.88,0,0,0-.9,3.12,7,7,0,0,0,.45,3.22A5.13,5.13,0,0,0,358.08,15.21Zm2.38-7.27a2.53,2.53,0,0,1,3.63.26,2.93,2.93,0,0,1,.59,2.18,2.93,2.93,0,0,1-.89,2.06,2.5,2.5,0,0,1-3.63-.27,2.92,2.92,0,0,1-.59-2.18A2.88,2.88,0,0,1,360.46,7.94Z"/><path class="cls-9" d="M374.5,11.85a2.57,2.57,0,0,1,.92-1.93,3,3,0,0,1,2.08-.32l1,.13L379,6a4,4,0,0,0-2.16.29,4.75,4.75,0,0,0-1.76,1.31l.25-1.94-3.57-.46-1.49,11.64,3.56.46Z"/><path class="cls-9" d="M342.54,81.12c-6.7,0-11.79,12.71-12.26,16.43-.23,1.9.57,4,3.27,4,6.78,0,12.11-12.21,12.66-16.61C346.45,82.9,345.31,81.12,342.54,81.12Z"/><path class="cls-9" d="M309,81.12c-6.63,0-12.51,11.78-13,16.11-.23,1.77.55,4,3.11,4C306,101.2,312,89,312.59,84.61,312.83,82.65,311.65,81.12,309,81.12Z"/><path class="cls-9" d="M411.19,95.11c-2.81,9.85,5.1,9.68,10.07,2.77,3.47-4.72,6.47-11.76,5.7-15.63a6.38,6.38,0,0,0-1-2.31C415.23,80.91,411.63,93.55,411.19,95.11Z"/><path class="cls-9" d="M455.43,88.57C455.43,55.13,407.05,28,347.37,28S239.31,55.13,239.31,88.57s48.38,60.55,108.06,60.55S455.43,122,455.43,88.57Zm-92.66-16.8c17.73,3.56,27.45,1.36,35.66,1l3.05-6.39a10.65,10.65,0,0,1,7.66,0l-2.84,6.29c12.4.29,19.48,2.6,23.53,5.37,6.89.34,12.82,2.06,14.29,3.5a8.25,8.25,0,0,1-4.29,4.1c-.68-1.11-3.33-3.25-6.82-4.6a9.3,9.3,0,0,1,1.83,7.42c-1,8.21-10.19,16.5-20.7,16.5-6.25,0-10.24-2.94-11.09-7.33A12.88,12.88,0,0,1,403,94.5a17.08,17.08,0,0,1,4.15-9.22c4-4.67,10.47-6.65,16.92-7.15-4.47-2.71-12.93-1.76-19.71-1.09l-6.77,15.07c-.82,1.69-2.54,5.35-2.76,7-.1.91.05,1.92,1.47,1.92A5,5,0,0,0,399,100a21.14,21.14,0,0,0,1.72-1.48,7.93,7.93,0,0,0,.76,1.76l0,.09c-2.51,2.33-5.8,4.62-9.7,4.62-3.39,0-5.84-2-5.51-4.74a13.35,13.35,0,0,1,1.4-4.6c.64-1.64,1.41-3.27,2-4.54l6.46-13.57c-8.89,0-24-.88-33.88-5Zm-2.9,9.62a8.27,8.27,0,0,0-1.94.52,6.39,6.39,0,0,0-.65-1.52,15.92,15.92,0,0,1,7.86-2.65c2.85,0,4.93,1.52,4.64,3.91-.25,2-1.83,5.06-2.91,7.06,0,0-5,9.24-5.15,10.59-.14,1.1.7,1.6,2,1.6,6.16,0,12.89-13.14,15-17.1l2.19-4s2.69.26,3.8.33c1.52.09,4.07.27,4.07.27l-4.56,8.84c-1.13,2.44-3.31,7.32-3.6,9.71-.09.72-.07,1.9,1.12,1.9a4.62,4.62,0,0,0,2.2-.94,2.11,2.11,0,0,1,0,.25,3.86,3.86,0,0,0,.22,1.83v0a12.77,12.77,0,0,1-7.55,2.78c-3.09,0-4.63-2.13-4.35-4.45a15.49,15.49,0,0,1,1.1-4l-.14-.13c-3.41,4.67-8.2,8.58-14.21,8.6-3.46,0-5.94-1.82-5.58-4.8.27-2.15,1.93-5.26,3-7.34,0,0,4.52-9,4.63-10A1,1,0,0,0,359.87,81.39ZM285.55,93.45c-1.76,7.4-9.17,11.77-17.91,11.77-4.82,0-9.6-1.44-12.26-4.45-5.15-6,.75-9,3.63-9-1.5,5.71.79,10.77,8.05,10.77,4.07,0,7.63-2.36,8.46-5.8.9-3.83-1.23-6.09-3.74-8.64l-2.37-2.46c-3.09-3.17-5.46-6-4.33-10.75,1.61-6.79,8.78-11,16.86-11a15,15,0,0,1,10.28,3.51c5.36,5.4-1.28,8.86-2.76,8.53a1.3,1.3,0,0,1-.5-.16c1.41-4.37-.1-9.23-6.18-9.23-3.41,0-7.61,1.82-8.36,4.93-.84,3.52,1.7,5.94,4,8.25l2.16,2.12C284,85.15,286.78,88.29,285.55,93.45Zm21.52,7.33a16.43,16.43,0,0,1,.49-2.21l-.14-.11c-2.68,3.41-6.95,6.4-12.07,6.4-6.32,0-8.82-4.08-8.24-8.84,1-7.88,9.84-18.26,20.67-18.26,3.53,0,5.93,1.4,7,4l1.9-3.34a11.11,11.11,0,0,1,7.83,0l-7.76,16.46a23.27,23.27,0,0,0-1.75,4.5c-.09.74.1,2.15,1.16,2.15a3.18,3.18,0,0,0,1.33-.35v0l-1.1,2.44a11.77,11.77,0,0,1-5,1.22C308.52,104.86,306.77,103,307.07,100.78Zm21.22.12h-.14l-8.47,18.76a10,10,0,0,1-5.78-5l17.81-39.75a9.37,9.37,0,0,1,5.48,4.63l-.9,2.11.14.12a14.43,14.43,0,0,1,10-4c5.43,0,8,2.76,8.3,6.51a11.15,11.15,0,0,1-.05,2.26c-.95,7.76-8.56,18.32-19.47,18.32C331.73,104.87,329.34,103.41,328.29,100.9Z"/><path class="cls-10" d="M280.55,81.81l-2.16-2.12c-2.27-2.31-4.81-4.73-4-8.25.75-3.11,4.95-4.93,8.36-4.93,6.08,0,7.59,4.86,6.18,9.23a1.3,1.3,0,0,0,.5.16c1.48.33,8.12-3.13,2.76-8.53a15,15,0,0,0-10.28-3.51c-8.08,0-15.25,4.24-16.86,11-1.13,4.73,1.24,7.58,4.33,10.75l2.37,2.46c2.51,2.55,4.64,4.81,3.74,8.64-.83,3.44-4.39,5.8-8.46,5.8-7.26,0-9.55-5.06-8.05-10.77-2.88,0-8.78,3-3.63,9,2.66,3,7.44,4.45,12.26,4.45,8.74,0,16.15-4.37,17.91-11.77C286.78,88.29,284,85.15,280.55,81.81Z"/><path class="cls-10" d="M354.65,86.55a11.15,11.15,0,0,0,.05-2.26c-.33-3.75-2.87-6.51-8.3-6.51a14.43,14.43,0,0,0-10,4l-.14-.12.9-2.11a9.37,9.37,0,0,0-5.48-4.63L313.9,114.69a10,10,0,0,0,5.78,5l8.47-18.76h.14c1,2.51,3.44,4,6.89,4C346.09,104.87,353.7,94.31,354.65,86.55Zm-8.44-1.64c-.55,4.4-5.88,16.61-12.66,16.61-2.7,0-3.5-2.07-3.27-4,.47-3.72,5.56-16.43,12.26-16.43C345.31,81.12,346.45,82.9,346.21,84.91Z"/><path class="cls-10" d="M317.47,101.2v0a3.18,3.18,0,0,1-1.33.35c-1.06,0-1.25-1.41-1.16-2.15a23.27,23.27,0,0,1,1.75-4.5l7.76-16.46a11.11,11.11,0,0,0-7.83,0l-1.9,3.34c-1-2.58-3.44-4-7-4C297,77.76,288.07,88.14,287.11,96c-.58,4.76,1.92,8.84,8.24,8.84,5.12,0,9.39-3,12.07-6.4l.14.11a16.43,16.43,0,0,0-.49,2.21c-.3,2.24,1.45,4.08,4.3,4.08a11.77,11.77,0,0,0,5-1.22Zm-4.88-16.59C312,89,306,101.2,299.11,101.2c-2.56,0-3.34-2.2-3.11-4,.52-4.33,6.4-16.11,13-16.11C311.65,81.12,312.83,82.65,312.59,84.61Z"/><path class="cls-10" d="M356.36,92.71c-1.08,2.08-2.74,5.19-3,7.34-.36,3,2.12,4.82,5.58,4.8,6,0,10.8-3.93,14.21-8.6l.14.13a15.49,15.49,0,0,0-1.1,4c-.28,2.32,1.26,4.45,4.35,4.45a12.77,12.77,0,0,0,7.55-2.78v0a3.86,3.86,0,0,1-.22-1.83,2.11,2.11,0,0,0,0-.25,4.62,4.62,0,0,1-2.2.94c-1.19,0-1.21-1.18-1.12-1.9.29-2.39,2.47-7.27,3.6-9.71l4.56-8.84s-2.55-.18-4.07-.27c-1.11-.07-3.8-.33-3.8-.33l-2.19,4c-2.06,4-8.79,17.1-15,17.1-1.29,0-2.13-.5-2-1.6.16-1.35,5.15-10.59,5.15-10.59,1.08-2,2.66-5,2.91-7.06.29-2.39-1.79-3.91-4.64-3.91a15.92,15.92,0,0,0-7.86,2.65,6.39,6.39,0,0,1,.65,1.52,8.27,8.27,0,0,1,1.94-.52A1,1,0,0,1,361,82.68C360.88,83.66,356.36,92.71,356.36,92.71Z"/><path class="cls-10" d="M389.72,91.07c-.57,1.27-1.34,2.9-2,4.54a13.35,13.35,0,0,0-1.4,4.6c-.33,2.73,2.12,4.74,5.51,4.74,3.9,0,7.19-2.29,9.7-4.62l0-.09a7.93,7.93,0,0,1-.76-1.76A21.14,21.14,0,0,1,399,100a5,5,0,0,1-2.77,1.12c-1.42,0-1.57-1-1.47-1.92.22-1.7,1.94-5.36,2.76-7L404.33,77c6.78-.67,15.24-1.62,19.71,1.09-6.45.5-12.9,2.48-16.92,7.15A17.08,17.08,0,0,0,403,94.5a12.88,12.88,0,0,0,.08,3.15c.85,4.39,4.84,7.33,11.09,7.33,10.51,0,19.7-8.29,20.7-16.5A9.3,9.3,0,0,0,433,81.06c3.49,1.35,6.14,3.49,6.82,4.6a8.25,8.25,0,0,0,4.29-4.1c-1.47-1.44-7.4-3.16-14.29-3.5-4.05-2.77-11.13-5.08-23.53-5.37l2.84-6.29a10.65,10.65,0,0,0-7.66,0l-3.05,6.39c-8.21.37-17.93,2.57-35.66-1l-.47.77c9.88,4.08,25,5,33.88,5ZM427,82.25c.77,3.87-2.23,10.91-5.7,15.63-5,6.91-12.88,7.08-10.07-2.77.44-1.56,4-14.2,14.81-15.17A6.38,6.38,0,0,1,427,82.25Z"/></g></g></svg>