<svg xmlns="http://www.w3.org/2000/svg" viewBox="0 0 555.78 749"><defs><style>.cls-1{fill:none;}.cls-2{fill:#eb422e;}.cls-3{fill:#f59745;}.cls-4{fill:#4a9343;}.cls-5{fill:#f4b88c;}.cls-6{fill:#fff;}.cls-7{fill:#fd8000;}.cls-8{fill:#ff8000;}.cls-9{fill:#cf3339;}</style></defs><g id="Layer_2" data-name="Layer 2"><g id="original"><path class="cls-1" d="M431.76,13.09a2.44,2.44,0,0,0,1.87-.65,2.93,2.93,0,0,0,.89-2.06,2.93,2.93,0,0,0-.59-2.18,2.53,2.53,0,0,0-3.63-.26,2.88,2.88,0,0,0-.89,2.05,2.92,2.92,0,0,0,.59,2.18A2.42,2.42,0,0,0,431.76,13.09Z"/><path class="cls-1" d="M521.17,52.11a1.71,1.71,0,0,0,.32-.71,4.83,4.83,0,0,0,0-1.75,1.65,1.65,0,0,0-.32-.71,1.46,1.46,0,0,0-.63-.47,2.62,2.62,0,0,0-1-.17h-1.07v4.45h1.07a2.81,2.81,0,0,0,1-.17A1.46,1.46,0,0,0,521.17,52.11Z"/><path class="cls-1" d="M317.08,697.86l-4.25,0L307.78,715l3.22,0c3.71-.42,5-2.76,6.42-5.9a23.78,23.78,0,0,0,2.07-7.73,3.63,3.63,0,0,0-.85-2.9A2.14,2.14,0,0,0,317.08,697.86Z"/><path class="cls-1" d="M418.16,12.6a2.49,2.49,0,0,0,1.84-.77,3,3,0,0,0,.77-2.13,2.89,2.89,0,0,0-.72-2.12,2.49,2.49,0,0,0-1.84-.79,2.45,2.45,0,0,0-1.82.76,2.93,2.93,0,0,0-.77,2.12,2.89,2.89,0,0,0,.73,2.13A2.4,2.4,0,0,0,418.16,12.6Z"/><path class="cls-1" d="M268.86,662.92a2.31,2.31,0,0,0-1.61.58,2.56,2.56,0,0,0-.8,1.6h4.83a2,2,0,0,0-.72-1.59A2.55,2.55,0,0,0,268.86,662.92Z"/><path class="cls-1" d="M172.75,179.86c21.48-1.29,46.74-15,51.26-37.89,2.93-14.83-3.26-32.07-16.56-46.11-11.48-12.13-26.75-21-41.07-28.65-29.64,26.3-52.4,55.55-69,88.71C120.24,167.15,150.9,181.18,172.75,179.86Zm-1-19.31c-9.65,2.83-19.19-.7-21.3-7.88s4-15.31,13.66-18.14,19.18.7,21.29,7.88S181.42,157.72,171.77,160.55ZM166.7,84.14c11,5,29,13.91,39.07,37.26,4.76,11.09-.5,23.29-10.84,31.93a23.27,23.27,0,0,0,1.8-17.13c-4-13.79-20.78-21-37.36-16.16s-26.75,20-22.71,33.79a22.26,22.26,0,0,0,4.93,8.71c-11.2-2.5-21.34-6.91-27.54-12.72C135.1,120.83,151.13,99.71,166.7,84.14Z"/><path class="cls-1" d="M259.24,663.51a2.59,2.59,0,0,0-1.71-.59,2.3,2.3,0,0,0-1.6.58,2.51,2.51,0,0,0-.8,1.6H260A2.05,2.05,0,0,0,259.24,663.51Z"/><path class="cls-1" d="M401,7.68a2.28,2.28,0,0,0-1.62-.41,2.23,2.23,0,0,0-1.47.65,2.33,2.33,0,0,0-.65,1.55l4.49-.37A1.85,1.85,0,0,0,401,7.68Z"/><path class="cls-1" d="M514.26,427.15h-1.42v10.07h1.42c3.72,0,4.65-1.85,4.65-5S518,427.15,514.26,427.15Z"/><path class="cls-1" d="M483.47,297.41c-.19,1.37-.43,2.59-.68,3.62a45.7,45.7,0,0,1-14.05,23h43.87c-7.08-6.37-14.13-12.85-21.06-19.21Z"/><path class="cls-1" d="M529.88,50.33a.77.77,0,0,0,.27-.08.48.48,0,0,0,.18-.17.53.53,0,0,0,.07-.31.4.4,0,0,0-.08-.26.65.65,0,0,0-.18-.15.71.71,0,0,0-.26-.06l-.27,0h-.71v1.06h1Z"/><polygon class="cls-1" points="411.15 719.98 406.54 729.99 409.91 729.99 411.15 719.98"/><path class="cls-1" d="M385.9,690.46h-1.1l-1.88,6.3h1.26c1.95,0,3.18-2.08,3.33-4.1C387.62,691.12,386.94,690.46,385.9,690.46Z"/><path class="cls-1" d="M283.12,667.65a2.62,2.62,0,0,0,1,1,2.57,2.57,0,0,0,1.32.36,2.52,2.52,0,0,0,1.33-.37,2.65,2.65,0,0,0,1-1,3.27,3.27,0,0,0,.37-1.61,3.22,3.22,0,0,0-.37-1.59,2.57,2.57,0,0,0-2.32-1.36,2.56,2.56,0,0,0-1.32.35,2.68,2.68,0,0,0-1,1,3.26,3.26,0,0,0-.37,1.6A3.22,3.22,0,0,0,283.12,667.65Z"/><path class="cls-1" d="M527.7,52.43a2.61,2.61,0,0,0,.8.58,2.44,2.44,0,0,0,1,.21,2.29,2.29,0,0,0,1-.2,2.44,2.44,0,0,0,.8-.55,2.72,2.72,0,0,0,.53-.85,3.25,3.25,0,0,0,0-2.19,2.61,2.61,0,0,0-.53-.85,2.43,2.43,0,0,0-1.78-.76,2.54,2.54,0,0,0-1,.2,2.46,2.46,0,0,0-.8.56,2.61,2.61,0,0,0-.53.85,3,3,0,0,0-.19,1.09,3.21,3.21,0,0,0,.17,1A2.82,2.82,0,0,0,527.7,52.43Zm.6-3.65h1.37a1.68,1.68,0,0,1,1,.24.93.93,0,0,1,.33.8.88.88,0,0,1-.27.71,1.23,1.23,0,0,1-.67.27l1,1.59h-.67l-.93-1.54h-.56v1.54h-.6Z"/><path class="cls-1" d="M350.19,690.46h-1.14l-4.12,14h1.27c3.83,0,5.75-8.09,5.9-10.61S351.3,690.46,350.19,690.46Z"/><path class="cls-1" d="M372.63,734.21h0l-.37-4.23h2.39a.56.56,0,0,1,.55.51l.12,1.33a26.64,26.64,0,0,0,2.77-9.16c.13-1.86-.22-3.12-1.41-3.12-2.9,0-5.21,8.31-5.45,11.62C371.12,733,371.44,734.21,372.63,734.21Z"/><polygon class="cls-1" points="269.08 438.58 268.88 438.58 261.11 464.78 276.84 464.78 269.08 438.58"/><polygon class="cls-1" points="536.98 452.49 536.92 452.49 534.74 459.85 539.16 459.85 536.98 452.49"/><path class="cls-1" d="M436.32,690.14c-2.89,0-5.2,8.32-5.44,11.62-.14,1.83.18,3.06,1.38,3.06,2.86,0,5.23-8.28,5.47-11.56C437.87,691.4,437.52,690.14,436.32,690.14Z"/><path class="cls-1" d="M353.29,18.88a1.9,1.9,0,0,0-1.11-1.17,2.35,2.35,0,0,0-1.67,0,2.27,2.27,0,0,0-1.24,1,2.33,2.33,0,0,0-.21,1.67Z"/><path class="cls-1" d="M309.81,40.44a1.83,1.83,0,0,0-1.31-.63,2.11,2.11,0,0,0-1.44.72l-1.41,1.35,2.57,2.67,1.41-1.36a2.19,2.19,0,0,0,.77-1.41A1.85,1.85,0,0,0,309.81,40.44Z"/><path class="cls-1" d="M70.21,541.43H50.55v25.25H72.07c6.44,0,13.22-4.06,13.22-12.37C85.29,546.18,79.7,541.43,70.21,541.43Z"/><path class="cls-1" d="M444,719.54c-2.9,0-5.21,8.31-5.45,11.62-.13,1.83.19,3.06,1.38,3.06,2.87,0,5.24-8.29,5.48-11.57C445.56,720.8,445.21,719.54,444,719.54Z"/><path class="cls-1" d="M387.77,9.1a2.33,2.33,0,0,0-1.64-.31,2.24,2.24,0,0,0-1.43.74,2.32,2.32,0,0,0-.54,1.59l4.45-.66A1.84,1.84,0,0,0,387.77,9.1Z"/><polygon class="cls-1" points="498.83 548.55 485.61 593.13 512.39 593.13 499.17 548.55 498.83 548.55"/><path class="cls-1" d="M330.26,29.35a1.86,1.86,0,0,0-1.3-.94,2.36,2.36,0,0,0-1.63.34,2.22,2.22,0,0,0-.93,2.92Z"/><path class="cls-1" d="M299.59,664.45a2.52,2.52,0,0,0-1-1,2.74,2.74,0,0,0-2.66,0,2.75,2.75,0,0,0-1,1,3.22,3.22,0,0,0-.38,1.59,3.26,3.26,0,0,0,.38,1.6,2.67,2.67,0,0,0,1,1.06,2.48,2.48,0,0,0,1.31.37,2.61,2.61,0,0,0,1.34-.36,2.52,2.52,0,0,0,1-1,3.21,3.21,0,0,0,.37-1.6A3.25,3.25,0,0,0,299.59,664.45Z"/><path class="cls-2" d="M65.75,177.86c-15.86,42.8-24.21,92.83-26.28,157.43a10.18,10.18,0,0,0,9.84,10.49h.33a10.19,10.19,0,0,0,10.17-9.85c2-62.34,10-110.32,25-151q2-5.31,4.12-10.5c24.78,12.17,58.28,27.35,85,25.73a84.79,84.79,0,0,0,43.88-15.49c14.07-10.11,23.1-23.51,26.12-38.76,4.2-21.29-3.93-45.23-21.75-64-15.45-16.33-36-27.19-52.5-35.92a10.15,10.15,0,0,0-11.36,1.25C114.89,84.3,84.59,127,65.75,177.86ZM166.38,67.21C180.7,74.88,196,83.73,207.45,95.86c13.3,14,19.49,31.28,16.56,46.11-4.52,22.88-29.78,36.6-51.26,37.89-21.85,1.32-52.51-12.71-75.35-23.94C114,122.76,136.74,93.51,166.38,67.21Z"/><path class="cls-3" d="M108.51,205.38a10.18,10.18,0,0,0-12.26,7.54C85.64,257.38,80.43,281.15,78,335.16a10.19,10.19,0,0,0,9.72,10.62h.46a10.17,10.17,0,0,0,10.15-9.72c2.33-52.28,7.11-74.08,17.69-118.43A10.18,10.18,0,0,0,108.51,205.38Z"/><path class="cls-4" d="M263.52,142.24c15,8.76,24.75,15.55,35.09,22.74,6.61,4.59,13.37,9.29,21.57,14.52A1184.66,1184.66,0,0,0,118.53,326.65a10.18,10.18,0,0,0,6.83,17.73h253a10.18,10.18,0,1,0,0-20.35H152.22A1167.38,1167.38,0,0,1,345.16,188.65a10.17,10.17,0,0,0,.15-17.65c-15-8.76-24.75-15.55-35.09-22.73s-20.75-14.43-36.43-23.6a10.18,10.18,0,1,0-10.27,17.57Z"/><path class="cls-3" d="M282.63,305.29c11.64.12,23.42.17,35.25.17,20.34,0,40.81-.14,60.85-.28,19.16-.13,37.27-.26,54.56-.26a10.18,10.18,0,1,0,0-20.35c-17.36,0-35.5.13-54.7.26-14.76.1-29.74.2-44.72.25,17.36-6.68,35.43-13.32,52.35-19.53,16.52-6.06,32.12-11.79,44.1-16.5a10.17,10.17,0,0,0,2.41-17.58c-8.77-6.64-16.9-13.07-24.76-19.3-10.53-8.33-21.42-17-33.59-25.82a10.17,10.17,0,1,0-12,16.44c11.84,8.63,22.09,16.75,32.94,25.34q5.24,4.14,10.67,8.42c-8.28,3.1-17.39,6.44-26.8,9.9-33.69,12.37-71.88,26.39-100.66,39.39a10.18,10.18,0,0,0,4.08,19.45Z"/><path class="cls-2" d="M463.51,253a90.94,90.94,0,0,0-7.72-5.87l-.08-.06,0,0-.18-.13-.3-.18-.49-.3-.41-.21-.5-.24-.43-.16-.51-.19-.45-.12-.52-.13-.45-.08a4.63,4.63,0,0,0-.52-.07l-.45,0-.53,0h-.45l-.53,0-.43.05-.54.07-.42.09-.53.13-.41.13c-.17.06-.35.11-.52.18l-.4.17-.49.23c-.14.06-.27.14-.4.21l-.46.27L444,247l-.42.3-.38.32-.37.33c-.13.12-.26.25-.38.38l-.33.36c-.12.14-.23.29-.34.43s-.16.19-.23.29a.61.61,0,0,1-.07.1.76.76,0,0,1-.08.11c-.08.12-.14.24-.21.35s-.18.28-.26.42-.16.32-.24.48-.15.29-.21.44l-.2.51c-.05.14-.11.28-.15.43s-.1.35-.15.53-.08.28-.11.42-.06.37-.09.56-.05.28-.06.41a5.48,5.48,0,0,0-.05.57c0,.14,0,.28,0,.41s0,.38,0,.57,0,.27,0,.41,0,.37.07.55,0,.28.06.42.07.36.11.54.06.28.1.42.11.34.16.51l.15.42c.06.16.14.32.21.49l.18.4c.08.16.17.32.26.47s.15.27.23.39a5,5,0,0,0,.3.45c.09.13.17.25.27.37s.23.29.35.43l.3.33c.13.14.27.27.41.4s.21.21.33.31.3.24.45.35l.27.22c1.93,1.38,4,2.93,6.08,4.6,10.56,8.9,15.3,18.9,13.08,28.09-3.35,13.83-21.81,24.77-47,27.85l-.33.06-.61.1-.4.11-.57.16c-.15,0-.29.1-.43.15l-.49.2-.46.22-.42.21-.46.28-.37.24c-.15.1-.29.21-.43.32s-.24.18-.35.28-.26.23-.39.35-.23.21-.33.32-.22.24-.33.36l-.33.38-.27.36c-.1.15-.21.29-.31.43l-.22.38a4.39,4.39,0,0,0-.27.47c-.07.13-.13.26-.19.4s-.16.32-.23.49-.1.29-.16.44l-.16.48c0,.17-.09.34-.13.51s-.08.3-.11.45-.06.39-.09.58,0,.28-.05.42,0,.41,0,.61,0,.23,0,.34,0,.06,0,.09,0,.35,0,.53,0,.35,0,.53a.28.28,0,0,0,0,.09,2.79,2.79,0,0,0,.07.4,3.85,3.85,0,0,0,.08.49c0,.17.08.33.12.49s.08.3.13.45.16.48.25.71a1.46,1.46,0,0,1,.07.19q.19.45.42.87l.08.13a7.92,7.92,0,0,0,.42.69l.15.21c.13.18.27.37.41.54l.22.26c.13.15.27.3.41.44l.27.27.41.37.33.26c.13.11.27.21.41.31l.37.25.42.25.4.22.45.22.41.18.49.18.4.13c.19.06.39.1.59.15l.34.08c.25.05.5.09.76.12l.2,0a8.39,8.39,0,0,0,1,.06H539.7a10.18,10.18,0,0,0,6.56-18c-13.57-11.45-27.49-24.23-40.95-36.59C490.17,275.93,475.72,262.66,463.51,253ZM468.74,324a45.7,45.7,0,0,0,14.05-23c.25-1,.49-2.25.68-3.62l8.08,7.41c6.93,6.36,14,12.84,21.06,19.21Z"/><path class="cls-5" d="M141.59,162.54a22.26,22.26,0,0,1-4.93-8.71c-4-13.79,6.12-28.92,22.71-33.79s33.31,2.37,37.36,16.16a23.27,23.27,0,0,1-1.8,17.13c10.34-8.64,15.6-20.84,10.84-31.93-10-23.35-28-32.25-39.07-37.26-15.57,15.57-31.6,36.69-52.65,65.68C120.25,155.63,130.39,160,141.59,162.54Z"/><path class="cls-2" d="M164.13,134.53c-9.65,2.83-15.77,10.95-13.66,18.14s11.65,10.71,21.3,7.88,15.76-11,13.65-18.14S173.78,131.7,164.13,134.53Z"/><path class="cls-2" d="M229.13,282.44c-13,3.8-21.85,12.4-19.86,19.19s14.12,9.23,27.08,5.42,21.85-12.39,19.86-19.19S242.09,278.64,229.13,282.44Z"/><path class="cls-5" d="M194.22,212.34c-28.11,7.23-59.57,2.94-59.57,2.94l-17.08,85.57S199.23,232.14,290,171.11C279.2,164.87,257.19,151,257.19,151S251.83,197.54,194.22,212.34Z"/><path class="cls-3" d="M10,347.07h.29a10.25,10.25,0,0,0,10.23-10c4.81-178,70.71-255.55,119.87-298.41a10.24,10.24,0,1,0-13.46-15.44c-37.18,32.42-65.12,69.4-85.4,113C15.72,191.75,2.15,257.26,0,336.56A10.24,10.24,0,0,0,10,347.07Z"/><path class="cls-5" d="M337.86,206.51s-67.91,48.34-86,66.14l115.39-47.46Z"/><path class="cls-3" d="M10.24,388.1H539.7a10.25,10.25,0,0,0,0-20.49H10.24a10.25,10.25,0,0,0,0,20.49Z"/><path class="cls-6" d="M123.26,554.14c0-33-23.39-42.2-53.22-42.2H34.78c-15.08,0-22.2,6.95-22.2,23.22v80.68c0,13,6.78,20.34,19,20.34s19-7.29,19-20.34V596.18H70C99.87,596.18,123.26,587,123.26,554.14ZM72.07,566.68H50.55V541.43H70.21c9.49,0,15.08,4.75,15.08,12.88C85.29,562.62,78.51,566.68,72.07,566.68Z"/><path class="cls-6" d="M163.42,636.18c12,0,19.5-8,19.5-21V530.75c0-13-7.46-21-19.5-21s-19.49,8-19.49,21v84.41C143.93,628.21,151.39,636.18,163.42,636.18Z"/><path class="cls-6" d="M203.08,527.19c0,9.15,5.93,15.26,18.64,15.26h38l-48.81,54.23C202.4,606,200,610.41,200,616.85c0,9.5,5.93,17.12,19.15,17.12h78c11.69,0,17.8-5.25,17.8-15.25s-6.11-15.26-17.8-15.26H253.08l52.21-58c5.93-6.61,7.79-10.85,7.79-16.44,0-9.5-5.42-17.12-17.8-17.12H221.72C209,511.94,203.08,518,203.08,527.19Z"/><path class="cls-6" d="M419.52,603.46H375.45l52.2-58c5.93-6.61,7.8-10.85,7.8-16.44,0-9.5-5.42-17.12-17.8-17.12H344.09c-12.71,0-18.64,6.1-18.64,15.25s5.93,15.26,18.64,15.26h38l-48.82,54.23c-8.47,9.33-10.84,13.73-10.84,20.17,0,9.5,5.93,17.12,19.15,17.12h78c11.69,0,17.79-5.25,17.79-15.25S431.21,603.46,419.52,603.46Z"/><path class="cls-6" d="M549.68,597.7l-25.93-72.2c-3.73-10.17-8.82-15.77-18.65-15.77H492.9c-9.83,0-14.92,5.6-18.65,15.77l-25.93,72.2c-2.88,8.14-6.1,17.12-6.1,22.71,0,9.16,9,15.77,17.8,15.77,6.1,0,13.73-2.72,15.76-9.66l2.71-9h41l2.71,9c2,6.94,9.66,9.66,15.77,9.66,8.81,0,17.79-6.61,17.79-15.77C555.78,614.82,552.56,605.84,549.68,597.7Zm-64.07-4.58,13.22-44.57h.34l13.22,44.57Z"/><path class="cls-6" d="M63.8,466.07c0-12.45-8.26-18-20.31-21.31l-11.86-3.19c-4.88-1.29-7.66-2.69-7.66-5.88s3.58-4.78,7.47-4.78c11.35,0,11.45,8.77,19.12,8.77,5.67,0,10-3.49,10-9.07,0-12.05-17.13-15.23-30.38-15.23-19.92,0-27.89,11.25-27.89,23.2,0,10.06,6.28,16.83,17.73,20.12l15.24,4.38c4.18,1.2,6.27,2.39,6.27,5.28,0,4.38-4.18,6-8.86,6-11.25,0-12.25-10.46-20.42-10.46-5.57,0-9.66,3.78-9.66,9.36,0,6.47,7.37,17.23,31.47,17.23C49.16,490.47,63.8,483.1,63.8,466.07Z"/><path class="cls-6" d="M126.65,433.8c6.87,0,10-3.38,10-8.36s-3.09-8.37-10-8.37H90.2c-8.87,0-13,4.08-13,13.64v44.42c0,9.56,4.18,13.65,13,13.65h37.55c6.87,0,9.95-3.39,9.95-8.37s-3.08-8.36-9.95-8.36H100.06V460.59h21.31c6.87,0,10-3.38,10-8.36s-3.09-8.37-10-8.37H100.06V433.8Z"/><path class="cls-6" d="M216.09,415.77h-6.48c-7.27,0-10.25,2.5-12.15,9.57L188,460.89h-.2l-9.46-35.55c-1.89-7.07-4.88-9.57-12.15-9.57h-6.47c-7.87,0-11.95,5.08-11.95,12.45v51.59c0,6.88,4.08,10.26,10.25,10.26s10.26-3.38,10.26-10.26V445h.2l10.36,38.74c1.29,4.88,3.58,6.37,9.06,6.37s7.77-1.49,9.07-6.37L207.32,445h.2v34.85c0,6.88,4.09,10.26,10.26,10.26S228,486.69,228,479.81V428.22C228,420.85,224,415.77,216.09,415.77Z"/><path class="cls-6" d="M255.33,484.4l1.6-5.28H281l1.59,5.28c1.2,4.08,5.68,5.67,9.26,5.67,5.18,0,10.46-3.88,10.46-9.26,0-3.29-1.89-8.56-3.59-13.35L283.52,425c-2.19-6-5.18-9.27-11-9.27h-7.17c-5.78,0-8.76,3.29-10.95,9.27L239.2,467.46c-1.7,4.79-3.59,10.06-3.59,13.35,0,5.38,5.28,9.26,10.46,9.26C249.66,490.07,254.14,488.48,255.33,484.4Zm13.55-45.82h.2l7.76,26.2H261.11Z"/><path class="cls-6" d="M322.36,490.07c7.07,0,11.45-4.68,11.45-12.35V428.13c0-7.67-4.38-12.36-11.45-12.36s-11.45,4.69-11.45,12.36v49.59C310.91,485.39,315.29,490.07,322.36,490.07Z"/><path class="cls-6" d="M371.36,478.52V450.23h.2l19,31.28c4.39,7.27,7.67,9,13.75,9,7.27,0,12.94-3.09,12.94-11V426.83c0-6.67-4.18-11.45-11.15-11.45S395,420.16,395,426.83v30h-.2l-20.12-34.46c-2.89-4.88-7-7-12.45-7-8.67,0-13.15,4.48-13.15,12.25v50.89c0,7.67,4,12,11.16,12S371.36,486.19,371.36,478.52Z"/><path class="cls-6" d="M483.41,488.78c6.87,0,10-3.39,10-8.37s-3.09-8.36-10-8.36H455.72V460.59H477c6.87,0,9.95-3.38,9.95-8.36s-3.08-8.37-9.95-8.37H455.72V433.8h26.59c6.88,0,10-3.38,10-8.36s-3.08-8.37-10-8.37H445.86c-8.86,0-13,4.08-13,13.64v44.42c0,9.56,4.18,13.65,13,13.65Z"/><path class="cls-3" d="M507.12,479.21a4.89,4.89,0,1,0,0,9.78h40.21a4.89,4.89,0,0,0,0-9.78Z"/><path class="cls-6" d="M515.69,422.12h-5.45c-2.49,0-3.67,1.14-3.67,3.83v12.47c0,2.69,1.18,3.84,3.67,3.84h5.45c6.68,0,9.65-4.48,9.65-10.07S522.37,422.12,515.69,422.12Zm-1.43,15.1h-1.42V427.15h1.42c3.72,0,4.65,1.85,4.65,5S518,437.22,514.26,437.22Z"/><path class="cls-6" d="M544.14,426.82c1.93,0,2.79-.95,2.79-2.35s-.86-2.35-2.79-2.35H533.9c-2.49,0-3.66,1.14-3.66,3.83v12.47c0,2.69,1.17,3.84,3.66,3.84h10.55c1.92,0,2.79-1,2.79-2.35s-.87-2.35-2.79-2.35h-7.78v-3.22h6c1.92,0,2.79-.95,2.79-2.35s-.87-2.35-2.79-2.35h-6v-2.82Z"/><path class="cls-6" d="M511.77,446.09c-2,0-3.21,1.31-3.21,3.46v13.21c0,2.68,1.17,3.83,3.66,3.83h9.51a2.61,2.61,0,1,0,0-5.2H515V449.55C515,447.4,513.76,446.09,511.77,446.09Z"/><path class="cls-6" d="M527.58,464.35a2.84,2.84,0,0,0,2.94,2.6,2.6,2.6,0,0,0,2.6-1.59l.44-1.49h6.77l.45,1.49a2.59,2.59,0,0,0,2.6,1.59,2.84,2.84,0,0,0,2.94-2.6,14.11,14.11,0,0,0-1-3.75L541,448.69c-.61-1.68-1.45-2.6-3.08-2.6h-2c-1.62,0-2.46.92-3.07,2.6l-4.28,11.91A14.11,14.11,0,0,0,527.58,464.35Zm9.34-11.86H537l2.18,7.36h-4.42Z"/><polygon class="cls-7" points="221.24 658.33 221.24 671.14 228.03 671.14 228.03 669.1 223.81 669.1 223.81 658.33 221.24 658.33"/><path class="cls-7" d="M232.09,657.18a1.7,1.7,0,0,0-2.26,0,1.44,1.44,0,0,0-.45,1.08,1.42,1.42,0,0,0,.45,1.07,1.7,1.7,0,0,0,2.26,0,1.42,1.42,0,0,0,.45-1.07A1.44,1.44,0,0,0,232.09,657.18Z"/><rect class="cls-7" x="229.66" y="660.97" width="2.57" height="10.17"/><polygon class="cls-7" points="244.3 660.97 241.57 660.97 239 668.77 236.43 660.97 233.68 660.97 237.42 671.14 240.54 671.14 244.3 660.97"/><path class="cls-7" d="M245.75,661v10.17h2.57v-5.06a2.63,2.63,0,0,1,.62-2,2.58,2.58,0,0,1,1.82-.57h.68v-2.69a3.58,3.58,0,0,0-1.83.46,3.54,3.54,0,0,0-1.29,1.26V661Z"/><path class="cls-7" d="M253.15,663.29a5.7,5.7,0,0,0-.65,2.77,5.59,5.59,0,0,0,.66,2.75,4.58,4.58,0,0,0,1.81,1.84,5.27,5.27,0,0,0,2.64.65,4.91,4.91,0,0,0,3.06-.94,4.61,4.61,0,0,0,1.69-2.41h-2.77a2.1,2.1,0,0,1-2,1.23,2.36,2.36,0,0,1-1.67-.63,2.52,2.52,0,0,1-.77-1.72h7.43a6,6,0,0,0,.08-1,5.32,5.32,0,0,0-.64-2.64,4.4,4.4,0,0,0-1.78-1.77,5.78,5.78,0,0,0-5.25,0A4.43,4.43,0,0,0,253.15,663.29Zm2.78.21a2.3,2.3,0,0,1,1.6-.58,2.59,2.59,0,0,1,1.71.59,2.05,2.05,0,0,1,.71,1.59h-4.82A2.51,2.51,0,0,1,255.93,663.5Z"/><polygon class="cls-7" points="259.57 656.2 255.35 658.39 255.35 660.22 259.57 658.29 259.57 656.2"/><path class="cls-7" d="M273.94,665.84a5.42,5.42,0,0,0-.63-2.64,4.52,4.52,0,0,0-1.78-1.77,5.46,5.46,0,0,0-2.6-.62,5.34,5.34,0,0,0-2.66.64,4.5,4.5,0,0,0-1.8,1.84,5.7,5.7,0,0,0-.64,2.77,5.59,5.59,0,0,0,.65,2.75,4.58,4.58,0,0,0,1.81,1.84,5.27,5.27,0,0,0,2.64.65,4.91,4.91,0,0,0,3.06-.94,4.56,4.56,0,0,0,1.69-2.41h-2.77a2.09,2.09,0,0,1-2,1.23,2.38,2.38,0,0,1-1.67-.63,2.52,2.52,0,0,1-.77-1.72h7.44A7.43,7.43,0,0,0,273.94,665.84Zm-7.49-.74a2.56,2.56,0,0,1,.8-1.6,2.31,2.31,0,0,1,1.61-.58,2.55,2.55,0,0,1,1.7.59,2,2,0,0,1,.72,1.59Z"/><path class="cls-7" d="M280.18,661v15h2.57v-6.29a4.07,4.07,0,0,0,3.35,1.61,4.35,4.35,0,0,0,2.36-.66,4.58,4.58,0,0,0,1.67-1.86,6,6,0,0,0,.62-2.76,5.86,5.86,0,0,0-.62-2.74,4.49,4.49,0,0,0-1.67-1.83,4.42,4.42,0,0,0-2.36-.64,4.06,4.06,0,0,0-2,.47,3.9,3.9,0,0,0-1.36,1.16V661Zm2.94,3.49a2.68,2.68,0,0,1,1-1,2.56,2.56,0,0,1,1.32-.35,2.57,2.57,0,0,1,2.32,1.36,3.22,3.22,0,0,1,.37,1.59,3.27,3.27,0,0,1-.37,1.61,2.65,2.65,0,0,1-1,1,2.52,2.52,0,0,1-1.33.37,2.57,2.57,0,0,1-1.32-.36,2.62,2.62,0,0,1-1-1,3.22,3.22,0,0,1-.37-1.59A3.26,3.26,0,0,1,283.12,664.46Z"/><path class="cls-7" d="M302.55,671.14V661H300v1.45a4,4,0,0,0-1.37-1.15,4.09,4.09,0,0,0-2-.46,4.45,4.45,0,0,0-2.36.64,4.53,4.53,0,0,0-1.67,1.84A5.84,5.84,0,0,0,292,666a6,6,0,0,0,.61,2.76,4.65,4.65,0,0,0,1.67,1.86,4.36,4.36,0,0,0,2.34.66,4.2,4.2,0,0,0,2-.46,3.9,3.9,0,0,0,1.37-1.19v1.49Zm-3-3.48a2.52,2.52,0,0,1-1,1,2.61,2.61,0,0,1-1.34.36,2.48,2.48,0,0,1-1.31-.37,2.67,2.67,0,0,1-1-1.06,3.26,3.26,0,0,1-.38-1.6,3.22,3.22,0,0,1,.38-1.59,2.75,2.75,0,0,1,1-1,2.74,2.74,0,0,1,2.66,0,2.52,2.52,0,0,1,1,1,3.25,3.25,0,0,1,.37,1.61A3.21,3.21,0,0,1,299.59,667.66Z"/><path class="cls-7" d="M305.06,661v10.17h2.57v-5.06a2.59,2.59,0,0,1,.62-2,2.56,2.56,0,0,1,1.82-.57h.68v-2.69a3.58,3.58,0,0,0-1.83.46,3.54,3.54,0,0,0-1.29,1.26V661Z"/><path class="cls-8" d="M198.39,705.48c.66-.16,7.72-.87,7.72-.87,3.86-.5,2-4.25,2-4.25-.94-2.12-8.61-12.89-8.61-12.89-3.8-4.45-4.22-7.07-4.22-7.07-.48-5.16-2.63-19.48-2.63-19.48A3.24,3.24,0,0,0,190,658c-3.33-.45-8.59-.71-8.59-.71a2.36,2.36,0,0,0-2.23,1.61c-.49,1.23-.3,5.25-.3,5.25,0,1.37-1.19.56-1.19.56a132.2,132.2,0,0,0-13.38-9.63,5.46,5.46,0,0,0-6,0,132.46,132.46,0,0,0-43.82,45.44,2.66,2.66,0,0,0-.29.7,2.73,2.73,0,0,0,2,3.33c1.59.39,8.18,1,8.18,1a2,2,0,0,1,1.57,2.11,286.4,286.4,0,0,0,2.39,38.86c.49,2.65,2.62,2.5,2.62,2.5l12.87-.35c.84,0,.64-.94.64-.94-.51-3.92-1.09-16.09-1.09-16.09a1.55,1.55,0,0,0-.77-1.09c-5.12-2.81-5-9.74-5-9.74-.15-6.73.88-29.67.88-29.67a.71.71,0,0,1,0-.14,1.48,1.48,0,0,1,1.66-1.27h.15a1.55,1.55,0,0,1,1.34,1.74c-.16,1.48-.79,20.66-.79,20.66.13,3,2.42,2.78,2.42,2.78,2.74.13,2.42-3.3,2.42-3.3-.2-7.08.88-20.48.88-20.48s0-.08,0-.12a1.52,1.52,0,0,1,1.74-1.26,1.48,1.48,0,0,1,1.37,1.51c-.61,6.91-.79,20.92-.79,20.92.11,3.1,2.62,2.73,2.62,2.73,2.58-.07,2.21-3.8,2.21-3.8-.21-5.74.88-20.14.88-20.14a.51.51,0,0,1,0-.13,1.44,1.44,0,0,1,1.73-1.07c1.55.22,1.41,1.41,1.41,1.41-.15,3.5-.77,25.34-.77,25.34a41.31,41.31,0,0,1-.09,6.51,10,10,0,0,1-4.65,7.39,1.06,1.06,0,0,0-.59,1c0,2,1,16.23,1.13,16.73s1,.41,1,.41c1.88-.13,18.62,0,18.62,0,1.19,0,1.33-.34,1.33-.34a4,4,0,0,0,.28-1.35c.25-2,1.12-13.41,1.12-13.41.06-.93-.65-.93-.65-.93l-3.8-.51c-3-.24-3.58-1.33-3.58-1.33-.94-1.58-.73-7.79-.73-7.79a61.48,61.48,0,0,1,11.46-35c1.69-2.32,3.44-1.61,3.44-1.61,1.94.52,2,3,2,3,2.5,19.63-1.18,58.45-1.18,58.45-.12,1,.62,1,.62,1,1.68-.05,8.92.18,8.92.18,2.64.13,3.11-4.62,3.11-4.62,1.82-12,2.19-36.85,2.19-36.85a.43.43,0,0,1,0-.05A1.76,1.76,0,0,1,198.39,705.48Z"/><path class="cls-8" d="M237.15,736.83a1.3,1.3,0,0,0,1.06.53h11.38l2.85-9.66,3.46-5,2.67,13.59a1.32,1.32,0,0,0,1.3,1.06H283.8l14.33-48.71a1.34,1.34,0,0,0-1.28-1.7H285.53L271.66,734l-5.28-22.87,16.14-22a1.13,1.13,0,0,0,.23-.48l.29-1a.56.56,0,0,0-.54-.71H271L258.65,705l5.27-16.38a1.32,1.32,0,0,0-.21-1.17,1.35,1.35,0,0,0-1.06-.53H251.26l-9.85,33.46c.21-5.75-4.24-10.28-6.83-13.14-2.11-2.34-3.37-4-3.15-5.84a5.28,5.28,0,0,1,5-4.59c2.84-.22,4.06.65,5.86,1.49a1.56,1.56,0,0,0,.66.16,1.49,1.49,0,0,0,.55-.1,1.34,1.34,0,0,0,.8-.86l2.65-8.95-1.83-.85-.27-.13-.09,0a17.08,17.08,0,0,0-6.89-1.35c-10,0-19.06,7.15-20.55,15.93-1.05,6.14,2.89,10.48,5.76,13.65l.25.27c2.08,2.23,3.52,4,3.18,6-.47,2.81-3.21,4.42-5.85,4.63-2.9.24-4.71-.57-7-1.57a2,2,0,0,0-1.31-.24,1.39,1.39,0,0,0-.93.91l-2.53,8.65-.32,1.11a26.58,26.58,0,0,0,10.7,2.51c8.5,0,15.86-3.27,20.22-11.15l-2.58,8.79A1.34,1.34,0,0,0,237.15,736.83Z"/><path class="cls-8" d="M319.86,687H301l-.8,2.67a.86.86,0,0,0,.1.73l.53.84a3.33,3.33,0,0,1,.38,2.78L289,735.65a1.32,1.32,0,0,0,.2,1.17,1.28,1.28,0,0,0,1.05.54h11l3.43-11.58,4.94,0c11.95.16,18-8.23,20.7-17.34a31.45,31.45,0,0,0,1.61-8.19c0-4-1-7-3.3-9.51A11.67,11.67,0,0,0,319.86,687Zm-2.44,22.14c-1.41,3.14-2.71,5.48-6.42,5.9l-3.22,0,5.05-17.15,4.25,0a2.14,2.14,0,0,1,1.56.61,3.63,3.63,0,0,1,.85,2.9A23.78,23.78,0,0,1,317.42,709.1Z"/><path class="cls-8" d="M365,687.56a.47.47,0,0,0-.45-.6h-3.34l-4.33,14.77a6.8,6.8,0,0,0-.26,1.39c-.23,3.24,2,5.23,5,5.23s5.81-2,7.15-6.46l4.21-14.4a.42.42,0,0,0-.4-.53h-3.41l-4.41,15.12c-.59,2-1.43,2.77-2.6,2.77a1.56,1.56,0,0,1-1.63-1.86c0-.28.12-.69.16-.91Z"/><path class="cls-8" d="M351.18,687h-5.29l-6,20.42a.44.44,0,0,0,.43.57l5,0c8,0,10.74-10,11-14.17C356.54,689.2,354,687,351.18,687Zm.92,6.9c-.15,2.52-2.07,10.61-5.9,10.61h-1.27l4.12-14h1.14C351.3,690.46,352.24,691.43,352.1,693.86Z"/><path class="cls-8" d="M406.26,704.4a4.91,4.91,0,0,1-2.77-.49.63.63,0,0,0-.92.4l-.9,3.09a11.19,11.19,0,0,0,4,.75,8.35,8.35,0,0,0,8.22-6.83c.4-2.55-1.19-4.45-2.34-5.8-.87-1-1.6-2-1.43-3.06a3,3,0,0,1,2.75-2.52,5.06,5.06,0,0,1,2.29.41.67.67,0,0,0,.91-.38l.83-2.84a9,9,0,0,0-3.44-.72,8.25,8.25,0,0,0-8,6.55c-.4,2.52,1.21,4.32,2.35,5.67.91,1,1.64,2,1.46,3.12A3.11,3.11,0,0,1,406.26,704.4Z"/><path class="cls-8" d="M404.69,687H395.8l-6,20.44a.44.44,0,0,0,.42.57h8.89l.85-2.92a.45.45,0,0,0-.43-.58h-4.8l1.63-5.45h4.24l.87-2.92a.45.45,0,0,0-.43-.57h-3.67l1.51-5.07h5.39l.85-2.93A.45.45,0,0,0,404.69,687Z"/><path class="cls-8" d="M416.57,708H420l5.14-17.51h3.28l.82-2.89a.48.48,0,0,0-.47-.61h-10l-.82,2.88a.49.49,0,0,0,.47.62h2.64l-4.94,16.89A.48.48,0,0,0,416.57,708Z"/><path class="cls-8" d="M436.83,686.61c-6.36,0-9.66,10.24-10,15.06-.27,3.72,1.18,6.68,5,6.68,6.36,0,9.66-10.18,10-15C442.06,689.64,440.61,686.61,436.83,686.61Zm.9,6.65c-.24,3.28-2.61,11.56-5.47,11.56-1.2,0-1.52-1.23-1.38-3.06.24-3.3,2.55-11.62,5.44-11.62C437.52,690.14,437.87,691.4,437.73,693.26Z"/><path class="cls-8" d="M387.07,687h-5.23l-6,20.41a.47.47,0,0,0,.45.6h3.35l2.26-7.72h1.42v7.25a.47.47,0,0,0,.47.47h3.66l-.36-8.44c2.07-.76,4.34-3.75,4.59-7.25C391.91,689.29,390,687,387.07,687Zm.44,5.7c-.15,2-1.38,4.1-3.33,4.1h-1.26l1.88-6.3h1.1C386.94,690.46,387.62,691.12,387.51,692.66Z"/><path class="cls-8" d="M409.4,737.37h3.25l1.71-20.5a.47.47,0,0,0-.47-.51h-4.06l-10.2,20.32a.48.48,0,0,0,.43.69h3.2l1.76-3.88h4.35l-.43,3.34A.47.47,0,0,0,409.4,737.37ZM406.54,730l4.61-10-1.24,10Z"/><path class="cls-8" d="M411.33,714.73h2.15l-.85-3.67a.59.59,0,0,0-.57-.46H409l1.82,3.8A.59.59,0,0,0,411.33,714.73Z"/><path class="cls-8" d="M467.57,733.8a5.08,5.08,0,0,1-2.77-.49.62.62,0,0,0-.92.39l-.9,3.1a11.32,11.32,0,0,0,4,.74,8.34,8.34,0,0,0,8.22-6.83c.4-2.55-1.19-4.45-2.34-5.8-.87-1-1.6-1.95-1.43-3a3,3,0,0,1,2.75-2.53,5.2,5.2,0,0,1,2.29.41.67.67,0,0,0,.91-.37c0-.06.83-2.84.83-2.84a8.85,8.85,0,0,0-3.44-.73,8.26,8.26,0,0,0-8,6.55c-.4,2.53,1.2,4.32,2.35,5.68.91,1,1.64,2,1.46,3.12A3.13,3.13,0,0,1,467.57,733.8Z"/><path class="cls-8" d="M427.51,716.36h-3.45l-1.75,20.51a.46.46,0,0,0,.46.5h4.07L437.07,717a.47.47,0,0,0-.42-.68h-3.43L426.52,731,428,716.87A.46.46,0,0,0,427.51,716.36Z"/><path class="cls-8" d="M444.53,716c-6.37,0-9.66,10.24-10,15-.27,3.72,1.19,6.68,5,6.68,6.36,0,9.65-10.17,10-15C449.76,719,448.31,716,444.53,716Zm.9,6.64c-.24,3.28-2.61,11.57-5.48,11.57-1.19,0-1.51-1.23-1.38-3.06.24-3.31,2.55-11.62,5.45-11.62C445.21,719.54,445.56,720.8,445.43,722.65Z"/><path class="cls-8" d="M457.92,717a.46.46,0,0,0-.45-.6h-3.34l-4.32,14.77a6.71,6.71,0,0,0-.26,1.38c-.24,3.25,2,5.23,5,5.23s5.82-2,7.15-6.46l4.21-14.39a.41.41,0,0,0-.4-.53h-3.41l-4.41,15.12c-.59,2-1.43,2.77-2.6,2.77a1.57,1.57,0,0,1-1.63-1.86,8.77,8.77,0,0,1,.17-.91Z"/><path class="cls-8" d="M357.67,733.8a5.11,5.11,0,0,1-2.77-.49.61.61,0,0,0-.91.39l-.91,3.1a11.34,11.34,0,0,0,4,.74,8.33,8.33,0,0,0,8.21-6.83c.41-2.55-1.18-4.44-2.33-5.8-.88-1-1.61-1.95-1.43-3a3,3,0,0,1,2.74-2.53,5.42,5.42,0,0,1,2.3.41.66.66,0,0,0,.9-.37l.83-2.84a9,9,0,0,0-3.44-.72,8.23,8.23,0,0,0-8,6.54c-.41,2.52,1.2,4.32,2.35,5.68.91,1,1.64,2,1.45,3.12A3.11,3.11,0,0,1,357.67,733.8Z"/><path class="cls-8" d="M390.52,717a.46.46,0,0,0-.45-.6h-3.34l-4.32,14.77a6.71,6.71,0,0,0-.26,1.38c-.24,3.25,2,5.23,5,5.23s5.82-2,7.15-6.46l4.21-14.39a.41.41,0,0,0-.4-.53h-3.41l-4.41,15.12c-.59,2-1.43,2.77-2.6,2.77a1.56,1.56,0,0,1-1.62-1.86,6.82,6.82,0,0,1,.16-.91Z"/><path class="cls-8" d="M401,721.81a.59.59,0,0,0-.09.86l.76.83c2-1.31,3.54-3.42,3.68-5.34a2,2,0,0,0-2-2.36,2.83,2.83,0,0,0-2.73,2.49,1.58,1.58,0,0,0,1.63,1.85h.31A5.16,5.16,0,0,1,401,721.81Z"/><path class="cls-8" d="M348.11,717a.46.46,0,0,0-.45-.6h-3.34L340,731.13a6.71,6.71,0,0,0-.26,1.38c-.24,3.25,2,5.23,5,5.23s5.82-2,7.16-6.46l4.2-14.39a.41.41,0,0,0-.4-.53h-3.41l-4.41,15.12c-.59,2-1.43,2.77-2.6,2.77a1.56,1.56,0,0,1-1.62-1.86,5.52,5.52,0,0,1,.16-.91Z"/><path class="cls-8" d="M332.6,731.91c-.46,1.61-1.33,2.31-2.66,2.31a2.38,2.38,0,0,1-1.5-.55.45.45,0,0,0-.69.11l-1.52,2.61a5.15,5.15,0,0,0,3.8,1.35c3.37,0,5.32-1.7,6.5-5.64L341,717a.47.47,0,0,0-.46-.61H337.2Z"/><path class="cls-8" d="M367.19,731.07c-.27,3.71,1.19,6.67,5,6.67a5.19,5.19,0,0,0,.8-.06l0,.28a.56.56,0,0,0,.56.51h2.41l-.17-1.94c4-2.84,6.12-10,6.39-13.78s-1.17-6.74-5-6.74C370.85,716,367.55,726.25,367.19,731.07Zm9.51-11.53c1.19,0,1.54,1.26,1.41,3.12a26.64,26.64,0,0,1-2.77,9.16l-.12-1.33a.56.56,0,0,0-.55-.51h-2.39l.37,4.23h0c-1.19,0-1.51-1.22-1.38-3.05C371.49,727.85,373.8,719.54,376.7,719.54Z"/><polygon class="cls-8" points="484.91 719.53 484.91 716.61 484.26 716.61 483.4 718.45 482.53 716.61 481.94 716.61 481.94 719.53 482.48 719.53 482.48 717.64 483.24 719.2 483.61 719.2 484.37 717.64 484.37 719.53 484.91 719.53"/><path class="cls-8" d="M486.69,717a.66.66,0,0,1,.7.49l.49-.22a1.16,1.16,0,0,0-1.19-.81,1.12,1.12,0,0,0-1.24,1.25v.59a1.11,1.11,0,0,0,1.24,1.24,1.08,1.08,0,0,0,1.19-.86l-.49-.17a.72.72,0,0,1-.7.54.62.62,0,0,1-.7-.7v-.64A.63.63,0,0,1,486.69,717Z"/><polygon class="cls-9" points="510.59 48.83 510.6 48.83 512.33 53.64 513.23 53.64 514.96 48.83 514.98 48.83 514.98 53.64 516.02 53.64 516.02 47.41 514.5 47.41 512.82 52.29 512.8 52.29 511.08 47.41 509.55 47.41 509.55 53.64 510.59 53.64 510.59 48.83"/><path class="cls-9" d="M521.15,53.4a2.41,2.41,0,0,0,.86-.67,2.87,2.87,0,0,0,.49-1,4.39,4.39,0,0,0,.16-1.22,4.32,4.32,0,0,0-.16-1.21,2.87,2.87,0,0,0-.49-1,2.3,2.3,0,0,0-.86-.67,3,3,0,0,0-1.24-.24h-2.58v6.23h2.58A3,3,0,0,0,521.15,53.4Zm-2.73-.65V48.3h1.07a2.62,2.62,0,0,1,1,.17,1.46,1.46,0,0,1,.63.47,1.65,1.65,0,0,1,.32.71,4.83,4.83,0,0,1,0,1.75,1.71,1.71,0,0,1-.32.71,1.46,1.46,0,0,1-.63.47,2.81,2.81,0,0,1-1,.17Z"/><polygon class="cls-9" points="526.23 47.26 525.28 47.26 522.77 53.79 523.73 53.79 526.23 47.26"/><path class="cls-9" d="M528.9,50.85h.56l.93,1.54h.67l-1-1.59a1.23,1.23,0,0,0,.67-.27.88.88,0,0,0,.27-.71.93.93,0,0,0-.33-.8,1.68,1.68,0,0,0-1-.24H528.3v3.61h.6Zm0-1.57h.71l.27,0a.71.71,0,0,1,.26.06.65.65,0,0,1,.18.15.4.4,0,0,1,.08.26.53.53,0,0,1-.07.31.48.48,0,0,1-.18.17.77.77,0,0,1-.27.08h-1Z"/><path class="cls-9" d="M527.23,52.85a3,3,0,0,0,1,.69,3.19,3.19,0,0,0,1.29.25,3.16,3.16,0,0,0,1.22-.24,3,3,0,0,0,1-.66,3.08,3.08,0,0,0,.7-1,3.41,3.41,0,0,0,.26-1.34,3.36,3.36,0,0,0-.26-1.33,3,3,0,0,0-.7-1,3.07,3.07,0,0,0-1-.67,3.35,3.35,0,0,0-1.22-.23,3.4,3.4,0,0,0-1.23.23,3.07,3.07,0,0,0-1,.67,3,3,0,0,0-.7,1,3.36,3.36,0,0,0-.26,1.33,3.46,3.46,0,0,0,.24,1.3A3.14,3.14,0,0,0,527.23,52.85Zm0-3.42a2.61,2.61,0,0,1,.53-.85,2.46,2.46,0,0,1,.8-.56,2.54,2.54,0,0,1,1-.2,2.43,2.43,0,0,1,1.78.76,2.61,2.61,0,0,1,.53.85,3.25,3.25,0,0,1,0,2.19,2.72,2.72,0,0,1-.53.85,2.44,2.44,0,0,1-.8.55,2.29,2.29,0,0,1-1,.2,2.44,2.44,0,0,1-1-.21,2.61,2.61,0,0,1-.8-.58,2.82,2.82,0,0,1-.5-.86,3.21,3.21,0,0,1-.17-1A3,3,0,0,1,527.22,49.43Z"/><path class="cls-9" d="M313.89,50.42l-3.68-3.81,1.6-1.55a6.49,6.49,0,0,0,1.73-2.57,4.35,4.35,0,0,0,.11-2.49,4.71,4.71,0,0,0-1.21-2.1,4.8,4.8,0,0,0-2.14-1.35,4.24,4.24,0,0,0-2.49.06,6.59,6.59,0,0,0-2.57,1.64l-4.2,4L311.3,52.92Zm-5.67-5.87-2.57-2.67,1.41-1.35a2.11,2.11,0,0,1,1.44-.72,1.83,1.83,0,0,1,1.31.63,1.85,1.85,0,0,1,.59,1.34,2.19,2.19,0,0,1-.77,1.41Z"/><path class="cls-9" d="M323.49,42.16l-3.28-4.36a2.58,2.58,0,0,1-.68-2,3,3,0,0,1,1.27-1.68l.79-.59-2.29-3A4.18,4.18,0,0,0,318,32.17a4.8,4.8,0,0,0-.35,2.17l-1.17-1.56-2.88,2.16,7.05,9.38Z"/><path class="cls-9" d="M323.61,28.49a5.16,5.16,0,0,0-.72,2.88,6.62,6.62,0,0,0,1,3.12,6.41,6.41,0,0,0,2.3,2.35,5.24,5.24,0,0,0,2.88.72,6.18,6.18,0,0,0,3-1,6.11,6.11,0,0,0,2-1.78,5.3,5.3,0,0,0,.74-4.57l-3.28,2a1.89,1.89,0,0,1-1,1.94,2.15,2.15,0,0,1-1.61.29,2.43,2.43,0,0,1-1.46-1.07l7-4.19a9,9,0,0,0-.49-.93A6.23,6.23,0,0,0,331.67,26a5.12,5.12,0,0,0-2.83-.68,6.77,6.77,0,0,0-5.23,3.17Zm2.68,1.5a2.31,2.31,0,0,1,1-1.24,2.36,2.36,0,0,1,1.63-.34,1.86,1.86,0,0,1,1.3.94l-3.86,2.32A2.31,2.31,0,0,1,326.29,30Z"/><polygon class="cls-9" points="326.49 22.58 325.05 20.18 321.96 24.89 323.24 27.01 326.49 22.58"/><path class="cls-9" d="M336,26.9a3.65,3.65,0,0,0,1.75.31,16,16,0,0,0,2.17-.34,9.89,9.89,0,0,1,1.76-.24.8.8,0,0,1,.8.45.83.83,0,0,1,0,.78,1.83,1.83,0,0,1-.83.68,2.06,2.06,0,0,1-1.29.19,1.38,1.38,0,0,1-.93-.66l-3.22,1.52a3.8,3.8,0,0,0,1.58,1.52,4.67,4.67,0,0,0,2.33.5,7,7,0,0,0,2.7-.69,6.49,6.49,0,0,0,2.07-1.49,3.88,3.88,0,0,0,1-1.86,3.09,3.09,0,0,0-.26-1.91,3,3,0,0,0-1.41-1.49,3.75,3.75,0,0,0-1.75-.34,18.87,18.87,0,0,0-2.21.31,8.61,8.61,0,0,1-1.72.26.8.8,0,0,1-.81-.46.78.78,0,0,1,0-.74,1.63,1.63,0,0,1,.77-.63,1.92,1.92,0,0,1,1.23-.19,1.5,1.5,0,0,1,.9.65l3-1.42a4.25,4.25,0,0,0-2.56-2,5.13,5.13,0,0,0-3.61.5,6.28,6.28,0,0,0-2.13,1.53,3.8,3.8,0,0,0-.92,1.89,3.19,3.19,0,0,0,.28,1.9A2.83,2.83,0,0,0,336,26.9Z"/><path class="cls-9" d="M347.9,25.49a5.24,5.24,0,0,0,2.7,1.24,6.4,6.4,0,0,0,3.14-.37A6.26,6.26,0,0,0,356,25a5.49,5.49,0,0,0,1.31-2,5.39,5.39,0,0,0,.27-2.32L354,21.94a1.89,1.89,0,0,1-1.36,1.72,2.14,2.14,0,0,1-1.63,0,2.41,2.41,0,0,1-1.24-1.32l7.63-2.82c-.09-.36-.19-.69-.3-1a6.09,6.09,0,0,0-1.78-2.64,5.07,5.07,0,0,0-2.65-1.2,6.81,6.81,0,0,0-5.73,2.14,5.25,5.25,0,0,0-1.24,2.7,6.63,6.63,0,0,0,.41,3.26A6.5,6.5,0,0,0,347.9,25.49Zm1.37-6.72a2.27,2.27,0,0,1,1.24-1,2.35,2.35,0,0,1,1.67,0,1.9,1.9,0,0,1,1.11,1.17l-4.23,1.56A2.33,2.33,0,0,1,349.27,18.77Z"/><path class="cls-9" d="M364.14,22.75l-1.69-6.15a2.56,2.56,0,0,1,.1-1.93,2.4,2.4,0,0,1,3.16-.87,2.59,2.59,0,0,1,1.08,1.6l1.69,6.15,3.45-.95L370.11,14a5.23,5.23,0,0,0-2.17-3.21,4.24,4.24,0,0,0-3.53-.42,4.76,4.76,0,0,0-1.88,1,3.73,3.73,0,0,0-1.09,1.58l-.42-1.5-3.47,1,3.13,11.31Z"/><path class="cls-9" d="M371.56,11.76l1.4-.29,1,4.58a3.93,3.93,0,0,0,1.7,2.83,4.49,4.49,0,0,0,3.18.32l1.79-.37-.62-3-1.25.26a1.26,1.26,0,0,1-.87-.05,1,1,0,0,1-.4-.69l-1-4.62,2.31-.48-.61-2.92-2.31.48L375.29,5l-3.52.73.58,2.8-1.4.29Z"/><polygon class="cls-9" points="387.72 2.77 387.31 0 382.65 3.16 383.02 5.61 387.72 2.77"/><path class="cls-9" d="M382,15.83a5.37,5.37,0,0,0,2.39,1.77,6.34,6.34,0,0,0,3.15.27A6.18,6.18,0,0,0,390,17a5.24,5.24,0,0,0,1.69-1.72,5.15,5.15,0,0,0,.75-2.21l-3.79.56A1.9,1.9,0,0,1,387,15a2.15,2.15,0,0,1-1.59-.35,2.46,2.46,0,0,1-.94-1.55l8.05-1.19a8.56,8.56,0,0,0-.09-1.05,6.16,6.16,0,0,0-1.19-2.95,5.28,5.28,0,0,0-2.35-1.72,6.27,6.27,0,0,0-3.1-.26,6.34,6.34,0,0,0-2.95,1.18A5.21,5.21,0,0,0,381,9.5a6.66,6.66,0,0,0-.26,3.27A6.46,6.46,0,0,0,382,15.83Zm2.72-6.3a2.24,2.24,0,0,1,1.43-.74,2.33,2.33,0,0,1,1.64.31,1.84,1.84,0,0,1,.84,1.36l-4.45.66A2.32,2.32,0,0,1,384.7,9.53Z"/><path class="cls-9" d="M394.75,14A5.16,5.16,0,0,0,397,15.94a6.18,6.18,0,0,0,3.12.48,6.12,6.12,0,0,0,2.54-.73,5.35,5.35,0,0,0,1.79-1.61,5.25,5.25,0,0,0,.89-2.16l-3.81.31a1.89,1.89,0,0,1-1.78,1.29,2.13,2.13,0,0,1-1.56-.45,2.4,2.4,0,0,1-.84-1.61l8.11-.67c0-.37,0-.72,0-1a6.19,6.19,0,0,0-1-3,5.22,5.22,0,0,0-2.24-1.87,6.32,6.32,0,0,0-3.07-.46,6.48,6.48,0,0,0-3,1,5.17,5.17,0,0,0-1.91,2.27,6.59,6.59,0,0,0-.48,3.25A6.49,6.49,0,0,0,394.75,14Zm3.12-6.1a2.23,2.23,0,0,1,1.47-.65,2.28,2.28,0,0,1,1.62.41,1.85,1.85,0,0,1,.75,1.42l-4.49.37A2.33,2.33,0,0,1,397.87,7.92Z"/><path class="cls-9" d="M415.6,13.9a4,4,0,0,0,1.45,1.32,4.53,4.53,0,0,0,2.15.52,4.81,4.81,0,0,0,2.64-.72,5.17,5.17,0,0,0,1.88-2.11,7.09,7.09,0,0,0,.71-3.18,6.88,6.88,0,0,0-.65-3.18,5.17,5.17,0,0,0-1.84-2.12,4.86,4.86,0,0,0-2.62-.76,4.43,4.43,0,0,0-2.17.48,3.9,3.9,0,0,0-1.47,1.31l0-1.66-3.6,0-.16,17.33,3.59,0Zm.79-6.35a2.45,2.45,0,0,1,1.82-.76,2.49,2.49,0,0,1,1.84.79,2.89,2.89,0,0,1,.72,2.12,3,3,0,0,1-.77,2.13,2.49,2.49,0,0,1-1.84.77,2.4,2.4,0,0,1-1.81-.8,2.89,2.89,0,0,1-.73-2.13A2.93,2.93,0,0,1,416.39,7.55Z"/><path class="cls-9" d="M427.92,15.21a4.82,4.82,0,0,0,2.55.93,4.53,4.53,0,0,0,2.21-.35,3.93,3.93,0,0,0,1.55-1.22l-.12,1.66,3.59.25.83-11.71-3.59-.25-.12,1.66a3.73,3.73,0,0,0-1.34-1.43,4.68,4.68,0,0,0-2.14-.65,4.81,4.81,0,0,0-2.68.55,5.11,5.11,0,0,0-2,2,6.88,6.88,0,0,0-.9,3.12,7,7,0,0,0,.45,3.22A5.13,5.13,0,0,0,427.92,15.21Zm2.38-7.27a2.53,2.53,0,0,1,3.63.26,2.93,2.93,0,0,1,.59,2.18,2.93,2.93,0,0,1-.89,2.06,2.5,2.5,0,0,1-3.63-.27,2.92,2.92,0,0,1-.59-2.18A2.88,2.88,0,0,1,430.3,7.94Z"/><path class="cls-9" d="M444.34,11.85a2.57,2.57,0,0,1,.92-1.93,3,3,0,0,1,2.08-.32l1,.13L448.81,6a4,4,0,0,0-2.16.29,4.75,4.75,0,0,0-1.76,1.31l.25-1.94-3.57-.46-1.49,11.64,3.56.46Z"/><path class="cls-9" d="M378.87,81.12c-6.63,0-12.51,11.78-13,16.11-.24,1.77.55,4,3.11,4,6.84,0,12.93-12.21,13.48-16.59C382.66,82.65,381.49,81.12,378.87,81.12Z"/><path class="cls-9" d="M412.38,81.12c-6.7,0-11.79,12.71-12.26,16.43-.23,1.9.57,4,3.27,4,6.78,0,12.11-12.21,12.66-16.61C416.29,82.9,415.15,81.12,412.38,81.12Z"/><path class="cls-9" d="M525.27,88.57C525.27,55.13,476.89,28,417.21,28S309.15,55.13,309.15,88.57s48.38,60.55,108.06,60.55S525.27,122,525.27,88.57Zm-92.66-16.8c17.73,3.56,27.45,1.36,35.66,1l3.05-6.39a10.65,10.65,0,0,1,7.66,0l-2.84,6.29c12.4.29,19.48,2.6,23.53,5.37,6.89.34,12.82,2.06,14.29,3.5a8.25,8.25,0,0,1-4.29,4.1c-.68-1.11-3.33-3.25-6.82-4.6a9.3,9.3,0,0,1,1.83,7.42c-1,8.21-10.19,16.5-20.7,16.5-6.25,0-10.24-2.94-11.09-7.33a12.88,12.88,0,0,1-.08-3.15A17.08,17.08,0,0,1,477,85.28c4-4.67,10.47-6.65,16.92-7.15C489.41,75.42,481,76.37,474.17,77l-6.78,15.07c-.81,1.69-2.53,5.35-2.75,7-.11.91.05,1.92,1.47,1.92a5,5,0,0,0,2.77-1.12c.45-.32,1.21-1,1.72-1.48a7.93,7.93,0,0,0,.76,1.76l0,.09c-2.51,2.33-5.8,4.62-9.7,4.62-3.39,0-5.84-2-5.51-4.74a13.35,13.35,0,0,1,1.4-4.6c.64-1.64,1.41-3.27,2-4.54L466,77.5c-8.9,0-24-.88-33.88-5Zm-2.9,9.62a8.27,8.27,0,0,0-1.94.52,6.39,6.39,0,0,0-.65-1.52A15.92,15.92,0,0,1,435,77.74c2.85,0,4.93,1.52,4.64,3.91-.25,2-1.83,5.06-2.91,7.06,0,0-5,9.24-5.15,10.59-.14,1.1.7,1.6,2,1.6,6.16,0,12.89-13.14,14.95-17.1l2.19-4s2.68.26,3.8.33c1.52.09,4.07.27,4.07.27L454,89.29c-1.13,2.44-3.31,7.32-3.6,9.71-.09.72-.07,1.9,1.12,1.9a4.62,4.62,0,0,0,2.2-.94c0,.09,0,.16,0,.25a3.74,3.74,0,0,0,.22,1.83v0a12.77,12.77,0,0,1-7.55,2.78c-3.09,0-4.63-2.13-4.35-4.45a15.49,15.49,0,0,1,1.1-4l-.14-.13c-3.41,4.67-8.2,8.58-14.21,8.6-3.46,0-5.94-1.82-5.58-4.8.26-2.15,1.93-5.26,3-7.34,0,0,4.52-9,4.63-10A1,1,0,0,0,429.71,81.39ZM355.39,93.45c-1.76,7.4-9.17,11.77-17.91,11.77-4.82,0-9.6-1.44-12.26-4.45-5.15-6,.75-9.06,3.63-9-1.5,5.71.78,10.77,8,10.77,4.07,0,7.63-2.36,8.46-5.8.9-3.83-1.23-6.09-3.74-8.64l-2.37-2.46c-3.1-3.17-5.46-6-4.33-10.75,1.61-6.79,8.78-11,16.86-11a15,15,0,0,1,10.28,3.51c5.36,5.4-1.28,8.86-2.76,8.53a1.57,1.57,0,0,1-.5-.16c1.41-4.37-.1-9.23-6.18-9.23-3.41,0-7.61,1.82-8.36,4.93-.84,3.52,1.7,5.94,4,8.25l2.16,2.12C353.82,85.15,356.62,88.29,355.39,93.45Zm21.52,7.33a16.43,16.43,0,0,1,.49-2.21l-.14-.11c-2.68,3.41-6.95,6.4-12.07,6.4-6.32,0-8.82-4.08-8.24-8.84,1-7.88,9.84-18.26,20.67-18.26,3.53,0,5.93,1.4,7,4l1.91-3.34a11.11,11.11,0,0,1,7.83,0l-7.76,16.46a22.64,22.64,0,0,0-1.75,4.5c-.09.74.1,2.15,1.16,2.15a3.18,3.18,0,0,0,1.33-.35v0l-1.1,2.44a11.77,11.77,0,0,1-5,1.22C378.36,104.86,376.61,103,376.91,100.78Zm21.22.12H398l-8.47,18.76a10,10,0,0,1-5.78-5l17.81-39.75A9.37,9.37,0,0,1,407,79.57l-.9,2.11.14.12a14.43,14.43,0,0,1,10-4c5.43,0,8,2.75,8.3,6.51a11.15,11.15,0,0,1-.05,2.26c-.95,7.76-8.56,18.32-19.47,18.32C401.57,104.87,399.18,103.41,398.13,100.9Z"/><path class="cls-9" d="M481,95.11c-2.81,9.85,5.1,9.68,10.06,2.77,3.48-4.72,6.48-11.76,5.71-15.63a6.22,6.22,0,0,0-1-2.31C485.07,80.91,481.47,93.55,481,95.11Z"/><path class="cls-6" d="M350.39,81.81l-2.16-2.12c-2.27-2.31-4.81-4.73-4-8.25.75-3.11,4.95-4.93,8.36-4.93,6.08,0,7.59,4.86,6.18,9.23a1.57,1.57,0,0,0,.5.16c1.48.33,8.12-3.13,2.76-8.53a15,15,0,0,0-10.28-3.51c-8.08,0-15.25,4.24-16.86,11-1.13,4.73,1.23,7.58,4.33,10.75l2.37,2.46c2.51,2.55,4.64,4.81,3.74,8.64-.83,3.44-4.39,5.8-8.46,5.8-7.27,0-9.55-5.06-8-10.77-2.88-.06-8.78,3-3.63,9,2.66,3,7.44,4.45,12.26,4.45,8.74,0,16.15-4.37,17.91-11.77C356.62,88.29,353.82,85.15,350.39,81.81Z"/><path class="cls-6" d="M424.49,86.55a11.15,11.15,0,0,0,.05-2.26c-.33-3.76-2.87-6.51-8.3-6.51a14.43,14.43,0,0,0-10,4l-.14-.12.9-2.11a9.37,9.37,0,0,0-5.48-4.63l-17.81,39.75a10,10,0,0,0,5.78,5L398,100.9h.14c1.05,2.51,3.44,4,6.89,4C415.93,104.87,423.54,94.31,424.49,86.55Zm-8.44-1.64c-.55,4.4-5.88,16.61-12.66,16.61-2.7,0-3.5-2.07-3.27-4,.47-3.72,5.56-16.43,12.26-16.43C415.15,81.12,416.29,82.9,416.05,84.91Z"/><path class="cls-6" d="M387.31,101.2v0a3.18,3.18,0,0,1-1.33.35c-1.06,0-1.25-1.41-1.16-2.15a22.64,22.64,0,0,1,1.75-4.5l7.76-16.46a11.11,11.11,0,0,0-7.83,0l-1.91,3.34c-1-2.58-3.43-4-7-4C366.79,77.76,357.91,88.14,357,96c-.58,4.76,1.92,8.84,8.24,8.84,5.12,0,9.39-3,12.07-6.4l.14.11a16.43,16.43,0,0,0-.49,2.21c-.3,2.24,1.45,4.08,4.3,4.08a11.77,11.77,0,0,0,5-1.22Zm-4.88-16.59C381.88,89,375.79,101.2,369,101.2c-2.56,0-3.35-2.2-3.11-4,.52-4.33,6.4-16.11,13-16.11C381.49,81.12,382.66,82.65,382.43,84.61Z"/><path class="cls-6" d="M426.2,92.71c-1.08,2.08-2.75,5.19-3,7.34-.36,3,2.12,4.82,5.58,4.8,6,0,10.8-3.93,14.21-8.6l.14.13a15.49,15.49,0,0,0-1.1,4c-.28,2.32,1.26,4.45,4.35,4.45a12.77,12.77,0,0,0,7.55-2.78v0a3.74,3.74,0,0,1-.22-1.83c0-.09,0-.16,0-.25a4.62,4.62,0,0,1-2.2.94c-1.19,0-1.21-1.18-1.12-1.9.29-2.39,2.47-7.27,3.6-9.71l4.56-8.84s-2.55-.18-4.07-.27c-1.12-.07-3.8-.33-3.8-.33l-2.19,4c-2.06,4-8.79,17.1-14.95,17.1-1.29,0-2.13-.5-2-1.6.16-1.35,5.15-10.59,5.15-10.59,1.08-2,2.66-5,2.91-7.06.29-2.39-1.79-3.91-4.64-3.91a15.92,15.92,0,0,0-7.86,2.65,6.39,6.39,0,0,1,.65,1.52,8.27,8.27,0,0,1,1.94-.52,1,1,0,0,1,1.12,1.29C430.72,83.66,426.2,92.71,426.2,92.71Z"/><path class="cls-6" d="M459.56,91.07c-.57,1.27-1.34,2.9-2,4.54a13.35,13.35,0,0,0-1.4,4.6c-.33,2.73,2.12,4.74,5.51,4.74,3.9,0,7.19-2.29,9.7-4.62l0-.09a7.93,7.93,0,0,1-.76-1.76c-.51.47-1.27,1.16-1.72,1.48a5,5,0,0,1-2.77,1.12c-1.42,0-1.58-1-1.47-1.92.22-1.7,1.94-5.36,2.75-7L474.17,77c6.78-.67,15.24-1.62,19.71,1.09-6.45.5-12.9,2.48-16.92,7.15a17.08,17.08,0,0,0-4.15,9.22,12.88,12.88,0,0,0,.08,3.15C473.74,102,477.73,105,484,105c10.51,0,19.7-8.29,20.7-16.5a9.3,9.3,0,0,0-1.83-7.42c3.49,1.35,6.14,3.49,6.82,4.6a8.25,8.25,0,0,0,4.29-4.1c-1.47-1.44-7.4-3.16-14.29-3.5-4.05-2.77-11.13-5.08-23.53-5.37L479,66.4a10.65,10.65,0,0,0-7.66,0l-3.05,6.39c-8.21.37-17.93,2.57-35.66-1l-.47.77c9.88,4.08,25,5,33.88,5Zm37.24-8.82c.77,3.87-2.23,10.91-5.71,15.63-5,6.91-12.87,7.08-10.06-2.77.44-1.56,4-14.2,14.8-15.17A6.22,6.22,0,0,1,496.8,82.25Z"/></g></g></svg>