<svg width="427" height="426" viewBox="0 0 427 426" fill="none" xmlns="http://www.w3.org/2000/svg">
<path d="M106.75 106.5C165.706 47.6818 261.294 47.6818 320.25 106.5V106.5C379.206 165.319 379.206 260.682 320.25 319.501L213.5 426.001L106.75 319.501C47.7936 260.682 47.7936 165.319 106.75 106.5V106.5Z" fill="#261C1F"/>
<path d="M144.948 155.669C139.717 169.741 136.965 186.192 136.272 207.435C136.243 208.321 136.569 209.183 137.176 209.83C137.784 210.477 138.625 210.858 139.513 210.887H139.623C140.494 210.888 141.331 210.55 141.956 209.946C142.582 209.341 142.947 208.518 142.974 207.649C143.632 187.149 146.255 171.37 151.224 157.993C151.657 156.829 152.11 155.678 152.582 154.54C160.749 158.544 171.797 163.523 180.61 163.004C185.811 162.689 190.82 160.93 195.073 157.927C199.712 154.603 202.692 150.193 203.686 145.178C205.072 138.18 202.394 130.306 196.521 124.115C191.432 118.749 184.655 115.175 179.213 112.305C178.619 111.992 177.945 111.864 177.278 111.937C176.611 112.01 175.981 112.281 175.47 112.715C161.144 124.9 151.149 138.957 144.948 155.669ZM178.116 119.28C182.838 121.803 187.869 124.713 191.655 128.701C196.04 133.321 198.08 138.988 197.113 143.866C195.625 151.388 187.297 155.899 180.219 156.325C173.015 156.755 162.906 152.146 155.377 148.451C160.843 137.547 168.348 127.927 178.116 119.28Z" fill="#EB422E"/>
<path d="M159.038 164.719C158.609 164.616 158.165 164.599 157.73 164.668C157.295 164.737 156.878 164.891 156.503 165.121C156.128 165.351 155.802 165.653 155.543 166.009C155.285 166.364 155.099 166.767 154.997 167.195C151.501 181.818 149.782 189.633 148.991 207.396C148.953 208.282 149.269 209.147 149.869 209.802C150.47 210.457 151.306 210.847 152.194 210.887H152.343C153.206 210.886 154.035 210.554 154.659 209.959C155.283 209.364 155.654 208.553 155.694 207.693C156.477 190.508 158.043 183.333 161.524 168.749C161.626 168.322 161.643 167.878 161.574 167.444C161.504 167.01 161.349 166.594 161.119 166.22C160.888 165.845 160.585 165.52 160.228 165.262C159.871 165.005 159.466 164.82 159.038 164.719V164.719Z" fill="#F59745"/>
<path d="M210.137 143.952C215.074 146.834 218.296 149.068 221.703 151.427C223.883 152.939 226.111 154.485 228.812 156.208C205.009 169.957 182.729 186.176 162.342 204.595C161.84 205.049 161.487 205.644 161.331 206.301C161.174 206.959 161.221 207.648 161.464 208.279C161.708 208.909 162.137 209.452 162.696 209.834C163.254 210.217 163.915 210.422 164.593 210.422H247.985C248.435 210.438 248.883 210.362 249.303 210.201C249.724 210.04 250.107 209.796 250.431 209.484C250.755 209.172 251.012 208.798 251.188 208.384C251.364 207.971 251.455 207.526 251.455 207.077C251.455 206.628 251.364 206.183 251.188 205.77C251.012 205.356 250.755 204.982 250.431 204.67C250.107 204.358 249.724 204.114 249.303 203.953C248.883 203.792 248.435 203.716 247.985 203.732H173.465C193.105 186.788 214.414 171.87 237.065 159.207C237.579 158.918 238.008 158.499 238.308 157.992C238.607 157.485 238.767 156.908 238.772 156.319C238.777 155.73 238.626 155.151 238.335 154.639C238.043 154.127 237.622 153.701 237.112 153.404C232.176 150.521 228.953 148.291 225.547 145.928C222.141 143.565 218.704 141.183 213.54 138.168C212.773 137.748 211.873 137.643 211.03 137.875C210.188 138.107 209.469 138.659 209.028 139.411C208.587 140.164 208.457 141.059 208.667 141.906C208.878 142.752 209.411 143.484 210.153 143.944L210.137 143.952Z" fill="#4A9343"/>
<path d="M216.437 197.569C220.27 197.612 224.154 197.628 228.053 197.628C234.76 197.628 241.51 197.581 248.114 197.534C254.433 197.491 260.4 197.452 266.1 197.452C266.99 197.452 267.844 197.099 268.473 196.471C269.102 195.844 269.456 194.992 269.456 194.105C269.456 193.217 269.102 192.366 268.473 191.738C267.844 191.11 266.99 190.758 266.1 190.758C260.376 190.758 254.398 190.8 248.067 190.843C243.205 190.875 238.28 190.91 233.327 190.925C239.051 188.727 245.006 186.547 250.585 184.505C256.027 182.509 261.156 180.626 265.122 179.076C265.675 178.857 266.161 178.496 266.528 178.028C266.895 177.56 267.131 177.003 267.21 176.414C267.29 175.826 267.211 175.226 266.982 174.678C266.752 174.13 266.38 173.653 265.905 173.295C263.011 171.112 260.329 168.999 257.742 166.949C254.269 164.215 250.694 161.371 246.67 158.458C245.95 157.959 245.062 157.761 244.198 157.906C243.333 158.052 242.56 158.529 242.044 159.236C241.527 159.943 241.309 160.823 241.435 161.689C241.562 162.554 242.022 163.336 242.719 163.867C246.634 166.703 250.001 169.37 253.576 172.194C254.727 173.103 255.901 174.027 257.099 174.967C254.359 175.986 251.368 177.088 248.263 178.224C237.156 182.29 224.569 186.899 215.083 191.175C214.388 191.491 213.822 192.032 213.478 192.711C213.134 193.39 213.032 194.166 213.188 194.91C213.345 195.655 213.752 196.324 214.341 196.807C214.93 197.291 215.667 197.559 216.429 197.569H216.437Z" fill="#F59745"/>
<path d="M257.456 207.278C257.452 207.338 257.452 207.398 257.456 207.458V207.505L257.48 207.63C257.48 207.688 257.48 207.743 257.507 207.798C257.534 207.852 257.534 207.899 257.546 207.946C257.558 207.993 257.573 208.055 257.589 208.11C257.605 208.165 257.64 208.251 257.667 208.317C257.676 208.346 257.687 208.375 257.699 208.403C257.739 208.501 257.785 208.596 257.836 208.688C257.836 208.688 257.859 208.723 257.867 208.743L257.996 208.958L258.055 209.032C258.094 209.089 258.137 209.148 258.184 209.208L258.259 209.29C258.302 209.34 258.345 209.387 258.392 209.434C258.42 209.466 258.45 209.496 258.482 209.524L258.615 209.645L258.725 209.731L258.858 209.833L258.983 209.915C259.027 209.944 259.073 209.972 259.12 209.997L259.253 210.071L259.398 210.141L259.535 210.2L259.699 210.258L259.829 210.301L260.024 210.352L260.134 210.379L260.392 210.418H260.451C260.562 210.424 260.673 210.424 260.784 210.418H301.176C301.864 210.42 302.536 210.21 303.1 209.818C303.665 209.425 304.094 208.869 304.331 208.224C304.567 207.58 304.599 206.878 304.422 206.215C304.245 205.552 303.868 204.959 303.341 204.517C298.866 200.752 294.278 196.546 289.838 192.484C284.85 187.91 280.089 183.551 276.065 180.357C275.248 179.668 274.396 179.022 273.512 178.423H273.488L273.426 178.38L273.32 178.318C273.269 178.287 273.222 178.251 273.167 178.224L273.023 178.15L272.87 178.076L272.709 178.017L272.561 177.962L272.388 177.916C272.341 177.916 272.294 177.888 272.243 177.88C272.185 177.866 272.127 177.856 272.067 177.849L271.926 177.826H271.742H271.601H271.417H271.28L271.096 177.845H270.959L270.783 177.884L270.646 177.916L270.478 177.97L270.341 178.017C270.284 178.037 270.23 178.061 270.176 178.087L270.043 178.146L269.89 178.232C269.846 178.254 269.803 178.279 269.761 178.306L269.612 178.408L269.491 178.494L269.354 178.607L269.241 178.708L269.111 178.837L269.006 178.954C268.966 178.997 268.931 179.044 268.896 179.091C268.861 179.138 268.841 179.154 268.818 179.189L268.794 179.224L268.767 179.259L268.7 179.368C268.673 179.419 268.641 179.466 268.61 179.517L268.536 179.665C268.512 179.716 268.485 179.767 268.465 179.818C268.446 179.868 268.422 179.919 268.403 179.97C268.383 180.021 268.364 180.075 268.348 180.126C268.332 180.177 268.317 180.235 268.305 180.286C268.289 180.337 268.275 180.39 268.266 180.442C268.266 180.497 268.242 180.552 268.234 180.61L268.211 180.763V180.935C268.211 180.981 268.211 181.032 268.211 181.083C268.211 181.134 268.211 181.196 268.211 181.255C268.211 181.313 268.211 181.352 268.211 181.403C268.211 181.454 268.211 181.517 268.23 181.575C268.25 181.634 268.23 181.673 268.25 181.724L268.285 181.888C268.285 181.938 268.309 181.985 268.324 182.036C268.338 182.09 268.355 182.144 268.375 182.196L268.422 182.341C268.446 182.395 268.465 182.446 268.489 182.497L268.555 182.637C268.58 182.689 268.607 182.738 268.638 182.786C268.661 182.829 268.685 182.876 268.712 182.919C268.739 182.962 268.779 183.016 268.81 183.063L268.9 183.184L269.017 183.325L269.115 183.438C269.158 183.481 269.201 183.524 269.248 183.563L269.362 183.669C269.405 183.708 269.456 183.747 269.503 183.782L269.597 183.856C270.231 184.313 270.904 184.821 271.605 185.371C275.082 188.301 276.644 191.585 275.912 194.604C274.808 199.154 268.724 202.752 260.408 203.763L260.283 203.787L260.103 203.818L259.954 203.857C259.895 203.857 259.836 203.884 259.782 203.904C259.727 203.923 259.676 203.943 259.625 203.962L259.476 204.017L259.312 204.095L259.187 204.162C259.132 204.193 259.077 204.224 259.026 204.259C258.987 204.282 258.949 204.306 258.912 204.333C258.858 204.369 258.811 204.408 258.76 204.443L258.654 204.529L258.521 204.65L258.415 204.747L258.302 204.872C258.266 204.911 258.232 204.951 258.2 204.993L258.106 205.115L258.008 205.255C257.981 205.295 257.956 205.337 257.934 205.38C257.902 205.431 257.871 205.482 257.844 205.532C257.816 205.583 257.801 205.622 257.781 205.665C257.761 205.708 257.73 205.771 257.707 205.825C257.683 205.88 257.671 205.923 257.656 205.97C257.64 206.017 257.617 206.075 257.601 206.13C257.585 206.185 257.57 206.243 257.558 206.298L257.523 206.446C257.523 206.509 257.503 206.571 257.495 206.638C257.487 206.704 257.495 206.728 257.495 206.774C257.495 206.821 257.495 206.907 257.495 206.974C257.495 207.04 257.495 207.048 257.495 207.087V207.114L257.456 207.278ZM285.304 197.416C287.587 199.51 289.912 201.638 292.25 203.732H277.783C280.054 201.736 281.668 199.104 282.415 196.178C282.497 195.839 282.579 195.436 282.642 194.987L285.304 197.416Z" fill="#EB422E"/>
<path d="M169.941 150.626C169.19 149.808 168.635 148.828 168.321 147.764C166.986 143.229 170.337 138.253 175.806 136.652C181.276 135.051 186.788 137.433 188.123 141.968C188.653 143.852 188.44 145.867 187.528 147.6C190.938 144.756 192.673 140.745 191.099 137.101C187.794 129.423 181.863 126.497 178.222 124.849C173.089 129.966 167.808 136.914 160.866 146.447C162.894 148.353 166.253 149.802 169.941 150.626Z" fill="#F4B88C"/>
<path d="M177.38 141.417C174.197 142.35 172.181 145.018 172.877 147.381C173.574 149.744 176.714 150.896 179.897 149.974C183.08 149.052 185.093 146.373 184.396 144.01C183.699 141.647 180.555 140.487 177.38 141.417Z" fill="#EB422E"/>
<path d="M198.799 190.058C194.528 191.308 191.599 194.132 192.257 196.37C192.915 198.608 196.908 199.401 201.183 198.151C205.459 196.901 208.383 194.073 207.725 191.839C207.068 189.605 203.07 188.805 198.799 190.058Z" fill="#EB422E"/>
<path d="M187.293 167.007C178.03 169.382 167.655 167.972 167.655 167.972L162.025 196.093C162.025 196.093 188.945 173.526 218.88 153.447C215.317 151.396 208.063 146.807 208.063 146.807C208.063 146.807 206.285 162.137 187.293 167.007Z" fill="#F4B88C"/>
<path d="M126.558 211.309H126.648C127.524 211.304 128.364 210.96 128.991 210.35C129.617 209.739 129.982 208.909 130.007 208.036C131.608 149.506 153.333 123.998 169.55 109.906C170.225 109.319 170.638 108.489 170.7 107.598C170.761 106.707 170.465 105.828 169.877 105.155C169.288 104.482 168.456 104.069 167.563 104.008C166.67 103.947 165.789 104.242 165.114 104.829C137.837 128.552 124.526 161.289 123.273 207.852C123.261 208.294 123.337 208.735 123.495 209.148C123.654 209.561 123.893 209.939 124.198 210.26C124.503 210.581 124.868 210.838 125.273 211.018C125.678 211.199 126.115 211.297 126.558 211.309V211.309Z" fill="#F59745"/>
<path d="M234.642 165.089C234.642 165.089 212.256 180.981 206.285 186.84L244.32 171.217L234.642 165.089Z" fill="#F4B88C"/>
<path d="M126.648 224.799H301.176C302.071 224.799 302.929 224.444 303.562 223.813C304.195 223.182 304.551 222.325 304.551 221.432C304.551 220.539 304.195 219.683 303.562 219.052C302.929 218.42 302.071 218.066 301.176 218.066H126.648C125.753 218.066 124.895 218.42 124.262 219.052C123.629 219.683 123.273 220.539 123.273 221.432C123.273 222.325 123.629 223.182 124.262 223.813C124.895 224.444 125.753 224.799 126.648 224.799V224.799Z" fill="#F59745"/>
<path d="M194.689 243.887C194.689 235.558 188.78 233.251 181.249 233.251H172.345C168.535 233.251 166.736 235.003 166.736 239.104V259.431C166.736 262.719 168.45 264.552 171.53 264.552C174.61 264.552 176.336 262.708 176.336 259.42V254.464H181.261C188.78 254.464 194.689 252.157 194.689 243.887ZM181.763 247.044H176.336V240.671H181.303C183.7 240.671 185.113 241.865 185.113 243.917C185.113 245.97 183.388 247.032 181.763 247.032V247.044Z" fill="white"/>
<path d="M209.758 259.246V237.98C209.758 234.692 207.874 232.686 204.837 232.686C201.799 232.686 199.912 234.692 199.912 237.98V259.246C199.912 262.535 201.795 264.541 204.837 264.541C207.878 264.541 209.758 262.535 209.758 259.246Z" fill="white"/>
<path d="M243.111 260.143C243.111 257.625 241.567 256.293 238.618 256.293H227.482L240.664 241.688C242.161 240.024 242.632 238.954 242.632 237.545C242.632 235.153 241.266 233.232 238.139 233.232H219.566C216.354 233.232 214.857 234.772 214.857 237.082C214.857 239.393 216.354 240.933 219.566 240.933H229.154L216.822 254.591C214.683 256.94 214.081 258.056 214.081 259.673C214.081 262.065 215.583 263.986 218.921 263.986H238.606C241.567 263.986 243.111 262.661 243.111 260.143Z" fill="white"/>
<path d="M274.012 260.143C274.012 257.625 272.469 256.293 269.516 256.293H258.388L271.573 241.688C273.071 240.024 273.542 238.954 273.542 237.545C273.542 235.153 272.171 233.232 269.045 233.232H250.467C247.26 233.232 245.758 234.772 245.758 237.082C245.758 239.393 247.26 240.933 250.467 240.933H260.055L247.742 254.591C245.6 256.94 245.002 258.056 245.002 259.673C245.002 262.065 246.5 263.986 249.838 263.986H269.523C272.472 263.986 274.012 262.661 274.012 260.143Z" fill="white"/>
<path d="M295.844 236.659C294.902 234.095 293.617 232.686 291.135 232.686H288.047C285.565 232.686 284.28 234.095 283.338 236.659L276.776 254.849C276.051 256.898 275.232 259.162 275.232 260.571C275.232 262.881 277.502 264.541 279.725 264.541C281.269 264.541 283.199 263.859 283.709 262.107L284.392 259.843H294.752L295.435 262.107C295.948 263.859 297.874 264.541 299.418 264.541C301.641 264.541 303.911 262.877 303.911 260.571C303.911 259.162 303.097 256.898 302.367 254.849L295.844 236.659ZM286.214 253.694L289.552 242.466H289.637L292.976 253.694H286.214Z" fill="white"/>
<path d="M151.282 289.546H151.397L154.995 308.575C155.736 312.561 157.565 314.613 161.39 314.613H163.386C167.215 314.613 169.326 312.449 170.241 308.745L176.008 285.391C176.807 282.145 177.436 279.581 177.436 277.813C177.436 274.51 174.981 272.119 171.496 272.119C168.469 272.119 165.899 273.374 165.273 277.359L161.676 299.692H161.56L157.963 278.437C157.222 273.936 155.852 272.115 151.339 272.115C146.827 272.115 145.457 273.921 144.716 278.437L141.119 299.684H141.003L137.409 277.351C136.78 273.366 134.21 272.111 131.183 272.111C127.702 272.115 125.243 274.506 125.243 277.81C125.243 279.577 125.872 282.141 126.671 285.387L132.438 308.741C133.353 312.445 135.468 314.609 139.293 314.609H141.288C145.117 314.609 146.943 312.557 147.684 308.571L151.282 289.546Z" fill="white"/>
<path d="M218.203 309.084C218.203 306.234 216.435 304.297 212.494 304.297H196.623V297.751H208.839C212.78 297.751 214.552 295.826 214.552 292.969C214.552 290.112 212.78 288.168 208.839 288.168H196.623V282.426H211.865C215.806 282.426 217.578 280.501 217.578 277.64C217.578 274.779 215.806 272.854 211.865 272.854H190.968C185.885 272.854 183.488 275.191 183.488 280.659V306.072C183.488 311.54 185.885 313.877 190.968 313.877H212.494C216.435 313.87 218.203 311.933 218.203 309.084Z" fill="white"/>
<path d="M259.43 308.911C259.43 306.061 257.662 304.124 253.721 304.124H237.85V297.579H250.059C253.999 297.579 255.771 295.653 255.771 292.796C255.771 289.939 254.007 287.995 250.059 287.995H237.85V282.254H253.092C257.033 282.254 258.805 280.328 258.805 277.467C258.805 274.606 257.033 272.681 253.092 272.681H232.195C227.112 272.681 224.715 275.018 224.715 280.486V305.9C224.715 311.367 227.112 313.705 232.195 313.705H253.721C257.662 313.697 259.43 311.76 259.43 308.911Z" fill="white"/>
<path d="M292.551 288.973L298.727 282.196C300.441 280.428 301.24 279.346 301.24 277.467C301.24 275.018 298.959 271.942 295.415 271.942C293.246 271.942 291.992 273.024 289.421 275.816L279.088 287.094V279.008C279.088 274.618 276.576 271.942 272.527 271.942C268.478 271.942 265.965 274.618 265.965 279.008V307.374C265.965 311.76 268.478 314.436 272.527 314.436C276.576 314.436 279.088 311.76 279.088 307.374V301.733L282.798 297.69L291.745 311.529C293.227 313.866 295.11 314.436 297.168 314.436C300.595 314.436 303.849 311.818 303.849 308.399C303.849 306.974 303.278 305.703 302.537 304.525L292.551 288.973Z" fill="white"/>
<path d="M128.473 251.072H137.351C138.895 251.072 139.933 250.186 139.933 248.653C139.933 247.121 138.891 246.232 137.351 246.232H131.04V235.227C131.04 233.224 129.882 232 128.041 232C126.2 232 125.042 233.224 125.042 235.227V247.506C125.042 250.005 126.134 251.072 128.473 251.072Z" fill="white"/>
<path d="M148.306 242.905C142.96 243.24 141.393 244.93 141.393 247.194C141.393 250.186 143.508 251.43 146.48 251.43C148.333 251.43 150.235 250.833 151.278 249.27C151.459 250.494 152.138 251.43 153.979 251.43C155.257 251.43 156.481 250.856 156.481 249.531C156.481 248.881 156.326 248.049 156.326 247.109V241.133C156.326 237.776 151.945 237.129 149.101 237.129C145.372 237.129 142.539 238.427 142.539 240.433C142.539 241.499 143.164 242.096 144.233 242.096C146.059 242.096 146.607 240.248 148.931 240.248C150.363 240.248 151.092 240.718 151.092 241.576C151.092 242.435 150.313 242.774 148.306 242.905ZM151.119 246.493C151.119 247.506 150.077 248.446 148.564 248.446C147.703 248.446 146.924 247.926 146.924 247.117C146.909 246.878 146.973 246.64 147.104 246.439C147.235 246.238 147.428 246.084 147.653 246C148.618 245.615 150.355 245.766 151.127 244.957L151.119 246.493Z" fill="white"/>
<path d="M128.327 264.571H154.277C155.159 264.571 156.006 264.222 156.629 263.599C157.253 262.977 157.604 262.133 157.604 261.252C157.604 260.372 157.253 259.528 156.629 258.905C156.006 258.283 155.159 257.933 154.277 257.933H128.327C127.445 257.933 126.598 258.283 125.975 258.905C125.351 259.528 125 260.372 125 261.252C125 262.133 125.351 262.977 125.975 263.599C126.598 264.222 127.445 264.571 128.327 264.571V264.571Z" fill="#F59745"/>
</svg>
