<svg width="35" height="35" viewBox="0 0 35 35" fill="none" xmlns="http://www.w3.org/2000/svg">
<path d="M16.026 0.343393C16.7134 -0.114464 17.5726 -0.114464 18.2027 0.343393C19.8639 1.43081 21.525 2.57545 23.0716 3.83456C23.0716 3.83456 23.4726 4.12072 23.5298 3.60563C23.5298 3.60563 23.4726 2.17482 23.6444 1.71697C23.759 1.37357 24.1026 1.14464 24.4463 1.14464C24.4463 1.14464 26.3366 1.25911 27.5395 1.37357C28.055 1.43081 28.5133 1.88866 28.5133 2.46099C28.5133 2.46099 29.3152 7.66912 29.487 9.50055C29.487 9.50055 29.6589 10.4735 31.0336 12.076C31.0336 12.076 33.8404 15.9678 34.1841 16.769C34.1841 16.769 34.8141 18.1426 33.4394 18.3143C33.4394 18.3143 30.8618 18.5432 30.6327 18.6577C30.289 18.7149 30.0026 19.0011 30.0598 19.3445C30.0598 19.3445 29.9453 28.33 29.2579 32.6796C29.2579 32.6796 29.0861 34.3966 28.1123 34.3393C28.1123 34.3393 25.4774 34.2821 24.9046 34.2821C24.9046 34.2821 24.6182 34.2821 24.6755 33.9387C24.6755 33.9387 25.9929 19.8596 25.0764 12.7628C25.0764 12.7628 25.0191 11.8471 24.3318 11.6754C24.3318 11.6754 23.7017 11.4464 23.0716 12.2477C23.0716 12.2477 18.8901 17.5131 18.8901 24.9533C18.8901 24.9533 18.8328 27.1853 19.1765 27.7576C19.1765 27.7576 19.4056 28.1583 20.4939 28.2155L21.8687 28.3872C21.8687 28.3872 22.0978 28.3872 22.0978 28.7306C22.0978 28.7306 21.7541 32.8513 21.6968 33.5953C21.6968 33.767 21.6396 33.9387 21.5823 34.1104C21.5823 34.1104 21.525 34.2249 21.124 34.2249C21.124 34.2249 15.0523 34.1676 14.3649 34.2249C14.3649 34.2249 14.0785 34.2249 14.0212 34.0532C13.9639 33.8815 13.6203 28.7306 13.6203 27.9866C13.6203 27.8149 13.6775 27.7004 13.8494 27.6432C14.7659 27.0708 15.396 26.0407 15.5105 24.9533C15.5105 24.9533 15.5678 24.5526 15.5678 22.6067C15.5678 22.6067 15.7969 14.7087 15.8542 13.4496C15.8542 13.4496 15.9115 13.0489 15.3387 12.9345C15.0523 12.8773 14.7659 13.0489 14.7086 13.3351V13.3923C14.7086 13.3923 14.3076 18.6005 14.3649 20.6608C14.3649 20.6608 14.4795 22.0344 13.563 22.0344C13.563 22.0344 12.6465 22.1489 12.5892 21.0615C12.5892 21.0615 12.6465 15.9678 12.8756 13.5068C12.8756 13.2206 12.6465 12.9917 12.3601 12.9345C12.0737 12.8773 11.7873 13.1062 11.73 13.3923V13.4496C11.73 13.4496 11.329 18.3143 11.3863 20.8898C11.3863 20.8898 11.5009 22.1489 10.5271 22.0916C10.5271 22.0916 9.72515 22.2061 9.66787 21.0615C9.66787 21.0615 9.89699 14.1364 9.95428 13.564C10.0116 13.2779 9.78244 12.9917 9.49604 12.9345H9.43875C9.15235 12.8773 8.86594 13.1062 8.80866 13.3923V13.4496C8.80866 13.4496 8.46498 21.7482 8.46498 24.2092C8.46498 24.2092 8.4077 26.7275 10.298 27.7576C10.298 27.7576 10.5844 27.9293 10.5844 28.1583C10.5844 28.1583 10.8135 32.5651 10.9853 33.9959C10.9853 33.9959 11.0426 34.3393 10.7562 34.3393L6.11646 34.4538C6.11646 34.4538 5.31453 34.511 5.14269 33.5381C4.97085 32.6224 4.11164 25.2966 4.28348 19.459C4.34076 19.1156 4.05436 18.7722 3.71067 18.7149C3.71067 18.7149 1.30488 18.486 0.732069 18.3715C0.216542 18.2571 -0.127141 17.6848 0.0447014 17.1697C0.0447014 17.0552 0.101981 16.998 0.159261 16.9407C0.159261 16.8263 5.31453 6.98233 16.026 0.343393Z" fill="#FAF8F8"/>
</svg>
