<svg xmlns="http://www.w3.org/2000/svg" width="459" height="314" fill="none" viewBox="0 0 459 314"><rect width="459" height="314" fill="#F0E7E7"/><g opacity=".4"><path fill="#F4B88C" d="M160.676 95.6691C155.445 109.741 152.693 126.192 152 147.435C151.971 148.321 152.297 149.183 152.904 149.83C153.512 150.477 154.353 150.858 155.241 150.887H155.351C156.222 150.888 157.059 150.55 157.684 149.946C158.31 149.341 158.675 148.518 158.702 147.649C159.36 127.149 161.983 111.37 166.952 97.9929C167.385 96.829 167.838 95.6782 168.31 94.5403C176.477 98.5436 187.525 103.523 196.338 103.004C201.539 102.689 206.548 100.93 210.801 97.9265C215.44 94.6028 218.42 90.1933 219.414 85.1785C220.8 78.1795 218.122 70.3057 212.249 64.1153C207.16 58.7489 200.383 55.1752 194.941 52.3046C194.347 51.9921 193.673 51.8642 193.006 51.9373C192.339 52.0104 191.709 52.2811 191.198 52.7146C176.872 64.9003 166.877 78.9568 160.676 95.6691ZM193.844 59.2801C198.566 61.8031 203.597 64.7128 207.383 68.7005C211.768 73.3209 213.808 78.988 212.841 83.8662C211.353 91.3885 203.025 95.8995 195.947 96.3252C188.743 96.7548 178.634 92.1462 171.105 88.4514C176.571 77.5468 184.076 67.9272 193.844 59.2801Z"/><path fill="#F4B88C" d="M174.766 104.718C174.338 104.616 173.893 104.599 173.459 104.668C173.024 104.737 172.607 104.891 172.231 105.121C171.856 105.351 171.53 105.653 171.272 106.008C171.013 106.364 170.828 106.767 170.726 107.195C167.229 121.817 165.511 129.633 164.72 147.396C164.682 148.282 164.997 149.147 165.598 149.802C166.198 150.456 167.034 150.847 167.922 150.887H168.071C168.934 150.886 169.764 150.554 170.388 149.959C171.012 149.364 171.382 148.552 171.423 147.692C172.206 130.508 173.772 123.333 177.252 108.749C177.355 108.322 177.372 107.878 177.302 107.444C177.233 107.01 177.078 106.594 176.847 106.219C176.616 105.845 176.313 105.52 175.956 105.262C175.599 105.005 175.195 104.82 174.766 104.718V104.718Z"/><path fill="#F4B88C" d="M225.865 83.952C230.802 86.8343 234.025 89.0684 237.431 91.4274C239.611 92.9389 241.839 94.4855 244.54 96.2079C220.737 109.957 198.457 126.176 178.07 144.595C177.568 145.049 177.215 145.644 177.059 146.301C176.902 146.959 176.949 147.648 177.192 148.279C177.436 148.909 177.865 149.452 178.424 149.834C178.982 150.217 179.644 150.422 180.321 150.422H263.713C264.163 150.438 264.611 150.363 265.032 150.201C265.452 150.04 265.835 149.796 266.159 149.484C266.483 149.172 266.74 148.798 266.916 148.384C267.092 147.971 267.183 147.526 267.183 147.077C267.183 146.628 267.092 146.183 266.916 145.77C266.74 145.356 266.483 144.982 266.159 144.67C265.835 144.358 265.452 144.114 265.032 143.953C264.611 143.792 264.163 143.717 263.713 143.732H189.193C208.833 126.788 230.142 111.87 252.794 99.2075C253.307 98.9183 253.736 98.499 254.036 97.9919C254.335 97.4847 254.496 96.9078 254.5 96.3191C254.505 95.7305 254.354 95.151 254.063 94.6391C253.771 94.1273 253.35 93.7011 252.841 93.4037C247.904 90.5213 244.681 88.2912 241.275 85.9282C237.869 83.5653 234.432 81.1829 229.268 78.1677C228.501 77.7478 227.601 77.6429 226.759 77.8752C225.916 78.1076 225.197 78.6588 224.756 79.4116C224.315 80.1644 224.185 81.0594 224.395 81.9059C224.606 82.7525 225.139 83.4838 225.881 83.9442L225.865 83.952Z"/><path fill="#F4B88C" d="M232.165 137.569C235.998 137.612 239.882 137.628 243.781 137.628C250.488 137.628 257.238 137.581 263.842 137.534C270.161 137.491 276.128 137.452 281.828 137.452C282.718 137.452 283.572 137.099 284.201 136.471C284.83 135.844 285.184 134.992 285.184 134.105C285.184 133.217 284.83 132.366 284.201 131.738C283.572 131.11 282.718 130.758 281.828 130.758C276.104 130.758 270.126 130.8 263.795 130.843C258.933 130.875 254.008 130.91 249.055 130.925C254.779 128.727 260.734 126.547 266.313 124.505C271.755 122.509 276.884 120.626 280.85 119.076C281.403 118.857 281.889 118.496 282.256 118.028C282.623 117.56 282.859 117.003 282.939 116.414C283.018 115.826 282.939 115.226 282.71 114.678C282.48 114.13 282.108 113.653 281.633 113.295C278.739 111.112 276.057 108.999 273.47 106.949C269.997 104.215 266.422 101.371 262.398 98.4577C261.678 97.9588 260.79 97.7608 259.926 97.9062C259.061 98.0517 258.288 98.5289 257.772 99.2359C257.255 99.9428 257.037 100.823 257.163 101.689C257.29 102.554 257.75 103.336 258.447 103.867C262.362 106.703 265.729 109.37 269.304 112.194C270.455 113.103 271.629 114.027 272.828 114.967C270.087 115.986 267.096 117.088 263.991 118.224C252.884 122.29 240.297 126.899 230.811 131.175C230.116 131.491 229.55 132.032 229.206 132.711C228.862 133.39 228.76 134.166 228.916 134.91C229.073 135.655 229.48 136.324 230.069 136.807C230.658 137.291 231.395 137.559 232.157 137.569H232.165Z"/><path fill="#F4B88C" d="M273.185 147.278C273.181 147.338 273.181 147.398 273.185 147.458V147.505L273.208 147.63C273.208 147.688 273.208 147.743 273.235 147.798C273.263 147.852 273.263 147.899 273.275 147.946C273.286 147.993 273.302 148.055 273.318 148.11C273.333 148.165 273.369 148.251 273.396 148.317C273.405 148.346 273.415 148.375 273.427 148.403C273.467 148.501 273.513 148.596 273.564 148.688C273.564 148.688 273.588 148.723 273.596 148.743L273.725 148.958L273.784 149.032C273.823 149.089 273.866 149.148 273.913 149.208L273.987 149.29C274.03 149.34 274.073 149.387 274.12 149.434C274.148 149.466 274.178 149.496 274.21 149.524L274.343 149.645L274.453 149.731L274.586 149.833L274.711 149.915C274.756 149.944 274.801 149.972 274.848 149.997L274.982 150.071L275.126 150.141L275.263 150.2L275.428 150.258L275.557 150.301L275.753 150.352L275.862 150.379L276.121 150.418H276.18C276.29 150.424 276.402 150.424 276.512 150.418H316.905C317.593 150.42 318.264 150.21 318.829 149.818C319.393 149.425 319.823 148.869 320.059 148.224C320.296 147.58 320.328 146.878 320.15 146.215C319.973 145.552 319.596 144.959 319.07 144.517C314.595 140.752 310.006 136.546 305.566 132.484C300.579 127.91 295.818 123.551 291.793 120.357C290.977 119.668 290.125 119.022 289.24 118.423H289.217L289.154 118.38L289.049 118.318C288.998 118.287 288.951 118.251 288.896 118.224L288.751 118.15L288.598 118.076L288.438 118.017L288.289 117.962L288.117 117.916C288.07 117.916 288.023 117.888 287.972 117.88C287.914 117.866 287.855 117.856 287.796 117.849L287.655 117.826H287.471H287.33H287.146H287.009L286.825 117.845H286.688L286.512 117.884L286.375 117.916L286.206 117.97L286.069 118.017C286.013 118.037 285.958 118.061 285.905 118.087L285.772 118.146L285.619 118.232C285.575 118.254 285.531 118.279 285.49 118.306L285.341 118.408L285.22 118.494L285.083 118.607L284.969 118.708L284.84 118.837L284.734 118.954C284.695 118.997 284.66 119.044 284.625 119.091C284.589 119.138 284.57 119.154 284.546 119.189L284.523 119.224L284.495 119.259L284.429 119.368C284.401 119.419 284.37 119.466 284.339 119.517L284.264 119.665C284.241 119.716 284.213 119.767 284.194 119.818C284.174 119.868 284.151 119.919 284.131 119.97C284.112 120.021 284.092 120.075 284.076 120.126C284.061 120.177 284.045 120.235 284.033 120.286C284.017 120.337 284.004 120.39 283.994 120.442C283.994 120.497 283.971 120.552 283.963 120.61L283.939 120.763V120.935C283.939 120.981 283.939 121.032 283.939 121.083C283.939 121.134 283.939 121.196 283.939 121.255C283.939 121.313 283.939 121.352 283.939 121.403C283.939 121.454 283.939 121.517 283.959 121.575C283.979 121.634 283.959 121.673 283.979 121.724L284.014 121.888C284.014 121.938 284.037 121.985 284.053 122.036C284.066 122.09 284.083 122.144 284.104 122.196L284.151 122.341C284.174 122.395 284.194 122.446 284.217 122.497L284.284 122.637C284.308 122.689 284.336 122.738 284.366 122.786C284.39 122.829 284.413 122.876 284.44 122.919C284.468 122.962 284.507 123.016 284.538 123.063L284.628 123.184L284.746 123.325L284.844 123.438C284.887 123.481 284.93 123.524 284.977 123.563L285.09 123.669C285.133 123.708 285.184 123.747 285.231 123.782L285.325 123.856C285.96 124.313 286.633 124.821 287.334 125.371C290.81 128.301 292.373 131.585 291.64 134.604C290.536 139.154 284.452 142.752 276.137 143.763L276.011 143.787L275.831 143.818L275.682 143.857C275.624 143.857 275.565 143.884 275.51 143.904C275.455 143.923 275.404 143.943 275.354 143.962L275.205 144.017L275.04 144.095L274.915 144.162C274.86 144.193 274.805 144.224 274.755 144.259C274.715 144.282 274.677 144.306 274.641 144.333C274.586 144.369 274.539 144.408 274.488 144.443L274.383 144.529L274.249 144.65L274.144 144.747L274.03 144.872C273.994 144.911 273.96 144.951 273.928 144.993L273.834 145.115L273.737 145.255C273.71 145.295 273.685 145.337 273.662 145.38C273.631 145.431 273.6 145.482 273.572 145.532C273.545 145.583 273.529 145.622 273.51 145.665C273.49 145.708 273.459 145.771 273.435 145.825C273.412 145.88 273.4 145.923 273.384 145.97C273.369 146.017 273.345 146.075 273.329 146.13C273.314 146.185 273.298 146.243 273.286 146.298L273.251 146.446C273.251 146.509 273.232 146.571 273.224 146.638C273.216 146.704 273.224 146.728 273.224 146.774C273.224 146.821 273.224 146.907 273.224 146.974C273.224 147.04 273.224 147.048 273.224 147.087V147.114L273.185 147.278ZM301.033 137.416C303.315 139.51 305.641 141.638 307.978 143.732H293.512C295.783 141.736 297.397 139.104 298.143 136.178C298.226 135.839 298.308 135.436 298.37 134.987L301.033 137.416Z"/><path fill="#F4B88C" d="M185.669 90.6266C184.917 89.8078 184.363 88.8286 184.048 87.7637C182.713 83.2293 186.064 78.2535 191.534 76.6521C197.003 75.0508 202.516 77.4333 203.851 81.9677C204.381 83.852 204.168 85.8671 203.256 87.5997C206.666 84.7564 208.4 80.7453 206.826 77.1013C203.522 69.4228 197.59 66.4974 193.949 64.8492C188.817 69.9657 183.535 76.9138 176.594 86.4475C178.622 88.3535 181.981 89.8025 185.669 90.6266Z"/><path fill="#F4B88C" d="M193.108 81.417C189.925 82.3504 187.909 85.018 188.605 87.3809C189.302 89.7438 192.442 90.896 195.625 89.9743C198.808 89.0525 200.821 86.3733 200.124 84.0103C199.427 81.6474 196.283 80.4874 193.108 81.417Z"/><path fill="#F4B88C" d="M214.527 130.058C210.256 131.308 207.327 134.132 207.985 136.37C208.643 138.608 212.636 139.401 216.911 138.151C221.187 136.901 224.111 134.073 223.453 131.839C222.796 129.605 218.798 128.805 214.527 130.058Z"/><path fill="#F4B88C" d="M203.021 107.007C193.758 109.382 183.383 107.972 183.383 107.972L177.753 136.092C177.753 136.092 204.673 113.526 234.608 93.4466C231.045 91.3962 223.791 86.807 223.791 86.807C223.791 86.807 222.013 102.137 203.021 107.007Z"/><path fill="#F4B88C" d="M142.286 151.309H142.376C143.252 151.304 144.092 150.96 144.719 150.35C145.345 149.739 145.71 148.909 145.735 148.036C147.336 89.5057 169.061 63.9978 185.278 49.9062C185.953 49.3194 186.366 48.4892 186.428 47.5981C186.489 46.7071 186.193 45.8283 185.605 45.155C185.016 44.4817 184.184 44.0691 183.291 44.0079C182.398 43.9468 181.517 44.2421 180.842 44.8289C153.565 68.5518 140.254 101.289 139.001 147.852C138.989 148.294 139.065 148.735 139.223 149.148C139.382 149.561 139.621 149.939 139.926 150.26C140.231 150.581 140.596 150.838 141.001 151.018C141.406 151.199 141.843 151.297 142.286 151.309V151.309Z"/><path fill="#F4B88C" d="M250.37 105.089C250.37 105.089 227.983 120.981 222.013 126.84L260.048 111.217L250.37 105.089Z"/><path fill="#F4B88C" d="M142.376 164.799H316.903C317.798 164.799 318.657 164.444 319.29 163.813C319.923 163.182 320.278 162.325 320.278 161.432C320.278 160.539 319.923 159.683 319.29 159.052C318.657 158.42 317.798 158.066 316.903 158.066H142.376C141.481 158.066 140.622 158.42 139.989 159.052C139.357 159.683 139.001 160.539 139.001 161.432C139.001 162.325 139.357 163.182 139.989 163.813C140.622 164.444 141.481 164.799 142.376 164.799V164.799Z"/></g><g opacity=".4"><path fill="#F4B88C" d="M210.418 183.887C210.418 175.558 204.508 173.251 196.978 173.251H188.073C184.264 173.251 182.465 175.003 182.465 179.104V199.431C182.465 202.719 184.179 204.552 187.259 204.552C190.339 204.552 192.064 202.708 192.064 199.42V194.464H196.989C204.508 194.464 210.418 192.157 210.418 183.887ZM197.491 187.044H192.064V180.671H197.032C199.429 180.671 200.842 181.865 200.842 183.917C200.842 185.97 199.116 187.032 197.491 187.032V187.044Z"/><path fill="#F4B88C" d="M225.487 199.246V177.98C225.487 174.692 223.603 172.686 220.566 172.686C217.528 172.686 215.641 174.692 215.641 177.98V199.246C215.641 202.535 217.524 204.541 220.566 204.541C223.607 204.541 225.487 202.535 225.487 199.246Z"/><path fill="#F4B88C" d="M258.839 200.143C258.839 197.625 257.295 196.293 254.347 196.293H243.211L256.392 181.688C257.89 180.024 258.361 178.954 258.361 177.545C258.361 175.153 256.994 173.232 253.868 173.232H235.294C232.083 173.232 230.585 174.772 230.585 177.082C230.585 179.393 232.083 180.933 235.294 180.933H244.882L232.55 194.591C230.412 196.94 229.81 198.056 229.81 199.673C229.81 202.065 231.311 203.986 234.65 203.986H254.335C257.295 203.986 258.839 202.661 258.839 200.143Z"/><path fill="#F4B88C" d="M289.741 200.143C289.741 197.625 288.197 196.293 285.244 196.293H274.116L287.302 181.688C288.799 180.024 289.27 178.954 289.27 177.545C289.27 175.153 287.9 173.232 284.773 173.232H266.196C262.988 173.232 261.487 174.772 261.487 177.082C261.487 179.393 262.988 180.933 266.196 180.933H275.784L263.471 194.591C261.329 196.94 260.73 198.056 260.73 199.673C260.73 202.065 262.228 203.986 265.567 203.986H285.252C288.201 203.986 289.741 202.661 289.741 200.143Z"/><path fill="#F4B88C" d="M311.572 176.659C310.631 174.095 309.345 172.686 306.863 172.686H303.776C301.294 172.686 300.008 174.095 299.067 176.659L292.505 194.849C291.779 196.898 290.961 199.162 290.961 200.571C290.961 202.881 293.231 204.541 295.454 204.541C296.998 204.541 298.928 203.859 299.437 202.107L300.12 199.843H310.48L311.163 202.107C311.677 203.859 313.603 204.541 315.147 204.541C317.37 204.541 319.639 202.877 319.639 200.571C319.639 199.162 318.825 196.898 318.096 194.849L311.572 176.659ZM301.942 193.694L305.281 182.466H305.366L308.705 193.694H301.942Z"/><path fill="#F4B88C" d="M167.01 229.546H167.126L170.723 248.575C171.464 252.561 173.294 254.613 177.119 254.613H179.115C182.943 254.613 185.055 252.449 185.97 248.745L191.736 225.391C192.535 222.145 193.164 219.581 193.164 217.813C193.164 214.51 190.709 212.119 187.224 212.119C184.198 212.119 181.627 213.374 181.002 217.359L177.405 239.692H177.289L173.691 218.437C172.95 213.936 171.58 212.115 167.068 212.115C162.556 212.115 161.186 213.921 160.445 218.437L156.847 239.684H156.731L153.138 217.351C152.509 213.366 149.938 212.111 146.912 212.111C143.43 212.115 140.972 214.506 140.972 217.81C140.972 219.577 141.601 222.141 142.4 225.387L148.166 248.741C149.081 252.445 151.196 254.609 155.021 254.609H157.017C160.846 254.609 162.672 252.557 163.413 248.571L167.01 229.546Z"/><path fill="#F4B88C" d="M233.932 249.084C233.932 246.234 232.164 244.297 228.223 244.297H212.352V237.751H224.568C228.509 237.751 230.281 235.826 230.281 232.969C230.281 230.112 228.509 228.168 224.568 228.168H212.352V222.426H227.594C231.535 222.426 233.307 220.501 233.307 217.64C233.307 214.779 231.535 212.854 227.594 212.854H206.697C201.614 212.854 199.217 215.191 199.217 220.659V246.072C199.217 251.54 201.614 253.877 206.697 253.877H228.223C232.164 253.87 233.932 251.933 233.932 249.084Z"/><path fill="#F4B88C" d="M275.159 248.911C275.159 246.061 273.391 244.124 269.45 244.124H253.578V237.579H265.787C269.728 237.579 271.5 235.653 271.5 232.796C271.5 229.939 269.736 227.995 265.787 227.995H253.578V222.254H268.821C272.762 222.254 274.533 220.328 274.533 217.467C274.533 214.606 272.762 212.681 268.821 212.681H247.924C242.84 212.681 240.443 215.018 240.443 220.486V245.9C240.443 251.367 242.84 253.705 247.924 253.705H269.45C273.391 253.697 275.159 251.76 275.159 248.911Z"/><path fill="#F4B88C" d="M308.28 228.973L314.456 222.196C316.169 220.428 316.968 219.346 316.968 217.467C316.968 215.018 314.687 211.942 311.144 211.942C308.975 211.942 307.72 213.024 305.15 215.816L294.817 227.094V219.008C294.817 214.618 292.304 211.942 288.255 211.942C284.206 211.942 281.693 214.618 281.693 219.008V247.374C281.693 251.76 284.206 254.436 288.255 254.436C292.304 254.436 294.817 251.76 294.817 247.374V241.733L298.526 237.69L307.473 251.529C308.955 253.866 310.839 254.436 312.896 254.436C316.324 254.436 319.578 251.818 319.578 248.399C319.578 246.974 319.006 245.703 318.265 244.525L308.28 228.973Z"/><path fill="#F4B88C" d="M144.202 191.072H153.08C154.623 191.072 155.662 190.186 155.662 188.653C155.662 187.121 154.62 186.232 153.08 186.232H146.769V175.227C146.769 173.224 145.611 172 143.77 172C141.928 172 140.771 173.224 140.771 175.227V187.506C140.771 190.005 141.863 191.072 144.202 191.072Z"/><path fill="#F4B88C" d="M164.034 182.905C158.688 183.24 157.121 184.93 157.121 187.194C157.121 190.186 159.236 191.43 162.208 191.43C164.061 191.43 165.964 190.833 167.006 189.27C167.188 190.494 167.867 191.43 169.708 191.43C170.986 191.43 172.209 190.856 172.209 189.531C172.209 188.881 172.055 188.049 172.055 187.109V181.133C172.055 177.776 167.674 177.129 164.829 177.129C161.101 177.129 158.267 178.427 158.267 180.433C158.267 181.499 158.893 182.096 159.962 182.096C161.788 182.096 162.336 180.248 164.659 180.248C166.091 180.248 166.821 180.718 166.821 181.576C166.821 182.435 166.041 182.774 164.034 182.905ZM166.848 186.493C166.848 187.506 165.806 188.446 164.293 188.446C163.432 188.446 162.652 187.926 162.652 187.117C162.638 186.878 162.701 186.64 162.832 186.439C162.964 186.238 163.156 186.084 163.382 186C164.347 185.615 166.084 185.766 166.856 184.957L166.848 186.493Z"/><path fill="#F4B88C" d="M144.056 204.571H170.005C170.888 204.571 171.734 204.222 172.358 203.599C172.982 202.977 173.333 202.133 173.333 201.252C173.333 200.372 172.982 199.528 172.358 198.905C171.734 198.283 170.888 197.933 170.005 197.933H144.056C143.173 197.933 142.327 198.283 141.703 198.905C141.079 199.528 140.729 200.372 140.729 201.252C140.729 202.133 141.079 202.977 141.703 203.599C142.327 204.222 143.173 204.571 144.056 204.571V204.571Z"/></g></svg>