<?xml version="1.0" encoding="UTF-8"?><svg xmlns="http://www.w3.org/2000/svg" viewBox="0 0 815.91 138.44"><defs><style>.f,.g{fill:none;}.g{stroke:#56444a;stroke-miterlimit:10;stroke-width:3px;}.h{fill:#f4b88c;}.i{fill:#f59745;}.j{fill:#eb422e;}.k{fill:#fff;}.l{fill:#ff141e;}.m{fill:#ff3008;}.n{fill:#5f9e43;}.o{fill:#4a9343;}</style></defs><g id="a"/><g id="b"><g id="c"><g><g><path class="f" d="M249.51,28.59c0,1.24,1.2,2.04,2.52,2.04,2.32,0,3.91-1.44,3.91-2.99v-2.36c-1.16,1.24-3.83,1-5.31,1.6-.68,.28-1.12,.84-1.12,1.72Z"/><path class="f" d="M302.14,18.69h-7.6v9.77h8.32c2.49,0,5.11-1.57,5.11-4.78s-2.16-4.98-5.83-4.98Z"/><polygon class="f" points="467.9 21.44 462.79 38.68 473.15 38.68 468.04 21.44 467.9 21.44"/><path class="k" d="M322.65,23.61c0-12.78-9.04-16.32-20.58-16.32h-13.63c-5.83,0-8.59,2.69-8.59,8.98v31.2c0,5.05,2.62,7.87,7.34,7.87s7.34-2.82,7.34-7.87v-7.6h7.54c11.54,0,20.58-3.54,20.58-16.25Zm-19.79,4.85h-8.32v-9.77h7.6c3.67,0,5.83,1.84,5.83,4.98s-2.62,4.78-5.11,4.78Z"/><path class="k" d="M345.73,47.2V14.56c0-5.05-2.88-8.13-7.54-8.13s-7.54,3.08-7.54,8.13V47.2c0,5.05,2.88,8.13,7.54,8.13s7.54-3.08,7.54-8.13Z"/><path class="k" d="M396.79,48.58c0-3.87-2.36-5.9-6.88-5.9h-17.04l20.19-22.42c2.29-2.56,3.02-4.19,3.02-6.36,0-3.67-2.1-6.62-6.88-6.62h-28.45c-4.92,0-7.21,2.36-7.21,5.9s2.29,5.9,7.21,5.9h14.68l-18.88,20.97c-3.28,3.6-4.19,5.31-4.19,7.8,0,3.67,2.29,6.62,7.41,6.62h30.15c4.52,0,6.88-2.03,6.88-5.9Z"/><path class="k" d="M444.11,48.58c0-3.87-2.36-5.9-6.88-5.9h-17.04l20.19-22.42c2.29-2.56,3.02-4.19,3.02-6.36,0-3.67-2.1-6.62-6.88-6.62h-28.45c-4.92,0-7.21,2.36-7.21,5.9s2.29,5.9,7.21,5.9h14.68l-18.88,20.97c-3.28,3.6-4.19,5.31-4.19,7.8,0,3.67,2.29,6.62,7.41,6.62h30.15c4.52,0,6.88-2.03,6.88-5.9Z"/><path class="k" d="M477.54,12.53c-1.44-3.93-3.41-6.1-7.21-6.1h-4.72c-3.8,0-5.77,2.16-7.21,6.1l-10.03,27.92c-1.11,3.15-2.36,6.62-2.36,8.78,0,3.54,3.47,6.1,6.88,6.1,2.36,0,5.31-1.05,6.1-3.74l1.05-3.47h15.86l1.05,3.47c.79,2.69,3.74,3.74,6.1,3.74,3.41,0,6.88-2.56,6.88-6.1,0-2.16-1.25-5.64-2.36-8.78l-10.03-27.92Zm-14.75,26.15l5.11-17.24h.13l5.11,17.24h-10.36Z"/><path class="k" d="M256.19,93.71h.17l5.51,29.2c1.14,6.12,3.93,9.27,9.79,9.27h3.06c5.86,0,9.09-3.32,10.49-9.01l8.83-35.85c1.22-4.98,2.19-8.92,2.19-11.63,0-5.07-3.76-8.74-9.09-8.74-4.63,0-8.57,1.92-9.53,8.04l-5.51,34.27h-.17l-5.51-32.61c-1.14-6.91-3.23-9.7-10.14-9.7s-9.01,2.8-10.14,9.7l-5.51,32.61h-.17l-5.51-34.27c-.96-6.12-4.9-8.04-9.53-8.04-5.33,0-9.09,3.67-9.09,8.74,0,2.71,.96,6.64,2.19,11.63l8.83,35.85c1.4,5.68,4.63,9.01,10.49,9.01h3.06c5.86,0,8.66-3.15,9.79-9.27l5.51-29.2Z"/><path class="k" d="M358.66,123.7c0-4.37-2.71-7.34-8.74-7.34h-24.31v-10.05h18.71c6.03,0,8.74-2.97,8.74-7.34s-2.71-7.34-8.74-7.34h-18.71v-8.83h23.34c6.03,0,8.74-2.97,8.74-7.34s-2.71-7.34-8.74-7.34h-32c-7.78,0-11.45,3.58-11.45,11.98v38.99c0,8.39,3.67,11.98,11.45,11.98h32.96c6.03,0,8.74-2.97,8.74-7.34Z"/><path class="k" d="M421.79,123.7c0-4.37-2.71-7.34-8.74-7.34h-24.31v-10.05h18.71c6.03,0,8.74-2.97,8.74-7.34s-2.71-7.34-8.74-7.34h-18.71v-8.83h23.34c6.03,0,8.74-2.97,8.74-7.34s-2.71-7.34-8.74-7.34h-32c-7.78,0-11.45,3.58-11.45,11.98v38.99c0,8.39,3.67,11.98,11.45,11.98h32.96c6.03,0,8.74-2.97,8.74-7.34Z"/><path class="k" d="M472.5,93.1l9.44-10.4c2.62-2.71,3.85-4.37,3.85-7.26,0-3.76-3.5-8.48-8.92-8.48-3.32,0-5.25,1.66-9.18,5.95l-15.82,17.31v-12.42c0-6.73-3.85-10.84-10.05-10.84s-10.05,4.11-10.05,10.84v43.54c0,6.73,3.85,10.84,10.05,10.84s10.05-4.11,10.05-10.84v-8.66l5.68-6.21,13.73,21.25c2.27,3.58,5.16,4.46,8.31,4.46,5.25,0,10.23-4.02,10.23-9.27,0-2.19-.87-4.11-2.01-5.95l-15.3-23.87Z"/><path class="k" d="M221.24,34.66h13.58c2.36,0,3.95-1.36,3.95-3.71s-1.6-3.71-3.95-3.71h-9.62V10.34c0-3.07-1.76-4.95-4.59-4.95s-4.59,1.88-4.59,4.95V29.19c0,3.83,1.68,5.47,5.23,5.47Z"/><path class="k" d="M251.63,22.12c-8.19,.52-10.58,3.11-10.58,6.59,0,4.59,3.23,6.47,7.79,6.47,2.84,0,5.75-.92,7.35-3.31,.28,1.88,1.32,3.31,4.15,3.31,1.96,0,3.83-.88,3.83-2.92,0-1-.24-2.28-.24-3.71v-9.14c0-5.15-6.71-6.15-11.06-6.15-5.71,0-10.02,2-10.02,5.07,0,1.64,.96,2.56,2.6,2.56,2.8,0,3.63-2.84,7.19-2.84,2.2,0,3.31,.72,3.31,2.04,0,1.4-1.24,1.84-4.31,2.04Zm4.31,5.51c0,1.56-1.6,2.99-3.91,2.99-1.32,0-2.52-.8-2.52-2.04,0-.88,.44-1.44,1.12-1.72,1.48-.6,4.15-.36,5.31-1.6v2.36Z"/><path class="i" d="M221.04,55.38h39.73c2.81,0,5.1-2.28,5.1-5.1s-2.28-5.1-5.1-5.1h-39.73c-2.81,0-5.1,2.28-5.1,5.1s2.28,5.1,5.1,5.1Z"/></g><g><path class="f" d="M166.47,107.71h15.58c-2.52-2.26-5.02-4.56-7.48-6.82-.97-.89-1.92-1.77-2.87-2.63-.07,.49-.15,.92-.24,1.28-.75,3.1-2.47,5.86-4.99,8.17Z"/><path class="f" d="M61.35,56.51c7.63-.46,16.6-5.33,18.2-13.46,1.04-5.27-1.16-11.39-5.88-16.38-4.08-4.31-9.5-7.45-14.59-10.18-10.52,9.34-18.61,19.73-24.5,31.51,8.11,3.99,19,8.97,26.76,8.5Zm-.35-6.86c-3.43,1.01-6.81-.25-7.56-2.8-.75-2.55,1.42-5.44,4.85-6.44,3.43-1.01,6.81,.25,7.56,2.8,.75,2.55-1.42,5.44-4.85,6.44Zm-1.8-27.14c3.92,1.78,10.31,4.94,13.88,13.23,1.69,3.94-.18,8.27-3.85,11.34,.96-1.91,1.24-4.04,.64-6.08-1.44-4.9-7.38-7.47-13.27-5.74-5.89,1.73-9.5,7.1-8.06,12,.34,1.17,.95,2.21,1.75,3.09-3.98-.89-7.58-2.45-9.78-4.51,7.48-10.3,13.17-17.8,18.7-23.33Z"/><path class="j" d="M23.35,55.8c-5.63,15.2-8.6,32.96-9.33,55.91-.06,1.99,1.5,3.66,3.5,3.73,.04,0,.08,0,.12,0,1.94,0,3.55-1.54,3.61-3.5,.71-22.14,3.53-39.18,8.89-53.63,.47-1.26,.95-2.5,1.46-3.73,8.8,4.32,20.7,9.71,30.2,9.14,5.58-.34,11.11-2.29,15.58-5.5,5-3.59,8.21-8.35,9.28-13.77,1.49-7.56-1.39-16.06-7.72-22.75-5.49-5.8-12.78-9.66-18.64-12.76-1.31-.69-2.91-.52-4.04,.45-15.44,13.18-26.2,28.36-32.89,46.4ZM59.09,16.5c5.09,2.73,10.51,5.87,14.59,10.18,4.72,4.99,6.92,11.11,5.88,16.38-1.6,8.12-10.58,13-18.2,13.46-7.76,.47-18.65-4.51-26.76-8.5,5.89-11.78,13.97-22.16,24.5-31.51Z"/><path class="i" d="M38.53,65.58c-1.94-.46-3.89,.73-4.35,2.68-3.77,15.79-5.62,24.23-6.47,43.41-.09,1.99,1.46,3.68,3.45,3.77,.05,0,.11,0,.16,0,1.92,0,3.52-1.51,3.61-3.45,.83-18.56,2.52-26.31,6.28-42.06,.46-1.94-.73-3.89-2.68-4.35Z"/><path class="o" d="M93.59,43.15c5.32,3.11,8.79,5.52,12.46,8.08,2.35,1.63,4.75,3.3,7.66,5.16-26,15.11-49.48,32.24-71.61,52.26-1.11,1-1.49,2.58-.95,3.98,.54,1.39,1.88,2.31,3.37,2.31h89.83c2,0,3.61-1.62,3.61-3.61s-1.62-3.61-3.61-3.61H54.06c21.16-18.3,43.66-34.08,68.52-48.08,1.13-.63,1.83-1.82,1.84-3.12s-.67-2.5-1.79-3.15c-5.32-3.11-8.79-5.52-12.46-8.08-3.62-2.52-7.37-5.12-12.94-8.38-1.72-1.01-3.94-.43-4.94,1.29s-.43,3.94,1.29,4.94Z"/><path class="i" d="M100.37,101.05c4.13,.04,8.32,.06,12.52,.06,7.22,0,14.49-.05,21.61-.1,6.81-.05,13.24-.09,19.38-.09,2,0,3.61-1.62,3.61-3.61s-1.62-3.61-3.61-3.61c-6.17,0-12.61,.04-19.43,.09-5.24,.04-10.56,.07-15.88,.09,6.17-2.37,12.58-4.73,18.6-6.94,5.87-2.15,11.41-4.19,15.66-5.86,1.22-.48,2.08-1.58,2.26-2.87,.18-1.3-.36-2.58-1.4-3.37-3.12-2.36-6.01-4.64-8.8-6.86-3.74-2.96-7.6-6.02-11.92-9.17-1.61-1.18-3.87-.82-5.05,.79-1.18,1.61-.82,3.87,.79,5.05,4.2,3.06,7.84,5.94,11.69,8.99,1.24,.98,2.5,1.98,3.8,3-2.94,1.1-6.18,2.29-9.52,3.51-11.97,4.39-25.53,9.37-35.75,13.99-1.54,.7-2.4,2.38-2.05,4.04,.35,1.66,1.8,2.85,3.5,2.87Z"/><path class="j" d="M144.56,111.54c0,.06,0,.13,.01,.19v.03s.02,.09,.03,.14c0,.06,.02,.12,.03,.18,.01,.05,.03,.11,.04,.16,.02,.06,.03,.12,.05,.17,.02,.08,.05,.15,.08,.23,.01,.03,.02,.06,.03,.09,.04,.11,.09,.21,.15,.31,.01,.02,.02,.04,.04,.06,.04,.08,.09,.15,.14,.23,.02,.03,.04,.06,.06,.08,.04,.06,.09,.13,.14,.19,.03,.03,.05,.06,.08,.09,.05,.05,.09,.1,.14,.15,.03,.03,.07,.07,.1,.1,.05,.04,.09,.09,.14,.13,.04,.03,.08,.07,.12,.1,.05,.04,.09,.07,.14,.11,.04,.03,.09,.06,.14,.09,.05,.03,.1,.06,.14,.09,.05,.03,.1,.05,.15,.08,.05,.03,.1,.05,.15,.07,.05,.02,.1,.05,.15,.07,.06,.02,.11,.04,.17,.06,.05,.02,.1,.03,.15,.05,.07,.02,.13,.04,.2,.05,.04,.01,.09,.02,.13,.03,.09,.02,.17,.03,.26,.04,.03,0,.06,0,.08,.01,.12,.01,.24,.02,.35,.02h43.51c1.52,0,2.87-.95,3.39-2.37,.52-1.43,.1-3.02-1.06-4-4.82-4.07-9.76-8.61-14.54-13-5.38-4.94-10.51-9.65-14.84-13.1-.82-.7-1.73-1.4-2.74-2.08l-.03-.02h-.01s-.04-.04-.06-.05c-.03-.02-.07-.04-.11-.06-.06-.04-.12-.07-.18-.11-.05-.03-.09-.05-.14-.07-.06-.03-.12-.06-.19-.09-.05-.02-.1-.04-.14-.06-.06-.02-.13-.05-.19-.07-.05-.02-.1-.03-.15-.04-.06-.02-.13-.03-.19-.05-.05-.01-.1-.02-.15-.03-.06-.01-.13-.02-.19-.03-.05,0-.11,0-.16-.01-.06,0-.13,0-.19,0-.05,0-.1,0-.16,0-.06,0-.13,0-.19,0-.05,0-.1,.01-.16,.02-.06,0-.13,.02-.19,.03-.05,0-.1,.02-.15,.03-.06,.01-.12,.03-.19,.04-.05,.01-.1,.03-.15,.05-.06,.02-.12,.04-.18,.06-.05,.02-.1,.04-.15,.06-.06,.03-.12,.05-.17,.08-.05,.02-.1,.05-.14,.08-.05,.03-.11,.06-.16,.09-.05,.03-.09,.06-.14,.1-.05,.03-.1,.07-.15,.11-.05,.04-.09,.08-.14,.11-.05,.04-.09,.08-.13,.12-.04,.04-.09,.09-.13,.13-.04,.04-.08,.09-.12,.13-.04,.05-.08,.1-.12,.15-.03,.04-.06,.07-.08,.11,0,.01-.02,.03-.03,.04,0,.01-.02,.02-.03,.04-.03,.04-.05,.08-.07,.12-.03,.05-.07,.11-.1,.16-.03,.05-.05,.11-.08,.16-.03,.06-.05,.11-.08,.17-.02,.06-.04,.11-.06,.17-.02,.06-.04,.11-.06,.17-.02,.06-.03,.12-.05,.17-.01,.06-.03,.11-.04,.17-.01,.06-.02,.12-.03,.18,0,.05-.02,.11-.02,.16,0,.06-.01,.12-.01,.19,0,.05,0,.11,0,.16,0,.06,0,.12,0,.19,0,.05,0,.11,0,.16,0,.06,.01,.12,.02,.18,0,.05,.01,.11,.02,.16,.01,.06,.02,.12,.04,.18,.01,.05,.02,.11,.04,.16,.02,.06,.04,.12,.06,.17,.02,.05,.03,.1,.05,.16,.02,.06,.05,.11,.07,.17,.02,.05,.04,.1,.07,.15,.03,.06,.06,.11,.09,.16,.03,.05,.05,.1,.08,.14,.03,.05,.07,.11,.11,.16,.03,.04,.06,.09,.09,.13,.04,.05,.08,.1,.13,.15,.03,.04,.07,.08,.11,.12,.05,.05,.1,.1,.15,.14,.04,.04,.08,.07,.12,.11,.05,.04,.11,.09,.16,.13,.03,.03,.06,.05,.1,.08,.68,.49,1.41,1.04,2.16,1.63,3.75,3.16,5.43,6.71,4.64,9.98-1.19,4.91-7.74,8.8-16.7,9.89-.04,0-.08,.01-.11,.02-.07,.01-.15,.02-.22,.04-.05,.01-.09,.02-.14,.04-.07,.02-.14,.04-.21,.06-.05,.02-.1,.04-.15,.05-.06,.02-.12,.04-.18,.07-.05,.02-.11,.05-.16,.08-.05,.03-.1,.05-.15,.08-.05,.03-.11,.06-.16,.1-.05,.03-.09,.06-.14,.09-.05,.04-.1,.07-.15,.11-.04,.03-.09,.07-.13,.1-.05,.04-.09,.08-.13,.12-.04,.04-.08,.08-.12,.12-.04,.04-.08,.08-.11,.13-.04,.04-.08,.09-.12,.14-.03,.04-.06,.08-.1,.13-.04,.05-.08,.1-.11,.16-.03,.04-.05,.09-.08,.13-.03,.06-.07,.11-.1,.17-.02,.05-.04,.09-.07,.14-.03,.06-.06,.12-.08,.18-.02,.05-.04,.1-.06,.15-.02,.06-.04,.11-.06,.17-.02,.06-.03,.12-.05,.18-.01,.05-.03,.11-.04,.16-.01,.07-.02,.14-.03,.2,0,.05-.01,.1-.02,.15,0,.07,0,.14-.01,.22,0,.04,0,.08,0,.12v.03c0,.06,0,.12,.01,.18Zm30-10.65c2.46,2.26,4.97,4.56,7.48,6.82h-15.58c2.52-2.31,4.24-5.06,4.99-8.17,.09-.37,.17-.8,.24-1.28,.95,.87,1.9,1.74,2.87,2.63Z"/><path class="h" d="M50.28,50.36c-.8-.88-1.4-1.92-1.75-3.09-1.44-4.9,2.17-10.27,8.06-12,5.89-1.73,11.83,.84,13.27,5.74,.6,2.05,.32,4.17-.64,6.08,3.67-3.07,5.54-7.4,3.85-11.34-3.56-8.29-9.95-11.45-13.88-13.23-5.53,5.53-11.22,13.03-18.7,23.33,2.2,2.06,5.8,3.63,9.78,4.51Z"/><ellipse class="j" cx="59.65" cy="45.03" rx="6.47" ry="4.82" transform="translate(-10.27 18.62) rotate(-16.36)"/><ellipse class="j" cx="82.66" cy="97.31" rx="8.69" ry="4.56" transform="translate(-24.06 27.21) rotate(-16.36)"/><path class="h" d="M68.98,68.05c-9.98,2.57-21.16,1.04-21.16,1.04l-6.07,30.39s29-24.4,61.24-46.08c-3.84-2.22-11.65-7.15-11.65-7.15,0,0-1.9,16.54-22.36,21.79Z"/><path class="i" d="M3.54,115.89s.07,0,.1,0c1.96,0,3.58-1.56,3.63-3.54C8.98,49.15,32.39,21.6,49.84,6.38c1.51-1.32,1.67-3.62,.35-5.13-1.32-1.51-3.62-1.67-5.13-.35C15.68,26.52,1.36,61.87,0,112.16c-.05,2.01,1.53,3.68,3.54,3.73Z"/><path class="h" d="M119.99,65.98s-24.12,17.17-30.55,23.49l40.98-16.86-10.43-6.63Z"/><path class="i" d="M3.64,130.46H191.67c2.01,0,3.64-1.63,3.64-3.64s-1.63-3.64-3.64-3.64H3.64C1.63,123.19,0,124.82,0,126.83s1.63,3.64,3.64,3.64Z"/></g><g><g><path class="k" d="M725.58,35.48c-2.24-.95-5.34-1.63-7.84-1.63s-5.61,1.05-5.61,4.86c0,6.07,15.6,3.51,15.6,15.25,0,7.67-6.17,10.58-13.35,10.58-3.87,0-5.61-.5-9.12-1.35v-6.32c2.44,1.3,5.91,2.16,8.72,2.16s6.32-1.35,6.32-4.51c0-6.67-15.6-3.91-15.6-15.5,0-7.82,6.17-10.68,12.44-10.68,3.06,0,5.91,.4,8.51,1.25l-.06,5.9Z"/><path class="k" d="M766.45,44.22c-2.03-.68-3.87-1.07-6.29-1.07-1.78,0-3.91,.63-3.91,2.78,0,3.99,11.53,1.46,11.53,10.52,0,5.84-5.3,8.18-10.69,8.18-2.52,0-5.1-.44-7.52-1.07l.4-5.36c2.08,1.02,4.26,1.66,6.53,1.66,1.68,0,4.36-.63,4.36-3.07,0-4.92-11.53-1.56-11.53-10.61,0-5.41,4.8-7.79,10-7.79,3.12,0,5.15,.49,7.22,.93l-.09,4.92Z"/><path class="k" d="M787.45,44.37c-1.19-.54-2.47-.92-4.5-.92-4.11,0-6.73,3.21-6.73,7.94s2.23,8.18,6.88,8.18c1.88,0,3.96-.68,5.1-1.17l.3,5.41c-1.93,.58-3.91,.83-6.63,.83-8.36,0-12.57-5.6-12.57-13.25s4.35-13,12.32-13c2.67,0,4.6,.29,6.43,.83l-.59,5.16Z"/><path class="k" d="M802.55,38.38c7.57,0,13.36,5.02,13.36,13.29,0,7.21-4.9,12.95-13.36,12.95s-13.31-5.75-13.31-12.95c0-8.28,5.79-13.29,13.31-13.29Zm0,21.18c5.1,0,6.43-4.48,6.43-8.67,0-3.85-2.08-7.45-6.43-7.45s-6.38,3.7-6.38,7.45c0,4.14,1.34,8.67,6.38,8.67Z"/><polygon class="k" points="750.06 38.63 743.33 38.63 730.67 73.08 736.76 73.08 750.06 38.63"/><path class="n" d="M722.56,38.01c2.81,2.84,5.61,6.31,7.64,10.38,1.82,3.64,2.73,7.19,3.39,10.76,.03,.13,.11,.12,.16,.02,2.42-4.22,3.9-9.97,1.73-14.3-2.27-4.54-7.72-6.64-12.84-7.06-.18,0-.21,.09-.09,.2Z"/></g><g id="d"><g id="e"><path class="m" d="M651.67,100.97v11.51h2.94c3.14-.03,5.66-2.6,5.62-5.74h0c.09-3.1-2.33-5.67-5.42-5.76-.07,0-.14,0-.2,0h-2.94Zm2.94-3.61c5.49,0,9.64,4.15,9.64,9.37s-4.15,9.37-9.64,9.37h-6.48c-.26,0-.47-.21-.47-.47v-17.79c0-.26,.21-.47,.47-.47l6.48-.02Z"/><path class="m" d="M678.43,112.88c3.4,0,6.16-2.76,6.16-6.16s-2.76-6.16-6.16-6.16c-3.4,0-6.16,2.76-6.16,6.16,0,3.4,2.76,6.15,6.16,6.16m0-15.93c5.75,0,10.18,4.41,10.18,9.78s-4.42,9.78-10.18,9.78-10.18-4.41-10.18-9.78,4.42-9.78,10.18-9.78"/><path class="m" d="M702.62,112.88c3.4,0,6.16-2.75,6.16-6.15,0-3.4-2.75-6.16-6.16-6.16-3.4,0-6.16,2.75-6.16,6.15h0c0,3.4,2.76,6.15,6.16,6.16m0-15.93c5.76,0,10.18,4.41,10.18,9.78s-4.42,9.78-10.18,9.78-10.18-4.41-10.18-9.78,4.42-9.78,10.18-9.78"/><path class="m" d="M726.29,100.97h-4.15v4.95h4.15c1.34,.06,2.48-.98,2.54-2.32,0-.03,0-.06,0-.09,.04-1.36-1.02-2.5-2.38-2.54-.05,0-.11,0-.16,0m-8.17-3.13c0-.26,.21-.47,.47-.47h7.81c3.73,0,6.43,2.73,6.43,6.16,.03,2.32-1.27,4.45-3.35,5.49l3.62,6.35c.14,.21,.08,.5-.13,.65-.09,.06-.19,.08-.29,.08h-3.17c-.18,0-.34-.09-.42-.25l-3.47-6.31h-3.48v6.05c0,.26-.21,.47-.47,.47h-3.05c-.26,0-.47-.21-.47-.47l-.04-17.75Z"/><path class="m" d="M743.3,101.05v11.51h2.94c3.14-.04,5.66-2.61,5.62-5.75h0c.09-3.09-2.33-5.67-5.42-5.76-.07,0-.14,0-.2,0h-2.94Zm2.94-3.61c5.49,0,9.64,4.14,9.64,9.37s-4.15,9.37-9.64,9.37h-6.48c-.26,0-.47-.21-.47-.47v-17.79c0-.26,.21-.47,.47-.47l6.48-.02Z"/><path class="m" d="M768.13,102.02l-2.27,6.16h4.55l-2.28-6.16Zm-3.62,9.64l-1.49,4.1c-.06,.2-.26,.33-.47,.32h-3.23c-.26,.03-.48-.16-.51-.42,0-.09,0-.17,.04-.25l6.99-17.76c.07-.2,.26-.32,.47-.31h3.62c.21-.01,.4,.12,.47,.31l6.99,17.76c.11,.23,.01,.51-.22,.62-.08,.04-.16,.05-.25,.04h-3.23c-.21,.01-.4-.12-.47-.32l-1.49-4.1h-7.22Z"/><path class="m" d="M781.14,102.41c0-2.94,2.54-5.49,6.56-5.49,2.16-.04,4.25,.76,5.83,2.23,.19,.19,.19,.49,0,.68l-1.81,1.8c-.17,.19-.47,.2-.66,.03h0c-.85-.78-1.96-1.21-3.11-1.23-1.61,0-2.8,.93-2.8,2.01,0,3.48,9.5,1.48,9.5,8.16,0,3.35-2.54,5.89-7.1,5.89-2.53,.03-4.97-.95-6.77-2.72-.19-.18-.2-.47-.02-.66l.02-.02,1.73-1.73c.18-.19,.47-.19,.66-.02l.02,.02c1.1,1.06,2.56,1.65,4.09,1.67,2.01,0,3.34-1.07,3.34-2.41,0-3.48-9.49-1.47-9.49-8.16"/><path class="m" d="M811.89,97.82v7.01h-8.03v-6.99c.01-.26-.19-.48-.44-.49,0,0-.02,0-.02,0h-3.05c-.26,0-.47,.21-.47,.47,0,0,0,.02,0,.02v17.74c-.01,.26,.19,.48,.44,.49,0,0,.02,0,.02,0h3.05c.26,0,.47-.21,.47-.47,0,0,0-.02,0-.02v-7.12h8.03v7.12c-.01,.26,.18,.48,.44,.49,.02,0,.03,0,.05,0h3.04c.26,.01,.48-.18,.49-.44,0-.02,0-.03,0-.05v-17.76c.01-.26-.18-.48-.44-.49-.02,0-.03,0-.05,0h-3.04c-.26-.01-.48,.18-.49,.44,0,.02,0,.03,0,.05Z"/><path class="m" d="M631.82,99.79c-2.05-3.85-6.06-6.25-10.42-6.23h-33.01c-.63,0-1.13,.52-1.13,1.15,0,.3,.12,.58,.33,.79l7.19,7.23c.63,.64,1.49,1,2.39,1h23.27c1.66-.02,3.02,1.31,3.03,2.97,.02,1.66-1.31,3.01-2.97,3.03h-16.05c-.63,0-1.13,.52-1.13,1.15,0,.3,.12,.58,.33,.79l7.19,7.23c.64,.64,1.5,1,2.4,1h7.25c9.44,0,16.57-10.09,11.3-20.1"/></g></g><g><path class="l" d="M664.49,51.05c-1.23,4.31,2.23,4.24,4.41,1.21,1.52-2.06,2.83-5.14,2.5-6.84-.08-.39-.22-.72-.42-1.01-4.71,.43-6.29,5.96-6.48,6.64Z"/><path class="l" d="M683.62,48.19c0-14.48-21.12-26.26-47.08-26.26s-47.08,11.78-47.08,26.26,21.12,26.26,47.08,26.26,47.08-11.78,47.08-26.26Zm-40.33-7.35c7.76,1.56,12.02,.6,15.62,.43l1.33-2.79c1.09-.41,2.29-.41,3.35,.01l-1.24,2.75c5.43,.13,8.53,1.14,10.3,2.35,3.02,.15,5.61,.9,6.26,1.53-.37,.81-1.06,1.46-1.88,1.79-.3-.48-1.46-1.42-2.98-2.01,1.19,1.59,.82,3.11,.8,3.25-.44,3.59-4.46,7.22-9.06,7.22-2.74,0-4.48-1.29-4.86-3.21-.04-.22-.1-.82-.04-1.38,.15-1.42,.79-2.85,1.82-4.03,1.76-2.04,4.59-2.91,7.41-3.13-1.96-1.18-5.66-.77-8.63-.47l-2.97,6.59c-.36,.74-1.11,2.34-1.2,3.09-.05,.4,.02,.84,.64,.84,.39,0,.81-.2,1.21-.49,.2-.14,.53-.44,.75-.65,.08,.28,.19,.53,.33,.77v.04c-1.09,1.02-2.53,2.02-4.24,2.02-1.48,0-2.56-.88-2.41-2.07,.02-.38,.17-1.06,.61-2.01,.28-.72,.62-1.43,.87-1.99l2.83-5.94c-3.89,0-10.51-.38-14.83-2.17l.21-.34Zm-1.27,4.21c-.14,0-.47,.09-.85,.23-.07-.23-.16-.46-.28-.67,1.09-.68,2.36-1.16,3.44-1.16,1.25,0,2.16,.66,2.03,1.71-.11,.88-.8,2.21-1.27,3.09,0,0-2.19,4.04-2.26,4.63-.06,.48,.31,.7,.87,.7,2.7,0,5.64-5.75,6.55-7.49l.96-1.73s1.17,.11,1.66,.14c.67,.04,1.78,.12,1.78,.12l-2,3.87c-.49,1.07-1.45,3.2-1.58,4.25-.04,.32-.03,.83,.49,.83,.31-.01,.65-.2,.97-.41,0,.04,0,.07,0,.11-.04,.28,0,.56,.1,.8h0c-.96,.73-2.09,1.23-3.31,1.23-1.35,0-2.02-.93-1.9-1.95,.09-.69,.24-1.15,.48-1.76l-.06-.06c-1.49,2.04-3.59,3.75-6.22,3.76-1.52,.01-2.6-.79-2.45-2.1,.12-.94,.84-2.3,1.32-3.21,0,0,1.98-3.96,2.03-4.39,.04-.3-.09-.56-.49-.56Zm-32.54,5.28c-.77,3.24-4.02,5.15-7.84,5.15-2.11,0-4.2-.63-5.37-1.95-2.25-2.61,.33-3.96,1.59-3.94-.66,2.5,.34,4.71,3.52,4.71,1.78,0,3.34-1.03,3.7-2.54,.39-1.67-.54-2.66-1.64-3.78l-1.04-1.08c-1.36-1.38-2.39-2.63-1.89-4.7,.7-2.97,3.84-4.83,7.38-4.83,1.88,0,3.34,.53,4.5,1.54,2.35,2.37-.56,3.88-1.21,3.74-.16-.03-.22-.07-.22-.07,.62-1.92-.04-4.04-2.71-4.04-1.49,0-3.33,.8-3.66,2.16-.37,1.54,.74,2.6,1.74,3.61l.94,.93c1.5,1.46,2.73,2.84,2.19,5.1Zm9.42,3.21c.05-.39,.22-.97,.22-.97l-.06-.05c-1.17,1.49-3.04,2.8-5.28,2.8-2.77,0-3.86-1.78-3.61-3.87,.42-3.45,4.31-7.99,9.05-7.99,1.55,0,2.6,.61,3.05,1.74l.83-1.46c1.11-.41,2.35-.42,3.43,0l-3.4,7.2c-.22,.45-.72,1.55-.77,1.97-.04,.32,.05,.94,.51,.94,.18,0,.38-.06,.58-.16h0l-.48,1.08c-.7,.33-1.44,.54-2.19,.54-1.25,0-2.01-.81-1.88-1.78Zm9.29,.05h-.06l-3.71,8.21c-1.09-.37-2.02-1.15-2.53-2.18l7.8-17.4c1.04,.35,1.92,1.06,2.4,2.03l-.39,.93,.06,.05c1.12-1.07,2.65-1.76,4.37-1.76,2.37,0,3.49,1.21,3.63,2.85,.05,.55-.02,.97-.02,.99-.42,3.4-3.75,8.02-8.52,8.02-1.51,0-2.56-.64-3.01-1.74Z"/><path class="l" d="M634.43,44.93c-2.93,0-5.16,5.56-5.37,7.19-.1,.83,.25,1.74,1.43,1.74,2.97,0,5.3-5.34,5.54-7.27,.11-.88-.39-1.66-1.61-1.66Z"/><path class="l" d="M619.75,44.93c-2.9,0-5.48,5.15-5.71,7.05-.1,.77,.24,1.74,1.36,1.74,3,0,5.66-5.34,5.9-7.26,.1-.85-.41-1.52-1.56-1.52Z"/><path class="k" d="M670.11,29.24c-8.97-5.02-20.89-7.79-33.57-7.79s-24.6,2.77-33.57,7.79c-9.02,5.05-13.98,11.78-13.98,18.95s4.96,13.9,13.98,18.95c8.97,5.02,20.89,7.79,33.57,7.79s24.6-2.77,33.57-7.79c9.02-5.05,13.98-11.78,13.98-18.95s-4.96-13.9-13.98-18.95Zm-80.65,18.95c0-14.48,21.12-26.26,47.08-26.26s47.08,11.78,47.08,26.26-21.12,26.26-47.08,26.26-47.08-11.78-47.08-26.26Z"/><path class="k" d="M607.28,45.23l-.94-.93c-1-1.01-2.11-2.07-1.74-3.61,.33-1.36,2.17-2.16,3.66-2.16,2.66,0,3.32,2.13,2.71,4.04,0,0,.06,.04,.22,.07,.65,.14,3.55-1.37,1.21-3.74-1.16-1.01-2.62-1.54-4.5-1.54-3.54,0-6.68,1.86-7.38,4.83-.5,2.07,.54,3.32,1.89,4.7l1.04,1.08c1.1,1.11,2.03,2.1,1.64,3.78-.36,1.51-1.92,2.54-3.7,2.54-3.18,0-4.18-2.22-3.52-4.71-1.26-.02-3.85,1.33-1.59,3.94,1.17,1.32,3.26,1.95,5.37,1.95,3.83,0,7.07-1.91,7.84-5.15,.54-2.26-.69-3.64-2.19-5.1Z"/><path class="k" d="M639.73,47.31s.07-.44,.02-.99c-.14-1.64-1.26-2.85-3.63-2.85-1.71,0-3.25,.69-4.37,1.76l-.06-.05,.39-.93c-.49-.96-1.36-1.68-2.4-2.03l-7.8,17.4c.51,1.03,1.44,1.81,2.53,2.18l3.71-8.21h.06c.46,1.1,1.5,1.74,3.01,1.74,4.78,0,8.11-4.62,8.52-8.02Zm-3.7-.72c-.24,1.92-2.57,7.27-5.54,7.27-1.18,0-1.53-.91-1.43-1.74,.2-1.63,2.43-7.19,5.37-7.19,1.21,0,1.71,.78,1.61,1.66Z"/><path class="k" d="M623.45,53.72h0c-.2,.09-.4,.14-.58,.14-.46,0-.55-.62-.51-.94,.05-.42,.54-1.52,.77-1.97l3.4-7.2c-1.08-.42-2.32-.41-3.43,0l-.83,1.46c-.46-1.13-1.5-1.74-3.05-1.74-4.74,0-8.63,4.54-9.05,7.99-.25,2.09,.84,3.87,3.61,3.87,2.24,0,4.11-1.31,5.28-2.8l.06,.05s-.17,.58-.22,.97c-.13,.98,.64,1.78,1.88,1.78,.75,0,1.49-.21,2.19-.54l.48-1.07Zm-2.14-7.26c-.24,1.92-2.91,7.26-5.9,7.26-1.12,0-1.47-.96-1.36-1.74,.23-1.9,2.81-7.05,5.71-7.05,1.15,0,1.66,.67,1.56,1.52Z"/><path class="k" d="M640.48,50c-.47,.91-1.2,2.27-1.32,3.21-.16,1.31,.93,2.11,2.45,2.1,2.63,0,4.73-1.72,6.22-3.76l.06,.06c-.24,.61-.39,1.07-.48,1.76-.12,1.02,.55,1.95,1.9,1.95,1.22,0,2.35-.5,3.31-1.22h0c-.09-.26-.13-.53-.1-.81,0-.04,0-.07,0-.11-.31,.21-.66,.4-.97,.41-.52,0-.53-.52-.49-.83,.13-1.05,1.08-3.18,1.58-4.25l2-3.87s-1.12-.08-1.78-.12c-.49-.03-1.66-.14-1.66-.14l-.96,1.73c-.9,1.73-3.85,7.49-6.55,7.49-.57,0-.93-.22-.87-.7,.07-.59,2.26-4.63,2.26-4.63,.47-.88,1.16-2.21,1.27-3.09,.13-1.05-.78-1.71-2.03-1.71-1.08,0-2.35,.48-3.44,1.16,.12,.21,.22,.43,.28,.67,.38-.14,.71-.23,.85-.23,.4,0,.53,.27,.49,.56-.05,.43-2.03,4.39-2.03,4.39Z"/><path class="k" d="M655.09,49.28c-.25,.56-.59,1.27-.87,1.99-.44,.95-.59,1.63-.61,2.01-.14,1.2,.93,2.07,2.41,2.07,1.71,0,3.15-1,4.25-2.02v-.04c-.15-.24-.26-.49-.35-.77-.22,.21-.56,.51-.75,.65-.41,.29-.82,.49-1.21,.49-.62,0-.69-.44-.64-.84,.1-.74,.85-2.35,1.2-3.09l2.97-6.59c2.97-.3,6.67-.71,8.63,.47-2.82,.22-5.65,1.09-7.41,3.13-1.03,1.18-1.66,2.61-1.82,4.03-.06,.56,0,1.15,.04,1.38,.37,1.92,2.12,3.21,4.86,3.21,4.6,0,8.62-3.63,9.06-7.22,.02-.13,.39-1.66-.8-3.25,1.53,.59,2.69,1.53,2.98,2.01,.81-.34,1.51-.99,1.88-1.79-.64-.63-3.24-1.38-6.26-1.53-1.77-1.21-4.87-2.22-10.3-2.35l1.24-2.75c-1.06-.43-2.26-.42-3.35-.01l-1.33,2.79c-3.59,.16-7.85,1.12-15.62-.43l-.21,.34c4.33,1.79,10.94,2.17,14.83,2.17l-2.83,5.94Zm16.3-3.86c.34,1.69-.97,4.77-2.5,6.84-2.18,3.03-5.64,3.1-4.41-1.21,.19-.68,1.77-6.21,6.48-6.64,.2,.3,.34,.63,.42,1.01Z"/></g></g><line class="g" x1="540.83" y1="7.29" x2="540.83" y2="138.44"/></g></g></g></svg>