<?xml version="1.0" encoding="UTF-8"?><svg xmlns="http://www.w3.org/2000/svg" viewBox="0 0 756.87 225.03"><defs><style>.f{fill:none;}.g{fill:#f4b88c;}.h{fill:#f59745;}.i{fill:#eb422e;}.j{fill:#fff;}.k{fill:#ff141e;}.l{fill:#ff3008;}.m{fill:#5f9e43;}.n{fill:#4a9343;}</style></defs><g id="a"/><g id="b"><g id="c"><g><g><path class="f" d="M393.52,64.96c0,1.87,1.81,3.08,3.8,3.08,3.5,0,5.91-2.17,5.91-4.53v-3.56c-1.75,1.87-5.79,1.51-8.03,2.41-1.03,.42-1.69,1.27-1.69,2.6Z"/><path class="f" d="M473.05,50.01h-11.49v14.76h12.58c3.76,0,7.73-2.38,7.73-7.23s-3.27-7.53-8.82-7.53Z"/><polygon class="f" points="723.59 54.17 715.86 80.22 731.51 80.22 723.78 54.17 723.59 54.17"/><path class="j" d="M504.06,57.43c0-19.32-13.67-24.67-31.1-24.67h-20.6c-8.82,0-12.98,4.06-12.98,13.57v47.15c0,7.63,3.96,11.89,11.09,11.89s11.09-4.26,11.09-11.89v-11.49h11.39c17.43,0,31.1-5.35,31.1-24.57Zm-29.92,7.33h-12.58v-14.76h11.49c5.55,0,8.82,2.77,8.82,7.53s-3.96,7.23-7.73,7.23Z"/><path class="j" d="M538.93,93.1V43.76c0-7.63-4.36-12.28-11.39-12.28s-11.39,4.66-11.39,12.28v49.33c0,7.63,4.36,12.28,11.39,12.28s11.39-4.66,11.39-12.28Z"/><path class="j" d="M616.1,95.18c0-5.84-3.57-8.92-10.4-8.92h-25.76l30.51-33.88c3.47-3.86,4.56-6.34,4.56-9.61,0-5.55-3.17-10.01-10.4-10.01h-42.99c-7.43,0-10.9,3.57-10.9,8.92s3.47,8.92,10.9,8.92h22.19l-28.53,31.7c-4.95,5.45-6.34,8.02-6.34,11.79,0,5.55,3.47,10.01,11.19,10.01h45.57c6.84,0,10.4-3.07,10.4-8.92Z"/><path class="j" d="M687.62,95.18c0-5.84-3.57-8.92-10.4-8.92h-25.76l30.51-33.88c3.47-3.86,4.56-6.34,4.56-9.61,0-5.55-3.17-10.01-10.4-10.01h-42.99c-7.43,0-10.9,3.57-10.9,8.92s3.47,8.92,10.9,8.92h22.19l-28.53,31.7c-4.95,5.45-6.34,8.02-6.34,11.79,0,5.55,3.47,10.01,11.19,10.01h45.57c6.84,0,10.4-3.07,10.4-8.92Z"/><path class="j" d="M738.15,40.69c-2.18-5.94-5.15-9.21-10.9-9.21h-7.13c-5.75,0-8.72,3.27-10.9,9.21l-15.16,42.2c-1.68,4.75-3.57,10.01-3.57,13.27,0,5.35,5.25,9.21,10.4,9.21,3.57,0,8.02-1.58,9.21-5.65l1.58-5.25h23.97l1.58,5.25c1.19,4.06,5.65,5.65,9.21,5.65,5.15,0,10.4-3.86,10.4-9.21,0-3.27-1.88-8.52-3.57-13.27l-15.16-42.2Zm-22.29,39.52l7.73-26.05h.2l7.73,26.05h-15.65Z"/><path class="j" d="M403.61,163.38h.26l8.32,44.13c1.72,9.25,5.95,14.01,14.8,14.01h4.62c8.85,0,13.74-5.02,15.86-13.61l13.35-54.18c1.85-7.53,3.3-13.48,3.3-17.57,0-7.66-5.68-13.21-13.74-13.21-7,0-12.95,2.91-14.4,12.16l-8.32,51.8h-.26l-8.32-49.29c-1.72-10.44-4.89-14.67-15.33-14.67s-13.61,4.23-15.33,14.67l-8.32,49.29h-.26l-8.32-51.8c-1.45-9.25-7.4-12.16-14.4-12.16-8.06,0-13.74,5.55-13.74,13.21,0,4.1,1.45,10.04,3.3,17.57l13.35,54.18c2.11,8.59,7,13.61,15.86,13.61h4.62c8.85,0,13.08-4.76,14.8-14.01l8.32-44.13Z"/><path class="j" d="M558.48,208.7c0-6.61-4.1-11.1-13.21-11.1h-36.73v-15.2h28.28c9.12,0,13.21-4.49,13.21-11.1s-4.1-11.1-13.21-11.1h-28.28v-13.35h35.28c9.12,0,13.21-4.49,13.21-11.1s-4.1-11.1-13.21-11.1h-48.36c-11.76,0-17.31,5.42-17.31,18.1v58.93c0,12.69,5.55,18.1,17.31,18.1h49.82c9.12,0,13.21-4.49,13.21-11.1Z"/><path class="j" d="M653.88,208.7c0-6.61-4.1-11.1-13.21-11.1h-36.73v-15.2h28.28c9.12,0,13.21-4.49,13.21-11.1s-4.1-11.1-13.21-11.1h-28.28v-13.35h35.28c9.12,0,13.21-4.49,13.21-11.1s-4.1-11.1-13.21-11.1h-48.36c-11.76,0-17.31,5.42-17.31,18.1v58.93c0,12.69,5.55,18.1,17.31,18.1h49.82c9.12,0,13.21-4.49,13.21-11.1Z"/><path class="j" d="M730.53,162.46l14.27-15.72c3.96-4.1,5.81-6.61,5.81-10.97,0-5.68-5.29-12.82-13.48-12.82-5.02,0-7.93,2.51-13.87,8.99l-23.92,26.16v-18.76c0-10.17-5.81-16.39-15.2-16.39s-15.2,6.21-15.2,16.39v65.8c0,10.17,5.81,16.39,15.2,16.39s15.2-6.21,15.2-16.39v-13.08l8.59-9.38,20.75,32.11c3.44,5.42,7.8,6.74,12.55,6.74,7.93,0,15.46-6.08,15.46-14.01,0-3.3-1.32-6.21-3.04-8.99l-23.12-36.07Z"/><path class="j" d="M350.79,74.13h20.52c3.56,0,5.97-2.05,5.97-5.61s-2.41-5.61-5.97-5.61h-14.54v-25.53c0-4.65-2.66-7.48-6.94-7.48s-6.94,2.84-6.94,7.48v28.49c0,5.79,2.53,8.27,7.91,8.27Z"/><path class="j" d="M396.72,55.18c-12.37,.78-15.99,4.71-15.99,9.96,0,6.94,4.89,9.78,11.77,9.78,4.29,0,8.69-1.39,11.1-5.01,.42,2.84,1.99,5.01,6.28,5.01,2.96,0,5.79-1.33,5.79-4.41,0-1.51-.36-3.44-.36-5.61v-13.82c0-7.79-10.14-9.29-16.72-9.29-8.63,0-15.15,3.02-15.15,7.66,0,2.47,1.45,3.86,3.92,3.86,4.22,0,5.49-4.29,10.86-4.29,3.32,0,5.01,1.09,5.01,3.08,0,2.11-1.87,2.78-6.52,3.08Zm6.52,8.33c0,2.35-2.41,4.53-5.91,4.53-1.99,0-3.8-1.21-3.8-3.08,0-1.33,.66-2.17,1.69-2.6,2.23-.91,6.28-.54,8.03-2.41v3.56Z"/><path class="h" d="M350.49,105.45h60.05c4.25,0,7.7-3.45,7.7-7.7s-3.45-7.7-7.7-7.7h-60.05c-4.25,0-7.7,3.45-7.7,7.7s3.45,7.7,7.7,7.7Z"/></g><g><g><path class="f" d="M238.63,154.4h22.34c-3.61-3.24-7.2-6.54-10.72-9.78-1.39-1.27-2.76-2.53-4.11-3.77-.1,.7-.22,1.32-.35,1.84-1.08,4.45-3.54,8.4-7.15,11.71Z"/><path class="f" d="M87.95,81.01c10.93-.66,23.8-7.64,26.1-19.29,1.49-7.55-1.66-16.33-8.43-23.48-5.85-6.18-13.62-10.68-20.91-14.59-15.09,13.39-26.68,28.28-35.12,45.16,11.63,5.72,27.23,12.86,38.36,12.19Zm-.5-9.83c-4.91,1.44-9.77-.35-10.84-4.01-1.07-3.66,2.04-7.79,6.95-9.23,4.91-1.44,9.77,.35,10.84,4.01,1.07,3.66-2.04,7.79-6.95,9.23Zm-2.58-38.9c5.62,2.55,14.78,7.08,19.89,18.97,2.43,5.65-.25,11.86-5.52,16.26,1.37-2.74,1.78-5.79,.92-8.72-2.06-7.02-10.58-10.71-19.02-8.23-8.44,2.48-13.62,10.18-11.56,17.21,.49,1.68,1.36,3.17,2.5,4.43-5.7-1.27-10.87-3.52-14.02-6.47,10.72-14.76,18.88-25.51,26.8-33.44Z"/><path class="i" d="M33.47,79.99c-8.08,21.79-12.33,47.26-13.38,80.14-.09,2.86,2.15,5.25,5.01,5.34,.06,0,.11,0,.17,0,2.78,0,5.08-2.21,5.17-5.01,1.02-31.74,5.06-56.17,12.74-76.87,.67-1.8,1.37-3.58,2.1-5.34,12.61,6.2,29.67,13.92,43.29,13.1,7.99-.48,15.93-3.28,22.34-7.89,7.17-5.15,11.76-11.97,13.3-19.74,2.14-10.84-2-23.02-11.07-32.61-7.87-8.31-18.32-13.84-26.73-18.29-1.88-.99-4.17-.74-5.78,.64-22.14,18.89-37.56,40.65-47.15,66.52ZM84.7,23.66c7.29,3.91,15.06,8.41,20.91,14.59,6.77,7.15,9.92,15.93,8.43,23.48-2.3,11.65-15.16,18.63-26.1,19.29-11.13,.67-26.73-6.47-38.36-12.19,8.44-16.88,20.03-31.77,35.12-45.16Z"/><path class="h" d="M55.24,94c-2.78-.66-5.58,1.05-6.24,3.84-5.4,22.64-8.05,34.74-9.28,62.23-.13,2.86,2.09,5.28,4.94,5.4,.08,0,.16,0,.23,0,2.75,0,5.05-2.17,5.17-4.95,1.18-26.61,3.62-37.71,9-60.29,.66-2.78-1.05-5.58-3.84-6.24Z"/><path class="n" d="M134.16,61.85c7.63,4.46,12.6,7.92,17.86,11.58,3.37,2.34,6.81,4.73,10.98,7.4-37.27,21.65-70.93,46.22-102.66,74.92-1.59,1.44-2.13,3.7-1.36,5.7,.77,2,2.69,3.32,4.83,3.32H192.6c2.86,0,5.18-2.32,5.18-5.18s-2.32-5.18-5.18-5.18H77.49c30.34-26.24,62.59-48.86,98.23-68.92,1.62-.91,2.62-2.62,2.64-4.47s-.96-3.58-2.56-4.51c-7.63-4.46-12.6-7.92-17.86-11.58-5.19-3.61-10.57-7.35-18.54-12.01-2.47-1.44-5.64-.61-7.09,1.86-1.44,2.47-.61,5.64,1.86,7.09Z"/><path class="h" d="M143.89,144.86c5.92,.06,11.92,.09,17.94,.09,10.36,0,20.78-.07,30.98-.14,9.76-.07,18.98-.13,27.78-.13,2.86,0,5.18-2.32,5.18-5.18s-2.32-5.18-5.18-5.18c-8.84,0-18.08,.06-27.85,.13-7.51,.05-15.14,.1-22.77,.13,8.84-3.4,18.04-6.78,26.66-9.94,8.41-3.09,16.35-6,22.45-8.4,1.74-.69,2.98-2.26,3.24-4.12,.25-1.86-.51-3.71-2.01-4.84-4.47-3.38-8.61-6.66-12.61-9.83-5.36-4.24-10.9-8.63-17.09-13.14-2.31-1.68-5.55-1.18-7.24,1.14-1.68,2.31-1.18,5.55,1.14,7.24,6.02,4.39,11.24,8.52,16.76,12.89,1.78,1.41,3.59,2.84,5.44,4.29-4.21,1.58-8.85,3.28-13.64,5.04-17.15,6.3-36.6,13.43-51.25,20.05-2.21,1-3.44,3.41-2.94,5.78,.5,2.38,2.58,4.09,5.01,4.12Z"/><path class="i" d="M207.23,159.89c0,.09,0,.19,.02,.28,0,.01,0,.03,0,.04,0,.07,.02,.13,.03,.2,.01,.09,.03,.17,.04,.26,.02,.08,.04,.15,.06,.23,.02,.08,.04,.17,.07,.25,.03,.11,.08,.22,.12,.32,.02,.04,.03,.09,.05,.13,.06,.15,.13,.3,.21,.44,.02,.03,.04,.06,.05,.09,.06,.11,.13,.22,.2,.33,.03,.04,.06,.08,.09,.12,.06,.09,.13,.18,.2,.27,.04,.05,.08,.09,.12,.14,.07,.07,.13,.15,.2,.22,.05,.05,.1,.09,.15,.14,.07,.06,.13,.12,.2,.18,.06,.05,.11,.09,.17,.14,.07,.05,.13,.1,.2,.15,.06,.05,.13,.09,.2,.13,.07,.04,.14,.09,.21,.13,.07,.04,.14,.08,.21,.12,.07,.04,.15,.07,.22,.11,.07,.03,.14,.06,.22,.09,.08,.03,.16,.06,.24,.09,.07,.02,.14,.05,.21,.07,.09,.03,.19,.05,.29,.07,.06,.01,.12,.03,.18,.04,.12,.02,.25,.04,.37,.06,.04,0,.08,.01,.12,.02,.17,.02,.34,.03,.51,.03h62.37c2.18,0,4.12-1.36,4.87-3.4,.75-2.04,.14-4.33-1.52-5.74-6.91-5.83-14-12.34-20.85-18.63-7.71-7.08-15.06-13.83-21.28-18.77-1.18-1-2.49-2-3.93-2.99l-.04-.03h-.02s-.06-.06-.09-.08c-.05-.03-.1-.06-.15-.09-.08-.05-.17-.11-.25-.15-.07-.04-.13-.07-.2-.1-.09-.04-.18-.09-.27-.13-.07-.03-.14-.05-.21-.08-.09-.03-.18-.07-.27-.1-.07-.02-.14-.04-.21-.06-.09-.02-.18-.05-.27-.07-.07-.02-.15-.03-.22-.04-.09-.01-.18-.03-.27-.04-.08,0-.15-.01-.23-.02-.09,0-.18-.01-.27-.01-.08,0-.15,0-.23,0-.09,0-.18,0-.27,.01-.07,0-.15,.02-.22,.03-.09,.01-.18,.02-.27,.04-.07,.01-.15,.03-.22,.05-.09,.02-.18,.04-.27,.06-.07,.02-.14,.04-.21,.07-.09,.03-.17,.06-.26,.09-.07,.03-.14,.06-.21,.09-.08,.04-.17,.07-.25,.11-.07,.03-.14,.07-.2,.11-.08,.04-.16,.09-.23,.13-.07,.04-.13,.09-.2,.14-.07,.05-.14,.1-.21,.15-.07,.05-.13,.11-.2,.16-.06,.06-.13,.11-.19,.17-.06,.06-.12,.13-.18,.19-.06,.06-.12,.12-.17,.19-.06,.07-.11,.14-.17,.21-.04,.05-.08,.1-.12,.15-.01,.02-.02,.04-.04,.06-.01,.02-.03,.04-.04,.05-.04,.05-.07,.11-.1,.17-.05,.08-.1,.15-.14,.23-.04,.08-.08,.15-.12,.23-.04,.08-.08,.16-.11,.24-.03,.08-.06,.16-.09,.24-.03,.08-.06,.16-.09,.24-.03,.08-.05,.17-.07,.25-.02,.08-.04,.16-.06,.24-.02,.09-.03,.17-.05,.26-.01,.08-.03,.16-.03,.24,0,.09-.01,.18-.02,.27,0,.08-.01,.15-.01,.23,0,.09,0,.18,0,.27,0,.08,0,.15,.01,.23,0,.09,.02,.18,.03,.26,.01,.08,.02,.15,.03,.23,.02,.09,.04,.17,.06,.26,.02,.08,.03,.15,.06,.23,.02,.08,.05,.17,.08,.25,.02,.07,.05,.15,.08,.22,.03,.08,.07,.16,.1,.24,.03,.07,.06,.14,.1,.22,.04,.08,.08,.16,.13,.23,.04,.07,.08,.14,.12,.2,.05,.08,.1,.15,.15,.23,.04,.06,.09,.13,.14,.19,.06,.07,.12,.15,.18,.22,.05,.06,.1,.12,.15,.17,.07,.07,.14,.14,.21,.2,.06,.05,.11,.11,.17,.16,.07,.06,.15,.12,.23,.18,.05,.04,.09,.08,.14,.11,.98,.7,2.02,1.49,3.09,2.34,5.37,4.54,7.79,9.62,6.66,14.3-1.7,7.04-11.1,12.61-23.95,14.18-.06,0-.11,.02-.16,.03-.11,.02-.21,.03-.32,.05-.07,.01-.13,.03-.2,.05-.1,.03-.2,.05-.3,.08-.07,.02-.14,.05-.21,.08-.09,.03-.17,.06-.26,.1-.08,.03-.15,.07-.23,.11-.07,.04-.15,.07-.22,.11-.08,.04-.15,.09-.23,.14-.07,.04-.13,.08-.2,.13-.07,.05-.14,.11-.22,.16-.06,.05-.12,.09-.18,.14-.07,.06-.13,.12-.19,.17-.06,.06-.12,.11-.17,.17-.06,.06-.11,.12-.16,.18-.06,.06-.11,.13-.17,.2-.05,.06-.09,.12-.14,.18-.05,.07-.11,.15-.16,.22-.04,.06-.08,.12-.11,.19-.05,.08-.1,.16-.14,.24-.03,.06-.06,.13-.1,.2-.04,.08-.08,.17-.11,.25-.03,.07-.05,.15-.08,.22-.03,.08-.06,.16-.08,.25-.03,.08-.05,.17-.07,.26-.02,.08-.04,.15-.05,.23-.02,.1-.03,.2-.04,.29,0,.07-.02,.14-.03,.21,0,.1-.01,.21-.02,.31,0,.06,0,.12,0,.18,0,.02,0,.03,0,.05,0,.09,0,.18,.01,.26Zm43.01-15.27c3.53,3.24,7.12,6.54,10.72,9.78h-22.34c3.62-3.31,6.08-7.26,7.15-11.71,.13-.52,.25-1.14,.35-1.84,1.36,1.24,2.73,2.5,4.11,3.77Z"/><path class="g" d="M72.08,72.19c-1.14-1.26-2.01-2.75-2.5-4.43-2.06-7.02,3.11-14.73,11.56-17.21,8.44-2.48,16.96,1.21,19.02,8.23,.86,2.93,.46,5.98-.92,8.72,5.26-4.4,7.94-10.61,5.52-16.26-5.11-11.89-14.27-16.42-19.89-18.97-7.92,7.92-16.09,18.68-26.8,33.44,3.15,2.95,8.32,5.2,14.02,6.47Z"/><ellipse class="i" cx="85.5" cy="64.55" rx="9.27" ry="6.9" transform="translate(-14.72 26.69) rotate(-16.36)"/><ellipse class="i" cx="118.49" cy="139.5" rx="12.45" ry="6.53" transform="translate(-34.49 39.01) rotate(-16.36)"/><path class="g" d="M98.88,97.55c-14.31,3.68-30.33,1.5-30.33,1.5l-8.7,43.56s41.57-34.98,87.79-66.05c-5.5-3.18-16.71-10.25-16.71-10.25,0,0-2.73,23.71-32.06,31.24Z"/><path class="h" d="M5.07,166.14s.1,0,.14,0c2.81,0,5.13-2.24,5.21-5.07C12.87,70.45,46.43,30.96,71.45,9.14c2.17-1.89,2.4-5.19,.5-7.36-1.89-2.17-5.19-2.4-7.36-.5C22.48,38.01,1.95,88.7,0,160.78c-.08,2.88,2.19,5.27,5.07,5.35Z"/><path class="g" d="M172,94.58s-34.57,24.61-43.8,33.67l58.74-24.17-14.95-9.51Z"/><path class="h" d="M5.21,187.02H274.76c2.88,0,5.21-2.33,5.21-5.21s-2.33-5.21-5.21-5.21H5.21C2.33,176.59,0,178.93,0,181.81s2.33,5.21,5.21,5.21Z"/></g><g><g><path class="j" d="M87.43,205.91c-1.14-.48-2.71-.83-3.98-.83s-2.85,.54-2.85,2.47c0,3.09,7.93,1.79,7.93,7.75,0,3.9-3.14,5.38-6.79,5.38-1.97,0-2.85-.26-4.64-.69v-3.21c1.24,.66,3.01,1.1,4.43,1.1s3.21-.69,3.21-2.3c0-3.39-7.93-1.99-7.93-7.88,0-3.98,3.14-5.43,6.32-5.43,1.56,0,3.01,.2,4.33,.64l-.03,3Z"/><path class="j" d="M108.21,210.35c-1.03-.35-1.97-.54-3.2-.54-.91,0-1.99,.32-1.99,1.41,0,2.03,5.86,.74,5.86,5.35,0,2.97-2.69,4.16-5.44,4.16-1.28,0-2.59-.22-3.82-.54l.2-2.72c1.06,.52,2.16,.84,3.32,.84,.86,0,2.21-.32,2.21-1.56,0-2.5-5.86-.79-5.86-5.4,0-2.75,2.44-3.96,5.08-3.96,1.58,0,2.62,.25,3.67,.47l-.05,2.5Z"/><path class="j" d="M118.89,210.43c-.6-.27-1.26-.47-2.29-.47-2.09,0-3.42,1.63-3.42,4.04s1.13,4.16,3.5,4.16c.96,0,2.01-.35,2.59-.59l.15,2.75c-.98,.3-1.99,.42-3.37,.42-4.25,0-6.39-2.85-6.39-6.74s2.21-6.61,6.27-6.61c1.36,0,2.34,.15,3.27,.42l-.3,2.62Z"/><path class="j" d="M126.57,207.38c3.85,0,6.79,2.55,6.79,6.76,0,3.66-2.49,6.59-6.79,6.59s-6.77-2.92-6.77-6.59c0-4.21,2.94-6.76,6.77-6.76Zm0,10.77c2.59,0,3.27-2.28,3.27-4.41,0-1.96-1.06-3.79-3.27-3.79s-3.25,1.88-3.25,3.79c0,2.11,.68,4.41,3.25,4.41Z"/><polygon class="j" points="99.88 207.51 96.46 207.51 90.02 225.03 93.11 225.03 99.88 207.51"/><path class="m" d="M85.89,207.19c1.43,1.45,2.85,3.21,3.89,5.28,.92,1.85,1.39,3.65,1.73,5.47,.01,.06,.06,.06,.08,0,1.23-2.15,1.98-5.07,.88-7.27-1.15-2.31-3.92-3.37-6.53-3.59-.09,0-.11,.04-.05,.1Z"/></g><g id="d"><g id="e"><path class="l" d="M187.79,210.39v6.52h1.67c1.78-.02,3.21-1.48,3.19-3.25h0c.05-1.75-1.32-3.21-3.07-3.27-.04,0-.08,0-.12,0h-1.67Zm1.67-2.05c3.11,0,5.46,2.35,5.46,5.31s-2.35,5.31-5.46,5.31h-3.67c-.15,0-.26-.12-.26-.26v-10.08c0-.15,.12-.26,.26-.26h3.67Z"/><path class="l" d="M202.95,217.14c1.93,0,3.49-1.56,3.49-3.49s-1.56-3.49-3.49-3.49c-1.93,0-3.49,1.56-3.49,3.49,0,1.93,1.56,3.49,3.49,3.49m0-9.02c3.26,0,5.77,2.5,5.77,5.54s-2.51,5.54-5.77,5.54-5.77-2.5-5.77-5.54,2.5-5.54,5.77-5.54"/><path class="l" d="M216.66,217.14c1.93,0,3.49-1.56,3.49-3.49,0-1.93-1.56-3.49-3.49-3.49-1.93,0-3.49,1.56-3.49,3.49h0c0,1.93,1.56,3.49,3.49,3.49m0-9.02c3.26,0,5.77,2.5,5.77,5.54s-2.5,5.54-5.77,5.54-5.77-2.5-5.77-5.54,2.5-5.54,5.77-5.54"/><path class="l" d="M230.07,210.39h-2.35v2.8h2.35c.76,.04,1.41-.55,1.44-1.31v-.05c.03-.77-.58-1.42-1.35-1.44-.03,0-.06,0-.09,0m-4.63-1.77c0-.15,.12-.26,.26-.26h4.43c2.11,0,3.64,1.55,3.64,3.49,.02,1.31-.72,2.52-1.9,3.11l2.05,3.6c.08,.12,.05,.29-.07,.37-.05,.03-.11,.05-.16,.04h-1.8c-.1,0-.19-.05-.24-.14l-1.97-3.57h-1.97v3.43c0,.15-.12,.26-.26,.26h-1.73c-.15,0-.26-.12-.26-.26l-.02-10.06Z"/><path class="l" d="M239.71,210.44v6.52h1.67c1.78-.02,3.21-1.48,3.19-3.26h0c.05-1.75-1.32-3.21-3.07-3.26-.04,0-.08,0-.12,0h-1.67Zm1.67-2.05c3.11,0,5.46,2.35,5.46,5.31s-2.35,5.31-5.46,5.31h-3.67c-.15,0-.26-.12-.26-.26v-10.08c0-.15,.12-.26,.26-.26h3.67Z"/><path class="l" d="M253.78,210.98l-1.29,3.49h2.58l-1.29-3.49Zm-2.05,5.46l-.84,2.32c-.04,.11-.14,.19-.26,.18h-1.83c-.15,.01-.27-.09-.29-.24,0-.05,0-.1,.02-.14l3.96-10.06c.04-.11,.15-.18,.26-.18h2.05c.12,0,.23,.07,.26,.18l3.96,10.06c.06,.13,0,.29-.12,.35-.04,.02-.09,.03-.14,.02h-1.83c-.12,0-.23-.07-.26-.18l-.84-2.32h-4.09Z"/><path class="l" d="M261.15,211.2c0-1.67,1.44-3.11,3.72-3.11,1.22-.02,2.41,.43,3.3,1.26,.11,.11,.11,.28,0,.39l-1.02,1.02c-.1,.11-.27,.11-.37,.01h0c-.48-.44-1.11-.69-1.76-.7-.91,0-1.58,.53-1.58,1.14,0,1.97,5.38,.84,5.38,4.63,0,1.9-1.44,3.34-4.02,3.34-1.43,.02-2.82-.54-3.84-1.54-.11-.1-.11-.27-.01-.37h.01l.98-.99c.1-.11,.27-.11,.37,0h0c.62,.61,1.45,.95,2.32,.95,1.14,0,1.89-.61,1.89-1.37,0-1.97-5.38-.83-5.38-4.63"/><path class="l" d="M278.57,208.61v3.97h-4.55v-3.96c0-.15-.1-.27-.25-.28,0,0,0,0-.01,0h-1.73c-.15,0-.26,.12-.26,.26,0,0,0,0,0,.01v10.05c0,.15,.1,.27,.25,.28,0,0,0,0,.01,0h1.73c.15,0,.26-.12,.26-.26,0,0,0,0,0-.01v-4.03h4.55v4.03c0,.15,.1,.27,.25,.28,0,0,.02,0,.03,0h1.72c.15,0,.27-.1,.28-.25,0,0,0-.02,0-.03v-10.06c0-.15-.1-.27-.25-.28,0,0-.02,0-.03,0h-1.72c-.15,0-.27,.1-.28,.25,0,0,0,.02,0,.03Z"/><path class="l" d="M176.54,209.72c-1.16-2.18-3.43-3.54-5.91-3.53h-18.7c-.36,0-.64,.29-.64,.65,0,.17,.07,.33,.19,.45l4.07,4.1c.36,.36,.85,.57,1.36,.57h13.19c.94-.01,1.71,.74,1.72,1.68,.01,.94-.74,1.71-1.68,1.72h-9.09c-.36,0-.64,.29-.64,.65,0,.17,.07,.33,.19,.45l4.07,4.1c.36,.36,.85,.56,1.36,.56h4.11c5.35,0,9.39-5.72,6.4-11.39"/></g></g><g><path class="k" d="M40.73,212.76c-.63,2.19,1.13,2.16,2.24,.62,.77-1.05,1.44-2.62,1.27-3.48-.04-.2-.11-.36-.21-.52-2.4,.22-3.2,3.03-3.3,3.38Z"/><path class="k" d="M50.45,211.31c0-7.36-10.74-13.35-23.94-13.35s-23.94,5.99-23.94,13.35,10.74,13.35,23.94,13.35,23.94-5.99,23.94-13.35Zm-20.51-3.74c3.95,.79,6.11,.3,7.94,.22l.68-1.42c.56-.21,1.17-.21,1.71,0l-.63,1.4c2.76,.07,4.34,.58,5.24,1.19,1.53,.08,2.85,.46,3.18,.78-.19,.41-.54,.74-.95,.91-.15-.25-.74-.72-1.52-1.02,.61,.81,.42,1.58,.41,1.65-.22,1.83-2.27,3.67-4.61,3.67-1.39,0-2.28-.65-2.47-1.63-.02-.11-.05-.42-.02-.7,.08-.72,.4-1.45,.92-2.05,.9-1.04,2.33-1.48,3.77-1.59-.99-.6-2.88-.39-4.39-.24l-1.51,3.35c-.18,.38-.56,1.19-.61,1.57-.02,.2,0,.43,.33,.43,.2,0,.41-.1,.62-.25,.1-.07,.27-.22,.38-.33,.04,.14,.1,.27,.17,.39v.02c-.55,.52-1.29,1.03-2.15,1.03-.75,0-1.3-.45-1.23-1.05,.01-.19,.09-.54,.31-1.02,.14-.36,.31-.73,.44-1.01l1.44-3.02c-1.98,0-5.34-.2-7.54-1.1l.1-.17Zm-.64,2.14c-.07,0-.24,.05-.43,.12-.03-.12-.08-.23-.14-.34,.55-.34,1.2-.59,1.75-.59,.63,0,1.1,.34,1.03,.87-.06,.45-.41,1.12-.65,1.57,0,0-1.11,2.06-1.15,2.36-.03,.25,.16,.36,.44,.36,1.37,0,2.87-2.92,3.33-3.81l.49-.88s.6,.06,.84,.07c.34,.02,.91,.06,.91,.06l-1.02,1.97c-.25,.54-.74,1.63-.8,2.16-.02,.16-.02,.42,.25,.42,.16,0,.33-.1,.49-.21,0,.02,0,.04,0,.06-.02,.14,0,.28,.05,.41h0c-.49,.37-1.06,.62-1.68,.62-.69,0-1.03-.47-.97-.99,.05-.35,.12-.58,.24-.89l-.03-.03c-.76,1.04-1.83,1.91-3.16,1.91-.77,0-1.32-.4-1.24-1.07,.06-.48,.43-1.17,.67-1.63,0,0,1.01-2.02,1.03-2.23,.02-.15-.05-.29-.25-.29Zm-16.55,2.68c-.39,1.65-2.04,2.62-3.99,2.62-1.07,0-2.14-.32-2.73-.99-1.15-1.33,.17-2.01,.81-2-.34,1.27,.17,2.4,1.79,2.4,.91,0,1.7-.52,1.88-1.29,.2-.85-.27-1.35-.83-1.92l-.53-.55c-.69-.7-1.22-1.34-.96-2.39,.36-1.51,1.95-2.46,3.75-2.46,.95,0,1.7,.27,2.29,.78,1.19,1.2-.28,1.97-.61,1.9-.08-.02-.11-.04-.11-.04,.31-.97-.02-2.05-1.38-2.05-.76,0-1.7,.41-1.86,1.1-.19,.78,.38,1.32,.88,1.84l.48,.47c.76,.74,1.39,1.44,1.11,2.59Zm4.79,1.63c.02-.2,.11-.49,.11-.49l-.03-.03c-.6,.76-1.55,1.43-2.69,1.43-1.41,0-1.96-.91-1.83-1.97,.21-1.75,2.19-4.06,4.6-4.06,.79,0,1.32,.31,1.55,.89l.42-.74c.57-.21,1.2-.21,1.74,0l-1.73,3.66c-.11,.23-.36,.79-.39,1-.02,.16,.02,.48,.26,.48,.09,0,.19-.03,.3-.08h0l-.25,.55c-.35,.17-.73,.27-1.11,.27-.63,0-1.02-.41-.96-.91Zm4.73,.03h-.03l-1.89,4.17c-.56-.19-1.03-.58-1.29-1.11l3.97-8.85c.53,.18,.97,.54,1.22,1.03l-.2,.47,.03,.03c.57-.54,1.35-.89,2.22-.89,1.21,0,1.77,.61,1.85,1.45,.02,.28-.01,.49-.01,.5-.21,1.73-1.91,4.08-4.33,4.08-.77,0-1.3-.32-1.53-.88Z"/><path class="k" d="M25.44,209.65c-1.49,0-2.63,2.83-2.73,3.66-.05,.42,.13,.88,.73,.88,1.51,0,2.7-2.72,2.82-3.69,.05-.45-.2-.84-.82-.84Z"/><path class="k" d="M17.98,209.65c-1.48,0-2.79,2.62-2.9,3.58-.05,.39,.12,.88,.69,.88,1.52,0,2.88-2.72,3-3.69,.05-.43-.21-.78-.79-.78Z"/><path class="j" d="M43.59,201.67c-4.56-2.56-10.63-3.96-17.07-3.96s-12.51,1.41-17.07,3.96c-4.58,2.57-7.11,5.99-7.11,9.63s2.52,7.07,7.11,9.63c4.56,2.56,10.63,3.96,17.07,3.96s12.51-1.41,17.07-3.96c4.58-2.57,7.11-5.99,7.11-9.63s-2.52-7.07-7.11-9.63ZM2.58,211.31c0-7.36,10.74-13.35,23.94-13.35s23.94,5.99,23.94,13.35-10.74,13.35-23.94,13.35-23.94-5.99-23.94-13.35Z"/><path class="j" d="M11.64,209.8l-.48-.47c-.51-.51-1.07-1.05-.88-1.84,.17-.69,1.1-1.1,1.86-1.1,1.35,0,1.69,1.08,1.38,2.05,0,0,.03,.02,.11,.04,.33,.07,1.81-.7,.61-1.9-.59-.51-1.33-.78-2.29-.78-1.8,0-3.4,.94-3.75,2.46-.25,1.05,.27,1.69,.96,2.39l.53,.55c.56,.57,1.03,1.07,.83,1.92-.18,.77-.98,1.29-1.88,1.29-1.62,0-2.13-1.13-1.79-2.4-.64-.01-1.96,.68-.81,2,.59,.67,1.66,.99,2.73,.99,1.95,0,3.6-.97,3.99-2.62,.27-1.15-.35-1.85-1.11-2.59Z"/><path class="j" d="M28.13,210.86s.03-.22,.01-.5c-.07-.84-.64-1.45-1.85-1.45-.87,0-1.65,.35-2.22,.89l-.03-.03,.2-.47c-.25-.49-.69-.85-1.22-1.03l-3.97,8.85c.26,.52,.73,.92,1.29,1.11l1.89-4.17h.03c.23,.56,.76,.88,1.53,.88,2.43,0,4.12-2.35,4.33-4.08Zm-1.88-.36c-.12,.98-1.31,3.69-2.82,3.69-.6,0-.78-.46-.73-.88,.1-.83,1.24-3.66,2.73-3.66,.62,0,.87,.4,.82,.84Z"/><path class="j" d="M19.86,214.12h0c-.1,.04-.2,.07-.3,.07-.23,0-.28-.31-.26-.48,.02-.22,.28-.77,.39-1l1.73-3.66c-.55-.22-1.18-.21-1.74,0l-.42,.74c-.23-.57-.77-.89-1.55-.89-2.41,0-4.39,2.31-4.6,4.06-.13,1.06,.43,1.97,1.83,1.97,1.14,0,2.09-.67,2.69-1.43l.03,.03s-.09,.29-.11,.49c-.07,.5,.32,.91,.96,.91,.38,0,.76-.1,1.11-.27l.25-.54Zm-1.09-3.69c-.12,.98-1.48,3.69-3,3.69-.57,0-.75-.49-.69-.88,.12-.96,1.43-3.58,2.9-3.58,.58,0,.84,.34,.79,.78Z"/><path class="j" d="M28.52,212.23c-.24,.46-.61,1.15-.67,1.63-.08,.66,.47,1.07,1.24,1.07,1.34,0,2.4-.87,3.16-1.91l.03,.03c-.12,.31-.2,.54-.24,.89-.06,.52,.28,.99,.97,.99,.62,0,1.2-.26,1.68-.62h0c-.05-.13-.07-.27-.05-.41,0-.02,0-.04,0-.06-.16,.11-.34,.2-.49,.21-.27,0-.27-.26-.25-.42,.07-.53,.55-1.62,.8-2.16l1.02-1.97s-.57-.04-.91-.06c-.25-.02-.84-.07-.84-.07l-.49,.88c-.46,.88-1.96,3.81-3.33,3.81-.29,0-.47-.11-.44-.36,.04-.3,1.15-2.36,1.15-2.36,.24-.45,.59-1.13,.65-1.57,.07-.53-.4-.87-1.03-.87-.55,0-1.2,.25-1.75,.59,.06,.1,.11,.22,.14,.34,.19-.07,.36-.12,.43-.12,.2,0,.27,.14,.25,.29-.02,.22-1.03,2.23-1.03,2.23Z"/><path class="j" d="M35.95,211.86c-.13,.28-.3,.64-.44,1.01-.23,.48-.3,.83-.31,1.02-.07,.61,.47,1.05,1.23,1.05,.87,0,1.6-.51,2.16-1.03v-.02c-.08-.12-.13-.25-.18-.39-.11,.11-.28,.26-.38,.33-.21,.15-.42,.25-.62,.25-.32,0-.35-.22-.33-.43,.05-.38,.43-1.19,.61-1.57l1.51-3.35c1.51-.15,3.39-.36,4.39,.24-1.44,.11-2.87,.55-3.77,1.59-.52,.6-.85,1.33-.92,2.05-.03,.28,0,.59,.02,.7,.19,.98,1.08,1.63,2.47,1.63,2.34,0,4.39-1.84,4.61-3.67,0-.07,.2-.84-.41-1.65,.78,.3,1.37,.78,1.52,1.02,.41-.17,.77-.5,.95-.91-.33-.32-1.65-.7-3.18-.78-.9-.62-2.48-1.13-5.24-1.19l.63-1.4c-.54-.22-1.15-.21-1.71,0l-.68,1.42c-1.83,.08-3.99,.57-7.94-.22l-.1,.17c2.2,.91,5.56,1.1,7.54,1.1l-1.44,3.02Zm8.29-1.96c.17,.86-.5,2.43-1.27,3.48-1.11,1.54-2.87,1.58-2.24-.62,.1-.35,.9-3.16,3.3-3.38,.1,.15,.17,.32,.21,.52Z"/></g></g></g></g></g></g></svg>