<svg xmlns="http://www.w3.org/2000/svg" viewBox="0 0 472.234 634.026"><g id="b"><g id="c"><g><g><path fill="none" d="M56.796,366.406c0,2.095,2.027,3.446,4.257,3.446,3.919,0,6.622-2.432,6.622-5.067v-3.986c-1.959,2.094-6.486,1.689-8.986,2.703-1.149,.473-1.892,1.419-1.892,2.905Z"/><path fill="none" d="M145.837,349.666h-12.865v16.524h14.084c4.214,0,8.65-2.662,8.65-8.096,0-5.323-3.66-8.428-9.87-8.428Z"/><path fill="none" d="M395.453,255.356h36.943c-5.966-5.363-11.902-10.814-17.737-16.171-2.291-2.104-4.559-4.185-6.802-6.237-.162,1.152-.364,2.179-.574,3.046-1.779,7.361-5.851,13.895-11.831,19.363Z"/><path fill="none" d="M146.247,133.976c18.083-1.089,39.354-12.64,43.157-31.901,2.465-12.488-2.746-27.002-13.94-38.828-9.671-10.214-22.524-17.661-34.585-24.124-24.951,22.145-44.12,46.774-58.075,74.691,19.231,9.459,45.042,21.272,63.444,20.161Zm-.832-16.261c-8.126,2.385-16.152-.586-17.927-6.635-1.775-6.049,3.373-12.887,11.498-15.271,8.126-2.385,16.152,.586,17.927,6.635s-3.373,12.887-11.498,15.271Zm-4.266-64.333c9.3,4.221,24.45,11.712,32.896,31.37,4.012,9.338-.416,19.608-9.123,26.886,2.27-4.53,2.938-9.572,1.515-14.421-3.409-11.616-17.494-17.71-31.46-13.612-13.966,4.099-22.524,16.838-19.115,28.454,.816,2.781,2.25,5.242,4.142,7.326-9.425-2.108-17.969-5.817-23.181-10.702,17.722-24.408,31.22-42.196,44.326-55.302Z"/><polygon fill="none" points="426.319 354.323 417.669 383.49 435.191 383.49 426.541 354.323 426.319 354.323"/><path fill="#eb422e" d="M56.157,132.294c-13.357,36.035-20.389,78.152-22.13,132.544-.151,4.729,3.56,8.685,8.289,8.836,.093,.003,.186,.004,.279,.004,4.604,0,8.409-3.657,8.558-8.293,1.68-52.489,8.375-92.888,21.071-127.137,1.105-2.981,2.26-5.927,3.467-8.839,20.86,10.247,49.064,23.022,71.588,21.668,13.221-.796,26.342-5.429,36.946-13.045,11.851-8.512,19.455-19.798,21.989-32.64,3.538-17.92-3.306-38.079-18.307-53.925-13.013-13.744-30.306-22.894-44.202-30.245-3.104-1.641-6.895-1.223-9.567,1.055-36.611,31.238-62.119,67.225-77.98,110.015ZM140.878,39.124c12.061,6.462,24.914,13.909,34.585,24.124,11.194,11.825,16.405,26.34,13.94,38.828-3.802,19.261-25.073,30.812-43.157,31.901-18.402,1.112-44.212-10.701-63.444-20.161,13.956-27.917,33.124-52.547,58.075-74.691Z"/><path fill="#f59745" d="M92.154,155.465c-4.602-1.097-9.223,1.742-10.321,6.344-8.936,37.438-13.321,57.452-15.343,102.923-.21,4.727,3.451,8.729,8.178,8.938,.129,.006,.258,.009,.387,.009,4.556,0,8.348-3.589,8.552-8.187,1.957-44.004,5.979-62.367,14.892-99.707,1.099-4.602-1.742-9.223-6.344-10.321Z"/><path fill="#4a9343" d="M222.668,102.296c12.616,7.38,20.837,13.095,29.542,19.145,5.567,3.87,11.258,7.826,18.164,12.23-61.645,35.813-117.306,76.442-169.779,123.898-2.628,2.376-3.521,6.126-2.248,9.432,1.273,3.307,4.451,5.488,7.994,5.488h212.978c4.731,0,8.567-3.835,8.567-8.567s-3.835-8.567-8.567-8.567H128.957c50.177-43.391,103.514-80.798,162.452-113.979,2.674-1.505,4.338-4.326,4.364-7.394s-1.592-5.916-4.241-7.465c-12.617-7.38-20.838-13.095-29.543-19.146-8.591-5.972-17.476-12.148-30.67-19.866-4.083-2.39-9.331-1.015-11.72,3.069s-1.015,9.332,3.069,11.72Z"/><path fill="#f59745" d="M238.762,239.578c9.793,.104,19.714,.144,29.672,.144,17.126,0,34.362-.119,51.233-.235,16.138-.111,31.381-.216,45.944-.216,4.731,0,8.567-3.835,8.567-8.567s-3.835-8.567-8.567-8.567c-14.622,0-29.894,.105-46.062,.217-12.42,.086-25.033,.173-37.651,.212,14.621-5.628,29.836-11.214,44.085-16.444,13.906-5.104,27.042-9.926,37.124-13.893,2.883-1.134,4.929-3.737,5.351-6.807,.421-3.07-.848-6.128-3.32-7.997-7.391-5.59-14.237-11.011-20.858-16.253-8.863-7.018-18.027-14.275-28.269-21.736-3.824-2.787-9.182-1.945-11.968,1.879-2.786,3.824-1.945,9.183,1.879,11.968,9.963,7.259,18.589,14.089,27.722,21.321,2.944,2.332,5.934,4.698,9,7.103-6.97,2.607-14.641,5.423-22.563,8.332-28.371,10.414-60.527,22.218-84.754,33.167-3.662,1.655-5.681,5.634-4.855,9.567,.826,3.933,4.274,6.763,8.292,6.806Z"/><path fill="#eb422e" d="M343.526,264.435c.009,.153,.016,.306,.033,.457,.003,.024,.002,.047,.005,.071,.014,.112,.038,.22,.056,.331,.023,.143,.043,.287,.073,.427,.028,.13,.065,.255,.098,.383,.036,.136,.067,.274,.109,.408,.057,.182,.127,.358,.195,.534,.029,.073,.051,.149,.082,.22,.106,.249,.223,.492,.35,.727,.027,.05,.059,.097,.087,.146,.104,.185,.212,.367,.329,.542,.046,.068,.097,.132,.144,.198,.107,.15,.214,.299,.33,.441,.063,.077,.13,.149,.195,.224,.108,.124,.216,.247,.331,.364,.079,.08,.161,.156,.243,.233,.109,.103,.218,.204,.331,.301,.093,.08,.19,.155,.287,.231,.11,.086,.22,.169,.334,.25,.106,.075,.214,.146,.323,.215,.113,.072,.227,.142,.343,.208,.115,.066,.23,.13,.348,.19,.119,.062,.241,.119,.363,.175,.119,.054,.237,.107,.359,.156,.133,.053,.268,.101,.403,.148,.116,.04,.23,.081,.348,.116,.156,.047,.315,.084,.475,.122,.102,.024,.202,.051,.306,.072,.202,.04,.407,.068,.613,.094,.066,.008,.131,.021,.197,.028,.277,.027,.557,.044,.841,.044h103.147c3.597,0,6.811-2.248,8.046-5.626,1.235-3.378,.228-7.168-2.521-9.488-11.428-9.643-23.147-20.404-34.481-30.811-12.748-11.706-24.914-22.876-35.19-31.05-1.948-1.657-4.113-3.307-6.503-4.941-.023-.016-.047-.035-.07-.051-.011-.008-.022-.014-.033-.021-.051-.035-.098-.07-.149-.105-.082-.055-.167-.1-.25-.152-.138-.087-.276-.175-.417-.253-.109-.06-.221-.113-.332-.169-.147-.073-.293-.146-.442-.21-.112-.048-.226-.089-.34-.132-.151-.057-.301-.115-.454-.163-.117-.037-.235-.066-.353-.098-.151-.041-.302-.082-.455-.114-.122-.026-.244-.044-.367-.064-.15-.025-.3-.05-.451-.067-.125-.014-.249-.02-.374-.028-.15-.01-.3-.021-.45-.023-.125-.002-.249,.004-.373,.008-.15,.005-.3,.008-.449,.021-.124,.01-.246,.028-.37,.043-.149,.019-.297,.037-.445,.063-.122,.022-.242,.051-.362,.078-.147,.033-.294,.065-.439,.106-.119,.033-.236,.073-.353,.112-.143,.047-.286,.093-.426,.147-.117,.045-.231,.097-.346,.148-.137,.06-.273,.119-.407,.186-.115,.058-.226,.122-.339,.185-.129,.072-.257,.143-.382,.222-.113,.071-.221,.149-.331,.226-.118,.083-.237,.164-.351,.253-.11,.086-.216,.179-.323,.27-.107,.092-.214,.182-.317,.28-.105,.1-.205,.207-.305,.313-.097,.102-.194,.202-.286,.309-.097,.112-.187,.232-.279,.35-.066,.085-.137,.163-.2,.251-.022,.03-.039,.062-.06,.093-.022,.031-.046,.058-.068,.09-.062,.091-.111,.186-.169,.278-.078,.126-.158,.25-.23,.378-.069,.125-.13,.251-.192,.378-.064,.131-.13,.26-.187,.393-.056,.131-.104,.263-.154,.396-.049,.132-.1,.263-.142,.396-.044,.137-.079,.276-.115,.414-.034,.131-.07,.261-.098,.393-.03,.142-.052,.286-.075,.429-.021,.13-.043,.259-.058,.389-.016,.146-.025,.292-.033,.439-.008,.128-.017,.255-.019,.383-.002,.148,.004,.295,.009,.443,.005,.127,.007,.254,.018,.38,.012,.146,.032,.291,.051,.436,.017,.127,.032,.254,.054,.38,.025,.143,.059,.284,.091,.425,.029,.126,.056,.252,.091,.376,.039,.139,.085,.276,.131,.413,.041,.123,.081,.247,.127,.369,.052,.135,.111,.266,.17,.399,.053,.12,.105,.24,.163,.357,.065,.131,.138,.258,.21,.385,.064,.113,.126,.227,.196,.337,.08,.127,.168,.25,.255,.374,.073,.104,.145,.209,.224,.31,.095,.123,.198,.24,.3,.358,.083,.095,.163,.192,.25,.284,.11,.116,.227,.225,.344,.336,.092,.087,.182,.174,.278,.258,.121,.105,.25,.203,.379,.302,.078,.06,.15,.126,.231,.184,1.618,1.16,3.333,2.464,5.115,3.866,8.889,7.501,12.881,15.916,11.011,23.653-2.816,11.649-18.361,20.855-39.603,23.452-.092,.011-.18,.033-.271,.047-.175,.027-.351,.053-.522,.091-.111,.024-.219,.056-.328,.084-.165,.043-.33,.085-.49,.137-.12,.039-.235,.085-.352,.129-.143,.054-.287,.106-.427,.167-.127,.055-.249,.118-.373,.18-.123,.061-.247,.121-.367,.188-.128,.072-.252,.15-.376,.228-.109,.068-.218,.135-.324,.208-.122,.085-.239,.176-.356,.266-.101,.078-.203,.154-.3,.236-.11,.093-.213,.191-.318,.289-.097,.091-.195,.181-.288,.276-.094,.096-.182,.198-.271,.298-.095,.107-.19,.212-.279,.323-.079,.098-.151,.2-.225,.301-.089,.121-.178,.242-.261,.369-.066,.101-.126,.205-.187,.308-.08,.133-.159,.266-.232,.404-.056,.107-.106,.217-.157,.327-.066,.139-.132,.278-.19,.421-.049,.12-.09,.243-.134,.366-.049,.137-.098,.273-.14,.412-.042,.14-.075,.283-.109,.425-.031,.127-.064,.253-.089,.382-.031,.16-.052,.323-.074,.486-.016,.118-.035,.234-.046,.354-.016,.168-.02,.339-.026,.51-.003,.097-.015,.192-.015,.29,0,.025,.004,.05,.004,.075,.001,.145,.013,.291,.022,.437Zm71.133-25.251c5.834,5.357,11.771,10.809,17.737,16.171h-36.943c5.981-5.468,10.052-12.003,11.831-19.363,.209-.867,.412-1.894,.574-3.046,2.243,2.052,4.511,4.134,6.802,6.237Z"/><path fill="#f4b88c" d="M120.004,119.385c-1.892-2.084-3.326-4.544-4.142-7.326-3.409-11.616,5.149-24.356,19.115-28.454,13.966-4.099,28.051,1.995,31.46,13.612,1.423,4.849,.755,9.891-1.515,14.421,8.707-7.278,13.135-17.548,9.123-26.886-8.445-19.658-23.596-27.149-32.896-31.37-13.106,13.106-26.604,30.894-44.326,55.302,5.212,4.885,13.756,8.594,23.181,10.702Z"/><ellipse cx="142.201" cy="106.761" fill="#eb422e" rx="15.333" ry="11.415" transform="translate(-24.309 44.365) rotate(-16.356)"/><ellipse cx="196.754" cy="230.704" fill="#eb422e" rx="20.591" ry="10.8" transform="translate(-57.005 64.744) rotate(-16.356)"/><path fill="#f4b88c" d="M164.322,161.324c-23.666,6.081-50.159,2.473-50.159,2.473l-14.381,72.047s68.756-57.856,145.184-109.235c-9.092-5.257-27.627-16.954-27.627-16.954,0,0-4.509,39.205-53.017,51.669Z"/><path fill="#f59745" d="M9.186,274.759c.08,.002,.158,.003,.237,.003,4.654,0,8.488-3.709,8.615-8.39C22.087,116.518,77.577,51.209,118.962,15.121c3.589-3.129,3.962-8.576,.832-12.165-3.129-3.59-8.576-3.961-12.166-.832C37.967,62.868,4.021,146.688,.799,265.907c-.128,4.76,3.626,8.724,8.386,8.852Z"/><path fill="#f4b88c" d="M285.259,156.413s-57.179,40.696-72.429,55.689l97.149-39.966-24.72-15.723Z"/><path fill="#f59745" d="M9.418,309.299H455.204c4.762,0,8.622-3.86,8.622-8.622s-3.86-8.622-8.622-8.622H9.418c-4.762,0-8.622,3.86-8.622,8.622s3.86,8.622,8.622,8.622Z"/><path fill="#fff" d="M180.549,357.983c0-21.625-15.304-27.614-34.823-27.614h-23.067c-9.87,0-14.528,4.547-14.528,15.193v52.789c0,8.539,4.436,13.308,12.421,13.308s12.421-4.769,12.421-13.308v-12.865h12.754c19.519,0,34.823-5.989,34.823-27.503Zm-33.492,8.207h-14.084v-16.524h12.865c6.21,0,9.87,3.105,9.87,8.428,0,5.434-4.436,8.096-8.65,8.096Z"/><path fill="#fff" d="M219.592,397.907v-55.229c0-8.54-4.88-13.752-12.754-13.752s-12.753,5.212-12.753,13.752v55.229c0,8.54,4.879,13.752,12.753,13.752s12.754-5.212,12.754-13.752Z"/><path fill="#fff" d="M305.985,400.236c0-6.543-3.993-9.981-11.645-9.981h-28.834l34.157-37.928c3.882-4.325,5.102-7.098,5.102-10.757,0-6.21-3.549-11.201-11.645-11.201h-48.131c-8.318,0-12.199,3.993-12.199,9.981s3.881,9.981,12.199,9.981h24.842l-31.939,35.488c-5.545,6.099-7.098,8.983-7.098,13.197,0,6.21,3.881,11.201,12.532,11.201h51.014c7.652,0,11.645-3.438,11.645-9.981Z"/><path fill="#fff" d="M386.058,400.236c0-6.543-3.992-9.981-11.645-9.981h-28.834l34.157-37.928c3.882-4.325,5.102-7.098,5.102-10.757,0-6.21-3.549-11.201-11.645-11.201h-48.131c-8.318,0-12.199,3.993-12.199,9.981s3.881,9.981,12.199,9.981h24.842l-31.939,35.488c-5.545,6.099-7.098,8.983-7.098,13.197,0,6.21,3.881,11.201,12.532,11.201h51.014c7.652,0,11.645-3.438,11.645-9.981Z"/><path fill="#fff" d="M442.622,339.241c-2.44-6.654-5.767-10.314-12.199-10.314h-7.985c-6.432,0-9.759,3.66-12.199,10.314l-16.968,47.244c-1.885,5.323-3.992,11.201-3.992,14.861,0,5.989,5.877,10.314,11.645,10.314,3.993,0,8.983-1.774,10.314-6.321l1.774-5.878h26.838l1.774,5.878c1.331,4.547,6.321,6.321,10.313,6.321,5.767,0,11.645-4.325,11.645-10.314,0-3.66-2.107-9.538-3.993-14.861l-16.968-47.244Zm-24.953,44.25l8.65-29.167h.222l8.65,29.167h-17.522Z"/><path fill="#fff" d="M68.093,476.594h.296l9.32,49.41c1.923,10.355,6.657,15.681,16.568,15.681h5.178c9.912,0,15.385-5.622,17.752-15.237l14.941-60.653c2.071-8.433,3.699-15.089,3.699-19.675,0-8.58-6.361-14.793-15.385-14.793-7.84,0-14.498,3.254-16.125,13.61l-9.32,57.99h-.296l-9.32-55.18c-1.923-11.687-5.474-16.42-17.16-16.42s-15.237,4.734-17.16,16.42l-9.32,55.18h-.296l-9.32-57.99c-1.627-10.355-8.285-13.61-16.125-13.61-9.024,0-15.385,6.213-15.385,14.793,0,4.586,1.627,11.243,3.698,19.675l14.941,60.653c2.367,9.616,7.841,15.237,17.752,15.237h5.177c9.912,0,14.646-5.326,16.569-15.681l9.32-49.41Z"/><path fill="#fff" d="M241.475,527.336c0-7.397-4.586-12.427-14.793-12.427h-41.126v-17.012h31.658c10.207,0,14.793-5.03,14.793-12.427s-4.586-12.426-14.793-12.426h-31.658v-14.941h39.499c10.208,0,14.793-5.03,14.793-12.426s-4.586-12.426-14.793-12.426h-54.144c-13.166,0-19.379,6.065-19.379,20.267v65.979c0,14.202,6.213,20.267,19.379,20.267h55.771c10.207,0,14.793-5.03,14.793-12.426Z"/><path fill="#fff" d="M348.285,527.336c0-7.397-4.586-12.427-14.793-12.427h-41.126v-17.012h31.658c10.207,0,14.793-5.03,14.793-12.427s-4.586-12.426-14.793-12.426h-31.658v-14.941h39.499c10.208,0,14.793-5.03,14.793-12.426s-4.586-12.426-14.793-12.426h-54.144c-13.166,0-19.379,6.065-19.379,20.267v65.979c0,14.202,6.213,20.267,19.379,20.267h55.771c10.207,0,14.793-5.03,14.793-12.426Z"/><path fill="#fff" d="M434.088,475.559l15.977-17.604c4.438-4.586,6.509-7.396,6.509-12.278,0-6.361-5.917-14.35-15.089-14.35-5.622,0-8.876,2.811-15.533,10.06l-26.776,29.291v-21.007c0-11.391-6.509-18.344-17.012-18.344s-17.013,6.953-17.013,18.344v73.671c0,11.391,6.509,18.344,17.013,18.344s17.012-6.953,17.012-18.344v-14.645l9.616-10.503,23.226,35.948c3.846,6.065,8.728,7.545,14.054,7.545,8.876,0,17.309-6.805,17.309-15.681,0-3.698-1.479-6.953-3.403-10.06l-25.888-40.386Z"/><path fill="#fff" d="M8.958,376.676H31.93c3.987,0,6.689-2.297,6.689-6.284s-2.702-6.284-6.689-6.284H15.647v-28.58c0-5.203-2.973-8.378-7.77-8.378S.107,330.326,.107,335.529v31.891c0,6.486,2.837,9.256,8.851,9.256Z"/><path fill="#fff" d="M60.377,355.461c-13.851,.878-17.905,5.27-17.905,11.148,0,7.77,5.473,10.946,13.175,10.946,4.797,0,9.729-1.554,12.432-5.608,.473,3.175,2.229,5.608,7.027,5.608,3.311,0,6.486-1.486,6.486-4.933,0-1.689-.405-3.851-.405-6.283v-15.473c0-8.716-11.351-10.405-18.716-10.405-9.662,0-16.959,3.378-16.959,8.581,0,2.77,1.622,4.324,4.392,4.324,4.729,0,6.148-4.797,12.162-4.797,3.716,0,5.608,1.216,5.608,3.446,0,2.365-2.095,3.108-7.297,3.446Zm7.297,9.324c0,2.635-2.703,5.067-6.622,5.067-2.23,0-4.257-1.351-4.257-3.446,0-1.486,.743-2.433,1.892-2.905,2.5-1.014,7.027-.608,8.986-2.703v3.986Z"/><path fill="#f59745" d="M8.622,411.739H75.851c4.762,0,8.622-3.86,8.622-8.622s-3.86-8.622-8.622-8.622H8.622c-4.762,0-8.622,3.86-8.622,8.622s3.86,8.622,8.622,8.622Z"/></g><g><g><path fill="#fff" d="M151.536,588.856c-2.152-.915-5.125-1.568-7.523-1.568-2.348,0-5.382,1.011-5.382,4.671,0,5.826,14.972,3.37,14.972,14.638,0,7.367-5.92,10.159-12.819,10.159-3.719,0-5.383-.482-8.759-1.3l-.007-6.067c2.349,1.252,5.683,2.071,8.375,2.071,2.594,0,6.067-1.3,6.067-4.334,0-6.404-14.973-3.756-14.973-14.879,0-7.511,5.921-10.256,11.939-10.256,2.936,0,5.675,.385,8.171,1.204l-.061,5.66Z"/><path fill="#fff" d="M190.769,597.25c-1.947-.654-3.712-1.028-6.04-1.028-1.71,0-3.754,.608-3.754,2.664,0,3.833,11.071,1.403,11.071,10.098,0,5.61-5.084,7.854-10.263,7.854-2.423,0-4.893-.421-7.221-1.028l.381-5.143c1.995,.982,4.085,1.59,6.27,1.59,1.616,0,4.181-.608,4.181-2.946,0-4.721-11.069-1.496-11.069-10.19,0-5.189,4.608-7.48,9.598-7.48,2.992,0,4.94,.467,6.935,.888l-.089,4.721Z"/><path fill="#fff" d="M210.927,597.39c-1.14-.514-2.375-.888-4.322-.888-3.945,0-6.462,3.085-6.462,7.62,0,4.442,2.137,7.854,6.603,7.854,1.806,0,3.801-.654,4.893-1.122l.285,5.189c-1.852,.56-3.753,.795-6.365,.795-8.028,0-12.067-5.376-12.067-12.716,0-6.965,4.181-12.481,11.829-12.481,2.565,0,4.418,.28,6.177,.795l-.571,4.955Z"/><path fill="#fff" d="M225.423,591.64c7.268,0,12.826,4.815,12.826,12.762,0,6.919-4.702,12.435-12.826,12.435-8.075,0-12.779-5.516-12.779-12.435,0-7.948,5.558-12.762,12.779-12.762Zm0,20.335c4.893,0,6.175-4.3,6.175-8.321,0-3.693-1.995-7.152-6.175-7.152-4.133,0-6.128,3.553-6.128,7.152,0,3.975,1.282,8.321,6.128,8.321Z"/><polygon fill="#fff" points="175.039 591.874 168.578 591.874 156.422 624.95 162.261 624.95 175.039 591.874"/><path fill="#5f9e43" d="M148.629,591.279c2.699,2.731,5.388,6.06,7.337,9.964,1.744,3.494,2.625,6.899,3.257,10.329,.025,.12,.106,.111,.151,.017,2.322-4.053,3.741-9.569,1.665-13.728-2.177-4.362-7.409-6.37-12.322-6.773-.172-.008-.202,.082-.088,.191Z"/><g><path fill="#fff" d="M238.129,592.166h-.873v-.315h2.124v.315h-.877v2.553h-.375v-2.553Z"/><path fill="#fff" d="M242.119,593.459c-.021-.396-.046-.885-.046-1.238h-.009c-.102,.332-.217,.698-.362,1.089l-.507,1.392h-.281l-.468-1.366c-.136-.404-.247-.775-.328-1.115h-.008c-.008,.358-.03,.838-.055,1.268l-.076,1.23h-.353l.2-2.868h.472l.49,1.387c.119,.353,.213,.672,.289,.97h.009c.076-.289,.179-.608,.307-.97l.511-1.387h.472l.179,2.868h-.366l-.068-1.26Z"/></g></g><g><path fill="none" d="M108.597,585.671c.07,.073,.153,.131,.25,.174,.096,.043,.201,.064,.315,.064s.219-.021,.315-.064,.18-.1,.25-.174c.07-.073,.125-.159,.164-.257s.059-.203,.059-.312-.02-.214-.059-.312c-.04-.098-.095-.184-.164-.257-.07-.073-.153-.131-.25-.174-.096-.043-.201-.064-.315-.064s-.219,.021-.315,.064c-.096,.043-.18,.1-.25,.174-.07,.073-.125,.159-.164,.257-.04,.099-.06,.203-.06,.312s.02,.214,.06,.312,.094,.184,.164,.257Zm.123-1.178h.475c.159,0,.276,.032,.353,.097,.077,.065,.116,.158,.116,.28,0,.104-.029,.183-.087,.239-.058,.056-.129,.089-.215,.099l.302,.502h-.292l-.286-.49h-.098v.49h-.268v-1.218Z"/><path fill="none" d="M106.288,585.695c.027-.061,.046-.141,.055-.241,.009-.099,.014-.223,.014-.372,0-.124-.004-.232-.012-.326-.008-.093-.025-.171-.05-.233-.025-.062-.063-.109-.113-.14s-.116-.047-.2-.047h-.186v1.529h.195c.077,0,.139-.013,.186-.04,.047-.026,.084-.07,.111-.131Z"/><path fill="none" d="M109.339,584.979c.038-.018,.058-.06,.058-.125,0-.035-.007-.061-.021-.081s-.033-.034-.056-.044c-.023-.01-.049-.017-.076-.02-.027-.003-.053-.005-.078-.005h-.177v.301h.204c.059,0,.108-.009,.146-.027Z"/><path fill="#ff141e" d="M88.93,606.846c-1.401,4.909,2.538,4.825,5.015,1.379,1.733-2.35,3.227-5.856,2.843-7.784-.091-.442-.255-.816-.48-1.154-5.367,.487-7.162,6.784-7.377,7.559Z"/><path fill="#ff141e" d="M110.705,603.589c0-16.483-24.04-29.893-53.589-29.893s-53.589,13.41-53.589,29.893,24.04,29.893,53.589,29.893,53.589-13.41,53.589-29.893Zm-45.913-8.37c8.838,1.773,13.686,.678,17.777,.493l1.517-3.181c1.243-.463,2.61-.472,3.818,.015l-1.415,3.131c6.18,.146,9.711,1.296,11.728,2.675,3.435,.17,6.389,1.028,7.122,1.745-.421,.919-1.212,1.66-2.137,2.042-.338-.551-1.659-1.62-3.397-2.291,1.356,1.809,.93,3.545,.912,3.696-.502,4.089-5.082,8.219-10.319,8.219-3.115,0-5.102-1.464-5.527-3.652-.044-.253-.108-.931-.041-1.568,.173-1.617,.9-3.246,2.068-4.591,2.005-2.326,5.22-3.316,8.433-3.565-2.227-1.349-6.443-.877-9.822-.539l-3.378,7.504c-.407,.843-1.262,2.667-1.371,3.515-.055,.453,.021,.955,.729,.955,.448,0,.917-.228,1.38-.557,.224-.16,.608-.501,.858-.739,.095,.319,.222,.606,.381,.878l.013,.045c-1.252,1.162-2.891,2.301-4.835,2.301-1.688,0-2.91-1-2.746-2.361,.027-.433,.192-1.208,.699-2.292,.321-.817,.705-1.627,.989-2.26l3.217-6.761c-4.433,0-11.962-.437-16.887-2.471l.234-.383Zm-1.443,4.794c-.156,0-.536,.103-.97,.26-.074-.267-.181-.525-.32-.759,1.239-.769,2.683-1.318,3.918-1.318,1.419,0,2.458,.755,2.309,1.948-.123,.999-.911,2.518-1.446,3.518,0,0-2.488,4.603-2.571,5.273-.065,.548,.351,.798,.995,.798,3.068,0,6.424-6.546,7.451-8.521l1.093-1.965s1.337,.13,1.891,.165c.758,.046,2.03,.134,2.03,.134l-2.274,4.404c-.56,1.215-1.647,3.644-1.795,4.837-.045,.36-.035,.946,.559,.946,.348-.012,.745-.231,1.099-.468-.002,.042-.009,.08-.011,.123-.043,.322,.002,.633,.109,.912v.016c-1.088,.81-2.382,1.383-3.766,1.383-1.536,0-2.304-1.057-2.167-2.215,.103-.788,.276-1.304,.548-2.001l-.068-.065c-1.701,2.326-4.087,4.271-7.082,4.281-1.725,.012-2.962-.904-2.784-2.392,.132-1.07,.96-2.618,1.5-3.652,0,0,2.252-4.511,2.308-4.999,.048-.34-.103-.643-.556-.643Zm-37.044,6.009c-.876,3.687-4.573,5.864-8.929,5.864-2.4,0-4.781-.72-6.111-2.219-2.564-2.971,.377-4.511,1.814-4.484-.75,2.844,.389,5.366,4.009,5.366,2.03,0,3.806-1.173,4.217-2.891,.449-1.905-.611-3.031-1.863-4.301l-1.181-1.229c-1.544-1.575-2.723-2.997-2.157-5.355,.801-3.383,4.373-5.496,8.402-5.496,2.136,0,3.805,.602,5.122,1.749,2.674,2.693-.636,4.415-1.372,4.253-.18-.034-.249-.079-.249-.079,.702-2.181-.051-4.6-3.081-4.6-1.7,0-3.796,.908-4.166,2.454-.42,1.755,.843,2.962,1.978,4.112l1.074,1.054c1.71,1.664,3.106,3.231,2.494,5.802Zm10.724,3.653c.054-.448,.246-1.103,.246-1.103l-.069-.057c-1.334,1.699-3.463,3.192-6.016,3.192-3.149,0-4.396-2.032-4.107-4.407,.479-3.922,4.904-9.096,10.302-9.096,1.76,0,2.954,.698,3.472,1.981l.948-1.66c1.265-.463,2.675-.475,3.902,.007l-3.865,8.198c-.252,.518-.817,1.764-.872,2.246-.047,.367,.051,1.07,.577,1.07,.207,0,.434-.065,.666-.177l.004,.012-.549,1.215c-.793,.376-1.635,.61-2.494,.61-1.42,0-2.29-.917-2.144-2.032Zm10.58,.058h-.073l-4.222,9.344c-1.242-.417-2.303-1.306-2.88-2.476l8.877-19.802c1.187,.394,2.182,1.21,2.734,2.307l-.449,1.053,.069,.057c1.274-1.215,3.018-2.003,4.97-2.003,2.703,0,3.971,1.374,4.134,3.246,.051,.631-.025,1.108-.025,1.127-.473,3.866-4.266,9.125-9.704,9.125-1.72,0-2.91-.727-3.432-1.977Z"/><path fill="#ff141e" d="M54.709,599.878c-3.338,0-5.877,6.332-6.109,8.183-.113,.946,.286,1.977,1.631,1.977,3.377,0,6.035-6.083,6.307-8.271,.12-1.004-.449-1.89-1.829-1.89Z"/><path fill="#ff141e" d="M38.008,599.878c-3.303,0-6.236,5.867-6.497,8.025-.115,.882,.278,1.978,1.553,1.978,3.41,0,6.446-6.083,6.718-8.268,.118-.973-.466-1.736-1.774-1.736Z"/><path fill="#fff" d="M95.334,582.022c-10.213-5.72-23.786-8.87-38.219-8.87s-28.005,3.15-38.219,8.87c-10.263,5.748-15.915,13.407-15.915,21.567s5.652,15.819,15.915,21.567c10.213,5.72,23.786,8.87,38.219,8.87s28.005-3.15,38.219-8.87c10.263-5.748,15.915-13.407,15.915-21.567s-5.652-15.819-15.915-21.567ZM3.527,603.589c0-16.483,24.04-29.893,53.589-29.893s53.589,13.41,53.589,29.893-24.04,29.893-53.589,29.893-53.589-13.41-53.589-29.893Z"/><path fill="#fff" d="M23.811,600.219l-1.074-1.054c-1.135-1.15-2.398-2.357-1.978-4.112,.37-1.545,2.466-2.454,4.166-2.454,3.03,0,3.783,2.419,3.081,4.6,0,0,.069,.046,.249,.079,.736,.162,4.046-1.56,1.372-4.253-1.317-1.147-2.987-1.749-5.122-1.749-4.029,0-7.601,2.113-8.402,5.496-.566,2.357,.613,3.779,2.157,5.355l1.181,1.229c1.252,1.269,2.312,2.395,1.863,4.301-.411,1.717-2.187,2.891-4.217,2.891-3.62,0-4.759-2.522-4.009-5.366-1.437-.027-4.377,1.513-1.814,4.484,1.33,1.499,3.712,2.219,6.111,2.219,4.357,0,8.053-2.177,8.929-5.864,.612-2.571-.784-4.138-2.494-5.802Z"/><path fill="#fff" d="M60.744,602.585c0-.019,.076-.495,.025-1.127-.163-1.871-1.43-3.246-4.134-3.246-1.952,0-3.696,.788-4.97,2.003l-.069-.057,.449-1.053c-.552-1.097-1.547-1.914-2.734-2.307l-8.877,19.802c.577,1.17,1.637,2.059,2.88,2.476l4.222-9.344h.073c.522,1.25,1.712,1.977,3.432,1.977,5.438,0,9.23-5.259,9.704-9.125Zm-4.207-.817c-.272,2.188-2.929,8.271-6.307,8.271-1.345,0-1.744-1.032-1.631-1.977,.232-1.852,2.771-8.183,6.109-8.183,1.38,0,1.949,.885,1.829,1.89Z"/><path fill="#fff" d="M42.215,609.882l-.004-.012c-.232,.113-.459,.177-.666,.177-.526,0-.624-.702-.577-1.07,.055-.482,.62-1.728,.872-2.246l3.865-8.198c-1.227-.482-2.637-.471-3.902-.007l-.948,1.66c-.518-1.283-1.713-1.981-3.472-1.981-5.398,0-9.822,5.173-10.302,9.096-.29,2.375,.958,4.407,4.107,4.407,2.554,0,4.682-1.492,6.016-3.192l.069,.057s-.192,.655-.246,1.103c-.146,1.115,.724,2.032,2.144,2.032,.859,0,1.701-.234,2.494-.61l.549-1.215Zm-2.434-8.268c-.272,2.185-3.309,8.268-6.718,8.268-1.275,0-1.668-1.096-1.553-1.978,.261-2.158,3.194-8.025,6.497-8.025,1.308,0,1.891,.763,1.774,1.736Z"/><path fill="#fff" d="M61.598,605.654c-.54,1.034-1.368,2.582-1.5,3.652-.178,1.488,1.059,2.403,2.784,2.392,2.995-.01,5.381-1.955,7.082-4.281l.068,.065c-.271,.697-.444,1.213-.548,2.001-.137,1.157,.631,2.215,2.167,2.215,1.383,0,2.678-.573,3.766-1.383v-.016c-.108-.279-.152-.59-.109-.912,.002-.043,.009-.081,.011-.123-.354,.237-.752,.457-1.099,.468-.594,0-.603-.587-.559-.946,.147-1.192,1.234-3.622,1.795-4.837l2.274-4.404s-1.272-.089-2.03-.134c-.555-.035-1.891-.165-1.891-.165l-1.093,1.965c-1.026,1.975-4.383,8.521-7.451,8.521-.644,0-1.06-.249-.995-.798,.083-.67,2.571-5.273,2.571-5.273,.535-1,1.323-2.518,1.446-3.518,.149-1.193-.89-1.948-2.309-1.948-1.235,0-2.679,.548-3.918,1.318,.139,.234,.246,.491,.32,.759,.435-.156,.814-.26,.97-.26,.453,0,.604,.303,.556,.643-.055,.487-2.308,4.999-2.308,4.999Z"/><path fill="#fff" d="M78.228,604.834c-.285,.633-.668,1.444-.989,2.26-.507,1.085-.671,1.86-.699,2.292-.164,1.361,1.058,2.361,2.746,2.361,1.944,0,3.583-1.139,4.835-2.301l-.013-.045c-.159-.272-.286-.559-.381-.878-.25,.237-.633,.578-.858,.739-.463,.329-.932,.557-1.38,.557-.709,0-.784-.502-.729-.955,.108-.847,.964-2.671,1.371-3.515l3.378-7.504c3.379-.338,7.596-.809,9.822,.539-3.213,.249-6.428,1.239-8.433,3.565-1.168,1.345-1.895,2.974-2.068,4.591-.068,.637-.003,1.315,.041,1.568,.425,2.188,2.412,3.652,5.527,3.652,5.236,0,9.817-4.13,10.319-8.219,.018-.151,.444-1.886-.912-3.696,1.738,.671,3.059,1.74,3.397,2.291,.926-.382,1.717-1.123,2.137-2.042-.733-.717-3.687-1.575-7.122-1.745-2.016-1.379-5.548-2.529-11.728-2.675l1.415-3.131c-1.208-.486-2.574-.478-3.818-.015l-1.517,3.181c-4.092,.184-8.939,1.28-17.777-.493l-.234,.383c4.925,2.034,12.455,2.471,16.887,2.471l-3.217,6.761Zm18.559-4.392c.384,1.928-1.109,5.434-2.843,7.784-2.477,3.446-6.415,3.53-5.015-1.379,.215-.774,2.01-7.071,7.377-7.559,.225,.338,.389,.712,.48,1.154Z"/><polygon fill="#ff141e" points="103.493 584.452 103.499 584.452 103.886 586.188 104.227 586.188 104.614 584.452 104.62 584.452 104.62 586.188 105.022 586.188 105.022 584.014 104.373 584.014 104.06 585.549 104.053 585.549 103.743 584.014 103.091 584.014 103.091 586.188 103.493 586.188 103.493 584.452"/><path fill="#ff141e" d="M106.411,586.121c.096-.045,.172-.113,.229-.204,.057-.091,.097-.208,.12-.349,.023-.141,.035-.307,.035-.498,0-.16-.009-.305-.027-.435-.018-.13-.053-.241-.105-.333s-.124-.163-.218-.213c-.094-.05-.216-.075-.369-.075h-.719v2.174h.692c.146,0,.267-.022,.363-.067Zm-.615-.256v-1.529h.186c.083,0,.15,.016,.2,.047s.087,.078,.113,.14c.026,.062,.042,.14,.05,.233,.008,.093,.012,.202,.012,.326,0,.148-.004,.272-.014,.372-.009,.1-.027,.18-.055,.241-.027,.061-.065,.105-.111,.131-.047,.026-.109,.04-.186,.04h-.195Z"/><polygon fill="#ff141e" points="107.953 583.971 107.612 583.971 106.932 586.222 107.265 586.222 107.953 583.971"/><path fill="#ff141e" d="M108.363,585.899c.103,.102,.223,.181,.36,.238,.137,.057,.284,.085,.44,.085s.303-.028,.44-.085c.137-.057,.257-.136,.36-.238,.102-.101,.183-.221,.242-.358s.088-.284,.088-.44-.03-.303-.088-.44-.14-.257-.242-.359c-.103-.102-.223-.183-.36-.242-.137-.059-.284-.088-.44-.088s-.303,.029-.44,.088c-.137,.059-.257,.14-.36,.242s-.183,.222-.242,.359c-.059,.137-.088,.284-.088,.44s.029,.303,.088,.44c.059,.137,.14,.256,.242,.358Zm.07-1.11c.04-.098,.094-.184,.164-.257,.07-.073,.153-.131,.25-.174,.096-.043,.201-.064,.315-.064s.219,.021,.315,.064c.096,.043,.18,.1,.25,.174,.07,.073,.125,.159,.164,.257,.04,.099,.059,.203,.059,.312s-.02,.214-.059,.312-.095,.184-.164,.257c-.07,.073-.153,.131-.25,.174s-.201,.064-.315,.064-.219-.021-.315-.064c-.096-.043-.18-.1-.25-.174s-.125-.159-.164-.257-.06-.203-.06-.312,.02-.214,.06-.312Z"/><path fill="#ff141e" d="M108.989,585.22h.098l.286,.49h.292l-.302-.502c.085-.01,.157-.043,.215-.099,.058-.056,.087-.136,.087-.239,0-.122-.039-.215-.116-.28-.077-.065-.195-.097-.353-.097h-.475v1.218h.268v-.49Zm0-.515h.177c.024,0,.05,.001,.078,.005,.027,.003,.053,.01,.076,.02,.023,.01,.042,.025,.056,.044s.021,.046,.021,.081c0,.065-.019,.107-.058,.125-.039,.018-.087,.027-.146,.027h-.204v-.301Z"/></g><g id="d"><g id="e"><path fill="#ff3008" d="M315.771,598.006v10.963h2.805c2.991-.032,5.39-2.481,5.358-5.47v-.01c.088-2.939-2.224-5.393-5.165-5.481-.064-.002-.129-.003-.193-.002h-2.805Zm2.805-3.443c5.229,0,9.184,3.953,9.184,8.927s-3.955,8.922-9.184,8.922h-6.17c-.245,0-.444-.199-.444-.444v-16.944c0-.245,.199-.444,.444-.444l6.17-.018Z"/><path fill="#ff3008" d="M341.26,609.355c3.241,0,5.868-2.626,5.868-5.865s-2.627-5.865-5.868-5.865c-3.241,0-5.868,2.626-5.868,5.865,.005,3.237,2.629,5.86,5.868,5.865m0-15.174c5.482,0,9.695,4.206,9.695,9.317s-4.213,9.317-9.695,9.317-9.695-4.206-9.695-9.317,4.208-9.317,9.695-9.317"/><path fill="#ff3008" d="M364.308,609.355c3.241,.002,5.87-2.622,5.873-5.861,.002-3.239-2.623-5.867-5.864-5.87-3.241-.002-5.87,2.622-5.873,5.861v.004c.005,3.236,2.627,5.858,5.864,5.865m0-15.174c5.487,0,9.695,4.206,9.695,9.317s-4.208,9.317-9.695,9.317-9.695-4.206-9.695-9.317,4.208-9.317,9.695-9.317"/><path fill="#ff3008" d="M386.853,598.006h-3.955v4.716h3.955c1.278,.059,2.362-.929,2.421-2.207,.001-.029,.002-.058,.002-.087,.042-1.296-.974-2.38-2.27-2.422-.051-.002-.102-.002-.153,0m-7.782-2.981c0-.245,.199-.444,.444-.444h7.444c3.551,0,6.126,2.6,6.126,5.865,.026,2.209-1.214,4.239-3.192,5.226l3.449,6.052c.135,.204,.079,.48-.125,.615-.081,.054-.178,.079-.275,.073h-3.019c-.169,.004-.326-.089-.404-.24l-3.307-6.007h-3.316v5.768c0,.245-.199,.444-.444,.444h-2.903c-.245,0-.444-.199-.444-.444l-.036-16.908Z"/><path fill="#ff3008" d="M403.06,598.086v10.968h2.805c2.993-.034,5.392-2.487,5.358-5.479v-.005c.088-2.939-2.224-5.393-5.165-5.481-.064-.002-.129-.003-.193-.002h-2.805Zm2.805-3.438c5.229,0,9.184,3.949,9.184,8.922s-3.951,8.927-9.184,8.927h-6.17c-.245,0-.444-.199-.444-.444v-16.944c0-.245,.199-.444,.444-.444l6.17-.018Z"/><path fill="#ff3008" d="M426.716,599.004l-2.166,5.865h4.337l-2.171-5.865Zm-3.445,9.18l-1.42,3.904c-.062,.19-.244,.316-.444,.306h-3.081c-.244,.024-.461-.153-.486-.397-.008-.081,.006-.163,.042-.237l6.659-16.922c.065-.187,.246-.308,.444-.297h3.449c.198-.011,.379,.11,.444,.297l6.659,16.922c.107,.221,.014,.486-.207,.592-.074,.036-.156,.05-.237,.042h-3.081c-.2,.01-.382-.116-.444-.306l-1.42-3.904h-6.876Z"/><path fill="#ff3008" d="M439.114,599.377c0-2.804,2.419-5.226,6.25-5.226,2.056-.041,4.048,.72,5.553,2.121,.178,.181,.178,.471,0,.652l-1.722,1.717c-.166,.18-.447,.191-.627,.025l-.003-.003c-.812-.736-1.865-1.151-2.961-1.167-1.531,0-2.663,.887-2.663,1.912,0,3.319,9.047,1.406,9.047,7.778,0,3.19-2.424,5.612-6.761,5.612-2.411,.028-4.734-.906-6.454-2.595-.179-.167-.188-.448-.021-.627l.021-.021,1.651-1.65c.169-.178,.45-.185,.628-.016l.016,.016c1.048,1.008,2.443,1.577,3.897,1.588,1.918,0,3.178-1.02,3.178-2.298,0-3.314-9.042-1.402-9.042-7.778"/><path fill="#ff3008" d="M468.403,595.006v6.677h-7.653v-6.655c.012-.245-.176-.453-.421-.465-.008,0-.015,0-.023,0h-2.903c-.245,0-.444,.198-.444,.443,0,.008,0,.015,0,.023v16.899c-.012,.245,.176,.453,.421,.465,.008,0,.015,0,.023,0h2.903c.245,0,.444-.198,.444-.443,0-.008,0-.015,0-.023v-6.784h7.653v6.784c-.013,.245,.176,.453,.421,.466,.015,0,.03,0,.046,0h2.899c.245,.013,.454-.176,.466-.42,0-.015,0-.03,0-.046v-16.922c.013-.245-.176-.453-.421-.466-.015,0-.03,0-.046,0h-2.899c-.245-.013-.454,.176-.466,.42,0,.015,0,.03,0,.046Z"/><path fill="#ff3008" d="M296.857,596.883c-1.953-3.666-5.775-5.951-9.93-5.936h-31.446c-.598,.005-1.079,.494-1.074,1.092,.002,.283,.115,.553,.315,.754l6.849,6.886c.602,.611,1.424,.954,2.282,.954h22.173c1.579-.017,2.873,1.248,2.89,2.826,.017,1.578-1.249,2.871-2.828,2.888h-15.288c-.598,.005-1.079,.494-1.074,1.092,.002,.283,.115,.553,.315,.754l6.849,6.886c.606,.607,1.428,.949,2.286,.949h6.912c8.989,0,15.79-9.61,10.769-19.144"/></g></g></g></g></g></g></svg>