<?xml version="1.0" encoding="UTF-8"?><svg xmlns="http://www.w3.org/2000/svg" viewBox="0 0 558.82 216.14"><defs><style>.d{fill:#fff;}.e{fill:#5f9e43;}</style></defs><g id="a"/><g id="b"><g id="c"><g><path class="d" d="M100.88,34.54c-10.83-4.6-25.79-7.89-37.85-7.89s-27.08,5.09-27.08,23.5c0,29.31,75.33,16.96,75.33,73.65,0,37.06-29.79,51.12-64.5,51.12-18.71,0-27.08-2.42-44.07-6.54l-.04-30.53c11.82,6.3,28.59,10.42,42.14,10.42s30.53-6.54,30.53-21.81C75.33,94.24,0,107.57,0,51.6,0,13.81,29.79,0,60.07,0c14.77,0,28.55,1.94,41.11,6.06l-.31,28.48Z"/><path class="d" d="M298.27,76.77c-9.8-3.29-18.67-5.17-30.39-5.17-8.6,0-18.89,3.06-18.89,13.41,0,19.29,55.7,7.06,55.7,50.81,0,28.23-25.58,39.52-51.64,39.52-12.19,0-24.62-2.12-36.33-5.17l1.91-25.88c10.04,4.94,20.55,8,31.55,8,8.13,0,21.04-3.06,21.04-14.82,0-23.75-55.7-7.52-55.7-51.27,0-26.11,23.18-37.63,48.29-37.63,15.06,0,24.86,2.35,34.89,4.47l-.45,23.75Z"/><path class="d" d="M399.7,77.48c-5.74-2.59-11.95-4.47-21.74-4.47-19.85,0-32.51,15.52-32.51,38.34s10.75,39.52,33.22,39.52c9.09,0,19.12-3.29,24.62-5.64l1.43,26.11c-9.32,2.82-18.88,4-32.03,4-40.39,0-60.71-27.05-60.71-63.98s21.04-62.8,59.52-62.8c12.91,0,22.23,1.41,31.08,4l-2.87,24.93Z"/><path class="d" d="M472.64,48.55c36.57,0,64.53,24.22,64.53,64.21,0,34.81-23.66,62.57-64.53,62.57s-64.3-27.76-64.3-62.57c0-39.99,27.97-64.21,64.3-64.21Zm0,102.32c24.62,0,31.07-21.64,31.07-41.87,0-18.58-10.04-35.98-31.07-35.98s-30.83,17.88-30.83,35.98c0,20,6.45,41.87,30.83,41.87Z"/><polygon class="d" points="219.13 49.72 186.62 49.72 125.46 216.14 154.84 216.14 219.13 49.72"/><path class="e" d="M86.25,46.73c13.58,13.74,27.11,30.49,36.92,50.13,8.77,17.58,13.21,34.71,16.39,51.97,.13,.6,.53,.56,.76,.09,11.68-20.39,18.82-48.15,8.38-69.07-10.95-21.95-37.28-32.05-62-34.08-.87-.04-1.01,.41-.44,.96Z"/><g><path class="d" d="M536.56,51.19h-4.39v-1.58h10.69v1.58h-4.41v12.85h-1.88v-12.85Z"/><path class="d" d="M556.64,57.7c-.11-1.99-.23-4.45-.23-6.23h-.05c-.51,1.67-1.09,3.51-1.82,5.48l-2.55,7h-1.41l-2.36-6.87c-.69-2.03-1.24-3.9-1.65-5.61h-.04c-.04,1.8-.15,4.22-.28,6.38l-.38,6.19h-1.78l1.01-14.43h2.38l2.46,6.98c.6,1.78,1.07,3.38,1.46,4.88h.04c.38-1.46,.9-3.06,1.54-4.88l2.57-6.98h2.38l.9,14.43h-1.84l-.34-6.34Z"/></g></g></g></g></svg>