<?xml version="1.0" encoding="UTF-8"?><svg xmlns="http://www.w3.org/2000/svg" viewBox="0 0 469.67 609.79"><defs><style>.f{fill:none;}.g{fill:#f4b88c;}.h{fill:#f59745;}.i{fill:#eb422e;}.j{fill:#fff;}.k{fill:#ff141e;}.l{fill:#ff3008;}.m{fill:#5f9e43;}.n{fill:#4a9343;}</style></defs><g id="a"/><g id="b"><g id="c"><g><g><path class="f" d="M62.58,448.21c0-6.92-4.76-10.96-12.84-10.96h-16.73v21.49h18.32c5.48,0,11.25-3.46,11.25-10.53Z"/><path class="f" d="M433.9,334.56h-1.25v8.81h1.25c3.25,0,4.06-1.62,4.06-4.41s-.81-4.41-4.06-4.41Z"/><polygon class="f" points="223.66 347.61 223.5 347.61 217 369.51 230.16 369.51 223.66 347.61"/><path class="f" d="M145.45,133.98c18.08-1.09,39.35-12.64,43.16-31.9,2.47-12.49-2.75-27-13.94-38.83-9.67-10.22-22.52-17.66-34.58-24.12-24.95,22.14-44.12,46.77-58.08,74.69,19.23,9.46,45.04,21.27,63.44,20.16Zm-.83-16.26c-8.13,2.38-16.15-.59-17.93-6.64-1.78-6.05,3.37-12.89,11.5-15.27,8.13-2.38,16.15,.59,17.93,6.64s-3.37,12.89-11.5,15.27Zm-4.27-64.33c9.3,4.22,24.45,11.71,32.9,31.37,4.01,9.34-.42,19.61-9.12,26.89,2.27-4.53,2.94-9.57,1.52-14.42-3.41-11.62-17.49-17.71-31.46-13.61-13.97,4.1-22.52,16.84-19.11,28.45,.82,2.78,2.25,5.24,4.14,7.33-9.42-2.11-17.97-5.82-23.18-10.7,17.72-24.41,31.22-42.2,44.33-55.3Z"/><polygon class="f" points="452.81 357.39 452.77 357.39 450.86 363.83 454.72 363.83 452.81 357.39"/><polygon class="f" points="414.57 443.31 403.32 481.25 426.11 481.25 414.86 443.31 414.57 443.31"/><path class="f" d="M394.66,255.36h36.94c-5.97-5.36-11.9-10.81-17.74-16.17-2.29-2.1-4.56-4.18-6.8-6.24-.16,1.15-.36,2.18-.57,3.05-1.78,7.36-5.85,13.9-11.83,19.36Z"/><path class="i" d="M55.36,132.29c-13.36,36.03-20.39,78.15-22.13,132.54-.15,4.73,3.56,8.69,8.29,8.84,.09,0,.19,0,.28,0,4.6,0,8.41-3.66,8.56-8.29,1.68-52.49,8.38-92.89,21.07-127.14,1.1-2.98,2.26-5.93,3.47-8.84,20.86,10.25,49.07,23.02,71.59,21.67,13.22-.8,26.34-5.43,36.95-13.05,11.85-8.51,19.45-19.8,21.99-32.64,3.54-17.92-3.31-38.08-18.31-53.92-13.01-13.74-30.31-22.89-44.2-30.25-3.1-1.64-6.9-1.22-9.57,1.06-36.61,31.24-62.12,67.23-77.98,110.02ZM140.08,39.12c12.06,6.46,24.91,13.91,34.58,24.12,11.19,11.82,16.41,26.34,13.94,38.83-3.8,19.26-25.07,30.81-43.16,31.9-18.4,1.11-44.21-10.7-63.44-20.16,13.96-27.92,33.12-52.55,58.08-74.69Z"/><path class="h" d="M91.36,155.46c-4.6-1.1-9.22,1.74-10.32,6.34-8.94,37.44-13.32,57.45-15.34,102.92-.21,4.73,3.45,8.73,8.18,8.94,.13,0,.26,0,.39,0,4.56,0,8.35-3.59,8.55-8.19,1.96-44.01,5.98-62.37,14.89-99.71,1.1-4.6-1.74-9.22-6.34-10.32Z"/><path class="n" d="M221.87,102.3c12.62,7.38,20.84,13.1,29.54,19.15,5.57,3.87,11.26,7.83,18.16,12.23-61.64,35.81-117.3,76.44-169.78,123.9-2.63,2.38-3.52,6.13-2.25,9.43s4.45,5.49,7.99,5.49h212.98c4.73,0,8.57-3.84,8.57-8.57s-3.83-8.57-8.57-8.57H128.16c50.18-43.39,103.52-80.8,162.45-113.98,2.67-1.5,4.34-4.33,4.36-7.39s-1.59-5.92-4.24-7.47c-12.62-7.38-20.84-13.1-29.54-19.15-8.59-5.97-17.48-12.15-30.67-19.87-4.08-2.39-9.33-1.02-11.72,3.07-2.39,4.08-1.01,9.33,3.07,11.72Z"/><path class="h" d="M237.97,239.58c9.79,.1,19.71,.14,29.67,.14,17.13,0,34.36-.12,51.23-.23,16.14-.11,31.38-.22,45.94-.22,4.73,0,8.57-3.84,8.57-8.57s-3.83-8.57-8.57-8.57c-14.62,0-29.89,.11-46.06,.22-12.42,.09-25.03,.17-37.65,.21,14.62-5.63,29.83-11.21,44.08-16.44,13.91-5.11,27.04-9.93,37.13-13.9,2.88-1.13,4.93-3.74,5.35-6.81s-.85-6.13-3.32-8c-7.39-5.59-14.23-11.01-20.85-16.25-8.87-7.02-18.03-14.28-28.28-21.74-3.82-2.79-9.18-1.94-11.97,1.88-2.79,3.82-1.94,9.18,1.88,11.97,9.97,7.26,18.59,14.09,27.73,21.33,2.94,2.33,5.93,4.69,8.99,7.1-6.97,2.61-14.64,5.42-22.57,8.33-28.37,10.41-60.52,22.22-84.75,33.16-3.66,1.66-5.68,5.63-4.86,9.57,.83,3.93,4.27,6.76,8.29,6.81Z"/><path class="i" d="M342.73,264.48c0,.13,.01,.27,.03,.4,0,.03,0,.05,0,.08,.02,.13,.04,.26,.07,.38,.02,.12,.04,.24,.06,.36,.03,.16,.08,.32,.12,.48,.03,.1,.05,.21,.08,.31,.08,.25,.17,.5,.27,.75h0c.11,.27,.23,.51,.36,.75,.01,.02,.03,.04,.04,.07,.12,.21,.24,.42,.38,.62,.04,.06,.08,.11,.12,.16,.11,.16,.23,.32,.35,.47,.06,.07,.12,.14,.18,.2,.11,.13,.23,.26,.35,.38,.07,.08,.15,.15,.23,.22,.11,.11,.23,.21,.34,.31,.09,.08,.18,.15,.28,.22,.11,.09,.23,.17,.34,.26,.1,.07,.21,.14,.32,.21,.11,.07,.23,.14,.35,.21,.11,.07,.23,.13,.34,.19,.12,.06,.24,.12,.37,.18,.12,.05,.24,.11,.36,.16,.13,.05,.27,.1,.4,.15,.12,.04,.23,.08,.35,.12,.16,.05,.32,.08,.48,.12,.1,.02,.2,.05,.3,.07,.2,.04,.41,.07,.61,.09,.07,0,.13,.02,.2,.03,.28,.03,.56,.04,.84,.04h103.15c3.6,0,6.81-2.25,8.05-5.63,1.24-3.38,.23-7.17-2.52-9.49-11.43-9.64-23.15-20.4-34.48-30.81-12.75-11.7-24.91-22.87-35.19-31.05-1.95-1.66-4.11-3.3-6.5-4.94-.03-.02-.05-.04-.08-.06-.01,0-.02-.02-.04-.02-.05-.03-.1-.07-.15-.1-.08-.05-.16-.1-.24-.15-.14-.09-.28-.18-.42-.26-.11-.06-.22-.11-.33-.17-.15-.07-.29-.15-.44-.21-.11-.05-.23-.09-.34-.13-.15-.06-.3-.11-.45-.16-.12-.04-.24-.07-.36-.1-.15-.04-.29-.08-.44-.11-.13-.03-.25-.05-.38-.07-.14-.02-.29-.05-.43-.06-.13-.01-.26-.02-.4-.03-.14,0-.28-.02-.43-.02-.13,0-.27,0-.4,0-.14,0-.28,0-.42,.02-.13,.01-.27,.03-.4,.05-.14,.02-.28,.03-.41,.06-.13,.02-.27,.06-.4,.09-.13,.03-.27,.06-.4,.1-.13,.04-.26,.08-.39,.12-.13,.04-.26,.09-.39,.13-.13,.05-.26,.11-.38,.16-.12,.05-.25,.11-.37,.17-.13,.06-.25,.13-.38,.21-.12,.07-.23,.13-.35,.2-.12,.08-.24,.16-.37,.25-.11,.07-.21,.15-.32,.23-.12,.09-.24,.2-.35,.3-.1,.08-.19,.16-.29,.25-.12,.11-.22,.23-.34,.34-.09,.09-.17,.18-.26,.28-.11,.12-.2,.25-.3,.38-.06,.08-.12,.15-.18,.23-.02,.03-.04,.06-.05,.09-.02,.03-.05,.06-.07,.1-.07,.1-.12,.2-.18,.3-.07,.12-.15,.23-.21,.35-.07,.13-.14,.27-.21,.41-.06,.12-.12,.24-.17,.36-.06,.14-.11,.29-.17,.43-.04,.12-.09,.24-.13,.36-.05,.15-.09,.3-.13,.45-.03,.12-.06,.24-.09,.35-.03,.16-.06,.31-.08,.47-.02,.12-.04,.23-.05,.35-.02,.16-.03,.32-.04,.48,0,.12-.02,.23-.02,.35,0,.16,0,.32,0,.48,0,.11,0,.23,.02,.34,.01,.16,.03,.31,.05,.47,.02,.11,.03,.23,.05,.34,.03,.15,.06,.31,.1,.46,.03,.11,.05,.23,.08,.34,.04,.15,.09,.3,.14,.44,.04,.11,.07,.23,.12,.34,.05,.14,.12,.28,.18,.42,.05,.11,.1,.22,.15,.33,.07,.14,.14,.27,.22,.4,.06,.11,.12,.22,.19,.32,.08,.13,.17,.26,.26,.38,.07,.1,.14,.2,.22,.3,.1,.12,.2,.24,.3,.36,.08,.1,.16,.19,.25,.28,.11,.11,.22,.22,.34,.33,.09,.09,.19,.18,.28,.26,.12,.1,.24,.2,.37,.29,.08,.06,.16,.13,.24,.19,1.62,1.16,3.34,2.47,5.12,3.87,8.89,7.5,12.88,15.91,11.01,23.65-2.82,11.65-18.36,20.85-39.6,23.45-.09,.01-.18,.03-.27,.05-.17,.03-.35,.05-.52,.09-.11,.02-.22,.06-.34,.09-.16,.04-.32,.08-.48,.14-.12,.04-.24,.09-.36,.13-.14,.05-.28,.1-.42,.16-.13,.06-.26,.12-.38,.18-.12,.06-.24,.12-.36,.18-.13,.07-.26,.15-.39,.23-.11,.07-.21,.13-.31,.2-.13,.09-.25,.18-.37,.27-.1,.08-.2,.15-.29,.23-.11,.1-.22,.2-.33,.3-.09,.09-.19,.17-.28,.27-.1,.1-.19,.21-.28,.31-.09,.1-.18,.2-.27,.31-.08,.1-.16,.21-.24,.32-.09,.12-.17,.23-.25,.35-.07,.11-.13,.22-.2,.32-.08,.13-.15,.25-.22,.39-.06,.11-.11,.23-.17,.35-.06,.13-.12,.26-.18,.4-.05,.13-.1,.26-.14,.39-.05,.13-.09,.26-.13,.39-.04,.15-.08,.3-.12,.45-.03,.12-.06,.23-.08,.35-.03,.17-.06,.35-.08,.52-.01,.11-.03,.21-.04,.32-.02,.18-.02,.37-.03,.56,0,.08-.01,.17-.01,.25,0,.02,0,.04,0,.06,0,.16,.01,.33,.02,.49Zm71.13-25.3c5.83,5.36,11.77,10.81,17.74,16.17h-36.94c5.98-5.47,10.05-12,11.83-19.36,.21-.87,.41-1.89,.57-3.05,2.24,2.05,4.51,4.13,6.8,6.24Z"/><path class="g" d="M119.21,119.39c-1.89-2.08-3.33-4.54-4.14-7.33-3.41-11.62,5.15-24.36,19.11-28.45,13.97-4.1,28.05,2,31.46,13.61,1.42,4.85,.75,9.89-1.52,14.42,8.71-7.28,13.13-17.55,9.12-26.89-8.45-19.66-23.6-27.15-32.9-31.37-13.11,13.11-26.6,30.89-44.33,55.3,5.21,4.88,13.76,8.59,23.18,10.7Z"/><path class="i" d="M138.19,95.81c-8.13,2.38-13.27,9.22-11.5,15.27,1.78,6.05,9.8,9.02,17.93,6.64,8.13-2.38,13.27-9.22,11.5-15.27s-9.8-9.02-17.93-6.64Z"/><path class="i" d="M192.92,220.34c-10.91,3.2-18.4,10.44-16.72,16.16s11.89,7.77,22.8,4.56c10.91-3.2,18.4-10.44,16.72-16.16-1.68-5.72-11.89-7.77-22.8-4.56Z"/><path class="g" d="M163.53,161.32c-23.67,6.08-50.16,2.47-50.16,2.47l-14.38,72.05s68.76-57.86,145.18-109.23c-9.09-5.26-27.63-16.95-27.63-16.95,0,0-4.51,39.2-53.02,51.67Z"/><path class="h" d="M8.39,274.76c.08,0,.16,0,.24,0,4.65,0,8.49-3.71,8.61-8.39C21.29,116.52,76.78,51.21,118.17,15.12c3.59-3.13,3.96-8.58,.83-12.17-3.13-3.59-8.58-3.96-12.17-.83C37.17,62.87,3.22,146.69,0,265.91c-.13,4.76,3.63,8.72,8.39,8.85Z"/><path class="g" d="M284.46,156.41s-57.18,40.7-72.43,55.69l97.15-39.97-24.72-15.72Z"/><path class="h" d="M8.62,309.3H454.41c4.76,0,8.62-3.86,8.62-8.62s-3.86-8.62-8.62-8.62H8.62C3.86,292.06,0,295.92,0,300.68s3.86,8.62,8.62,8.62Z"/><path class="j" d="M33,483.84h16.59c25.39,0,45.3-7.79,45.3-35.78s-19.91-35.92-45.3-35.92H19.59c-12.84,0-18.9,5.91-18.9,19.76v68.67c0,11.11,5.77,17.31,16.16,17.31s16.16-6.2,16.16-17.31v-16.73Zm0-46.59h16.73c8.08,0,12.84,4.04,12.84,10.96s-5.77,10.53-11.25,10.53h-18.32v-21.49Z"/><path class="j" d="M129.08,517.89c10.24,0,16.59-6.78,16.59-17.89v-71.84c0-11.11-6.35-17.89-16.59-17.89s-16.59,6.78-16.59,17.89v71.84c0,11.11,6.35,17.89,16.59,17.89Z"/><path class="j" d="M258.05,503.03c0-8.51-5.19-12.98-15.15-12.98h-37.51l44.43-49.34c5.05-5.63,6.64-9.23,6.64-13.99,0-8.08-4.62-14.57-15.15-14.57h-62.61c-10.82,0-15.87,5.19-15.87,12.98s5.05,12.98,15.87,12.98h32.31l-41.55,46.16c-7.21,7.93-9.23,11.68-9.23,17.17,0,8.08,5.05,14.57,16.3,14.57h66.36c9.95,0,15.15-4.47,15.15-12.98Z"/><path class="j" d="M362.2,503.03c0-8.51-5.19-12.98-15.15-12.98h-37.51l44.43-49.34c5.05-5.63,6.64-9.23,6.64-13.99,0-8.08-4.62-14.57-15.15-14.57h-62.61c-10.82,0-15.87,5.19-15.87,12.98s5.05,12.98,15.87,12.98h32.31l-41.55,46.16c-7.21,7.93-9.23,11.68-9.23,17.17,0,8.08,5.05,14.57,16.3,14.57h66.36c9.95,0,15.15-4.47,15.15-12.98Z"/><path class="j" d="M457.85,485.14l-22.07-61.45c-3.17-8.66-7.5-13.42-15.87-13.42h-10.39c-8.37,0-12.69,4.76-15.87,13.42l-22.07,61.45c-2.45,6.92-5.19,14.57-5.19,19.33,0,7.79,7.65,13.42,15.15,13.42,5.19,0,11.68-2.31,13.42-8.22l2.31-7.65h34.91l2.31,7.65c1.73,5.91,8.22,8.22,13.42,8.22,7.5,0,15.15-5.63,15.15-13.42,0-4.76-2.74-12.41-5.19-19.33Zm-54.53-3.89l11.25-37.94h.29l11.25,37.94h-22.79Z"/><path class="j" d="M15.44,364.43l12.74,3.66c3.5,1,5.24,2,5.24,4.41,0,3.66-3.5,5-7.41,5-9.41,0-10.24-8.74-17.07-8.74-4.66,0-8.08,3.16-8.08,7.83,0,5.41,6.16,14.4,26.31,14.4,12.65,0,24.89-6.16,24.89-20.4,0-10.41-6.91-15.07-16.98-17.82l-9.91-2.66c-4.08-1.08-6.41-2.25-6.41-4.91s3-4,6.24-4c9.49,0,9.57,7.33,15.98,7.33,4.75,0,8.33-2.91,8.33-7.58,0-10.07-14.32-12.74-25.39-12.74-16.65,0-23.31,9.41-23.31,19.4,0,8.41,5.25,14.07,14.82,16.82Z"/><path class="j" d="M104.6,343.62c5.74,0,8.33-2.83,8.33-6.99s-2.58-6.99-8.33-6.99h-30.47c-7.41,0-10.91,3.41-10.91,11.41v37.13c0,7.99,3.5,11.41,10.91,11.41h31.39c5.74,0,8.33-2.83,8.33-6.99s-2.58-6.99-8.33-6.99h-23.14v-9.57h17.82c5.74,0,8.33-2.83,8.33-6.99s-2.58-6.99-8.33-6.99h-17.82v-8.41h22.23Z"/><path class="j" d="M163.38,385.32l8.66-32.38h.17v29.14c0,5.74,3.41,8.57,8.57,8.57s8.57-2.83,8.57-8.57v-43.12c0-6.16-3.41-10.41-9.99-10.41h-5.41c-6.08,0-8.58,2.08-10.16,7.99l-7.91,29.72h-.17l-7.91-29.72c-1.58-5.91-4.08-7.99-10.16-7.99h-5.41c-6.58,0-9.99,4.25-9.99,10.41v43.12c0,5.74,3.41,8.57,8.57,8.57s8.57-2.83,8.57-8.57v-29.14h.17l8.66,32.38c1.08,4.08,3,5.33,7.58,5.33s6.49-1.25,7.58-5.33Z"/><path class="j" d="M212.18,385.91l1.33-4.41h20.15l1.33,4.41c1,3.41,4.75,4.75,7.74,4.75,4.33,0,8.74-3.25,8.74-7.74,0-2.75-1.58-7.16-3-11.16l-12.74-35.47c-1.83-5-4.33-7.74-9.16-7.74h-5.99c-4.83,0-7.33,2.75-9.16,7.74l-12.74,35.47c-1.42,4-3,8.41-3,11.16,0,4.5,4.41,7.74,8.74,7.74,3,0,6.74-1.33,7.74-4.75Zm11.32-38.3h.17l6.49,21.9h-13.15l6.49-21.9Z"/><path class="j" d="M277.78,380.33v-41.46c0-6.41-3.66-10.32-9.57-10.32s-9.57,3.91-9.57,10.32v41.46c0,6.41,3.66,10.32,9.57,10.32s9.57-3.91,9.57-10.32Z"/><path class="j" d="M309.17,381v-23.64h.17l15.9,26.14c3.66,6.08,6.41,7.49,11.49,7.49,6.08,0,10.82-2.58,10.82-9.16v-44.04c0-5.58-3.5-9.57-9.32-9.57s-9.32,4-9.32,9.57v25.06h-.17l-16.82-28.81c-2.41-4.08-5.83-5.83-10.41-5.83-7.24,0-10.99,3.75-10.99,10.24v42.54c0,6.41,3.33,9.99,9.32,9.99s9.32-3.58,9.32-9.99Z"/><path class="j" d="M371.45,389.57h31.39c5.75,0,8.33-2.83,8.33-6.99s-2.58-6.99-8.33-6.99h-23.14v-9.57h17.82c5.75,0,8.33-2.83,8.33-6.99s-2.58-6.99-8.33-6.99h-17.82v-8.41h22.23c5.74,0,8.33-2.83,8.33-6.99s-2.58-6.99-8.33-6.99h-30.47c-7.41,0-10.91,3.41-10.91,11.41v37.13c0,7.99,3.5,11.41,10.91,11.41Z"/><path class="j" d="M435.14,330.16h-4.77c-2.18,0-3.21,1-3.21,3.35v10.92c0,2.35,1.03,3.35,3.21,3.35h4.77c5.85,0,8.44-3.92,8.44-8.81s-2.59-8.81-8.44-8.81Zm-1.25,13.22h-1.25v-8.81h1.25c3.25,0,4.06,1.62,4.06,4.41s-.81,4.41-4.06,4.41Z"/><path class="j" d="M459.08,334.27c1.69,0,2.45-.83,2.45-2.06s-.76-2.06-2.45-2.06h-8.96c-2.18,0-3.21,1-3.21,3.35v10.92c0,2.35,1.03,3.35,3.21,3.35h9.23c1.69,0,2.45-.83,2.45-2.06s-.76-2.06-2.45-2.06h-6.8v-2.81h5.24c1.69,0,2.45-.83,2.45-2.06s-.76-2.06-2.45-2.06h-5.24v-2.47h6.53Z"/><path class="j" d="M431.72,351.79c-1.74,0-2.81,1.15-2.81,3.04v11.55c0,2.35,1.03,3.35,3.21,3.35h8.32c1.44,0,2.42-.83,2.42-2.28s-.98-2.28-2.42-2.28h-5.9v-10.35c0-1.88-1.08-3.04-2.81-3.04Z"/><path class="j" d="M444.59,367.77c0,1.32,1.3,2.28,2.57,2.28,.88,0,1.98-.39,2.28-1.4l.39-1.3h5.92l.39,1.3c.29,1,1.39,1.4,2.28,1.4,1.27,0,2.57-.95,2.57-2.28,0-.81-.46-2.1-.88-3.28l-3.74-10.43c-.54-1.47-1.27-2.28-2.69-2.28h-1.76c-1.42,0-2.15,.81-2.69,2.28l-3.74,10.43c-.42,1.17-.88,2.47-.88,3.28Zm8.17-10.38h.05l1.91,6.44h-3.87l1.91-6.44Z"/><path class="h" d="M431.58,389.09h25.38c3.31,0,6-2.69,6-6s-2.69-6-6-6h-25.38c-3.31,0-6,2.69-6,6s2.69,6,6,6Z"/></g><g><g id="d"><g id="e"><path class="l" d="M313.21,574.05v10.96h2.81c2.99-.03,5.39-2.48,5.36-5.47h0c.09-2.95-2.22-5.4-5.16-5.49-.06,0-.13,0-.19,0h-2.81Zm2.81-3.44c5.23,0,9.18,3.95,9.18,8.93s-3.96,8.92-9.18,8.92h-6.17c-.25,0-.44-.2-.44-.44v-16.94c0-.25,.2-.44,.44-.44l6.17-.02Z"/><path class="l" d="M338.7,585.4c3.24,0,5.87-2.63,5.87-5.87s-2.63-5.87-5.87-5.87c-3.24,0-5.87,2.63-5.87,5.87,0,3.24,2.63,5.86,5.87,5.87m0-15.17c5.48,0,9.69,4.21,9.69,9.32s-4.21,9.32-9.69,9.32-9.69-4.21-9.69-9.32,4.21-9.32,9.69-9.32"/><path class="l" d="M361.75,585.4c3.24,0,5.87-2.62,5.87-5.86,0-3.24-2.62-5.87-5.86-5.87-3.24,0-5.87,2.62-5.87,5.86h0c0,3.24,2.63,5.86,5.86,5.87m0-15.17c5.49,0,9.69,4.21,9.69,9.32s-4.21,9.32-9.69,9.32-9.69-4.21-9.69-9.32,4.21-9.32,9.69-9.32"/><path class="l" d="M384.29,574.05h-3.96v4.72h3.96c1.28,.06,2.36-.93,2.42-2.21,0-.03,0-.06,0-.09,.04-1.3-.97-2.38-2.27-2.42-.05,0-.1,0-.15,0m-7.78-2.98c0-.25,.2-.44,.44-.44h7.44c3.55,0,6.13,2.6,6.13,5.87,.03,2.21-1.21,4.24-3.19,5.23l3.45,6.05c.14,.2,.08,.48-.12,.61-.08,.05-.18,.08-.27,.07h-3.02c-.17,0-.33-.09-.4-.24l-3.31-6.01h-3.32v5.77c0,.25-.2,.44-.44,.44h-2.9c-.25,0-.44-.2-.44-.44l-.04-16.91Z"/><path class="l" d="M400.5,574.13v10.97h2.81c2.99-.03,5.39-2.49,5.36-5.48h0c.09-2.94-2.22-5.4-5.16-5.49-.06,0-.13,0-.19,0h-2.81Zm2.81-3.44c5.23,0,9.18,3.95,9.18,8.92s-3.95,8.93-9.18,8.93h-6.17c-.25,0-.44-.2-.44-.44v-16.94c0-.25,.2-.44,.44-.44l6.17-.02Z"/><path class="l" d="M424.16,575.05l-2.17,5.87h4.34l-2.17-5.87Zm-3.44,9.18l-1.42,3.9c-.06,.19-.24,.32-.44,.31h-3.08c-.24,.02-.46-.15-.49-.4,0-.08,0-.16,.04-.24l6.66-16.92c.07-.19,.25-.31,.44-.3h3.45c.2-.01,.38,.11,.44,.3l6.66,16.92c.11,.22,.01,.49-.21,.59-.07,.04-.16,.05-.24,.04h-3.08c-.2,0-.38-.12-.44-.31l-1.42-3.9h-6.88Z"/><path class="l" d="M436.55,575.42c0-2.8,2.42-5.23,6.25-5.23,2.06-.04,4.05,.72,5.55,2.12,.18,.18,.18,.47,0,.65l-1.72,1.72c-.17,.18-.45,.19-.63,.03h0c-.81-.74-1.86-1.15-2.96-1.17-1.53,0-2.66,.89-2.66,1.91,0,3.32,9.05,1.41,9.05,7.78,0,3.19-2.42,5.61-6.76,5.61-2.41,.03-4.73-.91-6.45-2.6-.18-.17-.19-.45-.02-.63l.02-.02,1.65-1.65c.17-.18,.45-.18,.63-.02l.02,.02c1.05,1.01,2.44,1.58,3.9,1.59,1.92,0,3.18-1.02,3.18-2.3,0-3.31-9.04-1.4-9.04-7.78"/><path class="l" d="M465.84,571.05v6.68h-7.65v-6.66c.01-.24-.18-.45-.42-.47,0,0-.02,0-.02,0h-2.9c-.25,0-.44,.2-.44,.44,0,0,0,.02,0,.02v16.9c-.01,.24,.18,.45,.42,.47,0,0,.02,0,.02,0h2.9c.25,0,.44-.2,.44-.44,0,0,0-.02,0-.02v-6.78h7.65v6.78c-.01,.24,.18,.45,.42,.47,.02,0,.03,0,.05,0h2.9c.24,.01,.45-.18,.47-.42,0-.02,0-.03,0-.05v-16.92c.01-.24-.18-.45-.42-.47-.02,0-.03,0-.05,0h-2.9c-.24-.01-.45,.18-.47,.42,0,.02,0,.03,0,.05Z"/><path class="l" d="M294.3,572.93c-1.95-3.67-5.77-5.95-9.93-5.94h-31.45c-.6,0-1.08,.49-1.07,1.09,0,.28,.12,.55,.31,.75l6.85,6.89c.6,.61,1.42,.95,2.28,.95h22.17c1.58-.02,2.87,1.25,2.89,2.83,.02,1.58-1.25,2.87-2.83,2.89h-15.29c-.6,0-1.08,.49-1.07,1.09,0,.28,.12,.55,.31,.75l6.85,6.89c.61,.61,1.43,.95,2.29,.95h6.91c8.99,0,15.79-9.61,10.77-19.14"/></g></g><g><path class="j" d="M149.38,565.01c-2.14-.91-5.09-1.56-7.47-1.56s-5.35,1-5.35,4.64c0,5.79,14.87,3.35,14.87,14.54,0,7.32-5.88,10.09-12.74,10.09-3.7,0-5.35-.48-8.7-1.29v-6.03c2.33,1.24,5.64,2.06,8.31,2.06s6.03-1.29,6.03-4.31c0-6.36-14.88-3.73-14.88-14.78,0-7.46,5.88-10.19,11.86-10.19,2.92,0,5.64,.38,8.12,1.2l-.06,5.62Z"/><path class="j" d="M188.36,573.35c-1.93-.65-3.69-1.02-6-1.02-1.7,0-3.73,.6-3.73,2.65,0,3.81,11,1.39,11,10.03,0,5.57-5.05,7.8-10.2,7.8-2.41,0-4.86-.42-7.17-1.02l.38-5.11c1.98,.98,4.06,1.58,6.23,1.58,1.61,0,4.15-.6,4.15-2.93,0-4.69-11-1.49-11-10.12,0-5.16,4.58-7.43,9.54-7.43,2.97,0,4.91,.46,6.89,.88l-.09,4.69Z"/><path class="j" d="M208.39,573.49c-1.13-.51-2.36-.88-4.29-.88-3.92,0-6.42,3.07-6.42,7.57s2.12,7.8,6.56,7.8c1.79,0,3.78-.65,4.86-1.11l.28,5.16c-1.84,.56-3.73,.79-6.32,.79-7.98,0-11.99-5.34-11.99-12.63s4.15-12.4,11.75-12.4c2.55,0,4.39,.28,6.14,.79l-.57,4.92Z"/><path class="j" d="M222.79,567.78c7.22,0,12.74,4.78,12.74,12.68,0,6.87-4.67,12.35-12.74,12.35s-12.7-5.48-12.7-12.35c0-7.9,5.52-12.68,12.7-12.68Zm0,20.2c4.86,0,6.13-4.27,6.13-8.27,0-3.67-1.98-7.11-6.13-7.11s-6.09,3.53-6.09,7.11c0,3.95,1.27,8.27,6.09,8.27Z"/><polygon class="j" points="172.73 568.01 166.31 568.01 154.24 600.87 160.04 600.87 172.73 568.01"/><path class="m" d="M146.49,567.42c2.68,2.71,5.35,6.02,7.29,9.9,1.73,3.47,2.61,6.85,3.24,10.26,.02,.12,.11,.11,.15,.02,2.31-4.03,3.72-9.51,1.65-13.64-2.16-4.33-7.36-6.33-12.24-6.73-.17,0-.2,.08-.09,.19Z"/></g><g><path class="k" d="M85.93,582.77c-1.39,4.88,2.52,4.8,4.99,1.37,1.72-2.34,3.21-5.82,2.83-7.74-.09-.44-.25-.81-.48-1.15-5.34,.48-7.12,6.74-7.33,7.51Z"/><path class="k" d="M107.58,579.53c0-16.39-23.9-29.72-53.27-29.72s-53.27,13.33-53.27,29.72,23.9,29.72,53.27,29.72,53.27-13.33,53.27-29.72Zm-45.64-8.32c8.79,1.76,13.6,.67,17.67,.49l1.51-3.16c1.24-.46,2.59-.47,3.8,.01l-1.41,3.11c6.14,.14,9.65,1.29,11.66,2.66,3.41,.17,6.35,1.02,7.08,1.73-.42,.91-1.2,1.65-2.12,2.03-.34-.55-1.65-1.61-3.38-2.28,1.35,1.8,.92,3.52,.91,3.67-.5,4.06-5.05,8.17-10.26,8.17-3.1,0-5.07-1.45-5.49-3.63-.04-.25-.11-.93-.04-1.56,.17-1.61,.89-3.23,2.06-4.56,1.99-2.31,5.19-3.3,8.38-3.54-2.21-1.34-6.41-.87-9.76-.54l-3.36,7.46c-.4,.84-1.25,2.65-1.36,3.49-.05,.45,.02,.95,.72,.95,.45,0,.91-.23,1.37-.55,.22-.16,.6-.5,.85-.73,.09,.32,.22,.6,.38,.87v.04c-1.23,1.15-2.86,2.29-4.79,2.29-1.68,0-2.89-.99-2.73-2.35,.03-.43,.19-1.2,.69-2.28,.32-.81,.7-1.62,.98-2.25l3.2-6.72c-4.41,0-11.89-.43-16.79-2.46l.23-.38Zm-1.43,4.77c-.16,0-.53,.1-.96,.26-.07-.27-.18-.52-.32-.75,1.23-.76,2.67-1.31,3.89-1.31,1.41,0,2.44,.75,2.3,1.94-.12,.99-.91,2.5-1.44,3.5,0,0-2.47,4.58-2.56,5.24-.06,.55,.35,.79,.99,.79,3.05,0,6.39-6.51,7.41-8.47l1.09-1.95s1.33,.13,1.88,.16c.75,.05,2.02,.13,2.02,.13l-2.26,4.38c-.56,1.21-1.64,3.62-1.78,4.81-.04,.36-.03,.94,.56,.94,.35-.01,.74-.23,1.09-.47,0,.04,0,.08-.01,.12-.04,.32,0,.63,.11,.91v.02c-1.08,.81-2.37,1.38-3.74,1.38-1.53,0-2.29-1.05-2.15-2.2,.1-.78,.27-1.3,.54-1.99l-.07-.06c-1.69,2.31-4.06,4.25-7.04,4.26-1.71,.01-2.94-.9-2.77-2.38,.13-1.06,.95-2.6,1.49-3.63,0,0,2.24-4.48,2.29-4.97,.05-.34-.1-.64-.55-.64Zm-36.83,5.97c-.87,3.67-4.55,5.83-8.88,5.83-2.39,0-4.75-.72-6.08-2.21-2.55-2.95,.37-4.48,1.8-4.46-.75,2.83,.39,5.33,3.99,5.33,2.02,0,3.78-1.17,4.19-2.87,.45-1.89-.61-3.01-1.85-4.28l-1.17-1.22c-1.53-1.57-2.71-2.98-2.14-5.32,.8-3.36,4.35-5.46,8.35-5.46,2.12,0,3.78,.6,5.09,1.74,2.66,2.68-.63,4.39-1.36,4.23-.18-.03-.25-.08-.25-.08,.7-2.17-.05-4.57-3.06-4.57-1.69,0-3.77,.9-4.14,2.44-.42,1.74,.84,2.94,1.97,4.09l1.07,1.05c1.7,1.65,3.09,3.21,2.48,5.77Zm10.66,3.63c.05-.44,.24-1.1,.24-1.1l-.07-.06c-1.33,1.69-3.44,3.17-5.98,3.17-3.13,0-4.37-2.02-4.08-4.38,.48-3.9,4.87-9.04,10.24-9.04,1.75,0,2.94,.69,3.45,1.97l.94-1.65c1.26-.46,2.66-.47,3.88,0l-3.84,8.15c-.25,.51-.81,1.75-.87,2.23-.05,.37,.05,1.06,.57,1.06,.21,0,.43-.06,.66-.18h0l-.55,1.22c-.79,.37-1.63,.61-2.48,.61-1.41,0-2.28-.91-2.13-2.02Zm10.52,.06h-.07l-4.2,9.29c-1.24-.41-2.29-1.3-2.86-2.46l8.82-19.69c1.18,.39,2.17,1.2,2.72,2.29l-.45,1.05,.07,.06c1.27-1.21,3-1.99,4.94-1.99,2.69,0,3.95,1.37,4.11,3.23,.05,.63-.02,1.1-.02,1.12-.47,3.84-4.24,9.07-9.65,9.07-1.71,0-2.89-.72-3.41-1.97Z"/><path class="k" d="M51.91,575.85c-3.32,0-5.84,6.29-6.07,8.13-.11,.94,.28,1.97,1.62,1.97,3.36,0,6-6.05,6.27-8.22,.12-1-.45-1.88-1.82-1.88Z"/><path class="k" d="M35.31,575.85c-3.28,0-6.2,5.83-6.46,7.98-.11,.88,.28,1.97,1.54,1.97,3.39,0,6.41-6.05,6.68-8.22,.12-.97-.46-1.73-1.76-1.73Z"/><path class="j" d="M92.3,558.09c-10.15-5.69-23.65-8.82-37.99-8.82s-27.84,3.13-37.99,8.82c-10.2,5.71-15.82,13.33-15.82,21.44s5.62,15.73,15.82,21.44c10.15,5.69,23.65,8.82,37.99,8.82s27.84-3.13,37.99-8.82c10.2-5.71,15.82-13.33,15.82-21.44s-5.62-15.73-15.82-21.44ZM1.03,579.53c0-16.39,23.9-29.72,53.27-29.72s53.27,13.33,53.27,29.72-23.9,29.72-53.27,29.72-53.27-13.33-53.27-29.72Z"/><path class="j" d="M21.2,576.18l-1.07-1.05c-1.13-1.14-2.38-2.34-1.97-4.09,.37-1.54,2.45-2.44,4.14-2.44,3.01,0,3.76,2.4,3.06,4.57,0,0,.07,.05,.25,.08,.73,.16,4.02-1.55,1.36-4.23-1.31-1.14-2.97-1.74-5.09-1.74-4,0-7.56,2.1-8.35,5.46-.56,2.34,.61,3.76,2.14,5.32l1.17,1.22c1.24,1.26,2.3,2.38,1.85,4.28-.41,1.71-2.17,2.87-4.19,2.87-3.6,0-4.73-2.51-3.99-5.33-1.43-.03-4.35,1.5-1.8,4.46,1.32,1.49,3.69,2.21,6.08,2.21,4.33,0,8.01-2.16,8.88-5.83,.61-2.56-.78-4.11-2.48-5.77Z"/><path class="j" d="M57.91,578.54s.08-.49,.02-1.12c-.16-1.86-1.42-3.23-4.11-3.23-1.94,0-3.67,.78-4.94,1.99l-.07-.06,.45-1.05c-.55-1.09-1.54-1.9-2.72-2.29l-8.82,19.69c.57,1.16,1.63,2.05,2.86,2.46l4.2-9.29h.07c.52,1.24,1.7,1.97,3.41,1.97,5.41,0,9.18-5.23,9.65-9.07Zm-4.18-.81c-.27,2.17-2.91,8.22-6.27,8.22-1.34,0-1.73-1.03-1.62-1.97,.23-1.84,2.75-8.13,6.07-8.13,1.37,0,1.94,.88,1.82,1.88Z"/><path class="j" d="M39.49,585.79h0c-.23,.1-.46,.16-.66,.16-.52,0-.62-.7-.57-1.06,.06-.48,.62-1.72,.87-2.23l3.84-8.15c-1.22-.48-2.62-.47-3.88,0l-.94,1.65c-.52-1.28-1.7-1.97-3.45-1.97-5.37,0-9.76,5.14-10.24,9.04-.29,2.36,.95,4.38,4.08,4.38,2.54,0,4.65-1.48,5.98-3.17l.07,.06s-.19,.65-.24,1.1c-.14,1.11,.72,2.02,2.13,2.02,.85,0,1.69-.23,2.48-.61l.55-1.21Zm-2.42-8.22c-.27,2.17-3.29,8.22-6.68,8.22-1.27,0-1.66-1.09-1.54-1.97,.26-2.14,3.18-7.98,6.46-7.98,1.3,0,1.88,.76,1.76,1.73Z"/><path class="j" d="M58.76,581.59c-.54,1.03-1.36,2.57-1.49,3.63-.18,1.48,1.05,2.39,2.77,2.38,2.98,0,5.35-1.94,7.04-4.26l.07,.06c-.27,.69-.44,1.21-.54,1.99-.14,1.15,.63,2.2,2.15,2.2,1.38,0,2.66-.57,3.74-1.38v-.02c-.11-.28-.15-.59-.11-.91,0-.04,0-.08,.01-.12-.35,.24-.75,.45-1.09,.47-.59,0-.6-.58-.56-.94,.15-1.19,1.23-3.6,1.78-4.81l2.26-4.38s-1.26-.09-2.02-.13c-.55-.03-1.88-.16-1.88-.16l-1.09,1.95c-1.02,1.96-4.36,8.47-7.41,8.47-.64,0-1.05-.25-.99-.79,.08-.67,2.56-5.24,2.56-5.24,.53-.99,1.32-2.5,1.44-3.5,.15-1.19-.88-1.94-2.3-1.94-1.23,0-2.66,.55-3.89,1.31,.14,.23,.24,.49,.32,.75,.43-.16,.81-.26,.96-.26,.45,0,.6,.3,.55,.64-.06,.48-2.29,4.97-2.29,4.97Z"/><path class="j" d="M75.29,580.77c-.28,.63-.66,1.44-.98,2.25-.5,1.08-.67,1.85-.69,2.28-.16,1.35,1.05,2.35,2.73,2.35,1.93,0,3.56-1.13,4.81-2.29v-.04c-.17-.27-.3-.56-.39-.87-.25,.24-.63,.57-.85,.73-.46,.33-.93,.55-1.37,.55-.7,0-.78-.5-.72-.95,.11-.84,.96-2.66,1.36-3.49l3.36-7.46c3.36-.34,7.55-.8,9.76,.54-3.19,.25-6.39,1.23-8.38,3.54-1.16,1.34-1.88,2.96-2.06,4.56-.07,.63,0,1.31,.04,1.56,.42,2.18,2.4,3.63,5.49,3.63,5.21,0,9.76-4.11,10.26-8.17,.02-.15,.44-1.88-.91-3.67,1.73,.67,3.04,1.73,3.38,2.28,.92-.38,1.71-1.12,2.12-2.03-.73-.71-3.67-1.57-7.08-1.73-2-1.37-5.51-2.51-11.66-2.66l1.41-3.11c-1.2-.48-2.56-.48-3.8-.01l-1.51,3.16c-4.07,.18-8.89,1.27-17.67-.49l-.23,.38c4.9,2.02,12.38,2.46,16.79,2.46l-3.2,6.72Zm18.45-4.37c.38,1.92-1.1,5.4-2.83,7.74-2.46,3.43-6.38,3.51-4.99-1.37,.21-.77,2-7.03,7.33-7.51,.22,.34,.39,.71,.48,1.15Z"/></g></g></g></g></g></svg>