<?xml version="1.0" encoding="UTF-8"?><svg xmlns="http://www.w3.org/2000/svg" viewBox="0 0 472.17 633.59"><defs><style>.f{fill:none;}.g{fill:#f4b88c;}.h{fill:#f59745;}.i{fill:#eb422e;}.j{fill:#fff;}.k{fill:#ff141e;}.l{fill:#ff3008;}.m{fill:#5f9e43;}.n{fill:#4a9343;}</style></defs><g id="a"/><g id="b"><g id="c"><g><g><path class="f" d="M155.71,358.09c0-5.32-3.66-8.43-9.87-8.43h-12.86v16.52h14.08c4.21,0,8.65-2.66,8.65-8.1Z"/><path class="f" d="M146.25,133.98c18.08-1.09,39.35-12.64,43.16-31.9,2.46-12.49-2.75-27-13.94-38.83-9.67-10.22-22.52-17.66-34.58-24.12-24.95,22.14-44.12,46.77-58.08,74.69,19.23,9.46,45.04,21.27,63.44,20.16Zm-.83-16.26c-8.13,2.38-16.15-.59-17.93-6.64-1.78-6.05,3.37-12.89,11.5-15.27,8.13-2.38,16.15,.59,17.93,6.64s-3.37,12.89-11.5,15.27Zm-4.27-64.33c9.3,4.22,24.45,11.71,32.9,31.37,4.01,9.34-.42,19.61-9.12,26.89,2.27-4.53,2.94-9.57,1.52-14.42-3.41-11.62-17.49-17.71-31.46-13.61-13.97,4.1-22.52,16.84-19.11,28.45,.82,2.78,2.25,5.24,4.14,7.33-9.42-2.11-17.97-5.82-23.18-10.7,17.72-24.41,31.22-42.2,44.33-55.3Z"/><polygon class="f" points="206.33 296.99 206.28 296.99 204.28 303.73 208.33 303.73 206.33 296.99"/><path class="f" d="M307.03,300.68c0-2.92-.85-4.61-4.26-4.61h-1.31v9.23h1.31c3.41,0,4.26-1.69,4.26-4.61Z"/><path class="f" d="M407.86,232.95c-.16,1.15-.36,2.18-.57,3.05-1.78,7.36-5.85,13.9-11.83,19.36h36.94c-5.97-5.36-11.9-10.81-17.74-16.17-2.29-2.1-4.56-4.19-6.8-6.24Z"/><path class="f" d="M56.8,366.41c0,2.09,2.03,3.45,4.26,3.45,3.92,0,6.62-2.43,6.62-5.07v-3.99c-1.96,2.09-6.49,1.69-8.99,2.7-1.15,.47-1.89,1.42-1.89,2.91Z"/><polygon class="f" points="426.32 354.32 417.67 383.49 435.19 383.49 426.54 354.32 426.32 354.32"/><path class="i" d="M56.16,132.29c-13.36,36.04-20.39,78.15-22.13,132.54-.15,4.73,3.56,8.69,8.29,8.84,.09,0,.19,0,.28,0,4.6,0,8.41-3.66,8.56-8.29,1.68-52.49,8.38-92.89,21.07-127.14,1.11-2.98,2.26-5.93,3.47-8.84,20.86,10.25,49.08,23.02,71.59,21.67,13.22-.8,26.34-5.43,36.95-13.05,11.85-8.51,19.45-19.8,21.99-32.64,3.54-17.92-3.31-38.08-18.31-53.92-13.01-13.75-30.31-22.89-44.2-30.25-3.1-1.64-6.9-1.22-9.57,1.06-36.61,31.24-62.12,67.22-77.98,110.02ZM140.88,39.12c12.06,6.46,24.91,13.91,34.58,24.12,11.19,11.82,16.41,26.34,13.94,38.83-3.8,19.26-25.07,30.81-43.16,31.9-18.41,1.11-44.21-10.7-63.44-20.16,13.96-27.92,33.12-52.55,58.08-74.69Z"/><path class="h" d="M92.16,155.47c-4.61-1.1-9.22,1.74-10.32,6.34-8.93,37.43-13.32,57.45-15.34,102.92-.21,4.73,3.45,8.73,8.18,8.94,.13,0,.26,0,.39,0,4.56,0,8.35-3.59,8.55-8.19,1.96-44.01,5.98-62.37,14.89-99.71,1.1-4.6-1.74-9.22-6.34-10.32Z"/><path class="n" d="M222.67,102.3c12.62,7.38,20.84,13.09,29.54,19.15,5.57,3.87,11.26,7.83,18.16,12.23-61.64,35.81-117.3,76.44-169.78,123.9-2.63,2.38-3.52,6.13-2.25,9.43,1.27,3.31,4.45,5.49,7.99,5.49h212.98c4.73,0,8.57-3.84,8.57-8.57s-3.83-8.57-8.57-8.57H128.96c50.18-43.39,103.52-80.8,162.45-113.98,2.67-1.5,4.34-4.33,4.36-7.39s-1.59-5.92-4.24-7.47c-12.62-7.38-20.84-13.09-29.54-19.15-8.59-5.97-17.48-12.15-30.67-19.87-4.08-2.39-9.33-1.02-11.72,3.07-2.39,4.08-1.01,9.33,3.07,11.72Z"/><path class="h" d="M238.76,239.58c9.79,.1,19.71,.14,29.67,.14,17.13,0,34.36-.12,51.23-.23,16.14-.11,31.38-.22,45.94-.22,4.73,0,8.57-3.84,8.57-8.57s-3.83-8.57-8.57-8.57c-14.62,0-29.89,.11-46.06,.22-12.42,.09-25.03,.17-37.65,.21,14.62-5.63,29.83-11.21,44.08-16.44,13.91-5.1,27.04-9.93,37.13-13.89,2.88-1.13,4.93-3.74,5.35-6.81,.42-3.07-.85-6.13-3.32-8-7.39-5.59-14.24-11.01-20.86-16.25-8.86-7.02-18.03-14.28-28.27-21.74-3.82-2.78-9.18-1.95-11.97,1.88-2.79,3.82-1.94,9.18,1.88,11.97,9.96,7.26,18.59,14.09,27.72,21.32,2.94,2.33,5.93,4.7,9,7.1-6.97,2.61-14.64,5.42-22.57,8.33-28.37,10.41-60.53,22.22-84.75,33.17-3.66,1.66-5.68,5.63-4.86,9.57,.83,3.93,4.27,6.76,8.29,6.81Z"/><path class="i" d="M460.73,257.38c-11.43-9.64-23.15-20.4-34.48-30.81-12.75-11.71-24.92-22.88-35.2-31.05-1.94-1.65-4.1-3.29-6.47-4.92-.03-.02-.06-.05-.09-.07-.01-.01-.03-.02-.04-.03-.05-.03-.09-.07-.14-.1-.08-.05-.15-.09-.23-.14-.15-.09-.29-.19-.44-.27-.1-.06-.2-.1-.3-.15-.16-.08-.31-.16-.47-.22-.1-.04-.21-.08-.32-.12-.16-.06-.32-.12-.48-.17-.11-.03-.22-.06-.33-.09-.16-.04-.31-.09-.47-.12-.12-.02-.23-.04-.35-.06-.16-.03-.31-.05-.47-.07-.12-.01-.24-.02-.36-.03-.15-.01-.31-.02-.46-.02-.12,0-.24,0-.37,0-.15,0-.3,0-.46,.02-.12,.01-.24,.03-.37,.04-.15,.02-.3,.04-.45,.06-.12,.02-.24,.05-.36,.08-.15,.03-.29,.07-.44,.11-.12,.03-.24,.07-.35,.11-.14,.05-.29,.09-.43,.15-.12,.05-.23,.1-.35,.15-.14,.06-.27,.12-.41,.19-.12,.06-.23,.12-.34,.19-.13,.07-.26,.14-.38,.22-.11,.07-.22,.15-.33,.23-.12,.08-.23,.16-.35,.25-.11,.09-.22,.18-.33,.27-.11,.09-.21,.18-.31,.28-.11,.1-.21,.21-.31,.32-.09,.1-.19,.2-.28,.3-.1,.12-.19,.24-.29,.36-.06,.08-.13,.16-.19,.24-.02,.03-.04,.06-.06,.09-.02,.03-.05,.06-.07,.09-.06,.1-.12,.19-.18,.29-.07,.12-.15,.24-.22,.36-.07,.13-.14,.26-.2,.4-.06,.12-.12,.25-.18,.37-.06,.14-.11,.28-.16,.42-.05,.12-.09,.24-.13,.37-.05,.15-.08,.3-.12,.45-.03,.12-.06,.24-.09,.36-.03,.15-.06,.31-.08,.46-.02,.12-.04,.24-.05,.35-.02,.16-.03,.32-.04,.47,0,.12-.02,.23-.02,.35,0,.16,0,.32,0,.48,0,.11,0,.23,.02,.34,.01,.16,.03,.32,.06,.47,.02,.11,.03,.23,.05,.34,.03,.16,.06,.31,.1,.46,.03,.11,.05,.23,.08,.34,.04,.15,.09,.3,.14,.45,.04,.11,.07,.22,.12,.33,.06,.15,.12,.29,.18,.43,.05,.11,.09,.22,.15,.32,.07,.14,.15,.28,.23,.41,.06,.1,.12,.21,.18,.31,.08,.13,.18,.27,.27,.4,.07,.1,.14,.2,.21,.29,.1,.13,.21,.25,.31,.37,.08,.09,.16,.18,.24,.27,.11,.12,.23,.23,.35,.34,.09,.08,.18,.17,.27,.25,.12,.11,.25,.2,.38,.3,.08,.06,.15,.13,.23,.18,1.62,1.16,3.33,2.46,5.12,3.87,8.89,7.5,12.88,15.92,11.01,23.65-2.82,11.65-18.36,20.85-39.6,23.45-.09,.01-.18,.03-.27,.05-.17,.03-.35,.05-.52,.09-.11,.02-.22,.06-.33,.09-.16,.04-.32,.08-.48,.14-.12,.04-.24,.09-.36,.13-.14,.05-.28,.1-.42,.16-.13,.06-.26,.12-.38,.18-.12,.06-.24,.12-.36,.18-.13,.07-.26,.15-.39,.23-.11,.07-.21,.13-.31,.2-.13,.09-.25,.18-.37,.27-.1,.08-.2,.15-.29,.23-.11,.1-.22,.2-.33,.3-.09,.09-.19,.17-.28,.27-.1,.1-.19,.21-.28,.31-.09,.1-.18,.2-.27,.31-.08,.1-.16,.21-.24,.32-.09,.12-.17,.23-.25,.35-.07,.11-.13,.22-.2,.32-.08,.13-.15,.25-.22,.39-.06,.11-.11,.23-.17,.35-.06,.13-.12,.26-.18,.4-.05,.13-.1,.26-.14,.39-.05,.13-.09,.26-.13,.39-.04,.15-.08,.3-.12,.45-.03,.12-.06,.23-.08,.35-.03,.17-.06,.35-.08,.52-.01,.11-.03,.21-.04,.32-.02,.18-.02,.37-.03,.56,0,.08-.01,.17-.01,.25,0,.02,0,.04,0,.06,0,.16,.01,.33,.02,.49,0,.13,.01,.27,.03,.4,0,.03,0,.05,0,.08,.02,.13,.04,.26,.07,.38,.02,.12,.04,.24,.06,.36,.03,.16,.08,.32,.12,.48,.03,.1,.05,.21,.08,.31,.08,.25,.17,.5,.27,.75h0c.11,.27,.23,.51,.36,.75,.01,.02,.03,.04,.04,.07,.12,.21,.24,.42,.38,.62,.04,.06,.08,.11,.12,.16,.11,.16,.23,.32,.35,.47,.06,.07,.12,.14,.18,.2,.11,.13,.23,.26,.35,.38,.07,.08,.15,.15,.23,.22,.11,.11,.23,.21,.34,.31,.09,.08,.18,.15,.28,.22,.11,.09,.23,.17,.34,.26,.1,.07,.21,.14,.32,.21,.11,.07,.23,.14,.35,.21,.11,.07,.23,.13,.34,.19,.12,.06,.24,.12,.37,.18,.12,.05,.24,.11,.36,.16,.13,.05,.27,.1,.4,.15,.12,.04,.23,.08,.35,.12,.16,.05,.32,.08,.48,.12,.1,.02,.2,.05,.3,.07,.2,.04,.41,.07,.61,.09,.07,0,.13,.02,.2,.03,.28,.03,.56,.04,.84,.04h103.15c3.6,0,6.81-2.25,8.05-5.63,1.24-3.38,.23-7.17-2.52-9.49Zm-65.28-2.02c5.98-5.47,10.05-12,11.83-19.36,.21-.87,.41-1.89,.57-3.05,2.24,2.05,4.51,4.13,6.8,6.24,5.83,5.36,11.77,10.81,17.74,16.17h-36.94Z"/><path class="g" d="M120,119.39c-1.89-2.08-3.33-4.54-4.14-7.33-3.41-11.62,5.15-24.36,19.11-28.45,13.97-4.1,28.05,2,31.46,13.61,1.42,4.85,.75,9.89-1.52,14.42,8.71-7.28,13.14-17.55,9.12-26.89-8.45-19.66-23.6-27.15-32.9-31.37-13.11,13.11-26.6,30.89-44.33,55.3,5.21,4.89,13.76,8.59,23.18,10.7Z"/><path class="i" d="M138.99,95.81c-8.13,2.38-13.27,9.22-11.5,15.27,1.78,6.05,9.8,9.02,17.93,6.64,8.13-2.38,13.27-9.22,11.5-15.27s-9.8-9.02-17.93-6.64Z"/><path class="i" d="M193.71,220.34c-10.91,3.2-18.4,10.44-16.72,16.16s11.89,7.77,22.8,4.56c10.91-3.2,18.4-10.44,16.72-16.16-1.68-5.72-11.89-7.77-22.8-4.56Z"/><path class="g" d="M164.32,161.32c-23.67,6.08-50.16,2.47-50.16,2.47l-14.38,72.05s68.76-57.86,145.18-109.23c-9.09-5.26-27.63-16.95-27.63-16.95,0,0-4.51,39.2-53.02,51.67Z"/><path class="h" d="M9.19,274.76c.08,0,.16,0,.24,0,4.65,0,8.49-3.71,8.61-8.39C22.09,116.52,77.58,51.21,118.96,15.12c3.59-3.13,3.96-8.58,.83-12.17-3.13-3.59-8.58-3.96-12.17-.83C37.97,62.87,4.02,146.69,.8,265.91c-.13,4.76,3.63,8.72,8.39,8.85Z"/><path class="g" d="M285.26,156.41s-57.18,40.7-72.43,55.69l97.15-39.97-24.72-15.72Z"/><path class="h" d="M9.42,309.3H110.51v-17.24H9.42c-4.76,0-8.62,3.86-8.62,8.62s3.86,8.62,8.62,8.62Z"/><path class="h" d="M463.83,300.68c0-4.76-3.86-8.62-8.62-8.62h-101.09v17.24h101.09c4.76,0,8.62-3.86,8.62-8.62Z"/><path class="j" d="M108.13,345.56v52.79c0,8.54,4.44,13.31,12.42,13.31s12.42-4.77,12.42-13.31v-12.86h12.75c19.52,0,34.82-5.99,34.82-27.5s-15.3-27.61-34.82-27.61h-23.07c-9.87,0-14.53,4.55-14.53,15.19Zm24.84,4.1h12.86c6.21,0,9.87,3.1,9.87,8.43s-4.44,8.1-8.65,8.1h-14.08v-16.52Z"/><path class="j" d="M194.08,342.68v55.23c0,8.54,4.88,13.75,12.75,13.75s12.75-5.21,12.75-13.75v-55.23c0-8.54-4.88-13.75-12.75-13.75s-12.75,5.21-12.75,13.75Z"/><path class="j" d="M294.34,410.22c7.65,0,11.64-3.44,11.64-9.98s-3.99-9.98-11.64-9.98h-28.83l34.16-37.93c3.88-4.33,5.1-7.1,5.1-10.76,0-6.21-3.55-11.2-11.64-11.2h-48.13c-8.32,0-12.2,3.99-12.2,9.98s3.88,9.98,12.2,9.98h24.84l-31.94,35.49c-5.54,6.1-7.1,8.98-7.1,13.2,0,6.21,3.88,11.2,12.53,11.2h51.01Z"/><path class="j" d="M386.06,400.24c0-6.54-3.99-9.98-11.64-9.98h-28.83l34.16-37.93c3.88-4.33,5.1-7.1,5.1-10.76,0-6.21-3.55-11.2-11.64-11.2h-48.13c-8.32,0-12.2,3.99-12.2,9.98s3.88,9.98,12.2,9.98h24.84l-31.94,35.49c-5.54,6.1-7.1,8.98-7.1,13.2,0,6.21,3.88,11.2,12.53,11.2h51.01c7.65,0,11.64-3.44,11.64-9.98Z"/><path class="j" d="M442.62,339.24c-2.44-6.65-5.77-10.31-12.2-10.31h-7.98c-6.43,0-9.76,3.66-12.2,10.31l-16.97,47.24c-1.88,5.32-3.99,11.2-3.99,14.86,0,5.99,5.88,10.31,11.64,10.31,3.99,0,8.98-1.77,10.31-6.32l1.77-5.88h26.84l1.77,5.88c1.33,4.55,6.32,6.32,10.31,6.32,5.77,0,11.65-4.33,11.65-10.31,0-3.66-2.11-9.54-3.99-14.86l-16.97-47.24Zm-24.95,44.25l8.65-29.17h.22l8.65,29.17h-17.52Z"/><path class="j" d="M117.21,526.45l14.94-60.65c2.07-8.43,3.7-15.09,3.7-19.68,0-8.58-6.36-14.79-15.39-14.79-7.84,0-14.5,3.25-16.12,13.61l-9.32,57.99h-.3l-9.32-55.18c-1.92-11.69-5.47-16.42-17.16-16.42s-15.24,4.73-17.16,16.42l-9.32,55.18h-.3l-9.32-57.99c-1.63-10.36-8.28-13.61-16.12-13.61-9.02,0-15.38,6.21-15.38,14.79,0,4.59,1.63,11.24,3.7,19.68l14.94,60.65c2.37,9.62,7.84,15.24,17.75,15.24h5.18c9.91,0,14.65-5.33,16.57-15.68l9.32-49.41h.3l9.32,49.41c1.92,10.36,6.66,15.68,16.57,15.68h5.18c9.91,0,15.39-5.62,17.75-15.24Z"/><path class="j" d="M170.91,539.76h55.77c10.21,0,14.79-5.03,14.79-12.43s-4.59-12.43-14.79-12.43h-41.13v-17.01h31.66c10.21,0,14.79-5.03,14.79-12.43s-4.59-12.43-14.79-12.43h-31.66v-14.94h39.5c10.21,0,14.79-5.03,14.79-12.43s-4.59-12.43-14.79-12.43h-54.14c-13.17,0-19.38,6.06-19.38,20.27v65.98c0,14.2,6.21,20.27,19.38,20.27Z"/><path class="j" d="M277.72,539.76h55.77c10.21,0,14.79-5.03,14.79-12.43s-4.59-12.43-14.79-12.43h-41.13v-17.01h31.66c10.21,0,14.79-5.03,14.79-12.43s-4.59-12.43-14.79-12.43h-31.66v-14.94h39.5c10.21,0,14.79-5.03,14.79-12.43s-4.59-12.43-14.79-12.43h-54.14c-13.17,0-19.38,6.06-19.38,20.27v65.98c0,14.2,6.21,20.27,19.38,20.27Z"/><path class="j" d="M434.09,475.56l15.98-17.6c4.44-4.59,6.51-7.4,6.51-12.28,0-6.36-5.92-14.35-15.09-14.35-5.62,0-8.88,2.81-15.53,10.06l-26.78,29.29v-21.01c0-11.39-6.51-18.34-17.01-18.34s-17.01,6.95-17.01,18.34v73.67c0,11.39,6.51,18.34,17.01,18.34s17.01-6.95,17.01-18.34v-14.65l9.62-10.5,23.23,35.95c3.85,6.07,8.73,7.54,14.05,7.54,8.88,0,17.31-6.81,17.31-15.68,0-3.7-1.48-6.95-3.4-10.06l-25.89-40.39Z"/><path class="j" d="M8.96,376.68H31.93c3.99,0,6.69-2.3,6.69-6.28s-2.7-6.28-6.69-6.28H15.65v-28.58c0-5.2-2.97-8.38-7.77-8.38S.11,330.33,.11,335.53v31.89c0,6.49,2.84,9.26,8.85,9.26Z"/><path class="j" d="M60.38,355.46c-13.85,.88-17.9,5.27-17.9,11.15,0,7.77,5.47,10.95,13.17,10.95,4.8,0,9.73-1.55,12.43-5.61,.47,3.18,2.23,5.61,7.03,5.61,3.31,0,6.49-1.49,6.49-4.93,0-1.69-.41-3.85-.41-6.28v-15.47c0-8.72-11.35-10.41-18.72-10.41-9.66,0-16.96,3.38-16.96,8.58,0,2.77,1.62,4.32,4.39,4.32,4.73,0,6.15-4.8,12.16-4.8,3.72,0,5.61,1.22,5.61,3.45,0,2.36-2.09,3.11-7.3,3.45Zm7.3,9.32c0,2.64-2.7,5.07-6.62,5.07-2.23,0-4.26-1.35-4.26-3.45,0-1.49,.74-2.43,1.89-2.91,2.5-1.01,7.03-.61,8.99-2.7v3.99Z"/><path class="h" d="M8.62,411.74H75.85c4.76,0,8.62-3.86,8.62-8.62s-3.86-8.62-8.62-8.62H8.62c-4.76,0-8.62,3.86-8.62,8.62s3.86,8.62,8.62,8.62Z"/><path class="h" d="M132.86,295.02c2.92,0,2.95,2.26,4.92,2.26,1.46,0,2.56-.9,2.56-2.33,0-3.1-4.41-3.92-7.82-3.92-5.13,0-7.18,2.9-7.18,5.97,0,2.59,1.62,4.33,4.56,5.18l3.92,1.13c1.08,.31,1.61,.62,1.61,1.36,0,1.13-1.08,1.54-2.28,1.54-2.9,0-3.15-2.69-5.25-2.69-1.44,0-2.49,.97-2.49,2.41,0,1.67,1.9,4.43,8.1,4.43,3.9,0,7.66-1.9,7.66-6.28,0-3.2-2.13-4.64-5.23-5.49l-3.05-.82c-1.26-.33-1.97-.69-1.97-1.51s.92-1.23,1.92-1.23Z"/><path class="h" d="M161.47,295.76c1.77,0,2.56-.87,2.56-2.15s-.79-2.15-2.56-2.15h-9.38c-2.28,0-3.36,1.05-3.36,3.51v11.43c0,2.46,1.08,3.51,3.36,3.51h9.67c1.77,0,2.56-.87,2.56-2.15s-.79-2.15-2.56-2.15h-7.13v-2.95h5.49c1.77,0,2.56-.87,2.56-2.15s-.79-2.15-2.56-2.15h-5.49v-2.59h6.84Z"/><path class="h" d="M189.03,310.24c1.59,0,2.64-.87,2.64-2.64v-13.28c0-1.9-1.05-3.2-3.08-3.2h-1.67c-1.87,0-2.64,.64-3.13,2.46l-2.44,9.15h-.05l-2.44-9.15c-.49-1.82-1.26-2.46-3.13-2.46h-1.67c-2.02,0-3.08,1.31-3.08,3.2v13.28c0,1.77,1.05,2.64,2.64,2.64s2.64-.87,2.64-2.64v-8.97h.05l2.67,9.97c.33,1.26,.92,1.64,2.33,1.64s2-.38,2.33-1.64l2.67-9.97h.05v8.97c0,1.77,1.05,2.64,2.64,2.64Z"/><path class="h" d="M227.09,307.06v-12.77c0-1.97-1.13-3.18-2.95-3.18s-2.95,1.2-2.95,3.18v12.77c0,1.97,1.13,3.18,2.95,3.18s2.95-1.2,2.95-3.18Z"/><path class="h" d="M240.86,307.27v-7.28h.05l4.9,8.05c1.13,1.87,1.97,2.31,3.54,2.31,1.87,0,3.33-.79,3.33-2.82v-13.56c0-1.72-1.08-2.95-2.87-2.95s-2.87,1.23-2.87,2.95v7.72h-.05l-5.18-8.87c-.74-1.26-1.79-1.79-3.21-1.79-2.23,0-3.38,1.15-3.38,3.15v13.1c0,1.97,1.03,3.08,2.87,3.08s2.87-1.1,2.87-3.08Z"/><path class="h" d="M273.52,295.76c1.77,0,2.56-.87,2.56-2.15s-.79-2.15-2.56-2.15h-9.38c-2.28,0-3.36,1.05-3.36,3.51v11.43c0,2.46,1.08,3.51,3.36,3.51h9.67c1.77,0,2.56-.87,2.56-2.15s-.79-2.15-2.56-2.15h-7.13v-2.95h5.49c1.77,0,2.56-.87,2.56-2.15s-.79-2.15-2.56-2.15h-5.49v-2.59h6.84Z"/><path class="h" d="M320.1,294.96v11.43c0,2.46,1.08,3.51,3.36,3.51h9.66c1.77,0,2.56-.87,2.56-2.15s-.79-2.15-2.56-2.15h-7.13v-2.95h5.49c1.77,0,2.56-.87,2.56-2.15s-.79-2.15-2.56-2.15h-5.49v-2.59h6.84c1.77,0,2.56-.87,2.56-2.15s-.79-2.15-2.56-2.15h-9.38c-2.28,0-3.36,1.05-3.36,3.51Z"/><path class="h" d="M304.08,309.91c6.13,0,8.84-4.1,8.84-9.23s-2.72-9.23-8.84-9.23h-5c-2.28,0-3.36,1.05-3.36,3.51v11.43c0,2.46,1.08,3.51,3.36,3.51h5Zm-2.62-13.84h1.31c3.41,0,4.26,1.69,4.26,4.61s-.85,4.61-4.26,4.61h-1.31v-9.23Z"/><path class="h" d="M202.79,308.78l.41-1.36h6.2l.41,1.36c.31,1.05,1.46,1.46,2.38,1.46,1.33,0,2.69-1,2.69-2.38,0-.85-.49-2.2-.92-3.44l-3.92-10.92c-.56-1.54-1.33-2.38-2.82-2.38h-1.85c-1.49,0-2.26,.85-2.82,2.38l-3.92,10.92c-.44,1.23-.92,2.59-.92,3.44,0,1.38,1.36,2.38,2.69,2.38,.92,0,2.08-.41,2.38-1.46Zm3.49-11.79h.05l2,6.74h-4.05l2-6.74Z"/></g><g><g id="d"><g id="e"><path class="l" d="M315.7,597.85v10.96h2.81c2.99-.03,5.39-2.48,5.36-5.47h0c.09-2.95-2.22-5.4-5.16-5.49-.06,0-.13,0-.19,0h-2.81Zm2.81-3.44c5.23,0,9.18,3.95,9.18,8.93s-3.96,8.92-9.18,8.92h-6.17c-.25,0-.44-.2-.44-.44v-16.94c0-.25,.2-.44,.44-.44l6.17-.02Z"/><path class="l" d="M341.19,609.2c3.24,0,5.87-2.63,5.87-5.87s-2.63-5.87-5.87-5.87c-3.24,0-5.87,2.63-5.87,5.87,0,3.24,2.63,5.86,5.87,5.87m0-15.17c5.48,0,9.69,4.21,9.69,9.32s-4.21,9.32-9.69,9.32-9.69-4.21-9.69-9.32,4.21-9.32,9.69-9.32"/><path class="l" d="M364.24,609.2c3.24,0,5.87-2.62,5.87-5.86,0-3.24-2.62-5.87-5.86-5.87-3.24,0-5.87,2.62-5.87,5.86h0c0,3.24,2.63,5.86,5.86,5.87m0-15.17c5.49,0,9.69,4.21,9.69,9.32s-4.21,9.32-9.69,9.32-9.69-4.21-9.69-9.32,4.21-9.32,9.69-9.32"/><path class="l" d="M386.79,597.85h-3.96v4.72h3.96c1.28,.06,2.36-.93,2.42-2.21,0-.03,0-.06,0-.09,.04-1.3-.97-2.38-2.27-2.42-.05,0-.1,0-.15,0m-7.78-2.98c0-.25,.2-.44,.44-.44h7.44c3.55,0,6.13,2.6,6.13,5.87,.03,2.21-1.21,4.24-3.19,5.23l3.45,6.05c.14,.2,.08,.48-.12,.61-.08,.05-.18,.08-.27,.07h-3.02c-.17,0-.33-.09-.4-.24l-3.31-6.01h-3.32v5.77c0,.25-.2,.44-.44,.44h-2.9c-.25,0-.44-.2-.44-.44l-.04-16.91Z"/><path class="l" d="M402.99,597.93v10.97h2.81c2.99-.03,5.39-2.49,5.36-5.48h0c.09-2.94-2.22-5.4-5.16-5.49-.06,0-.13,0-.19,0h-2.81Zm2.81-3.44c5.23,0,9.18,3.95,9.18,8.92s-3.95,8.93-9.18,8.93h-6.17c-.25,0-.44-.2-.44-.44v-16.94c0-.25,.2-.44,.44-.44l6.17-.02Z"/><path class="l" d="M426.65,598.85l-2.17,5.87h4.34l-2.17-5.87Zm-3.44,9.18l-1.42,3.9c-.06,.19-.24,.32-.44,.31h-3.08c-.24,.02-.46-.15-.49-.4,0-.08,0-.16,.04-.24l6.66-16.92c.07-.19,.25-.31,.44-.3h3.45c.2-.01,.38,.11,.44,.3l6.66,16.92c.11,.22,.01,.49-.21,.59-.07,.04-.16,.05-.24,.04h-3.08c-.2,0-.38-.12-.44-.31l-1.42-3.9h-6.88Z"/><path class="l" d="M439.05,599.22c0-2.8,2.42-5.23,6.25-5.23,2.06-.04,4.05,.72,5.55,2.12,.18,.18,.18,.47,0,.65l-1.72,1.72c-.17,.18-.45,.19-.63,.03h0c-.81-.74-1.86-1.15-2.96-1.17-1.53,0-2.66,.89-2.66,1.91,0,3.32,9.05,1.41,9.05,7.78,0,3.19-2.42,5.61-6.76,5.61-2.41,.03-4.73-.91-6.45-2.6-.18-.17-.19-.45-.02-.63l.02-.02,1.65-1.65c.17-.18,.45-.18,.63-.02l.02,.02c1.05,1.01,2.44,1.58,3.9,1.59,1.92,0,3.18-1.02,3.18-2.3,0-3.31-9.04-1.4-9.04-7.78"/><path class="l" d="M468.33,594.85v6.68h-7.65v-6.66c.01-.24-.18-.45-.42-.47,0,0-.02,0-.02,0h-2.9c-.25,0-.44,.2-.44,.44,0,0,0,.02,0,.02v16.9c-.01,.24,.18,.45,.42,.47,0,0,.02,0,.02,0h2.9c.25,0,.44-.2,.44-.44,0,0,0-.02,0-.02v-6.78h7.65v6.78c-.01,.24,.18,.45,.42,.47,.02,0,.03,0,.05,0h2.9c.24,.01,.45-.18,.47-.42,0-.02,0-.03,0-.05v-16.92c.01-.24-.18-.45-.42-.47-.02,0-.03,0-.05,0h-2.9c-.24-.01-.45,.18-.47,.42,0,.02,0,.03,0,.05Z"/><path class="l" d="M296.79,596.73c-1.95-3.67-5.77-5.95-9.93-5.94h-31.45c-.6,0-1.08,.49-1.07,1.09,0,.28,.12,.55,.31,.75l6.85,6.89c.6,.61,1.42,.95,2.28,.95h22.17c1.58-.02,2.87,1.25,2.89,2.83,.02,1.58-1.25,2.87-2.83,2.89h-15.29c-.6,0-1.08,.49-1.07,1.09,0,.28,.12,.55,.31,.75l6.85,6.89c.61,.61,1.43,.95,2.29,.95h6.91c8.99,0,15.79-9.61,10.77-19.14"/></g></g><g><path class="j" d="M151.88,588.81c-2.14-.91-5.09-1.56-7.47-1.56s-5.35,1-5.35,4.64c0,5.79,14.87,3.35,14.87,14.54,0,7.32-5.88,10.09-12.74,10.09-3.7,0-5.35-.48-8.7-1.29v-6.03c2.33,1.24,5.64,2.06,8.31,2.06s6.03-1.29,6.03-4.31c0-6.36-14.88-3.73-14.88-14.78,0-7.46,5.88-10.19,11.86-10.19,2.92,0,5.64,.38,8.12,1.2l-.06,5.62Z"/><path class="j" d="M190.85,597.15c-1.93-.65-3.69-1.02-6-1.02-1.7,0-3.73,.6-3.73,2.65,0,3.81,11,1.39,11,10.03,0,5.57-5.05,7.8-10.2,7.8-2.41,0-4.86-.42-7.17-1.02l.38-5.11c1.98,.98,4.06,1.58,6.23,1.58,1.61,0,4.15-.6,4.15-2.93,0-4.69-11-1.49-11-10.12,0-5.16,4.58-7.43,9.54-7.43,2.97,0,4.91,.46,6.89,.88l-.09,4.69Z"/><path class="j" d="M210.88,597.29c-1.13-.51-2.36-.88-4.29-.88-3.92,0-6.42,3.07-6.42,7.57s2.12,7.8,6.56,7.8c1.79,0,3.78-.65,4.86-1.11l.28,5.16c-1.84,.56-3.73,.79-6.32,.79-7.98,0-11.99-5.34-11.99-12.63s4.15-12.4,11.75-12.4c2.55,0,4.39,.28,6.14,.79l-.57,4.92Z"/><path class="j" d="M225.28,591.58c7.22,0,12.74,4.78,12.74,12.68,0,6.87-4.67,12.35-12.74,12.35s-12.7-5.48-12.7-12.35c0-7.9,5.52-12.68,12.7-12.68Zm0,20.2c4.86,0,6.13-4.27,6.13-8.27,0-3.67-1.98-7.11-6.13-7.11s-6.09,3.53-6.09,7.11c0,3.95,1.27,8.27,6.09,8.27Z"/><polygon class="j" points="175.22 591.81 168.81 591.81 156.73 624.67 162.53 624.67 175.22 591.81"/><path class="m" d="M148.99,591.22c2.68,2.71,5.35,6.02,7.29,9.9,1.73,3.47,2.61,6.85,3.24,10.26,.02,.12,.11,.11,.15,.02,2.31-4.03,3.72-9.51,1.65-13.64-2.16-4.33-7.36-6.33-12.24-6.73-.17,0-.2,.08-.09,.19Z"/></g><g><path class="k" d="M88.42,606.57c-1.39,4.88,2.52,4.8,4.99,1.37,1.72-2.34,3.21-5.82,2.83-7.74-.09-.44-.25-.81-.48-1.15-5.34,.48-7.12,6.74-7.33,7.51Z"/><path class="k" d="M110.07,603.33c0-16.39-23.9-29.72-53.27-29.72s-53.27,13.33-53.27,29.72,23.9,29.72,53.27,29.72,53.27-13.33,53.27-29.72Zm-45.64-8.32c8.79,1.76,13.6,.67,17.67,.49l1.51-3.16c1.24-.46,2.59-.47,3.8,.01l-1.41,3.11c6.14,.14,9.65,1.29,11.66,2.66,3.41,.17,6.35,1.02,7.08,1.73-.42,.91-1.2,1.65-2.12,2.03-.34-.55-1.65-1.61-3.38-2.28,1.35,1.8,.92,3.52,.91,3.67-.5,4.06-5.05,8.17-10.26,8.17-3.1,0-5.07-1.45-5.49-3.63-.04-.25-.11-.93-.04-1.56,.17-1.61,.89-3.23,2.06-4.56,1.99-2.31,5.19-3.3,8.38-3.54-2.21-1.34-6.41-.87-9.76-.54l-3.36,7.46c-.4,.84-1.25,2.65-1.36,3.49-.05,.45,.02,.95,.72,.95,.45,0,.91-.23,1.37-.55,.22-.16,.6-.5,.85-.73,.09,.32,.22,.6,.38,.87v.04c-1.23,1.15-2.86,2.29-4.79,2.29-1.68,0-2.89-.99-2.73-2.35,.03-.43,.19-1.2,.69-2.28,.32-.81,.7-1.62,.98-2.25l3.2-6.72c-4.41,0-11.89-.43-16.79-2.46l.23-.38Zm-1.43,4.77c-.16,0-.53,.1-.96,.26-.07-.27-.18-.52-.32-.75,1.23-.76,2.67-1.31,3.89-1.31,1.41,0,2.44,.75,2.3,1.94-.12,.99-.91,2.5-1.44,3.5,0,0-2.47,4.58-2.56,5.24-.06,.55,.35,.79,.99,.79,3.05,0,6.39-6.51,7.41-8.47l1.09-1.95s1.33,.13,1.88,.16c.75,.05,2.02,.13,2.02,.13l-2.26,4.38c-.56,1.21-1.64,3.62-1.78,4.81-.04,.36-.03,.94,.56,.94,.35-.01,.74-.23,1.09-.47,0,.04,0,.08-.01,.12-.04,.32,0,.63,.11,.91v.02c-1.08,.81-2.37,1.38-3.74,1.38-1.53,0-2.29-1.05-2.15-2.2,.1-.78,.27-1.3,.54-1.99l-.07-.06c-1.69,2.31-4.06,4.25-7.04,4.26-1.71,.01-2.94-.9-2.77-2.38,.13-1.06,.95-2.6,1.49-3.63,0,0,2.24-4.48,2.29-4.97,.05-.34-.1-.64-.55-.64Zm-36.83,5.97c-.87,3.67-4.55,5.83-8.88,5.83-2.39,0-4.75-.72-6.08-2.21-2.55-2.95,.37-4.48,1.8-4.46-.75,2.83,.39,5.33,3.99,5.33,2.02,0,3.78-1.17,4.19-2.87,.45-1.89-.61-3.01-1.85-4.28l-1.17-1.22c-1.53-1.57-2.71-2.98-2.14-5.32,.8-3.36,4.35-5.46,8.35-5.46,2.12,0,3.78,.6,5.09,1.74,2.66,2.68-.63,4.39-1.36,4.23-.18-.03-.25-.08-.25-.08,.7-2.17-.05-4.57-3.06-4.57-1.69,0-3.77,.9-4.14,2.44-.42,1.74,.84,2.94,1.97,4.09l1.07,1.05c1.7,1.65,3.09,3.21,2.48,5.77Zm10.66,3.63c.05-.44,.24-1.1,.24-1.1l-.07-.06c-1.33,1.69-3.44,3.17-5.98,3.17-3.13,0-4.37-2.02-4.08-4.38,.48-3.9,4.87-9.04,10.24-9.04,1.75,0,2.94,.69,3.45,1.97l.94-1.65c1.26-.46,2.66-.47,3.88,0l-3.84,8.15c-.25,.51-.81,1.75-.87,2.23-.05,.37,.05,1.06,.57,1.06,.21,0,.43-.06,.66-.18h0l-.55,1.22c-.79,.37-1.63,.61-2.48,.61-1.41,0-2.28-.91-2.13-2.02Zm10.52,.06h-.07l-4.2,9.29c-1.24-.41-2.29-1.3-2.86-2.46l8.82-19.69c1.18,.39,2.17,1.2,2.72,2.29l-.45,1.05,.07,.06c1.27-1.21,3-1.99,4.94-1.99,2.69,0,3.95,1.37,4.11,3.23,.05,.63-.02,1.1-.02,1.12-.47,3.84-4.24,9.07-9.65,9.07-1.71,0-2.89-.72-3.41-1.97Z"/><path class="k" d="M54.4,599.64c-3.32,0-5.84,6.29-6.07,8.13-.11,.94,.28,1.97,1.62,1.97,3.36,0,6-6.05,6.27-8.22,.12-1-.45-1.88-1.82-1.88Z"/><path class="k" d="M37.8,599.64c-3.28,0-6.2,5.83-6.46,7.98-.11,.88,.28,1.97,1.54,1.97,3.39,0,6.41-6.05,6.68-8.22,.12-.97-.46-1.73-1.76-1.73Z"/><path class="j" d="M94.79,581.89c-10.15-5.69-23.65-8.82-37.99-8.82s-27.84,3.13-37.99,8.82c-10.2,5.71-15.82,13.33-15.82,21.44s5.62,15.73,15.82,21.44c10.15,5.69,23.65,8.82,37.99,8.82s27.84-3.13,37.99-8.82c10.2-5.71,15.82-13.33,15.82-21.44s-5.62-15.73-15.82-21.44ZM3.52,603.33c0-16.39,23.9-29.72,53.27-29.72s53.27,13.33,53.27,29.72-23.9,29.72-53.27,29.72-53.27-13.33-53.27-29.72Z"/><path class="j" d="M23.69,599.98l-1.07-1.05c-1.13-1.14-2.38-2.34-1.97-4.09,.37-1.54,2.45-2.44,4.14-2.44,3.01,0,3.76,2.4,3.06,4.57,0,0,.07,.05,.25,.08,.73,.16,4.02-1.55,1.36-4.23-1.31-1.14-2.97-1.74-5.09-1.74-4,0-7.56,2.1-8.35,5.46-.56,2.34,.61,3.76,2.14,5.32l1.17,1.22c1.24,1.26,2.3,2.38,1.85,4.28-.41,1.71-2.17,2.87-4.19,2.87-3.6,0-4.73-2.51-3.99-5.33-1.43-.03-4.35,1.5-1.8,4.46,1.32,1.49,3.69,2.21,6.08,2.21,4.33,0,8.01-2.16,8.88-5.83,.61-2.56-.78-4.11-2.48-5.77Z"/><path class="j" d="M60.4,602.33s.08-.49,.02-1.12c-.16-1.86-1.42-3.23-4.11-3.23-1.94,0-3.67,.78-4.94,1.99l-.07-.06,.45-1.05c-.55-1.09-1.54-1.9-2.72-2.29l-8.82,19.69c.57,1.16,1.63,2.05,2.86,2.46l4.2-9.29h.07c.52,1.24,1.7,1.97,3.41,1.97,5.41,0,9.18-5.23,9.65-9.07Zm-4.18-.81c-.27,2.17-2.91,8.22-6.27,8.22-1.34,0-1.73-1.03-1.62-1.97,.23-1.84,2.75-8.13,6.07-8.13,1.37,0,1.94,.88,1.82,1.88Z"/><path class="j" d="M41.98,609.59h0c-.23,.1-.46,.16-.66,.16-.52,0-.62-.7-.57-1.06,.06-.48,.62-1.72,.87-2.23l3.84-8.15c-1.22-.48-2.62-.47-3.88,0l-.94,1.65c-.52-1.28-1.7-1.97-3.45-1.97-5.37,0-9.76,5.14-10.24,9.04-.29,2.36,.95,4.38,4.08,4.38,2.54,0,4.65-1.48,5.98-3.17l.07,.06s-.19,.65-.24,1.1c-.14,1.11,.72,2.02,2.13,2.02,.85,0,1.69-.23,2.48-.61l.55-1.21Zm-2.42-8.22c-.27,2.17-3.29,8.22-6.68,8.22-1.27,0-1.66-1.09-1.54-1.97,.26-2.14,3.18-7.98,6.46-7.98,1.3,0,1.88,.76,1.76,1.73Z"/><path class="j" d="M61.25,605.39c-.54,1.03-1.36,2.57-1.49,3.63-.18,1.48,1.05,2.39,2.77,2.38,2.98,0,5.35-1.94,7.04-4.26l.07,.06c-.27,.69-.44,1.21-.54,1.99-.14,1.15,.63,2.2,2.15,2.2,1.38,0,2.66-.57,3.74-1.38v-.02c-.11-.28-.15-.59-.11-.91,0-.04,0-.08,.01-.12-.35,.24-.75,.45-1.09,.47-.59,0-.6-.58-.56-.94,.15-1.19,1.23-3.6,1.78-4.81l2.26-4.38s-1.26-.09-2.02-.13c-.55-.03-1.88-.16-1.88-.16l-1.09,1.95c-1.02,1.96-4.36,8.47-7.41,8.47-.64,0-1.05-.25-.99-.79,.08-.67,2.56-5.24,2.56-5.24,.53-.99,1.32-2.5,1.44-3.5,.15-1.19-.88-1.94-2.3-1.94-1.23,0-2.66,.55-3.89,1.31,.14,.23,.24,.49,.32,.75,.43-.16,.81-.26,.96-.26,.45,0,.6,.3,.55,.64-.06,.48-2.29,4.97-2.29,4.97Z"/><path class="j" d="M77.78,604.57c-.28,.63-.66,1.44-.98,2.25-.5,1.08-.67,1.85-.69,2.28-.16,1.35,1.05,2.35,2.73,2.35,1.93,0,3.56-1.13,4.81-2.29v-.04c-.17-.27-.3-.56-.39-.87-.25,.24-.63,.57-.85,.73-.46,.33-.93,.55-1.37,.55-.7,0-.78-.5-.72-.95,.11-.84,.96-2.66,1.36-3.49l3.36-7.46c3.36-.34,7.55-.8,9.76,.54-3.19,.25-6.39,1.23-8.38,3.54-1.16,1.34-1.88,2.96-2.06,4.56-.07,.63,0,1.31,.04,1.56,.42,2.18,2.4,3.63,5.49,3.63,5.21,0,9.76-4.11,10.26-8.17,.02-.15,.44-1.88-.91-3.67,1.73,.67,3.04,1.73,3.38,2.28,.92-.38,1.71-1.12,2.12-2.03-.73-.71-3.67-1.57-7.08-1.73-2-1.37-5.51-2.51-11.66-2.66l1.41-3.11c-1.2-.48-2.56-.48-3.8-.01l-1.51,3.16c-4.07,.18-8.89,1.27-17.67-.49l-.23,.38c4.9,2.02,12.38,2.46,16.79,2.46l-3.2,6.72Zm18.45-4.37c.38,1.92-1.1,5.4-2.83,7.74-2.46,3.43-6.38,3.51-4.99-1.37,.21-.77,2-7.03,7.33-7.51,.22,.34,.39,.71,.48,1.15Z"/></g></g></g></g></g></svg>