<svg xmlns="http://www.w3.org/2000/svg" viewBox="0 0 223.69 196.25"><defs><style>.d{fill:#fddd37}.e{fill:#0e6937}</style></defs><g id="b"><g id="c"><g><path d="M60.73,139.3c-4.26-3.86-8.05-8.11-10.69-13.28-.19-.38-.34-.78-.51-1.17,1.91-1.42,2.81-3.26,2.75-5.7-.09-3.72-.09-7.45,.09-11.16,.2-4.01,.52-8.03,1.05-12.01,.9-6.83,2.9-13.39,5.2-19.86,.92-2.6-.03-3.89-2.75-3.76,1.65-2.12,3.21-4.32,4.96-6.36,5.07-5.86,11.08-10.51,18.15-13.75,5.12-2.35,10.49-3.94,16.02-4.97,7.84-1.46,15.77-1.98,23.73-1.64,9.27,.4,18.33,1.94,27.05,5.21,6.95,2.6,13.18,6.33,18.3,11.77,3.88,4.12,7.11,8.66,9.22,13.95-2.88-.25-5.65,.18-8.11,1.73-1.56,.99-2.94,2.25-4.4,3.39l-.19,.16h0l-.16,.15h0c-.6,.36-1.21,.62-1.61,1.32-.59,1-1.43,1.85-2.13,2.8-.31,.43-.58,.91-.78,1.4-.21,.55-.27,1.17-.48,1.73-.39,1.04-.84,2.06-1.24,3.09-.07,.18-.11,.4-.07,.58,.18,.71,.36,1.41-.13,2.08-.06,.08-.05,.28,.01,.36,.65,.89-.04,1.84,.1,2.77,.13,.83-.05,1.7,.46,2.47,.04,.06-.11,.24-.18,.37-.42-.08-.83-.21-1.25-.23-1.06-.07-1.66-.47-1.88-1.51-.17-.78-.29-1.6-.25-2.39,.24-4.04,.43-8.08,.87-12.1,.33-3.01,1.01-5.99,1.53-8.98,.44,.02,.89,0,1.32,.07,.92,.16,1.83,.37,2.74,.58,.33,.07,.66,.16,.95,.32,.73,.39,1.41,1.09,2.23,.24,1.35,1.33,2.7,1.16,3.38-.39,2.27-.22,2.69-2.13,1.39-3.7-.41-.5-.91-.95-1.42-1.34-2.47-1.86-5.2-3.24-8.13-4.23-.3-.1-.6-.22-.8-.29,.12-1.51,.37-2.94,.32-4.35-.07-2.26-2.04-3.56-3.97-2.67-.64,.29-1.16,.85-1.73,1.29-1.25,.19-1.96,1.16-2.73,1.99-.53,.57-.93,1.27-1.39,1.91-1.98,.01-3.96-.07-5.93,.06-1.85,.13-3.64,.59-4.69,2.38-1.35,.53-1.32,3.29-.47,4.1,.22,.21,.52,.32,.79,.47-1.62,.01-2.85,.7-3.65,2.12-.55,0-1,.09-.99,.81,0,.18-.11,.39-.24,.53-.85,.91-.9,2.04-.62,3.09,.19,.68,.75,1.43,1.36,1.79,1.24,.73,3.72,.1,4.76-1,2.55-1.36,3.18-3.88,1.58-6.27l5.31,.7c-.11,.3-.13,.51-.24,.61-.56,.55-.88,1.16-.56,1.96,.03,.08,0,.23-.05,.28-.84,.68-.54,1.73-.82,2.59-.35,1.06-.37,2.23-.57,3.34-.22,1.17-.49,2.34-.74,3.51-.03,.15-.05,.29-.06,.44-.14,1.74-.27,3.48-.43,5.22-.16,1.75-.43,3.49-.49,5.24-.04,1.16,.18,2.33,.28,3.49-.61-.2-1.21-.48-1.84-.59-.95-.17-1.21-.33-1.33-1.31-.12-1-.24-2.01-.21-3,.11-3.39,.33-6.78,.43-10.17,.03-.91-.07-1.87-.33-2.75-.51-1.7-2.49-2.35-3.98-1.36-.47,.32-.84,.78-1.25,1.18-.96,.46-2.04,.78-2.28,2.05-.01,.06-.08,.11-.12,.17-.34,.54-.92,1.05-.96,1.61-.09,1.09-1.21,1.78-.99,2.94,.01,.05-.16,.12-.2,.21-.18,.39-.41,.77-.49,1.19-.08,.42,.03,.87-.02,1.3-.24,2.04-.57,4.08-.72,6.13-.08,1.11,.08,2.26,.24,3.37,.22,1.57,.34,3.15,1.37,4.54,.75,1.01,1.47,1.92,2.64,2.42,.67,.28,1.32,.66,2.01,.85,1.61,.45,3.28,.76,4.8-.21,.59-.38,1.47-.42,1.72-1.27,1.21-.6,1.98-1.59,2.47-2.82,.33,.53,.66,1.05,.99,1.58,.75,1.18,1.89,1.9,3.01,2.66,1.19,.81,2.43,1.51,3.91,1.29,1.93-.28,4.01-.1,5.59-1.59,.26-.24,.41-.61,.6-.92,1.04-.72,1.66-1.73,1.98-2.93,.67,.67,1.31,1.38,2.04,1.98,.41,.33,.99,.44,1.46,.71,1.23,.73,2.5,1.48,3.94,1.56,3.99,.24,7.76-.41,11.12-2.81,1.02-.73,1.04-1.88,1.66-2.75,.56-.64,1.12-1.29,1.67-1.93-.05,3.77-.77,7.43-1.9,11.01-1.63,5.16-3.77,10.06-6.97,14.46-.61,.83-1.25,1.64-1.88,2.45-.8-.43-1.31,.14-1.77,.61-2.85,2.84-6.1,5.17-9.41,7.42-11.8,8.03-24.63,13.43-38.86,15.32-6.83,.91-13.65,.9-20.46-.11-9.6-1.43-18.64-4.57-27.18-9.12-2.52-1.34-4.91-2.94-7.36-4.43-.49-.29-.95-.73-1.57-.29Zm36.25-30.08c0-.05,.03-.09,.07-.12l2.62-2.92c.09,.15,.16,.31,.28,.43,.67,.71,1.31,1.41,1.67,2.35,.11,.29,.46,.5,.74,.7,.32,.22,.73,.32,1.02,.56,1.44,1.17,3,1.56,4.75,.79,.34-.15,.66-.45,.99-.46,.76-.02,1.1-.38,1.19-1.07l.9-.96c.37,1.17,.61,2.39,1.14,3.48,.56,1.15,1.62,2.07,2.04,3.25,.54,1.5,2.09,1.94,2.8,3.19,.02,.04,.08,.07,.12,.08,.88,.31,1.76,.67,2.66,.91,1.98,.53,4.01,.84,6.07,.62,.71-.08,1.47-.23,2.06-.59,.82-.49,1.47-1.24,2.26-1.8,1.19-.84,1.69-1.93,1.45-3.38-.04-.24,.02-.49,.06-.74,.34-2.14-1.01-3.95-3-4.03h.01l-.12-.11c-.49-.39-.91-.95-1.47-1.14-1.9-.63-2.75-2.06-3.27-3.83-.67-2.3-.73-4.68-.68-7.03,.09-4.52,.25-9.05,.54-13.56,.48-7.63,1.49-15.21,2.67-22.76,.21-1.36,.41-2.75,.34-4.11-.09-1.65-1.4-2.54-3.07-2.35-1.61,.18-2.58,1.24-3.43,2.47l-.13,.15h.01c-.83,.22-1.34,.79-1.67,1.56-.1,.23-.23,.45-.37,.64-.31,.42-.72,.77-.95,1.23-.43,.85-.77,1.75-1.12,2.64-.13,.33-.17,.7-.24,1.05-.07,.39-.12,.78-.2,1.17-.08,.36-.19,.71-.29,1.06-.06,.2-.34,.34-.39,.54-.23,.87-.36,1.76-.57,2.63-.14,.57-.38,1.11-.53,1.67-.18,.72-.28,1.45-.46,2.17-.24,.98-.52,1.96-.77,2.94-.05,.19-.1,.39-.1,.59-.02,.66,.07,1.34-.03,1.98-.45,2.91-1.08,5.81-1.38,8.73-.13,1.24-1.26,2.4-.4,3.74,.02,.04,.01,.1,.01,.15-.1,2.21-.26,4.41-.3,6.62-.03,1.88,.06,3.76,.1,5.63-1.52-.99-2.06-2.52-2.08-4.21-.06-4.05-.06-8.09-.06-12.14,0-2.03-.1-4.05-1.07-5.88-1.6-3.02-4.38-4.11-7.58-4.24-3.99-.17-7,1.95-9.78,4.48-.65,.43-1.3,.86-1.95,1.3-.04,.03-.06,.08-.09,.12-.36,.48-.73,.95-1.08,1.44-.13,.19-.23,.41-.31,.62-.14,.33-.24,.68-.4,1-.08,.17-.3,.27-.37,.44-.31,.7-.58,1.42-.87,2.13-.34,.84-.76,1.65-1,2.51-.67,2.46-1.21,4.95-1.3,7.52-.07,2.04,.02,4.05,.5,6.02,.21,.84,.54,1.65,.87,2.45,.2,.49,.49,.94,.74,1.4-1.43-.15-2.4-.9-2.76-2.29-.31-1.21-.68-2.45-.72-3.68-.11-3.64-.16-7.29-.04-10.93,.1-3.21,.45-6.42,.69-9.62,.1-.01,.22,0,.29-.04,1.05-.67,2-1.52,3.31-1.7,.08-.01,.13-.16,.22-.2,.82-.42,1.49-1.12,2.56-1.07,.58,.02,1.18-.34,1.76-.55,.24-.09,.46-.29,.7-.34,1.38-.28,2.77-.52,4.15-.78,.07-.01,.13-.08,.19-.11,.96-.49,1.95-.83,3.04-.8,.64,.01,1.29,.14,1.83-.41,.15-.15,.53-.05,.79-.12,.27-.07,.61-.15,.76-.34,.22-.28,.3-.68,.44-1.02,.12-.09,.23-.19,.35-.28,2.25-1.68,1.98-4.7-.58-5.86-.81-.37-1.72-.58-2.61-.66-3.59-.33-7.07,.3-10.49,1.31-1.82,.54-3.6,1.24-5.43,1.88,.28-1.99,.62-3.99,.82-6.02,.17-1.79,.33-3.61,.21-5.4-.1-1.66-1.74-2.62-3.33-2.06-.75,.27-1.37,.88-2.05,1.33-.97-.17-1.56,.47-2.12,1.08-.27,.29-.38,.96-.64,.99-.85,.12-.72,.87-1,1.32-.4,.66-.6,1.43-1.02,2.08-.36,.56-.64,1.05-.25,1.48-.19,.41-.34,.68-.43,.97-.15,.44-.31,.89-.38,1.35-.11,.76-.81,1.37-.47,2.28,.14,.39,.01,1-.59,1.24-.16,.06-.36,.45-.32,.5,.39,.44-.07,.77-.12,1.14-.05,.31-.22,.6-.26,.92-.06,.57,.02,1.16-.09,1.72-.21,1.06-.84,2.05-.36,3.18h0s-.02,.06-.06,.06c-1.22,1.59-2.45,3.19-3.67,4.78l-.17,.17h.01c-.15,.36-.3,.74-.46,1.11-.08,.18-.14,.42-.28,.53-.82,.62-.92,2.13-.11,2.75,.68,.52,1.43,.96,2.36,.62,.17-.06,.38,0,.59,0-.16,1.33-.36,2.57-.46,3.83-.14,1.82-.22,3.65-.3,5.48-.02,.37,.13,.74,.13,1.11-.03,1.23-.02,2.47-.16,3.7-.14,1.27,.44,2.52,0,3.79-.04,.11,.18,.31,.27,.47-.23,0-.45,0-.68,.03-1,.08-1.23-.04-1.54-1-.22-.67-.42-1.36-.45-2.05-.18-3.74-.32-7.48-.44-11.22-.04-1.45,.07-2.91,.02-4.37-.04-1.11-.58-1.97-1.68-2.37-1.13-.4-2.14-.11-3,.67-.46,.42-.83,.93-1.24,1.4-.78,.23-1.43,.64-1.78,1.39-.57,1.24-1.23,2.46-1.64,3.76-.53,1.64-.96,3.34-1.24,5.04-.29,1.76-.46,3.55-.46,5.33,0,2.04-.31,4.1,.27,6.13,.55,1.92,.53,3.98,2.15,5.58,1.08,1.06,2.11,1.98,3.56,2.5,2.52,.91,4.95,1.02,7.32-.34,.88-.5,1.64-1.14,1.69-2.28l1.3-1.61c.37,.08,.5,.27,.62,.68,.29,1.03,.86,1.9,1.74,2.61,.59,.47,1.7,.33,1.79,1.43,0,.07,.19,.16,.3,.19,1.28,.3,2.55,.71,3.85,.86,2.64,.31,5.04-.22,6.76-2.48,1.11-.79,2.01-1.75,2.23-3.14,.13-.8,.06-1.63,.08-2.45,1.01,.06,2.02,.18,3.03,.15,1.97-.05,3.36-1.54,5.08-2.22,.1-.04,.14-.24,.22-.36h-.01l.46-.31h-.01l.16-.15v.02Zm39.89,12.23s.09-.05,.12-.09c.5-.32,.62-.81,.26-1.21-.22-.25-.77-.43-1.08-.33-1.44,.44-2.84,.99-4.26,1.5l-.18,.14h0c-.72,.24-.92,.65-.67,1.52,.3,1.06,.65,2.11,.97,3.17,.49,1.58,.97,3.17,1.49,4.74,.36,1.08,.87,1.35,1.81,.94,1.49-.66,2.98-1.34,4.44-2.07,.27-.13,.39-.57,.57-.86,.4-.42,.45-.9,.11-1.36-.36-.48-.82-.32-1.28-.11-1.09,.49-2.19,.96-3.37,1.48l-.65-2.12c.78-.32,1.59-.6,2.34-.98,.3-.15,.5-.49,.74-.74,.43-.4,.5-.86,.17-1.34-.33-.47-.78-.33-1.22-.16-.92,.36-1.84,.72-2.82,1.09-.2-.67-.37-1.25-.54-1.82,.88-.32,1.77-.62,2.64-.97,.17-.07,.28-.29,.41-.44h-.01Zm-15.11,28.27s.08-.05,.12-.08c.66-.47,.66-1.05,.31-1.71-1.35-2.54-2.68-5.09-4.02-7.63-.52-.99-1.12-1.14-2.08-.56-.62-.01-.89,.42-1.07,.9-.15,.42-.22,.88-.33,1.31-.61,2.46-1.22,4.92-1.83,7.38-.42-.17-.83-.48-1.25-.49-1.17-.02-2.33,.08-3.55,.14,0-.41,0-.68,0-.96,0-2.22,.01-4.43,0-6.65,0-1.08-.59-1.42-1.58-.97-.04,.03-.07,.07-.11,.1h.02c-.8,.06-1.14,.44-1.18,1.5-.08,2.74-.14,5.48-.18,8.22-.01,.83,.43,1.29,1.25,1.28,1.66-.01,3.32-.04,4.97-.16,.35-.03,.66-.47,1-.73l.47-.29c.17,.62,.56,1.01,1.22,1.03,.52,0,.92-.22,1.02-.79,.77-.41,.68-1.25,.96-1.91,.75-.09,1.5-.17,2.24-.29,.45-.07,.75,0,.96,.46,.19,.43,.42,.9,.77,1.2,.3,.26,.8,.42,1.19,.4,.25-.02,.47-.46,.7-.71h0Zm21.46-19.18h.01c-.8,.29-1.07,.79-.69,1.63,1.06,2.32,2.18,4.61,3.31,6.91,.24,.48,.67,.78,1.24,.64,.54-.14,.95-.44,.96-1.08,.4-.51,.39-1.02,.08-1.58-.37-.64-.69-1.31-1.03-1.97,.52,.01,1.09-.09,1.56,.07,.89,.31,1.71,.81,2.59,1.16,.97,.39,1.72,0,1.96-.94,.47-.87,.43-1.13-.43-1.55-.93-.45-1.92-.81-2.74-1.15,.17-.68,.56-1.43,.48-2.13-.2-1.72-2.06-2.68-3.66-1.96-1.19,.53-2.32,1.19-3.48,1.79l-.16,.16Zm-25.85-5.29v-.02c-.62-.02-.81,.43-.87,.91-.05,.39,0,.8,.04,1.2,.18,1.57,.36,3.14,.56,4.71,.18,1.37,.35,2.73,.58,4.09,.09,.54,.47,.89,1.06,.88,.62-.02,.97-.34,1.04-.96,.16-.47,.46-.95,.45-1.42-.04-1.02-.25-2.03-.39-3.04,.67-.15,1.37-.24,2.01-.48,.31-.11,.53-.49,.79-.75,.47-.37,.62-.83,.36-1.39-.29-.62-.83-.45-1.31-.36-.73,.14-1.45,.31-2.26,.48l-.23-2.04c.78-.16,1.58-.29,2.35-.51,.27-.08,.48-.38,.71-.58,.48-.3,.74-.74,.47-1.27-.13-.27-.53-.63-.74-.59-1.52,.29-3.02,.67-4.53,1.02-.03,.04-.06,.08-.09,.12Zm6.65-1.55h-.02c-.82,.24-1.12,.66-.95,1.51,.33,1.67,.71,3.34,1.07,5.01,.28,1.3,.55,2.6,.86,3.9,.15,.64,.48,1.21,1.25,1.18,.61-.02,1.05-.33,1.09-1.01,.44-.46,.53-.99,.38-1.6-.23-.92-.42-1.86-.63-2.79,.85-.15,1.27,.47,1.73,.98,.66,.72,1.29,1.46,1.94,2.19,.64,.71,1.98,.38,2-.68,.51-.6,.46-1.21-.04-1.76-.8-.88-1.64-1.74-2.51-2.66,.03-.05,.09-.21,.21-.33,.66-.7,.82-1.52,.7-2.44-.22-1.77-1.45-2.94-3-2.66-1.37,.25-2.7,.73-4.05,1.1v.05h-.06Zm7.1,23.77s.05-.07,.09-.09c.51-.49,.42-1.07,.26-1.68-.57-2.18-1.13-4.37-1.7-6.55,.65-.23,1.41-.28,1.74-1.04,.18-.37,.35-.75,.53-1.12,.05,.11,.11,.22,.14,.34,.81,2.61,1.61,5.22,2.43,7.82,.18,.56,.51,1.01,1.19,.94,.62-.06,1.02-.39,1.06-1.05,.1-.49,.41-1.03,.28-1.45-.79-2.62-1.66-5.21-2.54-7.8-.31-.92-.84-1.06-1.67-.52-.87,.16-.86,.85-.92,1.51-.34-.65-.82-.74-1.5-.5-1.29,.46-2.6,.84-3.9,1.27-.56,.18-1.12,.39-1.68,.58-.9,.15-.97,.82-.94,1.54-.1-.26-.13-.57-.3-.76-.24-.25-.57-.55-.88-.57-.69-.05-1.56,1.13-1.43,1.83,.35,1.89,.7,3.77,1.06,5.66,.18,.96,.37,1.91,.59,2.86,.12,.53,.3,1.05,1,1,.88-.07,1.74-1.24,1.56-2.1-.25-1.16-.53-2.3-.75-3.46-.25-1.3-.46-2.6-.68-3.91,.96,.63,1.88,.04,2.87-.13,.41,1.68,.82,3.36,1.24,5.03,.21,.83,.42,1.65,.68,2.46,.18,.55,.59,.88,1.21,.79,.54-.07,.96-.28,.98-.92h-.01Zm-42.02,.45l.27-.14c.52-.42,1.15-.76,1.55-1.27,1.35-1.76,1.43-5.03,.16-6.84-1.31-1.87-3.17-2.43-5.36-2.01-.59,.19-1.27,.24-1.74,.58-1.88,1.36-2.57,3.33-2.31,5.55,.28,2.42,2.35,4.27,4.89,4.6,.9,.12,1.8,.16,2.57-.47h-.02Zm6.79-22.17c-.88,.13-1.16,.53-1.32,1.78-.23,1.87-.48,3.73-.72,5.59-.13,1.04-.27,2.09-.33,3.14-.03,.59,.26,1.1,.89,1.23,.6,.12,1.1-.04,1.28-.73,.58-.25,.77-.75,.83-1.33,.07-.72,.15-1.45,.23-2.17,.22-2.15,.47-4.29,.65-6.44,.1-1.15-.51-1.55-1.51-1.07Zm15.2,11.46c.19-.47,.59-.95,.53-1.39-.3-2.55,.25-4.91,1.41-7.17,.19-.38,.33-.79,.47-1.19,.1-.31,.25-.64,.21-.94-.05-.34-.2-.77-.45-.94-.18-.13-.61,.1-.92,.16-.65-.09-.79,.43-.97,.85-.39,.89-.74,1.79-1.1,2.69-.48-.94-.94-1.88-1.43-2.82-.42-.81-.67-.87-1.48-.42-.94,.03-.97,.79-1.15,1.43-.67-1.15-1.69-1.57-2.98-1.47-.3,.02-.6-.06-.9-.04-.98,.09-2.01-.35-2.95,.24-.91,.03-1.09,.71-1.16,1.4-.22,2.29-.41,4.59-.6,6.89-.06,.77-.15,1.55-.14,2.32,0,.63,.32,1.13,.99,1.24,.63,.1,1.05-.22,1.23-.84,.56-.33,.73-.85,.77-1.45,.05-.87,.12-1.74,.18-2.61,.93,.11,1.22,.87,1.56,1.56,.46,.94,.82,1.94,1.35,2.83,.21,.36,.75,.64,1.18,.71,.54,.09,.92-.3,1.03-.87,.67-.38,.75-.98,.51-1.62-.29-.77-.63-1.52-1-2.26-.22-.44-.52-.83-.83-1.3,1.24-.7,1.99-1.65,1.93-3.08-.02-.4-.03-.8-.04-1.2,.69,1.39,1.41,2.77,2.05,4.19,.24,.53,.36,1.13,.41,1.71,.09,1.05,.06,2.11,.13,3.16,.04,.59,.32,1.08,.99,1.14,.65,.06,1.04-.28,1.18-.91Zm32.28-18.36c.19-.28,.54-.57,.52-.83-.01-.26-.36-.59-.64-.71-.23-.1-.59,.03-.86,.13-1.26,.48-2.51,.99-3.77,1.48-.87,.28-1.13,.76-.74,1.68,1.01,2.38,2.05,4.76,3.11,7.12,.39,.87,.94,1.05,1.78,.64,1.42-.69,2.85-1.4,4.24-2.16,.3-.17,.47-.58,.71-.87,.31-.42,.36-.92-.06-1.19-.29-.19-.83-.21-1.16-.07-1.15,.47-2.25,1.04-3.44,1.61l-.86-1.88c.78-.35,1.57-.67,2.33-1.06,.26-.13,.43-.43,.64-.65,.39-.37,.5-.85,.1-1.18-.26-.21-.8-.29-1.13-.18-.96,.32-1.88,.77-2.86,1.19l-.74-1.63c.79-.32,1.58-.62,2.35-.97,.19-.09,.32-.31,.48-.48ZM60.23,79.87c-.42,.06-.82,.11-.62,.74,.05,.16-.13,.43-.27,.59-.84,.89-.85,1.99-.66,3.05,.16,.87,.74,1.65,1.61,1.94,1.21,.4,2.46,.29,3.54-.44,.46-.31,.77-.85,1.14-1.29,1.02-.57,1.69-1.4,1.89-2.57,.48-2.69-1.73-4.92-4.21-4.23-1.17,.33-1.91,1.16-2.42,2.22Zm29.63,45.05c-.78-.08-1.1,.49-1.45,1.02-1.44,2.22-2.87,4.43-4.29,6.65-.14,.21-.28,.43-.36,.66-.21,.59,.09,1.26,.66,1.51,.59,.26,1.08,.15,1.39-.47l1.35-1.34c.43,.12,.86,.31,1.29,.35,1.2,.12,1.89,.66,1.84,1.95,0,.22,.01,.5,.14,.65,.29,.34,.62,.82,.98,.85,.34,.03,.73-.42,1.1-.66,.68-.29,.91-.82,.79-1.53-.47-2.85-.93-5.7-1.41-8.54-.22-1.27-.81-1.58-2.03-1.12Zm51.68,8.4c.52-.33,.74-.81,.41-1.33-.15-.23-.7-.46-.91-.36-1.58,.73-3.12,1.55-4.67,2.34-.82,.29-1.11,.82-.78,1.79,.84,2.49,1.73,4.97,2.64,7.44,.32,.88,.93,1.11,1.74,.66,1.58-.88,3.13-1.8,4.66-2.76,.27-.17,.37-.6,.55-.91,.32-.41,.47-.86,.08-1.29-.41-.46-.86-.21-1.28,.03-1.14,.66-2.28,1.32-3.49,2.03-.25-.68-.48-1.28-.7-1.88,.8-.45,1.63-.88,2.4-1.38,.3-.2,.5-.56,.74-.85,.42-.43,.56-.92,.14-1.41-.39-.46-.83-.16-1.23,.05-.94,.5-1.88,1-2.89,1.54-.21-.66-.39-1.2-.57-1.75,.87-.45,1.75-.88,2.6-1.36,.23-.13,.37-.41,.56-.62Zm-58.83-1.01c.54-.44,1.19-.79,1.58-1.33,1.02-1.41,1.41-3.04,1.25-4.78-.15-1.57-.98-2.6-2.53-3-.78-.2-1.55-.44-2.34-.6-.4-.08-.84-.03-1.26-.03-.73-.12-1.22,.21-1.49,.86-.87,2.11-1.74,4.22-2.57,6.34-.3,.76-.1,1.27,.66,1.59,1.24,.53,2.49,1.06,3.78,1.46,1.01,.31,2.04,.23,2.91-.51Zm-1.4,3.11c-.86-.12-1.19,.06-1.48,.86-.34,.91-.66,1.83-.98,2.75-.4-1.52-.8-3.03-1.18-4.55-.28-1.13-.62-1.4-1.77-1.36-.65-.15-1.23-.04-1.52,.61-.92,2.03-1.83,4.06-2.71,6.1-.23,.55-.09,1.1,.44,1.46,.49,.32,1,.47,1.48-.04,.59,.04,.93-.25,1.14-.78,.19-.49,.42-.97,.62-1.45,.31-.72,.61-1.45,.98-2.34,.08,.29,.11,.38,.13,.47,.49,1.92,.93,3.85,1.5,5.75,.15,.51,.63,1.01,1.09,1.32,.57,.39,1.1,.18,1.32-.48,.78-2.3,1.55-4.61,2.24-6.94,.3-1.02-.24-1.52-1.3-1.39Zm18.68,15.24c.26-.34,.72-.66,.75-1.01,.25-2.8,.44-5.6,.58-8.41,.05-1.06-.61-1.42-1.58-.98-.87,.1-1.15,.44-1.24,1.44-.1,1.19-.22,2.37-.32,3.56-.7-1.63-1.41-3.25-2.1-4.88-.42-.99-.83-1.18-1.79-.81-.86,.05-1.23,.37-1.37,1.28-.27,1.66-.5,3.32-.75,4.98-.16,1.09-.35,2.18-.48,3.27-.07,.59,.22,1.03,.81,1.2,.56,.17,1.05,.1,1.32-.51,.6-.15,.82-.57,.9-1.14,.13-.94,.29-1.87,.43-2.81,.41,.88,.8,1.78,1.24,2.64,.39,.78,.76,1.58,1.27,2.28,.66,.9,1.78,.8,2.33-.11Z" class="d"/><path d="M55.87,72.36c2.72-.14,3.68,1.16,2.75,3.76-2.3,6.47-4.3,13.04-5.2,19.86-.53,3.98-.84,8-1.05,12.01-.19,3.71-.18,7.44-.09,11.16,.06,2.44-.84,4.28-2.75,5.7-.99,.62-2.03,1.12-3.24,1.1-1.33-.02-2.36-.56-2.82-1.86-1.08-3.05-2.12-6.12-3.16-9.18-3.37-9.95-7.22-19.71-11.91-29.11-2.36-4.72-4.93-9.33-8.01-13.64-.12-.16-.22-.34-.32-.51-1.08-1.98-.11-3.78,2.15-4.02,1.63-.17,3.07,.35,4.43,1.17,2.41,1.46,4.22,3.56,5.92,5.75,4.72,6.07,8.31,12.79,11.35,19.83,.13,.3,.26,.59,.44,1.02,.28-1.35,.51-2.58,.8-3.79,1.34-5.58,3.4-10.88,6.55-15.71,1.03-1.58,2.26-2.97,4.16-3.55Z" class="e"/><path d="M160.8,81.71c1.46-1.14,2.84-2.4,4.4-3.39,2.46-1.55,5.23-1.98,8.11-1.73,1.18,.45,2.5,.69,3.53,1.37,2.65,1.77,3.28,4.47,2.9,7.48-.26,2.02-1.17,3.76-2.35,5.38-.76,.74-1.53,1.48-2.29,2.22l-.13,.15h0c-.36,.21-.72,.43-1.07,.66-2.8,1.81-5.89,2.72-9.37,3.01l.8,1.64c.58,.91,1.45,1.26,2.49,1.31,1.55,.07,2.98-.37,4.33-1.08,2.48-1.31,4.26-3.31,5.61-5.73,.98-.97,1.66-1.2,2.43-.82,.84,.42,1.1,1.23,.89,2.55-.44,2.64-1.45,5.04-2.96,7.23-.56,.64-1.12,1.29-1.67,1.93-.16,.12-.32,.24-.47,.37-2.38,2.07-5.11,3.35-8.27,3.62-5.82,.5-10.47-2.23-11.92-8.32-1.02-4.31-.33-8.46,1.52-12.4,.85-1.82,2.11-3.45,3.18-5.16h0l.16-.16h0l.19-.15Zm7.38,7.57l.16-.16h0c1.14-.51,2.79-3.24,2.71-4.45-.04-.59-.37-.78-.9-.73-1.14,.12-1.98,.76-2.74,1.55h.02l-.13,.09c-1.55,1.66-2.45,3.6-2.78,5.81l.2,.21c.81-.47,1.63-.94,2.44-1.41l1.03-.92h-.01Z" class="e"/><path d="M60.73,139.3c.62-.44,1.09,0,1.57,.29,2.45,1.48,4.84,3.08,7.36,4.43,8.54,4.55,17.59,7.69,27.18,9.12,6.81,1.01,13.63,1.02,20.46,.11,14.23-1.89,27.06-7.3,38.86-15.32,3.31-2.25,6.56-4.58,9.41-7.42,.46-.46,.96-1.03,1.77-.61,.38,.54,.08,.98-.26,1.35-1.79,1.94-3.5,3.96-5.41,5.78-8.33,7.95-17.93,13.88-28.8,17.71-9.1,3.21-18.47,4.65-28.1,4.09-16.22-.94-30.39-7.04-42.83-17.36-.4-.34-.82-.69-1.1-1.13-.17-.26-.09-.69-.12-1.04Z" class="e"/><path d="M219.99,57.67c.47,.16,1.32,.27,1.35,.49,.07,.49-.12,1.19-.47,1.54-1.48,1.5-2.94,3.05-4.61,4.32-7.24,5.54-15.06,10.14-23.54,13.53-2.18,.87-4.51,1.37-6.79,1.93-.73,.18-1.56,.11-2.32-.02-1.82-.31-2.74-1.77-2.37-3.61,.23-1.15,.8-2.11,1.56-2.97,1.97-2.22,4.43-3.78,7.01-5.17,6.44-3.49,13.3-5.95,20.33-7.89,2.8-.77,5.68-1.29,8.52-1.91,.41-.09,.85-.09,1.27-.12l.05-.12Z" class="d"/><path d="M97.66,20.97c.12-5.64,.37-11.26,1.17-16.84,.16-1.11,.44-2.21,.73-3.31,.08-.3,.37-.55,.56-.82,.23,.22,.55,.39,.67,.66,.66,1.38,1.37,2.75,1.9,4.18,2.62,7.14,4.5,14.49,5.56,22.02,.4,2.85,.53,5.75,.62,8.64,.06,2.06-.22,4.12-1.01,6.06-.58,1.43-1.46,2.58-3.04,3.01-1.09,.3-2.04,.06-2.85-.71-1.47-1.4-2.03-3.27-2.53-5.14-.82-3.04-1.2-6.16-1.38-9.3-.16-2.81-.26-5.62-.39-8.43Z" class="d"/><path d="M219.23,125.66c-5.44-.36-10.7-1.43-15.91-2.82-4.4-1.17-8.75-2.54-12.83-4.59-1.76-.89-3.37-2.08-5.04-3.15-.21-.13-.37-.34-.55-.52-2.42-2.41-.87-5.04,1.6-5.77,1.76-.52,3.54-.42,5.31-.13,5.64,.92,10.86,3.09,16,5.47,4.64,2.15,9.14,4.55,13.37,7.44,.7,.48,1.38,1.02,2.01,1.59,.73,.67,.64,1.44-.31,1.73-1.19,.37-2.44,.51-3.66,.74Z" class="d"/><path d="M53.3,61.59c-.06,1.56-.28,2.94-1.21,4.1-.99,1.25-2.16,1.48-3.51,.64-1.49-.93-2.5-2.32-3.46-3.74-2.67-3.96-4.63-8.29-6.43-12.69-2.07-5.05-3.91-10.18-5.22-15.48-.28-1.14-.47-2.31-.63-3.48-.05-.33,.15-.69,.24-1.04,.32,.11,.72,.14,.95,.35,1.47,1.4,3,2.76,4.34,4.29,4.46,5.11,8.37,10.62,11.52,16.65,1.42,2.72,2.64,5.53,3.18,8.59,.11,.64,.17,1.29,.24,1.81Z" class="d"/><path d="M175.35,14.26c-.12,.65-.19,1.32-.37,1.96-1.26,4.44-3.14,8.64-5.14,12.78-2.25,4.67-4.69,9.25-7.88,13.36-1.15,1.48-2.51,2.8-3.87,4.1-.52,.51-1.25,.86-1.94,1.12-2.2,.84-4.34-.6-4.48-2.96-.15-2.41,.77-4.53,1.83-6.6,2.18-4.23,5.06-7.97,8.14-11.58,3.23-3.79,6.65-7.41,10.5-10.6,.64-.53,1.33-.99,2.03-1.43,.28-.18,.63-.23,.95-.34l.23,.19Z" class="d"/><path d="M101.5,165.03c-.27,4.14-1,8.17-1.94,12.16-1.33,5.66-2.9,11.24-5.31,16.55-.33,.73-.76,1.42-1.23,2.07-.47,.65-.94,.58-1.16-.22-.43-1.57-.87-3.16-1.04-4.77-.34-3.3-.67-6.61-.69-9.92-.04-5.33,.22-10.66,2.04-15.77,.55-1.55,1.3-3,2.52-4.16,1.33-1.26,2.9-1.63,4.67-1.25,.85,.18,1.32,.79,1.49,1.54,.29,1.24,.44,2.51,.65,3.77Z" class="d"/><path d="M50.08,142.62c2.07,.13,3.65,2.25,3.32,4.5-.33,2.32-1.45,4.28-2.82,6.1-4.57,6.06-10.25,10.9-16.66,14.91-.63,.4-1.33,.71-2.04,.97-.9,.33-1.29,0-1.04-.92,.31-1.16,.67-2.32,1.16-3.42,2.93-6.48,6.61-12.48,11.4-17.77,1.34-1.48,2.78-2.86,4.62-3.71,.65-.3,1.37-.45,2.05-.67Z" class="d"/><path d="M153.37,148.52c0-2.07,2.02-3.61,4.11-3.11,1.12,.27,2.23,.8,3.18,1.45,2.07,1.4,3.61,3.35,5.03,5.37,3.73,5.32,6.64,11.07,8.71,17.24,.29,.85,.42,1.75,.57,2.64,.12,.71-.38,.87-.89,.69-.68-.24-1.39-.52-1.95-.95-1.75-1.35-3.51-2.7-5.13-4.2-4.39-4.06-8.35-8.51-11.5-13.62-.95-1.54-1.78-3.16-2.07-4.98-.04-.22-.05-.45-.06-.52Z" class="d"/><path d="M12.27,108.57c5.98,.07,10.9,.37,15.69,1.7,2.27,.63,4.49,1.41,6.21,3.11,.59,.58,1.08,1.32,1.46,2.07,.48,.96,.16,1.87-.85,2.22-1.1,.38-2.28,.66-3.43,.72-4.38,.21-8.67-.5-12.95-1.34-5.16-1.02-10.26-2.25-15.15-4.24-.95-.39-1.86-.89-2.7-1.48-.79-.55-.7-1.14,.23-1.36,1.78-.43,3.58-.83,5.39-1.02,2.37-.25,4.77-.3,6.11-.38Z" class="d"/><path d="M177.74,93c-1.35,2.42-3.13,4.42-5.61,5.73-1.35,.71-2.78,1.14-4.33,1.08-1.03-.04-1.9-.4-2.49-1.31,.32-.12,.63-.26,.96-.35,.57-.16,1.15-.27,1.71-.45,.69-.22,1.39-.45,2.04-.77,1.05-.51,2.07-1.08,3.07-1.68,.49-.29,.95-.67,1.35-1.09,.25-.26,.35-.65,.51-.99h0l.13-.14c.76-.74,1.53-1.48,2.29-2.22,.12,.73,.24,1.46,.37,2.19Z" class="d"/><path d="M194.03,87.44h-.9v-4.77h1.43c.21,.97,.43,1.96,.64,2.94h.11c.15-.72,.37-1.42,.44-2.13,.07-.71,.36-.98,1.05-.85,.17,.03,.34,.02,.56,.04v4.77h-.89v-2.78l-.16-.03c-.22,.94-.45,1.87-.67,2.78-.61,.19-.85,0-.94-.6-.12-.81-.36-1.6-.68-2.39v3.01Z" class="e"/><path d="M188.13,85.62c.21-.97,.42-1.94,.64-2.94h1.41v4.76l-.82,.05v-3.07l-.17-.03c-.19,.82-.39,1.63-.58,2.45q-.15,.63-.91,.62c-.23-.96-.46-1.95-.69-2.94h-.12v2.92h-.92v-4.77h1.42l.62,2.93,.12,.02Z" class="e"/><path d="M200.17,85.65h.88c.17,1.08-.25,1.78-1.14,1.92-1.06,.16-1.75-.31-1.87-1.43-.09-.74-.08-1.51,.02-2.25,.15-1.07,.75-1.44,1.89-1.29,.8,.1,1.15,.63,1.11,1.68h-.94c-.02-.17,0-.37-.08-.49-.13-.18-.35-.42-.51-.41-.18,.02-.45,.29-.47,.46-.05,.8-.07,1.6-.01,2.4,.01,.2,.31,.39,.48,.58,.18-.2,.39-.38,.54-.6,.09-.13,.06-.34,.1-.57Z" class="e"/><path d="M184.52,87.44h-1.07v-3.92l-.94-.04v-.81h2.99v.81h-.97v3.97Z" class="e"/><path d="M190.46,87.74c.54-1.78,.98-3.32,1.48-4.83,.07-.2,.46-.29,.71-.43l.15,.16c-.47,1.55-.91,3.1-1.42,4.63-.06,.19-.48,.25-.91,.47Z" class="e"/><path d="M81.94,82.43c-.24,3.21-.59,6.41-.69,9.62-.11,3.64-.06,7.29,.04,10.93,.04,1.23,.41,2.47,.72,3.68,.36,1.4,1.32,2.14,2.76,2.29,1.69,.42,2.79,1.45,3.3,3.12-.02,.82,.05,1.65-.08,2.45-.22,1.39-1.12,2.35-2.23,3.14-3.9,1.68-7.51,1.26-10.72-1.59-1.77-1.57-2.69-3.67-3.28-5.92-1.36-5.19-1.16-10.46-.82-15.73,.16-2.62,.48-5.23,.72-7.81-.69,.34-1.37,.8-2.12,1.01-1.67,.47-3.03-.89-2.67-2.57,.04-.21,.05-.43,.07-.64h-.01l.17-.16c1.22-1.59,2.45-3.19,3.67-4.78,.03-.01,.04-.03,.06-.05h0c.71-.72,1.44-1.41,2.12-2.15,.22-.24,.39-.57,.47-.89,.77-3.21,1.45-6.45,2.3-9.63,.72-2.66,1.47-5.33,3.15-7.6,.68-.45,1.31-1.06,2.05-1.33,1.59-.56,3.22,.4,3.33,2.06,.11,1.79-.04,3.61-.21,5.4-.19,2.02-.54,4.03-.82,6.02,1.83-.64,3.61-1.34,5.43-1.88,3.42-1.01,6.91-1.64,10.49-1.31,.89,.08,1.8,.3,2.61,.66,2.56,1.16,2.83,4.18,.58,5.86-.12,.09-.24,.19-.35,.28-.77,.19-1.54,.49-2.32,.55-5.46,.42-10.71,1.66-15.69,3.99q-1.87,.88-2.03,2.97Z" class="e"/><path d="M120.39,57.08c.86-1.22,1.82-2.28,3.43-2.47,1.67-.19,2.98,.69,3.07,2.35,.07,1.36-.13,2.75-.34,4.11-1.19,7.55-2.19,15.13-2.67,22.76-.28,4.51-.45,9.04-.54,13.56-.05,2.35,0,4.73,.68,7.03,.52,1.77,1.38,3.2,3.27,3.83,.55,.19,.98,.75,1.47,1.14l.12,.12h-.01c.61,1.28,.7,2.62,.36,3.98-1.04,4.18-5.51,5.13-8.77,3.84-3.46-1.37-5.53-4.04-6.69-7.48-.96-2.85-1.24-5.82-1.41-8.81v-.02l-.06-.91c0-1.59,0-3.19,0-4.78,.03-.52,.06-1.03,.1-1.55,.2-2.6,.34-5.2,.63-7.79,.27-2.44,.61-4.88,1.06-7.29,.61-3.23,1.3-6.45,2.06-9.65,.97-4.08,2.31-8.05,4.13-11.84h-.01l.13-.14Z" class="e"/><path d="M153.45,75.77c-.52,2.99-1.2,5.97-1.53,8.98-.44,4.02-.63,8.07-.87,12.1-.05,.79,.08,1.61,.25,2.39,.22,1.04,.82,1.44,1.88,1.51,.42,.03,.84,.15,1.25,.23,.75,.42,1.35,1.02,1.54,1.85,.18,.77,.17,1.58,.24,2.37-.33,1.2-.94,2.21-1.98,2.93-.14,.06-.28,.11-.42,.17-5.5,2.41-11.35-.5-12.64-6.34-.71-3.2-.35-6.45-.17-9.67,.09-1.68,.44-3.36,.74-5.02,.46-2.55,.93-5.1,1.49-7.62,.52-2.33,1.15-4.64,1.76-7.04-.66-.09-1.36-.21-2.06-.28-1.73-.17-3.46-.28-5.18-.48-2.5-.29-3.54-1.92-2.74-4.2,1.05-1.8,2.84-2.25,4.69-2.38,1.97-.14,3.95-.05,5.93-.06,.45,.05,.9,.07,1.34,.17,.48,.1,.69-.07,.9-.5,.59-1.21,1.25-2.38,1.88-3.56,.57-.44,1.09-1,1.73-1.29,1.93-.89,3.9,.41,3.97,2.67,.04,1.42-.2,2.84-.32,4.35,.2,.07,.5,.19,.8,.29,2.93,.98,5.65,2.37,8.13,4.23,.52,.39,1.01,.84,1.42,1.34,1.3,1.56,.88,3.48-1.39,3.7-.76-.14-1.53-.24-2.28-.43-1.19-.31-2.35-.72-3.53-1.03-1.47-.38-2.96-.71-4.51-1.08l-.31,1.72Z" class="e"/><path d="M99.68,106.17c-.87,.97-1.75,1.95-2.62,2.92-.04,.03-.07,.07-.07,.12v-.02l-.16,.16h.01l-.46,.3h.01c-.31,.15-.62,.32-.93,.48-2.76,1.41-5.71,.95-7.89-1.23-1.2-1.2-1.98-2.65-2.5-4.24-1.01-3.07-1.1-6.22-.61-9.38,.73-4.69,2.25-9.05,5.31-12.78,.12-.14,.17-.34,.25-.51,2.78-2.53,5.79-4.65,9.78-4.48,3.2,.13,5.98,1.22,7.58,4.24,.97,1.83,1.07,3.85,1.07,5.88,0,4.05,0,8.1,.06,12.14,.03,1.7,.56,3.22,2.08,4.21,1.24,1.37,1.38,2.89,.62,4.53l-.9,.96c-1.48,.95-3.02,.93-4.59,.24-1.99-.88-3.2-2.52-4.2-4.35-.24-.44-.44-.89-.68-1.37l-1.17,2.18Zm-4.84-5.25c1.17-.45,1.75-1.47,2.3-2.49,1.14-2.14,1.58-4.49,1.97-6.85,.31-1.86,.52-3.74,.16-5.62-.17-.86-.48-1.03-1.26-.64-1.12,.55-1.9,1.47-2.53,2.52-.1,.14-.22,.27-.3,.42-1.62,2.88-2.24,6-2.15,9.27,.03,.94,.26,1.88,.52,2.79,.16,.56,.61,.94,1.29,.6Z" class="e"/><path d="M59.51,88.9c.41-.47,.78-.99,1.24-1.4,.86-.78,1.87-1.07,3-.67,1.11,.39,1.64,1.26,1.68,2.37,.05,1.45-.06,2.91-.02,4.37,.11,3.74,.26,7.48,.44,11.22,.03,.69,.24,1.39,.45,2.05,.31,.97,.54,1.08,1.54,1,.23-.02,.45-.02,.68-.03,1.26,.23,2.01,1.06,2.44,2.2,.56,1.49,.31,2.95-.28,4.37-.43,.54-.87,1.07-1.3,1.61-.09,.04-.18,.08-.25,.13-1.79,1.33-3.87,1.8-6,1.49-3.11-.44-5.15-2.37-6.14-5.32-.41-1.2-.63-2.48-.8-3.74-.18-1.35-.29-2.72-.29-4.08,0-1.16,.17-2.32,.3-3.48,.13-1.22,.21-2.46,.48-3.66,.65-2.91,1.38-5.8,2.83-8.45Z" class="e"/><path d="M130.66,82.65c.41-.4,.78-.87,1.25-1.18,1.48-1,3.46-.35,3.98,1.36,.26,.87,.36,1.83,.33,2.75-.11,3.39-.32,6.78-.43,10.17-.03,1,.08,2.01,.21,3,.12,.98,.39,1.14,1.33,1.31,.63,.11,1.23,.39,1.84,.59,1.32,1.27,1.14,2.87,.96,4.47-.48,1.24-1.26,2.22-2.47,2.82-3.12,1.15-6.03,.84-8.52-1.45-1.94-1.78-2.41-4.22-2.52-6.71-.12-2.79,.16-5.57,.77-8.29,.68-3.08,1.49-6.14,3.26-8.83Z" class="e"/><path d="M100.64,133.1c-.06,.87-.13,1.74-.18,2.61-.04,.6-.21,1.13-.77,1.45-1.06-.03-1.36-.34-1.34-1.43,0-.2,.02-.4,.04-.6,.14-1.74,.25-3.49,.43-5.23,.13-1.26,.36-2.51,.55-3.76,.94-.6,1.96-.16,2.95-.24,.3-.03,.6,.06,.9,.04,1.29-.1,2.31,.32,2.98,1.47h0l.15,.46h0c.01,.4,.02,.8,.04,1.2,.06,1.43-.69,2.39-1.93,3.08,.3,.47,.61,.86,.83,1.3,.37,.74,.7,1.49,1,2.26,.25,.64,.16,1.24-.51,1.62-.74,.17-1.19-.17-1.49-.82-.45-.98-.93-1.94-1.38-2.92-.42-.94-1.12-1.37-2.22-1.22l-.04,.72Zm.33-4.74l-.17,2.1h2.52c.81-.27,1.16-.78,1.06-1.54-.09-.7-.52-1.07-1.36-1.12-.52-.03-1.05,0-1.57-.03-.48-.03-.56,.2-.48,.59Z" class="e"/><path d="M99.75,140.25c.96-.45,1.63-.08,1.58,.98-.14,2.81-.34,5.61-.58,8.41-.03,.36-.49,.68-.75,1.01-.94,.1-1.52-.37-1.89-1.18-.82-1.75-1.64-3.5-2.45-5.24-.07-.15-.15-.3-.31-.6l-.19,2.21c-.15,.94-.31,1.87-.43,2.81-.08,.57-.3,1-.9,1.14-1.07-.23-1.29-.57-1.13-1.63,.29-1.88,.53-3.78,.86-5.66,.17-.99,.49-1.96,.74-2.94,.97-.37,1.37-.18,1.79,.81,.69,1.63,1.4,3.25,2.1,4.88,.22,.49,.45,.99,.67,1.48,.24-1.19,.29-2.34,.42-3.48,.11-1.01,.32-2,.48-3Z" class="e"/><path d="M127.1,129.88c.21,.93,.4,1.86,.63,2.79,.15,.61,.06,1.14-.38,1.6-1.03,.24-1.42,.02-1.66-1.05-.63-2.76-1.25-5.53-1.83-8.3-.08-.38,.1-.81,.17-1.22h.02s.05-.04,.06-.07c1.35-.38,2.68-.85,4.05-1.1,1.54-.28,2.77,.89,3,2.66,.12,.92-.05,1.75-.7,2.44-.11,.12-.18,.28-.21,.33,.87,.92,1.71,1.77,2.51,2.66,.5,.55,.54,1.16,.04,1.76-.59,.35-1.08,.22-1.53-.28-.72-.8-1.43-1.6-2.18-2.37-.71-.73-1.12-.78-2.08-.35l.11,.51Zm1.37-3c.8-.41,.99-.85,.72-1.63-.25-.74-.68-.97-1.54-.78-.49,.11-.98,.25-1.44,.42-.11,.04-.13,.3-.19,.46l.5,2.25,1.94-.72Z" class="e"/><path d="M85.72,137.61c2.19-.41,4.05,.15,5.36,2.01,1.27,1.82,1.19,5.08-.16,6.84-.4,.52-1.03,.85-1.55,1.27-.09,.05-.18,.1-.27,.14h.02c-.24,0-.49,0-.73,0-2.71,.12-5.3-1.85-5.72-4.35-.4-2.35,.84-4.75,3.05-5.92Zm1.99,8.33c.4-.17,.89-.25,1.18-.53,1.12-1.06,1.32-3.67,.44-4.93-.74-1.06-1.97-1.38-3.01-.76-1.48,.93-2.05,3.57-1.09,5.05,.55,.86,1.57,1.34,2.48,1.18Z" class="e"/><path d="M75.89,133.12c1.15-.04,1.49,.23,1.77,1.36,.38,1.52,.79,3.03,1.18,4.55,.12,.51,.23,1.01,.35,1.52,.6-1.35,1.03-2.7,1.51-4.04,.14-.39,.4-.73,.61-1.09,1.06-.13,1.6,.37,1.3,1.39-.69,2.33-1.46,4.64-2.24,6.94-.22,.66-.76,.87-1.32,.48-.46-.31-.94-.81-1.09-1.32-.57-1.9-1.01-3.83-1.5-5.75-.02-.09-.05-.18-.13-.47-.37,.89-.67,1.62-.98,2.34-.2,.49-.43,.96-.62,1.45-.21,.53-.55,.82-1.14,.78-1.03-.55-1.15-.93-.69-1.98,.75-1.69,1.46-3.4,2.22-5.09,.18-.39,.51-.71,.77-1.06Z" class="e"/><path d="M79.41,122.57c.42,0,.85-.05,1.26,.03,.79,.16,1.56,.4,2.34,.6,1.55,.4,2.39,1.43,2.53,3,.16,1.74-.23,3.37-1.25,4.78-.39,.54-1.05,.89-1.58,1.33-1.21,.25-2.34-.04-3.44-.5-.6-.25-1.21-.48-1.82-.72-1.19-.48-1.35-.83-.89-2,.74-1.87,1.48-3.73,2.25-5.58,.14-.34,.4-.62,.6-.94Zm1.75,7.93c.75,.03,1.26-.41,1.55-1,.35-.74,.66-1.53,.8-2.33,.24-1.39-.22-2.03-1.57-2.48-.4-.13-.81-.23-1.27-.36l-.18,.58-1.89,4.95,2.57,.64Z" class="e"/><path d="M143.38,130.36c1.16-.6,2.29-1.26,3.48-1.79,1.6-.72,3.46,.24,3.66,1.96,.08,.7-.31,1.45-.48,2.13,.82,.34,1.81,.7,2.74,1.15,.86,.41,.9,.68,.43,1.55-.57,.42-1.16,.39-1.77,.1-.79-.37-1.59-.73-2.39-1.1-.65-.3-1.27-.26-1.83,.19-.11,.09-.08,.34-.12,.51,.34,.66,.66,1.33,1.03,1.97,.32,.56,.33,1.07-.08,1.58-.95,.49-1.34,.4-1.8-.54-.99-2.02-1.99-4.03-2.91-6.08-.19-.43-.08-.99-.1-1.49h-.01l.16-.15Zm4.7,1.66h0c.57-.21,.71-.62,.47-1.16-.26-.6-.75-.84-1.34-.61-.64,.26-1.25,.62-1.85,.96-.06,.03-.02,.22-.03,.33l.83,1.8c.53-.31,1.01-.58,1.47-.87,.12-.07,.2-.21,.29-.31l.18-.15Z" class="e"/><path d="M115.9,148.63c-.28,.66-.18,1.5-.96,1.91-1.12,.05-1.54-.48-1.26-1.6,.56-2.23,1.11-4.47,1.68-6.7,.22-.84,.47-1.68,.71-2.51,.96-.58,1.56-.43,2.08,.56,1.35,2.54,2.68,5.09,4.02,7.63,.35,.66,.34,1.24-.31,1.71l-.12,.08h0c-.65,.08-1.1-.2-1.4-.77-.18-.33-.33-.68-.58-.95-.18-.2-.49-.39-.73-.38-.79,.04-1.58,.22-2.38,.27-.53,.03-.78,.24-.78,.76Zm.92-4.54l-.41,2.05,1.26-.22,1.01-.12-1.57-3.49-.3,1.77Z" class="e"/><path d="M136.36,133.98c1.55-.79,3.09-1.61,4.67-2.34,.21-.1,.76,.13,.91,.36,.33,.51,.12,1-.41,1.33-.97,.49-1.96,.97-2.92,1.48-.13,.07-.17,.33-.24,.5,.18,.54,.35,1.09,.57,1.75,1.01-.54,1.95-1.04,2.89-1.54,.4-.21,.84-.5,1.23-.05,.41,.48,.28,.98-.14,1.41-.99,.54-1.97,1.09-2.97,1.6-.35,.18-.36,.35-.17,.63,.22,.6,.45,1.2,.7,1.88,1.22-.71,2.36-1.36,3.49-2.03,.42-.25,.87-.5,1.28-.03,.38,.43,.24,.88-.08,1.29-1.58,.93-3.15,1.87-4.74,2.77-.81,.46-1.3,.3-1.61-.54-.88-2.4-1.73-4.81-2.55-7.24-.12-.36,.05-.81,.09-1.22Z" class="e"/><path d="M87.17,132.96c-.45,.45-.9,.89-1.35,1.34-1.14-.36-1.4-1.04-.75-2.03,.39-.58,.82-1.14,1.2-1.73,1.21-1.87,2.4-3.74,3.6-5.62,1.22-.45,1.82-.14,2.03,1.12,.49,2.84,.94,5.69,1.41,8.54,.12,.71-.11,1.23-.79,1.53-.74,0-1.08-.42-1.21-1.08-.08-.42-.18-.84-.2-1.26-.02-.51-.22-.75-.73-.84-.69-.12-1.38-.26-2.03-.5-.62-.22-1-.12-1.18,.53Zm2.36-4.08l-1.03,1.76,1.23,.28,1.02,.21-.44-3.76-.77,1.51Z" class="e"/><path d="M135.33,72.21l2.2,1.05c1.61,2.39,.97,4.91-1.58,6.27-.22,.05-.44,.11-.66,.15-2.32,.44-4.13-.96-4.07-3.26,.02-.7,.3-1.4,.46-2.1,.8-1.42,2.03-2.1,3.65-2.12Z" class="e"/><path d="M131.92,121.32c1.42-.51,2.82-1.06,4.26-1.5,.31-.09,.86,.09,1.08,.33,.35,.4,.24,.9-.26,1.21l-.12,.09h.01c-.99,.34-1.97,.68-2.95,1.04-.07,.03-.07,.23-.1,.36,.17,.57,.34,1.14,.54,1.82,.97-.38,1.9-.73,2.82-1.09,.44-.17,.89-.31,1.22,.16,.33,.48,.27,.94-.17,1.34-.95,.38-1.89,.76-2.85,1.13-.32,.12-.48,.26-.24,.59l.65,2.12c1.18-.52,2.28-.99,3.37-1.48,.46-.21,.92-.37,1.28,.11,.34,.46,.3,.93-.11,1.36-1.41,.64-2.82,1.3-4.24,1.93-1.28,.57-1.67,.38-2.09-.95-.71-2.24-1.43-4.48-2.1-6.73-.16-.53-.13-1.12-.18-1.69h0l.18-.13Z" class="e"/><path d="M60.23,79.87c.51-1.06,1.24-1.89,2.42-2.22,2.48-.69,4.68,1.53,4.21,4.23-.21,1.18-.87,2-1.89,2.57-.21,.07-.42,.15-.64,.21-2.17,.6-4-.32-4.29-2.28-.12-.81,.12-1.67,.2-2.51Z" class="e"/><path d="M142.21,123.75l.86,1.88c1.19-.57,2.29-1.14,3.44-1.61,.33-.14,.87-.11,1.16,.07,.42,.27,.37,.77,.06,1.19-1.51,.75-3.01,1.5-4.52,2.23-.9,.43-1.33,.28-1.74-.62-.99-2.22-1.99-4.44-2.92-6.69-.15-.37,.04-.88,.08-1.33,1.26-.5,2.51-1,3.77-1.48,.27-.1,.63-.23,.86-.13,.28,.12,.63,.45,.64,.71,.01,.27-.33,.56-.52,.83-.84,.34-1.68,.67-2.5,1.03-.14,.06-.22,.27-.33,.42l.74,1.63c.98-.42,1.9-.87,2.86-1.19,.33-.11,.87-.04,1.13,.18,.4,.33,.29,.81-.1,1.18-.94,.41-1.88,.81-2.81,1.25-.1,.05-.11,.31-.16,.47Z" class="e"/><path d="M119.84,131.58c.14,1.01,.35,2.02,.39,3.04,.02,.47-.29,.95-.45,1.42-.98,.16-1.36-.12-1.49-1.15-.31-2.33-.62-4.67-.88-7.01-.09-.88-.02-1.78-.03-2.67v.02l.08-.12c1.51-.35,3.01-.73,4.53-1.02,.21-.04,.6,.32,.74,.59,.27,.53,0,.96-.47,1.27-.91,.18-1.82,.36-2.73,.54-.32,.06-.52,.19-.33,.55l.23,2.04c.81-.17,1.53-.34,2.26-.48,.48-.09,1.01-.26,1.31,.36,.27,.56,.11,1.02-.36,1.39-.78,.16-1.55,.34-2.33,.48-.48,.08-.64,.3-.47,.75Z" class="e"/><path d="M112.34,125.68c.32-.07,.74-.29,.92-.16,.25,.18,.41,.6,.45,.94,.04,.3-.1,.64-.21,.94-.13,.4-.27,.81-.47,1.19-1.16,2.26-1.7,4.62-1.41,7.17,.05,.44-.35,.93-.54,1.39-1.02,.06-1.36-.23-1.41-1.26-.03-.55-.03-1.11,0-1.66,.06-1.25-.16-2.41-.83-3.51-.59-.98-1.1-2.03-1.51-3.11-.18-.48,0-1.09,0-1.64,.82-.45,1.07-.39,1.48,.42,.48,.93,.95,1.88,1.43,2.82,.08,.19,.17,.39,.31,.73l1.76-4.26Z" class="e"/><path d="M124.95,138.1c.56-.2,1.12-.4,1.68-.58,1.3-.42,2.62-.81,3.9-1.27,.67-.24,1.16-.15,1.5,.5l.03,.21c-.18,.37-.35,.75-.53,1.12-.49,.17-1,.32-1.47,.54-.14,.06-.18,.33-.27,.5,.56,2.18,1.12,4.37,1.7,6.55,.16,.61,.25,1.19-.26,1.68-.04,.02-.08,.05-.09,.09h.01c-.94,.22-1.34,0-1.61-.94-.19-.65-.34-1.31-.51-1.96-.42-1.71-.84-3.43-1.27-5.17-.51,.13-.94,.3-1.38,.34-.44,.03-1.12,.08-1.28-.16-.24-.36-.12-.95-.15-1.45Z" class="e"/><path d="M124.17,140.19c.23,1.3,.43,2.61,.68,3.91,.23,1.16,.51,2.31,.75,3.46,.18,.86-.68,2.03-1.56,2.1-.7,.06-.88-.47-1-1-.21-.95-.4-1.9-.59-2.86-.36-1.88-.7-3.77-1.06-5.66-.13-.7,.73-1.88,1.43-1.83,.31,.02,.64,.32,.88,.57,.17,.18,.21,.5,.3,.76l.03,.17,.15,.37h-.01Z" class="e"/><path d="M106.46,140.39c.99-.45,1.57-.11,1.58,.97,.02,2.22,0,4.43,0,6.65,0,.27,0,.55,0,.96,1.22-.06,2.39-.16,3.55-.14,.42,0,.84,.32,1.25,.49-.05,.33-.1,.66-.15,.99l-.47,.29c-1.63,.05-3.26,.12-4.89,.16-1.12,.02-1.44-.31-1.42-1.43,.04-2.54,.09-5.07,.16-7.61,.01-.41,.18-.82,.28-1.23h-.02l.11-.09Z" class="e"/><path d="M95.9,125.7c1-.48,1.61-.08,1.51,1.07-.18,2.15-.43,4.29-.65,6.44-.07,.72-.16,1.45-.23,2.17-.06,.58-.25,1.07-.83,1.33-1.05-.08-1.39-.58-1.23-1.76,.25-1.91,.45-3.83,.73-5.74,.17-1.18,.46-2.34,.69-3.51Z" class="e"/><path d="M132.95,135.24c.83-.54,1.36-.41,1.67,.52,.88,2.59,1.75,5.18,2.54,7.8,.13,.42-.18,.96-.28,1.45-.96,.34-1.36,.19-1.66-.76-.8-2.53-1.59-5.07-2.32-7.62-.12-.42,.03-.93,.05-1.39Z" class="e"/><path d="M167.15,90.18c-.81,.47-1.63,.94-2.44,1.41l-.2-.21c.32-2.21,1.23-4.16,2.78-5.81,.04-.03,.09-.06,.13-.1h1.95c.23,1.17-.03,2.13-.78,2.99-.15,.17-.17,.44-.26,.66h0l-.16,.15h.01l-1.03,.91Z" class="d"/><path d="M112.3,100.12c0-1.59,0-3.19,0-4.78,0,1.6,0,3.19,0,4.78Z" class="d"/><polygon points="112.36 101.05 112.33 101.04 112.36 101.03 112.36 101.05" class="d"/><path d="M94.84,100.92c-.68,.34-1.12-.04-1.29-.6-.26-.91-.49-1.85-.52-2.79-.1-3.27,.53-6.39,2.15-9.27,.08-.15,.2-.28,.3-.42,.47-.26,1.03-.56,1.4-.01,.27,.41,.41,1.02,.36,1.51-.17,1.68-.35,3.38-.71,5.03-.48,2.2-1.12,4.37-1.69,6.55Z" class="d"/><path d="M103.32,130.45h-2.52l.17-2.1c.28,.01,.55,.03,.83,.03,1.58,.04,1.97,.57,1.52,2.06Z" class="d"/><path d="M106.2,127.41l.15,.47-.15-.47Z" class="d"/><path d="M128.47,126.88l-1.94,.72-.5-2.25c.41-.11,.83-.2,1.24-.32,.69-.2,1.08,.15,1.24,.75,.09,.34-.01,.73-.03,1.1Z" class="d"/><path d="M87.71,145.94c-.91,.16-1.93-.32-2.48-1.18-.95-1.47-.38-4.11,1.09-5.05,1.29,.12,2.22,.74,2.46,2.04,.28,1.53,.08,3-1.07,4.19Z" class="d"/><path d="M81.17,130.5l-2.57-.64,1.89-4.95c.3,.11,.62,.21,.91,.34,.9,.39,1.31,1.04,1.18,1.94-.17,1.23-.53,2.39-1.42,3.31Z" class="d"/><path d="M147.91,132.18c-.1,.11-.18,.24-.29,.31-.46,.29-.94,.56-1.47,.87-.29-.63-.56-1.21-.83-1.8,.28-.16,.56-.33,.85-.48,1.16-.61,1.73-.32,1.91,.96h0l-.18,.14Z" class="d"/><path d="M116.82,144.1c.29,.61,.57,1.22,.86,1.84-.38,.06-.76,.13-1.26,.22l.41-2.05Z" class="d"/><path d="M89.53,128.88c.06,.68,.13,1.36,.19,2.04-.38-.09-.76-.17-1.23-.28l1.03-1.76Z" class="d"/><path d="M124.03,139.82l.15,.37-.15-.37Z" class="d"/></g></g></g></svg>