<svg xmlns="http://www.w3.org/2000/svg" viewBox="0 0 840.104 130.464"><g id="b"><g id="c"><g><g><path fill="none" d="M166.467,107.71h15.583c-2.516-2.262-5.02-4.561-7.481-6.821-.966-.887-1.923-1.765-2.869-2.631-.068,.486-.154,.919-.242,1.285-.75,3.105-2.468,5.861-4.99,8.167Z"/><path fill="none" d="M61.352,56.511c7.628-.459,16.6-5.332,18.204-13.456,1.04-5.267-1.158-11.39-5.88-16.378-4.079-4.308-9.501-7.45-14.588-10.175-10.524,9.341-18.61,19.729-24.496,31.505,8.112,3.99,18.999,8.973,26.761,8.504Zm-.351-6.859c-3.427,1.006-6.813-.247-7.562-2.799-.749-2.552,1.423-5.436,4.85-6.441,3.427-1.006,6.813,.247,7.562,2.799,.749,2.552-1.423,5.436-4.85,6.441Zm-1.8-27.136c3.923,1.781,10.313,4.94,13.876,13.232,1.692,3.939-.176,8.271-3.848,11.34,.957-1.911,1.239-4.038,.639-6.083-1.438-4.9-7.379-7.47-13.27-5.741-5.891,1.729-9.501,7.102-8.063,12.002,.344,1.173,.949,2.211,1.747,3.09-3.975-.889-7.579-2.453-9.778-4.514,7.475-10.295,13.169-17.798,18.697-23.327Z"/><path fill="#eb422e" d="M23.351,55.802c-5.634,15.2-8.6,32.965-9.335,55.908-.064,1.995,1.501,3.663,3.496,3.727,.039,.001,.078,.002,.118,.002,1.942,0,3.547-1.543,3.61-3.498,.709-22.14,3.533-39.18,8.888-53.627,.466-1.258,.953-2.5,1.462-3.728,8.799,4.322,20.695,9.711,30.196,9.14,5.577-.336,11.111-2.29,15.584-5.503,4.999-3.59,8.206-8.351,9.275-13.768,1.492-7.559-1.394-16.062-7.722-22.746-5.489-5.797-12.783-9.657-18.644-12.757-1.309-.692-2.908-.516-4.035,.445-15.443,13.176-26.202,28.356-32.892,46.405ZM59.087,16.503c5.087,2.726,10.509,5.867,14.588,10.175,4.722,4.988,6.92,11.11,5.88,16.378-1.604,8.124-10.576,12.996-18.204,13.456-7.762,.469-18.649-4.514-26.761-8.504,5.887-11.776,13.972-22.164,24.496-31.505Z"/><path fill="#f59745" d="M38.535,65.575c-1.941-.463-3.89,.735-4.354,2.676-3.769,15.791-5.619,24.234-6.472,43.413-.089,1.994,1.456,3.682,3.449,3.77,.055,.002,.109,.004,.163,.004,1.922,0,3.521-1.514,3.607-3.453,.825-18.561,2.522-26.307,6.281-42.057,.463-1.941-.735-3.89-2.676-4.354Z"/><path fill="#4a9343" d="M93.586,43.149c5.322,3.113,8.789,5.523,12.461,8.075,2.348,1.632,4.749,3.301,7.662,5.159-26.002,15.106-49.48,32.244-71.613,52.261-1.108,1.002-1.485,2.584-.948,3.979,.537,1.395,1.877,2.315,3.372,2.315h89.835c1.996,0,3.614-1.618,3.614-3.614s-1.618-3.614-3.614-3.614H54.059c21.165-18.302,43.663-34.081,68.523-48.077,1.128-.635,1.83-1.825,1.841-3.119s-.672-2.495-1.789-3.149c-5.322-3.113-8.79-5.524-12.461-8.076-3.624-2.519-7.371-5.124-12.937-8.379-1.722-1.008-3.936-.428-4.943,1.294-1.008,1.723-.428,3.936,1.294,4.944Z"/><path fill="#f59745" d="M100.375,101.055c4.131,.044,8.315,.061,12.516,.061,7.224,0,14.494-.05,21.61-.099,6.807-.047,13.237-.091,19.379-.091,1.996,0,3.614-1.618,3.614-3.614s-1.618-3.614-3.614-3.614c-6.167,0-12.609,.044-19.429,.091-5.239,.036-10.559,.073-15.881,.09,6.167-2.374,12.585-4.73,18.595-6.936,5.866-2.153,11.406-4.187,15.659-5.86,1.216-.478,2.079-1.576,2.257-2.871,.178-1.295-.358-2.585-1.4-3.373-3.118-2.358-6.005-4.645-8.798-6.856-3.738-2.96-7.604-6.021-11.924-9.168-1.613-1.175-3.873-.821-5.048,.793-1.175,1.613-.82,3.873,.793,5.048,4.203,3.062,7.841,5.943,11.693,8.993,1.242,.983,2.503,1.982,3.796,2.996-2.94,1.1-6.175,2.288-9.517,3.514-11.967,4.393-25.53,9.372-35.749,13.99-1.545,.698-2.396,2.376-2.048,4.035,.348,1.659,1.803,2.853,3.498,2.871Z"/><path fill="#eb422e" d="M144.565,111.54c.004,.064,.007,.129,.014,.193l.002,.03c.006,.047,.016,.093,.024,.14,.01,.06,.018,.121,.031,.18,.012,.055,.027,.108,.042,.161,.015,.057,.028,.116,.046,.172,.024,.077,.053,.151,.082,.225,.012,.031,.022,.063,.034,.093,.045,.105,.094,.207,.148,.307,.011,.021,.025,.041,.037,.062,.044,.078,.089,.155,.139,.229,.019,.029,.041,.056,.061,.084,.045,.063,.09,.126,.139,.186,.026,.032,.055,.063,.082,.094,.046,.052,.091,.104,.14,.154,.033,.034,.068,.066,.102,.098,.046,.043,.092,.086,.14,.127,.039,.034,.08,.065,.121,.097,.046,.036,.093,.071,.141,.105,.045,.031,.09,.061,.136,.091,.048,.03,.096,.06,.145,.088,.048,.028,.097,.055,.147,.08,.05,.026,.102,.05,.153,.074,.05,.023,.1,.045,.151,.066,.056,.023,.113,.042,.17,.062,.049,.017,.097,.034,.147,.049,.066,.02,.133,.036,.2,.051,.043,.01,.085,.022,.129,.03,.085,.017,.172,.029,.258,.039,.028,.003,.055,.009,.083,.012,.117,.012,.235,.018,.355,.018h43.508c1.517,0,2.873-.948,3.394-2.373,.521-1.425,.096-3.024-1.063-4.002-4.82-4.067-9.764-8.607-14.544-12.996-5.377-4.937-10.509-9.649-14.843-13.097-.822-.699-1.735-1.395-2.743-2.084l-.029-.021-.014-.009c-.022-.015-.041-.03-.063-.044-.034-.023-.071-.042-.106-.064-.058-.037-.116-.074-.176-.107-.046-.026-.093-.048-.14-.071-.062-.031-.123-.062-.186-.089-.047-.02-.095-.037-.143-.056-.064-.024-.127-.048-.191-.069-.049-.016-.099-.028-.149-.041-.064-.017-.127-.034-.192-.048-.051-.011-.103-.018-.155-.027-.063-.01-.127-.021-.19-.028-.053-.006-.105-.008-.158-.012-.063-.004-.127-.009-.19-.009-.053,0-.105,.002-.157,.003-.063,.002-.126,.004-.19,.009-.052,.004-.104,.012-.156,.018-.063,.008-.125,.016-.188,.027-.051,.009-.102,.021-.153,.033-.062,.014-.124,.028-.185,.045-.05,.014-.099,.031-.149,.047-.06,.02-.121,.039-.18,.062-.049,.019-.098,.041-.146,.062-.058,.025-.115,.05-.172,.079-.048,.024-.095,.051-.143,.078-.054,.03-.108,.06-.161,.094-.048,.03-.093,.063-.14,.095-.05,.035-.1,.069-.148,.107-.047,.036-.091,.075-.136,.114-.045,.039-.09,.077-.134,.118-.044,.042-.086,.087-.129,.132-.041,.043-.082,.085-.121,.13-.041,.047-.079,.098-.118,.148-.028,.036-.058,.069-.084,.106-.009,.013-.016,.026-.025,.039-.009,.013-.02,.025-.029,.038-.026,.038-.047,.078-.071,.117-.033,.053-.067,.106-.097,.16-.029,.053-.055,.106-.081,.159-.027,.055-.055,.11-.079,.166-.024,.055-.044,.111-.065,.167-.021,.056-.042,.111-.06,.167-.018,.058-.033,.116-.049,.175-.014,.055-.03,.11-.041,.166-.013,.06-.022,.12-.032,.181-.009,.055-.018,.109-.024,.164-.007,.062-.01,.123-.014,.185-.003,.054-.007,.108-.008,.162,0,.062,.002,.124,.004,.187,.002,.054,.003,.107,.007,.16,.005,.062,.013,.123,.021,.184,.007,.054,.013,.107,.023,.16,.011,.06,.025,.12,.038,.179,.012,.053,.024,.106,.038,.159,.016,.059,.036,.116,.055,.174,.017,.052,.034,.104,.054,.156,.022,.057,.047,.112,.072,.168,.022,.05,.044,.101,.069,.151,.028,.055,.058,.109,.089,.162,.027,.048,.053,.096,.083,.142,.034,.054,.071,.106,.107,.158,.031,.044,.061,.088,.094,.131,.04,.052,.083,.101,.126,.151,.035,.04,.069,.081,.106,.12,.046,.049,.096,.095,.145,.142,.039,.037,.077,.074,.117,.109,.051,.044,.106,.086,.16,.127,.033,.025,.063,.053,.097,.078,.683,.489,1.406,1.039,2.158,1.631,3.749,3.164,5.433,6.713,4.645,9.977-1.188,4.914-7.745,8.797-16.704,9.892-.039,.005-.076,.014-.114,.02-.074,.011-.148,.023-.22,.038-.047,.01-.092,.024-.138,.036-.07,.018-.139,.036-.207,.058-.05,.016-.099,.036-.148,.054-.06,.023-.121,.045-.18,.07-.054,.023-.105,.05-.157,.076-.052,.026-.104,.051-.155,.079-.054,.03-.106,.063-.158,.096-.046,.029-.092,.057-.137,.088-.052,.036-.101,.074-.15,.112-.043,.033-.085,.065-.126,.1-.046,.039-.09,.081-.134,.122-.041,.038-.082,.076-.122,.116-.04,.041-.077,.083-.114,.126-.04,.045-.08,.09-.118,.136-.033,.041-.064,.084-.095,.127-.038,.051-.075,.102-.11,.155-.028,.042-.053,.086-.079,.13-.034,.056-.067,.112-.098,.171-.024,.045-.045,.092-.066,.138-.028,.059-.056,.117-.08,.178-.021,.051-.038,.103-.056,.154-.02,.058-.041,.115-.059,.174-.018,.059-.032,.119-.046,.179-.013,.054-.027,.107-.038,.161-.013,.068-.022,.136-.031,.205-.007,.05-.015,.099-.02,.149-.007,.071-.008,.143-.011,.215-.001,.041-.006,.081-.006,.122l.002,.032c0,.061,.006,.123,.009,.185Zm30.004-10.651c2.461,2.26,4.965,4.559,7.481,6.821h-15.583c2.523-2.307,4.24-5.063,4.99-8.167,.088-.366,.174-.799,.242-1.285,.946,.866,1.903,1.744,2.869,2.631Z"/><path fill="#f4b88c" d="M50.282,50.357c-.798-.879-1.403-1.917-1.747-3.09-1.438-4.9,2.172-10.273,8.063-12.002,5.891-1.729,11.832,.842,13.27,5.741,.6,2.045,.318,4.172-.639,6.083,3.673-3.07,5.54-7.402,3.848-11.34-3.562-8.292-9.953-11.452-13.876-13.232-5.528,5.528-11.221,13.031-18.697,23.327,2.198,2.061,5.802,3.625,9.778,4.514Z"/><ellipse cx="59.645" cy="45.032" fill="#eb422e" rx="6.468" ry="4.815" transform="translate(-10.267 18.619) rotate(-16.356)"/><ellipse cx="82.656" cy="97.312" fill="#eb422e" rx="8.685" ry="4.555" transform="translate(-24.059 27.215) rotate(-16.356)"/><path fill="#f4b88c" d="M68.976,68.047c-9.982,2.565-21.157,1.043-21.157,1.043l-6.066,30.39s29.001-24.404,61.239-46.076c-3.835-2.217-11.653-7.151-11.653-7.151,0,0-1.902,16.537-22.363,21.794Z"/><path fill="#f59745" d="M3.539,115.894c.034,0,.067,.001,.1,.001,1.963,0,3.58-1.564,3.634-3.539C8.981,49.148,32.386,21.6,49.843,6.378c1.514-1.32,1.671-3.617,.351-5.131-1.32-1.514-3.617-1.671-5.131-.351C15.679,26.518,1.36,61.873,.001,112.161c-.054,2.008,1.529,3.68,3.537,3.734Z"/><path fill="#f4b88c" d="M119.987,65.976s-24.118,17.166-30.551,23.49l40.978-16.858-10.427-6.632Z"/><path fill="#f59745" d="M3.637,130.464H191.671c2.009,0,3.637-1.628,3.637-3.637s-1.628-3.637-3.637-3.637H3.637C1.628,123.19,0,124.818,0,126.827s1.628,3.637,3.637,3.637Z"/></g><line x1="539.266" x2="539.266" y1=".679" y2="129.785" fill="none" stroke="#56444a" stroke-miterlimit="10" stroke-width="3"/><g><g><path fill="#fff" d="M727.963,22.876c-2.652-1.127-6.315-1.931-9.269-1.931-2.893,0-6.631,1.246-6.631,5.754,0,7.178,18.447,4.152,18.447,18.035,0,9.076-7.294,12.517-15.794,12.517-4.583,0-6.632-.593-10.792-1.601l-.009-7.475c2.894,1.542,7.002,2.551,10.318,2.551,3.195,0,7.476-1.602,7.476-5.34,0-7.89-18.448-4.627-18.448-18.332,0-9.255,7.295-12.636,14.71-12.636,3.617,0,6.992,.474,10.068,1.483l-.075,6.974Z"/><path fill="#fff" d="M776.301,33.217c-2.399-.806-4.573-1.267-7.442-1.267-2.106,0-4.625,.748-4.625,3.283,0,4.723,13.64,1.728,13.64,12.441,0,6.912-6.263,9.677-12.645,9.677-2.986,0-6.029-.519-8.897-1.267l.469-6.337c2.458,1.21,5.033,1.959,7.725,1.959,1.991,0,5.152-.749,5.152-3.63,0-5.816-13.638-1.843-13.638-12.555,0-6.394,5.677-9.216,11.825-9.216,3.687,0,6.087,.576,8.545,1.094l-.109,5.817Z"/><path fill="#fff" d="M801.137,33.39c-1.404-.633-2.926-1.094-5.325-1.094-4.86,0-7.961,3.801-7.961,9.388,0,5.472,2.633,9.676,8.135,9.676,2.225,0,4.683-.806,6.029-1.382l.351,6.393c-2.282,.69-4.624,.98-7.842,.98-9.892,0-14.867-6.624-14.867-15.667,0-8.582,5.151-15.378,14.574-15.378,3.161,0,5.444,.346,7.61,.979l-.703,6.105Z"/><path fill="#fff" d="M818.998,26.306c8.955,0,15.803,5.932,15.803,15.724,0,8.524-5.793,15.321-15.803,15.321-9.95,0-15.745-6.797-15.745-15.321,0-9.792,6.848-15.724,15.745-15.724Zm0,25.055c6.028,0,7.608-5.298,7.608-10.253,0-4.55-2.458-8.812-7.608-8.812-5.092,0-7.55,4.377-7.55,8.812,0,4.897,1.58,10.253,7.55,10.253Z"/><polygon fill="#fff" points="756.92 26.594 748.96 26.594 733.982 67.346 741.178 67.346 756.92 26.594"/><path fill="#5f9e43" d="M724.381,25.861c3.326,3.365,6.638,7.466,9.04,12.276,2.148,4.305,3.235,8.501,4.013,12.726,.031,.148,.131,.137,.186,.021,2.86-4.993,4.61-11.79,2.051-16.913-2.682-5.375-9.129-7.849-15.182-8.345-.212-.01-.248,.101-.108,.236Z"/><g><path fill="#fff" d="M834.653,26.953h-1.075v-.388h2.617v.388h-1.081v3.146h-.462v-3.146Z"/><path fill="#fff" d="M839.569,28.547c-.026-.488-.057-1.091-.057-1.526h-.011c-.126,.409-.267,.86-.445,1.342l-.625,1.715h-.346l-.577-1.683c-.168-.498-.304-.954-.404-1.374h-.01c-.01,.441-.037,1.033-.068,1.562l-.094,1.515h-.435l.246-3.534h.582l.603,1.709c.147,.435,.262,.828,.357,1.195h.011c.094-.357,.22-.75,.378-1.195l.629-1.709h.582l.22,3.534h-.451l-.084-1.552Z"/></g></g><g><path fill="none" d="M679.053,20.202c.076,.079,.166,.142,.27,.188,.104,.046,.218,.069,.341,.069s.237-.023,.341-.069,.195-.109,.27-.188c.076-.079,.135-.172,.178-.278s.064-.219,.064-.338-.021-.231-.064-.338c-.043-.107-.102-.199-.178-.278-.076-.079-.166-.142-.27-.188-.104-.046-.218-.069-.341-.069s-.237,.023-.341,.069c-.104,.046-.195,.109-.27,.188-.076,.079-.135,.172-.178,.278-.043,.107-.064,.219-.064,.338s.022,.231,.064,.338,.102,.199,.178,.278Zm.134-1.275h.514c.172,0,.299,.035,.382,.105,.083,.07,.125,.171,.125,.303,0,.112-.031,.198-.094,.259-.063,.06-.14,.096-.232,.107l.326,.544h-.316l-.31-.531h-.106v.531h-.29v-1.318Z"/><path fill="none" d="M676.554,20.228c.03-.066,.049-.153,.059-.26,.01-.108,.015-.242,.015-.402,0-.134-.004-.251-.013-.353-.009-.101-.027-.185-.055-.252-.027-.067-.068-.118-.122-.152s-.126-.051-.216-.051h-.201v1.654h.211c.083,0,.151-.014,.201-.043,.05-.029,.091-.076,.12-.142Z"/><path fill="none" d="M679.856,19.453c.042-.02,.063-.065,.063-.135,0-.037-.008-.066-.023-.087s-.036-.037-.061-.048c-.025-.011-.053-.018-.083-.021-.03-.003-.058-.005-.084-.005h-.191v.326h.221c.064,0,.116-.01,.158-.03Z"/><path fill="#ff141e" d="M657.768,43.118c-1.516,5.313,2.747,5.222,5.427,1.493,1.876-2.543,3.492-6.337,3.076-8.423-.099-.478-.276-.883-.52-1.249-5.808,.527-7.751,7.342-7.983,8.18Z"/><path fill="#ff141e" d="M681.333,39.593c0-17.838-26.016-32.35-57.994-32.35s-57.994,14.512-57.994,32.35,26.016,32.35,57.994,32.35,57.994-14.512,57.994-32.35Zm-49.687-9.058c9.565,1.919,14.811,.733,19.239,.534l1.642-3.443c1.345-.501,2.824-.51,4.131,.016l-1.531,3.389c6.688,.158,10.51,1.402,12.692,2.895,3.718,.183,6.914,1.112,7.708,1.888-.455,.995-1.311,1.796-2.313,2.21-.365-.596-1.795-1.753-3.676-2.479,1.467,1.958,1.007,3.837,.987,4-.543,4.425-5.5,8.894-11.167,8.894-3.371,0-5.522-1.584-5.981-3.952-.048-.274-.117-1.007-.044-1.697,.187-1.749,.974-3.512,2.238-4.968,2.17-2.517,5.649-3.589,9.127-3.858-2.41-1.459-6.973-.949-10.63-.584l-3.656,8.121c-.44,.912-1.366,2.887-1.484,3.803-.059,.49,.022,1.033,.789,1.033,.485,0,.993-.246,1.493-.603,.243-.174,.658-.543,.928-.8,.103,.345,.24,.655,.412,.95l.014,.048c-1.355,1.257-3.128,2.49-5.233,2.49-1.826,0-3.149-1.082-2.971-2.555,.03-.468,.208-1.307,.756-2.481,.348-.884,.762-1.761,1.071-2.446l3.481-7.317c-4.797,0-12.945-.473-18.276-2.674l.253-.415Zm-1.561,5.188c-.169,0-.58,.112-1.05,.281-.08-.289-.196-.568-.347-.821,1.341-.833,2.903-1.426,4.24-1.426,1.535,0,2.66,.817,2.499,2.108-.133,1.082-.986,2.725-1.565,3.807,0,0-2.693,4.982-2.782,5.707-.071,.594,.38,.863,1.077,.863,3.32,0,6.953-7.084,8.063-9.221l1.182-2.126s1.447,.141,2.047,.178c.82,.049,2.197,.145,2.197,.145l-2.461,4.766c-.606,1.314-1.783,3.944-1.942,5.234-.048,.39-.038,1.024,.605,1.024,.376-.013,.806-.25,1.19-.507-.002,.046-.01,.087-.012,.133-.047,.348,.002,.685,.118,.987v.017c-1.177,.876-2.578,1.497-4.075,1.497-1.663,0-2.494-1.144-2.345-2.397,.112-.853,.299-1.411,.593-2.166l-.073-.07c-1.841,2.517-4.423,4.622-7.664,4.633-1.867,.013-3.205-.979-3.013-2.588,.143-1.158,1.039-2.833,1.623-3.952,0,0,2.437-4.882,2.497-5.41,.052-.368-.112-.696-.602-.696Zm-40.089,6.503c-.948,3.991-4.948,6.346-9.663,6.346-2.597,0-5.174-.779-6.614-2.401-2.774-3.215,.408-4.881,1.963-4.853-.812,3.078,.421,5.807,4.338,5.807,2.197,0,4.119-1.27,4.564-3.128,.486-2.062-.661-3.281-2.016-4.654l-1.278-1.33c-1.671-1.705-2.947-3.244-2.335-5.795,.867-3.661,4.733-5.948,9.093-5.948,2.311,0,4.118,.652,5.543,1.893,2.894,2.914-.689,4.778-1.485,4.602-.195-.037-.27-.086-.27-.086,.76-2.36-.055-4.978-3.334-4.978-1.84,0-4.108,.983-4.509,2.656-.454,1.899,.913,3.205,2.141,4.45l1.162,1.141c1.851,1.801,3.361,3.496,2.699,6.279Zm11.605,3.953c.058-.484,.266-1.193,.266-1.193l-.075-.062c-1.444,1.839-3.747,3.454-6.511,3.454-3.408,0-4.758-2.199-4.444-4.77,.519-4.245,5.307-9.843,11.148-9.843,1.904,0,3.197,.756,3.758,2.144l1.026-1.796c1.369-.501,2.895-.514,4.223,.008l-4.183,8.872c-.273,.56-.884,1.909-.944,2.431-.051,.398,.056,1.158,.624,1.158,.224,0,.469-.07,.72-.192l.004,.013-.594,1.314c-.858,.406-1.769,.66-2.699,.66-1.536,0-2.478-.992-2.32-2.199Zm11.449,.063h-.079l-4.569,10.112c-1.345-.451-2.492-1.414-3.116-2.68l9.607-21.43c1.285,.426,2.361,1.31,2.959,2.497l-.486,1.14,.074,.062c1.379-1.314,3.266-2.168,5.379-2.168,2.926,0,4.297,1.487,4.474,3.512,.056,.683-.027,1.199-.027,1.219-.512,4.184-4.617,9.875-10.502,9.875-1.861,0-3.15-.787-3.714-2.14Z"/><path fill="#ff141e" d="M620.734,35.577c-3.613,0-6.36,6.852-6.611,8.856-.123,1.023,.309,2.14,1.765,2.14,3.655,0,6.531-6.584,6.825-8.951,.13-1.087-.486-2.045-1.979-2.045Z"/><path fill="#ff141e" d="M602.66,35.577c-3.574,0-6.749,6.35-7.031,8.685-.125,.954,.301,2.141,1.681,2.141,3.69,0,6.976-6.583,7.27-8.947,.127-1.053-.504-1.878-1.92-1.878Z"/><path fill="#fff" d="M664.699,16.253c-11.053-6.19-25.741-9.599-41.36-9.599s-30.308,3.409-41.36,9.599c-11.106,6.22-17.223,14.509-17.223,23.34s6.117,17.12,17.223,23.34c11.053,6.19,25.741,9.599,41.36,9.599s30.308-3.409,41.36-9.599c11.106-6.22,17.223-14.509,17.223-23.34s-6.117-17.12-17.223-23.34Zm-99.355,23.34c0-17.838,26.016-32.35,57.994-32.35s57.994,14.512,57.994,32.35-26.016,32.35-57.994,32.35-57.994-14.512-57.994-32.35Z"/><path fill="#fff" d="M587.296,35.946l-1.162-1.141c-1.228-1.245-2.595-2.551-2.141-4.45,.4-1.672,2.669-2.656,4.509-2.656,3.28,0,4.094,2.618,3.334,4.978,0,0,.074,.049,.27,.086,.796,.176,4.379-1.688,1.485-4.602-1.425-1.241-3.232-1.893-5.543-1.893-4.36,0-8.225,2.287-9.093,5.948-.613,2.551,.664,4.09,2.335,5.795l1.278,1.33c1.355,1.373,2.502,2.592,2.016,4.654-.445,1.859-2.367,3.128-4.564,3.128-3.917,0-5.15-2.729-4.338-5.807-1.555-.029-4.737,1.638-1.963,4.853,1.44,1.622,4.017,2.401,6.614,2.401,4.715,0,8.715-2.356,9.663-6.346,.662-2.783-.848-4.479-2.699-6.279Z"/><path fill="#fff" d="M627.266,38.506c0-.021,.082-.536,.027-1.219-.177-2.025-1.548-3.512-4.474-3.512-2.112,0-4,.853-5.379,2.168l-.074-.062,.486-1.14c-.598-1.187-1.674-2.071-2.959-2.497l-9.607,21.43c.624,1.266,1.772,2.228,3.116,2.68l4.569-10.112h.079c.564,1.353,1.853,2.14,3.714,2.14,5.885,0,9.989-5.691,10.502-9.875Zm-4.552-.884c-.295,2.367-3.17,8.951-6.825,8.951-1.456,0-1.887-1.117-1.765-2.14,.251-2.004,2.998-8.856,6.611-8.856,1.493,0,2.109,.958,1.979,2.045Z"/><path fill="#fff" d="M607.214,46.403l-.004-.013c-.251,.122-.496,.192-.72,.192-.569,0-.675-.76-.624-1.158,.06-.522,.671-1.87,.944-2.431l4.183-8.872c-1.328-.522-2.854-.509-4.223-.008l-1.026,1.796c-.561-1.389-1.853-2.144-3.758-2.144-5.842,0-10.63,5.599-11.148,9.843-.313,2.571,1.036,4.77,4.444,4.77,2.764,0,5.067-1.615,6.511-3.454l.075,.062s-.208,.709-.266,1.193c-.158,1.207,.784,2.199,2.32,2.199,.93,0,1.841-.253,2.699-.66l.594-1.314Zm-2.634-8.947c-.295,2.365-3.58,8.947-7.27,8.947-1.38,0-1.805-1.186-1.681-2.141,.282-2.335,3.457-8.685,7.031-8.685,1.415,0,2.047,.825,1.92,1.878Z"/><path fill="#fff" d="M628.189,41.828c-.584,1.119-1.48,2.794-1.623,3.952-.193,1.61,1.146,2.601,3.013,2.588,3.241-.011,5.823-2.116,7.664-4.633l.073,.07c-.294,.755-.481,1.313-.593,2.166-.149,1.253,.683,2.397,2.345,2.397,1.497,0,2.898-.621,4.075-1.497v-.017c-.116-.302-.165-.638-.118-.987,.002-.047,.01-.088,.012-.133-.383,.257-.813,.494-1.19,.507-.642,0-.653-.635-.605-1.024,.159-1.29,1.336-3.92,1.942-5.234l2.461-4.766s-1.376-.096-2.197-.145c-.6-.038-2.047-.178-2.047-.178l-1.182,2.126c-1.111,2.137-4.743,9.221-8.063,9.221-.697,0-1.148-.27-1.077-.863,.09-.725,2.782-5.707,2.782-5.707,.579-1.083,1.432-2.725,1.565-3.807,.161-1.291-.963-2.108-2.499-2.108-1.337,0-2.899,.594-4.24,1.426,.15,.253,.266,.532,.347,.821,.47-.169,.881-.281,1.05-.281,.49,0,.654,.328,.602,.696-.06,.527-2.497,5.41-2.497,5.41Z"/><path fill="#fff" d="M646.187,40.94c-.308,.685-.723,1.562-1.071,2.446-.548,1.174-.726,2.013-.756,2.481-.177,1.473,1.145,2.555,2.971,2.555,2.104,0,3.878-1.233,5.233-2.49l-.014-.048c-.172-.295-.309-.605-.412-.95-.271,.257-.685,.626-.928,.8-.501,.356-1.009,.603-1.493,.603-.767,0-.848-.543-.789-1.033,.117-.917,1.044-2.891,1.484-3.803l3.656-8.121c3.657-.365,8.22-.876,10.63,.584-3.478,.269-6.957,1.341-9.127,3.858-1.264,1.456-2.05,3.219-2.238,4.968-.073,.689-.004,1.423,.044,1.697,.46,2.368,2.61,3.952,5.981,3.952,5.667,0,10.624-4.47,11.167-8.894,.02-.163,.48-2.041-.987-4,1.881,.726,3.311,1.883,3.676,2.479,1.002-.414,1.858-1.215,2.313-2.21-.794-.776-3.99-1.705-7.708-1.888-2.182-1.493-6.004-2.737-12.692-2.895l1.531-3.389c-1.307-.526-2.786-.517-4.131-.016l-1.642,3.443c-4.428,.2-9.674,1.385-19.239-.534l-.253,.415c5.33,2.202,13.479,2.674,18.276,2.674l-3.481,7.317Zm20.084-4.753c.416,2.086-1.2,5.881-3.076,8.423-2.68,3.729-6.943,3.82-5.427-1.493,.233-.838,2.175-7.653,7.983-8.18,.244,.366,.421,.771,.52,1.249Z"/><polygon fill="#ff141e" points="673.528 18.883 673.535 18.883 673.954 20.762 674.323 20.762 674.742 18.883 674.748 18.883 674.748 20.762 675.184 20.762 675.184 18.409 674.481 18.409 674.142 20.07 674.135 20.07 673.799 18.409 673.093 18.409 673.093 20.762 673.528 20.762 673.528 18.883"/><path fill="#ff141e" d="M676.687,20.689c.103-.048,.186-.122,.247-.221,.061-.099,.105-.225,.13-.377,.025-.153,.038-.332,.038-.539,0-.173-.01-.331-.03-.471-.02-.141-.058-.261-.114-.361s-.135-.177-.236-.231c-.101-.054-.234-.081-.399-.081h-.778v2.353h.748c.158,0,.289-.024,.392-.073Zm-.666-.277v-1.654h.201c.09,0,.162,.017,.216,.051s.095,.085,.122,.152c.028,.067,.046,.151,.055,.252,.009,.101,.013,.219,.013,.353,0,.16-.005,.294-.015,.402-.01,.108-.03,.194-.059,.26-.03,.066-.07,.113-.12,.142-.051,.029-.118,.043-.201,.043h-.211Z"/><polygon fill="#ff141e" points="678.355 18.363 677.986 18.363 677.251 20.798 677.61 20.798 678.355 18.363"/><path fill="#ff141e" d="M678.799,20.449c.111,.11,.241,.196,.389,.257,.148,.061,.307,.092,.476,.092s.328-.031,.477-.092c.148-.061,.278-.147,.389-.257,.111-.11,.198-.239,.262-.387s.096-.307,.096-.476-.032-.328-.096-.476-.151-.278-.262-.389c-.111-.111-.241-.198-.389-.262-.148-.064-.307-.096-.477-.096s-.328,.032-.476,.096c-.148,.064-.278,.151-.389,.262s-.198,.241-.262,.389c-.064,.148-.095,.307-.095,.476s.032,.328,.095,.476c.064,.148,.151,.277,.262,.387Zm.076-1.201c.043-.107,.102-.199,.178-.278,.076-.079,.166-.142,.27-.188,.104-.046,.218-.069,.341-.069s.237,.023,.341,.069c.104,.046,.195,.109,.27,.188,.076,.079,.135,.172,.178,.278,.043,.107,.064,.219,.064,.338s-.021,.231-.064,.338-.102,.199-.178,.278c-.076,.079-.166,.142-.27,.188s-.218,.069-.341,.069-.237-.023-.341-.069c-.104-.046-.195-.109-.27-.188s-.135-.172-.178-.278-.064-.219-.064-.338,.022-.231,.064-.338Z"/><path fill="#ff141e" d="M679.476,19.714h.106l.31,.531h.316l-.326-.544c.092-.011,.17-.047,.232-.107,.063-.06,.094-.147,.094-.259,0-.132-.042-.233-.125-.303-.083-.07-.211-.105-.382-.105h-.514v1.318h.29v-.531Zm0-.557h.191c.026,0,.054,.002,.084,.005,.03,.003,.057,.01,.083,.021,.025,.011,.046,.027,.061,.048s.023,.05,.023,.087c0,.07-.021,.115-.063,.135-.042,.02-.095,.03-.158,.03h-.221v-.326Z"/></g><g id="d"><g id="e"><path fill="#ff3008" d="M639.538,101.132v13.795h3.53c3.763-.04,6.782-3.121,6.742-6.883v-.012c.111-3.698-2.799-6.786-6.499-6.898-.081-.002-.162-.003-.243-.003h-3.53Zm3.53-4.332c6.58,0,11.557,4.974,11.557,11.233s-4.977,11.227-11.557,11.227h-7.764c-.308,0-.559-.25-.559-.558v-21.321c0-.308,.25-.558,.559-.558l7.764-.022Z"/><path fill="#ff3008" d="M671.611,115.413c4.078,0,7.384-3.304,7.384-7.381s-3.306-7.381-7.384-7.381c-4.078,0-7.384,3.304-7.384,7.381,.006,4.074,3.309,7.374,7.384,7.381m0-19.093c6.898,0,12.199,5.293,12.199,11.724s-5.301,11.724-12.199,11.724-12.199-5.293-12.199-11.724,5.295-11.724,12.199-11.724"/><path fill="#ff3008" d="M700.612,115.413c4.078,.003,7.387-3.299,7.39-7.375,.003-4.076-3.301-7.383-7.379-7.386-4.078-.003-7.387,3.299-7.39,7.375v.006c.006,4.071,3.305,7.371,7.379,7.381m0-19.093c6.904,0,12.199,5.293,12.199,11.724s-5.295,11.724-12.199,11.724-12.199-5.293-12.199-11.724,5.295-11.724,12.199-11.724"/><path fill="#ff3008" d="M728.982,101.132h-4.977v5.935h4.977c1.609,.074,2.973-1.169,3.047-2.777,.002-.036,.003-.073,.003-.109,.053-1.63-1.226-2.995-2.857-3.048-.064-.002-.129-.002-.193,0m-9.792-3.752c0-.308,.25-.558,.559-.558h9.367c4.469,0,7.708,3.272,7.708,7.381,.032,2.78-1.528,5.334-4.016,6.577l4.34,7.615c.17,.257,.1,.603-.157,.774-.102,.068-.223,.1-.345,.092h-3.798c-.213,.005-.41-.112-.508-.301l-4.161-7.559h-4.173v7.258c0,.308-.25,.558-.559,.558h-3.653c-.308,0-.559-.25-.559-.558l-.045-21.276Z"/><path fill="#ff3008" d="M749.376,101.233v13.801h3.53c3.766-.043,6.785-3.129,6.742-6.894v-.007c.111-3.698-2.799-6.786-6.499-6.898-.081-.002-.162-.003-.243-.003h-3.53Zm3.53-4.327c6.58,0,11.557,4.969,11.557,11.227s-4.971,11.233-11.557,11.233h-7.764c-.308,0-.559-.25-.559-.558v-21.321c0-.308,.25-.558,.559-.558l7.764-.022Z"/><path fill="#ff3008" d="M779.143,102.388l-2.726,7.381h5.457l-2.731-7.381Zm-4.335,11.551l-1.787,4.913c-.078,.24-.307,.398-.559,.385h-3.877c-.307,.031-.581-.193-.611-.5-.01-.102,.008-.206,.053-.298l8.379-21.293c.082-.235,.31-.388,.559-.374h4.34c.249-.014,.477,.139,.559,.374l8.379,21.293c.134,.278,.018,.611-.26,.746-.093,.045-.196,.063-.299,.053h-3.877c-.252,.012-.481-.146-.559-.385l-1.787-4.913h-8.652Z"/><path fill="#ff3008" d="M794.744,102.857c0-3.528,3.044-6.577,7.865-6.577,2.588-.051,5.094,.906,6.988,2.669,.224,.228,.224,.593,0,.821l-2.167,2.161c-.209,.227-.563,.241-.789,.032l-.004-.004c-1.022-.926-2.346-1.448-3.726-1.468-1.927,0-3.351,1.117-3.351,2.406,0,4.176,11.384,1.77,11.384,9.787,0,4.014-3.05,7.062-8.507,7.062-3.034,.036-5.958-1.14-8.122-3.266-.225-.211-.237-.564-.026-.789l.026-.026,2.078-2.077c.212-.224,.566-.233,.79-.02l.02,.02c1.319,1.269,3.074,1.984,4.904,1.999,2.413,0,3.999-1.284,3.999-2.892,0-4.17-11.378-1.764-11.378-9.787"/><path fill="#ff3008" d="M831.599,97.358v8.402h-9.63v-8.374c.015-.308-.222-.57-.53-.586-.01,0-.019,0-.029,0h-3.653c-.308,0-.559,.249-.559,.558,0,.01,0,.019,0,.029v21.265c-.015,.308,.222,.57,.53,.586,.01,0,.019,0,.029,0h3.653c.308,0,.559-.249,.559-.558,0-.01,0-.019,0-.029v-8.536h9.63v8.536c-.016,.308,.221,.57,.529,.586,.019,0,.038,0,.057,0h3.648c.308,.016,.571-.221,.586-.529,0-.019,0-.038,0-.057v-21.293c.016-.308-.221-.57-.529-.586-.019,0-.038,0-.057,0h-3.648c-.308-.016-.571,.221-.586,.529,0,.019,0,.038,0,.057Z"/><path fill="#ff3008" d="M615.737,99.72c-2.457-4.613-7.267-7.489-12.495-7.47h-39.57c-.753,.006-1.358,.621-1.351,1.374,.003,.356,.145,.696,.396,.949l8.619,8.665c.757,.768,1.792,1.201,2.871,1.2h27.901c1.987-.022,3.615,1.571,3.636,3.556,.022,1.986-1.571,3.613-3.558,3.634h-19.237c-.753,.006-1.358,.621-1.351,1.374,.003,.356,.145,.696,.396,.949l8.619,8.665c.762,.764,1.797,1.194,2.877,1.195h8.697c11.311,0,19.869-12.093,13.551-24.09"/></g></g></g><g><path fill="none" d="M254.849,81.03c0-4.348-2.989-6.884-8.061-6.884h-10.507v13.496h11.503c3.442,0,7.065-2.174,7.065-6.612Z"/><path fill="none" d="M487.99,9.673h-.784v5.532h.784c2.044,0,2.551-1.014,2.551-2.766s-.507-2.766-2.551-2.766Z"/><polygon fill="none" points="355.991 17.865 355.887 17.865 351.81 31.613 360.069 31.613 355.991 17.865"/><polygon fill="none" points="499.869 24.006 499.838 24.006 498.639 28.047 501.067 28.047 499.869 24.006"/><polygon fill="none" points="475.856 77.95 468.792 101.771 483.103 101.771 476.038 77.95 475.856 77.95"/><path fill="#fff" d="M236.282,103.401h10.416c15.941,0,28.441-4.891,28.441-22.462,0-17.662-12.499-22.553-28.441-22.553h-18.839c-8.061,0-11.865,3.714-11.865,12.409v43.113c0,6.974,3.623,10.869,10.144,10.869s10.144-3.895,10.144-10.869v-10.507Zm0-29.255h10.507c5.072,0,8.061,2.536,8.061,6.884,0,4.438-3.623,6.612-7.065,6.612h-11.503v-13.496Z"/><path fill="#fff" d="M296.607,124.777c6.431,0,10.416-4.257,10.416-11.231v-45.106c0-6.974-3.985-11.231-10.416-11.231s-10.416,4.257-10.416,11.231v45.106c0,6.974,3.985,11.231,10.416,11.231Z"/><path fill="#fff" d="M377.581,115.448c0-5.344-3.261-8.152-9.51-8.152h-23.549l27.897-30.976c3.17-3.532,4.166-5.797,4.166-8.786,0-5.072-2.898-9.148-9.51-9.148h-39.309c-6.793,0-9.963,3.261-9.963,8.152s3.17,8.152,9.963,8.152h20.289l-26.085,28.984c-4.529,4.982-5.797,7.336-5.797,10.778,0,5.072,3.17,9.148,10.235,9.148h41.664c6.249,0,9.51-2.808,9.51-8.152Z"/><path fill="#fff" d="M442.976,115.448c0-5.344-3.261-8.152-9.51-8.152h-23.549l27.897-30.976c3.17-3.532,4.166-5.797,4.166-8.786,0-5.072-2.898-9.148-9.51-9.148h-39.309c-6.793,0-9.963,3.261-9.963,8.152s3.17,8.152,9.963,8.152h20.289l-26.085,28.984c-4.529,4.982-5.797,7.336-5.797,10.778,0,5.072,3.17,9.148,10.235,9.148h41.664c6.249,0,9.51-2.808,9.51-8.152Z"/><path fill="#fff" d="M503.029,104.217l-13.858-38.585c-1.993-5.434-4.71-8.424-9.963-8.424h-6.522c-5.254,0-7.97,2.989-9.963,8.424l-13.858,38.585c-1.54,4.348-3.261,9.148-3.261,12.137,0,4.891,4.8,8.424,9.511,8.424,3.26,0,7.336-1.449,8.423-5.163l1.449-4.8h21.919l1.449,4.8c1.087,3.714,5.163,5.163,8.424,5.163,4.71,0,9.511-3.532,9.511-8.424,0-2.989-1.721-7.79-3.261-12.137Zm-34.237-2.445l7.065-23.821h.181l7.065,23.821h-14.311Z"/><path fill="#fff" d="M225.252,28.424l7.998,2.3c2.195,.627,3.293,1.255,3.293,2.771,0,2.3-2.195,3.136-4.652,3.136-5.907,0-6.429-5.489-10.715-5.489-2.927,0-5.07,1.986-5.07,4.914,0,3.397,3.868,9.043,16.518,9.043,7.945,0,15.629-3.868,15.629-12.806,0-6.534-4.338-9.461-10.663-11.186l-6.22-1.673c-2.561-.68-4.025-1.411-4.025-3.084,0-1.725,1.882-2.509,3.92-2.509,5.959,0,6.011,4.6,10.036,4.6,2.98,0,5.227-1.83,5.227-4.757,0-6.325-8.991-7.997-15.943-7.997-10.454,0-14.636,5.907-14.636,12.179,0,5.279,3.293,8.834,9.304,10.559Z"/><path fill="#fff" d="M281.237,15.356c3.607,0,5.227-1.777,5.227-4.391s-1.621-4.391-5.227-4.391h-19.132c-4.652,0-6.847,2.143-6.847,7.161v23.313c0,5.018,2.195,7.161,6.847,7.161h19.706c3.607,0,5.227-1.777,5.227-4.391s-1.62-4.391-5.227-4.391h-14.531v-6.011h11.186c3.607,0,5.227-1.777,5.227-4.391s-1.62-4.391-5.227-4.391h-11.186v-5.279h13.957Z"/><path fill="#fff" d="M318.143,41.544l5.436-20.333h.105v18.295c0,3.607,2.143,5.384,5.384,5.384s5.384-1.777,5.384-5.384V12.429c0-3.868-2.143-6.534-6.273-6.534h-3.397c-3.816,0-5.384,1.307-6.377,5.018l-4.966,18.661h-.105l-4.966-18.661c-.993-3.711-2.561-5.018-6.377-5.018h-3.397c-4.13,0-6.273,2.666-6.273,6.534v27.077c0,3.607,2.143,5.384,5.384,5.384s5.384-1.777,5.384-5.384V21.211h.105l5.436,20.333c.679,2.561,1.882,3.345,4.757,3.345s4.077-.784,4.757-3.345Z"/><path fill="#fff" d="M348.778,41.91l.836-2.77h12.649l.836,2.77c.627,2.143,2.98,2.979,4.861,2.979,2.719,0,5.489-2.038,5.489-4.861,0-1.725-.993-4.495-1.882-7.004l-7.997-22.268c-1.15-3.136-2.718-4.861-5.75-4.861h-3.764c-3.032,0-4.6,1.725-5.75,4.861l-7.998,22.268c-.888,2.509-1.882,5.28-1.882,7.004,0,2.823,2.771,4.861,5.489,4.861,1.882,0,4.234-.836,4.861-2.979Zm7.109-24.045h.104l4.077,13.748h-8.259l4.077-13.748Z"/><path fill="#fff" d="M389.971,38.408V12.377c0-4.025-2.3-6.482-6.011-6.482s-6.011,2.457-6.011,6.482v26.031c0,4.025,2.3,6.482,6.011,6.482s6.011-2.457,6.011-6.482Z"/><path fill="#fff" d="M409.678,38.826v-14.845h.105l9.984,16.414c2.3,3.816,4.025,4.704,7.213,4.704,3.816,0,6.796-1.62,6.796-5.75V11.697c0-3.502-2.196-6.011-5.854-6.011s-5.854,2.509-5.854,6.011v15.734h-.105l-10.559-18.086c-1.516-2.561-3.659-3.659-6.534-3.659-4.548,0-6.9,2.352-6.9,6.429v26.711c0,4.025,2.091,6.273,5.854,6.273s5.854-2.248,5.854-6.273Z"/><path fill="#fff" d="M448.781,44.21h19.706c3.607,0,5.228-1.777,5.228-4.391s-1.621-4.391-5.228-4.391h-14.531v-6.011h11.186c3.607,0,5.228-1.777,5.228-4.391s-1.621-4.391-5.228-4.391h-11.186v-5.279h13.957c3.607,0,5.227-1.777,5.227-4.391s-1.621-4.391-5.227-4.391h-19.132c-4.652,0-6.847,2.143-6.847,7.161v23.313c0,5.018,2.195,7.161,6.847,7.161Z"/><path fill="#fff" d="M488.774,6.907h-2.997c-1.367,0-2.013,.63-2.013,2.105v6.854c0,1.475,.646,2.105,2.013,2.105h2.997c3.673,0,5.301-2.459,5.301-5.532s-1.629-5.532-5.301-5.532Zm-.784,8.298h-.784v-5.532h.784c2.044,0,2.551,1.014,2.551,2.766s-.507,2.766-2.551,2.766Z"/><path fill="#fff" d="M503.805,9.489c1.06,0,1.537-.522,1.537-1.291s-.476-1.291-1.537-1.291h-5.624c-1.367,0-2.013,.63-2.013,2.105v6.854c0,1.475,.646,2.105,2.013,2.105h5.794c1.06,0,1.537-.522,1.537-1.291s-.476-1.291-1.537-1.291h-4.272v-1.767h3.288c1.06,0,1.537-.523,1.537-1.291s-.476-1.291-1.537-1.291h-3.288v-1.552h4.103Z"/><path fill="#fff" d="M486.624,20.486c-1.091,0-1.767,.722-1.767,1.906v7.253c0,1.475,.646,2.105,2.013,2.105h5.225c.906,0,1.521-.522,1.521-1.429s-.615-1.429-1.521-1.429h-3.704v-6.5c0-1.183-.676-1.906-1.767-1.906Z"/><path fill="#fff" d="M494.705,30.521c0,.83,.815,1.429,1.614,1.429,.553,0,1.245-.246,1.429-.876l.246-.815h3.719l.246,.815c.185,.63,.876,.876,1.429,.876,.799,0,1.613-.599,1.613-1.429,0-.507-.292-1.322-.553-2.059l-2.351-6.546c-.338-.922-.8-1.429-1.69-1.429h-1.107c-.892,0-1.352,.507-1.69,1.429l-2.351,6.546c-.261,.738-.554,1.552-.554,2.059Zm5.133-6.516h.031l1.199,4.042h-2.428l1.199-4.042Z"/><path fill="#f59745" d="M486.536,43.907h15.938c2.08,0,3.767-1.687,3.767-3.767s-1.687-3.767-3.767-3.767h-15.938c-2.08,0-3.767,1.687-3.767,3.767s1.687,3.767,3.767,3.767Z"/></g></g></g></g></svg>