<svg xmlns="http://www.w3.org/2000/svg" width="128" height="51" fill="none" viewBox="0 0 128 51"><path fill="#fff" d="M81.3747 13.2572C81.3747 9.71379 78.889 8.72992 75.7162 8.72992H71.9858C70.3814 8.72992 69.626 9.47781 69.626 11.2205V19.8756C69.626 21.2734 70.3454 22.054 71.6441 22.054C72.9427 22.054 73.6621 21.2734 73.6621 19.8756V17.7736H75.7305C78.9033 17.7736 81.3747 16.7824 81.3747 13.2572ZM75.932 14.6041H73.6477V11.8957H75.7341C76.745 11.8957 77.3385 12.404 77.3385 13.2753C77.3383 13.4563 77.3016 13.6353 77.2306 13.8014C77.1595 13.9676 77.0557 14.1174 76.9255 14.2417C76.7952 14.3661 76.6412 14.4623 76.4729 14.5246C76.3046 14.5869 76.1254 14.614 75.9464 14.6041H75.932Z"/><path fill="#fff" d="M87.7279 19.803V10.7484C87.7279 9.35067 86.9365 8.49387 85.6558 8.49387C84.3752 8.49387 83.5874 9.35067 83.5874 10.7484V19.803C83.5874 21.2007 84.3788 22.0539 85.6558 22.0539C86.9329 22.0539 87.7279 21.2007 87.7279 19.803Z"/><path fill="#fff" d="M101.76 20.1841C101.76 19.095 101.109 18.5468 99.8679 18.5468H95.1915L100.731 12.3277C101.361 11.6016 101.562 11.1623 101.562 10.5632C101.562 9.5467 100.983 8.7262 99.6701 8.7262H91.8532C90.5006 8.7262 89.8711 9.38332 89.8711 10.3636C89.8711 11.3438 90.5006 12.0009 91.8532 12.0009H95.8858L90.6985 17.8098C89.7992 18.8082 89.5474 19.2801 89.5474 19.9881C89.5474 21.0046 90.1769 21.8034 91.5834 21.8034H99.8571C101.109 21.8179 101.76 21.2552 101.76 20.1841Z"/><path fill="#fff" d="M114.764 20.1841C114.764 19.095 114.117 18.5468 112.872 18.5468H108.196L113.75 12.3277C114.383 11.6016 114.581 11.1623 114.581 10.5632C114.581 9.5467 114.002 8.7262 112.689 8.7262H104.858C103.505 8.7262 102.876 9.38332 102.876 10.3636C102.876 11.3438 103.505 12.0009 104.858 12.0009H108.894L103.706 17.8098C102.804 18.8082 102.552 19.2801 102.552 19.9881C102.552 21.0046 103.181 21.8034 104.588 21.8034H112.862C114.11 21.8179 114.764 21.2552 114.764 20.1841Z"/><path fill="#fff" d="M123.949 10.1857C123.553 9.09653 123.014 8.49387 121.97 8.49387H120.672C119.629 8.49387 119.089 9.0929 118.69 10.1857L115.934 17.9296C115.628 18.8009 115.287 19.7667 115.287 20.3657C115.287 21.3459 116.243 22.0539 117.179 22.0539C117.826 22.0539 118.636 21.7634 118.855 21.0192L119.143 20.0571H123.499L123.787 21.0192C124.003 21.7634 124.816 22.0539 125.463 22.0539C126.399 22.0539 127.355 21.3459 127.355 20.3657C127.355 19.7667 127.014 18.8009 126.708 17.9296L123.949 10.1857ZM119.898 17.4468L121.305 12.6581H121.341L122.744 17.4395L119.898 17.4468Z"/><path fill="#fff" d="M63.1222 32.6986H63.1726L64.687 40.7983C64.9964 42.4937 65.7662 43.3687 67.3778 43.3687H68.2159C69.8275 43.3687 70.716 42.4465 71.0938 40.8709L73.5183 30.9269C73.8565 29.5473 74.1191 28.4545 74.1191 27.703C74.1256 27.3746 74.0647 27.0484 73.9403 26.7449C73.8159 26.4415 73.6307 26.1672 73.3962 25.9395C73.1618 25.7117 72.8832 25.5354 72.5779 25.4215C72.2727 25.3076 71.9474 25.2587 71.6226 25.2778C70.3491 25.2778 69.2663 25.8115 69.0037 27.5105L67.4965 37.0153H67.4497L65.9353 27.9716C65.6223 26.0547 65.0467 25.2778 63.1474 25.2778C61.248 25.2778 60.6724 26.0547 60.3595 27.9716L58.8486 37.0153H58.7983L57.273 27.5105C57.0104 25.8115 55.9276 25.2778 54.6542 25.2778C54.3293 25.2587 54.0041 25.3076 53.6988 25.4215C53.3936 25.5354 53.115 25.7117 52.8806 25.9395C52.6461 26.1672 52.4609 26.4415 52.3365 26.7449C52.2121 27.0484 52.1512 27.3746 52.1577 27.703C52.1577 28.4545 52.4203 29.5473 52.7584 30.9269L55.183 40.8709C55.5679 42.4465 56.4564 43.3687 58.0608 43.3687H58.9026C60.5106 43.3687 61.2804 42.4937 61.5934 40.7983L63.1222 32.6986Z"/><path fill="#fff" d="M91.2809 41.0089C91.2809 39.7963 90.5363 38.9722 88.8779 38.9722H82.2014V36.1912H87.3419C89.0002 36.1912 89.7449 35.367 89.7449 34.1544C89.7449 32.9418 89.0002 32.1177 87.3419 32.1177H82.2014V29.6671H88.6153C90.2737 29.6671 91.0183 28.843 91.0183 27.6304C91.0183 26.4178 90.2737 25.5937 88.6153 25.5937H79.82C77.6832 25.5937 76.6724 26.5884 76.6724 28.9156V39.7309C76.6724 42.0581 77.6832 43.0529 79.82 43.0529H88.8779C90.5363 43.0529 91.2809 42.2287 91.2809 41.0089Z"/><path fill="#fff" d="M108.627 41.0089C108.627 39.7963 107.882 38.9722 106.228 38.9722H99.5474V36.1912H104.688C106.346 36.1912 107.091 35.367 107.091 34.1544C107.091 32.9418 106.346 32.1177 104.688 32.1177H99.5474V29.6671H105.961C107.62 29.6671 108.364 28.843 108.364 27.6304C108.364 26.4178 107.62 25.5937 105.961 25.5937H97.1696C95.0112 25.5937 94.022 26.5884 94.022 28.9156V39.7309C94.022 42.0581 95.0292 43.0529 97.1696 43.0529H106.228C107.882 43.0529 108.627 42.2287 108.627 41.0089Z"/><path fill="#fff" d="M122.563 32.5279L125.161 29.6235C125.88 28.872 126.215 28.4145 126.215 27.6122C126.179 26.9793 125.906 26.3838 125.451 25.9468C124.996 25.5099 124.393 25.2641 123.765 25.2596C122.851 25.2596 122.326 25.7207 121.247 26.9079L116.894 31.7292V28.302C116.894 26.4359 115.836 25.2959 114.131 25.2959C112.426 25.2959 111.369 26.4359 111.369 28.302V40.3626C111.369 42.2287 112.426 43.3687 114.131 43.3687C115.836 43.3687 116.894 42.2287 116.894 40.3626V37.9592L118.455 36.2383L122.229 42.1307C122.456 42.5315 122.791 42.8599 123.194 43.0787C123.597 43.2975 124.053 43.398 124.509 43.3687C125.948 43.3687 127.323 42.2541 127.323 40.7983C127.297 40.2069 127.105 39.6352 126.769 39.15L122.563 32.5279Z"/><path fill="#fff" d="M53.5214 16.3213H57.2518C57.3921 16.3355 57.5338 16.3191 57.6672 16.2731C57.8006 16.2272 57.9227 16.1527 58.0251 16.0549C58.1275 15.9571 58.2078 15.8382 58.2606 15.7062C58.3134 15.5743 58.3374 15.4324 58.331 15.2903C58.3375 15.1482 58.3135 15.0065 58.2606 14.8747C58.2078 14.7429 58.1274 14.6242 58.025 14.5266C57.9225 14.4291 57.8004 14.355 57.667 14.3095C57.5335 14.264 57.3919 14.248 57.2518 14.2628H54.6078V9.5758C54.6078 8.72263 54.1222 8.20346 53.3452 8.20346C52.5682 8.20346 52.0825 8.72263 52.0825 9.5758V14.8038C52.0825 15.8675 52.543 16.3213 53.5214 16.3213Z"/><path fill="#fff" d="M61.8705 12.8433C59.6222 12.9885 58.9639 13.7073 58.9639 14.6585C58.9639 15.9328 59.8524 16.4556 61.1042 16.4556C61.4898 16.481 61.8756 16.4101 62.2276 16.2493C62.5795 16.0885 62.8868 15.8426 63.1223 15.5335C63.1979 16.0563 63.4821 16.4556 64.2627 16.4556C64.8023 16.4556 65.3167 16.2124 65.3167 15.646C65.3167 15.3701 65.2519 15.0143 65.2519 14.615V12.0736C65.2519 10.6432 63.4065 10.3672 62.2122 10.3672C60.6402 10.3672 59.4567 10.9191 59.4567 11.7723C59.4451 11.8704 59.4558 11.97 59.4878 12.0634C59.5199 12.1568 59.5726 12.2416 59.6418 12.3115C59.7111 12.3814 59.7952 12.4346 59.8877 12.4669C59.9803 12.4993 60.0789 12.51 60.1762 12.4984C60.946 12.4984 61.1762 11.7105 62.1511 11.7105C62.7554 11.7105 63.0648 11.9102 63.0648 12.2769C63.0648 12.6436 62.7158 12.7888 61.8705 12.8433ZM63.0576 14.3717C63.0576 14.8038 62.6151 15.2031 61.9784 15.2031C61.8959 15.2122 61.8125 15.2047 61.7329 15.1811C61.6533 15.1575 61.5791 15.1182 61.5146 15.0656C61.4501 15.013 61.3965 14.948 61.3569 14.8744C61.3174 14.8008 61.2926 14.72 61.2841 14.6368C61.2786 14.5345 61.3056 14.4332 61.3613 14.3476C61.417 14.262 61.4983 14.1967 61.5935 14.1612C62 13.9941 62.7338 14.0631 63.054 13.7182L63.0576 14.3717Z"/><path fill="#F59745" d="M53.4633 22.0685H64.3846C64.7439 22.0502 65.0825 21.8932 65.3304 21.63C65.5783 21.3668 65.7165 21.0176 65.7165 20.6544C65.7165 20.2913 65.5783 19.9421 65.3304 19.6789C65.0825 19.4157 64.7439 19.2587 64.3846 19.2404H53.4633C53.1039 19.2587 52.7653 19.4157 52.5175 19.6789C52.2696 19.9421 52.1313 20.2913 52.1313 20.6544C52.1313 21.0176 52.2696 21.3668 52.5175 21.63C52.7653 21.8932 53.1039 22.0502 53.4633 22.0685V22.0685Z"/><path fill="#FF8000" d="M16.5206 43.3479C16.3079 43.1326 16.1509 42.8679 16.0632 42.577C16.0121 42.0123 15.779 40.4505 15.779 40.4505C15.7733 40.3708 15.741 40.2955 15.6874 40.2369C15.6337 40.1782 15.5619 40.1398 15.4837 40.1278C15.1218 40.0785 14.5534 40.0493 14.5534 40.0493C14.4999 40.0501 14.4479 40.0675 14.4046 40.0992C14.3613 40.1309 14.3287 40.1753 14.3114 40.2264C14.2773 40.4155 14.2669 40.6083 14.2803 40.8C14.2803 40.9479 14.1515 40.8605 14.1515 40.8605C13.6912 40.48 13.2077 40.129 12.7038 39.8096C12.6059 39.7413 12.4898 39.7048 12.3708 39.7048C12.2518 39.7048 12.1356 39.7413 12.0377 39.8096C10.0885 41.0571 8.4668 42.7614 7.31066 44.7776C7.296 44.8012 7.28479 44.8269 7.27736 44.8537C7.26813 44.8923 7.26657 44.9323 7.27275 44.9715C7.27894 45.0107 7.29275 45.0482 7.31339 45.082C7.33404 45.1157 7.3611 45.145 7.39303 45.1681C7.42495 45.1913 7.4611 45.2078 7.49939 45.2168C7.67258 45.2593 8.38752 45.3266 8.38752 45.3266C8.4372 45.3384 8.48132 45.3671 8.51246 45.4079C8.54359 45.4488 8.55985 45.4992 8.55848 45.5506C8.54966 46.9689 8.63571 48.3861 8.81604 49.7926C8.82 49.8661 8.85161 49.9354 8.90443 49.9862C8.95724 50.037 9.02728 50.0655 9.10024 50.066L10.4924 50.0279C10.5834 50.0279 10.5612 49.9248 10.5612 49.9248C10.5057 49.4968 10.4435 48.168 10.4435 48.168C10.4435 48.0963 10.3592 48.0492 10.3592 48.0492C9.80631 47.7422 9.81741 46.9848 9.81741 46.9848C9.80187 46.2498 9.91289 43.7468 9.91289 43.7468V43.7311C9.91896 43.6888 9.94117 43.6506 9.97478 43.6246C10.0084 43.5987 10.0507 43.587 10.0927 43.5921H10.1105C10.1322 43.5949 10.1532 43.602 10.1722 43.6129C10.1913 43.6239 10.208 43.6385 10.2214 43.656C10.2348 43.6735 10.2446 43.6935 10.2504 43.7148C10.2561 43.7362 10.2576 43.7584 10.2548 43.7804C10.2371 43.944 10.1682 46.0369 10.1682 46.0369C10.1838 46.3686 10.4302 46.3394 10.4302 46.3394C10.7277 46.3551 10.6922 45.9787 10.6922 45.9787C10.67 45.2078 10.7877 43.7378 10.7877 43.7378C10.7867 43.7334 10.7867 43.7288 10.7877 43.7244C10.7945 43.6822 10.8168 43.6442 10.8502 43.6178C10.8835 43.5915 10.9254 43.5787 10.9676 43.5821C11.0098 43.5855 11.0492 43.6048 11.078 43.6361C11.1067 43.6674 11.1228 43.7085 11.123 43.7512C11.0564 44.5064 11.0364 46.0369 11.0364 46.0369C11.0497 46.3753 11.3206 46.3327 11.3206 46.3327C11.6003 46.3327 11.5604 45.9181 11.5604 45.9181C11.5359 45.2929 11.6536 43.7199 11.6536 43.7199C11.6536 43.7199 11.6536 43.7199 11.6536 43.7064C11.6581 43.6863 11.6664 43.6672 11.6783 43.6504C11.6901 43.6336 11.7052 43.6193 11.7225 43.6085C11.7399 43.5976 11.7593 43.5904 11.7795 43.5872C11.7997 43.584 11.8203 43.5849 11.8401 43.5899C12.0067 43.6145 11.9933 43.7423 11.9933 43.7423C11.9756 44.1255 11.909 46.5097 11.909 46.5097C11.9272 46.7462 11.9272 46.9837 11.909 47.2201C11.8901 47.3841 11.8351 47.5417 11.7479 47.6813C11.6606 47.8209 11.5434 47.939 11.4049 48.0268C11.3848 48.0368 11.368 48.0525 11.3565 48.072C11.3451 48.0915 11.3395 48.114 11.3406 48.1366C11.3406 48.3607 11.4449 49.9069 11.4649 49.9607C11.4849 50.0144 11.567 50.0055 11.567 50.0055C11.7713 49.992 13.5831 50.0055 13.5831 50.0055C13.7119 50.0055 13.7252 49.9696 13.7252 49.9696C13.7444 49.9226 13.7549 49.8725 13.7563 49.8217C13.7829 49.5976 13.8784 48.3584 13.8784 48.3584C13.8784 48.2576 13.8073 48.2576 13.8073 48.2576L13.3966 48.2016C13.0724 48.1747 13.0102 48.0559 13.0102 48.0559C12.9081 47.8834 12.9303 47.2066 12.9303 47.2066C12.947 45.8346 13.3794 44.5006 14.1693 43.3837C14.3513 43.1305 14.5423 43.2067 14.5423 43.2067C14.751 43.265 14.7643 43.5406 14.7643 43.5406C15.0352 45.6829 14.6377 49.9203 14.6377 49.9203C14.6244 50.0324 14.7043 50.0256 14.7043 50.0256C14.8864 50.0256 15.668 50.0458 15.668 50.0458C15.9544 50.0593 16.0055 49.5416 16.0055 49.5416C16.2031 48.2352 16.2408 45.5081 16.2408 45.5081C16.2384 45.483 16.2409 45.4578 16.2481 45.4337C16.2554 45.4097 16.2674 45.3873 16.2833 45.3679C16.2992 45.3485 16.3187 45.3325 16.3408 45.3208C16.3628 45.3091 16.387 45.3019 16.4118 45.2997C16.4851 45.2817 17.2466 45.2033 17.2466 45.2033C17.6663 45.1495 17.4687 44.7395 17.4687 44.7395C17.3443 44.5243 16.5206 43.3479 16.5206 43.3479Z"/><path fill="#FF8000" d="M27.1613 43.3501C27.1479 43.3319 27.1305 43.3171 27.1105 43.3069C27.0904 43.2968 27.0682 43.2916 27.0458 43.2918H25.8224L24.3192 48.4301L23.7508 45.9338L25.496 43.5271C25.5072 43.5116 25.5155 43.4941 25.5204 43.4756L25.5515 43.3702C25.5543 43.3611 25.555 43.3515 25.5534 43.3421C25.5518 43.3328 25.548 43.3239 25.5424 43.3162C25.5368 43.3086 25.5294 43.3024 25.521 43.2982C25.5125 43.2939 25.5032 43.2917 25.4938 43.2918H24.2482L22.916 45.266L23.4866 43.4733C23.4928 43.4516 23.4938 43.4287 23.4896 43.4065C23.4853 43.3843 23.476 43.3634 23.4622 43.3456C23.4493 43.3274 23.4324 43.3126 23.4126 43.3025C23.3929 43.2923 23.3711 43.2871 23.349 43.2873H22.1167L21.0509 46.9399C21.0753 46.3125 20.5935 45.8195 20.3115 45.5058C20.0895 45.2503 19.9474 45.0576 19.9718 44.8671C19.9894 44.7332 20.0531 44.6098 20.1517 44.5184C20.2503 44.4271 20.3777 44.3736 20.5114 44.3674C20.734 44.3509 20.956 44.4075 21.1442 44.5288C21.167 44.54 21.192 44.5461 21.2174 44.5467C21.2373 44.5475 21.257 44.5437 21.2752 44.5355C21.2956 44.5279 21.3141 44.5157 21.3291 44.4997C21.3441 44.4838 21.3553 44.4646 21.3618 44.4436L21.6504 43.4644L21.4506 43.3725L21.4217 43.359C21.1861 43.257 20.932 43.2058 20.6757 43.2089C19.5966 43.2089 18.6152 43.9887 18.4554 44.9478C18.3421 45.6201 18.7684 46.0906 19.0793 46.438L19.1059 46.4671C19.3279 46.7114 19.4878 46.8996 19.4501 47.1192C19.4137 47.2615 19.3321 47.3878 19.2178 47.4789C19.1035 47.5699 18.9629 47.6207 18.8173 47.6234C18.5548 47.639 18.2933 47.58 18.0624 47.4531C18.0193 47.4284 17.9693 47.4189 17.9203 47.4262C17.8968 47.4329 17.8754 47.4455 17.8579 47.4627C17.8405 47.4799 17.8276 47.5013 17.8203 47.5248L17.5472 48.4704L17.5117 48.5914C17.875 48.7628 18.2698 48.8559 18.6707 48.8648C19.5899 48.8648 20.3848 48.5085 20.8578 47.648L20.578 48.6071C20.5717 48.6287 20.5704 48.6515 20.5742 48.6736C20.5781 48.6958 20.587 48.7167 20.6002 48.7349C20.614 48.7526 20.6315 48.767 20.6514 48.7771C20.6714 48.7871 20.6933 48.7926 20.7157 48.7931H21.9479L22.2543 47.7377L22.6296 47.1931L22.9182 48.6766C22.9248 48.7092 22.9423 48.7386 22.9678 48.7598C22.9932 48.781 23.0251 48.7928 23.0581 48.7931H25.647L27.2012 43.4756C27.205 43.4529 27.2033 43.4297 27.1964 43.4079C27.1894 43.3861 27.1774 43.3662 27.1613 43.3501Z"/><path fill="#FF8000" d="M30.8323 44.7462C30.8506 44.366 30.7225 43.9935 30.4749 43.7064C30.3552 43.575 30.2096 43.4702 30.0475 43.3988C29.8854 43.3274 29.7103 43.291 29.5334 43.2919H27.493L27.4064 43.5832C27.4027 43.5967 27.4018 43.6108 27.4037 43.6247C27.4056 43.6386 27.4103 43.6519 27.4175 43.6639L27.4752 43.7557C27.5037 43.8 27.5223 43.85 27.5296 43.9023C27.5369 43.9545 27.5327 44.0078 27.5174 44.0583L26.1852 48.6072C26.1792 48.6288 26.1781 48.6515 26.1819 48.6736C26.1858 48.6957 26.1945 48.7167 26.2074 48.7349C26.2204 48.7531 26.2374 48.7681 26.257 48.7786C26.2766 48.789 26.2984 48.7948 26.3206 48.7954H27.5063L27.8771 47.5293H28.4122C29.7044 47.545 30.3594 46.633 30.6503 45.6358C30.7506 45.349 30.8118 45.0497 30.8323 44.7462V44.7462ZM29.2781 45.7098C29.1249 46.0526 28.985 46.3081 28.5831 46.3529H28.2235L28.7697 44.4818H29.2293C29.2605 44.4804 29.2917 44.4856 29.3207 44.4972C29.3498 44.5088 29.3762 44.5264 29.398 44.549C29.4351 44.5918 29.4626 44.6422 29.4787 44.6967C29.4948 44.7513 29.4991 44.8086 29.4913 44.865C29.4649 45.1572 29.3899 45.4428 29.2692 45.7098H29.2781Z"/><path fill="#FF8000" d="M32.1963 45.5954H31.3992L30.4889 48.7034C30.4858 48.7136 30.485 48.7243 30.4868 48.7348C30.4885 48.7453 30.4927 48.7552 30.499 48.7637C30.5053 48.7722 30.5135 48.7792 30.5229 48.7839C30.5324 48.7886 30.5428 48.791 30.5533 48.7908H31.306C32.5072 48.7908 32.9268 47.2693 32.9646 46.6306C33.0045 45.936 32.6182 45.5954 32.1963 45.5954ZM32.3362 46.6463C32.314 47.0295 32.0232 48.262 31.4481 48.262H31.2571L31.8766 46.1287H32.0498C32.2208 46.122 32.3584 46.2766 32.3362 46.6463Z"/><path fill="#FF8000" d="M33.0891 45.1562H33.38L33.8862 43.4173C33.8879 43.4111 33.8881 43.4045 33.8869 43.3981C33.8857 43.3918 33.8831 43.3858 33.8792 43.3806C33.8754 43.3754 33.8704 43.3711 33.8647 43.3682C33.859 43.3652 33.8526 43.3637 33.8462 43.3635H33.5531L33.3422 44.0873H32.9914L33.1846 43.4151C33.1867 43.409 33.1873 43.4025 33.1865 43.3961C33.1856 43.3897 33.1832 43.3836 33.1795 43.3783C33.1758 43.373 33.1709 43.3688 33.1652 43.3658C33.1595 43.3628 33.1532 43.3613 33.1468 43.3613H32.8537L32.3497 45.1024C32.348 45.1086 32.3477 45.1151 32.3489 45.1213C32.3501 45.1276 32.3527 45.1335 32.3566 45.1385C32.3605 45.1436 32.3656 45.1476 32.3713 45.1503C32.3771 45.153 32.3834 45.1542 32.3897 45.154H32.6806L32.9026 44.3809H33.2534L33.0447 45.1024C33.0422 45.1091 33.0416 45.1163 33.0428 45.1233C33.0439 45.1303 33.0469 45.1369 33.0514 45.1423C33.0559 45.1478 33.0618 45.1519 33.0684 45.1544C33.075 45.1568 33.0822 45.1575 33.0891 45.1562V45.1562Z"/><path fill="#FF8000" d="M34.9001 43.6571L34.969 43.4106C34.9712 43.4046 34.9719 43.3982 34.9711 43.3919C34.9702 43.3856 34.9678 43.3796 34.964 43.3744C34.9603 43.3693 34.9553 43.3652 34.9496 43.3625C34.9438 43.3598 34.9375 43.3586 34.9312 43.3591H34.183V43.3882L33.6878 45.098C33.6857 45.1041 33.685 45.1106 33.6859 45.117C33.6868 45.1234 33.6892 45.1295 33.6929 45.1347C33.6966 45.14 33.7015 45.1443 33.7072 45.1473C33.7129 45.1502 33.7192 45.1518 33.7256 45.1518H34.4738L34.5449 44.9053C34.5471 44.8993 34.5478 44.8929 34.547 44.8865C34.5461 44.8802 34.5437 44.8742 34.5399 44.8691C34.5362 44.864 34.5312 44.8599 34.5255 44.8572C34.5198 44.8545 34.5134 44.8533 34.5071 44.8537H34.103L34.2407 44.3876H34.607L34.6781 44.1411C34.6798 44.1352 34.6801 44.1289 34.679 44.1228C34.678 44.1167 34.6755 44.1109 34.6718 44.1059C34.6682 44.101 34.6635 44.0969 34.658 44.094C34.6525 44.0912 34.6465 44.0897 34.6404 44.0896H34.3251L34.4405 43.6571H34.9001Z"/><path fill="#FF8000" d="M31.5774 45.1562H31.8683L32.3124 43.6615H32.5899L32.6588 43.415C32.661 43.4091 32.6617 43.4026 32.6609 43.3963C32.66 43.39 32.6576 43.384 32.6538 43.3789C32.6501 43.3737 32.6451 43.3696 32.6394 43.3669C32.6336 43.3643 32.6273 43.3631 32.621 43.3635H31.7706L31.7018 43.6077C31.7001 43.614 31.6998 43.6206 31.701 43.6269C31.7022 43.6333 31.7049 43.6393 31.7087 43.6445C31.7126 43.6497 31.7176 43.6539 31.7233 43.6569C31.729 43.6598 31.7353 43.6614 31.7418 43.6615H31.9638L31.5441 45.1024C31.5425 45.1081 31.5421 45.1142 31.5429 45.1201C31.5437 45.126 31.5458 45.1317 31.5489 45.1368C31.552 45.1419 31.5562 45.1462 31.5611 45.1495C31.566 45.1529 31.5716 45.1551 31.5774 45.1562V45.1562Z"/><path fill="#FF8000" d="M34.2456 45.5954H33.7172L32.8135 48.7057C32.8104 48.7161 32.8097 48.7272 32.8116 48.7379C32.8135 48.7487 32.8178 48.7588 32.8243 48.7675C32.8308 48.7763 32.8392 48.7833 32.8489 48.7882C32.8586 48.793 32.8693 48.7954 32.8801 48.7953H33.4063L34.31 45.6738C34.3116 45.6643 34.3112 45.6545 34.3087 45.6452C34.3062 45.6358 34.3017 45.6271 34.2956 45.6197C34.2895 45.6122 34.2819 45.6062 34.2733 45.602C34.2646 45.5978 34.2552 45.5956 34.2456 45.5954V45.5954Z"/><path fill="#FF8000" d="M38.4888 45.5954H37.9604L37.5873 46.8861H36.959L37.3076 45.6828C37.3107 45.6726 37.3115 45.6619 37.3097 45.6514C37.308 45.6409 37.3038 45.631 37.2975 45.6225C37.2912 45.614 37.283 45.607 37.2736 45.6023C37.2641 45.5976 37.2537 45.5952 37.2432 45.5954H36.7147L35.8111 48.7057C35.808 48.7159 35.8073 48.7268 35.8091 48.7374C35.8108 48.7479 35.815 48.758 35.8212 48.7666C35.8274 48.7753 35.8356 48.7824 35.845 48.7874C35.8544 48.7924 35.8648 48.7951 35.8755 48.7953H36.4017L36.8013 47.4127H37.4297L37.0545 48.7079C37.0517 48.7182 37.0514 48.729 37.0535 48.7395C37.0555 48.7499 37.06 48.7598 37.0664 48.7682C37.0728 48.7767 37.0811 48.7835 37.0906 48.7882C37.1001 48.7929 37.1105 48.7953 37.1211 48.7953H37.6473L38.5532 45.6738C38.5548 45.6643 38.5543 45.6545 38.5518 45.6452C38.5494 45.6358 38.5449 45.6271 38.5388 45.6197C38.5327 45.6123 38.5251 45.6062 38.5164 45.602C38.5078 45.5978 38.4984 45.5956 38.4888 45.5954V45.5954Z"/><path fill="#FF8000" d="M39.8394 46.8996H39.2865L39.5086 46.1288H40.3234L40.45 45.6806C40.4532 45.6705 40.4539 45.6597 40.4521 45.6492C40.4504 45.6388 40.4462 45.6288 40.4399 45.6203C40.4336 45.6118 40.4254 45.6049 40.416 45.6002C40.4065 45.5955 40.3961 45.5931 40.3856 45.5932H39.0534L38.1475 48.7035C38.1444 48.7138 38.1437 48.7246 38.1455 48.7352C38.1472 48.7458 38.1514 48.7558 38.1576 48.7645C38.1639 48.7732 38.172 48.7803 38.1814 48.7852C38.1908 48.7902 38.2013 48.7929 38.2119 48.7932H39.5441L39.6729 48.345C39.6756 48.3347 39.6759 48.3239 39.6739 48.3134C39.6718 48.303 39.6674 48.2931 39.6609 48.2847C39.6545 48.2763 39.6462 48.2694 39.6367 48.2647C39.6273 48.26 39.6168 48.2576 39.6063 48.2576H38.8824L39.1289 47.4285H39.7706L39.9016 46.9803C39.9035 46.9708 39.9034 46.961 39.9012 46.9515C39.899 46.942 39.8948 46.9332 39.8889 46.9255C39.883 46.9178 39.8755 46.9116 39.867 46.9071C39.8584 46.9026 39.849 46.9001 39.8394 46.8996V46.8996Z"/><path fill="#FF8000" d="M35.1353 46.4627C35.1499 46.3606 35.199 46.2667 35.2742 46.1969C35.3494 46.1271 35.4462 46.0856 35.5482 46.0795C35.6669 46.0734 35.7854 46.0949 35.8946 46.1422C35.9072 46.1484 35.9209 46.1517 35.9348 46.152C35.9488 46.1524 35.9626 46.1497 35.9755 46.1442C35.9883 46.1387 35.9998 46.1304 36.0092 46.12C36.0186 46.1097 36.0257 46.0974 36.0301 46.084L36.1566 45.6537C35.9926 45.5816 35.8159 45.5434 35.6371 45.5417C35.3525 45.5432 35.0771 45.6429 34.8565 45.8243C34.636 46.0057 34.4836 46.2579 34.4248 46.5389C34.3648 46.9221 34.6068 47.1977 34.78 47.4038C34.9177 47.5607 35.0265 47.7019 35.002 47.8789C34.9857 47.9876 34.9325 48.0872 34.8515 48.1608C34.7706 48.2343 34.6668 48.2773 34.558 48.2822C34.4148 48.2963 34.2705 48.2707 34.1406 48.2083C34.1281 48.2009 34.114 48.1965 34.0996 48.1956C34.0851 48.1946 34.0706 48.197 34.0573 48.2027C34.0439 48.2083 34.0321 48.217 34.0226 48.2281C34.0132 48.2392 34.0064 48.2524 34.0029 48.2666L33.8652 48.7394C34.0597 48.8133 34.2658 48.8512 34.4736 48.8514C34.7681 48.8521 35.0535 48.7484 35.2799 48.5583C35.5064 48.3683 35.6595 48.104 35.7125 47.8117C35.7747 47.424 35.5349 47.1394 35.3617 46.9288C35.2174 46.7697 35.1086 46.6307 35.1353 46.4627Z"/><path fill="#FF8000" d="M40.5251 46.5389C40.463 46.9221 40.705 47.1977 40.8782 47.4038C41.0158 47.5607 41.1268 47.7019 41.1002 47.8789C41.0843 47.9878 41.0312 48.0877 40.9501 48.1613C40.8691 48.2349 40.7651 48.2777 40.6561 48.2823C40.5129 48.2965 40.3685 48.271 40.2387 48.2083C40.2263 48.2004 40.2122 48.1956 40.1976 48.1944C40.183 48.1932 40.1683 48.1955 40.1548 48.2012C40.1413 48.2069 40.1294 48.2159 40.12 48.2272C40.1106 48.2386 40.1041 48.2521 40.101 48.2666L39.9634 48.7394C40.1578 48.8136 40.3639 48.8516 40.5717 48.8514C40.8661 48.8517 41.1513 48.7478 41.3776 48.5578C41.604 48.3678 41.7572 48.1038 41.8107 47.8117C41.8706 47.424 41.6308 47.1394 41.4577 46.9288C41.3267 46.7697 41.2156 46.6307 41.2356 46.4627C41.2503 46.3606 41.2993 46.2667 41.3746 46.1969C41.4498 46.1271 41.5466 46.0856 41.6486 46.0795C41.7673 46.073 41.8859 46.0945 41.995 46.1422C42.0077 46.148 42.0216 46.1511 42.0356 46.1513C42.0495 46.1515 42.0634 46.1487 42.0763 46.1433C42.0893 46.1378 42.1009 46.1297 42.1106 46.1195C42.1203 46.1093 42.1278 46.0972 42.1326 46.084L42.257 45.6537C42.0937 45.5818 41.9178 45.5437 41.7396 45.5417C41.4546 45.5422 41.1784 45.6416 40.9573 45.8231C40.7362 46.0047 40.5837 46.2573 40.5251 46.5389V46.5389Z"/><path fill="#FD8000" d="M18.8298 40.3227C18.8251 40.3224 18.8204 40.323 18.816 40.3245C18.8116 40.326 18.8075 40.3284 18.804 40.3316C18.8005 40.3347 18.7976 40.3385 18.7956 40.3427C18.7935 40.347 18.7923 40.3516 18.792 40.3563L18.57 41.9249C18.5684 41.9292 18.568 41.934 18.5687 41.9386C18.5695 41.9431 18.5714 41.9475 18.5743 41.9511C18.5772 41.9547 18.581 41.9575 18.5853 41.9592C18.5896 41.9609 18.5943 41.9614 18.5988 41.9607H19.0762C19.2003 41.969 19.3247 41.9508 19.4413 41.9075C19.558 41.8641 19.6644 41.7966 19.7535 41.7091C19.8427 41.6217 19.9127 41.5163 19.9589 41.3998C20.0052 41.2834 20.0267 41.1584 20.0221 41.033C20.0301 40.9365 20.0169 40.8394 19.9835 40.7487C19.9501 40.6579 19.8973 40.5757 19.8288 40.5078C19.7603 40.44 19.6779 40.3882 19.5873 40.3562C19.4968 40.3242 19.4004 40.3128 19.3049 40.3227H18.8298ZM19.6913 41.0666C19.6988 41.1451 19.6894 41.2242 19.6637 41.2986C19.6379 41.373 19.5965 41.4409 19.5423 41.4976C19.488 41.5543 19.4222 41.5984 19.3494 41.6269C19.2766 41.6554 19.1986 41.6676 19.1206 41.6627H18.9474L19.0918 40.6185H19.2694C19.5647 40.6185 19.6913 40.7753 19.6913 41.0666Z"/><path fill="#FD8000" d="M21.2995 41.3355C21.3155 41.2668 21.3151 41.1951 21.2985 41.1265C21.2818 41.0579 21.2493 40.9943 21.2037 40.9407C21.158 40.8872 21.1004 40.8453 21.0357 40.8185C20.9709 40.7917 20.9008 40.7808 20.831 40.7865C20.6544 40.7865 20.4849 40.8573 20.36 40.9834C20.2351 41.1095 20.1649 41.2805 20.1649 41.4588C20.1622 41.5306 20.1746 41.6022 20.2012 41.6689C20.2279 41.7355 20.2683 41.7957 20.3197 41.8454C20.3711 41.8952 20.4323 41.9334 20.4994 41.9575C20.5665 41.9816 20.6379 41.9911 20.7089 41.9854C20.8578 41.9889 21.0029 41.9379 21.1174 41.842C21.1441 41.8218 21.1463 41.8084 21.1174 41.7815L21.0575 41.6806C21.042 41.6537 21.0286 41.6493 21.0042 41.6605C20.9265 41.703 20.8395 41.7253 20.7511 41.7254C20.5779 41.7254 20.478 41.6493 20.4624 41.5014H21.1508C21.244 41.5081 21.2818 41.4476 21.2995 41.3355ZM20.4958 41.2818C20.5125 41.2157 20.5511 41.1574 20.6053 41.1166C20.6594 41.0758 20.7258 41.055 20.7933 41.0577C20.8232 41.0545 20.8535 41.0581 20.8818 41.0683C20.9102 41.0784 20.936 41.0948 20.9572 41.1163C20.9785 41.1378 20.9948 41.1638 21.0048 41.1924C21.0149 41.221 21.0185 41.2515 21.0153 41.2818H20.4958Z"/><path fill="#FD8000" d="M21.6937 40.2958C21.6841 40.2958 21.6748 40.2995 21.6678 40.3062C21.6607 40.3128 21.6565 40.322 21.656 40.3317L21.4339 41.9339C21.4328 41.9384 21.4328 41.9432 21.4339 41.9477C21.435 41.9522 21.4372 41.9564 21.4402 41.9599C21.4433 41.9635 21.4471 41.9662 21.4514 41.9679C21.4557 41.9696 21.4604 41.9702 21.465 41.9697H21.7181C21.728 41.9698 21.7375 41.9662 21.7449 41.9595C21.7523 41.9529 21.757 41.9438 21.7581 41.9339L21.9801 40.3317C21.9812 40.3271 21.9812 40.3224 21.9801 40.3179C21.979 40.3133 21.9768 40.3091 21.9738 40.3056C21.9707 40.3021 21.9669 40.2994 21.9626 40.2977C21.9583 40.296 21.9536 40.2953 21.949 40.2958H21.6937Z"/><path fill="#FD8000" d="M22.5808 40.4304C22.5814 40.4071 22.5773 40.3839 22.5689 40.3621C22.5605 40.3404 22.5478 40.3206 22.5317 40.3039C22.5155 40.2872 22.4962 40.2739 22.4749 40.2648C22.4536 40.2558 22.4307 40.2511 22.4076 40.2511C22.3605 40.2511 22.3153 40.27 22.282 40.3036C22.2487 40.3373 22.23 40.3829 22.23 40.4304C22.23 40.4779 22.2487 40.5235 22.282 40.5572C22.3153 40.5908 22.3605 40.6097 22.4076 40.6097C22.4308 40.61 22.4539 40.6055 22.4753 40.5966C22.4968 40.5876 22.5162 40.5744 22.5324 40.5576C22.5486 40.5408 22.5612 40.5209 22.5696 40.499C22.5779 40.4772 22.5817 40.4538 22.5808 40.4304V40.4304Z"/><path fill="#FD8000" d="M22.2305 40.8135C22.2202 40.8129 22.2102 40.8163 22.2023 40.8229C22.1944 40.8296 22.1894 40.8391 22.1883 40.8494L22.0396 41.925C22.0396 41.9474 22.0507 41.9608 22.0729 41.9608H22.3215C22.3314 41.9609 22.341 41.9573 22.3483 41.9507C22.3557 41.944 22.3604 41.9349 22.3615 41.925L22.5103 40.8494C22.5103 40.827 22.5103 40.8135 22.4792 40.8135H22.2305Z"/><path fill="#FD8000" d="M23.8831 40.8134H23.6256C23.6164 40.8133 23.6075 40.816 23.5999 40.8213C23.5924 40.8265 23.5866 40.8339 23.5834 40.8426L23.2082 41.5888L23.0483 40.8426C23.0467 40.8339 23.0419 40.8261 23.035 40.8207C23.028 40.8153 23.0193 40.8127 23.0106 40.8134H22.7552C22.7286 40.8134 22.7153 40.8269 22.7219 40.8538L22.995 41.9316C22.9975 41.9403 23.0028 41.9479 23.01 41.9532C23.0173 41.9584 23.026 41.9611 23.035 41.9608H23.2925C23.302 41.961 23.3113 41.9584 23.3192 41.9532C23.3272 41.948 23.3333 41.9405 23.3369 41.9316L23.9076 40.8538C23.9209 40.8269 23.9098 40.8134 23.8831 40.8134Z"/><path fill="#FD8000" d="M25.029 41.3355C25.045 41.2668 25.0446 41.1951 25.028 41.1265C25.0113 41.0579 24.9788 40.9943 24.9332 40.9407C24.8875 40.8872 24.8299 40.8453 24.7652 40.8185C24.7004 40.7917 24.6303 40.7808 24.5605 40.7865C24.3839 40.7865 24.2144 40.8573 24.0895 40.9834C23.9646 41.1095 23.8944 41.2805 23.8944 41.4588C23.8917 41.5306 23.9041 41.6022 23.9307 41.6689C23.9574 41.7355 23.9978 41.7957 24.0492 41.8454C24.1006 41.8952 24.1618 41.9334 24.2289 41.9575C24.296 41.9816 24.3674 41.9911 24.4384 41.9854C24.5873 41.9889 24.7324 41.9379 24.8469 41.842C24.8714 41.8218 24.8736 41.8084 24.8469 41.7815L24.787 41.6806C24.7714 41.6537 24.7559 41.6493 24.7337 41.6605C24.656 41.703 24.569 41.7253 24.4806 41.7254C24.3074 41.7254 24.2075 41.6493 24.1919 41.5014H24.8936C24.9735 41.5081 25.0135 41.4476 25.029 41.3355ZM24.2275 41.2818C24.2442 41.2157 24.2828 41.1574 24.337 41.1166C24.3911 41.0758 24.4575 41.055 24.525 41.0577C24.5549 41.0545 24.5852 41.0581 24.6135 41.0683C24.6419 41.0784 24.6677 41.0948 24.6889 41.1163C24.7102 41.1378 24.7265 41.1638 24.7365 41.1924C24.7466 41.221 24.7502 41.2515 24.747 41.2818H24.2275Z"/><path fill="#FD8000" d="M25.1956 41.9607H25.4465C25.4515 41.9611 25.4565 41.9604 25.4612 41.9587C25.4659 41.9571 25.4702 41.9545 25.4739 41.9512C25.4776 41.9479 25.4806 41.9438 25.4828 41.9393C25.485 41.9348 25.4862 41.9299 25.4865 41.9249L25.5664 41.349C25.5886 41.1787 25.6752 41.0778 25.8329 41.0778C25.8629 41.0775 25.8927 41.0813 25.9217 41.0891C25.955 41.0891 25.9705 41.0891 25.9772 41.0622L26.0038 40.8605C26.0059 40.852 26.0055 40.843 26.0027 40.8347C26 40.8264 25.995 40.819 25.9883 40.8134C25.9572 40.7936 25.9207 40.7842 25.8839 40.7865C25.8213 40.7908 25.7616 40.8147 25.713 40.8549C25.6645 40.8951 25.6295 40.9495 25.6131 41.0106L25.6242 40.8582C25.6253 40.8537 25.6253 40.849 25.6242 40.8444C25.6231 40.8399 25.6209 40.8357 25.6178 40.8322C25.6148 40.8287 25.611 40.8259 25.6066 40.8242C25.6023 40.8225 25.5977 40.8219 25.5931 40.8224H25.3533C25.3483 40.8221 25.3434 40.8228 25.3387 40.8244C25.334 40.8261 25.3296 40.8286 25.3259 40.8319C25.3222 40.8353 25.3192 40.8393 25.317 40.8438C25.3149 40.8483 25.3136 40.8532 25.3133 40.8582L25.1646 41.9339C25.1648 41.9377 25.1659 41.9414 25.1676 41.9448C25.1693 41.9483 25.1717 41.9513 25.1746 41.9538C25.1774 41.9563 25.1808 41.9582 25.1844 41.9594C25.188 41.9606 25.1918 41.9611 25.1956 41.9607V41.9607Z"/><path fill="#FD8000" d="M27.176 41.3355C27.192 41.2668 27.1916 41.1951 27.1749 41.1265C27.1583 41.0579 27.1258 40.9943 27.0801 40.9407C27.0344 40.8872 26.9769 40.8453 26.9121 40.8185C26.8474 40.7917 26.7773 40.7808 26.7075 40.7865C26.5308 40.7865 26.3614 40.8573 26.2365 40.9834C26.1116 41.1095 26.0414 41.2805 26.0414 41.4588C26.0387 41.5306 26.051 41.6022 26.0777 41.6689C26.1044 41.7355 26.1447 41.7957 26.1961 41.8454C26.2475 41.8952 26.3088 41.9334 26.3759 41.9575C26.443 41.9816 26.5144 41.9911 26.5854 41.9854C26.7342 41.9889 26.8793 41.9379 26.9939 41.842C27.0206 41.8218 27.0228 41.8084 26.9939 41.7815L26.934 41.6806C26.9184 41.6537 26.9051 41.6493 26.8807 41.6605C26.803 41.703 26.716 41.7253 26.6276 41.7254C26.4544 41.7254 26.3545 41.6493 26.3389 41.5014H27.0272C27.1138 41.5081 27.1582 41.4476 27.176 41.3355ZM26.3722 41.2818C26.3889 41.2157 26.4276 41.1574 26.4817 41.1166C26.5359 41.0758 26.6022 41.055 26.6697 41.0577C26.6997 41.0545 26.7299 41.0581 26.7583 41.0683C26.7867 41.0784 26.8124 41.0948 26.8337 41.1163C26.855 41.1378 26.8712 41.1638 26.8813 41.1924C26.8913 41.221 26.8949 41.2515 26.8918 41.2818H26.3722Z"/><path fill="#FD8000" d="M28.1956 41.9609H28.4176C28.4278 41.9615 28.4379 41.9582 28.4458 41.9515C28.4536 41.9448 28.4587 41.9353 28.4598 41.925L28.6818 40.3228C28.6829 40.3183 28.6829 40.3135 28.6818 40.309C28.6807 40.3045 28.6785 40.3003 28.6755 40.2968C28.6724 40.2932 28.6686 40.2905 28.6643 40.2888C28.66 40.2871 28.6553 40.2865 28.6507 40.287H28.402C28.3922 40.2869 28.3826 40.2905 28.3752 40.2972C28.3679 40.3038 28.3632 40.3129 28.3621 40.3228L28.2844 40.9659C28.2497 40.9062 28.199 40.8577 28.138 40.8259C28.0771 40.7942 28.0085 40.7806 27.9402 40.7867C27.8541 40.7904 27.7695 40.8114 27.6915 40.8485C27.6135 40.8856 27.5436 40.938 27.4859 41.0027C27.4282 41.0674 27.3839 41.143 27.3555 41.2252C27.3272 41.3074 27.3153 41.3945 27.3207 41.4813C27.3122 41.5464 27.3179 41.6126 27.3375 41.6752C27.3572 41.7378 27.3902 41.7953 27.4342 41.8436C27.4783 41.8919 27.5323 41.9299 27.5925 41.9548C27.6527 41.9797 27.7176 41.991 27.7826 41.9878C27.8577 41.9899 27.9323 41.9744 28.0005 41.9425C28.0686 41.9106 28.1286 41.8632 28.1756 41.804V41.925C28.1742 41.9287 28.1737 41.9326 28.174 41.9365C28.1743 41.9404 28.1754 41.9442 28.1773 41.9476C28.1792 41.9511 28.1818 41.954 28.185 41.9563C28.1881 41.9586 28.1917 41.9602 28.1956 41.9609V41.9609ZM27.8891 41.6942C27.8548 41.6963 27.8204 41.6908 27.7883 41.6783C27.7562 41.6658 27.7272 41.6464 27.7032 41.6215C27.6792 41.5967 27.6608 41.5669 27.6492 41.5342C27.6376 41.5015 27.6331 41.4666 27.636 41.432C27.6342 41.3865 27.6416 41.341 27.6576 41.2984C27.6737 41.2558 27.6981 41.2169 27.7294 41.184C27.7607 41.1512 27.7983 41.125 27.8398 41.1072C27.8814 41.0894 27.9261 41.0802 27.9713 41.0802C28.0096 41.0778 28.0479 41.0847 28.0831 41.1002C28.1183 41.1157 28.1493 41.1394 28.1736 41.1694C28.1979 41.1994 28.2147 41.2348 28.2228 41.2727C28.2309 41.3105 28.2299 41.3498 28.22 41.3872C28.2138 41.4712 28.1761 41.5497 28.1147 41.6067C28.0532 41.6637 27.9726 41.695 27.8891 41.6942V41.6942Z"/><path fill="#FD8000" d="M29.7043 40.2959H29.4512C29.4416 40.2959 29.4323 40.2996 29.4253 40.3062C29.4182 40.3129 29.414 40.322 29.4134 40.3317L29.1914 41.9339C29.1914 41.9564 29.1914 41.9698 29.2225 41.9698H29.4756C29.4853 41.9698 29.4945 41.9661 29.5015 41.9594C29.5086 41.9528 29.5128 41.9437 29.5134 41.9339L29.5311 41.8197C29.5661 41.8779 29.6163 41.9252 29.6763 41.9564C29.7362 41.9877 29.8036 42.0016 29.8708 41.9967C29.9564 41.9936 30.0405 41.9732 30.1181 41.9366C30.1957 41.9001 30.2652 41.8482 30.3226 41.7841C30.38 41.7199 30.424 41.6448 30.452 41.5631C30.4801 41.4815 30.4916 41.395 30.4859 41.3087C30.4955 41.2431 30.4906 41.1762 30.4714 41.1128C30.4523 41.0493 30.4195 40.9909 30.3753 40.9419C30.3311 40.8928 30.2767 40.8542 30.216 40.8289C30.1552 40.8036 30.0897 40.7922 30.024 40.7956C29.9533 40.7939 29.883 40.8078 29.8182 40.8365C29.7534 40.8651 29.6955 40.9078 29.6488 40.9614L29.7376 40.3317C29.7388 40.327 29.7388 40.322 29.7376 40.3173C29.7364 40.3125 29.734 40.3082 29.7307 40.3046C29.7274 40.301 29.7232 40.2983 29.7186 40.2968C29.714 40.2953 29.7091 40.295 29.7043 40.2959V40.2959ZM29.9152 41.0891C29.9498 41.087 29.9844 41.0925 30.0166 41.1052C30.0489 41.1179 30.078 41.1374 30.1021 41.1626C30.1261 41.1877 30.1445 41.2178 30.156 41.2507C30.1674 41.2837 30.1716 41.3188 30.1684 41.3536C30.1708 41.3988 30.164 41.444 30.1485 41.4865C30.1329 41.529 30.1089 41.5678 30.0779 41.6006C30.0469 41.6333 30.0096 41.6593 29.9682 41.677C29.9269 41.6946 29.8824 41.7035 29.8375 41.7031C29.8005 41.7056 29.7634 41.6994 29.7291 41.685C29.6949 41.6707 29.6643 41.6486 29.6398 41.6204C29.6154 41.5923 29.5976 41.5588 29.588 41.5227C29.5784 41.4865 29.5772 41.4486 29.5844 41.4118V41.376C29.5937 41.2942 29.6326 41.2187 29.6937 41.1641C29.7548 41.1095 29.8337 41.0796 29.9152 41.0802V41.0891Z"/><path fill="#FD8000" d="M30.7127 42.4045H30.9547C30.9643 42.4051 30.9738 42.4029 30.982 42.3981C30.9903 42.3933 30.9971 42.3862 31.0014 42.3776L31.8162 40.8538C31.8296 40.8269 31.8162 40.8135 31.7918 40.8135H31.5365C31.5271 40.8135 31.5179 40.8163 31.51 40.8214C31.5021 40.8266 31.4959 40.8339 31.4921 40.8426L31.1102 41.5888L30.9503 40.8426C30.9482 40.8337 30.943 40.8259 30.9357 40.8205C30.9283 40.8152 30.9194 40.8127 30.9103 40.8135H30.6661C30.6417 40.8135 30.6283 40.8269 30.635 40.8538L30.9148 41.9608L30.6927 42.3664C30.6661 42.391 30.6861 42.4045 30.7127 42.4045Z"/><path fill="#CF3339" d="M44.1839 5.8817H44.1862L44.3593 6.36796H44.4482L44.6213 5.8817H44.6236V6.36796H44.7279V5.73828H44.5747L44.4082 6.23127H44.406L44.2328 5.73828H44.0796V6.36796H44.1839V5.8817Z"/><path fill="#CF3339" d="M45.2409 6.34337C45.274 6.32828 45.303 6.30519 45.3252 6.27615C45.3483 6.24602 45.3656 6.21183 45.3763 6.17531C45.397 6.09523 45.397 6.01114 45.3763 5.93106C45.3661 5.89435 45.3487 5.86007 45.3252 5.83022C45.303 5.80117 45.274 5.77809 45.2409 5.76299C45.2019 5.74521 45.1593 5.73677 45.1165 5.73834H44.8501V6.36802H45.1099C45.1548 6.36946 45.1995 6.36105 45.2409 6.34337ZM44.9656 6.27839V5.83022H45.0721C45.1076 5.82872 45.143 5.83404 45.1765 5.84591C45.2013 5.85726 45.2233 5.87411 45.2409 5.8952C45.2565 5.91643 45.2671 5.94094 45.272 5.96691C45.2836 6.02533 45.2836 6.08552 45.272 6.14394C45.2667 6.16978 45.2561 6.19421 45.2409 6.21565C45.2238 6.2367 45.2016 6.25292 45.1765 6.2627C45.1432 6.27544 45.1077 6.28152 45.0721 6.28063L44.9656 6.27839Z"/><path fill="#CF3339" d="M45.7512 5.72275H45.6557L45.4048 6.3838H45.5003L45.7512 5.72275Z"/><path fill="#CF3339" d="M45.8508 6.28961C45.8803 6.31901 45.9149 6.34257 45.953 6.35907C45.9947 6.37561 46.0391 6.38397 46.084 6.38372C46.1258 6.38333 46.1673 6.37497 46.2061 6.35907C46.2439 6.34311 46.2785 6.32033 46.3082 6.29185C46.3374 6.26214 46.3607 6.22717 46.3771 6.18877C46.3952 6.14556 46.4043 6.09901 46.4037 6.05208C46.4043 6.00586 46.3952 5.96004 46.3771 5.91762C46.3607 5.87855 46.3374 5.84284 46.3082 5.8123C46.2779 5.78525 46.2434 5.76331 46.2061 5.74732C46.1676 5.73037 46.126 5.72196 46.084 5.72267C46.0412 5.72171 45.9988 5.73012 45.9596 5.74732C45.9218 5.76224 45.8871 5.78429 45.8575 5.8123C45.8269 5.84214 45.8027 5.87798 45.7864 5.91762C45.7683 5.96004 45.7592 6.00586 45.7598 6.05208C45.7598 6.09729 45.768 6.14212 45.7842 6.18429C45.8011 6.22252 45.8236 6.25802 45.8508 6.28961V6.28961ZM45.8508 5.94227C45.8617 5.90937 45.8799 5.87946 45.9041 5.85488C45.927 5.83125 45.9541 5.81224 45.9841 5.79886C46.0158 5.78601 46.0498 5.77991 46.084 5.78093C46.1174 5.78016 46.1506 5.78626 46.1817 5.79886C46.211 5.81334 46.2379 5.83223 46.2616 5.85488C46.2844 5.88054 46.3025 5.91015 46.3149 5.94227C46.3267 5.97765 46.3327 6.01474 46.3326 6.05208C46.3327 6.09014 46.3267 6.12797 46.3149 6.16412C46.3031 6.19543 46.2853 6.22405 46.2624 6.24829C46.2395 6.27254 46.2121 6.29192 46.1817 6.30529C46.1508 6.3186 46.1175 6.32546 46.084 6.32546C46.0472 6.3265 46.0107 6.31882 45.9774 6.30305C45.9472 6.2902 45.9206 6.27021 45.8997 6.24479C45.8773 6.22006 45.8599 6.19113 45.8486 6.15964C45.837 6.12499 45.831 6.08866 45.8308 6.05208C45.8304 6.01452 45.8372 5.97723 45.8508 5.94227V5.94227Z"/><path fill="#CF3339" d="M46.0179 6.09016H46.0756L46.1689 6.24702H46.2355L46.1334 6.08568C46.1586 6.08472 46.1829 6.07526 46.2022 6.05879C46.2117 6.04913 46.2189 6.03752 46.2235 6.02476C46.2281 6.01199 46.2299 5.99838 46.2288 5.98484C46.2302 5.97 46.2278 5.95506 46.222 5.94137C46.2162 5.92767 46.2071 5.91566 46.1955 5.90641C46.1662 5.88636 46.131 5.87689 46.0956 5.87952H45.9624V6.24702H46.0201L46.0179 6.09016ZM46.0179 5.93106H46.1178C46.1258 5.92876 46.1343 5.92876 46.1422 5.93106C46.1504 5.93396 46.1574 5.93946 46.1622 5.94674C46.167 5.95401 46.1694 5.96267 46.1689 5.97139C46.1717 5.98166 46.1717 5.99251 46.1689 6.00277C46.1648 6.01034 46.1586 6.01657 46.1511 6.02069C46.1424 6.02271 46.1333 6.02271 46.1245 6.02069H46.0246L46.0179 5.93106Z"/><path fill="#CF3339" d="M24.4644 6.04304L24.0958 5.65761L24.2557 5.50075C24.3345 5.43047 24.3941 5.34098 24.4289 5.24081C24.4542 5.15834 24.4542 5.07007 24.4289 4.9876C24.4063 4.90602 24.3637 4.83148 24.3051 4.7708C24.2466 4.71012 24.1738 4.66524 24.0936 4.64026C24.0127 4.61462 23.9259 4.61462 23.8449 4.64026C23.7477 4.67509 23.6597 4.7318 23.5874 4.80609L23.1655 5.21616L24.1935 6.29177L24.4644 6.04304ZM23.896 5.44921L23.6385 5.17807L23.7806 5.04138C23.7986 5.02029 23.8207 5.00307 23.8455 4.99076C23.8703 4.97844 23.8973 4.97127 23.9249 4.96967C23.9499 4.97024 23.9744 4.97612 23.997 4.98694C24.0196 4.99775 24.0396 5.01324 24.0559 5.03241C24.0744 5.04952 24.0893 5.07027 24.0996 5.09339C24.1099 5.11651 24.1154 5.14151 24.1158 5.16686C24.1087 5.22284 24.081 5.27405 24.0381 5.31028L23.896 5.44921Z"/><path fill="#CF3339" d="M25.4287 5.20732L25.1001 4.75915C25.0748 4.73218 25.0555 4.7 25.0436 4.6648C25.0317 4.6296 25.0275 4.59222 25.0313 4.55523C25.0518 4.48495 25.0968 4.42449 25.1579 4.38493L25.2378 4.32442L25.0158 4.01743C24.9558 4.06132 24.9089 4.12101 24.8803 4.18997C24.8508 4.2607 24.8386 4.33757 24.8448 4.41406L24.7271 4.25496L24.4385 4.47904L25.1401 5.41796L25.4287 5.20732Z"/><path fill="#CF3339" d="M25.6994 4.66951C25.7838 4.72061 25.8807 4.74699 25.9791 4.7457C26.0768 4.73879 26.1719 4.71058 26.2578 4.66299C26.3436 4.6154 26.4183 4.54958 26.4765 4.47007C26.5228 4.40391 26.5537 4.32798 26.5668 4.24802C26.5799 4.16806 26.5748 4.08615 26.552 4.00846L26.2211 4.20789C26.2262 4.24707 26.2192 4.28687 26.2009 4.3218C26.1826 4.35673 26.154 4.38506 26.119 4.40285C26.0957 4.41836 26.0695 4.42894 26.042 4.43394C26.0145 4.43895 25.9863 4.43828 25.9591 4.43198C25.8982 4.41685 25.8456 4.37823 25.8126 4.32442L26.512 3.90089C26.4975 3.86788 26.4812 3.83571 26.4631 3.80454C26.4086 3.71249 26.3323 3.63551 26.2411 3.58045C26.1547 3.53078 26.0562 3.5067 25.9569 3.51098C25.8509 3.51959 25.7483 3.55304 25.6574 3.60867C25.5664 3.6643 25.4895 3.74057 25.4329 3.83143C25.382 3.91962 25.3573 4.02076 25.3619 4.12274C25.3687 4.23549 25.403 4.3448 25.4618 4.44094C25.5208 4.53594 25.6025 4.61451 25.6994 4.66951ZM25.6994 3.97484C25.7208 3.92235 25.7586 3.87839 25.8071 3.84966C25.8557 3.82093 25.9122 3.80902 25.968 3.81574C25.995 3.82088 26.0206 3.83199 26.0428 3.84826C26.0651 3.86453 26.0835 3.88556 26.0968 3.90986L25.7105 4.14515C25.6889 4.09061 25.6881 4.02994 25.7082 3.97484H25.6994Z"/><path fill="#CF3339" d="M26.6847 3.66327C26.7398 3.68804 26.8 3.69882 26.8601 3.69464C26.9348 3.68824 27.009 3.67701 27.0822 3.66103C27.1403 3.64643 27.1999 3.63817 27.2598 3.63638C27.2758 3.63451 27.292 3.63785 27.3059 3.64591C27.3199 3.65397 27.331 3.66634 27.3375 3.6812C27.3441 3.69319 27.3476 3.70669 27.3476 3.72041C27.3476 3.73414 27.3441 3.74763 27.3375 3.75963C27.3166 3.79047 27.2873 3.81458 27.2531 3.82909C27.2133 3.84906 27.1681 3.85536 27.1244 3.84702C27.105 3.84392 27.0866 3.83648 27.0704 3.82523C27.0543 3.81398 27.0408 3.79922 27.0311 3.78203L26.7092 3.93441C26.7452 4.00068 26.8001 4.05453 26.8668 4.08903C26.9353 4.12463 27.0118 4.14162 27.0888 4.13833C27.183 4.13477 27.2753 4.11109 27.3597 4.06886C27.4384 4.03323 27.5094 3.9822 27.5684 3.91873C27.6165 3.86579 27.6494 3.80077 27.6639 3.7305C27.6752 3.66503 27.6659 3.59764 27.6373 3.53778C27.6103 3.47146 27.5596 3.41784 27.4952 3.38764C27.4404 3.36167 27.3802 3.34938 27.3198 3.35179C27.262 3.35179 27.1888 3.36748 27.0977 3.38316C27.0411 3.39833 26.983 3.40735 26.9245 3.41005C26.9078 3.41137 26.891 3.4076 26.8763 3.39921C26.8617 3.39083 26.8499 3.37821 26.8424 3.36299C26.8364 3.35162 26.8332 3.33892 26.8332 3.32602C26.8332 3.31312 26.8364 3.30042 26.8424 3.28905C26.861 3.25979 26.8882 3.23709 26.9201 3.22406C26.9585 3.20444 27.0022 3.19814 27.0444 3.20613C27.0811 3.21579 27.1128 3.23899 27.1332 3.27112L27.4352 3.1277C27.4076 3.0786 27.3706 3.03551 27.3264 3.00089C27.2822 2.96628 27.2316 2.94084 27.1777 2.92603C27.0551 2.89709 26.9263 2.91464 26.8157 2.97533C26.7313 3.00958 26.6554 3.0624 26.5937 3.12995C26.5461 3.18464 26.5139 3.25118 26.5005 3.32266C26.4911 3.38836 26.5012 3.45538 26.5293 3.51537C26.5605 3.58292 26.6161 3.63584 26.6847 3.66327V3.66327Z"/><path fill="#CF3339" d="M27.8755 3.51989C27.9516 3.58775 28.0458 3.63141 28.1464 3.64538C28.2522 3.66015 28.3601 3.64703 28.4594 3.60729C28.5421 3.57689 28.6177 3.52959 28.6815 3.46835C28.7392 3.40982 28.7838 3.33954 28.8125 3.26219C28.839 3.18684 28.8481 3.10636 28.8391 3.0269L28.4794 3.16136C28.4772 3.20101 28.4627 3.23896 28.438 3.2699C28.4133 3.30084 28.3797 3.32322 28.3418 3.3339C28.3161 3.34493 28.2886 3.35062 28.2607 3.35062C28.2329 3.35062 28.2053 3.34493 28.1797 3.3339C28.1512 3.32085 28.1256 3.30226 28.1042 3.27919C28.0829 3.25611 28.0663 3.22902 28.0553 3.19945L28.8191 2.91486C28.8191 2.87901 28.8014 2.84315 28.7903 2.81178C28.7552 2.70875 28.6939 2.6168 28.6126 2.54512C28.5376 2.47912 28.4449 2.43701 28.3462 2.42411C28.2411 2.40953 28.134 2.42266 28.0354 2.46221C27.9335 2.49799 27.8424 2.55974 27.7711 2.64148C27.7045 2.71778 27.6613 2.81198 27.6468 2.91262C27.6328 3.02426 27.6473 3.13766 27.689 3.24203C27.726 3.34953 27.7903 3.44535 27.8755 3.51989V3.51989ZM28.0109 2.84764C28.0387 2.79836 28.0839 2.76153 28.1375 2.74456C28.1909 2.72275 28.2506 2.72275 28.304 2.74456C28.3303 2.75453 28.3539 2.77041 28.3731 2.79099C28.3924 2.81157 28.4067 2.83631 28.415 2.86332L27.9909 3.02018C27.9818 2.99053 27.9788 2.95929 27.9823 2.92843C27.9857 2.89757 27.9955 2.86777 28.0109 2.84091V2.84764Z"/><path fill="#CF3339" d="M29.5015 3.24208L29.3327 2.62136C29.3077 2.55884 29.3077 2.48893 29.3327 2.42641C29.365 2.37414 29.4155 2.33595 29.4742 2.31936C29.533 2.30277 29.5958 2.30898 29.6502 2.33677C29.7051 2.37606 29.7438 2.43425 29.759 2.50035L29.9278 3.12107L30.2741 3.02471L30.0898 2.35246C30.0608 2.219 29.9811 2.10235 29.8678 2.02753C29.7648 1.97021 29.6434 1.95651 29.5303 1.98944C29.4602 2.00706 29.3954 2.04167 29.3416 2.09028C29.2925 2.13312 29.2551 2.18788 29.2328 2.24938L29.1906 2.097L28.8442 2.1956L29.1573 3.33844L29.5015 3.24208Z"/><path fill="#CF3339" d="M30.246 2.13054L30.3859 2.1014L30.4814 2.56526C30.4877 2.62268 30.5063 2.67803 30.5358 2.72753C30.5653 2.77704 30.6051 2.81953 30.6524 2.85209C30.7517 2.90122 30.8653 2.91236 30.9721 2.88346L31.1497 2.84537L31.0853 2.54509L30.961 2.56974C30.9323 2.58057 30.9008 2.58057 30.8722 2.56974C30.851 2.55223 30.8368 2.52755 30.8322 2.50028L30.7367 2.03194L30.9588 1.98488L30.8988 1.68909L30.6768 1.73614L30.6168 1.4538L30.266 1.52774L30.3237 1.81009L30.1816 1.83922L30.246 2.13054Z"/><path fill="#CF3339" d="M31.2925 2.54291C31.3519 2.62709 31.4345 2.69177 31.5301 2.7289C31.6311 2.76505 31.7397 2.77432 31.8454 2.75579C31.9342 2.74368 32.0196 2.71316 32.0963 2.66615C32.1647 2.62135 32.2224 2.56162 32.265 2.49137C32.3065 2.42332 32.3323 2.34674 32.3405 2.26728L31.9608 2.3233C31.9507 2.36223 31.9288 2.39699 31.8981 2.42271C31.8675 2.44843 31.8296 2.46382 31.7898 2.46672C31.7347 2.47517 31.6784 2.46237 31.6322 2.43086C31.6068 2.41235 31.5853 2.38897 31.569 2.36205C31.5526 2.33513 31.5416 2.30521 31.5367 2.274L32.3449 2.153C32.3472 2.11718 32.3472 2.08125 32.3449 2.04544C32.3329 1.93685 32.2914 1.83372 32.225 1.7474C32.1619 1.66274 32.0742 1.60006 31.9741 1.56813C31.8742 1.53395 31.7675 1.52472 31.6633 1.54124C31.5568 1.5562 31.4555 1.59695 31.368 1.66001C31.2871 1.72145 31.2261 1.80565 31.1926 1.90202C31.1553 2.00836 31.1461 2.12266 31.1659 2.23367C31.1806 2.34616 31.2242 2.45279 31.2925 2.54291V2.54291ZM31.5634 1.9065C31.6005 1.8644 31.6521 1.838 31.7077 1.83255C31.7644 1.82278 31.8227 1.83391 31.872 1.86393C31.8954 1.87934 31.9151 1.8998 31.9297 1.92383C31.9442 1.94785 31.9534 1.97485 31.9564 2.00286L31.5123 2.06784C31.5078 2.00939 31.5261 1.95147 31.5634 1.9065V1.9065Z"/><path fill="#CF3339" d="M32.5641 2.35472C32.6113 2.43921 32.6814 2.50839 32.7661 2.55416C32.8484 2.59857 32.9419 2.61729 33.0348 2.60794C33.1132 2.60485 33.1896 2.58172 33.2568 2.54071C33.3133 2.50402 33.3592 2.45302 33.39 2.39282L33.4034 2.56312L33.7497 2.53399L33.6254 0.965393L33.2657 0.992283L33.3101 1.54353C33.2671 1.48995 33.2114 1.44831 33.148 1.42253C33.0777 1.39391 33.0014 1.38314 32.926 1.39116C32.8336 1.39829 32.745 1.4317 32.6707 1.48751C32.5937 1.54431 32.5344 1.62203 32.4997 1.7116C32.4613 1.81525 32.4469 1.92638 32.4575 2.03652C32.4665 2.14983 32.5031 2.25913 32.5641 2.35472V2.35472ZM32.8949 1.79003C32.9165 1.76362 32.9432 1.74188 32.9734 1.7261C33.0035 1.71032 33.0365 1.70081 33.0703 1.69815C33.1042 1.69516 33.1383 1.6994 33.1704 1.71059C33.2026 1.72179 33.232 1.73969 33.2568 1.76314C33.2854 1.78981 33.3084 1.822 33.3244 1.8578C33.3404 1.89359 33.3491 1.93227 33.3501 1.97154C33.3608 2.05099 33.3401 2.1315 33.2923 2.19562C33.271 2.22254 33.2444 2.24476 33.2143 2.26095C33.1841 2.27713 33.151 2.28693 33.1169 2.28974C33.0827 2.29292 33.0482 2.28877 33.0157 2.27757C32.9832 2.26637 32.9534 2.24838 32.9282 2.22475C32.8716 2.16936 32.8389 2.09368 32.8372 2.01411C32.8307 1.97477 32.8325 1.93448 32.8424 1.89588C32.8524 1.85727 32.8703 1.82121 32.8949 1.79003V1.79003Z"/><path fill="#CF3339" d="M34.7912 2.34794C34.8274 2.40424 34.877 2.45047 34.9355 2.48239C35.004 2.5182 35.0804 2.53593 35.1576 2.53393C35.2507 2.53682 35.3426 2.51188 35.4218 2.46222C35.5032 2.41053 35.5686 2.33676 35.6105 2.24934C35.6592 2.14897 35.6835 2.03838 35.6816 1.92666C35.6833 1.81664 35.6598 1.70771 35.6127 1.60846C35.5735 1.5177 35.5096 1.44001 35.4284 1.38437C35.3494 1.33365 35.2579 1.30646 35.1642 1.30594C35.0873 1.30345 35.011 1.32039 34.9422 1.35524C34.8824 1.38511 34.8317 1.43081 34.7956 1.48745V0.93396H34.436L34.4204 2.50256H34.7823L34.7912 2.34794ZM34.8711 1.70706C34.8945 1.6821 34.9228 1.66226 34.9541 1.64877C34.9854 1.63528 35.0192 1.62842 35.0532 1.62863C35.0877 1.62893 35.1218 1.63622 35.1535 1.65008C35.1851 1.66394 35.2137 1.68408 35.2375 1.7093C35.2642 1.73965 35.2844 1.77518 35.297 1.81371C35.3096 1.85224 35.3143 1.89296 35.3108 1.93338C35.3137 1.97411 35.3083 2.01502 35.295 2.05357C35.2816 2.09212 35.2605 2.12748 35.2331 2.15747C35.2091 2.18193 35.1806 2.20134 35.1491 2.2146C35.1177 2.22785 35.0839 2.23467 35.0499 2.23467C35.0158 2.23467 34.9821 2.22785 34.9506 2.2146C34.9192 2.20134 34.8907 2.18193 34.8667 2.15747C34.8404 2.12684 34.8205 2.09127 34.8079 2.05281C34.7953 2.01435 34.7904 1.97376 34.7934 1.93338C34.7902 1.89228 34.7954 1.85095 34.8088 1.81199C34.8221 1.77304 34.8434 1.7373 34.8711 1.70706V1.70706Z"/><path fill="#CF3339" d="M35.8744 3.10097L36.2607 3.1301L37.1244 1.43826L36.7359 1.40913L36.4117 2.13068L36.1963 1.36879L35.7944 1.33966L36.1874 2.51835L35.8744 3.10097Z"/><path fill="#CF3339" d="M30.9782 9.14893C30.3121 9.14893 29.7237 10.3411 29.6727 10.778C29.6608 10.8257 29.6599 10.8754 29.6701 10.9234C29.6802 10.9715 29.701 11.0166 29.731 11.0553C29.7609 11.0939 29.7993 11.1252 29.843 11.1467C29.8868 11.1681 29.9349 11.1792 29.9835 11.1791C30.6696 11.1791 31.2802 9.94443 31.3357 9.50074C31.3579 9.30354 31.2402 9.14893 30.9782 9.14893Z"/><path fill="#CF3339" d="M45.6563 9.89957C45.6563 6.51588 40.8049 3.77307 34.8233 3.77307C28.8417 3.77307 23.9814 6.51812 23.9814 9.89957C23.9814 13.281 28.8306 16.0261 34.8144 16.0261C40.7982 16.0261 45.6563 13.2855 45.6563 9.89957ZM36.3664 8.19876C38.1427 8.55954 39.1197 8.3377 39.9412 8.2996L40.2476 7.65872C40.4948 7.56233 40.7686 7.56233 41.0158 7.65872L40.7294 8.29512C41.9728 8.32425 42.6833 8.5573 43.0896 8.83741C43.7801 8.87326 44.373 9.04805 44.5217 9.1937C44.434 9.38099 44.2805 9.52872 44.091 9.60826C43.9085 9.39494 43.6733 9.23413 43.4093 9.14216C43.4905 9.24723 43.5486 9.36844 43.58 9.49783C43.6114 9.62722 43.6153 9.76184 43.5914 9.89285C43.4915 10.722 42.57 11.5623 41.5154 11.5623C40.8893 11.5623 40.4896 11.2643 40.4052 10.8206C40.3927 10.7149 40.3927 10.6081 40.4052 10.5024C40.4478 10.1566 40.5925 9.83183 40.8204 9.57017C41.2245 9.09735 41.8706 8.89791 42.5168 8.84637C42.0727 8.57075 41.2223 8.6671 40.5429 8.73657L39.8635 10.2604C39.7446 10.4863 39.6522 10.7254 39.5881 10.9729C39.577 11.0648 39.5881 11.1679 39.7347 11.1679C39.8365 11.1588 39.9332 11.119 40.0122 11.0536C40.0726 11.0076 40.1297 10.9575 40.1832 10.9035C40.2018 10.9662 40.2279 11.0264 40.2609 11.0827V11.0827C40.0063 11.3559 39.6591 11.5223 39.2884 11.5488C38.9487 11.5488 38.7022 11.3472 38.7355 11.0693C38.756 10.9076 38.804 10.7506 38.8776 10.6054C38.942 10.4396 39.0175 10.2738 39.0752 10.1573L39.7169 8.77915C38.8288 8.77915 37.3101 8.69175 36.3198 8.27719L36.3664 8.19876ZM36.0756 9.17354C36.0093 9.18247 35.9444 9.19979 35.8824 9.22508C35.8669 9.17192 35.8453 9.12077 35.818 9.0727C36.0519 8.9145 36.3231 8.82172 36.604 8.80379C36.8904 8.80379 37.0992 8.95841 37.0703 9.20043C37.0077 9.45151 36.9097 9.69223 36.7794 9.91526C36.587 10.2613 36.4143 10.6182 36.2621 10.9841C36.2488 11.0962 36.3309 11.1477 36.4619 11.1477C37.0792 11.1477 37.7542 9.8189 37.9606 9.41779L38.1827 9.01668C38.1827 9.01668 38.4513 9.04357 38.5624 9.05029L38.9709 9.07942L38.5135 9.97576C38.3579 10.2887 38.2365 10.6178 38.1516 10.9573C38.1516 11.0312 38.1516 11.15 38.2648 11.15C38.346 11.1382 38.4226 11.105 38.4869 11.0536C38.4881 11.0618 38.4881 11.0701 38.4869 11.0783C38.4803 11.1412 38.4879 11.2047 38.5091 11.2643V11.2643C38.2925 11.44 38.0252 11.5398 37.7475 11.5488C37.6873 11.557 37.626 11.551 37.5685 11.5313C37.5109 11.5117 37.4587 11.4789 37.4157 11.4355C37.3727 11.3922 37.3403 11.3394 37.3208 11.2813C37.3013 11.2233 37.2954 11.1614 37.3034 11.1007C37.3215 10.9609 37.3588 10.8244 37.4144 10.6951L37.4011 10.6816C37.057 11.1545 36.5774 11.5488 35.9757 11.5511C35.6293 11.5511 35.3806 11.3673 35.4161 11.0648C35.4799 10.8039 35.5817 10.5539 35.7181 10.3231C35.7181 10.3231 36.1622 9.40659 36.1822 9.30799C36.1864 9.29192 36.1868 9.27507 36.1833 9.25882C36.1799 9.24256 36.1726 9.22737 36.1623 9.21447C36.1519 9.20158 36.1386 9.19135 36.1235 9.18462C36.1085 9.1779 36.092 9.17487 36.0756 9.17578V9.17354ZM28.6264 10.3926C28.451 11.1432 27.7072 11.5847 26.8301 11.5847C26.606 11.598 26.3816 11.5651 26.1705 11.4881C25.9594 11.411 25.7661 11.2914 25.6023 11.1365C25.0849 10.5337 25.6778 10.22 25.9664 10.2245C25.8154 10.8026 26.0441 11.3158 26.7724 11.3158C26.9583 11.3267 27.1425 11.275 27.296 11.1687C27.4496 11.0624 27.5637 10.9076 27.6206 10.7287C27.7116 10.341 27.4984 10.1125 27.2453 9.85476L27.0078 9.60602C26.6991 9.28558 26.4616 8.99651 26.5748 8.51697C26.7369 7.83126 27.4629 7.39654 28.2645 7.39654C28.64 7.38094 29.0076 7.50809 29.2947 7.75283C29.3764 7.81126 29.4376 7.89449 29.4692 7.9904C29.5009 8.08632 29.5014 8.18992 29.4707 8.28615C29.44 8.38238 29.3797 8.46621 29.2985 8.52545C29.2173 8.5847 29.1195 8.61626 29.0194 8.61556C29.0016 8.61348 28.9843 8.60817 28.9683 8.59988C29.1104 8.15171 28.9572 7.66544 28.3488 7.66544C28.0069 7.66544 27.585 7.84919 27.5118 8.16291C27.4274 8.52145 27.6805 8.7657 27.9092 8.99875L28.1312 9.22283C28.4687 9.55448 28.7485 9.87268 28.6264 10.3948V10.3926ZM30.7823 11.1365C30.7942 11.0607 30.8113 10.9859 30.8334 10.9124L30.8178 10.899C30.6776 11.0923 30.496 11.2511 30.2864 11.3636C30.0769 11.4761 29.8449 11.5394 29.6078 11.5488C28.975 11.5488 28.7196 11.1365 28.7818 10.6525C28.8795 9.857 29.7698 8.80604 30.8556 8.80604C30.9989 8.78952 31.1438 8.81949 31.2691 8.89161C31.3945 8.96372 31.4938 9.07424 31.5528 9.20715L31.7437 8.87102C31.9963 8.77485 32.2749 8.77485 32.5275 8.87102L31.7526 10.5405C31.6789 10.6833 31.6201 10.8335 31.5772 10.9886C31.5772 11.0648 31.5883 11.2127 31.6926 11.2127C31.7398 11.2109 31.7861 11.1986 31.8281 11.1769V11.1769L31.7171 11.4234C31.5618 11.5021 31.3912 11.545 31.2175 11.5488C30.9289 11.5511 30.7535 11.3651 30.7823 11.1388V11.1365ZM32.9116 11.1365H32.8961L32.0479 13.0345C31.9232 12.993 31.8079 12.9271 31.7084 12.8406C31.609 12.7541 31.5274 12.6487 31.4684 12.5303L33.2447 8.51024C33.3663 8.54959 33.4787 8.61362 33.5749 8.69839C33.6711 8.78317 33.7491 8.88691 33.8042 9.00323L33.7132 9.21611L33.7265 9.22732C33.9952 8.96707 34.3532 8.82175 34.7256 8.82172C35.2696 8.82172 35.5249 9.09959 35.5582 9.48053C35.5654 9.55505 35.5654 9.6301 35.5582 9.70462C35.465 10.4889 34.7012 11.5578 33.6066 11.5578C33.4629 11.5726 33.3183 11.5411 33.1934 11.4678C33.0686 11.3946 32.9699 11.2833 32.9116 11.15V11.1365Z"/><path fill="#CF3339" d="M41.219 10.5718C40.9392 11.569 41.7297 11.5511 42.2292 10.852C42.5778 10.3747 42.8776 9.6643 42.7999 9.27215C42.7818 9.1922 42.7495 9.11626 42.7044 9.04807C41.6253 9.1265 41.2634 10.406 41.219 10.5718Z"/><path fill="#CF3339" d="M34.3369 9.14887C33.6708 9.14887 33.1534 10.4351 33.1068 10.8093C33.0946 10.8586 33.094 10.9101 33.105 10.9596C33.1161 11.0091 33.1385 11.0553 33.1704 11.0946C33.2024 11.1338 33.243 11.1649 33.289 11.1854C33.335 11.2059 33.3852 11.2153 33.4354 11.2127C34.1148 11.2127 34.6499 9.97575 34.7032 9.53206C34.7126 9.48085 34.7098 9.42811 34.6949 9.37824C34.68 9.32837 34.6536 9.28279 34.6177 9.24532C34.5819 9.20784 34.5377 9.17953 34.4889 9.16276C34.44 9.14598 34.3879 9.14122 34.3369 9.14887Z"/><path fill="#fff" d="M28.1226 9.22733L27.9006 9.00324C27.6786 8.77916 27.4188 8.52594 27.5032 8.1674C27.5764 7.85368 27.9983 7.66993 28.3402 7.66993C28.9486 7.66993 29.1018 8.16068 28.9597 8.60437C28.9757 8.61267 28.993 8.61798 29.0108 8.62006C29.1109 8.62076 29.2087 8.58919 29.2899 8.52995C29.3711 8.47071 29.4314 8.38687 29.4621 8.29065C29.4928 8.19442 29.4923 8.09081 29.4606 7.9949C29.429 7.89898 29.3678 7.81576 29.2861 7.75733C28.999 7.51258 28.6314 7.38544 28.2559 7.40103C27.4454 7.40103 26.7283 7.83128 26.5662 8.52146C26.453 9.001 26.6905 9.29007 26.9992 9.61052L27.2367 9.85925C27.4898 10.1169 27.703 10.3455 27.612 10.7332C27.5551 10.9121 27.441 11.0669 27.2874 11.1732C27.1339 11.2795 26.9497 11.3312 26.7638 11.3203C26.0355 11.3203 25.8068 10.8071 25.9578 10.229C25.6692 10.229 25.0697 10.5382 25.5937 11.141C25.7575 11.2959 25.9509 11.4155 26.1619 11.4925C26.373 11.5696 26.5974 11.6025 26.8215 11.5892C27.7097 11.5892 28.4424 11.141 28.6178 10.3971C28.7466 9.8727 28.4668 9.55449 28.1226 9.22733Z"/><path fill="#fff" d="M35.5507 9.69786C35.5578 9.62334 35.5578 9.5483 35.5507 9.47378C35.5174 9.09283 35.262 8.81497 34.7181 8.81497C34.3456 8.81499 33.9876 8.96032 33.7189 9.22056L33.7056 9.20936L33.7966 8.99648C33.74 8.88562 33.6622 8.78717 33.5677 8.70679C33.4732 8.62641 33.3638 8.56569 33.246 8.52814L31.4697 12.5482C31.5288 12.6666 31.6103 12.772 31.7098 12.8585C31.8092 12.945 31.9246 13.0109 32.0492 13.0524L32.8974 11.1544H32.9129C32.972 11.2853 33.07 11.3943 33.1934 11.4663C33.3168 11.5382 33.4594 11.5694 33.6012 11.5555C34.6936 11.5511 35.4574 10.4822 35.5507 9.69786ZM34.7047 9.53204C34.6515 9.98021 34.1164 11.2127 33.4369 11.2127C33.3867 11.2153 33.3366 11.2059 33.2905 11.1854C33.2445 11.1649 33.2039 11.1338 33.172 11.0945C33.14 11.0553 33.1176 11.0091 33.1066 10.9596C33.0955 10.91 33.0961 10.8586 33.1083 10.8093C33.155 10.4351 33.6656 9.14885 34.3384 9.14885C34.3894 9.14121 34.4415 9.14597 34.4904 9.16274C34.5393 9.17952 34.5834 9.20782 34.6193 9.2453C34.6551 9.28278 34.6815 9.32835 34.6964 9.37822C34.7113 9.4281 34.7141 9.48083 34.7047 9.53204Z"/><path fill="#fff" d="M31.8245 11.1791C31.7825 11.2008 31.7362 11.2131 31.689 11.2149C31.5847 11.2149 31.5647 11.0738 31.5736 10.9908C31.6165 10.8357 31.6752 10.6855 31.749 10.5427L32.5261 8.87771C32.2735 8.78154 31.9949 8.78154 31.7423 8.87771L31.5514 9.21384C31.4936 9.08168 31.396 8.97131 31.2723 8.89848C31.1487 8.82564 31.0055 8.79406 30.8631 8.80824C29.7773 8.80824 28.887 9.85921 28.7893 10.6547C28.7316 11.1387 28.9825 11.5511 29.6153 11.5511C29.8524 11.5417 30.0844 11.4783 30.2939 11.3658C30.5035 11.2533 30.6851 11.0945 30.8253 10.9012L30.8409 10.9146C30.8187 10.9881 30.8017 11.0629 30.7898 11.1387C30.7609 11.3628 30.9363 11.5511 31.2339 11.5511C31.4076 11.5472 31.5782 11.5043 31.7334 11.4256L31.8245 11.1791ZM31.336 9.50067C31.2805 9.94884 30.6699 11.1791 29.9838 11.1791C29.9352 11.1792 29.8871 11.1681 29.8434 11.1466C29.7996 11.1251 29.7613 11.0939 29.7313 11.0552C29.7013 11.0165 29.6805 10.9714 29.6704 10.9234C29.6603 10.8753 29.6612 10.8256 29.673 10.778C29.724 10.3298 30.3147 9.14885 30.9785 9.14885C31.2405 9.14885 31.3582 9.30347 31.336 9.50067V9.50067Z"/><path fill="#fff" d="M35.7237 10.321C35.5873 10.5518 35.4855 10.8018 35.4217 11.0628C35.3862 11.3653 35.6438 11.5513 35.9813 11.549C36.583 11.549 37.0626 11.1524 37.4067 10.6796L37.42 10.693C37.3644 10.8223 37.3271 10.9588 37.309 11.0986C37.301 11.1594 37.3069 11.2212 37.3264 11.2793C37.3459 11.3374 37.3783 11.3901 37.4213 11.4335C37.4643 11.4768 37.5165 11.5096 37.5741 11.5292C37.6316 11.5489 37.6929 11.5549 37.7531 11.5468C38.0288 11.5381 38.2943 11.4399 38.5102 11.2667V11.2667C38.4891 11.2071 38.4815 11.1436 38.488 11.0807C38.4892 11.0725 38.4892 11.0642 38.488 11.056C38.4237 11.1074 38.3471 11.1406 38.266 11.1524C38.1461 11.1524 38.1439 11.0336 38.1527 10.9597C38.2377 10.6202 38.359 10.2911 38.5147 9.97818L38.972 9.08184L38.5635 9.05271C38.4525 9.05271 38.1838 9.01909 38.1838 9.01909L37.9618 9.42021C37.7553 9.82132 37.0737 11.1501 36.4631 11.1501C36.3321 11.1501 36.241 11.0986 36.2632 10.9866C36.4154 10.6206 36.5881 10.2638 36.7806 9.91768C36.914 9.69516 37.0149 9.45441 37.0803 9.20285C37.1092 8.96083 36.9005 8.80621 36.6141 8.80621C36.3331 8.82413 36.0619 8.91692 35.8281 9.07512C35.8554 9.12319 35.877 9.17433 35.8924 9.22749C35.9544 9.20221 36.0193 9.18489 36.0856 9.17595C36.1024 9.17401 36.1193 9.17618 36.135 9.18229C36.1508 9.1884 36.1648 9.19826 36.1759 9.21104C36.1871 9.22381 36.195 9.23911 36.199 9.25564C36.2029 9.27216 36.2029 9.28942 36.1989 9.30592C36.1766 9.40452 35.7237 10.321 35.7237 10.321Z"/><path fill="#fff" d="M39.0787 10.155C39.021 10.2827 38.9455 10.4486 38.8811 10.6032C38.8075 10.7483 38.7594 10.9053 38.739 11.067C38.7057 11.3449 38.961 11.5466 39.2919 11.5466C39.6626 11.5201 40.0097 11.3536 40.2644 11.0805V11.0805C40.2313 11.0241 40.2052 10.9639 40.1867 10.9012C40.1332 10.9552 40.0761 11.0054 40.0157 11.0513C39.9367 11.1167 39.8399 11.1565 39.7382 11.1656C39.5938 11.1656 39.5805 11.0625 39.5916 10.9707C39.6557 10.7232 39.7481 10.484 39.8669 10.2581L40.5464 8.7343C41.2258 8.66483 42.0739 8.56847 42.5202 8.8441C41.8741 8.8934 41.228 9.09507 40.8239 9.5679C40.596 9.82956 40.4513 10.1544 40.4087 10.5001C40.3962 10.6058 40.3962 10.7126 40.4087 10.8183C40.4931 11.2665 40.8927 11.56 41.5189 11.56C42.5735 11.56 43.495 10.7197 43.5949 9.89058C43.6188 9.75957 43.6149 9.62494 43.5835 9.49556C43.5521 9.36617 43.4939 9.24495 43.4128 9.13989C43.6768 9.23186 43.9119 9.39267 44.0944 9.60599C44.284 9.52645 44.4375 9.37871 44.5252 9.19143C44.3764 9.04578 43.7836 8.87099 43.0931 8.83514C42.6868 8.55503 41.9829 8.32198 40.7329 8.29285L41.0148 7.65869C40.7677 7.5623 40.4938 7.5623 40.2466 7.65869L39.9402 8.30405C39.1187 8.34215 38.144 8.56399 36.3655 8.20321L36.3188 8.28164C37.3025 8.69396 38.8234 8.77911 39.7159 8.77911L39.0787 10.155ZM42.8111 9.25866C42.8888 9.65081 42.5891 10.3612 42.2405 10.8385C41.7409 11.5376 40.9505 11.5555 41.2302 10.5584C41.2746 10.4015 41.6365 9.12196 42.7156 9.02337C42.7586 9.09714 42.7872 9.17852 42.8 9.26314L42.8111 9.25866Z"/><path fill="#EB422E" d="M5.55091 18.5673C4.21871 22.2244 3.50599 26.482 3.33058 31.9766C3.32672 32.0905 3.34515 32.204 3.38481 32.3107C3.42447 32.4174 3.48457 32.5152 3.5617 32.5984C3.63882 32.6817 3.73144 32.7488 3.83427 32.7959C3.9371 32.843 4.04812 32.8691 4.16098 32.8729H4.18985C4.41261 32.873 4.62666 32.7856 4.78664 32.6291C4.94662 32.4727 5.03997 32.2595 5.04689 32.0348C5.21564 26.724 5.8884 22.6367 7.16065 19.1723C7.27166 18.8698 7.38268 18.574 7.50702 18.276C9.59857 19.3112 12.4339 20.6042 14.6831 20.4675C16.0155 20.3849 17.2983 19.9277 18.3866 19.1477C19.5165 18.3762 20.3066 17.1933 20.5914 15.8469C20.9467 14.034 20.2606 11.9948 18.7574 10.3904C17.4519 9.00106 15.7178 8.07559 14.3168 7.33162C14.1661 7.25191 13.9953 7.21916 13.8261 7.23751C13.6569 7.25586 13.497 7.32449 13.3665 7.4347C9.69626 10.5988 7.14066 14.2379 5.55091 18.5673ZM14.0414 9.14223C15.2515 9.79656 16.5393 10.5495 17.5096 11.5825C18.6198 12.7791 19.1526 14.2469 18.9062 15.5107C18.5265 17.4603 16.3928 18.639 14.581 18.7376C12.7359 18.8496 10.1403 17.6552 8.21975 16.6984C9.65897 13.8241 11.6359 11.2582 14.0414 9.14223V9.14223Z"/><path fill="#4A9343" d="M22.2413 15.533C23.5069 16.2793 24.3306 16.8574 25.2032 17.4691C25.7605 17.8613 26.3312 18.2624 27.0239 18.7061C20.9295 22.2682 15.2249 26.47 10.0051 31.2415C9.87478 31.3586 9.78289 31.5129 9.74164 31.6841C9.70039 31.8552 9.71174 32.0349 9.77416 32.1993C9.83659 32.3638 9.94714 32.5051 10.0911 32.6046C10.2351 32.7041 10.4057 32.757 10.5801 32.7563H31.9308C32.1587 32.7563 32.3773 32.6649 32.5384 32.5023C32.6996 32.3396 32.7901 32.1191 32.7901 31.8891C32.7901 31.6591 32.6996 31.4385 32.5384 31.2758C32.3773 31.1132 32.1587 31.0218 31.9308 31.0218H12.8471C17.8766 26.6336 23.3331 22.7701 29.1332 19.4904C29.2642 19.4144 29.373 19.3049 29.4487 19.1729C29.5243 19.0409 29.5642 18.8911 29.5642 18.7386C29.5642 18.5861 29.5243 18.4363 29.4487 18.3043C29.373 18.1723 29.2642 18.0628 29.1332 17.9868C27.8676 17.2406 27.0439 16.6624 26.1713 16.0507C25.2987 15.4389 24.4195 14.8227 23.0984 14.0339C23.001 13.9764 22.8933 13.9388 22.7815 13.9232C22.6697 13.9077 22.556 13.9145 22.4468 13.9434C22.3377 13.9722 22.2352 14.0224 22.1453 14.0912C22.0553 14.16 21.9797 14.246 21.9227 14.3443C21.8657 14.4426 21.8284 14.5512 21.813 14.664C21.7976 14.7769 21.8044 14.8916 21.833 15.0018C21.8615 15.112 21.9113 15.2154 21.9795 15.3062C22.0476 15.397 22.1328 15.4733 22.2302 15.5308L22.2413 15.533Z"/><path fill="#F59745" d="M23.855 29.422C24.8364 29.422 25.8311 29.4354 26.8281 29.4354C28.5444 29.4354 30.274 29.4242 31.9637 29.413C33.5823 29.413 35.1099 29.3906 36.5709 29.3906C36.7988 29.3906 37.0173 29.2992 37.1785 29.1366C37.3396 28.974 37.4301 28.7534 37.4301 28.5234C37.4301 28.2934 37.3396 28.0728 37.1785 27.9102C37.0173 27.7475 36.7988 27.6562 36.5709 27.6562C35.1032 27.6562 33.5734 27.6674 31.9526 27.6786C30.707 27.6786 29.4436 27.6965 28.178 27.701C29.6434 27.1318 31.1688 26.5671 32.5965 26.036C33.9908 25.5206 35.3075 25.0321 36.3178 24.631C36.46 24.5751 36.5848 24.4818 36.6793 24.3609C36.7739 24.24 36.8347 24.0957 36.8555 23.9431C36.8763 23.7905 36.8564 23.6351 36.7978 23.4929C36.7392 23.3506 36.644 23.2268 36.522 23.1341C35.7804 22.5672 35.0944 22.0137 34.4305 21.4893C33.5423 20.779 32.6253 20.0462 31.5973 19.2911C31.4128 19.1689 31.1889 19.1231 30.9718 19.1631C30.7548 19.2031 30.5613 19.3258 30.4314 19.5058C30.3016 19.6859 30.2453 19.9094 30.2743 20.1301C30.3033 20.3509 30.4153 20.5519 30.5871 20.6916C31.5862 21.4266 32.4499 22.1168 33.3647 22.8473C33.66 23.0848 33.9598 23.3246 34.2684 23.5666C33.569 23.831 32.8008 24.1156 32.0059 24.4092C29.1616 25.4624 25.9377 26.65 23.5087 27.7705C23.3311 27.8523 23.1864 27.9928 23.0984 28.1687C23.0105 28.3447 22.9845 28.5456 23.0249 28.7384C23.0652 28.9312 23.1694 29.1044 23.3203 29.2295C23.4712 29.3546 23.6598 29.424 23.855 29.4265V29.422Z"/><path fill="#EB422E" d="M34.3552 31.9362C34.3552 31.9519 34.3552 31.9676 34.3552 31.9833V32.0169V32.0595C34.3552 32.0729 34.3552 32.0863 34.3552 32.0976C34.3552 32.1088 34.3552 32.1267 34.3663 32.1401L34.3863 32.1939C34.3854 32.2014 34.3854 32.2089 34.3863 32.2163C34.3974 32.241 34.4085 32.2656 34.4218 32.2903V32.3037C34.4308 32.3231 34.4412 32.3418 34.4529 32.3597L34.4685 32.3799L34.5018 32.4247L34.5217 32.4471C34.5217 32.4471 34.5417 32.4718 34.555 32.483L34.5795 32.5076C34.5896 32.5184 34.6007 32.5282 34.6128 32.5368L34.6394 32.5614L34.6749 32.5861L34.706 32.6085L34.7416 32.6286L34.7749 32.6488L34.8126 32.6667L34.8481 32.6824L34.8881 32.6959L34.9236 32.7093L34.9702 32.7205H35.0013H35.0635H35.0835H35.1679H45.5057C45.6821 32.7208 45.8542 32.6664 45.9988 32.5646C46.1435 32.4628 46.2536 32.3185 46.3142 32.1514C46.3748 31.9843 46.383 31.8024 46.3377 31.6304C46.2923 31.4584 46.1957 31.3046 46.0608 31.19C44.9151 30.2152 43.7406 29.1262 42.6037 28.073C41.3271 26.8898 40.1059 25.7604 39.0756 24.9358C38.8677 24.757 38.6505 24.5895 38.4251 24.4338V24.4338H38.4095L38.3851 24.4204L38.3429 24.3935L38.3096 24.3778L38.2652 24.3554L38.2319 24.342L38.1875 24.3263L38.152 24.3151H38.1054H38.0676H38.0232H37.8589H37.8212H37.7767H37.7412H37.6968H37.6613L37.6191 24.3307L37.5836 24.3464L37.5436 24.3644L37.5081 24.3823L37.4703 24.4069L37.437 24.4293L37.4015 24.454L37.3704 24.4809L37.3371 24.51L37.3083 24.5414L37.2794 24.5728C37.2686 24.5837 37.2589 24.5957 37.2505 24.6086L37.2305 24.6333L37.215 24.6624C37.2061 24.6746 37.1979 24.6873 37.1906 24.7005C37.1838 24.7127 37.1778 24.7255 37.1728 24.7386L37.1528 24.7789L37.1373 24.8193L37.124 24.8596C37.1129 24.8999 37.1129 24.8999 37.1018 24.9403L37.1018 24.9828V25.0232C37.1007 25.0381 37.1007 25.0531 37.1018 25.068C37.1007 25.0807 37.1007 25.0934 37.1018 25.1061V25.1509C37.1006 25.1636 37.1006 25.1763 37.1018 25.189C37.1007 25.2039 37.1007 25.2189 37.1018 25.2338V25.2719C37.1005 25.2861 37.1005 25.3003 37.1018 25.3145C37.1005 25.3272 37.1005 25.3399 37.1018 25.3526L37.1151 25.3952C37.1189 25.4081 37.1233 25.4208 37.1284 25.4332L37.144 25.4736L37.1617 25.5094L37.1817 25.5475L37.2017 25.5811L37.2261 25.6192C37.2337 25.6301 37.2419 25.6406 37.2505 25.6506C37.2589 25.6635 37.2686 25.6755 37.2794 25.6865L37.3038 25.7156L37.3393 25.7492L37.366 25.7761L37.406 25.8075L37.4282 25.8254C37.5902 25.9419 37.7612 26.0741 37.9411 26.2153C38.8292 26.975 39.2333 27.8265 39.0512 28.6085C38.7692 29.7872 37.2106 30.7194 35.0813 30.9816H35.0546H35.0013H34.9702L34.9192 30.9951L34.8837 31.0085L34.8415 31.0264L34.8037 31.0444L34.7682 31.0623L34.7305 31.0869L34.6971 31.1071L34.6616 31.134L34.6328 31.1586L34.5995 31.1878L34.5706 31.2147L34.5439 31.246L34.5151 31.2774L34.4929 31.3088L34.4662 31.3446C34.4616 31.3558 34.4557 31.3663 34.4485 31.376C34.4398 31.3895 34.4323 31.4037 34.4263 31.4186C34.4263 31.4186 34.4263 31.4387 34.4085 31.4499C34.3907 31.4611 34.3974 31.4791 34.3907 31.4925L34.3774 31.5306C34.3679 31.5586 34.3598 31.587 34.353 31.6158C34.3517 31.6284 34.3517 31.6412 34.353 31.6539C34.3519 31.6703 34.3519 31.6867 34.353 31.7032C34.353 31.7032 34.353 31.7256 34.353 31.739C34.3518 31.7562 34.3518 31.7734 34.353 31.7906C34.353 31.7906 34.353 31.8107 34.353 31.8197C34.3609 31.8581 34.3616 31.8976 34.3552 31.9362V31.9362ZM41.4869 29.3816C42.0709 29.9239 42.6659 30.4752 43.2632 31.0175H39.5619C40.1437 30.5002 40.557 29.8175 40.7476 29.059C40.7675 28.9716 40.7897 28.8685 40.8053 28.752L41.4869 29.3816Z"/><path fill="#F4B88C" d="M11.9496 17.2608C11.7619 17.0479 11.6238 16.7952 11.5455 16.5214C11.2036 15.3449 12.0607 14.0564 13.4617 13.6419C14.8627 13.2273 16.2726 13.8435 16.6146 15.02C16.751 15.5078 16.697 16.0299 16.4636 16.4788C17.3184 15.7415 17.7625 14.7018 17.3672 13.7584C16.5191 11.7685 15.0004 11.0201 14.0701 10.5853C12.7556 11.9097 11.4057 13.7091 9.62939 16.1875C10.149 16.6737 11.0038 17.048 11.9496 17.2608Z"/><path fill="#EB422E" d="M14.4973 17.0928C15.3115 16.8516 15.8274 16.1603 15.6495 15.5488C15.4716 14.9372 14.6674 14.637 13.8532 14.8782C13.039 15.1194 12.5231 15.8108 12.701 16.4223C12.8789 17.0339 13.6831 17.3341 14.4973 17.0928Z"/><path fill="#EB422E" d="M19.9506 29.5718C21.0448 29.2476 21.7952 28.515 21.6267 27.9355C21.4581 27.356 20.4344 27.149 19.3402 27.4732C18.2459 27.7974 17.4955 28.53 17.6641 29.1095C17.8326 29.689 18.8563 29.896 19.9506 29.5718Z"/><path fill="#F4B88C" d="M16.3934 21.5051C14.0198 22.1191 11.3643 21.7561 11.3643 21.7561L9.92334 29.0433C9.92334 29.0433 16.8064 23.1902 24.4776 17.9937C23.565 17.4603 21.7066 16.2772 21.7066 16.2772C21.7066 16.2772 21.2559 20.2435 16.3934 21.5051Z"/><path fill="#F59745" d="M0.841858 32.9804H0.864062C1.08913 32.9811 1.30552 32.8928 1.46693 32.7345C1.62835 32.5762 1.72197 32.3604 1.72777 32.1334C2.13409 16.9717 7.69602 10.3634 11.8458 6.71309C12.0186 6.56095 12.1245 6.34574 12.1401 6.11482C12.1557 5.8839 12.0798 5.65617 11.9291 5.48174C11.7783 5.30731 11.5651 5.20046 11.3363 5.18471C11.1075 5.16895 10.8818 5.24557 10.709 5.39771C3.72607 11.5444 0.324521 20.0238 0.000353275 32.0841C-0.00289724 32.1987 0.0163101 32.3129 0.0568741 32.4201C0.097438 32.5272 0.158561 32.6253 0.236738 32.7085C0.314915 32.7918 0.40861 32.8587 0.512449 32.9053C0.616289 32.952 0.728231 32.9775 0.841858 32.9804V32.9804Z"/><path fill="#F4B88C" d="M28.5158 21.0075C28.5158 21.0075 22.783 25.1374 21.2554 26.6411L30.9937 22.6075L28.5158 21.0075Z"/><path fill="#F59745" d="M0.864575 36.4761H45.5509C45.6682 36.4821 45.7854 36.464 45.8955 36.4229C46.0056 36.3817 46.1063 36.3184 46.1914 36.2367C46.2765 36.1551 46.3442 36.0569 46.3905 35.948C46.4368 35.8391 46.4607 35.7218 46.4607 35.6033C46.4607 35.4848 46.4368 35.3676 46.3905 35.2587C46.3442 35.1498 46.2765 35.0516 46.1914 34.9699C46.1063 34.8883 46.0056 34.825 45.8955 34.7838C45.7854 34.7427 45.6682 34.7245 45.5509 34.7305H0.864575C0.64279 34.7419 0.4338 34.8388 0.280799 35.0012C0.127798 35.1637 0.0424805 35.3792 0.0424805 35.6033C0.0424805 35.8275 0.127798 36.043 0.280799 36.2055C0.4338 36.3679 0.64279 36.4648 0.864575 36.4761V36.4761Z"/><path fill="#F59745" d="M9.15892 20.9112C8.93752 20.858 8.70423 20.8956 8.51025 21.0157C8.31627 21.1359 8.17744 21.3288 8.12424 21.5521C7.23611 25.3392 6.79205 27.3649 6.58556 31.9654C6.57713 32.1937 6.65856 32.4161 6.81207 32.5841C6.96557 32.752 7.17868 32.8518 7.40486 32.8617H7.44482C7.66541 32.8608 7.87726 32.7746 8.03671 32.6208C8.19617 32.4669 8.29107 32.2572 8.30187 32.0348C8.49726 27.5823 8.90136 25.7246 9.79393 21.951C9.84538 21.7282 9.8075 21.4939 9.68856 21.2991C9.56962 21.1044 9.37925 20.965 9.15892 20.9112Z"/></svg>