<svg xmlns="http://www.w3.org/2000/svg" viewBox="0 0 469.743 610.229"><g id="b"><g id="c"><g><g><path fill="none" d="M62.576,448.212c0-6.924-4.761-10.963-12.839-10.963h-16.734v21.494h18.32c5.482,0,11.252-3.462,11.252-10.531Z"/><path fill="none" d="M433.896,334.564h-1.249v8.811h1.249c3.255,0,4.062-1.615,4.062-4.405s-.808-4.405-4.062-4.405Z"/><polygon fill="none" points="223.663 347.611 223.497 347.611 217.003 369.507 230.157 369.507 223.663 347.611"/><path fill="none" d="M145.451,133.975c18.083-1.089,39.354-12.64,43.157-31.901,2.465-12.488-2.746-27.002-13.94-38.827-9.671-10.215-22.524-17.662-34.585-24.125-24.951,22.145-44.12,46.774-58.075,74.691,19.232,9.459,45.041,21.269,63.444,20.161Zm-.832-16.261c-8.126,2.385-16.152-.586-17.927-6.635-1.775-6.049,3.373-12.887,11.498-15.271,8.126-2.385,16.152,.586,17.927,6.635s-3.373,12.887-11.498,15.271Zm-4.266-64.333c9.3,4.221,24.45,11.712,32.896,31.37,4.012,9.338-.416,19.608-9.123,26.886,2.27-4.53,2.938-9.572,1.515-14.421-3.409-11.616-17.494-17.71-31.46-13.612-13.966,4.099-22.524,16.838-19.115,28.454,.816,2.781,2.25,5.242,4.142,7.326-9.425-2.108-17.969-5.817-23.181-10.702,17.722-24.408,31.22-42.196,44.326-55.302Z"/><polygon fill="none" points="452.815 357.391 452.766 357.391 450.857 363.828 454.724 363.828 452.815 357.391"/><polygon fill="none" points="414.571 443.308 403.319 481.247 426.112 481.247 414.86 443.308 414.571 443.308"/><path fill="none" d="M394.657,255.356h36.943c-5.967-5.364-11.903-10.814-17.738-16.173-2.291-2.103-4.558-4.184-6.8-6.236-.162,1.152-.364,2.179-.574,3.045-1.779,7.361-5.851,13.895-11.831,19.363Z"/><path fill="#eb422e" d="M55.361,132.294c-13.357,36.035-20.389,78.152-22.13,132.544-.151,4.729,3.56,8.685,8.289,8.836,.093,.003,.186,.004,.279,.004,4.604,0,8.409-3.657,8.558-8.293,1.68-52.489,8.375-92.888,21.071-127.137,1.105-2.982,2.26-5.927,3.467-8.839,20.86,10.247,49.073,23.021,71.588,21.668,13.221-.796,26.342-5.429,36.946-13.045,11.851-8.512,19.455-19.798,21.989-32.64,3.538-17.92-3.306-38.079-18.307-53.924-13.012-13.745-30.306-22.894-44.202-30.246-3.104-1.641-6.895-1.224-9.567,1.055-36.611,31.239-62.119,67.225-77.98,110.016ZM140.082,39.123c12.061,6.462,24.914,13.909,34.585,24.125,11.194,11.824,16.406,26.339,13.94,38.827-3.802,19.261-25.073,30.812-43.157,31.901-18.403,1.108-44.212-10.701-63.444-20.161,13.956-27.917,33.124-52.547,58.075-74.691Z"/><path fill="#f59745" d="M91.358,155.464c-4.601-1.099-9.223,1.742-10.321,6.344-8.936,37.438-13.321,57.452-15.343,102.924-.21,4.727,3.451,8.729,8.178,8.938,.129,.006,.258,.009,.387,.009,4.556,0,8.348-3.589,8.552-8.187,1.957-44.005,5.979-62.368,14.892-99.707,1.099-4.602-1.742-9.223-6.344-10.321Z"/><path fill="#4a9343" d="M221.872,102.295c12.616,7.38,20.838,13.095,29.542,19.146,5.566,3.87,11.257,7.826,18.163,12.23-61.644,35.812-117.304,76.44-169.779,123.898-2.628,2.376-3.521,6.125-2.248,9.432s4.451,5.488,7.994,5.488h212.978c4.731,0,8.566-3.835,8.566-8.567s-3.835-8.567-8.566-8.567H128.161c50.179-43.391,103.516-80.799,162.452-113.978,2.675-1.505,4.339-4.326,4.364-7.394s-1.593-5.916-4.241-7.465c-12.616-7.38-20.838-13.095-29.542-19.146-8.592-5.973-17.476-12.148-30.671-19.867-4.082-2.389-9.332-1.015-11.72,3.069-2.389,4.083-1.015,9.331,3.069,11.72Z"/><path fill="#f59745" d="M237.966,239.578c9.793,.104,19.713,.144,29.672,.144,17.126,0,34.362-.119,51.233-.235,16.138-.111,31.381-.216,45.943-.216,4.731,0,8.566-3.835,8.566-8.567s-3.835-8.567-8.566-8.567c-14.621,0-29.894,.105-46.062,.217-12.421,.086-25.033,.173-37.651,.212,14.619-5.628,29.831-11.212,44.079-16.442,13.908-5.105,27.045-9.927,37.129-13.895,2.883-1.134,4.93-3.737,5.351-6.807s-.849-6.128-3.319-7.997c-7.389-5.588-14.232-11.007-20.851-16.248-8.865-7.02-18.032-14.279-28.277-21.742-3.824-2.785-9.183-1.945-11.968,1.88-2.786,3.824-1.944,9.183,1.88,11.969,9.966,7.261,18.594,14.093,27.729,21.326,2.942,2.33,5.929,4.694,8.992,7.098-6.972,2.608-14.644,5.424-22.569,8.333-28.368,10.413-60.522,22.216-84.748,33.165-3.662,1.655-5.681,5.634-4.855,9.567,.826,3.933,4.274,6.763,8.293,6.806Z"/><path fill="#eb422e" d="M342.732,264.479c.009,.134,.014,.269,.029,.401,.003,.028,.002,.055,.006,.082,.016,.131,.044,.256,.065,.385,.02,.121,.036,.243,.062,.363,.034,.162,.08,.32,.123,.478,.029,.104,.052,.211,.084,.314,.08,.254,.171,.503,.273,.746l.004,.01c.107,.255,.228,.502,.358,.743,.012,.023,.027,.043,.039,.066,.118,.213,.242,.42,.377,.621,.038,.056,.08,.108,.119,.164,.114,.162,.23,.322,.355,.475,.057,.07,.118,.135,.177,.203,.114,.131,.228,.261,.349,.384,.074,.076,.153,.147,.23,.221,.113,.107,.226,.213,.345,.313,.09,.077,.183,.149,.276,.222,.113,.088,.226,.174,.343,.257,.104,.073,.21,.143,.317,.211,.114,.073,.23,.144,.348,.211,.114,.065,.228,.128,.345,.188,.12,.062,.243,.12,.366,.177,.118,.054,.236,.107,.356,.155,.133,.054,.269,.101,.405,.148,.115,.04,.23,.081,.347,.115,.157,.047,.316,.085,.476,.122,.102,.024,.202,.051,.305,.072,.202,.04,.407,.068,.613,.094,.066,.008,.13,.021,.197,.027,.277,.027,.557,.044,.841,.044h103.147c3.597,0,6.812-2.248,8.046-5.626,1.235-3.378,.228-7.168-2.521-9.488-11.429-9.643-23.148-20.405-34.482-30.812-12.747-11.705-24.913-22.874-35.188-31.048-1.946-1.655-4.109-3.304-6.497-4.937-.025-.018-.051-.038-.076-.056-.012-.009-.025-.015-.037-.024-.05-.034-.096-.069-.147-.103-.08-.054-.163-.097-.244-.148-.141-.089-.281-.178-.425-.258-.108-.06-.218-.112-.327-.166-.147-.074-.294-.147-.444-.212-.114-.049-.229-.09-.344-.133-.149-.056-.297-.113-.447-.16-.12-.038-.242-.068-.363-.101-.148-.039-.295-.08-.444-.111-.127-.027-.254-.046-.382-.067-.145-.024-.289-.048-.435-.064-.132-.015-.264-.022-.396-.03-.142-.009-.284-.019-.427-.021-.134-.002-.267,.004-.401,.008-.14,.005-.281,.008-.42,.019-.134,.011-.267,.029-.401,.047-.138,.018-.276,.034-.413,.059-.134,.024-.265,.055-.397,.085-.135,.031-.27,.06-.403,.097-.132,.037-.261,.081-.391,.124-.13,.043-.261,.085-.39,.135-.13,.05-.257,.107-.384,.164-.124,.055-.248,.108-.369,.169-.127,.064-.251,.135-.375,.205-.116,.066-.233,.13-.347,.201-.125,.078-.245,.164-.366,.249-.106,.075-.214,.148-.317,.228-.121,.094-.238,.196-.355,.297-.096,.083-.193,.164-.286,.252-.115,.109-.225,.227-.335,.343-.087,.092-.175,.182-.258,.278-.105,.122-.204,.252-.304,.381-.06,.077-.125,.148-.182,.229-.02,.028-.035,.057-.055,.085-.023,.034-.05,.063-.073,.097-.066,.098-.12,.2-.182,.3-.072,.116-.146,.231-.212,.349-.075,.135-.141,.272-.208,.409-.059,.12-.119,.239-.172,.361-.061,.142-.114,.286-.167,.43-.044,.12-.09,.239-.129,.36-.048,.15-.086,.301-.126,.452-.031,.118-.063,.236-.089,.354-.033,.155-.057,.311-.082,.467-.018,.117-.039,.234-.052,.351-.018,.159-.027,.317-.036,.476-.007,.116-.015,.231-.017,.346-.003,.16,.003,.319,.01,.478,.004,.115,.007,.23,.016,.344,.012,.158,.034,.315,.055,.472,.016,.115,.029,.23,.049,.344,.027,.154,.063,.307,.098,.459,.027,.115,.052,.23,.083,.343,.041,.149,.091,.295,.14,.442,.038,.114,.075,.229,.118,.342,.055,.143,.118,.283,.18,.423,.05,.112,.098,.224,.152,.334,.068,.137,.145,.27,.221,.404,.061,.108,.12,.216,.186,.321,.082,.131,.172,.257,.261,.384,.072,.102,.141,.204,.218,.303,.096,.123,.199,.242,.302,.36,.082,.095,.163,.191,.25,.283,.108,.114,.224,.222,.339,.331,.094,.089,.186,.179,.285,.264,.117,.101,.242,.196,.366,.292,.082,.063,.157,.132,.241,.192,1.62,1.161,3.336,2.466,5.12,3.869,8.886,7.5,12.876,15.914,11.007,23.649-2.815,11.649-18.36,20.855-39.603,23.452-.093,.011-.182,.033-.275,.048-.173,.027-.347,.053-.517,.09-.114,.025-.223,.057-.335,.086-.162,.042-.325,.084-.483,.135-.122,.04-.24,.087-.36,.132-.14,.053-.281,.104-.418,.164-.13,.057-.255,.121-.382,.184-.12,.06-.241,.118-.358,.183-.132,.073-.258,.154-.386,.234-.105,.066-.211,.131-.313,.201-.126,.087-.246,.181-.367,.274-.097,.075-.195,.148-.289,.228-.113,.096-.221,.197-.329,.299-.094,.088-.188,.174-.278,.266-.097,.1-.189,.205-.281,.31-.091,.103-.182,.204-.268,.311-.082,.102-.158,.209-.236,.315-.086,.117-.171,.233-.251,.355-.069,.106-.133,.216-.197,.325-.076,.128-.152,.254-.221,.386-.06,.114-.113,.231-.168,.348-.062,.132-.125,.263-.18,.399-.052,.128-.097,.259-.143,.39-.045,.129-.093,.256-.132,.388-.045,.149-.08,.301-.116,.453-.028,.118-.059,.234-.083,.354-.034,.172-.057,.347-.08,.522-.014,.105-.031,.209-.041,.315-.017,.184-.023,.37-.028,.557-.002,.084-.013,.167-.013,.252,0,.022,.003,.043,.003,.064,.001,.163,.014,.327,.025,.492Zm71.129-25.296c5.835,5.358,11.771,10.809,17.738,16.173h-36.943c5.98-5.468,10.052-12.003,11.831-19.363,.209-.867,.412-1.894,.574-3.045,2.242,2.052,4.51,4.133,6.8,6.236Z"/><path fill="#f4b88c" d="M119.208,119.385c-1.892-2.084-3.326-4.544-4.142-7.326-3.409-11.616,5.149-24.356,19.115-28.454,13.966-4.099,28.051,1.995,31.46,13.612,1.423,4.849,.755,9.891-1.515,14.421,8.707-7.278,13.135-17.548,9.123-26.886-8.445-19.658-23.596-27.149-32.896-31.37-13.106,13.106-26.604,30.894-44.326,55.302,5.212,4.885,13.756,8.594,23.181,10.702Z"/><path fill="#eb422e" d="M138.19,95.807c-8.126,2.385-13.274,9.222-11.498,15.271,1.775,6.049,9.802,9.02,17.927,6.635,8.126-2.385,13.274-9.222,11.498-15.271s-9.802-9.02-17.927-6.635Z"/><path fill="#eb422e" d="M192.917,220.341c-10.912,3.202-18.396,10.438-16.716,16.161s11.887,7.767,22.799,4.564c10.912-3.202,18.396-10.438,16.716-16.161-1.68-5.723-11.887-7.767-22.799-4.564Z"/><path fill="#f4b88c" d="M163.526,161.323c-23.666,6.081-50.158,2.473-50.158,2.473l-14.381,72.047s68.756-57.856,145.184-109.235c-9.092-5.257-27.627-16.954-27.627-16.954,0,0-4.509,39.205-53.017,51.669Z"/><path fill="#f59745" d="M8.389,274.759c.08,.002,.158,.003,.237,.003,4.654,0,8.488-3.709,8.615-8.39C21.291,116.517,76.781,51.209,118.166,15.121c3.589-3.129,3.962-8.576,.832-12.165-3.129-3.59-8.576-3.96-12.165-.832C37.171,62.868,3.225,146.687,.003,265.907c-.128,4.76,3.626,8.724,8.386,8.852Z"/><path fill="#f4b88c" d="M284.463,156.413s-57.179,40.696-72.429,55.689l97.149-39.966-24.72-15.723Z"/><path fill="#f59745" d="M8.622,309.299H454.407c4.762,0,8.622-3.86,8.622-8.622s-3.86-8.622-8.622-8.622H8.622C3.861,292.055,0,295.915,0,300.677s3.86,8.622,8.622,8.622Z"/><path fill="#fff" d="M33.003,483.843h16.589c25.389,0,45.297-7.79,45.297-35.775,0-28.13-19.908-35.92-45.297-35.92H19.587c-12.839,0-18.897,5.915-18.897,19.763v68.666c0,11.108,5.77,17.311,16.157,17.311s16.157-6.203,16.157-17.311v-16.734Zm0-46.595h16.734c8.078,0,12.839,4.039,12.839,10.963,0,7.069-5.771,10.531-11.252,10.531h-18.32v-21.494Z"/><path fill="#fff" d="M129.083,517.888c10.242,0,16.589-6.78,16.589-17.888v-71.839c0-11.108-6.347-17.888-16.589-17.888s-16.589,6.78-16.589,17.888v71.839c0,11.108,6.347,17.888,16.589,17.888Z"/><path fill="#fff" d="M258.048,503.03c0-8.511-5.193-12.983-15.146-12.983h-37.507l44.431-49.335c5.049-5.626,6.636-9.232,6.636-13.993,0-8.078-4.616-14.57-15.146-14.57h-62.607c-10.819,0-15.868,5.193-15.868,12.983s5.049,12.983,15.868,12.983h32.313l-41.546,46.162c-7.213,7.934-9.232,11.685-9.232,17.167,0,8.078,5.049,14.57,16.301,14.57h66.358c9.953,0,15.146-4.472,15.146-12.983Z"/><path fill="#fff" d="M362.203,503.03c0-8.511-5.193-12.983-15.146-12.983h-37.507l44.431-49.335c5.049-5.626,6.636-9.232,6.636-13.993,0-8.078-4.616-14.57-15.146-14.57h-62.607c-10.819,0-15.868,5.193-15.868,12.983s5.049,12.983,15.868,12.983h32.313l-41.546,46.162c-7.213,7.934-9.232,11.685-9.232,17.167,0,8.078,5.049,14.57,16.301,14.57h66.358c9.953,0,15.146-4.472,15.146-12.983Z"/><path fill="#fff" d="M457.848,485.142l-22.071-61.453c-3.174-8.655-7.502-13.416-15.868-13.416h-10.387c-8.367,0-12.694,4.761-15.868,13.416l-22.071,61.453c-2.452,6.924-5.193,14.57-5.193,19.331,0,7.79,7.646,13.416,15.147,13.416,5.192,0,11.685-2.308,13.415-8.223l2.309-7.646h34.91l2.308,7.646c1.731,5.915,8.223,8.223,13.416,8.223,7.502,0,15.147-5.626,15.147-13.416,0-4.76-2.741-12.406-5.193-19.331Zm-54.529-3.895l11.252-37.939h.289l11.252,37.939h-22.793Z"/><path fill="#fff" d="M15.436,364.428l12.738,3.663c3.496,.999,5.245,1.998,5.245,4.413,0,3.663-3.497,4.995-7.41,4.995-9.407,0-10.24-8.742-17.066-8.742-4.662,0-8.075,3.164-8.075,7.826,0,5.411,6.16,14.402,26.308,14.402,12.654,0,24.892-6.16,24.892-20.396,0-10.406-6.91-15.068-16.983-17.816l-9.907-2.664c-4.08-1.083-6.411-2.248-6.411-4.912,0-2.748,2.997-3.996,6.244-3.996,9.491,0,9.574,7.326,15.984,7.326,4.746,0,8.325-2.914,8.325-7.576,0-10.073-14.319-12.737-25.392-12.737-16.65,0-23.311,9.407-23.311,19.397,0,8.408,5.245,14.069,14.819,16.817Z"/><path fill="#fff" d="M104.604,343.615c5.744,0,8.325-2.831,8.325-6.993s-2.581-6.993-8.325-6.993h-30.471c-7.409,0-10.906,3.413-10.906,11.405v37.131c0,7.992,3.497,11.405,10.906,11.405h31.386c5.745,0,8.325-2.831,8.325-6.993s-2.581-6.993-8.325-6.993h-23.144v-9.574h17.816c5.745,0,8.325-2.83,8.325-6.993s-2.581-6.993-8.325-6.993h-17.816v-8.408h22.229Z"/><path fill="#fff" d="M163.383,385.324l8.658-32.385h.167v29.138c0,5.745,3.413,8.575,8.575,8.575s8.575-2.83,8.575-8.575v-43.125c0-6.161-3.413-10.406-9.99-10.406h-5.411c-6.077,0-8.575,2.081-10.157,7.992l-7.909,29.721h-.167l-7.909-29.721c-1.582-5.911-4.08-7.992-10.157-7.992h-5.411c-6.577,0-9.99,4.246-9.99,10.406v43.125c0,5.745,3.413,8.575,8.575,8.575s8.575-2.83,8.575-8.575v-29.138h.167l8.658,32.385c1.082,4.08,2.997,5.328,7.576,5.328s6.494-1.249,7.576-5.328Z"/><path fill="#fff" d="M212.175,385.907l1.332-4.412h20.146l1.332,4.412c.999,3.413,4.746,4.745,7.742,4.745,4.33,0,8.742-3.247,8.742-7.742,0-2.747-1.582-7.16-2.997-11.156l-12.737-35.465c-1.832-4.995-4.33-7.742-9.158-7.742h-5.994c-4.829,0-7.326,2.747-9.158,7.742l-12.738,35.465c-1.415,3.996-2.997,8.409-2.997,11.156,0,4.496,4.413,7.742,8.742,7.742,2.997,0,6.744-1.332,7.743-4.745Zm11.322-38.296h.166l6.494,21.896h-13.154l6.494-21.896Z"/><path fill="#fff" d="M277.782,380.329v-41.459c0-6.411-3.663-10.323-9.573-10.323s-9.574,3.913-9.574,10.323v41.459c0,6.411,3.663,10.323,9.574,10.323s9.573-3.913,9.573-10.323Z"/><path fill="#fff" d="M309.169,380.995v-23.644h.167l15.901,26.142c3.663,6.077,6.41,7.492,11.488,7.492,6.078,0,10.823-2.581,10.823-9.157v-44.041c0-5.578-3.497-9.574-9.324-9.574s-9.324,3.996-9.324,9.574v25.059h-.167l-16.816-28.806c-2.414-4.079-5.828-5.827-10.406-5.827-7.243,0-10.99,3.746-10.99,10.24v42.542c0,6.411,3.33,9.99,9.324,9.99s9.324-3.58,9.324-9.99Z"/><path fill="#fff" d="M371.448,389.57h31.386c5.745,0,8.326-2.831,8.326-6.993s-2.581-6.993-8.326-6.993h-23.144v-9.574h17.815c5.745,0,8.326-2.83,8.326-6.993s-2.581-6.993-8.326-6.993h-17.815v-8.408h22.229c5.744,0,8.325-2.831,8.325-6.993s-2.581-6.993-8.325-6.993h-30.471c-7.409,0-10.905,3.413-10.905,11.405v37.131c0,7.992,3.496,11.405,10.905,11.405Z"/><path fill="#fff" d="M435.144,330.158h-4.773c-2.178,0-3.206,1.003-3.206,3.353v10.916c0,2.35,1.028,3.353,3.206,3.353h4.773c5.85,0,8.443-3.916,8.443-8.811s-2.594-8.811-8.443-8.811Zm-1.248,13.216h-1.249v-8.811h1.249c3.255,0,4.062,1.615,4.062,4.405s-.808,4.405-4.062,4.405Z"/><path fill="#fff" d="M459.084,334.27c1.688,0,2.447-.832,2.447-2.056s-.759-2.056-2.447-2.056h-8.958c-2.178,0-3.206,1.003-3.206,3.353v10.916c0,2.35,1.028,3.353,3.206,3.353h9.228c1.688,0,2.447-.832,2.447-2.056s-.759-2.056-2.447-2.056h-6.804v-2.814h5.237c1.688,0,2.447-.833,2.447-2.056s-.759-2.056-2.447-2.056h-5.237v-2.472h6.534Z"/><path fill="#fff" d="M431.72,351.786c-1.737,0-2.814,1.15-2.814,3.035v11.552c0,2.35,1.028,3.353,3.206,3.353h8.322c1.443,0,2.423-.832,2.423-2.276s-.979-2.276-2.423-2.276h-5.899v-10.353c0-1.885-1.076-3.035-2.814-3.035Z"/><path fill="#fff" d="M444.591,367.768c0,1.322,1.298,2.276,2.57,2.276,.881,0,1.982-.392,2.276-1.395l.392-1.297h5.923l.392,1.297c.294,1.003,1.395,1.395,2.276,1.395,1.272,0,2.569-.955,2.569-2.276,0-.808-.465-2.105-.881-3.28l-3.744-10.426c-.539-1.468-1.273-2.276-2.692-2.276h-1.763c-1.42,0-2.153,.808-2.692,2.276l-3.744,10.426c-.416,1.175-.882,2.472-.882,3.28Zm8.175-10.377h.049l1.909,6.437h-3.867l1.909-6.437Z"/><path fill="#f59745" d="M431.579,389.088h25.385c3.313,0,6-2.687,6-6s-2.687-6-6-6h-25.385c-3.313,0-6,2.687-6,6s2.687,6,6,6Z"/></g><g><g><path fill="#fff" d="M149.046,565.059c-2.152-.915-5.125-1.568-7.523-1.568-2.348,0-5.382,1.011-5.382,4.671,0,5.826,14.972,3.37,14.972,14.638,0,7.367-5.92,10.159-12.819,10.159-3.719,0-5.383-.482-8.759-1.3l-.007-6.067c2.349,1.252,5.683,2.071,8.375,2.071,2.594,0,6.067-1.3,6.067-4.334,0-6.404-14.973-3.756-14.973-14.879,0-7.511,5.921-10.256,11.939-10.256,2.936,0,5.675,.385,8.171,1.204l-.061,5.66Z"/><path fill="#fff" d="M188.278,573.453c-1.947-.654-3.712-1.028-6.04-1.028-1.71,0-3.754,.608-3.754,2.664,0,3.833,11.071,1.403,11.071,10.098,0,5.61-5.084,7.854-10.263,7.854-2.423,0-4.893-.421-7.221-1.028l.381-5.143c1.995,.982,4.085,1.59,6.27,1.59,1.616,0,4.181-.608,4.181-2.946,0-4.721-11.069-1.496-11.069-10.19,0-5.189,4.608-7.48,9.598-7.48,2.992,0,4.94,.467,6.935,.888l-.089,4.721Z"/><path fill="#fff" d="M208.436,573.593c-1.14-.514-2.375-.888-4.322-.888-3.945,0-6.462,3.085-6.462,7.62,0,4.442,2.137,7.854,6.603,7.854,1.806,0,3.801-.654,4.893-1.122l.285,5.189c-1.852,.56-3.753,.795-6.365,.795-8.028,0-12.067-5.376-12.067-12.716,0-6.965,4.181-12.481,11.829-12.481,2.565,0,4.418,.28,6.177,.795l-.571,4.955Z"/><path fill="#fff" d="M222.933,567.843c7.268,0,12.826,4.815,12.826,12.762,0,6.919-4.702,12.435-12.826,12.435-8.075,0-12.779-5.516-12.779-12.435,0-7.948,5.558-12.762,12.779-12.762Zm0,20.335c4.893,0,6.175-4.3,6.175-8.321,0-3.693-1.995-7.152-6.175-7.152-4.133,0-6.128,3.553-6.128,7.152,0,3.975,1.282,8.321,6.128,8.321Z"/><polygon fill="#fff" points="172.548 568.077 166.087 568.077 153.931 601.153 159.771 601.153 172.548 568.077"/><path fill="#5f9e43" d="M146.138,567.482c2.699,2.731,5.388,6.06,7.337,9.964,1.744,3.494,2.625,6.899,3.257,10.329,.025,.12,.106,.111,.151,.017,2.322-4.053,3.741-9.569,1.665-13.728-2.177-4.362-7.409-6.37-12.322-6.773-.172-.008-.202,.082-.088,.191Z"/><g><path fill="#fff" d="M235.639,568.369h-.873v-.315h2.124v.315h-.877v2.553h-.375v-2.553Z"/><path fill="#fff" d="M239.628,569.663c-.021-.396-.046-.885-.046-1.238h-.009c-.102,.332-.217,.698-.362,1.089l-.507,1.392h-.281l-.468-1.366c-.136-.404-.247-.775-.328-1.115h-.008c-.008,.358-.03,.838-.055,1.268l-.076,1.23h-.353l.2-2.868h.472l.49,1.387c.119,.353,.213,.672,.289,.97h.009c.076-.289,.179-.608,.307-.97l.511-1.387h.472l.179,2.868h-.366l-.068-1.26Z"/></g></g><g><path fill="none" d="M106.107,561.874c.07,.073,.153,.131,.25,.174,.096,.043,.201,.064,.315,.064s.219-.021,.315-.064,.18-.1,.25-.174c.07-.073,.125-.159,.164-.257s.059-.203,.059-.312-.02-.214-.059-.312c-.04-.098-.095-.184-.164-.257-.07-.073-.153-.131-.25-.174-.096-.043-.201-.064-.315-.064s-.219,.021-.315,.064c-.096,.043-.18,.1-.25,.174-.07,.073-.125,.159-.164,.257-.04,.099-.06,.203-.06,.312s.02,.214,.06,.312,.094,.184,.164,.257Zm.123-1.178h.475c.159,0,.276,.032,.353,.097,.077,.065,.116,.158,.116,.28,0,.104-.029,.183-.087,.239-.058,.056-.129,.089-.215,.099l.302,.502h-.292l-.286-.49h-.098v.49h-.268v-1.218Z"/><path fill="none" d="M103.797,561.898c.027-.061,.046-.141,.055-.241,.009-.099,.014-.223,.014-.372,0-.124-.004-.232-.012-.326-.008-.093-.025-.171-.05-.233-.025-.062-.063-.109-.113-.14s-.116-.047-.2-.047h-.186v1.529h.195c.077,0,.139-.013,.186-.04,.047-.026,.084-.07,.111-.131Z"/><path fill="none" d="M106.848,561.182c.038-.018,.058-.06,.058-.125,0-.035-.007-.061-.021-.081s-.033-.034-.056-.044c-.023-.01-.049-.017-.076-.02-.027-.003-.053-.005-.078-.005h-.177v.301h.204c.059,0,.108-.009,.146-.027Z"/><path fill="#ff141e" d="M86.439,583.049c-1.401,4.909,2.538,4.825,5.015,1.379,1.733-2.35,3.227-5.856,2.843-7.784-.091-.442-.255-.816-.48-1.154-5.367,.487-7.162,6.784-7.377,7.559Z"/><path fill="#ff141e" d="M108.214,579.792c0-16.483-24.04-29.893-53.589-29.893s-53.589,13.41-53.589,29.893,24.04,29.893,53.589,29.893,53.589-13.41,53.589-29.893Zm-45.913-8.37c8.838,1.773,13.686,.678,17.777,.493l1.517-3.181c1.243-.463,2.61-.472,3.818,.015l-1.415,3.131c6.18,.146,9.711,1.296,11.728,2.675,3.435,.17,6.389,1.028,7.122,1.745-.421,.919-1.212,1.66-2.137,2.042-.338-.551-1.659-1.62-3.397-2.291,1.356,1.809,.93,3.545,.912,3.696-.502,4.089-5.082,8.219-10.319,8.219-3.115,0-5.102-1.464-5.527-3.652-.044-.253-.108-.931-.041-1.568,.173-1.617,.9-3.246,2.068-4.591,2.005-2.326,5.22-3.316,8.433-3.565-2.227-1.349-6.443-.877-9.822-.539l-3.378,7.504c-.407,.843-1.262,2.667-1.371,3.515-.055,.453,.021,.955,.729,.955,.448,0,.917-.228,1.38-.557,.224-.16,.608-.501,.858-.739,.095,.319,.222,.606,.381,.878l.013,.045c-1.252,1.162-2.891,2.301-4.835,2.301-1.688,0-2.91-1-2.746-2.361,.027-.433,.192-1.208,.699-2.292,.321-.817,.705-1.627,.989-2.26l3.217-6.761c-4.433,0-11.962-.437-16.887-2.471l.234-.383Zm-1.443,4.794c-.156,0-.536,.103-.97,.26-.074-.267-.181-.525-.32-.759,1.239-.769,2.683-1.318,3.918-1.318,1.419,0,2.458,.755,2.309,1.948-.123,.999-.911,2.518-1.446,3.518,0,0-2.488,4.603-2.571,5.273-.065,.548,.351,.798,.995,.798,3.068,0,6.424-6.546,7.451-8.521l1.093-1.965s1.337,.13,1.891,.165c.758,.046,2.03,.134,2.03,.134l-2.274,4.404c-.56,1.215-1.647,3.644-1.795,4.837-.045,.36-.035,.946,.559,.946,.348-.012,.745-.231,1.099-.468-.002,.042-.009,.08-.011,.123-.043,.322,.002,.633,.109,.912v.016c-1.088,.81-2.382,1.383-3.766,1.383-1.536,0-2.304-1.057-2.167-2.215,.103-.788,.276-1.304,.548-2.001l-.068-.065c-1.701,2.326-4.087,4.271-7.082,4.281-1.725,.012-2.962-.904-2.784-2.392,.132-1.07,.96-2.618,1.5-3.652,0,0,2.252-4.511,2.308-4.999,.048-.34-.103-.643-.556-.643Zm-37.044,6.009c-.876,3.687-4.573,5.864-8.929,5.864-2.4,0-4.781-.72-6.111-2.219-2.564-2.971,.377-4.511,1.814-4.484-.75,2.844,.389,5.366,4.009,5.366,2.03,0,3.806-1.173,4.217-2.891,.449-1.905-.611-3.031-1.863-4.301l-1.181-1.229c-1.544-1.575-2.723-2.997-2.157-5.355,.801-3.383,4.373-5.496,8.402-5.496,2.136,0,3.805,.602,5.122,1.749,2.674,2.693-.636,4.415-1.372,4.253-.18-.034-.249-.079-.249-.079,.702-2.181-.051-4.6-3.081-4.6-1.7,0-3.796,.908-4.166,2.454-.42,1.755,.843,2.962,1.978,4.112l1.074,1.054c1.71,1.664,3.106,3.231,2.494,5.802Zm10.724,3.653c.054-.448,.246-1.103,.246-1.103l-.069-.057c-1.334,1.699-3.463,3.192-6.016,3.192-3.149,0-4.396-2.032-4.107-4.407,.479-3.922,4.904-9.096,10.302-9.096,1.76,0,2.954,.698,3.472,1.981l.948-1.66c1.265-.463,2.675-.475,3.902,.007l-3.865,8.198c-.252,.518-.817,1.764-.872,2.246-.047,.367,.051,1.07,.577,1.07,.207,0,.434-.065,.666-.177l.004,.012-.549,1.215c-.793,.376-1.635,.61-2.494,.61-1.42,0-2.29-.917-2.144-2.032Zm10.58,.058h-.073l-4.222,9.344c-1.242-.417-2.303-1.306-2.88-2.476l8.877-19.802c1.187,.394,2.182,1.21,2.734,2.307l-.449,1.053,.069,.057c1.274-1.215,3.018-2.003,4.97-2.003,2.703,0,3.971,1.374,4.134,3.246,.051,.631-.025,1.108-.025,1.127-.473,3.866-4.266,9.125-9.704,9.125-1.72,0-2.91-.727-3.432-1.977Z"/><path fill="#ff141e" d="M52.218,576.082c-3.338,0-5.877,6.332-6.109,8.183-.113,.946,.286,1.977,1.631,1.977,3.377,0,6.035-6.083,6.307-8.271,.12-1.004-.449-1.89-1.829-1.89Z"/><path fill="#ff141e" d="M35.517,576.082c-3.303,0-6.236,5.867-6.497,8.025-.115,.882,.278,1.978,1.553,1.978,3.41,0,6.446-6.083,6.718-8.268,.118-.973-.466-1.736-1.774-1.736Z"/><path fill="#fff" d="M92.844,558.225c-10.213-5.72-23.786-8.87-38.219-8.87s-28.005,3.15-38.219,8.87c-10.263,5.748-15.915,13.407-15.915,21.567s5.652,15.819,15.915,21.567c10.213,5.72,23.786,8.87,38.219,8.87s28.005-3.15,38.219-8.87c10.263-5.748,15.915-13.407,15.915-21.567s-5.652-15.819-15.915-21.567ZM1.036,579.792c0-16.483,24.04-29.893,53.589-29.893s53.589,13.41,53.589,29.893-24.04,29.893-53.589,29.893-53.589-13.41-53.589-29.893Z"/><path fill="#fff" d="M21.32,576.422l-1.074-1.054c-1.135-1.15-2.398-2.357-1.978-4.112,.37-1.545,2.466-2.454,4.166-2.454,3.03,0,3.783,2.419,3.081,4.6,0,0,.069,.046,.249,.079,.736,.162,4.046-1.56,1.372-4.253-1.317-1.147-2.987-1.749-5.122-1.749-4.029,0-7.601,2.113-8.402,5.496-.566,2.357,.613,3.779,2.157,5.355l1.181,1.229c1.252,1.269,2.312,2.395,1.863,4.301-.411,1.717-2.187,2.891-4.217,2.891-3.62,0-4.759-2.522-4.009-5.366-1.437-.027-4.377,1.513-1.814,4.484,1.33,1.499,3.712,2.219,6.111,2.219,4.357,0,8.053-2.177,8.929-5.864,.612-2.571-.784-4.138-2.494-5.802Z"/><path fill="#fff" d="M58.253,578.788c0-.019,.076-.495,.025-1.127-.163-1.871-1.43-3.246-4.134-3.246-1.952,0-3.696,.788-4.97,2.003l-.069-.057,.449-1.053c-.552-1.097-1.547-1.914-2.734-2.307l-8.877,19.802c.577,1.17,1.637,2.059,2.88,2.476l4.222-9.344h.073c.522,1.25,1.712,1.977,3.432,1.977,5.438,0,9.23-5.259,9.704-9.125Zm-4.207-.817c-.272,2.188-2.929,8.271-6.307,8.271-1.345,0-1.744-1.032-1.631-1.977,.232-1.852,2.771-8.183,6.109-8.183,1.38,0,1.949,.885,1.829,1.89Z"/><path fill="#fff" d="M39.725,586.085l-.004-.012c-.232,.113-.459,.177-.666,.177-.526,0-.624-.702-.577-1.07,.055-.482,.62-1.728,.872-2.246l3.865-8.198c-1.227-.482-2.637-.471-3.902-.007l-.948,1.66c-.518-1.283-1.713-1.981-3.472-1.981-5.398,0-9.822,5.173-10.302,9.096-.29,2.375,.958,4.407,4.107,4.407,2.554,0,4.682-1.492,6.016-3.192l.069,.057s-.192,.655-.246,1.103c-.146,1.115,.724,2.032,2.144,2.032,.859,0,1.701-.234,2.494-.61l.549-1.215Zm-2.434-8.268c-.272,2.185-3.309,8.268-6.718,8.268-1.275,0-1.668-1.096-1.553-1.978,.261-2.158,3.194-8.025,6.497-8.025,1.308,0,1.891,.763,1.774,1.736Z"/><path fill="#fff" d="M59.107,581.857c-.54,1.034-1.368,2.582-1.5,3.652-.178,1.488,1.059,2.403,2.784,2.392,2.995-.01,5.381-1.955,7.082-4.281l.068,.065c-.271,.697-.444,1.213-.548,2.001-.137,1.157,.631,2.215,2.167,2.215,1.383,0,2.678-.573,3.766-1.383v-.016c-.108-.279-.152-.59-.109-.912,.002-.043,.009-.081,.011-.123-.354,.237-.752,.457-1.099,.468-.594,0-.603-.587-.559-.946,.147-1.192,1.234-3.622,1.795-4.837l2.274-4.404s-1.272-.089-2.03-.134c-.555-.035-1.891-.165-1.891-.165l-1.093,1.965c-1.026,1.975-4.383,8.521-7.451,8.521-.644,0-1.06-.249-.995-.798,.083-.67,2.571-5.273,2.571-5.273,.535-1,1.323-2.518,1.446-3.518,.149-1.193-.89-1.948-2.309-1.948-1.235,0-2.679,.548-3.918,1.318,.139,.234,.246,.491,.32,.759,.435-.156,.814-.26,.97-.26,.453,0,.604,.303,.556,.643-.055,.487-2.308,4.999-2.308,4.999Z"/><path fill="#fff" d="M75.738,581.037c-.285,.633-.668,1.444-.989,2.26-.507,1.085-.671,1.86-.699,2.292-.164,1.361,1.058,2.361,2.746,2.361,1.944,0,3.583-1.139,4.835-2.301l-.013-.045c-.159-.272-.286-.559-.381-.878-.25,.237-.633,.578-.858,.739-.463,.329-.932,.557-1.38,.557-.709,0-.784-.502-.729-.955,.108-.847,.964-2.671,1.371-3.515l3.378-7.504c3.379-.338,7.596-.809,9.822,.539-3.213,.249-6.428,1.239-8.433,3.565-1.168,1.345-1.895,2.974-2.068,4.591-.068,.637-.003,1.315,.041,1.568,.425,2.188,2.412,3.652,5.527,3.652,5.236,0,9.817-4.13,10.319-8.219,.018-.151,.444-1.886-.912-3.696,1.738,.671,3.059,1.74,3.397,2.291,.926-.382,1.717-1.123,2.137-2.042-.733-.717-3.687-1.575-7.122-1.745-2.016-1.379-5.548-2.529-11.728-2.675l1.415-3.131c-1.208-.486-2.574-.478-3.818-.015l-1.517,3.181c-4.092,.184-8.939,1.28-17.777-.493l-.234,.383c4.925,2.034,12.455,2.471,16.887,2.471l-3.217,6.761Zm18.559-4.392c.384,1.928-1.109,5.434-2.843,7.784-2.477,3.446-6.415,3.53-5.015-1.379,.215-.774,2.01-7.071,7.377-7.559,.225,.338,.389,.712,.48,1.154Z"/><polygon fill="#ff141e" points="101.002 560.656 101.008 560.656 101.395 562.391 101.736 562.391 102.123 560.656 102.129 560.656 102.129 562.391 102.531 562.391 102.531 560.217 101.882 560.217 101.569 561.752 101.562 561.752 101.252 560.217 100.6 560.217 100.6 562.391 101.002 562.391 101.002 560.656"/><path fill="#ff141e" d="M103.921,562.324c.096-.045,.172-.113,.229-.204,.057-.091,.097-.208,.12-.349,.023-.141,.035-.307,.035-.498,0-.16-.009-.305-.027-.435-.018-.13-.053-.241-.105-.333s-.124-.163-.218-.213c-.094-.05-.216-.075-.369-.075h-.719v2.174h.692c.146,0,.267-.022,.363-.067Zm-.615-.256v-1.529h.186c.083,0,.15,.016,.2,.047s.087,.078,.113,.14c.026,.062,.042,.14,.05,.233,.008,.093,.012,.202,.012,.326,0,.148-.004,.272-.014,.372-.009,.1-.027,.18-.055,.241-.027,.061-.065,.105-.111,.131-.047,.026-.109,.04-.186,.04h-.195Z"/><polygon fill="#ff141e" points="105.462 560.174 105.121 560.174 104.441 562.425 104.774 562.425 105.462 560.174"/><path fill="#ff141e" d="M105.872,562.102c.103,.102,.223,.181,.36,.238,.137,.057,.284,.085,.44,.085s.303-.028,.44-.085c.137-.057,.257-.136,.36-.238,.102-.101,.183-.221,.242-.358s.088-.284,.088-.44-.03-.303-.088-.44-.14-.257-.242-.359c-.103-.102-.223-.183-.36-.242-.137-.059-.284-.088-.44-.088s-.303,.029-.44,.088c-.137,.059-.257,.14-.36,.242s-.183,.222-.242,.359c-.059,.137-.088,.284-.088,.44s.029,.303,.088,.44c.059,.137,.14,.256,.242,.358Zm.07-1.11c.04-.098,.094-.184,.164-.257,.07-.073,.153-.131,.25-.174,.096-.043,.201-.064,.315-.064s.219,.021,.315,.064c.096,.043,.18,.1,.25,.174,.07,.073,.125,.159,.164,.257,.04,.099,.059,.203,.059,.312s-.02,.214-.059,.312-.095,.184-.164,.257c-.07,.073-.153,.131-.25,.174s-.201,.064-.315,.064-.219-.021-.315-.064c-.096-.043-.18-.1-.25-.174s-.125-.159-.164-.257-.06-.203-.06-.312,.02-.214,.06-.312Z"/><path fill="#ff141e" d="M106.498,561.423h.098l.286,.49h.292l-.302-.502c.085-.01,.157-.043,.215-.099,.058-.056,.087-.136,.087-.239,0-.122-.039-.215-.116-.28-.077-.065-.195-.097-.353-.097h-.475v1.218h.268v-.49Zm0-.515h.177c.024,0,.05,.001,.078,.005,.027,.003,.053,.01,.076,.02,.023,.01,.042,.025,.056,.044s.021,.046,.021,.081c0,.065-.019,.107-.058,.125-.039,.018-.087,.027-.146,.027h-.204v-.301Z"/></g><g id="d"><g id="e"><path fill="#ff3008" d="M313.281,574.209v10.963h2.805c2.991-.032,5.39-2.481,5.358-5.47v-.01c.088-2.939-2.224-5.393-5.165-5.481-.064-.002-.129-.003-.193-.002h-2.805Zm2.805-3.443c5.229,0,9.184,3.953,9.184,8.927s-3.955,8.922-9.184,8.922h-6.17c-.245,0-.444-.199-.444-.444v-16.944c0-.245,.199-.444,.444-.444l6.17-.018Z"/><path fill="#ff3008" d="M338.769,585.558c3.241,0,5.868-2.626,5.868-5.865s-2.627-5.865-5.868-5.865c-3.241,0-5.868,2.626-5.868,5.865,.005,3.237,2.629,5.86,5.868,5.865m0-15.174c5.482,0,9.695,4.206,9.695,9.317s-4.213,9.317-9.695,9.317-9.695-4.206-9.695-9.317,4.208-9.317,9.695-9.317"/><path fill="#ff3008" d="M361.817,585.558c3.241,.002,5.87-2.622,5.873-5.861,.002-3.239-2.623-5.867-5.864-5.87-3.241-.002-5.87,2.622-5.873,5.861v.004c.005,3.236,2.627,5.858,5.864,5.865m0-15.174c5.487,0,9.695,4.206,9.695,9.317s-4.208,9.317-9.695,9.317-9.695-4.206-9.695-9.317,4.208-9.317,9.695-9.317"/><path fill="#ff3008" d="M384.363,574.209h-3.955v4.716h3.955c1.278,.059,2.362-.929,2.421-2.207,.001-.029,.002-.058,.002-.087,.042-1.296-.974-2.38-2.27-2.422-.051-.002-.102-.002-.153,0m-7.782-2.981c0-.245,.199-.444,.444-.444h7.444c3.551,0,6.126,2.6,6.126,5.865,.026,2.209-1.214,4.239-3.192,5.226l3.449,6.052c.135,.204,.079,.48-.125,.615-.081,.054-.178,.079-.275,.073h-3.019c-.169,.004-.326-.089-.404-.24l-3.307-6.007h-3.316v5.768c0,.245-.199,.444-.444,.444h-2.903c-.245,0-.444-.199-.444-.444l-.036-16.908Z"/><path fill="#ff3008" d="M400.569,574.289v10.968h2.805c2.993-.034,5.392-2.487,5.358-5.479v-.005c.088-2.939-2.224-5.393-5.165-5.481-.064-.002-.129-.003-.193-.002h-2.805Zm2.805-3.438c5.229,0,9.184,3.949,9.184,8.922s-3.951,8.927-9.184,8.927h-6.17c-.245,0-.444-.199-.444-.444v-16.944c0-.245,.199-.444,.444-.444l6.17-.018Z"/><path fill="#ff3008" d="M424.225,575.207l-2.166,5.865h4.337l-2.171-5.865Zm-3.445,9.18l-1.42,3.904c-.062,.19-.244,.316-.444,.306h-3.081c-.244,.024-.461-.153-.486-.397-.008-.081,.006-.163,.042-.237l6.659-16.922c.065-.187,.246-.308,.444-.297h3.449c.198-.011,.379,.11,.444,.297l6.659,16.922c.107,.221,.014,.486-.207,.592-.074,.036-.156,.05-.237,.042h-3.081c-.2,.01-.382-.116-.444-.306l-1.42-3.904h-6.876Z"/><path fill="#ff3008" d="M436.623,575.58c0-2.804,2.419-5.226,6.25-5.226,2.056-.041,4.048,.72,5.553,2.121,.178,.181,.178,.471,0,.652l-1.722,1.717c-.166,.18-.447,.191-.627,.025l-.003-.003c-.812-.736-1.865-1.151-2.961-1.167-1.531,0-2.663,.887-2.663,1.912,0,3.319,9.047,1.406,9.047,7.778,0,3.19-2.424,5.612-6.761,5.612-2.411,.028-4.734-.906-6.454-2.595-.179-.167-.188-.448-.021-.627l.021-.021,1.651-1.65c.169-.178,.45-.185,.628-.016l.016,.016c1.048,1.008,2.443,1.577,3.897,1.588,1.918,0,3.178-1.02,3.178-2.298,0-3.314-9.042-1.402-9.042-7.778"/><path fill="#ff3008" d="M465.912,571.21v6.677h-7.653v-6.655c.012-.245-.176-.453-.421-.465-.008,0-.015,0-.023,0h-2.903c-.245,0-.444,.198-.444,.443,0,.008,0,.015,0,.023v16.899c-.012,.245,.176,.453,.421,.465,.008,0,.015,0,.023,0h2.903c.245,0,.444-.198,.444-.443,0-.008,0-.015,0-.023v-6.784h7.653v6.784c-.013,.245,.176,.453,.421,.466,.015,0,.03,0,.046,0h2.899c.245,.013,.454-.176,.466-.42,0-.015,0-.03,0-.046v-16.922c.013-.245-.176-.453-.421-.466-.015,0-.03,0-.046,0h-2.899c-.245-.013-.454,.176-.466,.42,0,.015,0,.03,0,.046Z"/><path fill="#ff3008" d="M294.366,573.086c-1.953-3.666-5.775-5.951-9.93-5.936h-31.446c-.598,.005-1.079,.494-1.074,1.092,.002,.283,.115,.553,.315,.754l6.849,6.886c.602,.611,1.424,.954,2.282,.954h22.173c1.579-.017,2.873,1.248,2.89,2.826,.017,1.578-1.249,2.871-2.828,2.888h-15.288c-.598,.005-1.079,.494-1.074,1.092,.002,.283,.115,.553,.315,.754l6.849,6.886c.606,.607,1.428,.949,2.286,.949h6.912c8.989,0,15.79-9.61,10.769-19.144"/></g></g></g></g></g></g></svg>